<svg id="Layer_1" data-name="Layer 1" xmlns="http://www.w3.org/2000/svg" viewBox="0 0 1000 800"><defs><style>.cls-1{fill:#316c8c;}.cls-2{fill:#5083a5;}.cls-3{fill:#314c5b;}.cls-4{fill:#285468;}.cls-5{fill:#487fa3;}.cls-6{fill:#43799e;}.cls-7{fill:#2a4049;}.cls-8{fill:#5b8db5;}.cls-9{fill:#2a6077;}.cls-10{fill:#baa980;}.cls-11{fill:#b2966d;}.cls-12{fill:#d3c7a5;}.cls-13{fill:#42738e;}.cls-14{fill:#2f637f;}.cls-15{fill:#223f49;}.cls-16{fill:#e5dbc1;}</style></defs><path class="cls-1" d="M701.3,380.3l-2.7,1.7c32.2,47.6,34.7,97.4,1.5,128.6C656.6,551.2,554.6,638.5,571,720l61.1,13c-17.2-55.1-12.1-101.1,28.3-144.5S792.3,467,701.3,380.3Z"/><path class="cls-2" d="M608.7,605.7c.6,5.6,1.4,10.9,2.3,15.9,30.2-42.2,72-78.9,95.1-101.8,32.9-32.6,29.8-84.1.7-134l-5.5-5.5-2.7,1.7c32.2,47.6,27.7,101.4,1.5,128.6C678.5,532.9,638.2,566.2,608.7,605.7Z"/><polygon class="cls-3" points="707.2 396.3 692.9 396.7 660.7 311.4 720.1 380.6 714.5 394.3 706.9 389.7 707.2 396.3"/><path class="cls-4" d="M471.8,168.6c-38.2-13.4-70.6-40.6-70.6-40.6l-4.9,14.5-7.8,8.6,77.1,19.1Z"/><path class="cls-4" d="M372.1,160.8c-19.2,29.3-59,75.8-59,75.8l24.8-75.8Z"/><path class="cls-4" d="M420.4,136.5c-10.9,16.6-33.4,43-33.4,43l14-42.9Z"/><path class="cls-1" d="M290,91.1,269.8,117s-46-25.5-70.1-27.5C199.7,89.5,237.9,72.6,290,91.1Z"/><path class="cls-5" d="M282.3,103.1l6.2,32.3S239,153.2,221.6,170C221.6,170,234,130.1,282.3,103.1Z"/><path class="cls-1" d="M295.5,77.2l27.4-13.5C299.3,48.9,252,37.9,252,37.9Z"/><path class="cls-4" d="M367.5,209.2c11.4-40.3,50.6-86.6,50.6-86.6l-40.6,6.9C368.3,158.1,366.2,179.8,367.5,209.2Z"/><path class="cls-6" d="M334.3,451.6c61.9-72.4,101.6-201.6,158-194.9s210.1,223.7,176,444.1c0,0-245.8-389.5-339.7-213.5Z"/><path class="cls-7" d="M347.8,437c66.9-62.5,85-171,131.7-166.4S669.3,456.7,651.6,664c0,0-201.9-322.4-308.4-211.7Z"/><path class="cls-3" d="M362.3,433.5c61.6-57.5,78.2-157.3,121.2-153.1S658.1,451.6,641.8,642.3c0,0-183.3-304.6-281.3-202.9Z"/><path class="cls-7" d="M479.5,270.6a28.6,28.6,0,0,0-8.3.4c34.6,37.5,59.6,108.3,62.6,192.2.5,16.2.2,32.2-.8,47.7C598,578.5,651.6,664,651.6,664,669.3,456.7,526.2,275.2,479.5,270.6Z"/><path class="cls-6" d="M304.7,420.1c-95.2-32-203.4-122.7-248.8-90.3S-.3,619.1,154.8,789.7c0,0-6.9-446.7,175.2-342.1Z"/><path class="cls-7" d="M291.5,417.5C190.3,395.6,107.3,312.1,66,337.6S.2,583.4,143.1,750.9c0,0-5.8-366.9,161.9-322.6Z"/><path class="cls-3" d="M275.6,421.2c-93-20.1-169.4-96.9-207.4-73.4S7.6,573.9,139.1,727.9c0,0-12.5-343.2,141.8-302.4Z"/><path class="cls-7" d="M66,337.6a33.5,33.5,0,0,1,8-3.5C64.2,382,83.7,453.6,132,526a448.2,448.2,0,0,0,29.8,40.1c-20.3,87.5-18.7,184.8-18.7,184.8C.2,583.4,24.7,363.2,66,337.6Z"/><path class="cls-1" d="M555.3,730.7c32.2-50.8,85.9-29.3,94.5,6.8,12.8,53.4-35.5,62.4-35.5,62.4H555.9S541,753.3,555.3,730.7Z"/><path class="cls-8" d="M286.1,799.9H577.7S503,547.6,370.3,438c-129.2-106.8-94.8-259.4-.2-262.7l-4.3-65.9C241.6,132.3,212.6,209.6,207.2,257.8c-9,81,27.8,218,28.6,252.1S214,599.3,286.1,799.9Z"/><path class="cls-1" d="M243.8,514.9c-.7-34.1-41.8-173.8-32.8-254.8,5.2-47.2,43-88.8,160.8-113.4l-6-37.3c-124.2,22.9-155.1,99.9-160.4,148.1-9.1,81,29.6,218.3,30.4,252.4s-21.8,89.4,50.3,290h6.3C222.4,603.4,244.6,548.7,243.8,514.9Z"/><path class="cls-1" d="M341,799.9H253.1L237.3,476.1l54.8-1.5C215.5,521.2,277.1,767.5,341,799.9Z"/><path class="cls-1" d="M370.1,175.3l-1.4-22c-91.3,12.6-147.2,162-20.2,289.2C445.9,540,517.4,721.2,543.9,799.9h33.8S504,545.9,371.3,436.3C242,329.6,275.5,178.6,370.1,175.3Z"/><path class="cls-1" d="M294.9,230.7c13.3-32.4,40.1-54.2,75.2-55.4l-9.8-69.1c-34.4,9-72.2,29.2-84.7,42.3C246.6,178.9,255.1,259.7,294.9,230.7Z"/><path class="cls-1" d="M370.3,438c-20.4-17.6-37.3-35.5-50-54.2-10,35.3-33.1,57.5-62,57.5-11.4,0-23.3-3.4-35.2-9.8,6.5,35.6,12.4,65,12.7,78.4.5,21.4-11.3,53.4,3.1,120.2,1.2-58.5,8.8-122.2,43.1-129.2,58.6-11.9,131.1,175.9,93.5,299H577.7C579.6,802.1,519.8,566.8,370.3,438Z"/><path class="cls-9" d="M447.7,799.9h81.1L502.5,610.3c-14.1-26.3-17.9-35.1-36.4-61.1C458,582,425.6,665.1,447.7,799.9Z"/><path class="cls-10" d="M279.1,799.9H504.8S317.3,513.7,280.5,378.5,214.4,302,223,368.7C242.5,520,279.1,799.9,279.1,799.9Z"/><path class="cls-11" d="M292.8,757.1c-1.7,4.2-13.7,42.8-13.7,42.8H504.8s-67.9-36.6-87.9-68.7C418.4,792.9,314.2,798.4,292.8,757.1Z"/><path class="cls-1" d="M484,553.9c-20.8.8-38.1,128.8-31,246H586.7C577.2,629.6,498.5,553.4,484,553.9Z"/><path class="cls-2" d="M551.9,642.5l-3.5-.3c-27.4,0-49.6,52.1-49.6,116.5a256,256,0,0,0,3.2,41.2h84.7C583,733.4,568.7,681.4,551.9,642.5Z"/><path class="cls-8" d="M527.8,799.9H603s-15.3-59.4-40.7-61.9C538.9,735.7,527.8,799.9,527.8,799.9Z"/><path class="cls-12" d="M333.5,506.3c-27-52.7-42.6-89.4-53-127.8-21.4-78.6-25.9-92.7-46-85.7-11.7,4.1-16.7,30.8-12.5,75.9,3.5,37.3,11.6,82.2,17.7,128.9,19.4,34.5,25.8,111.2,28.4,151C300.6,719.8,381.8,720.9,333.5,506.3Z"/><path class="cls-8" d="M402.6,799.9h95.1s-38.9-47.9-51.5-49.5C421.9,747.4,402.6,799.9,402.6,799.9Z"/><path class="cls-2" d="M480,648.1c-4.1-6-58.4-20-70,21.6s-13.4,82.6-7.4,130.2c22-39.6,43.6-49.5,72.7-25.6C448.6,707.1,482.9,652.4,480,648.1Z"/><path class="cls-13" d="M480.1,649.7a2.6,2.6,0,0,0-.1-1.6c-4.1-6-58.4-20-70,21.6-8.7,31.5-11.9,62.9-10.3,96.9C415.9,708.8,464,669.3,480.1,649.7Z"/><path class="cls-8" d="M407.2,690.8C388.8,663.7,361.3,594,352.3,568c-15.8-45.3-17.1-100-1.5-97.1,28.4,5.2,84.7,88.9,94.2,118.6,8.1,25.3,34.2,51.5,35,58.6S407.2,690.8,407.2,690.8Z"/><path class="cls-13" d="M378.1,586.6c-18.6-28.9-31.8-57.1-38.1-79.2A231.5,231.5,0,0,0,352.3,568c9,26,37.7,103.8,56.1,130.8,0,0,23.3-19.8,43.8-31.2C431.3,655.6,403.1,625.5,378.1,586.6Z"/><path class="cls-12" d="M407.7,135.4l-10.3,15.7,10.8,2.8C409,148.1,407.7,135.4,407.7,135.4Z"/><path class="cls-12" d="M423.8,139.6l-12.7,14.2,10,3.8C423,152.1,423.8,139.6,423.8,139.6Z"/><path class="cls-12" d="M433.4,141.8,424,157.5l10.5,2.1C435.1,154,433.4,141.8,433.4,141.8Z"/><path class="cls-12" d="M443.5,146.4l-10.7,14.9,10.1,2.6C444,158.4,443.5,146.4,443.5,146.4Z"/><path class="cls-12" d="M458.6,150.3l-12.9,13.5,9.3,3.6C457,162.1,458.6,150.3,458.6,150.3Z"/><path class="cls-12" d="M467.5,152.4l-9.9,14.9,9.9,1.9C468.4,163.9,467.5,152.4,467.5,152.4Z"/><path class="cls-14" d="M338.2,185.7c33.5-1.1,73.6-10.9,73.6-10.9s29.3,1.4,50.2,13c0,0,7-4.7,10.4-19.3l-94.3-30Z"/><path class="cls-8" d="M344.7,232.8c6.2-39,48.5-109.7,48.5-109.7s64.5-18.1,96.3-7.6c0,0-4.2-35.9-13.3-47.3,0,0-72.6,8.6-77.3,4.7s-1.1-9.3-4.1-11-25.1-2.7-27.9-2.8S299.5,50.9,277,90.7s-12.8,70.4-12.8,70.4l8.6-20.2s-5.3,41.9-19.2,84.4c0,0,31.1-57.9,34.2-66.7l8.1,2.7-22.1,65.1,42.6-64.9s-4.5,39.9-7.4,50.8c0,0,20.6-8.2,29.3-28.7l5.1,1.2Z"/><path class="cls-12" d="M396.1,144.5,389.6,119l20.5-1.6C407.3,126,396.1,144.5,396.1,144.5Z"/><path class="cls-12" d="M423,139.7l-8.5-21.5,16.6-3C429.8,123,423,139.7,423,139.7Z"/><path class="cls-12" d="M436.4,137.6,434.6,116l13.7-.4C445.6,122.7,436.4,137.6,436.4,137.6Z"/><path class="cls-12" d="M450.1,133.1l-2.7-19.9,12.1-.9C457.5,119.1,450.1,133.1,450.1,133.1Z"/><path class="cls-12" d="M466.5,130.4l-4.4-17.3,10.3-2C471.4,117.3,466.5,130.4,466.5,130.4Z"/><path class="cls-12" d="M475,129.2l-.4-17.5h8.8C481.4,117.4,475,129.2,475,129.2Z"/><path class="cls-5" d="M398.9,72.9c-3.4-2.7-2.5-6.3-2.8-8.8-10,14.9-20.7,22.2-58.6,38.4-20,8.5-69.6-11.8-74.8,31-1.9,16.9,1.5,27.6,1.5,27.6l8.6-20.2s13.6,4.8,15,17.7l8.1,2.7c9.4-8.9,14.1-7.7,20.5.2,0,0,23.6-6,21.9,22.1l5.1,1.2c8.6-23.5,26-38.3,44.6-48.5,0,0,43.3-22.7,101.5-20.8,0,0-4.2-35.9-13.3-47.3,0,0-15.7,47.1-95.9,37.6C372.8,104.9,400,73.9,398.9,72.9Z"/><path class="cls-15" d="M482.1,86.1c1.9,0,10.4-23.5,6.2-25.2s-52,11.3-52,11.3S469.5,86.1,482.1,86.1Z"/><path class="cls-15" d="M365.4,97.5c-27.1,12.3-58.6,16.3-58.6,16.3s17,10.4,20.8,11S365.4,97.5,365.4,97.5Z"/><path class="cls-8" d="M200.3,619.6c3.2-26.7,32.2-113,37-117.9,22.9,67.2,25.1,167.6,25.1,167.6Z"/><path class="cls-13" d="M250.7,555.1c-2.1,39.3-12.1,69.1-24.2,69.1-8,0-15.2-13.3-19.6-33.9-3.3,12-5.8,22.6-6.6,29.3l62.1,49.7S261.1,612.1,250.7,555.1Z"/><path class="cls-2" d="M200.3,619.6c4.3-5.8,40.5,17.5,64.3,52.9,18,26.9,30.4,84.6,33.9,127.4L218.7,780C230.5,723.5,197.3,623.7,200.3,619.6Z"/><path class="cls-13" d="M244.1,735.4c27.1,0,50.2,28.4,51.5,63.3.1.2,0,.3,0,.5l2.9.7c-3.5-42.8-16.1-104.6-34.2-131.4-23.8-35.4-59.7-54.7-64-48.9-2.4,3.3,18.6,68.6,20.8,123.4A38.5,38.5,0,0,1,244.1,735.4Z"/><path class="cls-1" d="M242.3,518.7c-6.3-4-10.9.4-19.6,20.3l11.1-65.4Z"/><path class="cls-16" d="M436.2,800h19.7s-13.7-12-17.7-12.3S436.2,800,436.2,800Z"/><path class="cls-16" d="M459.7,800h19.8s-13.8-12-17.8-12.3S459.7,800,459.7,800Z"/><path class="cls-16" d="M480.2,800H500s-21-16-25-16.3S480.2,800,480.2,800Z"/><path class="cls-16" d="M541.9,800h19.7s-7.9-8.4-11.8-8.5S541.9,800,541.9,800Z"/><path class="cls-16" d="M565.4,800h19.8s-8-8.4-11.8-8.5S565.4,800,565.4,800Z"/><path class="cls-16" d="M585.9,800h19.8s-13.2-11.1-17.1-11.3S585.9,800,585.9,800Z"/><path class="cls-8" d="M298.5,799.9H197.6s4.6-31.5,41-33.3C262.6,765.4,298.5,799.9,298.5,799.9Z"/><path class="cls-16" d="M255.6,800H235.4s9.3-12.9,13.3-13.1S255.6,800,255.6,800Z"/><path class="cls-16" d="M231.6,800H211.4s9.3-12.9,13.3-13.1S231.6,800,231.6,800Z"/><path class="cls-16" d="M210.6,800H190.5s15.1-17.1,19.1-17.4S210.6,800,210.6,800Z"/><path class="cls-12" d="M347.2,105.2a91.9,91.9,0,0,1-23,6.5s6.6,4,8.1,4.3S347.2,105.2,347.2,105.2Z"/></svg>