<svg xmlns="http://www.w3.org/2000/svg" viewBox="0 0 557 297"><defs><style>.cls-1{fill:#ff8d2b;}.cls-2{fill:#ffe920;}.cls-3{fill:#aee4ff;}.cls-4{fill:#fdff97;}.cls-5{fill:#ffd92e;}.cls-6{fill:#fff97c;}.cls-7{fill:#f60000;}.cls-8{fill:#fff;}.cls-9{fill:#b85a00;}.cls-10{fill:#ffb84e;}.cls-11{fill:#e12b00;}.cls-12{fill:#f6ca00;}.cls-13{fill:#ff7f25;}.cls-14{fill:#e10000;}.cls-15{fill:#fc9e00;}.cls-16{fill:#ff4702;}</style></defs><g id="Layer_2" data-name="Layer 2"><path class="cls-1" d="M486.7,209.8a73.5,73.5,0,0,1,25.4-10.1,255.6,255.6,0,0,0,21.1-23.1l8-6.1c-6.9-2.6-13.8,2.9-19.4,7.6s-11.8,8-17.4,5.9c-1.1,1.3-3.4,1.4-5.2,1.1l-43.7-5.9c-6.1-.8-12.7-1.9-16.8-6.5s-2.7-13.8,3.4-14.6c-4.4.9-7.6-5-6.1-9.2s5.8-6.7,9.7-8.9,8.2-4.7,9.7-9-1-10.4-5.1-13.5-9.2-4.6-14.2-5.8a23,23,0,0,1,9.5-16.2c-4-4.2-8.2-8.5-13.6-10.5s-12.6-.8-15.6,4.2c-1.5,2.6-1.8,5.9-3.5,8.4-4.8,7.5-16,3.8-24.7,2.5-1.4-.2-3.1-.3-3.9.9a1.6,1.6,0,0,0,.4,2.1c-14.6-1-28.3-10.5-34.1-23.9-11.9,1.9-24.2-8.9-23.8-20.9l-9,1.8c3.3,7.6-6.2,15.5-14.4,14.4S288.9,67.3,282.6,62a118.9,118.9,0,0,0-34.5-19.9,23.6,23.6,0,0,1-16.6,19.7l4.3-6a87.3,87.3,0,0,0-64.7-3.1c-5.9,2.1-11.8,4.9-18.1,5.2s-13.4-2.6-15.4-8.6c-4.1,5.7-2.7,14,1.4,19.7s10.5,9.3,16.6,12.8a79.6,79.6,0,0,0-48.7,7.6c-11.5,5.8-23,14.8-35.7,12.4-1,9.3-13.6,15-21.2,9.6-2.4,8.1-13.5,8.6-21.9,7.4l-15.2-2c17.1,3.1,33.9,9.5,50.6,16.6l58.7,18,21.6,21.8s15.9,1.7,22.1,6.2,8.2,11.8,12.7,17.4,14.2,8.9,18.4,3a138.7,138.7,0,0,0,44.1,33.7c-4-3.7-.9-11,4.1-13s10.7-.6,15.9.8c-2.8-5.9,5.5-11.8,11.9-10.3s10.8,6.9,16,10.9,14.6,7.9,20.9,13.3,10.3,15,5.9,21.9a32.4,32.4,0,0,0,20.1-12.7c12.1-3.8,23.5,6.9,31.7,16.6,4.7,5.6,9.7,12.8,7.1,19.6a2.5,2.5,0,0,1-2.7,1.3,86.8,86.8,0,0,1,1.4,8.9c3.5-8,11.1-14.4,19.8-14.6a278.4,278.4,0,0,0-44.9-51.4c-4.5-4-9.7-9.4-8-15.2s7.5-7.3,12.6-6.3,9.2,4.1,13.3,7.2c1.5,1.2,3.3,2.4,5.2,2.1s3.1-3.1,1.5-4.1l12.1,9.8c3.7.3,4.4-5.3,2.3-7.5l24.2,9.5c-6-3.1-2.6-14.5,4.1-13.8l26.5,15.8a12.1,12.1,0,0,1-4.5-14.4c19.7,6.4,40.6,7.3,61.3,8.2l34.9,1.5-1.5-2.9A81.8,81.8,0,0,1,486.7,209.8Z"/><path class="cls-2" d="M236.9,111.3a15.5,15.5,0,0,1,6-1.8A953.7,953.7,0,0,1,351,100a12.3,12.3,0,0,0-6.1-5.6H361a185.3,185.3,0,0,1-28.8-3.2c-2.3-.5-4.8-1-6.6-2.7s-2.1-3-3.5-4.4-5.8-2.9-9.1-3.3l-58.6-7.7a12.7,12.7,0,0,0,8.5-1.8,28.8,28.8,0,0,0-15.5-3.5c-1.7-7.2,4.6-13.4,9.9-18.5A125.9,125.9,0,0,0,283,13.6a29.6,29.6,0,0,1-10.4,6.9c-6.4,2.8-13.7,5.6-16.5,12-1,2.2-1.4,4.7-2.4,6.9-2,4.1-6.2,6.5-10.2,8.7-10.1,5.6-20.4,11.2-31.7,13.4a9.7,9.7,0,0,0,4-8.6L178.7,64.4l.3-.4c3.1-3.6,5.6-8.2,9.9-10.2,2.3-1.1,4.9-1.3,7.1-2.5,10.5-5.4,4.5-23,12.2-32l-33.7,28c-14.5,12.1-29,24.2-45.2,33.9a.6.6,0,0,1,.6.5,2.6,2.6,0,0,1-1.3,2.1c-18,13.1-42.5,11.1-64.6,8.5a11.6,11.6,0,0,0,7.4,7.4A103.3,103.3,0,0,1,21.6,118l35.2,9-3.5-2.7L92.9,127c2.5.2,5.2.4,7.5,1.6s5.6,4.7,8.6,3.7a15.8,15.8,0,0,0-.5-11.5l10.8-3.8-5-6.1c7.6-1,16-1.9,22.5,2.2,3.2,2.1,5.6,5.1,7.9,8.1L171.2,156c-4.1-9.3,8.1-21.2,4.1-29.4,2.5,3.2,6.5,5.3,10.4,4.3s6.7-8.3,2.8-11c24.2,14.8,42.9,36.9,61.1,58.6a29.9,29.9,0,0,0-6.5-20.9c1.4,1.5,2.4-2.1,1.3-3.9l-18.7-29.6C231.4,123.1,232,114.5,236.9,111.3Z"/><path class="cls-3" d="M128.3,81.8l1-.6C128.8,81,128.1,81.3,128.3,81.8Z"/><path class="cls-4" d="M283,13.6a11.5,11.5,0,0,0,3.3-7.4C285.3,8.7,284.2,11.2,283,13.6Z"/><path class="cls-3" d="M494.8,141.2l3.8.4A9.9,9.9,0,0,0,494.8,141.2Z"/><path class="cls-5" d="M439.1,180.1,433,169.8c37.3.7,74.3-5.3,111.1-11.3-17.4-10.1-41.9-.9-58.2-12.6a12.2,12.2,0,0,1,8.9-4.7l-3.6-.4a9.8,9.8,0,0,1,3.3-5.7q-59,15.8-118.4,29.3l6.2,4.1c-4.6-3.1-19.7-1.3-25.3-1.6l-27.4-1.8c-13-.8-27.8-3.9-40.6-2.2,9.8,5,23.1,6.2,34,8.2,22.9,4.3,46.2,6.5,69.4,9.5,8.4,1,16.9,2.1,25.1,4.4,13.1,3.7,25.4,10.3,38.8,12.6l-24.4-17.5Z"/><path class="cls-6" d="M379.1,49.5a3.5,3.5,0,0,0,5,1.7c-.9-.5-2.1.8-1.7,1.9a3,3,0,0,0,2.7,1.5,18.2,18.2,0,0,1,3.3,0c1.9.4,3.3,2.1,4.6,3.6,3.7,5,7.5,9.9,11.3,14.8-4.5-5.9-16.6-10.7-23.6-12.2-4.4-1-8.9-1.9-12.9,1.1s-2.6,8-6,8.8c-5.3,1.2-5.9-5.8-3.9-9.5,3.3-6.2,17.7-11.2,23.4-16.1C379.6,45.9,378.4,47.6,379.1,49.5Z"/><path class="cls-7" d="M143.6,102.9h-.4a84.8,84.8,0,0,0,17.3-2.4l-7.8-3.2L68.5,109.5Q106,105.3,143.6,102.9Z"/><path class="cls-8" d="M152.7,97.2l4.6-.7h-6.1Z"/><path class="cls-9" d="M157.3,96.5q32.1-.1,64.1-3.1l-4.3-.4c3.7-1.6,7.4-3.2,11.1-4.6s6.5-2.4,9.7-3.4h-1.4Z"/><path class="cls-10" d="M256,80.3A166,166,0,0,0,237.9,85,33.8,33.8,0,0,0,256,80.3Z"/><path class="cls-11" d="M255.7,248.4l-39.8-34.1,27.6,7.5-2.1-3.3,10.3,5.3-40.3-25.2c-10.7-6.7-21.7-13.6-29.1-23.8.4,2.2.9,4.4,1.3,6.6l-9.4-4.4,11.7,14.3c-29.7-13.4-52.7-39.5-83.3-50.6a198.4,198.4,0,0,1,40.3,32.7l-4.9-3.2A98.8,98.8,0,0,0,182.1,208l-2.9-4.2c20.1,5.4,33.3,24.2,44.6,41.7a40.9,40.9,0,0,1-5.4-15.1Z"/><path class="cls-12" d="M361,221.9l-5.4-3,28.6,53-52.9-47L322,230c-1.4.7-2.5-6-2.6-6.5-1.1-4.4,1.9-3.2-1.8-7.2s-11.8-5-17.2-5.9c-11-1.8-11.4-9.2-16.7-18.2,1.2,0,2.5-.4,3.7-.3-4.1-2.1-8.3-5.2-10.3-9.5C306,191.5,334.5,207.1,361,221.9Z"/><path class="cls-13" d="M470.8,112.9a5.7,5.7,0,0,0-3.5,2.8l10.3-2A13.2,13.2,0,0,0,470.8,112.9Z"/><path class="cls-3" d="M363.5,128c-2.1,0-4.3-.1-6.4-.3A22.9,22.9,0,0,0,363.5,128Z"/><path class="cls-14" d="M467.3,115.7c-17.8,2.9-35.9,3.7-53.9,4.3l-82.8,3.2a118.5,118.5,0,0,0,26.5,4.5,24.5,24.5,0,0,1-6-1.8c6.6,2.5,19.1,1.3,25.7,2s12.1,1,18.2,1.7c17.4,2.1,33.7,4.4,51.2,1.1a4.1,4.1,0,0,1-2.8-3,78.9,78.9,0,0,0,23.6-9.9A3,3,0,0,1,467.3,115.7Z"/><path class="cls-8" d="M174.9,160.6a47.3,47.3,0,0,0-4.6-3.2A23.7,23.7,0,0,0,174.9,160.6Z"/><path class="cls-15" d="M191.2,166.2c-5.5-1.8-11.3-3-16.3-5.6,1.8,1.3,3.5,2.8,5.2,4.3l-2.7.5c9.6,5.6,32.7,23.4,44,18.3C214.1,175.3,201.7,169.5,191.2,166.2Z"/><path class="cls-8" d="M360,170.1a7.8,7.8,0,0,1-3.5-1C358.3,170.2,359.4,170.4,360,170.1Z"/><path class="cls-16" d="M270.3,140.8a48.7,48.7,0,0,0,6.3,6.5l20.9,2.6-3.2-1.2C288.7,146.7,274.5,146.2,270.3,140.8Z"/><path class="cls-16" d="M287.5,151a44.2,44.2,0,0,1-10.9-4.3l-22.2-1.6A220.8,220.8,0,0,1,287.5,151Z"/><path class="cls-8" d="M360.7,168.9a1.5,1.5,0,0,1-.7,1.2h1.7A14.7,14.7,0,0,0,360.7,168.9Z"/><path class="cls-16" d="M444.7,182.8c-45.7-22-96.3-29.8-147.2-34.4,6.9,1.7,13.7,3.4,20.5,5.3,10.9,3.1,34.4,6,42.7,15.2.2-2.5-2.1-7.8-2.7-9.4C387.1,162.1,417.5,172.5,444.7,182.8Z"/><path class="cls-3" d="M58.7,127.5l-1.9-.5,7,5.4C64.5,129.9,61.2,128.2,58.7,127.5Z"/></g></svg>