<svg xmlns="http://www.w3.org/2000/svg" viewBox="0 0 500 800"><defs><style>.cls-1{isolation:isolate;}.cls-2{fill:#78633d;}.cls-3{fill:#e3b872;}.cls-4,.cls-6{fill:#fccb7d;}.cls-5{opacity:0.2;}.cls-5,.cls-6,.cls-8{mix-blend-mode:multiply;}.cls-7{fill:#3e3f3d;}.cls-8,.cls-9{fill:#5d5d5c;}.cls-10{fill:#aeaeae;}</style></defs><g class="cls-1"><g id="Layer_1" data-name="Layer 1"><path class="cls-2" d="M483.687,715.291a113.6,113.6,0,0,1-21.269-6.528c-1.559-.682,13.355-6.454,19.79-7.975-2.627-27.116-4.6-55.557-6.038-84.642-2.016-.2-4.046-.373-6.062-.639-1.652-.219,3.509-5.394,5.721-6.341q-.246-5.439-.481-10.9c-4.8-1.647-9.626-3.187-14.278-5.226-1.564-.682,9.369-4.923,13.868-5.292-1.377-36.686-1.974-74-2.03-110.581-1.554-.313-6.5-3.687-5.11-4.508,1.666-.98,3.393-1.848,5.11-2.725q0-7.692.037-15.338c-9.519-1.9-19.108-3.374-28.021-7.55-1.3-.611,18.954-9.654,28.171-13.3.28-29.117.863-181.564,1.614-208.246-1.04-.2-2.072-.411-3.089-.658-1.587-.382,2.1-5.1,3.28-6.038.322-10.812.672-21.362,1.036-31.572a134.114,134.114,0,0,0-15.758-4.1c-2.072-.4,10.835-7.2,16.253-9.08.812-21.087,1.694-40.606,2.562-58.049-1.8-.434-3.561-1.026-5.353-1.5-1.614-.42,3.692-5.591,5.768-6.631.051-1.046.1-2.077.159-3.113-10.864,1.129-21.964-.224-32.837-1.694-1.857-.251,22.771-6.728,33.5-10.746.341-6.253.672-12.142.994-17.592-2.431-1.213-4.876-2.389-7.368-3.476-1.092-.476,5.264-7.322,8.138-9.412,1.32-21.586,2.249-33.961,2.249-33.961q-23.874,4.962-47.47,8.726a16.144,16.144,0,0,0-1.81,3.9c-.373,1.377-4.965-1.451-5.371-2.786-3.224.5-6.458,1.008-9.673,1.479a29.684,29.684,0,0,0-2.45,5.343c-.467,1.676-5.464-2.529-6.244-4.125q-14.817,2.037-29.43,3.687c-2.053,4.573-3.854,9.258-6.234,13.681-.873,1.629-6.1-8.268-7.121-12.258q-21.369,2.156-42.132,3.546a25.525,25.525,0,0,0-1.014,2.875c-.451,1.675-4.739-1.47-5.28-2.46-18.079,1.13-35.749,1.858-52.888,2.245-.952,1.782-5.042,7.527-5.891,6.052a47.429,47.429,0,0,1-2.8-5.884c-38.619.625-74.432-.411-106.156-2.282-.739,1.629-2.937,6.426-3.759,6.426-3.289,0-3.833-4.028-3.924-6.9-5-.322-9.913-.658-14.687-1.017-1.164,3.686-5.72,13.14-6.593,11.67-2.373-3.976-3.876-8.315-5.481-12.622-30.363-2.529-55.538-5.633-73.967-8.26-.488,1.839-3.988,7.527-4.65,6.081a78.744,78.744,0,0,0-3.962-7.345c-16.761-2.539-26-4.386-26-4.386,4.139,35.025,7.261,70.563,9.547,106,3.738.513,13.01,4.428,11.6,5.324a61.354,61.354,0,0,1-10.942,5.3q1.077,17.961,1.882,35.842c1.736.62,6.9,4.816,5.236,5.478-1.629.653-3.259,1.3-4.916,1.876,2.226,52.617,2.79,228.479,2.307,277.2,6.2,2.972,19.86,12.234,18.087,12.622-6.059,1.316-12.137,2.818-18.287,3.607-.63,42.64-2.03,82.761-3.778,118.939a18.668,18.668,0,0,0,4.734.84c1.517.051-2.942,6.752-5.188,8.362q-.758,14.943-1.578,28.889c2.03.186,4.056.4,6.094.424,1.96.033-3.919,6.757-6.546,7.172q-.976,16.05-1.983,30.532c9.925-.019,33.013,0,30.568.382-11.164,1.727-21.31,6.57-31.408,11.479-1.6,22.011-3.164,40.727-4.489,55.431a29.184,29.184,0,0,0,7.132-.037c2.139-.262-4.93,4.778-7.625,5.4-1.864,20.233-3.142,31.507-3.142,31.507,11.808-2.09,23.947-3.924,36.329-5.534,1.1-2.664,1.845-5.581,2.494-7.63,1.362-4.274,2.557-8.586,3.728-12.911.5-1.82,6.762,12.566,8.677,18.721,19.853-2.268,40.24-3.985,60.837-5.254,1.915-5.749,8.124-18.572,8.679-17.289a139.58,139.58,0,0,1,5.436,16.491q13.285-.679,26.619-1.129c.231-2.1,2.795-9.184,3.976-7.681a33.249,33.249,0,0,1,4.159,7.429c27.191-.794,54.307-.91,80.634-.565a96.73,96.73,0,0,1,3.5-12.072c.679-1.694,6.113,8.171,7.373,12.24,34.934.625,68.27,2.039,98.291,3.765a162.542,162.542,0,0,1,3.326-16.677c.448-1.805,6.412,11.8,8.773,17.4q5.466.344,10.76.686s4.4-8.222,5.031-6.649a57.835,57.835,0,0,1,2.2,7.139c19.123,1.311,36.369,2.7,51.105,3.99-.093-3.542-.261-7.079-.564-10.616-.2-2.3,5.865,7.186,6.43,11.134,7.414.667,14.129,1.306,20.032,1.885a48.544,48.544,0,0,1,1.867-15.548c.429-1.414,11.912,11.026,15.683,17.358,7.6.817,11.731,1.316,11.731,1.316C489.669,764.007,486.379,740.293,483.687,715.291Z"/><path class="cls-3" d="M483.472,714.441a114.008,114.008,0,0,1-21.268-6.523c-1.559-.686,13.354-6.458,19.794-7.984-2.628-27.111-4.606-55.552-6.038-84.642-2.021-.2-4.051-.363-6.057-.634-1.662-.22,3.5-5.394,5.716-6.342q-.252-5.437-.481-10.895c-4.8-1.643-9.626-3.187-14.279-5.226-1.567-.682,9.366-4.923,13.864-5.3-1.376-36.681-1.974-73.993-2.025-110.576-1.554-.313-6.51-3.687-5.115-4.508,1.671-.98,3.393-1.848,5.11-2.725q.007-7.694.038-15.338c-9.52-1.9-19.109-3.374-28.017-7.55-1.3-.612,18.955-9.655,28.166-13.3.28-29.117.858-181.56,1.614-208.242-1.036-.2-2.067-.415-3.089-.662-1.586-.383,2.1-5.1,3.285-6.038.322-10.817.668-21.362,1.036-31.577a135.584,135.584,0,0,0-15.753-4.1c-2.081-.4,10.831-7.205,16.243-9.08.817-21.083,1.694-40.611,2.562-58.049-1.792-.434-3.556-1.026-5.352-1.5-1.615-.424,3.691-5.59,5.767-6.631.052-1.045.108-2.076.164-3.112-10.863,1.129-21.969-.224-32.841-1.694-1.858-.252,22.776-6.733,33.5-10.746.345-6.253.676-12.142.993-17.592-2.426-1.213-4.876-2.389-7.368-3.476-1.091-.476,5.264-7.326,8.138-9.412,1.321-21.591,2.249-33.962,2.249-33.962q-23.874,4.964-47.46,8.726a15.707,15.707,0,0,0-1.82,3.9c-.373,1.376-4.965-1.452-5.366-2.786-3.229.5-6.463,1.008-9.678,1.479a29.841,29.841,0,0,0-2.45,5.343c-.466,1.675-5.464-2.529-6.238-4.13Q396.189,41.6,381.579,43.25c-2.053,4.568-3.854,9.258-6.234,13.681-.872,1.629-6.1-8.273-7.12-12.258q-21.363,2.163-42.132,3.546a24.719,24.719,0,0,0-1.013,2.87c-.452,1.679-4.741-1.466-5.28-2.455-18.082,1.129-35.748,1.858-52.887,2.245-.954,1.782-5.044,7.522-5.891,6.052a47.091,47.091,0,0,1-2.807-5.884c-38.616.625-74.427-.415-106.153-2.282-.742,1.629-2.935,6.426-3.761,6.426-3.288,0-3.833-4.028-3.922-6.9-5-.322-9.911-.663-14.687-1.018-1.165,3.687-5.721,13.136-6.594,11.671-2.375-3.981-3.877-8.315-5.48-12.623C87.252,43.8,62.08,40.7,43.648,38.065,43.16,39.9,39.663,45.6,39,44.146a76.449,76.449,0,0,0-3.96-7.345C18.278,34.262,9.031,32.414,9.031,32.414c4.139,35.03,7.261,70.564,9.55,106,3.738.513,13.007,4.428,11.6,5.323a61.366,61.366,0,0,1-10.943,5.3Q20.32,167,21.124,184.875c1.736.621,6.9,4.816,5.238,5.479-1.631.653-3.264,1.3-4.918,1.876,2.225,52.616,2.788,228.474,2.3,277.2,6.2,2.968,19.862,12.23,18.086,12.618-6.056,1.316-12.134,2.818-18.287,3.607-.63,42.635-2.032,82.761-3.775,118.939a18.622,18.622,0,0,0,4.734.839c1.517.052-2.942,6.752-5.189,8.362q-.759,14.944-1.577,28.889c2.027.182,4.053.4,6.092.425,1.959.028-3.917,6.757-6.544,7.172q-.974,16.043-1.984,30.531c9.923-.019,33.012,0,30.569.383-11.164,1.726-21.311,6.565-31.409,11.483-1.6,22.007-3.166,40.723-4.489,55.422a28.929,28.929,0,0,0,7.131-.033c2.141-.261-4.928,4.774-7.623,5.4C7.62,773.7,6.341,784.977,6.341,784.977c11.811-2.091,23.948-3.92,36.327-5.534,1.1-2.665,1.846-5.586,2.5-7.63,1.363-4.274,2.555-8.586,3.729-12.911.5-1.825,6.759,12.566,8.674,18.721,19.853-2.268,40.242-3.985,60.84-5.254,1.915-5.749,8.124-18.568,8.676-17.289a139.167,139.167,0,0,1,5.439,16.5q13.286-.686,26.616-1.133c.234-2.105,2.795-9.184,3.978-7.682a33.359,33.359,0,0,1,4.16,7.425c27.191-.789,54.3-.906,80.636-.565a96.009,96.009,0,0,1,3.493-12.062c.678-1.7,6.112,8.166,7.375,12.235,34.936.625,68.269,2.039,98.287,3.765a162.584,162.584,0,0,1,3.337-16.677c.443-1.806,6.4,11.8,8.763,17.4q5.468.334,10.761.685s4.395-8.221,5.03-6.649a57.177,57.177,0,0,1,2.2,7.14c19.126,1.311,36.364,2.692,51.1,3.985-.093-3.542-.261-7.079-.56-10.612-.195-2.305,5.861,7.187,6.426,11.134,7.415.668,14.134,1.307,20.032,1.886A48.668,48.668,0,0,1,466.03,766.3c.434-1.41,11.913,11.026,15.683,17.358,7.6.817,11.736,1.316,11.736,1.316C489.455,763.153,486.165,739.439,483.472,714.441Z"/><path class="cls-4" d="M30.184,143.737a61.366,61.366,0,0,1-10.943,5.3Q20.32,167,21.124,184.875c1.736.621,6.9,4.816,5.238,5.479-1.631.653-3.264,1.3-4.918,1.876,1.64,38.781,2.373,201.214,2.454,238.171,38.665,38.17,87.131,64.8,140.662,75.686,56.5,11.494,116.389,7.616,172.279-5.459,42.818-10.014,85.72-26.341,124.263-49.211a76.967,76.967,0,0,1-16.388-5.216c-1.3-.612,18.955-9.655,28.166-13.3.28-29.117.858-181.56,1.614-208.242-1.036-.2-2.067-.415-3.089-.662-1.586-.383,2.1-5.1,3.285-6.038.322-10.817.668-21.362,1.036-31.577a135.584,135.584,0,0,0-15.753-4.1c-2.081-.4,10.831-7.205,16.243-9.08.817-21.083,1.694-40.611,2.562-58.049-1.792-.434-3.556-1.026-5.352-1.5-1.615-.424,3.691-5.59,5.767-6.631.052-1.045.108-2.076.164-3.112-10.863,1.129-21.969-.224-32.841-1.694-1.858-.252,22.776-6.733,33.5-10.746.345-6.253.676-12.142.993-17.592-2.426-1.213-4.876-2.389-7.368-3.476-1.091-.476,5.264-7.326,8.138-9.412,1.321-21.591,2.249-33.962,2.249-33.962q-23.874,4.964-47.46,8.726a15.707,15.707,0,0,0-1.82,3.9c-.373,1.376-4.965-1.452-5.366-2.786-3.229.5-6.463,1.008-9.678,1.479a29.841,29.841,0,0,0-2.45,5.343c-.466,1.675-5.464-2.529-6.238-4.13Q396.189,41.6,381.579,43.25c-2.053,4.568-3.854,9.258-6.234,13.681-.872,1.629-6.1-8.273-7.12-12.258q-21.363,2.163-42.132,3.546a24.719,24.719,0,0,0-1.013,2.87c-.452,1.679-4.741-1.466-5.28-2.455-18.082,1.129-35.748,1.858-52.887,2.245-.954,1.782-5.044,7.522-5.891,6.052a47.091,47.091,0,0,1-2.807-5.884c-38.616.625-74.427-.415-106.153-2.282-.742,1.629-2.935,6.426-3.761,6.426-3.288,0-3.833-4.028-3.922-6.9-5-.322-9.911-.663-14.687-1.018-1.165,3.687-5.721,13.136-6.594,11.671-2.375-3.981-3.877-8.315-5.48-12.623C87.252,43.8,62.08,40.7,43.648,38.065,43.16,39.9,39.663,45.6,39,44.146a76.449,76.449,0,0,0-3.96-7.345C18.278,34.262,9.031,32.414,9.031,32.414c4.139,35.03,7.261,70.564,9.55,106C22.319,138.927,31.588,142.842,30.184,143.737Z"/><g class="cls-5"><polygon class="cls-6" points="104.181 95.026 95.32 86.977 94.466 96.351 105.231 101.055 104.181 95.026"/><polygon class="cls-6" points="61.844 83.006 56.52 84.793 51.506 83.641 55.885 89.18 61.07 89.623 61.844 83.006"/><polygon class="cls-6" points="55.477 111.354 50.158 113.155 45.137 111.993 49.523 117.527 54.689 117.975 55.477 111.354"/><polygon class="cls-6" points="224.536 90.258 219.205 92.059 214.196 90.892 218.577 96.436 223.762 96.888 224.536 90.258"/><polygon class="cls-6" points="165.876 73.562 160.611 79.189 167.307 86.889 173.858 78.139 165.876 73.562"/><polygon class="cls-6" points="144.083 103.244 133.936 111.167 144.489 118.698 151.052 105.67 144.083 103.244"/><polygon class="cls-6" points="201.48 100.775 198.729 103.734 202.25 107.793 205.701 103.179 201.48 100.775"/><polygon class="cls-6" points="250.226 88.209 247.464 91.172 250.989 95.227 254.426 90.617 250.226 88.209"/><polygon class="cls-6" points="232.879 121.82 230.117 124.779 233.645 128.834 237.084 124.237 232.879 121.82"/><polygon class="cls-6" points="315.493 101.83 312.726 104.788 316.245 108.848 319.693 104.233 315.493 101.83"/><polygon class="cls-6" points="148.345 85.059 145.581 88.027 149.094 92.077 152.545 87.467 148.345 85.059"/></g><g class="cls-5"><polygon class="cls-6" points="380.712 449.379 389.577 441.329 390.427 450.704 379.662 455.407 380.712 449.379"/><polygon class="cls-6" points="423.049 437.358 428.373 439.141 433.384 437.993 429.008 443.531 423.823 443.975 423.049 437.358"/><polygon class="cls-6" points="429.418 465.706 434.738 467.507 439.759 466.34 435.372 471.875 430.202 472.327 429.418 465.706"/><polygon class="cls-6" points="260.357 444.609 265.688 446.411 270.693 445.24 266.318 450.788 261.134 451.236 260.357 444.609"/><polygon class="cls-6" points="319.019 427.914 324.282 433.541 317.586 441.241 311.03 432.491 319.019 427.914"/><polygon class="cls-6" points="340.815 457.596 350.959 465.514 340.404 473.051 333.844 460.022 340.815 457.596"/><polygon class="cls-6" points="283.411 455.127 286.161 458.086 282.643 462.146 279.195 457.53 283.411 455.127"/><polygon class="cls-6" points="234.664 442.561 237.427 445.524 233.904 449.579 230.465 444.969 234.664 442.561"/><polygon class="cls-6" points="252.009 476.172 254.773 479.13 251.248 483.181 247.809 478.59 252.009 476.172"/><polygon class="cls-6" points="169.397 456.182 172.169 459.14 168.648 463.2 165.2 458.585 169.397 456.182"/><polygon class="cls-6" points="336.545 439.411 339.312 442.379 335.799 446.429 332.348 441.819 336.545 439.411"/></g><g class="cls-5"><polygon class="cls-6" points="79.758 651.526 64.849 654.508 73.797 662.455 86.709 654.998 79.758 651.526"/><polygon class="cls-6" points="119.932 690.401 112.154 686.047 113.101 693.005 121.708 694.605 119.932 690.401"/><polygon class="cls-6" points="137.902 676.379 131.439 680.345 124.48 680.345 131.934 686.313 138.896 685.314 137.902 676.379"/><polygon class="cls-6" points="87.166 688.781 83.606 690.979 79.758 690.979 83.878 694.269 87.714 693.723 87.166 688.781"/><polygon class="cls-6" points="58.699 678.833 55.127 681.04 51.292 681.04 55.405 684.325 59.24 683.779 58.699 678.833"/><polygon class="cls-6" points="87.296 710.452 83.736 712.649 79.898 712.649 84.011 715.944 87.849 715.394 87.296 710.452"/><polygon class="cls-6" points="206.571 666.719 202.999 668.917 199.163 668.917 203.277 672.207 207.112 671.666 206.571 666.719"/><polygon class="cls-6" points="161.145 664.447 158.273 669.412 164.435 673.882 167.72 666.435 161.145 664.447"/><polygon class="cls-6" points="41.019 674.881 39.502 677.499 42.748 679.85 44.465 675.931 41.019 674.881"/><polygon class="cls-6" points="71.074 672.398 69.558 675.011 72.801 677.363 74.53 673.439 71.074 672.398"/><polygon class="cls-6" points="150.312 689.668 144.267 697.134 153.193 700.82 155.769 690.261 150.312 689.668"/><polygon class="cls-6" points="191.595 678.226 190.081 680.849 193.326 683.2 195.05 679.277 191.595 678.226"/><polygon class="cls-6" points="224.882 660.91 223.384 663.532 226.613 665.884 228.349 661.964 224.882 660.91"/><polygon class="cls-6" points="217.94 688.25 216.422 690.863 219.653 693.215 221.384 689.286 217.94 688.25"/><polygon class="cls-6" points="274.582 659.846 273.072 662.455 276.313 664.806 278.042 660.886 274.582 659.846"/><polygon class="cls-6" points="60.395 656.37 58.881 658.978 62.126 661.335 63.853 657.41 60.395 656.37"/><polygon class="cls-6" points="150.345 675.749 148.835 678.366 152.083 680.723 153.803 676.785 150.345 675.749"/><polygon class="cls-6" points="106.573 655.138 100.11 659.104 93.155 659.104 100.602 665.072 107.571 664.087 106.573 655.138"/><polygon class="cls-6" points="131.439 660.966 129.932 663.579 133.175 665.936 134.893 662.011 131.439 660.966"/></g><g class="cls-5"><polygon class="cls-6" points="303.452 528.574 321.991 532.191 310.923 542.135 294.812 532.942 303.452 528.574"/><polygon class="cls-6" points="253.726 577.132 263.378 571.677 262.218 580.333 251.549 582.367 253.726 577.132"/><polygon class="cls-6" points="231.326 559.801 239.373 564.696 248.017 564.659 238.78 572.111 230.129 570.921 231.326 559.801"/><polygon class="cls-6" points="294.453 574.938 298.903 577.654 303.669 577.621 298.573 581.742 293.802 581.079 294.453 574.938"/><polygon class="cls-6" points="329.77 562.41 334.219 565.116 339.005 565.102 333.902 569.213 329.129 568.55 329.77 562.41"/><polygon class="cls-6" points="294.4 601.872 298.861 604.574 303.632 604.565 298.536 608.676 293.758 608.008 294.4 601.872"/><polygon class="cls-6" points="145.903 548.182 150.345 550.888 155.125 550.884 150.03 555 145.249 554.323 145.903 548.182"/><polygon class="cls-6" points="202.336 545.112 205.946 551.257 198.326 556.857 194.198 547.613 202.336 545.112"/><polygon class="cls-6" points="351.734 557.389 353.629 560.637 349.606 563.576 347.446 558.714 351.734 557.389"/><polygon class="cls-6" points="314.359 554.472 316.266 557.72 312.253 560.66 310.076 555.798 314.359 554.472"/><polygon class="cls-6" points="215.978 576.38 223.516 585.634 212.448 590.277 209.179 577.178 215.978 576.38"/><polygon class="cls-6" points="164.596 562.41 166.488 565.667 162.461 568.602 160.298 563.735 164.596 562.41"/><polygon class="cls-6" points="123.094 541.08 124.995 544.314 120.975 547.258 118.801 542.391 123.094 541.08"/><polygon class="cls-6" points="131.901 575.013 133.803 578.252 129.774 581.196 127.608 576.329 131.901 575.013"/><polygon class="cls-6" points="61.324 540.03 63.225 543.259 59.199 546.218 57.022 541.346 61.324 540.03"/><polygon class="cls-6" points="327.537 534.482 329.443 537.73 325.411 540.669 323.263 535.803 327.537 534.482"/><polygon class="cls-6" points="215.85 559.083 217.731 562.321 213.727 565.284 211.552 560.403 215.85 559.083"/><polygon class="cls-6" points="270.133 533.222 278.201 538.121 286.845 538.084 277.613 545.541 268.957 544.351 270.133 533.222"/><polygon class="cls-6" points="239.254 540.609 241.155 543.852 237.142 546.792 234.97 541.939 239.254 540.609"/></g><g class="cls-5"><polygon class="cls-6" points="435.816 755.593 450.724 752.607 441.775 744.656 428.849 752.107 435.816 755.593"/><polygon class="cls-6" points="395.634 716.709 403.409 721.063 402.466 714.12 393.871 712.505 395.634 716.709"/><polygon class="cls-6" points="377.669 730.736 384.132 726.77 391.09 726.77 383.642 720.792 376.68 721.795 377.669 730.736"/><polygon class="cls-6" points="428.41 718.333 431.975 716.135 435.816 716.135 431.695 712.841 427.86 713.387 428.41 718.333"/><polygon class="cls-6" points="456.874 728.277 460.435 726.079 464.275 726.079 460.164 722.789 456.324 723.335 456.874 728.277"/><polygon class="cls-6" points="428.27 696.658 431.84 694.465 435.671 694.465 431.555 691.171 427.724 691.722 428.27 696.658"/><polygon class="cls-6" points="309.003 740.395 312.572 738.197 316.41 738.197 312.297 734.903 308.452 735.458 309.003 740.395"/><polygon class="cls-6" points="354.422 742.668 357.296 737.703 351.137 733.228 347.852 740.675 354.422 742.668"/><polygon class="cls-6" points="474.55 732.234 476.063 729.611 472.824 727.26 471.097 731.184 474.55 732.234"/><polygon class="cls-6" points="444.5 734.712 446.012 732.108 442.768 729.751 441.042 733.667 444.5 734.712"/><polygon class="cls-6" points="365.257 717.446 371.295 709.98 362.382 706.294 359.793 716.849 365.257 717.446"/><polygon class="cls-6" points="323.977 728.884 325.488 726.266 322.255 723.914 320.519 727.834 323.977 728.884"/><polygon class="cls-6" points="290.681 746.2 292.197 743.582 288.952 741.231 287.225 745.15 290.681 746.2"/><polygon class="cls-6" points="297.638 718.86 299.152 716.252 295.909 713.896 294.178 717.82 297.638 718.86"/><polygon class="cls-6" points="240.985 747.269 242.497 744.656 239.251 742.299 237.534 746.219 240.985 747.269"/><polygon class="cls-6" points="455.176 750.754 456.678 748.132 453.44 745.78 451.718 749.704 455.176 750.754"/><polygon class="cls-6" points="365.22 731.366 366.741 728.757 363.502 726.396 361.762 730.326 365.22 731.366"/><polygon class="cls-6" points="408.999 751.982 415.466 748.006 422.419 748.006 414.962 742.038 408.005 743.031 408.999 751.982"/><polygon class="cls-6" points="384.132 746.144 385.644 743.526 382.396 741.179 380.674 745.099 384.132 746.144"/></g><path class="cls-6" d="M37,79.59s-3.075.514-1.71,3.08,5.811,4.615,8.889,2.049S42.129,78.055,37,79.59Z"/><path class="cls-7" d="M38.7,54.22l-2.231,27.5a3.128,3.128,0,0,0,1,1.754c1.57,1.3,4.554,2.315,6.509-.378,3.656-5.025,7.856-24.385,7.856-24.385Z"/><path class="cls-8" d="M46.037,79.021c3.012-7.48,5.8-20.307,5.8-20.307L38.7,54.22,36.908,76.371A13,13,0,0,0,46.037,79.021Z"/><path class="cls-9" d="M67.934,55.27A21.365,21.365,0,1,1,46.569,33.9,21.364,21.364,0,0,1,67.934,55.27Z"/><path class="cls-10" d="M67.934,51.514A21.365,21.365,0,1,1,46.569,30.147,21.364,21.364,0,0,1,67.934,51.514Z"/><path class="cls-9" d="M67.612,54.448,48.555,50.762c1.376-8.721,2.69-17.274,2.69-17.274l.084-2.754-1.085-.167L46.476,50.361,25.993,46.39l-.247,1.073,2.588.938s8.9,2.058,17.741,4.06L42.316,72.208s2.335,1.171,3.339-3.84c.42-2.1,1.474-8.6,2.554-15.427,6.491,1.465,12.562,2.814,14.6,3.187C67.834,57.052,67.612,54.448,67.612,54.448Z"/><polygon class="cls-8" points="50.244 31.402 46.476 50.361 25.993 46.39 46.989 51.177 50.244 31.402"/><polygon class="cls-8" points="45.988 52.512 42.316 72.208 46.488 53.1 45.988 52.512"/><polygon class="cls-8" points="48.555 50.762 67.612 54.448 48.492 51.369 48.555 50.762"/><path class="cls-8" d="M30.3,65.451c-.159-.209,6.593,8.344,18.11,7.429,0,0,12.1-.919,17.442-12.02A19.164,19.164,0,0,1,48.993,73.379C36.831,74.224,32.636,68.536,30.3,65.451Z"/><path class="cls-6" d="M461.139,752.91s-3.079.518-1.707,3.08,5.8,4.615,8.884,2.053S466.263,751.375,461.139,752.91Z"/><path class="cls-7" d="M462.838,727.539l-2.23,27.508a3.116,3.116,0,0,0,1.007,1.75c1.568,1.307,4.55,2.319,6.5-.373,3.659-5.026,7.858-24.391,7.858-24.391Z"/><path class="cls-8" d="M470.173,752.346c3.015-7.481,5.805-20.313,5.805-20.313l-13.14-4.494L461.046,749.7A12.993,12.993,0,0,0,470.173,752.346Z"/><path class="cls-9" d="M492.072,728.594a21.365,21.365,0,1,1-21.362-21.367A21.365,21.365,0,0,1,492.072,728.594Z"/><path class="cls-10" d="M492.072,724.833a21.365,21.365,0,1,1-21.362-21.362A21.366,21.366,0,0,1,492.072,724.833Z"/><path class="cls-9" d="M491.75,727.773l-19.057-3.691c1.377-8.721,2.688-17.27,2.688-17.27l.084-2.758-1.087-.167-3.766,19.793-20.485-3.965-.243,1.073,2.59.937s8.894,2.058,17.737,4.06l-3.757,19.748s2.338,1.171,3.337-3.84c.42-2.105,1.474-8.6,2.557-15.427,6.491,1.465,12.561,2.809,14.6,3.182C491.97,730.377,491.75,727.773,491.75,727.773Z"/><polygon class="cls-8" points="474.378 704.722 470.612 723.68 450.127 719.715 471.13 724.502 474.378 704.722"/><polygon class="cls-8" points="470.127 725.836 466.454 745.533 470.626 726.424 470.127 725.836"/><polygon class="cls-8" points="472.693 724.082 491.75 727.773 472.628 724.689 472.693 724.082"/><path class="cls-8" d="M454.439,738.776c-.163-.215,6.589,8.343,18.1,7.424,0,0,12.1-.915,17.447-12.02A19.175,19.175,0,0,1,473.132,746.7C460.972,747.548,456.772,741.86,454.439,738.776Z"/><path class="cls-6" d="M33.107,759.079s-3.077.513-1.708,3.08,5.814,4.615,8.889,2.048S38.235,757.544,33.107,759.079Z"/><path class="cls-7" d="M34.81,733.709l-2.23,27.507a3.125,3.125,0,0,0,1,1.75c1.57,1.3,4.552,2.315,6.509-.378,3.657-5.026,7.856-24.386,7.856-24.386Z"/><path class="cls-8" d="M42.146,758.51c3.012-7.476,5.8-20.308,5.8-20.308L34.81,733.709l-1.8,22.15A13.008,13.008,0,0,0,42.146,758.51Z"/><path class="cls-9" d="M64.042,734.758A21.365,21.365,0,1,1,42.68,713.391,21.365,21.365,0,0,1,64.042,734.758Z"/><path class="cls-10" d="M64.042,731A21.365,21.365,0,1,1,42.68,709.635,21.361,21.361,0,0,1,64.042,731Z"/><path class="cls-9" d="M63.72,733.937l-19.054-3.691c1.371-8.717,2.687-17.27,2.687-17.27l.084-2.753-1.087-.168-3.766,19.79L22.1,725.878l-.247,1.074,2.592.938s8.892,2.053,17.739,4.059L38.424,751.7s2.336,1.171,3.339-3.836c.417-2.109,1.474-8.6,2.555-15.426,6.491,1.46,12.559,2.8,14.6,3.182C63.939,736.541,63.72,733.937,63.72,733.937Z"/><polygon class="cls-8" points="46.35 710.891 42.584 729.845 22.099 725.878 43.097 730.666 46.35 710.891"/><polygon class="cls-8" points="42.097 732 38.424 751.697 42.596 732.589 42.097 732"/><polygon class="cls-8" points="44.666 730.246 63.72 733.937 44.598 730.853 44.666 730.246"/><path class="cls-8" d="M26.406,744.94c-.161-.215,6.594,8.343,18.108,7.424,0,0,12.1-.914,17.445-12.016a19.168,19.168,0,0,1-16.86,12.52C32.939,753.713,28.744,748.025,26.406,744.94Z"/><path class="cls-6" d="M447.547,63.618s-3.076.513-1.708,3.08,5.809,4.614,8.889,2.048S452.675,62.078,447.547,63.618Z"/><path class="cls-7" d="M449.25,38.247l-2.231,27.508a3.145,3.145,0,0,0,1,1.75c1.572,1.3,4.554,2.314,6.509-.378,3.658-5.026,7.853-24.386,7.853-24.386Z"/><path class="cls-8" d="M456.585,63.048c3.014-7.48,5.8-20.307,5.8-20.307L449.25,38.247,447.458,60.4A13.006,13.006,0,0,0,456.585,63.048Z"/><path class="cls-9" d="M478.484,39.3A21.365,21.365,0,1,1,457.117,17.93,21.365,21.365,0,0,1,478.484,39.3Z"/><path class="cls-10" d="M478.484,35.541a21.365,21.365,0,1,1-21.367-21.367A21.365,21.365,0,0,1,478.484,35.541Z"/><path class="cls-9" d="M478.162,38.476l-19.057-3.691c1.377-8.717,2.688-17.27,2.688-17.27l.084-2.753-1.083-.168-3.77,19.79-20.485-3.967L436.3,31.49l2.585.943s8.9,2.053,17.742,4.055l-3.757,19.748S455.2,57.407,456.2,52.4c.42-2.1,1.474-8.6,2.557-15.427,6.491,1.461,12.561,2.81,14.6,3.183C478.381,41.08,478.162,38.476,478.162,38.476Z"/><polygon class="cls-8" points="460.794 15.424 457.024 34.384 436.539 30.417 457.537 35.205 460.794 15.424"/><polygon class="cls-8" points="456.539 36.544 452.866 56.236 457.038 37.127 456.539 36.544"/><polygon class="cls-8" points="459.105 34.785 478.162 38.476 459.04 35.396 459.105 34.785"/><path class="cls-8" d="M440.846,49.479c-.159-.21,6.593,8.343,18.11,7.424,0,0,12.1-.915,17.447-12.016a19.168,19.168,0,0,1-16.864,12.52C447.383,58.251,443.184,52.568,440.846,49.479Z"/></g></g></svg>