<svg xmlns="http://www.w3.org/2000/svg" xmlns:xlink="http://www.w3.org/1999/xlink" viewBox="0 0 1920 1080"><defs><style>.cls-1{isolation:isolate;}.cls-2{fill:url(#linear-gradient);}.cls-3{mix-blend-mode:lighten;fill:url(#linear-gradient-2);}.cls-4{fill:url(#linear-gradient-3);}.cls-5{fill:url(#linear-gradient-4);}.cls-6{fill:#163142;}.cls-7{opacity:0.3;mix-blend-mode:overlay;}.cls-8{fill:#fff;}.cls-10,.cls-9{mix-blend-mode:multiply;}.cls-9{fill:url(#linear-gradient-5);}.cls-10{fill:url(#linear-gradient-6);}</style><linearGradient id="linear-gradient" x1="963.23" y1="-566.68" x2="963.23" y2="867.09" gradientUnits="userSpaceOnUse"><stop offset="0.07" stop-color="#eff3cd"/><stop offset="1" stop-color="#56a899"/></linearGradient><linearGradient id="linear-gradient-2" x1="1578.9" y1="409.91" x2="1566.81" y2="663.76" gradientUnits="userSpaceOnUse"><stop offset="0" stop-color="#abd1b8"/><stop offset="0.93" stop-color="#fff" stop-opacity="0"/></linearGradient><linearGradient id="linear-gradient-3" x1="933.72" y1="483.63" x2="911.23" y2="858.48" gradientUnits="userSpaceOnUse"><stop offset="0.03" stop-color="#adcfb8"/><stop offset="0.16" stop-color="#b7d5c1" stop-opacity="0.88"/><stop offset="0.45" stop-color="#d0e4d7" stop-opacity="0.57"/><stop offset="0.87" stop-color="#f9fbf9" stop-opacity="0.08"/><stop offset="0.93" stop-color="#fff" stop-opacity="0"/></linearGradient><linearGradient id="linear-gradient-4" x1="860.41" y1="442.8" x2="854.52" y2="649.12" gradientUnits="userSpaceOnUse"><stop offset="0" stop-color="#97bfa5"/><stop offset="0.93" stop-color="#a7d0bf"/></linearGradient><linearGradient id="linear-gradient-5" x1="1838.09" y1="131.84" x2="1846.2" y2="265.69" gradientUnits="userSpaceOnUse"><stop offset="0" stop-color="#8bcee7"/><stop offset="1" stop-color="#fff" stop-opacity="0"/></linearGradient><linearGradient id="linear-gradient-6" x1="164.01" y1="-158.71" x2="178.76" y2="84.67" xlink:href="#linear-gradient-5"/></defs><g class="cls-1"><g id="Layer_1" data-name="Layer 1"><rect class="cls-2" x="-3.5" y="-223" width="1933.5" height="1468.72"/><path class="cls-3" d="M1165.4,649.1c-62.8-10.2-150.2-47.2-124-107.2,22.1-50.4,125.3-43.8,178.9-56.4,10.3-2.5,16.5-10,25.8-11.9,23.3-4.6,41.5,7.5,63.9-.4,18.3-6.5,33.6-13.5,51.6-19.1,40.5-12.4,82.4-17.9,126.8-14.7,12.3.9,23,3.5,35.6,2.1s19.2-9.2,33.6-7.6c6.4.6,14.5,8.6,23.1,10,11.3,1.8,22.2-2.3,33.5-2.1,42.1,1.1,90,23.7,133.5,17.3,17.4-2.6,39.6-16.1,60-11.5,9.7,2.2,12.8,11.8,20.4,13.4,13.3,2.9,21.2-4.7,33.6-5.5,46.9-3.2,82.4,15,128.9,21.6,38.2,5.4,28.4,12.3,48.8,34.7,26.2,28.7,68.9,13.5,67.2,51.5-1.1,25.5-13.1,50.2-41.1,64.6-37.7,19.2-94.3,23.3-137.4,27.5-115.5,11-233.9,13.5-349.7,3.9-86.7-7.2-173.5-11.7-260.8-11.8C1269.3,647.4,1212.9,656.8,1165.4,649.1Z"/><path class="cls-4" d="M-124.1,526.6c7-34,29.3-63.9,21.5-98.7-6.7-30.1-.5-49.3,39.8-65,18.6-7.2,38.5-14.7,59.8-10.3,16.7,3.4,27.6,15.6,44.5,18.8,27.7,5.3,37.7,6.1,62,19.1s34,17,61.7,17.9c49.9,1.8,75.4,34.4,121.3,29.5,50-5.3,76.4,27.1,123.7,27.4,52.5.4,93.4,19.2,144.4,23.1s95.8-14.6,146.8-7.3c31,4.5,34.8,5.8,61.5-6.5,21.6-9.9,47.6-8.8,72.7-13.1,35.9-6.3,52.8-12,87.7-5.4,24.4,4.6,46.7-5.4,68.9-2.2,8.1,1.2,17.5,9.4,26.1,11.8,14.3,40.4,69.5,1.2,106.7,11.8,43.4,12.3,44.6,65.8,102.5,52.5,11.5-2.7,19.1-8.4,30.9-9.8,13.5-1.6,25.7,3,38.8.5,8.5-1.6,16.5-8.4,25.5-10.7,15.4-4,31.4-2.4,46-7.9,28-10.6,41.2-21.5,75.3-23.1,11.1-.4,26.4,3.1,36.1,2.1,14.3-1.5,22.7-8.8,36.1-11.5,37.5-7.4,47.6,21.2,85.7,19.3s78.1-16,117.6-7.6c-3.3,15.8,27,12.8,41.8,17.8,16.7,5.5,30.5,18.4,40.9,25.1,17.2,10.9,33.8,10.2,56.9,7.8s50.9-1.8,72.3-5.2c9.2,25.7,41.6,23,67.4,23.2,33.7.2,37.9,15,56.3,30.9,14.1,12.1,56.8,16.2,66.4,31.8,6.7,10.8-4.8,28.6-6.7,39.4-5.4,31.1-1.7,63-10,94-9.4,35.4-47.7,54.9-87.5,72.4-37.1,16.3-78,22.1-119.6,28.7-70.7,11-141.4,22.6-212.4,32.6-317.2,44.6-635.9,35.7-956.2,54.2-271.3,15.7-528.7-6.8-780.4-87.2C-123,823.9-226.6,801.1-263,743.5c-33.3-52.6-6.1-80.6,51.5-110.4C-157.7,605.3-134.2,576.1-124.1,526.6Z"/><path class="cls-5" d="M2035.2,636.1c-42.1-4.6-84.1-18-127.1-16.1-25.9,1.2-37.3,2.4-61.9-3.4-18.5-4.4-36.7-4.2-55.9-6.7-16.9-2.3-31-11.5-47.3-13.4-9.5-1.2-16.6,3.4-26.3.6s-13.2-11.8-25.1-14.3c-8.9-1.8-17.6,1.4-25.7,2-24.8,1.8-38.4,4.5-64.7,5.8-13,.7-44.8-2.9-44.1,9.7-28.9-5.7-45.7,2-74.7,2-16.5,0-40.3,10.1-54.5-1.5-4.1,4-7.8,2.4-10.1,9.2-27.5-1.9-56.5-1.5-84.6-3.6-11.4-.8-27.2-8.7-34-9.6-12.6-1.5-23.9,7.7-28.3-5.8-5.1,1.9-12.6,1.6-17.8,5.8-2.3-2.4-3.8-2.7-5.5-5.9-4.7,3.4-73.8-1.6-72.3,0-10.6,3.6-24.3,1.9-25.7-7.9-11.8,5.3-47,7.7-54-1.9-9.8,3.7-19.3,1.8-25.4-4.3-14.4,4.5-39-13.7-38.5,3.3-12.6-8.9-30.5-1-36.7-10.8-4.3,2.5-11,2-14.6,3.4.1-3.3-2.6-6.8-2.8-9.2a65.6,65.6,0,0,1-26.4,3.8l-4.4-1.7c-.2-2-.7-4.1-.7-6-22,1.2-48.7,3.5-75,4a.1.1,0,1,0-.2,0c-21.2.3-42.1-.6-60.1-4.5-3.8-1.8-4.4-5.6-11.3-7.6-3.8-1.1-11.3-.9-15.4-1.5s-6.5-.7-9.5-.9c-5.3-1.5-10.7-3.1-16.1-4.9a13.7,13.7,0,0,1-2.6-4.3,21.7,21.7,0,0,1-5.6,1.6l-5-1.8-7.8-2.5a10.3,10.3,0,0,1-.2-3c-3.9.1-9.1-1-13.2-.8l-1.7-.5c-.3-1.5.6-3.3-.6-4.6-4.4.6-10.4-.9-15.3-.7l-2.2-1.1c-.1-1.4.1-2.7-.6-4-3.1-2.9-5.5-1.3-7.7-5.9-17.3,1.2-35.4,2.3-53.5,1.2,1.6-2,3.1-4.8,4.7-6.6-11,2.4-29.5,9.8-36.4,1.4-6.5,2.6-12.6.5-19.6,1.4-1.3-1.4-2.4-3.7-3.6-5.3-10.1,5.9-22.8,4.8-25.7-5.8-10.8.6-23.4,2.4-34.3,5.9H525c1.6-2,2.1-4.2,3.4-5.9a59.2,59.2,0,0,0-23.1,6.3c-3.3.3-6.9.9-10.7,1.6-3.7-13.6-26.1-1.7-45.4,2.9l-2.2-1a13.9,13.9,0,0,1-4.6,2.3c-7.1.9-13.3.2-17.3-4.2-9.3,11.8-39.2,14.4-52.9,4.3-9.3,5.6-16,8.3-22.9,9.6a38,38,0,0,1-8.6-1c-.5-1.1,3.2-.1,2.3-1l-34.8-2.3-1-1.4-8.9.8c-20.6-1.1-40.9-1.8-60.3-1.3-9.8-2.3-19-4.3-25.8-4.4-2.9-4.3-5.4-3-8.1-6.8-6.1,2.5-16.5,8.2-26.8,11.9-6.6-.4-13.2-.8-19.6-1-2.5-.1-5-.1-7.3,0a13,13,0,0,1-1-1.5c-13.1,2-36.1,7.5-48.2,3.9-.5,1.8.1,3.5-.7,5.4-12.7-5.3-28.1-3.1-40.4-7.4a15.5,15.5,0,0,1-1.8,7,131.1,131.1,0,0,0-21.7-1.4l-8.1.4a29.7,29.7,0,0,0-9.7-.7c-1.5-1.1-1-2.7-2.9-3.9-2.4,3-7,4.6-10.6,6.6l-4.7.4c-.1-.8.5-1.7-.8-2.6-10.6,5-26.1,2.1-31.2-5.3-5.4,1.5-11.3,3.4-17.3,5.7-29.8-5.8-67.2-17.5-89.6-12.9-36,7.4-37.8,41.7-65.6,55.9-14.8,7.5-32.3,8.8-47.9,16.4-23.9,11.7-45.6,25.8-72,34.2-18.6,5.9-53.5,2.7-56.6,20.5-5.1,29.2,68.6,73.2,89.5,92.3,44,40.1,91,73.7,143.5,107.7C78,985.2,426.6,954.7,704.3,946.6c227-6.6,453.8-10,680.7-17.6,53.1-1.8,88.3-11.6,135.8-25.1,36.8-10.6,82.8-9.7,121.8-13.1,96.5-8.3,200.1-27.5,286.4-61.7,72.7-28.9,153.2-72.3,159.6-140.3C2091.7,656.2,2074.6,640.4,2035.2,636.1Z"/><path class="cls-6" d="M1995.7,744.8c-8.3-2.1-14.7-6.7-23.1-9.9l-3.4-1.1-.6-.8c-10.2-12.7-6.7-6.3-21.2-7.1-19.5-1.2-26.1,2.1-42.1-7.3.7,17.9-9.7,17.2-31,15.7-3.1-.2-2-5.3-6.1-5.6s-10,3.4-13.1,3.1l-12.1-3.2c-1.1-1.3-1.4-3.3-.3-7a45.3,45.3,0,0,1-15.3,2.9l-5.2-1.1c.5-1.8.1-4.1,1.2-6.2-18.7,5-33-3.4-48.8,2.9h-3c.6-1.1,1.3-2.4,1.5-2.9-3-.4-6.1-.2-9.2-.6-.4-.3,1.9-.7,1.6-.7-11.2-.7-23.5-2.3-31.2,4.3h-3c-2-1.5-5.1-3.4-5.8-4.5a30.5,30.5,0,0,1-5.7,4.3h-4a236.9,236.9,0,0,1-25.5-2.1c.8-2.8,2.8-5.2,6-7.1-5.9.4-16.4,2.5-26.7,3.9l-29.3-5.6c-.2-2.4.8-5.4,3.2-9.4-11.9-.2-15.4,5.2-25.9,5.3a300,300,0,0,0-39.6-4.1l-10.3-.3c-19.5-6.5-38.9-10.7-60.9-5.3a13.2,13.2,0,0,1,1,3.9l-13.2-.2c-6.1-2.4-11.9-4.5-21.4-2.9a48.3,48.3,0,0,0-9.3,2.7h-24.3c.4-2.4,1.4-4.2,4.8-6.5-10.1,1.9-22.9.9-34.2,1.4-.7,2-1.9,3.4-2.6,5.4-11.7,1.3-13.6-4-20.9-5.6-11.3-2.6-12.5-.3-20.8.3-11.2.9-43.8,6.4-45.3-5.9-12.3-4.9-14.3,3-24.9,4.3-6.2.7-21-1.5-28.7-2,1.5-2.1.2-5.8,1.4-8.2-10.5-1-13.2,4.7-22.4,6s-16.3-.9-25.3-1.6c-.2.4-.6.6-.9,1-9.4-.5-18.9-.7-28.3-.6-3.8-1.4-9.2-2.1-15.5-2.4a15.2,15.2,0,0,1-.4-5.4c-7.3.3-13.6,3.6-20.3,5.9L1144,686c1.2-1.9,1.4-3.8,2.5-5.6-3.9,1.8-7.5,4.4-11.2,6.8-5.6.8-11,1.8-16.2,2.9.8-3.4.7-7,.8-10.8-1.2,4.6-7.7,9.4-14.8,14.2-7.7,2.2-13.5,4.6-16.3,6.9l-1,.2c-15.5.9-28.9,3.7-43.1,1.9.5,2.8,0,4.8-1.1,6.2-4.3.4-8.5.8-12.8.9h-2.7a31.4,31.4,0,0,1-4.6-1.8c-.5-1.4-.2-2.5-.6-3.9-7.5-.4-14.5,1.8-20.7,5.1.5-3.3-1.2-7.3-.2-10.7-3.8,3.1-16.1,8.9-26.3,11.2l-12.7-.5c-1.9-1.3-2.5-3.7-1.3-7.7l3.2-3.3c-10.2-.9-15.8,4.8-22.1,10.1l-26.6-1.4,2.3-4.3c-8.3-2.2-35.4-4.5-40.8,2-16-1.5-31.8-4.4-47.7-6.4a21.3,21.3,0,0,1-5.9-8.5c-5.3,3.5-15.9,6.1-25.9,6.3h-4.6c-6.5-.4-12.2-1.9-15.2-5,1.2-.5,4-2.1,4.9-2.6-15.1,0-44.8,10.4-56.2.7,1.4-1.1,2.9-2.1,4.3-3.3-11.4,2.1-43.9,7.4-43.1-6.7-8.2,2.7-18.1,5.7-28.3,6.9l-15.1-1.7c.3-1.8.2-3.9.9-5.2a142.4,142.4,0,0,1-23.4,2.8L604,680c-4.6-1.5-7.3-4.1-6.6-8.4-37.4,12.6-68.4-11-104.6-3.7.8-1.3,1.7-4.3,2.3-5-8.5,1-18,.8-27.4.8-6.6-1.2-13.2-2.2-20-3.2a28.6,28.6,0,0,1,4.9-4.5c-10.2-2.1-17.9,2.2-26.9,1.9s-12.9-4.3-19.8-5.2c-4.6-.6-11.5.4-18,.9l-15.3-2.3a7.5,7.5,0,0,1-3.3-6c-10.8-1.5-19.7.8-29.6,1.2L329,645l-5.2-.5c3.9-1.3,4.1-3.4,6.9-5.1-15.2.1-28.8,2.5-43.2,4.1-7.1.1-14.1.1-21.1,0,.2-1.9-.1-3.9.5-5.6-16.2,2.8-30.9,1.6-45.2-.6-9.9-3.2-19-6.9-31.9-7-3.5,0-7,.1-10.4.3a117.2,117.2,0,0,0-33.8,1c-.2-1.1.3-2.7-.1-3.7a69.5,69.5,0,0,1-21.1,2.2,18.2,18.2,0,0,0-.7-2.5c-8.6,2.2-20.4,6.8-30.8,8.6l-7.2.7c2.5-2.1,3.6-4.6,5.3-6.4-7.6,3.2-15.2,6.5-23.3,8.5l-7.1,1c.1-2-1-4.6-.7-6.6a268.1,268.1,0,0,1-28.1,11.8c-9.1,2.3-17.1,5-24.9,7.5-11.5,1.3-25.7-.8-41-.1-1.7,4-6.3,6.4-11.5,7.3l-8.6.3c-4.7-.6-9-2.3-11.2-5.1-5.4,6-13.5,10.3-21.3,4.4-5.4,3.4-12.1,6.5-19,7.4.3-3.1-1.4-7.1-.7-10-4.1,4.3-15.4,9.9-24.4,15.4l-10,2.1-1.7.7v6.3c-1.2,1.7-1.4,3.4-.1,4.8h.1V1303H2026.7V750.8C2018.1,748.1,2005.7,747.3,1995.7,744.8Z"/><g class="cls-7"><path class="cls-8" d="M2124.9,221.9a53.3,53.3,0,0,1-8.8.8c-2.8,0-7-.9-10-.4s-3.5,3-7.1,3.7c-8.5,1.7-14.8-3.1-22.3-1.4-.3,1.2,1.1,2.3,2.5,3.2s4.6,3-4.2,3.9-19.1-2.1-27.5-3.3c-6.7-1-6.1-.4-11.3.2s-12.8.1-19.1.8c-8.2.8-11.6,4.3-21.5,4.8-16.8.9-32.6-1.6-48.5,1.2-9.2,1.5-14.7,2.4-24.4.6-6.5-1.2-11.7-3-19.6-2.9s-15.6,1.1-24.5.4-16.4-1.1-24.8-1.2c-19.1-.1-34.3,2.3-51.2,5.3s-36.3-.5-53.3-2c-7.7-.6-14.3-1.6-20.6-2.7s-13.3-2.9-20.6-4.7c-14.9-3.8-25.5-8.2-43.3-6.7-15.4,1.3-34.3,2.1-46.6-3.3-5.2-2.3-8.4-5.7-13.4-8.1a115.2,115.2,0,0,0-12.9-4.9l-4.2-1.4c-9-2.8-36.3-7.1-30.9-11.5,2.4-2,11.8-3.2,12.7-5.3s-10.7-3.9-6.4-7.3c1.2-1,5.3-1.6,9.5-2.1l9.4-.8c8.8-.6,13.8.2,20.8-2.2s4.4-3.3,7.8-6.4,8.1-4.7,11-7.3c4.6-4,5.6-2.9,15.3-4.1,5.1-.6,5.1-.8,9.1-2.2,6.4-2.3,6.4-1.9,12.5-2.7,8.3-1,12.1,0,19.8.9l2.5-.3c4,4.4,14.3-4.1,22.4-3,5,.7,4.5,4,11.3,2.9,2.1-.3,10.2-6.9,12.5-2.3,4.4-.7,8.4-.1,7.1,2.2a29.2,29.2,0,0,0,13.2-1.5c1.5-.5,1.5-1.6,2.9-2.1s3.8-.7,5.4-1.2,4,.1,6.1-1,.2-2.3,1.1-3c2.6-2.1,5.4-1.5,9-2.9s3.8-3.1,7.9-4.6,8.5-.8,12.6-1.9c1.1-.3,3.1-1.9,4.6-2.4l6.4-.4c3.5-.6,4.2-2.3,11.5-1.8.2,1.1,1.7,2.1,2,3.2,2.7.1,8.2-.3,10.7.2s2.3,3.1,6.4,3.3,5-5.1,15.9-4.1c-.5,2.7,10,2.3,14.4,3.3,1.2.3,1.6,1.7,2.8,2.2s4.5-.2,6.4.7-.8,2.3.1,2.9,4.7,1.1,5.5,1.9,3,2.7-1.1,4.1c7.8,1,8-2.2,17.2-.4,7.3,1.5,7.1,4.4,14.1,5.3,3.2,3.2,13.9-1,19.9-.4s7.4,4.6,12.3,6.4c3.4,1.2,7.4.7,11.1,1.4,5.2,1.1,4.8,2.2,8,3.6,7.6,3.4,11.2,1.6,21.5,1.6a56.6,56.6,0,0,0,7.3,6.2c8.1,5.4,8.2,1.4,17.1-.6,5.6-1.3,17.3-1.5,23.7-.8,9.7,1,8.8,4.2,17.6,5.5,3.4.5,7.8-.1,10.8.6,6.3,1.5,1.7,2.4,3.6,4.2l.2.2c4.1,3.5,13.2,1.7,20.5,3.5,3.8.9,5.7,1.4,6.3,3.3s-3,2.3-3.4,3.4,2.3,2.9-.8,4.4-7.6.8-10.2,1.1-8-.7-7,1.5,8.2.7,10.4,1.9.3,3,1.3,3.9l.5.4c2,1.4,4.6,1.3,5.6,3.8s-3.6,6.9,4.5,7.4,9.1-3.5,19.1-1.2c3,.7,4.1,2.1,7.9,2.7s7.1-.6,10.8,1l1.2.6C2132.7,219.7,2129.6,221.1,2124.9,221.9Z"/><path class="cls-9" d="M2129,217.7a26.8,26.8,0,0,1-4.1,4.2,53.3,53.3,0,0,1-8.8.8c-2.8,0-7-.9-10-.4s-3.5,3-7.1,3.7c-8.5,1.7-14.8-3.1-22.3-1.4-.3,1.2,1.1,2.3,2.5,3.2-5.8-2.3-12.2-4.8-20.4-5.7-15.1-1.8-29.9-.1-42.5,2.2s-33.7,5-50.6,3c-15.3-1.9-32.7-8.7-48.1-11.8-18.4-3.5-34.3-4.8-54.2-2.4-16.1,2-55,5.5-50.8,14.8-14.5.2-26.1,2.1-39.3,2.9s-24.9-4.5-36.1-2.9c-4.9.8-5.2,3.5-8.5,5-6.8-1.3-13.3-2.9-20.6-4.7-14.9-3.8-25.5-8.2-43.3-6.7-15.4,1.3-34.3,2.1-46.6-3.3-5.2-2.3-8.4-5.7-13.4-8.1a153.5,153.5,0,0,0-17.1-6.3c-9-2.8-36.3-7.1-30.9-11.5,2.4-2,11.8-3.2,12.7-5.3s-10.7-3.9-6.4-7.3c1.2-1,5.3-1.6,9.5-2.1,12.9,4.8,27.7,15.9,47.3,8.4,14.8-5.6,10.5-17.6,40.2-16.5,15.3.6,16.7,6.8,33.7,2.1,15.1-4.3,12.5-9.9,34.1-9.6,8,.1,26.8,1,25.9,5.9,15.6,1.4,16.3-8.5,21.6-12.3,15.7.2,4.6-5.8,9-9.6s27.1-8.8,37.4-8.3c26.9,1.3,16.7,12.7,18.3,19.9,12.8.3,32.3-10,48.4-5,10.9,3.5,1.9,11.8,6.5,16.3,9.2,8.9,23.2,2.2,37,5,4.6.9,1.3,5.7,8.4,6.1s7.2-5.2,16-5.2c1.2,2.4-.7,10.2,4.2,11.6,7.3,2.1,23.3-2.4,29.2-3.7,11.6-2.7,39.5-10.9,43.8-1.4.2-.9.5-1.9.7-2.9,1.6,1.3,5.7,3.1,7.2,5,6.6-.5,7.2.6,10.4-2.7a28.9,28.9,0,0,0,10.4-.7c4.1,3.5,13.2,1.7,20.5,3.5,3.8.9,5.7,1.4,6.3,3.3s-3,2.3-3.4,3.4,2.3,2.9-.8,4.4-7.6.8-10.2,1.1-8-.7-7,1.5,8.2.7,10.4,1.9.3,3,1.3,3.9,5,1.4,6.1,4.2-3.6,6.9,4.5,7.4,9.1-3.5,19.1-1.2c3,.7,4.1,2.1,7.9,2.7s7.1-.6,10.8,1Z"/></g><g class="cls-7"><path class="cls-8" d="M685.6,5.1a99.2,99.2,0,0,1-16.1,1.4c-5.1.1-12.7-1.7-18.1-.7s-6.4,5.5-13,6.8c-15.4,3-26.9-5.7-40.5-2.6-.6,2.1,2,4.1,4.5,5.8,4.5,3.1,8.5,5.5-7.6,7s-34.7-3.8-50-6c-12.2-1.8-11-.7-20.5.5s-23.2.1-34.7,1.3c-15,1.6-21.2,7.8-39.1,8.8-30.5,1.6-59.4-2.8-88.2,2.1-16.7,2.9-26.8,4.5-44.3,1.2-11.9-2.1-21.4-5.5-35.8-5.4-16.4.2-28.3,2.2-44.5.9-14.4-1.1-29.9-2.1-45.2-2.2-34.7-.1-62.3,4.2-93.1,9.6s-66-.9-96.8-3.6c-14.1-1.2-26-2.9-37.5-5s-24.2-5.2-37.4-8.5c-27.2-7-46.4-15-78.8-12.2-27.9,2.4-62.3,3.9-84.7-6-9.4-4.2-15.4-10.4-24.5-14.7a194.2,194.2,0,0,0-23.3-8.9l-7.7-2.5c-16.3-5.2-66-12.9-56.3-21,4.4-3.6,21.5-5.8,23.1-9.7s-19.4-6.9-11.5-13.2c2.2-1.7,9.7-3,17.3-3.8s13.6-1.2,17.1-1.4c15.9-1.1,25,.4,37.7-4s8-6,14.2-11.6,14.8-8.6,20.1-13.3c8.3-7.4,10.1-5.3,27.8-7.4,9.2-1.2,9.2-1.6,16.6-4.2,11.6-4.1,11.5-3.4,22.6-4.7,15.2-1.9,22.1-.1,36,1.5l4.6-.6c7.3,8,26-7.4,40.8-5.3,9.1,1.2,8.2,7.2,20.4,5.2,4-.6,18.7-12.6,22.7-4.2,8.1-1.4,15.3-.2,13.1,4.1a54.9,54.9,0,0,0,23.9-2.8c2.8-1,2.7-3,5.3-3.8s6.9-1.4,9.8-2.2c4.6-1.4,7.4.1,11.1-1.9s.3-4.1,1.9-5.4c4.8-3.8,10-2.8,16.5-5.3s6.8-5.7,14.3-8.3,15.5-1.6,22.9-3.5c2.1-.5,5.7-3.5,8.5-4.4-.3.1,10.9-.5,11.6-.7,6.3-1.1,7.6-4.2,20.8-3.2.4,1.9,3.2,3.8,3.8,5.8,4.9.1,14.9-.7,19.4.2,6.2,1.3,4.2,5.8,11.7,6,10.1.3,8.9-9.2,28.9-7.3-1,4.8,18,4.1,26.1,5.9,2.2.5,2.9,3.2,5.1,4.1s8.1-.4,11.6,1.3-1.4,4,.3,5.3,8.5,2,9.9,3.3c3.4,3.4,5.4,4.9-2,7.4,14.2,1.9,14.5-3.9,31.3-.5,13.2,2.6,12.9,7.8,25.6,9.6,5.9,5.8,25.4-1.9,36.2-.9,13.2,1.3,13.4,8.4,22.4,11.7,6.2,2.2,13.4,1.3,20.1,2.6,9.6,1.9,8.8,4,14.6,6.6,13.9,6.2,20.4,2.9,39.1,2.8A87,87,0,0,0,439-87.7c14.8,9.9,14.8,2.5,31.1-1.2,10.2-2.2,31.5-2.5,43-1.4,17.6,1.8,16.1,7.7,32.1,10,6.1.9,14.2-.1,19.7,1.2,11.3,2.7,3,4.3,6.4,7.6l.5.4c7.4,6.3,24,3.1,37.3,6.3,6.7,1.6,10.3,2.6,11.4,6.1s-5.4,4.1-6.2,6.1,4.1,5.3-1.5,8c-3.7,1.8-13.7,1.5-18.5,2s-14.6-1.3-12.8,2.7,14.9,1.3,19,3.5c2.5,1.3.6,5.4,2.4,7.1l.9.7c3.6,2.6,8.2,2.3,10.1,6.9s-6.6,12.5,8.2,13.4,16.5-6.2,34.7-2c5.5,1.3,7.5,3.7,14.4,4.7s12.9-.9,19.6,1.9a9.9,9.9,0,0,1,2.3,1.1C699.8,1,694,3.6,685.6,5.1Z"/><path class="cls-10" d="M693.1-2.6a59.7,59.7,0,0,1-7.5,7.7,99.2,99.2,0,0,1-16.1,1.4c-5.1.1-12.7-1.7-18.1-.7s-6.4,5.5-13,6.8c-15.4,3-26.9-5.7-40.5-2.6-.6,2.1,2,4.1,4.5,5.8-10.5-4.3-22.2-8.7-37.1-10.5C537.9,2.1,511,5.2,488,9.4s-61.3,9-92,5.4C368.2,11.5,336.6-1,308.5-6.5c-33.3-6.5-62.2-8.8-98.4-4.4C180.8-7.4,110-.9,117.6,15.9c-26.3.5-47.5,3.9-71.4,5.3S.9,13.1-19.4,16c-9,1.3-9.5,6.4-15.5,9-12.4-2.3-24.2-5.2-37.4-8.5-27.2-7-46.4-15-78.8-12.2-27.9,2.4-62.3,3.9-84.7-6-9.4-4.2-15.4-10.4-24.5-14.7s-19.4-7.7-31-11.4c-16.3-5.2-66-12.9-56.3-21,4.4-3.6,21.5-5.8,23.1-9.7s-19.4-6.9-11.5-13.2c2.2-1.7,9.7-3,17.3-3.8,23.3,8.8,50.3,28.8,85.9,15.3,26.9-10.3,19.1-32,73.1-30,27.9,1.1,30.4,12.4,61.3,3.7,27.5-7.7,22.7-18,62.1-17.5,14.5.2,48.7,2,47,10.9C39-90.6,40.3-108.5,50-115.5c28.6.4,8.3-10.6,16.4-17.5s49.3-16,68-15.1c48.8,2.3,30.4,23.2,33.2,36.2,23.4.6,58.9-18.2,88-9,19.9,6.2,3.5,21.5,11.9,29.6,16.7,16.2,42.2,4,67.3,9.1,8.3,1.6,2.3,10.4,15.3,11s13-9.4,29.1-9.4c2.2,4.3-1.4,18.5,7.6,21.1,13.4,3.8,42.3-4.3,53.1-6.8,21.1-4.8,71.8-19.7,79.6-2.4.4-1.8.9-3.5,1.3-5.3,3,2.3,10.3,5.6,13.1,9.1,12-1,13,1,18.9-5.1a50.8,50.8,0,0,0,19-1.1c7.4,6.3,24,3.1,37.3,6.3,6.7,1.6,10.3,2.6,11.4,6.1s-5.4,4.1-6.2,6.1,4.1,5.3-1.5,8c-3.7,1.8-13.7,1.5-18.5,2s-14.6-1.3-12.8,2.7,14.9,1.3,19,3.5c2.5,1.3.6,5.4,2.4,7.1,3.8,3.4,9,2.6,11,7.6s-6.6,12.5,8.2,13.4,16.5-6.2,34.7-2c5.5,1.3,7.5,3.7,14.4,4.7s12.9-.9,19.6,1.9A9.9,9.9,0,0,1,693.1-2.6Z"/></g><polygon class="cls-6" points="808.8 186.4 778.3 186.4 808.8 195.2 808.8 186.4"/><rect class="cls-6" x="807.1" y="184.1" width="3.4" height="62.81"/><polygon class="cls-6" points="641.2 209.9 610.7 209.9 641.2 218.7 641.2 209.9"/><rect class="cls-6" x="639.5" y="207.6" width="3.4" height="62.81"/><polygon class="cls-6" points="347.4 212.1 329.8 212.1 347.4 217.2 347.4 212.1"/><rect class="cls-6" x="345.7" y="210.8" width="3.4" height="36.27"/><path class="cls-6" d="M1138.3,684.9c-1.1-5.7-3.8-7.3-8.2-11.6a31.3,31.3,0,0,1-8-13.7c-2.3-6.9.5-8.6-5.5-13.7s-9.5-10-14.3-15.9c-9.2-11.5-22.9-18.4-33.4-28.4-6.3-6.1-20.3-17.3-18.5-25.9a13.6,13.6,0,0,0,2-.2c2.9-5.3-1.2-7.4-5.9-8.7-1.7-.5-2.2,1.3-5.2-.1s-3.5-4-3.7-6.2c-2.4.6-2.3-.2-3.9,1.3-.1-.1-1-1.3-.6-1.3a16.8,16.8,0,0,0-8.2-3.6V544.3h-8v-7.6h-8.4v5.9h-7.9v-5.9h-7.2v5.5h-5.1v-5.5h-7.2v5.5h-7.3v-5.5h-5.1v5.9H962v-5.9h-6.1v5.9H948v-5.9h-6.1v5.9h-5.6v-8.1H929l-20.7-14.9H885.9v14.1h-3.3V278.2l8.9-9.8V244.2l-3.9-.7v7.7H884v-8.3l-15.2-2.1v8.5H863v-9.2c-7-.7-15-1.5-23.8-2.1v9.1h-9v-9.6c-8.4-.4-17.4-.7-26.8-.7v10.3H792.5V236.9c-9.4.2-19.2.6-29.1,1.4v6.9h-9.3v-6.1c-6.3.6-12.6,1.4-19,2.3v9.8h-6.7v-8.7c-3.3.5-6.6,1-9.8,1.7v28.5l8.4,10.6V458.4H714.1V324.9l9-13.1V296h-8.4v4.7h-6.8v-6.4H694.5v5.6h-8.9v-9H674.4v7.3h-7.9v-9.4h-5l-20.2-25.5L615,290.5H602.7v8.9h-6.1v-7.2H580.9v8.9h-6.2v-5.5l-14.5.9v6.8H554l1.2-6H543.4v17L554,329.2V441.4H541.2v7.7H535v-7.7H522.7v7.7h-5.6v-7.7H503.7v8.5h-4.5v-7.2H483.5v8.1H479V444H466.7v8.1h-5.6V444H446.6v9.8h-3.9v-9.4H428.1v9.8h-3.9v-8.5H410.8v9.8h-4v-7.7H390.1V367.5l9.5-13.2V337.7L380,325.8l-25.2-33.6V262h2.8L347,236.8l-12.2,25.1h3.1v22.9H313.8L275,327.9l-20.9,9.7H260v18.7l8.2,11.9v94.1H204.8v22.6L169.7,511v20.4H154.1l-51.5,28.9L66.8,570.5l-2.3,11.4c3,7.5-8.9,17-12.5,24.5s.3,23.7-13.5,24.9c-4.7,9.7,3,16,3.6,24.8a29,29,0,0,1-1.6,11.8c-1.7,4.2-6.4,6.8-6.6,11.5s2.3,9,3,13c1.1,5.9,4.1,7,1.7,12.7s.4,10.3-.2,16.7c-.4,4.1-4.9,6.6-6,9.7s.6,6-3.1,9.6A28.1,28.1,0,0,1,18.4,747c-1,8,7,11.7,10.5,18.4,2.5,4.8-2.5,5.7-2.3,9.2.4,5.9,7.8,7.8.5,14.2,3.1,2.5,8.4,2.7,10.6,5.6.7,1-.7,2.9-.1,4,1.7,2.8,4.2,3.8,7.5,5.8,7.1,4.1,13.5,11.9,21.6,14.1-2.4,1.6-7.6,1.2-11,2.9-.3.5-.9,2.5-1,2.6,4.5,5.7,8.8,6,17.1,6.3s13.4-3.8,21.2-3.5,17.2,3.4,25.5,4.2,15.7.2,23.6.4c26.1.7,53.1.8,79.1,2.5,8.3.5,16.4,2.3,24.6,3.1,13.6,1.3,27.2.8,40.4,3.9,18.5,4.5,33.5,7,52.9,7.7,21,.7,42.1,2,63.1,2.2,14.2.1,29.4,1.5,42.6-2.9,9.2-2.9,14.8-5.8,24.9-6.4l30.7-2.1c16-1.2,32.7-.1,49-.6,6.4-.2,6.8-1,12.2-3.2,12.9-5.4,29.7-4.1,43.9-4.1s36.8,2.8,50.9-2.3c5.4-1.9,8.6-3.4,14.6-4.7s6-1.8,10-4.5c.7-.5,1.6-2,2.7-2.7s5.8-1.3,6.8-1.6c3.9-1.1,5.6-2.4,10.3-2.1,7.6.5,13.9,5,21.3,6.4,3.8.7,8.3-.2,12.3.2,7.3.8,13,3.4,20.7,2.7,13.6-1.3,26.1-3.3,38.6.8,10.9,3.7,22.4,4,34.2,2.7,7.9-.9,14.4-4.9,22.4-5.9,15.5-2,31.7,1.2,47.2,2.5,24.8,2,49.8,5.3,74.6,6.2,11.9.5,22.8-.2,34.4,1.7a50.3,50.3,0,0,0,15.5.4c6.8-.7,15.1-1.5,21.6-3.7,10-3.3,3.8-5.3,2.9-11.6-1.4-9.8,7.1-7.6,14.8-11.3s8.2-9.7,10.6-14.1c7.1-12.7,35.1-11.2,37.1-25.5,1.3-8.7-4.9-9.4-13.1-14.5-4.6-2.9-10.5-7.9-5.3-12.6,3.3-3,5.8-.6,10-1.8s4.5-2.4,7.2-5.1,5.4-3.8,8-5.8,3.2-4,5.3-7.8c3.6-6.3,12.5-9.6,16.3-15.3S1139.2,689.7,1138.3,684.9ZM390.8,338.8l3,.4v5.9h-3Zm-115.5,3.1h-5.8v-6.3h5.8Zm18.2,0h-5.9v-6.3h5.9Zm19.3,0h-6.7v-6.3h6.7Zm17.9,0h-7.5v-6.3h7.5Zm17.7,0h-7.6v-6.3h7.6Zm19.8,0h-3v-6.3l3,.4Zm8.8,1.4h-3V337l3,.4Zm8.4.8h-3v-6.4l3,.4Zm288.4,98.2h-3.3v-8.1h3.3Zm0-10.7h-3.3v-5.5h3.3Zm0-64.6h-3.3v-8h3.3Zm0-10.6h-3.3v-5.5h3.3Zm7.3,85.9h-3.9v-8.1h3.9Zm0-10.7h-3.9v-5.5h3.9Zm0-64.6h-3.9v-8h3.9Zm0-10.6h-3.9v-5.5h3.9ZM859.9,480.5H854V467.8h5.9Zm0-15.1H854v-6.5h5.9Zm0-98.8H854V353.8h5.9Zm0-15.1H854v-6.6h5.9Zm0-45.1H854v-6.3h5.9Zm0-8.7H854v-6.6h5.9Zm9.5,182.8h-5.6V467.8h5.6Zm0-15.1h-5.6v-6.5h5.6Zm0-98.8h-5.6V353.8h5.6Zm0-15.1h-5.6v-6.6h5.6Zm0-45.1h-5.6v-6.3h5.6Zm0-8.7h-5.6v-6.6h5.6Z"/></g></g></svg>