<svg xmlns="http://www.w3.org/2000/svg" viewBox="0 0 200 200"><defs><style>.cls-1{isolation:isolate;}.cls-2,.cls-5{fill:#fccbaa;}.cls-3{fill:#3b2314;}.cls-4,.cls-5{mix-blend-mode:multiply;}.cls-6{fill:#6d6e70;stroke-linecap:round;stroke-miterlimit:10;stroke-width:1.24px;}.cls-18,.cls-19,.cls-6{stroke:#3b2314;}.cls-7{fill:#f8a576;}.cls-8{fill:#faaf40;}.cls-9{fill:#00a69c;}.cls-10{fill:#5661ab;}.cls-11{fill:#d0d2d3;}.cls-12,.cls-17,.cls-22{fill:#fff;}.cls-12,.cls-21{opacity:0.3;}.cls-13{fill:#26a9e0;}.cls-14{fill:#929497;}.cls-15{fill:#cd383a;}.cls-16{fill:#ffc609;}.cls-17{opacity:0.6;}.cls-18,.cls-19{fill:none;stroke-linecap:square;stroke-linejoin:round;}.cls-18{stroke-width:0.51px;}.cls-19{stroke-width:0.45px;}.cls-20{fill:#8bc53f;}.cls-23{fill:#f27f93;}.cls-24{fill:#b2546b;}</style></defs><g class="cls-1"><g id="Layer_8" data-name="Layer 8"><path class="cls-2" d="M64.5,178.6c4.7,0,13.7-3.8,16.6-5l.8-.4h0c2.1-.7,10.1-5.1,10.2-5.1,7.1-4,11.7-7.4,13.7-10.3s2.5-7.7,1-12.6c1.5-3.9,3.5-15.4,3.8-18.5.8-11.7,1-25-6.6-33.5-5-5.5-12.6-8.4-23.3-8.8H79.5c-17.9,0-29.3,14.4-33,41.5-4.7,3-7.5,7-7.8,11.1-.5,8.1,8.6,26,9,26.8,2.9,9.2,8.4,14.3,16.2,14.8Z"/><path class="cls-3" d="M79.5,85.4h1.2c30,1.1,30.2,22.5,28.9,41.3-.2,3.1-2.3,15.1-3.8,18.4,1.4,4.4,1.4,8.9-.8,12.2-4.6,6.5-23.4,15-23.4,15h0c-.2,0-11.7,5.4-17.1,5.4H64c-8.2-.5-12.9-6.3-15.4-14.3,0,0-9.4-18.3-8.9-26.3.3-4.1,3.6-7.9,7.7-10.5,2.2-16.4,8.9-41.1,32.1-41.1m0-2c-18.3,0-30,14.5-33.9,42-4.7,3.1-7.5,7.3-7.8,11.5-.6,8.1,8,25.3,9,27.2,3,9.7,8.8,14.9,17.1,15.5h.6c4.4,0,11.7-2.9,16.9-5.1h0l1-.4c.8-.4,19.4-8.8,24.2-15.7,2.2-3.3,2.7-8.1,1.2-13.2,1.6-4.3,3.5-15.3,3.7-18.4.9-12,1.1-25.5-6.8-34.2-5.1-5.8-13-8.8-23.9-9.2Z"/><g class="cls-4"><path class="cls-2" d="M51.4,127.2a51.2,51.2,0,0,0-6.8,1.4,18.6,18.6,0,0,1,2.8-2.1c.2-1.1.3-2.2.5-3.4A11.5,11.5,0,0,0,51.4,127.2Z"/></g><g class="cls-4"><path class="cls-2" d="M94.4,141.9c2.1-5.6,5.2-11.1,6.3-17a108.3,108.3,0,0,0,2.1-31.1c7.8,8.2,7.6,20.8,6.8,32.9-.2,3.1-2.3,15.1-3.8,18.4,1.4,4.4,1.4,8.9-.8,12.2s-7,6.2-11.8,9C95.2,163.3,108.6,147.3,94.4,141.9Z"/></g><path class="cls-5" d="M79.4,143.7s-2.4,8.4-10.9,6.8S58.2,148.1,58,140.3,79.4,143.7,79.4,143.7Z"/><path class="cls-6" d="M115.2,113.2s2.7,5.9,2.2,10.6-7,10.9-11.1,14.3,4.7-16.1,3.5-23.8,4.9-1.9,4.9-1.9Z"/><path class="cls-7" d="M104,138.3s3.6-1.7,4-2.3,1.4-4.4,2-5.8c3-7,11.8-2.4,12.3,3.5.9,8.9-7.7,19.7-12.8,18.5s-4-7.9-4-7.9"/><path class="cls-3" d="M104,138.3l2.4-1,1.3-.7.4-.3h.2v-.2a2.5,2.5,0,0,1,.4-.7,8.4,8.4,0,0,0,.7-1.9c.3-.6.4-1.3.7-1.9l.4-1,.6-1,.6-.7.9-.7a5,5,0,0,1,4.3.1,8.8,8.8,0,0,1,3.6,3.3,6.8,6.8,0,0,1,.7,2.3v1.5c0,.5-.1.9-.1,1.3a20,20,0,0,1-1.5,5.3,23.7,23.7,0,0,1-2.6,4.7,17.2,17.2,0,0,1-3.5,3.6,6.1,6.1,0,0,1-3.8,1.5h-1l-.7-.5a3.4,3.4,0,0,1-1.2-1.2,8.5,8.5,0,0,1-1.1-2.7,13.1,13.1,0,0,1-.4-2.7v.7a6.6,6.6,0,0,0,0,2,10.1,10.1,0,0,0,.8,3.1,4,4,0,0,0,1.3,1.6,2.6,2.6,0,0,0,1,.7l.5.2h.6a6.7,6.7,0,0,0,4.9-1.4,16,16,0,0,0,4-3.8,21.6,21.6,0,0,0,4.7-10.9,4.3,4.3,0,0,0,.1-1.6v-1.4a7.6,7.6,0,0,0-1.1-3.2,8.7,8.7,0,0,0-4.6-4.1,6.5,6.5,0,0,0-5.8.3l-1.1.9-.9,1.2-.5,1a7,7,0,0,0-.3,1.2,8,8,0,0,0-.5,2.1c-.2.6-.3,1.2-.5,1.7l-.3.8v.2h-.1l-.2.2-1.2.8Z"/><path class="cls-8" d="M146.8,94.2a1.1,1.1,0,0,0,.9-.4,39,39,0,0,0,7.5-13.7c3.2-10.6,2.2-21.8-2.9-30.7s-13.7-15.2-25.3-18a29,29,0,0,0-7.2-.9c-14.5,0-27.3,10-31.9,25-2.2,7.2-9.3,25.5-9.4,25.7a1.2,1.2,0,0,0,.1,1,.9.9,0,0,0,.7.6l31.9,9.1h.3l.7-.2a2.1,2.1,0,0,0,.6-1c2.1-20.4,6.7-42.5,10.4-42.5a30.7,30.7,0,0,1,19.5,15.1,38.4,38.4,0,0,1,2.9,29.2,1.2,1.2,0,0,0,.6,1.5Z"/><path class="cls-3" d="M119.8,31.7a27.2,27.2,0,0,1,6.9.9c26.4,6.5,32.7,29.5,27.3,47.1A38.7,38.7,0,0,1,146.8,93c5.4-17.6-1.9-40.2-23.1-45.9h-.5c-7.1,0-11.7,43.6-11.7,43.6L79.7,81.6s7.2-18.4,9.4-25.7c4.6-15,17.4-24.2,30.7-24.2m0-2.5c-15,0-28.3,10.5-33.1,26-2.2,7.1-9.3,25.4-9.3,25.5a2.2,2.2,0,0,0,.1,2.1A2,2,0,0,0,79,84l31.9,9.1h.6a2.3,2.3,0,0,0,1.4-.4A2.7,2.7,0,0,0,114,91c2.2-20.6,6.4-39.3,9.3-41.4A29.6,29.6,0,0,1,141.7,64a37.2,37.2,0,0,1,2.7,28.2,2.3,2.3,0,0,0,1.2,2.9,1.7,1.7,0,0,0,1.2.4,2.5,2.5,0,0,0,1.9-.9,43,43,0,0,0,7.7-14.1c3.3-10.9,2.2-22.5-3-31.7s-14.2-15.7-26-18.6a33,33,0,0,0-7.6-1Z"/><path class="cls-9" d="M146.8,94.2a1.1,1.1,0,0,0,.9-.4,39,39,0,0,0,7.5-13.7c3.2-10.6,2.2-21.8-2.9-30.7s-13.7-15.2-25.3-18a29,29,0,0,0-7.2-.9c-14.5,0-27.3,10-31.9,25-2.2,7.2-9.3,25.5-9.4,25.7a1.2,1.2,0,0,0,.1,1,.9.9,0,0,0,.7.6L99,88.4h.3a1.3,1.3,0,0,0,1.2-.8c12.9-36,19.7-39.9,22-39.9a2.3,2.3,0,0,1,1.5.6l.5.2c16.9,7,26.4,26.7,21.1,44a1.2,1.2,0,0,0,.6,1.5Z"/><path class="cls-3" d="M119.8,31.7a27.2,27.2,0,0,1,6.9.9c26.4,6.5,32.7,29.5,27.3,47.1A38.7,38.7,0,0,1,146.8,93c5.3-17.3-3.8-38.2-21.8-45.5a5.7,5.7,0,0,0-2.5-.9c-3.4,0-10.5,5.2-23.2,40.6L79.7,81.6s7.2-18.4,9.4-25.7c4.6-15,17.4-24.2,30.7-24.2m0-2.5c-15,0-28.3,10.5-33.1,26-2.2,7.1-9.3,25.4-9.3,25.5a2.2,2.2,0,0,0,.1,2.1A2,2,0,0,0,79,84l19.6,5.6h.7a2.6,2.6,0,0,0,2.4-1.6c13.5-37.9,20.1-39,20.8-39a1.3,1.3,0,0,1,.8.3l.7.4c16.4,6.7,25.5,25.7,20.4,42.4a2.3,2.3,0,0,0,1.2,2.9,1.7,1.7,0,0,0,1.2.4,2.5,2.5,0,0,0,1.9-.9,43,43,0,0,0,7.7-14.1c3.3-10.9,2.2-22.5-3-31.7s-14.2-15.7-26-18.6a33,33,0,0,0-7.6-1Z"/><path class="cls-8" d="M146.8,94.2a1.1,1.1,0,0,0,.9-.4,39,39,0,0,0,7.5-13.7c3.2-10.6,2.2-21.8-2.9-30.7s-13.7-15.2-25.3-18a29,29,0,0,0-7.2-.9c-14.5,0-27.3,10-31.9,25-2.2,7.2-9.3,25.5-9.4,25.7a1.2,1.2,0,0,0,.1,1,.9.9,0,0,0,.7.6l31.9,9.1h.3l.7-.2a2.1,2.1,0,0,0,.6-1c2.1-20.4,6.7-42.5,10.4-42.5a30.7,30.7,0,0,1,19.5,15.1,38.4,38.4,0,0,1,2.9,29.2,1.2,1.2,0,0,0,.6,1.5Z"/><path class="cls-3" d="M119.8,31.7a27.2,27.2,0,0,1,6.9.9c26.4,6.5,32.7,29.5,27.3,47.1A38.7,38.7,0,0,1,146.8,93c5.4-17.6-1.9-40.2-23.1-45.9h-.5c-7.1,0-11.7,43.6-11.7,43.6L79.7,81.6s7.2-18.4,9.4-25.7c4.6-15,17.4-24.2,30.7-24.2m0-2.5c-15,0-28.3,10.5-33.1,26-2.2,7.1-9.3,25.4-9.3,25.5a2.2,2.2,0,0,0,.1,2.1A2,2,0,0,0,79,84l31.9,9.1h.6a2.3,2.3,0,0,0,1.4-.4A2.7,2.7,0,0,0,114,91c2.2-20.6,6.4-39.3,9.3-41.4A29.6,29.6,0,0,1,141.7,64a37.2,37.2,0,0,1,2.7,28.2,2.3,2.3,0,0,0,1.2,2.9,1.7,1.7,0,0,0,1.2.4,2.5,2.5,0,0,0,1.9-.9,43,43,0,0,0,7.7-14.1c3.3-10.9,2.2-22.5-3-31.7s-14.2-15.7-26-18.6a33,33,0,0,0-7.6-1Z"/><path class="cls-10" d="M146.8,94.2a1.1,1.1,0,0,0,.9-.4,39,39,0,0,0,7.5-13.7c3.2-10.6,2.2-21.8-2.9-30.7s-13.7-15.2-25.3-18a29,29,0,0,0-7.2-.9c-14.5,0-27.3,10-31.9,25-2.2,7.2-9.3,25.5-9.4,25.7a1.2,1.2,0,0,0,.1,1,.9.9,0,0,0,.7.6L99,88.4h.3a1.3,1.3,0,0,0,1.2-.8c12.9-36,19.7-39.9,22-39.9a2.3,2.3,0,0,1,1.5.6l.5.2c16.9,7,26.4,26.7,21.1,44a1.2,1.2,0,0,0,.6,1.5Z"/><path class="cls-3" d="M119.8,31.7a27.2,27.2,0,0,1,6.9.9c26.4,6.5,32.7,29.5,27.3,47.1A38.7,38.7,0,0,1,146.8,93c5.3-17.3-3.8-38.2-21.8-45.5a5.7,5.7,0,0,0-2.5-.9c-3.4,0-10.5,5.2-23.2,40.6L79.7,81.6s7.2-18.4,9.4-25.7c4.6-15,17.4-24.2,30.7-24.2m0-2.5c-15,0-28.3,10.5-33.1,26-2.2,7.1-9.3,25.4-9.3,25.5a2.2,2.2,0,0,0,.1,2.1A2,2,0,0,0,79,84l19.6,5.6h.7a2.6,2.6,0,0,0,2.4-1.6c13.5-37.9,20.1-39,20.8-39a1.3,1.3,0,0,1,.8.3l.7.4c16.4,6.7,25.5,25.7,20.4,42.4a2.3,2.3,0,0,0,1.2,2.9,1.7,1.7,0,0,0,1.2.4,2.5,2.5,0,0,0,1.9-.9,43,43,0,0,0,7.7-14.1c3.3-10.9,2.2-22.5-3-31.7s-14.2-15.7-26-18.6a33,33,0,0,0-7.6-1Z"/><g class="cls-4"><path class="cls-11" d="M96.1,55.3c-2.5-1.9-2.8-4.9-3-8.1a34.6,34.6,0,0,0-4,8.7c-2.2,7.3-9.4,25.7-9.4,25.7l31.8,9.1S114,67.5,118,54.9h-.2C110.7,55,102.1,59.8,96.1,55.3Z"/></g><path class="cls-12" d="M113.7,39.8c-6.8,2.7-15.4,15.3-17.2,7.6-.5-2.3,6.3-10.3,16.4-13.6a28.5,28.5,0,0,1,22.2,2.3S122.8,36.3,113.7,39.8Z"/><path class="cls-13" d="M93.9,106.1l.6-.2a1.3,1.3,0,0,0,.6-1c0-.2,1.9-23.7.7-40.8C94.6,45.3,81.3,28.3,63.7,22.9A27.3,27.3,0,0,0,55,21.6c-12.4,0-26.1,6.9-33.4,16.8a1.4,1.4,0,0,0,.1,1.6,1.8,1.8,0,0,0,.9.4l.7-.2A28.9,28.9,0,0,1,39.6,35a28.7,28.7,0,0,1,7.7,1.1C62.8,40.9,71.1,59,65.7,76.5a36.5,36.5,0,0,1-8.8,14.8,1.2,1.2,0,0,0-.2,1.5,1.3,1.3,0,0,0,1.1.6h.3l1.6-.2c9.6,0,33.4,12.6,33.6,12.7Z"/><path class="cls-3" d="M55,22.9a29.4,29.4,0,0,1,8.4,1.2c17.9,5.5,30,22.7,31.2,40.1s-.7,40.6-.7,40.6S69.7,92,59.7,92a5.5,5.5,0,0,0-1.9.2,38.6,38.6,0,0,0,9.1-15.3c5.6-18.2-3-37-19.2-41.9a25.4,25.4,0,0,0-8.1-1.3,30.8,30.8,0,0,0-17,5.4C29.4,29.9,42.7,22.9,55,22.9m0-2.5c-12.8,0-26.9,7.1-34.4,17.2a2.6,2.6,0,0,0,.2,3.2,2.5,2.5,0,0,0,3.2.4,27.5,27.5,0,0,1,15.6-5A26.5,26.5,0,0,1,47,37.3c14.8,4.6,22.7,22,17.5,38.8A34.6,34.6,0,0,1,56,90.4a2.6,2.6,0,0,0-.4,3,2.6,2.6,0,0,0,2.2,1.3h1.9c7.7,0,26.4,9,33,12.5a2.6,2.6,0,0,0,2.4,0,2.8,2.8,0,0,0,1.3-2c0-1,1.9-23.7.7-41-1.3-19.3-14.9-36.7-33-42.3A29.9,29.9,0,0,0,55,20.4Z"/><path class="cls-8" d="M79.6,99.2h.7a2.1,2.1,0,0,0,.6-1c.6-10.7.7-19.8.4-26.9-.9-18.7-13-35.4-29.6-40.5a26.3,26.3,0,0,0-7.6-1.1c-6.6,0-13.8,2.3-20.4,6.3l-.3.2-1.8,2.3a1.4,1.4,0,0,0,.1,1.6,1.8,1.8,0,0,0,.9.4l.7-.2A28.9,28.9,0,0,1,39.6,35a28.7,28.7,0,0,1,7.7,1.1C62.8,40.9,71.1,59,65.7,76.5a36.5,36.5,0,0,1-8.8,14.8,1.2,1.2,0,0,0-.2,1.5,1.3,1.3,0,0,0,1.1.6h.3l1.6-.2c3.8,0,10.5,2.1,19.4,5.9Z"/><path class="cls-3" d="M44.1,30.9a25.7,25.7,0,0,1,7.3,1C68.1,37.1,79.2,54,80,71.2A263.1,263.1,0,0,1,79.6,98c-7.1-3.1-15.1-6-19.9-6a5.5,5.5,0,0,0-1.9.2,38.6,38.6,0,0,0,9.1-15.3c5.6-18.2-3-37-19.2-41.9a25.4,25.4,0,0,0-8.1-1.3,30.8,30.8,0,0,0-17,5.4c.6-.7,1.1-1.4,1.8-2.1a37.9,37.9,0,0,1,19.7-6.1m0-2.5c-6.8,0-14.3,2.3-21.1,6.4l-.5.5-1.9,2.3a2.6,2.6,0,0,0,.2,3.2,2.5,2.5,0,0,0,3.2.4,27.5,27.5,0,0,1,15.6-5A26.5,26.5,0,0,1,47,37.3c14.8,4.6,22.7,22,17.5,38.8A34.6,34.6,0,0,1,56,90.4a2.6,2.6,0,0,0-.4,3,2.6,2.6,0,0,0,2.2,1.3h1.9c2.5,0,7.8,1,18.9,5.8l1,.2a2,2,0,0,0,1.3-.4,2.3,2.3,0,0,0,1.2-2,254.1,254.1,0,0,0,.4-27c-.9-19.2-13.4-36.3-30.4-41.6a29.7,29.7,0,0,0-8-1.1Z"/><g class="cls-4"><path class="cls-14" d="M75,51.1c-1.4-5.2-7.2-6.5-12.8-5.6,6.1,8.3,8.2,19.9,4.7,31.4a38.6,38.6,0,0,1-9.1,15.3h9.7l.4.2h1.8l.4.2h.8l.3.2H72l.5.2h.2l.5.2h.3l.5.2h.3l.5.2H75l.6.2h.2l.6.3h.2l.6.3h.1l.8.3h0l1.5.7c7.7,3.3,14.3,6.8,14.3,6.8s1.5-18.1,1-34.2C86,66.8,78,61.8,75,51.1Z"/></g><path class="cls-12" d="M76,38.9c7.9,8.4,10.7,25,16.2,21.2,1.7-1.1-2.8-15.7-12.6-24.6C64.9,22.1,52.7,24.6,52.7,24.6S68,30.5,76,38.9Z"/><path class="cls-15" d="M114.6,112h.2a1.3,1.3,0,0,0,1.1-1.1A35,35,0,0,1,122,94.8c6.6-9.7,16.9-15.5,27.7-15.5a26.9,26.9,0,0,1,15.2,4.6,28.2,28.2,0,0,1,11.9,21.3,1.4,1.4,0,0,0,1.1,1.2h.1a1.2,1.2,0,0,0,1.2-1C182.9,92,178,71.7,165,62.9a44,44,0,0,0-25.2-7.6,47.8,47.8,0,0,0-27,8.2C98.7,73.3,81.6,89.4,81.4,89.6a1.2,1.2,0,0,0-.4,1.1,1.3,1.3,0,0,0,.7.9c7.9,3.4,28.9,13.6,31.8,19.7A1.4,1.4,0,0,0,114.6,112Z"/><path class="cls-3" d="M139.8,56.5a43.5,43.5,0,0,1,24.5,7.4c12.3,8.3,17.4,27.7,13.7,41.2-.7-8.9-4.9-17.1-12.4-22.2a28.5,28.5,0,0,0-15.9-4.8c-10.7,0-21.8,5.7-28.8,16a38.5,38.5,0,0,0-6.3,16.7c-3.7-7.9-32.4-20.3-32.4-20.3s17.1-16.1,31.3-25.9a46.5,46.5,0,0,1,26.3-8.1m0-2.5a48.7,48.7,0,0,0-27.7,8.5C97.9,72.3,81.2,88,80.5,88.7a2.3,2.3,0,0,0-.7,2.2,2.7,2.7,0,0,0,1.4,1.9c10.8,4.6,28.8,13.9,31.2,19a2.5,2.5,0,0,0,2.2,1.5h.4a2.3,2.3,0,0,0,2.1-2.1A35.9,35.9,0,0,1,123,95.5c6.3-9.3,16.3-14.9,26.7-14.9A25.3,25.3,0,0,1,164.2,85a26.9,26.9,0,0,1,11.4,20.3,2.5,2.5,0,0,0,2.2,2.3h.2a2.5,2.5,0,0,0,2.5-1.8c3.7-13.8-.9-34.6-14.8-44A45.5,45.5,0,0,0,139.8,54Z"/><path class="cls-8" d="M114.6,112h.2a1.3,1.3,0,0,0,1.1-1.1A35,35,0,0,1,122,94.8c6.6-9.7,16.9-15.5,27.7-15.5a26.9,26.9,0,0,1,15.2,4.6,28.2,28.2,0,0,1,11.9,21.3,1.4,1.4,0,0,0,1.1,1.2h.1a1.2,1.2,0,0,0,1.2-1,19.1,19.1,0,0,0,.7-2.8v-.3c-1.4-10.9-6.4-20.3-13.5-25.2a39.8,39.8,0,0,0-22.6-6.7,47.2,47.2,0,0,0-27.4,8.9c-7.3,5.3-15.3,12.2-20.8,17.1a1.5,1.5,0,0,0-.4,1.1,1.4,1.4,0,0,0,.7,1c9.9,5.3,16.2,9.8,17.6,12.8A1.4,1.4,0,0,0,114.6,112Z"/><path class="cls-3" d="M143.8,71.7a38.2,38.2,0,0,1,21.9,6.5c7.4,5,11.8,14.5,12.9,24.2a13.1,13.1,0,0,1-.6,2.7c-.7-8.9-4.9-17.1-12.4-22.2a28.5,28.5,0,0,0-15.9-4.8c-10.7,0-21.8,5.7-28.8,16a38.5,38.5,0,0,0-6.3,16.7c-1.9-4.1-10.3-9.3-18.1-13.4a256.1,256.1,0,0,1,20.6-17.1,46.4,46.4,0,0,1,26.7-8.6m0-2.5a48.4,48.4,0,0,0-28.2,9.1c-7.3,5.3-15.3,12.3-20.8,17.2a2.7,2.7,0,0,0-.8,2.2,2.6,2.6,0,0,0,1.3,1.9c13.6,7.2,16.5,11,17.1,12.2a2.5,2.5,0,0,0,2.2,1.5h.4a2.3,2.3,0,0,0,2.1-2.1A35.9,35.9,0,0,1,123,95.5c6.3-9.3,16.3-14.9,26.7-14.9A25.3,25.3,0,0,1,164.2,85a26.9,26.9,0,0,1,11.4,20.3,2.5,2.5,0,0,0,2.2,2.3h.2a2.5,2.5,0,0,0,2.5-1.8c.2-1,.4-1.9.6-3v-.7c-1.4-11.2-6.6-21-14-26a41.2,41.2,0,0,0-23.3-6.9Z"/><g class="cls-4"><path class="cls-11" d="M126.6,81.6c-6.1-.5-16,2.9-17.9-2.3-1-2.3.3-7.2-.2-11.1C95.6,77.9,82.2,90.5,82.2,90.5s6.8,2.9,14.3,6.9h0l2.2,1.2h0l.7.4h.1l.6.4h.1l.6.4h.2l.5.3h.2l.5.3h.3l.4.3.3.2.4.2.3.2.4.3h.3l.4.3.3.2.4.2c.1.1.2.1.2.2l.4.2.3.2.4.3.2.2a.5.5,0,0,1,.4.2l.3.2.3.2.3.2.3.3.3.2.3.2.2.2.3.2.3.2.3.2a.2.2,0,0,0,.2.2l.3.3.2.2.3.2.2.2.2.2.2.2.3.2a.2.2,0,0,0,.2.2l.2.2v.2c.1.1.2.2.2.3h.2l.2.3h.1l.2.3h.1c.1.1.2.2.2.3h.1l.2.3h0l.2.4a38.5,38.5,0,0,1,6.3-16.7,38.1,38.1,0,0,1,10.5-10.3A11.1,11.1,0,0,0,126.6,81.6Z"/></g><path class="cls-12" d="M143.3,62.9c-11.5-.3-25.7,8.6-26.6,1.9-.3-2,13.7-8.3,26.8-6.9,19.8,2.2,26,13,26,13S154.9,63.3,143.3,62.9Z"/><path class="cls-16" d="M19.3,56.2a10,10,0,0,0,2.9-19.6,9.3,9.3,0,0,0-2.9-.5,10,10,0,0,0-3,19.6,10.5,10.5,0,0,0,3,.5Z"/><path class="cls-3" d="M19.3,37.4a7.3,7.3,0,0,1,2.5.4,8.7,8.7,0,0,1,5.9,10.9,8.8,8.8,0,0,1-8.4,6.2,7.5,7.5,0,0,1-2.6-.4,8.7,8.7,0,0,1,2.6-17.1m0-2.5a11.2,11.2,0,0,0-3.3,22,8.8,8.8,0,0,0,3.3.5,11.3,11.3,0,0,0,3.3-22,12.6,12.6,0,0,0-3.3-.5Z"/><g class="cls-4"><path class="cls-16" d="M22.7,38.1a8.8,8.8,0,0,1-8.8,14.6l-.8-.3a8.6,8.6,0,0,0,3.6,2.1,8.7,8.7,0,0,0,6-16.4Z"/></g><path class="cls-17" d="M12.6,44.1c1.3-3.4,5.9-6,8.8-4.9a4.8,4.8,0,0,1,2,1.4c-.5-1.4-1.5-2-2.9-2.6s-7.2,1-8.5,4.3c-.6,1.7-1,3.6-.3,5.1A8.6,8.6,0,0,1,12.6,44.1Z"/><path class="cls-3" d="M16.5,49.5a2.8,2.8,0,0,1-2.1,2.6,2.4,2.4,0,0,1-2.3-2.8c0-1.7,1.3-2.8,2.4-2.5A2.6,2.6,0,0,1,16.5,49.5Z"/><path class="cls-18" d="M20.1,37a17.2,17.2,0,0,0-5.3,17.2"/><path class="cls-3" d="M19.7,50.5a2.7,2.7,0,0,0,.3,3.3c.9.8,2.5.5,3.4-1s.6-3-.6-3.5A2.6,2.6,0,0,0,19.7,50.5Z"/><path class="cls-18" d="M23.7,38.2a17.2,17.2,0,0,1-5.2,17.1"/><path class="cls-16" d="M180.8,115.1a10.1,10.1,0,0,0,10-10.1,10.2,10.2,0,0,0-10.1-10,10.1,10.1,0,0,0,0,20.1Z"/><path class="cls-3" d="M180.7,96.3a8.8,8.8,0,1,1,.1,17.5h-.1a8.8,8.8,0,0,1,0-17.5h0m0-2.5h0a11.1,11.1,0,0,0-7.9,3.3,10.9,10.9,0,0,0-3.3,8,11.3,11.3,0,1,0,11.2-11.3Z"/><g class="cls-4"><path class="cls-16" d="M181.6,96.3a8.8,8.8,0,0,1-4,16.6h-1a8.8,8.8,0,0,0,12.9-7.8A8.8,8.8,0,0,0,181.6,96.3Z"/></g><path class="cls-17" d="M173.7,105.1c.2-3.7,3.9-7.5,7-7.4a6.8,6.8,0,0,1,2.4.8,4.5,4.5,0,0,0-3.6-1.6c-3.1-.1-6.6,3.1-6.8,6.6-.1,1.9.1,3.8,1.1,5C173.4,107.6,173.7,106.2,173.7,105.1Z"/><path class="cls-3" d="M179,109a2.5,2.5,0,0,1-1.2,3.1c-1.1.6-2.6-.3-3-1.9s.4-3.1,1.6-3.2A2.6,2.6,0,0,1,179,109Z"/><path class="cls-18" d="M178.8,96.1a17,17,0,0,0,0,17.9"/><path class="cls-3" d="M182.5,109a2.5,2.5,0,0,0,1.2,3.1,2.3,2.3,0,0,0,3-1.9c.4-1.7-.4-3.1-1.6-3.2A2.6,2.6,0,0,0,182.5,109Z"/><path class="cls-18" d="M182.6,96.1a17.2,17.2,0,0,1,.1,17.9"/><path class="cls-16" d="M143.2,107.1a8.9,8.9,0,0,0,5.9-15.4,9,9,0,0,0-5.9-2.2,8.8,8.8,0,0,0-6.6,2.9,9.3,9.3,0,0,0-2.2,6.4,8.6,8.6,0,0,0,2.9,6.1,9,9,0,0,0,5.9,2.2Z"/><path class="cls-3" d="M143.2,90.6a7.5,7.5,0,0,1,5.1,1.9,7.8,7.8,0,0,1,.6,11,7.5,7.5,0,0,1-5.7,2.5,7.4,7.4,0,0,1-5.2-2,7.7,7.7,0,0,1,5.2-13.4m0-2.2a10,10,0,0,0-7.4,3.3,9.3,9.3,0,0,0-2.5,7.1,9.7,9.7,0,0,0,3.3,6.9,9.8,9.8,0,0,0,6.6,2.5,9.9,9.9,0,1,0,0-19.8Z"/><g class="cls-4"><path class="cls-16" d="M148.9,93.1a7.5,7.5,0,0,1-1.5,7.8,7.6,7.6,0,0,1-10.9.6l-.6-.5a9,9,0,0,0,2.1,3,7.7,7.7,0,0,0,10.9-10.9Z"/></g><path class="cls-17" d="M138.6,94.2c2.3-2.3,7-2.6,8.9-.7a7.2,7.2,0,0,1,1.1,1.9,4.1,4.1,0,0,0-1.4-3.1c-1.9-2-6.2-1.9-8.4.2a7.3,7.3,0,0,0-2.2,4C136.9,95.6,137.9,94.9,138.6,94.2Z"/><path class="cls-3" d="M139.7,99.9a2.3,2.3,0,0,1-2.6,1.3,2.4,2.4,0,0,1,2.1-4.2A2.3,2.3,0,0,1,139.7,99.9Z"/><path class="cls-19" d="M147.2,91.3A15.1,15.1,0,0,0,136.7,103"/><path class="cls-3" d="M142,101.9a2.2,2.2,0,0,0-1,2.7c.4,1,1.8,1.4,3.1.6a2.2,2.2,0,0,0,.8-3.1A2.3,2.3,0,0,0,142,101.9Z"/><path class="cls-19" d="M149.7,93.6a15.1,15.1,0,0,1-10.5,11.7"/><path class="cls-8" d="M104.2,108.8a1.3,1.3,0,0,0,.8-.3,1.2,1.2,0,0,0,.4-1.1c-.7-4.4-3.2-19.3-3.8-25.7-1.6-18-15.5-31.6-32.2-31.6H68.3c-11.9.5-21.7,4.8-28.4,12.5S29.8,81.1,30.8,92.1A38.5,38.5,0,0,0,35.3,107a1.3,1.3,0,0,0,1.1.6h.4a1.4,1.4,0,0,0,.9-1.3,38,38,0,0,1,8.7-28,30.5,30.5,0,0,1,22-10.8h.1a.5.5,0,0,1,.5.3c1.1,1.1,3.4,6.3,2.1,29.9A1.4,1.4,0,0,0,72,99l31.8,9.8Z"/><path class="cls-3" d="M69.4,51.4c15.6,0,29.3,12.6,31,30.5.6,6.4,3,21.1,3.8,25.7L72.4,97.8c.7-13.3.8-31.6-3.9-31.6h-.1c-21.9,1.3-33.7,21.9-32,40.2A38.4,38.4,0,0,1,32,92c-1.7-18.4,9.1-39.6,36.3-40.6h1.1m0-2.5H68.2c-12.2.5-22.3,4.9-29.3,12.9a40.3,40.3,0,0,0-9.3,30.4,38.8,38.8,0,0,0,4.6,15.4,2.6,2.6,0,0,0,2.2,1.3h.7a2.5,2.5,0,0,0,1.8-2.6,36.9,36.9,0,0,1,8.4-27.1A30,30,0,0,1,68.2,68.7c.6.8,3,5.4,1.7,29a2.5,2.5,0,0,0,1.7,2.5l31.8,9.8h.8a2.7,2.7,0,0,0,1.6-.6,2.6,2.6,0,0,0,.8-2.3c-.7-4.4-3.1-19.3-3.7-25.6-1.8-18.7-16.1-32.7-33.5-32.7Z"/><path class="cls-20" d="M104.2,108.8a1.3,1.3,0,0,0,.8-.3,1.2,1.2,0,0,0,.4-1.1c-.7-4.4-3.2-19.3-3.8-25.7-1.6-18-15.5-31.6-32.2-31.6H68.3c-11.9.5-21.7,4.8-28.4,12.5S29.8,81.1,30.8,92.1A38.5,38.5,0,0,0,35.3,107a1.3,1.3,0,0,0,1.1.6h.4a1.4,1.4,0,0,0,.9-1.3C36,88.3,49.3,70.9,67.3,67.6l.5-.2a3.5,3.5,0,0,1,1.1-.3c1.6,0,7.2,2.5,12.5,34.1a1.1,1.1,0,0,0,.8.9l21.6,6.7Z"/><path class="cls-3" d="M69.4,51.4c15.6,0,29.3,12.6,31,30.5.6,6.4,3,21.1,3.8,25.7L82.6,101C77.4,69.8,71.8,65.9,68.9,65.9a9.7,9.7,0,0,0-1.9.4c-19.1,3.6-32.3,22.1-30.6,40.1A38.4,38.4,0,0,1,32,92c-1.7-18.4,9.1-39.6,36.3-40.6h1.1m0-2.5H68.2c-12.2.5-22.3,4.9-29.3,12.9a40.3,40.3,0,0,0-9.3,30.4,38.8,38.8,0,0,0,4.6,15.4,2.6,2.6,0,0,0,2.2,1.3h.7a2.5,2.5,0,0,0,1.8-2.6C37.3,88.8,50.1,72,67.5,68.8l.8-.3h.6c.2,0,5.8.3,11.2,33a2.5,2.5,0,0,0,1.8,1.9l21.5,6.7h.8a2.7,2.7,0,0,0,1.6-.6,2.6,2.6,0,0,0,.8-2.3c-.7-4.4-3.1-19.3-3.7-25.6-1.8-18.7-16.1-32.7-33.5-32.7Z"/><g class="cls-4"><path class="cls-11" d="M100.4,81.9a35.1,35.1,0,0,0-8-19.6c-1.2,6-4.6,11.1-10.6,11.7-3,.3-6.9-2.5-10-2.4,1.3,6.4,1.1,17.4.6,26.2L82.6,101l21.6,6.6C103.4,103,101,88.3,100.4,81.9Z"/></g><path class="cls-12" d="M46.8,69.1c5.8-5.3,11.5-9.8,16-12L71.2,53a63.2,63.2,0,0,0-8.2.2A40.4,40.4,0,0,0,41.9,64.5c-8.7,9.2-9.1,24.4-9.1,24.4S35.1,79.9,46.8,69.1Z"/><path class="cls-11" d="M116,117.4c.6,0,2.2,0,2.6-1.3l.5-1.7c.7-2.2,2.1-6.9,4.1-8.2l2.1-1.2a11.1,11.1,0,0,0,4.9-3.8,4.5,4.5,0,0,0,.6-3.9,6.1,6.1,0,0,0-3.7-3.5,4.7,4.7,0,0,0-1.7-.3c-3.5,0-6.9,3.8-10,7.1a19,19,0,0,1-3.5,3.5,5.2,5.2,0,0,1,.6-2.9l.2-.5a30,30,0,0,0,1.9-6c.7-3-.3-5.1-3.1-6.8a8.3,8.3,0,0,0-4.6-1.5,5.3,5.3,0,0,0-3,.9c-2.2,1.4-2.2,3.6-2.2,5.4V94a10.1,10.1,0,0,1-2.4,5.9,1.7,1.7,0,0,1-1.4.7,2.4,2.4,0,0,1-2-1.1,2.5,2.5,0,0,1-.4-2.2c.3-1,.8-2.2,1.3-3.4,1.5-3.4,3.1-7.1,2-10.4a5.8,5.8,0,0,0-5.5-4.2,7.5,7.5,0,0,0-4.8,1.9c-1.2,1-2.5,3.7-3.7,6.2a22.9,22.9,0,0,1-2,3.7l-.4.6c-.6.8-1.4,1.9-1.9,1.9a2,2,0,0,1-1.1-.7c-1.3-1.6-.8-3.6.1-6.4a10.9,10.9,0,0,0,.5-1.7c.4-1.4,1.2-5-.3-7.5A4.8,4.8,0,0,0,76.8,75l-1.9-.2c-2.9,0-4.4,2.2-5.8,4.3a51.4,51.4,0,0,0-2.9,5.1l-1.5,2.7a5.5,5.5,0,0,1-.9,1.3l-.2-.2c-.5-.5-.2-3.8,0-5.7.4-4.6.9-9.9-2.9-10.3h-.3a2.6,2.6,0,0,0-2.2,1c-1.9,2.1-1.3,7.3-1.2,7.9a7.7,7.7,0,0,1,.2,1.5c.4,1.9.6,3.2-.1,4.9s-.8,2.3-1.1,3.4L55.6,92a2.6,2.6,0,0,1-.4,1.1,4.4,4.4,0,0,0-1,2.1l-.3,1c-.4,1.2,0,2.5,9.2,6.2,5.8,2.4,13.6,5.1,21.9,7.7C99.1,114.4,111.6,117.4,116,117.4Z"/><path class="cls-3" d="M60.4,73.2h.2c4.5.5,0,13.5,2.1,15.7a1.8,1.8,0,0,0,1.1.5c.8,0,1.5-1,2-1.9,1.4-2.6,2.7-5.3,4.3-7.8S72.7,76,74.9,76a4.7,4.7,0,0,1,1.6.2c3.5,1,3.1,5.5,2.4,8.3s-2.7,6.5-.4,9.2a2.9,2.9,0,0,0,2,1.1c1.3,0,2.3-1.6,3.3-2.9s3.7-8.3,5.5-9.8a6.4,6.4,0,0,1,4-1.6,4.4,4.4,0,0,1,4.3,3.3c1.4,4.1-2.1,9.4-3.3,13.2a3.9,3.9,0,0,0,3.6,4.8,3,3,0,0,0,2.3-1.1,10.8,10.8,0,0,0,2.7-6.6c.1-2.2-.5-4.4,1.7-5.8a3.9,3.9,0,0,1,2.3-.7,8.2,8.2,0,0,1,4,1.3c2.3,1.4,3.1,3,2.5,5.5a30.9,30.9,0,0,1-1.8,5.9c-.5,1.3-1.4,2.9-.8,4.4a.9.9,0,0,0,.9.7c2.5,0,8.6-10.7,13.7-10.7a3.2,3.2,0,0,1,1.3.2c2.5,1.1,4,3.2,2.5,5.6s-4.4,3.2-6.7,4.7-4.1,7.5-4.8,9.6l-.2,1c-.1.2-.6.4-1.5.4-4.2,0-16.4-2.9-30.6-7.2C68.2,103.6,54.6,98.1,55,96.5l.3-.9c.8-2.6.7-.7,1.5-3.3a33.6,33.6,0,0,1,1.4-4.5c1-2.5.4-4.4,0-7s-.6-7.6,2.2-7.6m0-2.4a4.1,4.1,0,0,0-3.1,1.4c-2.2,2.4-1.7,7.4-1.5,8.9l.3,1.5c.3,1.8.5,2.9-.1,4.3s-.8,2.4-1.2,3.5l-.3,1.2a1.6,1.6,0,0,1-.3.8A5.8,5.8,0,0,0,53,94.9l-.3.9c-.7,2.6,1.4,4.3,10,7.8,5.8,2.3,13.6,5.1,22,7.7,14.2,4.3,26.8,7.3,31.3,7.3,2.1,0,3.3-.7,3.8-2.1s.2-1,.2-1l.3-.7c.5-1.8,1.9-6.5,3.5-7.6l2-1.1a12,12,0,0,0,5.4-4.3,5.8,5.8,0,0,0,.8-4.9,7.3,7.3,0,0,0-4.4-4.2,5.7,5.7,0,0,0-2.2-.4c-4.1,0-7.7,4-10.8,7.5l-.3.3a44.4,44.4,0,0,0,1.5-5.2c.8-3.5-.4-6.1-3.6-8.1a10.7,10.7,0,0,0-5.3-1.6,6.1,6.1,0,0,0-3.6,1.1c-2.8,1.8-2.8,4.6-2.8,6.4V94a8.6,8.6,0,0,1-2.1,5.1c-.3.3-.5.3-.5.3a1.3,1.3,0,0,1-1-.6,1.2,1.2,0,0,1-.3-1.1c.3-1,.8-2.1,1.3-3.3,1.6-3.6,3.3-7.6,2-11.3a6.9,6.9,0,0,0-6.6-5,8.8,8.8,0,0,0-5.6,2.2c-1.3,1.1-2.4,3.3-4,6.6a26.9,26.9,0,0,1-1.8,3.5l-.5.6-.9,1.2a.1.1,0,0,1-.1-.1c-1-1.1-.6-2.7.3-5.2a12.1,12.1,0,0,1,.5-1.8c.4-1.5,1.2-5.5-.4-8.4a5.8,5.8,0,0,0-3.7-2.8l-2.2-.3c-3.6,0-5.3,2.7-6.8,4.8s-2,3.5-3,5.2a3.1,3.1,0,0,1-.5,1,16.4,16.4,0,0,1,.2-2.2c.4-4.7,1-11.1-3.9-11.6Z"/><g class="cls-4"><path class="cls-11" d="M122.3,103.1c-4.9,3.6-5.1,5.2-7.9,10.1-4,.3-51.4-13.5-55.9-14.1,5.1,2.5,15.1,6.2,26.9,9.9,17.2,5.3,31.6,8.3,32.1,6.8l.2-1c.7-2.1,2.2-7.8,4.8-9.6s4.9-2.1,6.6-4.5C126.7,100.4,124.1,101.9,122.3,103.1Z"/></g><path class="cls-16" d="M34,123.2a10.1,10.1,0,1,0-10-10.1,10.1,10.1,0,0,0,10,10.1Z"/><path class="cls-3" d="M34,104.4h.1a8.8,8.8,0,0,1,0,17.5H34a8.8,8.8,0,0,1,0-17.5m0-2.5a11.2,11.2,0,0,0-11.2,11.2,11.4,11.4,0,0,0,3.2,8,11.6,11.6,0,0,0,8.1,3.3,11.3,11.3,0,0,0,0-22.5Z"/><g class="cls-4"><path class="cls-16" d="M35,104.4a8.8,8.8,0,0,1-4.2,16.5h-.9a9.2,9.2,0,0,0,4.1,1,8.7,8.7,0,0,0,8.8-8.7A8.8,8.8,0,0,0,35,104.4Z"/></g><path class="cls-17" d="M27,113.1c.3-3.7,4-7.5,7.1-7.3a5.7,5.7,0,0,1,2.3.8,4.2,4.2,0,0,0-3.5-1.6c-3.1-.2-6.7,3.1-6.9,6.5a7.8,7.8,0,0,0,1.1,5.1C26.7,115.6,27,114.3,27,113.1Z"/><path class="cls-3" d="M32.3,117.1a2.7,2.7,0,0,1-1.2,3.1,2.3,2.3,0,0,1-3-1.9c-.5-1.7.4-3.1,1.6-3.2A2.6,2.6,0,0,1,32.3,117.1Z"/><path class="cls-18" d="M32.2,104.2a17,17,0,0,0-.1,17.9"/><path class="cls-3" d="M35.7,117.1a2.7,2.7,0,0,0,1.2,3.1c1.1.6,2.6-.2,3.1-1.9s-.4-3.1-1.6-3.2A2.8,2.8,0,0,0,35.7,117.1Z"/><path class="cls-18" d="M36,104.2a17,17,0,0,1-.1,17.9"/><g class="cls-4"><path class="cls-11" d="M75.2,92.9A4.7,4.7,0,0,0,77.5,95a3.4,3.4,0,0,0,3.4-.2,2.6,2.6,0,0,1-2.4-1.1c-2.3-2.7-.4-6.3.4-9.2a15.7,15.7,0,0,0,.4-2.3C76.4,84.9,74.4,88.6,75.2,92.9Z"/></g><g class="cls-4"><path class="cls-11" d="M94.1,100.5a1.6,1.6,0,0,0,1.5.4A3.8,3.8,0,0,1,94.3,97c1.1-3.5,4.2-8.3,3.6-12.1C95.3,90.1,90.6,94.8,94.1,100.5Z"/></g><g class="cls-4"><path class="cls-11" d="M110.7,104.5h0c-.4-1.4.4-2.9.9-4.2a30.9,30.9,0,0,0,1.8-5.9,4.4,4.4,0,0,0-.7-4.1c-1,1.9-2.4,3.6-3.4,5.6S106.7,105.5,110.7,104.5Z"/></g><path class="cls-12" d="M73.8,79.9c-1.5,1.4-1.8,3.4-2.6,2.5s-.5-2.8,1-4.2,3.3-1.7,4.2-.8S75.2,78.5,73.8,79.9Z"/><path class="cls-12" d="M91.5,84.7c-1.5,1.4-1.8,3.4-2.6,2.5s-.5-2.8,1-4.2,3.3-1.7,4.2-.8S92.9,83.3,91.5,84.7Z"/><path class="cls-12" d="M60,76.8c-.5,1.2-.1,2.5-.9,2.2s-1-1.5-.6-2.8,1.5-2,2.3-1.7S60.4,75.5,60,76.8Z"/><path class="cls-12" d="M106.3,91.1c-1,1-1,2.8-1.9,1.8a2.5,2.5,0,0,1,.3-3.5,2.6,2.6,0,0,1,3.6-.2C109.1,90.2,107.4,90.1,106.3,91.1Z"/><path class="cls-3" d="M112.3,134.2V134l.4-.3a5.9,5.9,0,0,1,1.6-.8h.5c-.1,0,.1-.1-.1,0h.6a1.4,1.4,0,0,1,.9.3c.2,0,.3.2.4.3h.1s-.2-.1-.1-.1h.2l.2.3c.2.2.1.3.2.4s.1.4.2.5a5.7,5.7,0,0,1,.1,1.3,5.7,5.7,0,0,0-.1,1.3,2,2,0,0,0-.1.7l-.2.6a8.1,8.1,0,0,1-.3,1.1,10.4,10.4,0,0,1-.4,1l-.4.7-.3.7.6-.4.7-.5a3.4,3.4,0,0,0,.8-.9,4.4,4.4,0,0,0,.8-1.1l.3-.7.3-.7a10.1,10.1,0,0,0,.3-1.7,10.9,10.9,0,0,0-.1-1.8l-.3-1-.6-.9-.3-.3h-.4a1.8,1.8,0,0,0-.9-.4l-1-.2h-1.6c-.3.2-.5.3-.6.5a6.2,6.2,0,0,0-1.4,1.5A1.3,1.3,0,0,0,112.3,134.2Z"/><path class="cls-3" d="M117.3,136.4h-.5a4.4,4.4,0,0,0-1.4.3,7,7,0,0,0-1.7.9l-.9.7-.8.8-.6,1-.5,1a5.1,5.1,0,0,0-.4,2,3.2,3.2,0,0,0,.1,1.4l.2.5.2-.5c.2-.3.3-.7.6-1.1a2.5,2.5,0,0,0,.4-.7l.5-.7,1.2-1.6,1.2-1.4.6-.7.5-.6.9-.9Z"/><path class="cls-3" d="M51.3,123.1l.6-1a4.6,4.6,0,0,1,.7-1,9,9,0,0,1,1-1.1l.6-.6.7-.5a13,13,0,0,1,1.7-.8,7.1,7.1,0,0,1,2-.4,13.6,13.6,0,0,1,2,.2l1,.4.8.5a9.3,9.3,0,0,1,1.5,1.3,8.6,8.6,0,0,1,1,1.6c.1.3.3.5.4.8a3.1,3.1,0,0,1,.2.8,4.9,4.9,0,0,1,.3,1.5,5.7,5.7,0,0,1,.1,1.2v1.1l.4-1a4.4,4.4,0,0,0,.2-1.3,4,4,0,0,0,.1-1.6c0-.3-.1-.7-.1-1l-.3-1a10,10,0,0,0-1-2.1,7.7,7.7,0,0,0-1.8-1.8l-1.1-.7-1.2-.4a5.9,5.9,0,0,0-2.6-.2,5.4,5.4,0,0,0-2.5.6,8.8,8.8,0,0,0-1.9,1.2l-.8.7-.5.8a4.9,4.9,0,0,0-.9,1.5l-.4,1.2C51.4,122.7,51.3,123.1,51.3,123.1Z"/><path class="cls-3" d="M79.2,131.4l.6-1a4.2,4.2,0,0,1,.8-1.2,11,11,0,0,1,1.1-1.2l.7-.6.8-.6a11.1,11.1,0,0,1,1.9-.9,7.8,7.8,0,0,1,2.1-.4,9,9,0,0,1,2.3.2l1.1.5a2.6,2.6,0,0,1,.9.5,7,7,0,0,1,1.6,1.4,6.7,6.7,0,0,1,1.1,1.8l.5.9c.1.3.1.6.2.9a5,5,0,0,1,.3,1.6,7.1,7.1,0,0,1,.1,1.4v1.2a6.4,6.4,0,0,0,.4-1.2,2.5,2.5,0,0,0,.3-1.3,5.9,5.9,0,0,0,.1-1.9c0-.3-.1-.7-.1-1.1l-.3-1.1a12,12,0,0,0-1.1-2.3,9.5,9.5,0,0,0-2-2c-.5-.2-.9-.6-1.3-.7l-1.3-.6a14.2,14.2,0,0,0-2.9-.2,8.3,8.3,0,0,0-2.7.7,7.7,7.7,0,0,0-2.1,1.4l-.9.8-.6.8a5.6,5.6,0,0,0-.9,1.7,2.4,2.4,0,0,0-.4,1.3Z"/><path class="cls-15" d="M69.3,148.1c5.2,0,9.3-2.8,10.1-6.8a8.1,8.1,0,0,0-2.1-6.9,14.9,14.9,0,0,0-10.4-4.3c-5.1,0-9.3,2.8-10.1,6.8s3.3,9.7,9.6,10.9A13.6,13.6,0,0,0,69.3,148.1Z"/><path class="cls-3" d="M66.9,131.1a13.7,13.7,0,0,1,2.8.2c5.7,1.2,9.6,5.6,8.8,9.9s-4.6,5.9-9.2,5.9a12.3,12.3,0,0,1-2.7-.2c-5.8-1.2-9.7-5.6-8.9-9.8s4.6-6,9.2-6m0-2c-5.6,0-10.2,3.1-11.1,7.6s3.6,10.8,10.4,12.1a16.3,16.3,0,0,0,3.1.3c5.6,0,10.2-3.1,11.1-7.6a8.8,8.8,0,0,0-2.4-7.7,14.4,14.4,0,0,0-8-4.4,15.5,15.5,0,0,0-3.1-.3Z"/><g class="cls-21"><path class="cls-22" d="M67.1,133.1c-.6,1.1.9,3.2,3.5,4.7s5.1,1.7,5.8.5-.9-3.2-3.5-4.7S67.7,132,67.1,133.1Z"/></g><g class="cls-4"><path class="cls-15" d="M57.7,137.1a7.2,7.2,0,0,1,3.1-4.4,7,7,0,0,0-1.3,2.9c-.9,4.2,3.1,8.6,8.8,9.8a12.8,12.8,0,0,0,8.8-1.4c-2.1,2.5-6.2,3.7-10.5,2.9S56.9,141.3,57.7,137.1Z"/></g><path class="cls-3" d="M49.1,135.7l-.4-.2a1.9,1.9,0,0,0-.9-.3H46.3l-.7.4a1.8,1.8,0,0,0-.7.5c-.2.3-.4.4-.5.7l-.3.7a2.5,2.5,0,0,0-.3,1.4,3.8,3.8,0,0,0,.2,1.3l.9-.9.3-.5.4-.4.4-.5.3-.4a.8.8,0,0,0,.4-.4l.4-.3.4-.3.5-.3.7-.4Z"/><path class="cls-5" d="M57.2,165.7c.3-.6,2.4.5,4.9,1.7s4.4,1.9,4.2,2.5-2.9.6-5.4-.6S57,166.3,57.2,165.7Z"/><path class="cls-3" d="M97.1,152.2a2.7,2.7,0,0,0,.9-1.1,6.1,6.1,0,0,0,.2-1.5,4.1,4.1,0,0,0-.5-1.7,3.7,3.7,0,0,0-1.2-1.3,2.4,2.4,0,0,0-1.3-.5,1.9,1.9,0,0,0-1-.1h-.4l.2.4.6.7.4.4c.1.1.2.3.4.4l.3.5.3.5c.2.3.3.7.5,1l.3,1.1C97,151.7,97.1,152.2,97.1,152.2Z"/><path class="cls-23" d="M64.9,167.7c17.1,0,31.7-14.8,31.7-18.3a1.2,1.2,0,0,0-1.2-1.2l-1,.3c-8.6,3.8-16.2,5.7-22.6,5.7h0c-14.6,0-19.7-9.9-22.1-14.6-.9-1.9-1.4-2.8-2.3-2.8H47c-1.2.5-1.5,2.3-1,5.5,1.3,8.2,8.1,24.4,16,25.1l2.9.2Z"/><path class="cls-3" d="M47.4,137.6c1.8,0,4.8,17.3,24.4,17.3,6,0,13.5-1.6,22.9-5.7l.7-.2c3,0-11.5,17.9-30.5,17.9H62.1c-9.6-1-18.3-27.7-14.8-29.2h.1m0-1.6-.7.2c-2.1.9-1.9,4.1-1.5,6.4a52.1,52.1,0,0,0,5.6,15.5c2.4,4.4,6.4,9.7,11.1,10.2l3,.2c16.6,0,29.3-12.7,31.8-17,.5-.9,1-2.1.4-3.1a1.8,1.8,0,0,0-1.7-.9l-1.3.3c-8.5,3.7-16,5.6-22.3,5.6-14.1,0-19-9.6-21.4-14.2-1-2-1.6-3.2-3-3.2Z"/><path class="cls-24" d="M64.9,167.7a33.4,33.4,0,0,0,8.2-1,.9.9,0,0,0,.6-.6,1.1,1.1,0,0,0-.2-.8c-3.8-3.8-10.1-4.6-14.8-4.6H54.9c-.3.1-.6.2-.7.5a.8.8,0,0,0,.1.8c2.6,3.4,5.2,5.2,7.7,5.5Z"/><path class="cls-3" d="M58.7,161.5c5.2,0,10.8.9,14.2,4.4a34.4,34.4,0,0,1-8,1H62.1c-2.5-.3-5-2.3-7.2-5.2h3.8m0-1.6H54.8a1.5,1.5,0,0,0-1.3,1,1.4,1.4,0,0,0,.2,1.6c2.7,3.6,5.4,5.5,8.2,5.8h3a30.3,30.3,0,0,0,8.4-1.1,1.4,1.4,0,0,0,1.1-1.1,1.4,1.4,0,0,0-.4-1.5c-3.1-3.3-8.3-4.9-15.3-4.9Z"/><path class="cls-22" d="M73,159.3a3.9,3.9,0,0,0,2.7-1,3.4,3.4,0,0,0,2,.6h.8a4.4,4.4,0,0,0,2.6-1.4,3.3,3.3,0,0,0,1.5.3h1.2c2.1-.3,3.4-.8,4-1.7a4.8,4.8,0,0,0,.4-3.7v-.4a1,1,0,0,0-.4-.5h-.6a49.2,49.2,0,0,1-14.8,2.6c-11,0-16.7-5.2-19.1-8.3a.5.5,0,0,0-.5-.3h-.1c-.2,0-.4,0-.5.2a4.2,4.2,0,0,0-1.3,3.4,4.5,4.5,0,0,0,1.6,3l.7.5a3.5,3.5,0,0,0,2,1.2,3.9,3.9,0,0,0,2.2,2.2,3.3,3.3,0,0,0,1.7.4h0l1-.2a4,4,0,0,0,2.3,1.7,3.2,3.2,0,0,0,1.3.2,2.6,2.6,0,0,0,1.5-.4,3.4,3.4,0,0,0,2.5,1.4h.7a3.2,3.2,0,0,0,2-.7,3.6,3.6,0,0,0,2.6,1Z"/><path class="cls-3" d="M52.7,146c3.4,4.4,9.6,8.6,19.7,8.6a49.8,49.8,0,0,0,15-2.5v.3c.3,2.3.5,4-3.8,4.5H82.6a1.8,1.8,0,0,1-1.7-.7,2.8,2.8,0,0,1-2.6,1.8h-.6a2.3,2.3,0,0,1-2-1.1,2.8,2.8,0,0,1-2.7,1.4h0a2.5,2.5,0,0,1-2.5-1.4,2.4,2.4,0,0,1-2.1,1.1h-.6a2.5,2.5,0,0,1-2.3-1.8,2.3,2.3,0,0,1-1.8.9l-1-.2a2.8,2.8,0,0,1-2.2-2.2,1.6,1.6,0,0,1-1.4.6,3.5,3.5,0,0,1-3.4-2.8l-.5.2c-.6,0-1.4-1-2.2-1.5a3.6,3.6,0,0,1-.3-5.3m0-1.5a1.6,1.6,0,0,0-1.1.5,5,5,0,0,0-1.5,3.9,5.1,5.1,0,0,0,2,3.6l.6.5a4.7,4.7,0,0,0,1.9,1.2,4.9,4.9,0,0,0,2.4,2.3,5.4,5.4,0,0,0,2.1.5h.7a5.1,5.1,0,0,0,2.4,1.6l1.5.2,1.3-.2a5.2,5.2,0,0,0,2.6,1.2h.8a4.5,4.5,0,0,0,2-.4,4.7,4.7,0,0,0,5.4-.1,4.1,4.1,0,0,0,1.9.5h.9a4.8,4.8,0,0,0,2.7-1.2l1.3.2h1.3c2.3-.4,3.7-1,4.6-2.1s.7-3,.5-4.3-.1-.3-.1-.4a1.8,1.8,0,0,0-.7-1l-.8-.2h-.5a47,47,0,0,1-14.5,2.5c-10.7,0-16.1-5-18.4-8a1.4,1.4,0,0,0-1.2-.6Z"/><path class="cls-11" d="M80.6,155.7c.7-.5,1.2.4,1.7,1.3a1.6,1.6,0,0,1-1.4-.7,2,2,0,0,1-.6.9A2.2,2.2,0,0,1,80.6,155.7Z"/><path class="cls-11" d="M75.6,156.2c1-.2.9.7.9,1.7l-.8-.8a2.4,2.4,0,0,1-1,1C75,157.2,75.1,156.3,75.6,156.2Z"/><path class="cls-11" d="M70.1,156.8c.9-.1,1.1.5,1.2,1.3a3.9,3.9,0,0,1-.8-1,2.2,2.2,0,0,1-1,.9C69.6,157.4,69.7,156.8,70.1,156.8Z"/><path class="cls-11" d="M65.8,156.1c.4.3.4.9.4,1.4a2.4,2.4,0,0,1-.7-1.2,2.8,2.8,0,0,1-1.2.8C64.8,156.3,65.2,155.4,65.8,156.1Z"/><path class="cls-11" d="M61.2,156.2a3.1,3.1,0,0,1-.7-1.4,2,2,0,0,1-2,.6,2.6,2.6,0,0,1,1.7-.9C61.3,154.4,61.3,155.3,61.2,156.2Z"/><path class="cls-11" d="M56.7,152.2a2.2,2.2,0,0,1-.1,2.2,3.1,3.1,0,0,1-.9-1.8c-.3.3-.7.2-1.1-.1S56.4,151.7,56.7,152.2Z"/><path class="cls-11" d="M86,152.5l1.4-.4v.3c.3,2,.4,3.5-2.3,4.2A9.4,9.4,0,0,0,86,152.5Z"/></g></g></svg>