<svg xmlns="http://www.w3.org/2000/svg" viewBox="0 0 200 200"><defs><style>.cls-1{isolation:isolate;}.cls-2,.cls-5{fill:#fccbaa;}.cls-3{fill:#3b2314;}.cls-4,.cls-5{mix-blend-mode:multiply;}.cls-6{fill:#6d6e70;stroke-linecap:round;stroke-miterlimit:10;stroke-width:1.238px;}.cls-18,.cls-19,.cls-6{stroke:#3b2314;}.cls-7{fill:#f8a576;}.cls-8{fill:#faaf40;}.cls-9{fill:#00a69c;}.cls-10{fill:#5661ab;}.cls-11{fill:#d0d2d3;}.cls-12,.cls-17,.cls-22{fill:#fff;}.cls-12,.cls-21{opacity:0.3;}.cls-13{fill:#26a9e0;}.cls-14{fill:#929497;}.cls-15{fill:#cd383a;}.cls-16{fill:#ffc609;}.cls-17{opacity:0.6;}.cls-18,.cls-19{fill:none;stroke-linecap:square;stroke-linejoin:round;}.cls-18{stroke-width:0.515px;}.cls-19{stroke-width:0.453px;}.cls-20{fill:#8bc53f;}.cls-23{fill:#f27f93;}.cls-24{fill:#b2546b;}</style></defs><g class="cls-1"><g id="Layer_8" data-name="Layer 8"><path class="cls-2" d="M65.728,180.351c4.838,0,13.971-3.912,16.973-5.2.415-.178.691-.3.789-.332l-.022-.064c2.166-.708,10.329-5.137,10.417-5.186,7.288-4.061,12-7.589,14-10.488,2.209-3.2,2.6-7.9,1.083-12.935,1.56-3.967,3.607-15.74,3.822-18.845.836-12.018,1.077-25.565-6.7-34.22-5.09-5.663-12.869-8.61-23.776-9.013q-.659-.024-1.3-.023c-18.213,0-29.845,14.677-33.658,42.45-4.77,3.051-7.657,7.138-7.947,11.272-.574,8.279,8.79,26.632,9.19,27.409,2.915,9.442,8.511,14.593,16.568,15.153C65.344,180.344,65.534,180.351,65.728,180.351Z"/><path class="cls-3" d="M81.011,85.045q.621,0,1.258.024c30.646,1.128,30.858,22.99,29.523,42.165-.221,3.216-2.382,15.463-3.885,18.866,1.41,4.442,1.43,9.118-.845,12.417C102.449,165.2,83.2,173.871,83.2,173.871h0c-.193,0-11.966,5.482-17.468,5.482-.172,0-.337-.006-.5-.017-8.427-.585-13.224-6.476-15.75-14.612,0,0-9.643-18.788-9.081-26.885.3-4.269,3.618-8.129,7.877-10.743,2.242-16.8,9.052-42.051,32.733-42.051m0-2c-18.683,0-30.63,14.815-34.586,42.861-4.8,3.2-7.712,7.454-8.015,11.79-.573,8.245,8.219,25.813,9.218,27.781,3.129,9.927,9,15.257,17.467,15.847.2.013.413.02.633.02,4.484,0,11.953-2.963,17.237-5.222l.033.024,1.019-.459c.807-.364,19.816-8.981,24.687-16.042,2.333-3.381,2.8-8.256,1.312-13.461,1.6-4.395,3.549-15.662,3.766-18.815.852-12.222,1.085-26.01-6.956-34.956-5.283-5.874-13.29-8.931-24.484-9.342q-.675-.025-1.331-.026Z"/><g class="cls-4"><path class="cls-2" d="M52.348,127.771a57.309,57.309,0,0,0-6.962,1.426,22.535,22.535,0,0,1,2.892-2.1c.149-1.126.3-2.3.443-3.5A12.182,12.182,0,0,0,52.348,127.771Z"/></g><g class="cls-4"><path class="cls-2" d="M96.325,142.842c2.14-5.787,5.278-11.359,6.419-17.362a113.174,113.174,0,0,0,2.108-31.788c7.992,8.3,7.8,21.267,6.94,33.542-.221,3.216-2.382,15.463-3.885,18.866,1.41,4.442,1.43,9.118-.845,12.417-2.068,3-7.086,6.4-11.992,9.234C97.073,164.639,110.775,148.295,96.325,142.842Z"/></g><path class="cls-5" d="M80.949,144.671s-2.4,8.519-11.093,6.949-10.569-2.48-10.777-10.4S80.949,144.671,80.949,144.671Z"/><path class="cls-6" d="M117.565,113.536s2.729,5.939,2.209,10.769-7.167,11.177-11.38,14.59,4.856-16.459,3.627-24.242,5.032-1.959,5.032-1.959Z"/><path class="cls-7" d="M106.047,139.177s3.681-1.824,4.084-2.393c.911-1.278,1.423-4.492,2.046-5.933,3.065-7.108,12.069-2.457,12.658,3.563.891,9.114-7.924,20.11-13.092,18.871-4.581-1.1-4.092-7.982-4.092-7.982"/><path class="cls-3" d="M106.047,139.177s.938-.348,2.528-1.1c.395-.2.832-.407,1.3-.7a2.117,2.117,0,0,0,.376-.278l.1-.086c.025-.031.01.006.071-.08l.023-.045.105-.185c.139-.247.285-.5.434-.767a20.2,20.2,0,0,0,.758-1.88c.232-.638.42-1.354.681-2.016.122-.3.268-.718.376-.952q.3-.5.606-1.024c.227-.288.461-.507.677-.777a9.742,9.742,0,0,1,.861-.634,4.912,4.912,0,0,1,4.4.046,7.992,7.992,0,0,1,3.669,3.424,6.61,6.61,0,0,1,.77,2.328l.041,1.493c.007.493-.08.9-.108,1.355a19.881,19.881,0,0,1-1.45,5.4,26.278,26.278,0,0,1-2.728,4.8,17.594,17.594,0,0,1-3.52,3.7,6.05,6.05,0,0,1-3.918,1.5c-.054,0-.207-.013-.183.006l-.266-.078-.521-.151a5.414,5.414,0,0,1-.754-.42,4.5,4.5,0,0,1-1.226-1.251,8.54,8.54,0,0,1-1.131-2.8,13.118,13.118,0,0,1-.367-2.7s-.026.249-.073.718a11.645,11.645,0,0,0,.027,2.048,9.163,9.163,0,0,0,.852,3.138,5.43,5.43,0,0,0,1.282,1.666,4.937,4.937,0,0,0,1.024.679l.506.2.258.1a2.65,2.65,0,0,0,.369.067,7.05,7.05,0,0,0,5.042-1.4,17.312,17.312,0,0,0,4.1-3.866,22.454,22.454,0,0,0,4.812-11.148c.034-.54.112-1.124.095-1.626l-.057-1.491a8.381,8.381,0,0,0-1.067-3.265,9.641,9.641,0,0,0-4.745-4.152,6.463,6.463,0,0,0-5.965.327,9.95,9.95,0,0,0-1.119.94,14.222,14.222,0,0,0-.843,1.153c-.176.364-.349.723-.517,1.074-.191.48-.252.809-.377,1.207-.217.757-.349,1.441-.5,2.111-.172.618-.253,1.223-.473,1.788q-.175.424-.34.818l-.082.2-.02.047c.037-.063-.005,0,0-.01l-.056.054a1.4,1.4,0,0,1-.247.227c-.391.313-.8.577-1.163.814Z"/><path class="cls-8" d="M149.777,94.083a1.267,1.267,0,0,0,.967-.446,39.1,39.1,0,0,0,7.641-13.982c3.32-10.787,2.257-22.226-2.917-31.387-5.143-9.1-14.074-15.46-25.831-18.384a30.826,30.826,0,0,0-7.436-.911c-14.746,0-27.822,10.282-32.534,25.586-2.264,7.353-9.531,26.042-9.6,26.23a1.273,1.273,0,0,0,.837,1.686l32.537,9.266a1.3,1.3,0,0,0,.348.048,1.27,1.27,0,0,0,1.265-1.14c2.179-20.906,6.875-43.469,10.662-43.469a31.436,31.436,0,0,1,19.959,15.462,39.024,39.024,0,0,1,2.89,29.795,1.271,1.271,0,0,0,1.216,1.646Z"/><path class="cls-3" d="M122.2,30.246a29.559,29.559,0,0,1,7.13.873c26.971,6.708,33.375,30.175,27.838,48.161a38.072,38.072,0,0,1-7.392,13.531c5.531-17.982-1.934-41.019-23.584-46.84a1.86,1.86,0,0,0-.481-.064c-7.28,0-11.927,44.61-11.927,44.61L81.248,81.25s7.332-18.834,9.635-26.316C95.6,39.619,108.6,30.245,122.2,30.246m0-2.545c-15.308,0-28.871,10.642-33.748,26.484-2.25,7.308-9.5,25.955-9.573,26.143a2.543,2.543,0,0,0,1.673,3.37l32.537,9.266a2.545,2.545,0,0,0,3.229-2.184c2.189-21.021,6.493-40.121,9.489-42.277a30.177,30.177,0,0,1,18.752,14.754,37.732,37.732,0,0,1,2.787,28.806,2.545,2.545,0,0,0,4.367,2.4A40.387,40.387,0,0,0,159.6,80.029c3.424-11.119,2.319-22.923-3.024-32.387-5.321-9.415-14.528-15.983-26.631-18.992A32.124,32.124,0,0,0,122.2,27.7Z"/><path class="cls-9" d="M149.777,94.083a1.267,1.267,0,0,0,.967-.446,39.1,39.1,0,0,0,7.641-13.982c3.32-10.787,2.257-22.226-2.917-31.387-5.143-9.1-14.074-15.46-25.831-18.384a30.826,30.826,0,0,0-7.436-.911c-14.746,0-27.822,10.282-32.534,25.586-2.264,7.353-9.531,26.042-9.6,26.23a1.273,1.273,0,0,0,.837,1.686l20.047,5.708a1.284,1.284,0,0,0,.349.049,1.27,1.27,0,0,0,1.2-.844c13.158-36.715,20.148-40.678,22.542-40.678a2.567,2.567,0,0,1,1.453.522,3.5,3.5,0,0,0,.527.3c17.321,7.081,26.986,27.228,21.546,44.91a1.271,1.271,0,0,0,1.216,1.646Z"/><path class="cls-3" d="M122.2,30.246a29.559,29.559,0,0,1,7.13.873c26.971,6.708,33.375,30.175,27.838,48.161a38.072,38.072,0,0,1-7.392,13.531C155.2,75.2,145.886,53.868,127.5,46.35a4.628,4.628,0,0,0-2.462-.913c-3.5,0-10.772,5.34-23.739,41.522L81.248,81.25s7.332-18.834,9.635-26.316C95.6,39.619,108.6,30.245,122.2,30.246m0-2.545c-15.308,0-28.871,10.642-33.748,26.484-2.25,7.308-9.5,25.955-9.573,26.143a2.543,2.543,0,0,0,1.673,3.37L100.6,89.407a2.542,2.542,0,0,0,3.093-1.589c13.874-38.718,20.62-39.836,21.343-39.836a1.393,1.393,0,0,1,.762.319,4.385,4.385,0,0,0,.737.4c16.727,6.839,26.062,26.289,20.811,43.358a2.545,2.545,0,0,0,4.367,2.4A40.387,40.387,0,0,0,159.6,80.029c3.424-11.119,2.319-22.923-3.024-32.387-5.321-9.415-14.528-15.983-26.631-18.992A32.124,32.124,0,0,0,122.2,27.7Z"/><path class="cls-8" d="M149.777,94.083a1.267,1.267,0,0,0,.967-.446,39.1,39.1,0,0,0,7.641-13.982c3.32-10.787,2.257-22.226-2.917-31.387-5.143-9.1-14.074-15.46-25.831-18.384a30.826,30.826,0,0,0-7.436-.911c-14.746,0-27.822,10.282-32.534,25.586-2.264,7.353-9.531,26.042-9.6,26.23a1.273,1.273,0,0,0,.837,1.686l32.537,9.266a1.3,1.3,0,0,0,.348.048,1.27,1.27,0,0,0,1.265-1.14c2.179-20.906,6.875-43.469,10.662-43.469a31.436,31.436,0,0,1,19.959,15.462,39.024,39.024,0,0,1,2.89,29.795,1.271,1.271,0,0,0,1.216,1.646Z"/><path class="cls-3" d="M122.2,30.246a29.559,29.559,0,0,1,7.13.873c26.971,6.708,33.375,30.175,27.838,48.161a38.072,38.072,0,0,1-7.392,13.531c5.531-17.982-1.934-41.019-23.584-46.84a1.86,1.86,0,0,0-.481-.064c-7.28,0-11.927,44.61-11.927,44.61L81.248,81.25s7.332-18.834,9.635-26.316C95.6,39.619,108.6,30.245,122.2,30.246m0-2.545c-15.308,0-28.871,10.642-33.748,26.484-2.25,7.308-9.5,25.955-9.573,26.143a2.543,2.543,0,0,0,1.673,3.37l32.537,9.266a2.545,2.545,0,0,0,3.229-2.184c2.189-21.021,6.493-40.121,9.489-42.277a30.177,30.177,0,0,1,18.752,14.754,37.732,37.732,0,0,1,2.787,28.806,2.545,2.545,0,0,0,4.367,2.4A40.387,40.387,0,0,0,159.6,80.029c3.424-11.119,2.319-22.923-3.024-32.387-5.321-9.415-14.528-15.983-26.631-18.992A32.124,32.124,0,0,0,122.2,27.7Z"/><path class="cls-10" d="M149.777,94.083a1.267,1.267,0,0,0,.967-.446,39.1,39.1,0,0,0,7.641-13.982c3.32-10.787,2.257-22.226-2.917-31.387-5.143-9.1-14.074-15.46-25.831-18.384a30.826,30.826,0,0,0-7.436-.911c-14.746,0-27.822,10.282-32.534,25.586-2.264,7.353-9.531,26.042-9.6,26.23a1.273,1.273,0,0,0,.837,1.686l20.047,5.708a1.284,1.284,0,0,0,.349.049,1.27,1.27,0,0,0,1.2-.844c13.158-36.715,20.148-40.678,22.542-40.678a2.567,2.567,0,0,1,1.453.522,3.5,3.5,0,0,0,.527.3c17.321,7.081,26.986,27.228,21.546,44.91a1.271,1.271,0,0,0,1.216,1.646Z"/><path class="cls-3" d="M122.2,30.246a29.559,29.559,0,0,1,7.13.873c26.971,6.708,33.375,30.175,27.838,48.161a38.072,38.072,0,0,1-7.392,13.531C155.2,75.2,145.886,53.868,127.5,46.35a4.628,4.628,0,0,0-2.462-.913c-3.5,0-10.772,5.34-23.739,41.522L81.248,81.25s7.332-18.834,9.635-26.316C95.6,39.619,108.6,30.245,122.2,30.246m0-2.545c-15.308,0-28.871,10.642-33.748,26.484-2.25,7.308-9.5,25.955-9.573,26.143a2.543,2.543,0,0,0,1.673,3.37L100.6,89.407a2.542,2.542,0,0,0,3.093-1.589c13.874-38.718,20.62-39.836,21.343-39.836a1.393,1.393,0,0,1,.762.319,4.385,4.385,0,0,0,.737.4c16.727,6.839,26.062,26.289,20.811,43.358a2.545,2.545,0,0,0,4.367,2.4A40.387,40.387,0,0,0,159.6,80.029c3.424-11.119,2.319-22.923-3.024-32.387-5.321-9.415-14.528-15.983-26.631-18.992A32.124,32.124,0,0,0,122.2,27.7Z"/><g class="cls-4"><path class="cls-11" d="M97.994,54.37c-2.58-1.992-2.844-5.05-3.093-8.289a37.873,37.873,0,0,0-4.018,8.853c-2.3,7.482-9.635,26.316-9.635,26.316l32.537,9.267s2.471-23.7,6.628-36.548c-.078,0-.156,0-.234,0C112.935,54.025,104.192,58.941,97.994,54.37Z"/></g><path class="cls-12" d="M116.022,38.49c-6.988,2.719-15.786,15.617-17.594,7.765-.545-2.371,6.477-10.527,16.78-13.851A28.747,28.747,0,0,1,137.9,34.74S125.316,34.873,116.022,38.49Z"/><path class="cls-13" d="M95.744,106.183a1.271,1.271,0,0,0,1.268-1.169c.021-.24,1.946-24.178.745-41.69C96.433,44.066,82.94,26.746,64.944,21.205a30.142,30.142,0,0,0-8.881-1.281c-12.7,0-26.742,7.04-34.154,17.12a1.272,1.272,0,0,0,1.738,1.807,29.674,29.674,0,0,1,16.624-5.282A26.942,26.942,0,0,1,48.2,34.761c15.83,4.874,24.24,23.365,18.746,41.22a37.229,37.229,0,0,1-8.966,15.135,1.273,1.273,0,0,0,1.2,2.131,7.026,7.026,0,0,1,1.611-.162c9.828,0,34.112,12.821,34.356,12.95A1.268,1.268,0,0,0,95.744,106.183Z"/><path class="cls-3" d="M56.063,21.2a28.948,28.948,0,0,1,8.507,1.224c18.285,5.63,30.7,23.229,31.917,40.99,1.209,17.619-.743,41.5-.743,41.5s-24.689-13.1-34.952-13.1a8.311,8.311,0,0,0-1.908.2A38.315,38.315,0,0,0,68.16,76.355C73.869,57.8,65.1,38.635,48.573,33.546a28.113,28.113,0,0,0-8.3-1.25,31.017,31.017,0,0,0-17.337,5.5c6.893-9.373,20.508-16.6,33.129-16.6m0-2.545c-13.075,0-27.541,7.253-35.179,17.637a2.545,2.545,0,0,0,3.476,3.616,28.419,28.419,0,0,1,15.912-5.064,25.6,25.6,0,0,1,7.553,1.137c15.161,4.667,23.191,22.444,17.9,39.628a35.94,35.94,0,0,1-8.656,14.617,2.545,2.545,0,0,0,2.4,4.261,5.779,5.779,0,0,1,1.315-.126c7.893,0,27.046,9.241,33.758,12.8a2.553,2.553,0,0,0,1.194.3,2.547,2.547,0,0,0,2.536-2.338c.08-.983,1.955-24.275.747-41.882C97.668,43.465,83.805,25.681,65.319,19.989a31.454,31.454,0,0,0-9.256-1.337Z"/><path class="cls-8" d="M81.181,99.226a1.272,1.272,0,0,0,1.27-1.2,274.2,274.2,0,0,0,.426-27.464c-.9-19.141-13.314-36.141-30.195-41.339A26.418,26.418,0,0,0,44.891,28.1c-6.745,0-14.148,2.279-20.848,6.417a1.25,1.25,0,0,0-.286.241c-.654.744-1.275,1.512-1.848,2.285a1.273,1.273,0,0,0,1.738,1.81,29.674,29.674,0,0,1,16.624-5.282A26.942,26.942,0,0,1,48.2,34.761c15.83,4.874,24.24,23.365,18.746,41.22a37.229,37.229,0,0,1-8.966,15.135,1.273,1.273,0,0,0,1.2,2.131,7.026,7.026,0,0,1,1.611-.162c3.883,0,10.759,2.087,19.884,6.036A1.27,1.27,0,0,0,81.181,99.226Z"/><path class="cls-3" d="M44.891,29.37a25.142,25.142,0,0,1,7.417,1.069c17.1,5.267,28.471,22.541,29.3,40.182.411,8.8.04,19.179-.425,27.332-7.24-3.132-15.471-6.14-20.389-6.14a8.311,8.311,0,0,0-1.908.2A38.315,38.315,0,0,0,68.16,76.355C73.869,57.8,65.1,38.635,48.573,33.546a28.113,28.113,0,0,0-8.3-1.25,31.017,31.017,0,0,0-17.337,5.5q.828-1.12,1.778-2.2c6.188-3.823,13.38-6.228,20.179-6.228m0-2.545c-6.978,0-14.618,2.347-21.516,6.608a2.543,2.543,0,0,0-.572.483c-.678.77-1.323,1.567-1.915,2.369a2.545,2.545,0,0,0,3.472,3.62,28.419,28.419,0,0,1,15.912-5.064,25.6,25.6,0,0,1,7.553,1.137c15.161,4.667,23.191,22.444,17.9,39.628a35.94,35.94,0,0,1-8.656,14.617,2.545,2.545,0,0,0,2.4,4.261,5.779,5.779,0,0,1,1.315-.126c2.588,0,8.048,1.028,19.378,5.931A2.545,2.545,0,0,0,83.721,98.1a275.272,275.272,0,0,0,.426-27.6c-.921-19.667-13.705-37.142-31.091-42.5a27.73,27.73,0,0,0-8.166-1.181Z"/><g class="cls-4"><path class="cls-14" d="M76.5,50.036c-1.5-5.3-7.421-6.638-13.075-5.75,6.187,8.5,8.322,20.4,4.731,32.069a38.315,38.315,0,0,1-9.276,15.654c.136-.033.278-.06.424-.085.047-.008.1-.012.149-.02.1-.015.2-.03.3-.041l.19-.014c.1-.007.191-.017.291-.023.071,0,.146,0,.22-.006.095,0,.188-.006.285-.006l.239,0,.292.006c.085,0,.17.009.253.013.1.006.2.01.3.018s.178.016.267.023.207.019.31.03.187.021.28.032.213.025.321.04l.292.041.328.051c.1.015.2.034.3.051l.34.06.308.058c.115.024.231.045.349.07l.318.069.354.077c.109.026.217.052.325.076l.366.087.332.084c.124.03.249.062.374.094l.335.09.383.1.337.095.395.114.34.1c.134.039.269.08.405.121l.338.1.417.131.338.108c.143.045.28.092.424.138l.338.113c.146.047.288.1.434.145l.335.114.449.156.325.114c.152.055.31.109.462.165l.318.114c.158.059.321.117.481.177.1.037.2.073.3.11q.251.092.5.188l.29.108c.171.066.343.131.514.2.09.033.18.068.27.1.183.07.362.14.542.212.081.032.165.064.243.1l.573.227c.071.03.142.058.213.086.2.083.41.165.615.249l.164.067c.222.091.447.183.667.275.037.015.075.03.108.045.246.1.486.2.729.3.015.006.03.014.049.021.519.22,1.041.441,1.556.663,7.866,3.405,14.563,6.958,14.563,6.958S97.251,86.434,96.8,70C87.744,66.028,79.511,60.991,76.5,50.036Z"/></g><path class="cls-12" d="M77.43,37.587C85.546,46.146,88.4,63.064,94.076,59.263c1.717-1.148-2.915-16.1-12.919-25.166C66.087,20.442,53.645,22.963,53.645,22.963S69.318,29.031,77.43,37.587Z"/><path class="cls-15" d="M116.95,112.284a1.269,1.269,0,0,0,1.263-1.123,37.211,37.211,0,0,1,6.221-16.454c6.738-9.9,17.339-15.815,28.358-15.815A27.485,27.485,0,0,1,168.333,83.6a28.709,28.709,0,0,1,12.14,21.727,1.273,1.273,0,0,0,1.153,1.165,1.145,1.145,0,0,0,.117,0,1.274,1.274,0,0,0,1.228-.942c3.684-13.733-1.267-34.489-14.513-43.5a45.675,45.675,0,0,0-25.837-7.738,48.717,48.717,0,0,0-27.549,8.422c-14.426,10-31.92,26.455-32.1,26.62a1.272,1.272,0,0,0,.369,2.093c8.032,3.476,29.521,13.866,32.454,20.1A1.269,1.269,0,0,0,116.95,112.284Z"/><path class="cls-3" d="M142.621,55.588a44.538,44.538,0,0,1,25.121,7.518c12.516,8.515,17.713,28.282,14,42.119-.731-9.117-5.066-17.487-12.692-22.677a28.676,28.676,0,0,0-16.257-4.929c-10.953,0-22.237,5.828-29.409,16.372a38.287,38.287,0,0,0-6.433,17.021c-3.781-8.04-33.1-20.729-33.1-20.729s17.434-16.439,31.948-26.5a47.454,47.454,0,0,1,26.824-8.195m0-2.545a50,50,0,0,0-28.273,8.648C99.843,71.746,82.82,87.755,82.1,88.431a2.546,2.546,0,0,0,.734,4.188c11,4.759,29.354,14.256,31.809,19.475a2.545,2.545,0,0,0,2.3,1.462,2.585,2.585,0,0,0,.41-.033,2.546,2.546,0,0,0,2.12-2.212,35.91,35.91,0,0,1,6.008-15.888c6.5-9.555,16.708-15.259,27.306-15.259a26.214,26.214,0,0,1,14.824,4.487,27.449,27.449,0,0,1,11.589,20.777,2.546,2.546,0,0,0,2.306,2.332c.078.006.156.01.232.01a2.547,2.547,0,0,0,2.457-1.886c3.783-14.095-.887-35.263-15.026-44.882a46.936,46.936,0,0,0-26.553-7.959Z"/><path class="cls-8" d="M116.95,112.284a1.269,1.269,0,0,0,1.263-1.123,37.211,37.211,0,0,1,6.221-16.454c6.738-9.9,17.339-15.815,28.358-15.815A27.485,27.485,0,0,1,168.333,83.6a28.709,28.709,0,0,1,12.14,21.727,1.273,1.273,0,0,0,1.153,1.165,1.145,1.145,0,0,0,.117,0,1.273,1.273,0,0,0,1.228-.943c.242-.9.453-1.869.629-2.868a1.274,1.274,0,0,0,.011-.375c-1.357-11.137-6.5-20.735-13.754-25.673a40.832,40.832,0,0,0-23.106-6.856,48.083,48.083,0,0,0-28.037,9.1c-7.4,5.368-15.6,12.472-21.182,17.487a1.272,1.272,0,0,0,.254,2.071c10.175,5.4,16.572,10.056,18.013,13.116A1.269,1.269,0,0,0,116.95,112.284Z"/><path class="cls-3" d="M146.753,71.055A39.568,39.568,0,0,1,169.14,77.69c7.508,5.109,12,14.845,13.208,24.775-.166.942-.366,1.862-.607,2.76-.731-9.117-5.066-17.487-12.692-22.677a28.676,28.676,0,0,0-16.257-4.929c-10.953,0-22.237,5.828-29.409,16.372a38.287,38.287,0,0,0-6.433,17.021c-1.94-4.123-10.594-9.47-18.568-13.7,6.074-5.458,13.951-12.231,21.079-17.4a46.976,46.976,0,0,1,27.292-8.854m0-2.545a49.36,49.36,0,0,0-28.785,9.339c-7.444,5.4-15.683,12.536-21.288,17.57a2.546,2.546,0,0,0,.508,4.141c13.905,7.376,16.841,11.224,17.459,12.535a2.544,2.544,0,0,0,2.3,1.461,2.585,2.585,0,0,0,.41-.033,2.546,2.546,0,0,0,2.12-2.212,35.91,35.91,0,0,1,6.008-15.888c6.5-9.555,16.708-15.259,27.306-15.259a26.214,26.214,0,0,1,14.824,4.487,27.449,27.449,0,0,1,11.589,20.777,2.545,2.545,0,0,0,2.306,2.332c.078.006.156.01.232.01a2.548,2.548,0,0,0,2.457-1.886c.251-.94.471-1.942.653-2.978a2.5,2.5,0,0,0,.021-.748c-1.4-11.5-6.746-21.431-14.3-26.571a42.085,42.085,0,0,0-23.82-7.077Z"/><g class="cls-4"><path class="cls-11" d="M129.167,81.239c-6.187-.571-16.387,2.975-18.243-2.367-1.026-2.417.313-7.412-.261-11.368C97.476,77.435,83.849,90.283,83.849,90.283s6.959,3.011,14.533,7.029h0q1.114.592,2.244,1.213l.037.018c.232.13.467.259.7.389.03.016.059.034.088.051.217.12.43.241.647.362.044.025.089.049.132.075.2.114.4.227.6.343l.164.094c.186.108.377.216.564.325.067.04.134.079.2.118.173.1.349.2.521.306l.224.133c.166.1.332.2.494.3.083.047.163.1.244.146l.471.284c.083.052.171.1.254.158l.449.275c.086.056.177.111.265.166q.215.134.427.27l.276.174.408.263.274.179c.136.086.265.174.4.261l.276.182c.127.086.252.172.381.256.091.063.183.127.274.188.125.083.244.167.366.252l.274.192c.117.083.234.165.349.248.091.063.179.129.271.193.115.082.227.165.338.247.088.064.177.13.263.2.107.079.215.16.32.242.091.064.176.132.261.2.105.08.206.159.308.24.083.065.169.132.25.2.1.08.2.159.295.24l.244.2c.093.08.186.158.279.236.076.066.154.132.232.2s.18.158.264.236.149.129.22.194c.087.078.17.156.254.236.07.063.139.127.2.19.083.078.159.156.239.234.064.064.132.127.193.191s.151.153.224.231c.059.062.121.125.176.188.074.076.142.154.21.23.054.061.111.122.164.184.066.077.13.155.191.232.051.059.1.118.149.177.063.078.119.157.18.237.04.055.084.111.125.166.058.082.112.163.166.243.037.052.074.105.107.156.055.088.106.176.157.263.025.043.054.087.078.128.071.131.139.259.2.386a39.018,39.018,0,0,1,17.113-27.593A10.453,10.453,0,0,0,129.167,81.239Z"/></g><path class="cls-12" d="M146.289,62.133c-11.782-.392-26.335,8.7-27.258,1.928-.279-2.045,13.983-8.5,27.4-7.032,20.213,2.215,26.585,13.2,26.585,13.2S158.077,62.524,146.289,62.133Z"/><path class="cls-16" d="M19.513,55.233a10.245,10.245,0,1,0-3.015-.456,10.183,10.183,0,0,0,3.015.456Z"/><path class="cls-3" d="M19.508,36.025a8.967,8.967,0,1,1-8.566,6.33,8.974,8.974,0,0,1,8.566-6.33m0-2.545a11.517,11.517,0,1,0,3.388.512,11.449,11.449,0,0,0-3.388-.512Z"/><g class="cls-4"><path class="cls-16" d="M23.035,36.75a8.965,8.965,0,0,1-8.984,14.9q-.452-.141-.884-.325A8.965,8.965,0,1,0,23.035,36.75Z"/></g><path class="cls-17" d="M12.668,42.888c1.315-3.519,6.078-6.149,9.04-5.044a4.917,4.917,0,0,1,2.044,1.471,4.421,4.421,0,0,0-3.006-2.621c-2.939-1.1-7.367,1.008-8.615,4.346-.66,1.774-1.06,3.735-.4,5.241A8.781,8.781,0,0,1,12.668,42.888Z"/><path class="cls-3" d="M16.643,48.352a2.7,2.7,0,0,1-2.118,2.657c-1.222.194-2.431-1.065-2.377-2.8s1.329-2.883,2.538-2.619A2.674,2.674,0,0,1,16.643,48.352Z"/><path class="cls-18" d="M20.328,35.661a17.543,17.543,0,0,0-5.391,17.507"/><path class="cls-3" d="M19.991,49.382a2.7,2.7,0,0,0,.256,3.389c.9.848,2.609.488,3.537-.974s.525-3.132-.623-3.594A2.677,2.677,0,0,0,19.991,49.382Z"/><path class="cls-18" d="M24.082,36.818a17.534,17.534,0,0,1-5.388,17.506"/><path class="cls-16" d="M184.515,115.408a10.252,10.252,0,1,0-.022,0Z"/><path class="cls-3" d="M184.491,96.205a8.966,8.966,0,0,1,.02,17.931h-.018a8.966,8.966,0,0,1-.022-17.931h.02m0-2.545h-.027a11.523,11.523,0,1,0,.027,0Z"/><g class="cls-4"><path class="cls-16" d="M185.412,96.253a8.964,8.964,0,0,1-5.1,16.847,8.965,8.965,0,1,0,5.1-16.847Z"/></g><path class="cls-17" d="M177.332,105.188c.212-3.75,3.981-7.675,7.139-7.5a4.895,4.895,0,0,1,2.387.8,4.423,4.423,0,0,0-3.647-1.615c-3.136-.177-6.737,3.149-6.942,6.706-.105,1.89.095,3.881,1.172,5.124A8.751,8.751,0,0,1,177.332,105.188Z"/><path class="cls-3" d="M182.747,109.227a2.705,2.705,0,0,1-1.233,3.167c-1.11.548-2.638-.3-3.1-1.964s.416-3.149,1.649-3.255A2.672,2.672,0,0,1,182.747,109.227Z"/><path class="cls-18" d="M182.5,96.016a17.541,17.541,0,0,0,.041,18.317"/><path class="cls-3" d="M186.249,109.218a2.7,2.7,0,0,0,1.251,3.162c1.113.542,2.636-.309,3.09-1.978s-.43-3.147-1.663-3.248A2.676,2.676,0,0,0,186.249,109.218Z"/><path class="cls-18" d="M186.435,96.008a17.546,17.546,0,0,1,.041,18.316"/><path class="cls-16" d="M146.124,107.27a9.011,9.011,0,1,0-6.017-2.307,9.021,9.021,0,0,0,6.017,2.307Z"/><path class="cls-3" d="M146.129,90.368a7.891,7.891,0,1,1-5.872,2.619,7.86,7.86,0,0,1,5.872-2.619m0-2.24a10.13,10.13,0,1,0,6.767,2.593,10.139,10.139,0,0,0-6.767-2.593Z"/><g class="cls-4"><path class="cls-16" d="M151.988,92.974a7.89,7.89,0,0,1-13.268,8,7.891,7.891,0,1,0,13.268-8Z"/></g><path class="cls-17" d="M141.438,94.051c2.348-2.328,7.128-2.669,9.085-.693a4.345,4.345,0,0,1,1.089,1.932,3.894,3.894,0,0,0-1.431-3.205c-1.947-1.964-6.26-1.916-8.491.291-1.184,1.172-2.227,2.591-2.256,4.038A7.767,7.767,0,0,1,141.438,94.051Z"/><path class="cls-3" d="M142.6,99.884a2.377,2.377,0,0,1-2.672,1.341c-1.05-.3-1.549-1.748-.869-3.111s2.129-1.813,3-1.155A2.353,2.353,0,0,1,142.6,99.884Z"/><path class="cls-19" d="M150.227,91.1a15.435,15.435,0,0,0-10.772,12"/><path class="cls-3" d="M144.89,101.943a2.379,2.379,0,0,0-1.046,2.8c.409,1.011,1.9,1.353,3.186.529s1.575-2.31.826-3.1A2.353,2.353,0,0,0,144.89,101.943Z"/><path class="cls-19" d="M152.8,93.416a15.426,15.426,0,0,1-10.771,12"/><path class="cls-8" d="M106.244,109.03a1.274,1.274,0,0,0,1.256-1.479c-.743-4.509-3.21-19.721-3.818-26.2C101.958,62.919,87.81,49.02,70.771,49.02q-.592,0-1.189.023c-12.106.465-22.147,4.867-29.039,12.731-6.932,7.913-10.306,18.895-9.253,30.131a39.076,39.076,0,0,0,4.629,15.248,1.273,1.273,0,0,0,1.116.661,1.257,1.257,0,0,0,.372-.056,1.271,1.271,0,0,0,.894-1.335,39.022,39.022,0,0,1,8.905-28.579,31.441,31.441,0,0,1,22.54-11.079h.022a.75.75,0,0,1,.584.309c1.088,1.148,3.475,6.431,2.159,30.619a1.271,1.271,0,0,0,.9,1.285l32.463,10A1.252,1.252,0,0,0,106.244,109.03Z"/><path class="cls-3" d="M70.771,50.292c15.947,0,29.933,12.875,31.644,31.176.612,6.528,3.053,21.578,3.829,26.289l-32.463-10c.738-13.589.876-32.27-4-32.27l-.112,0c-22.381,1.285-34.387,22.314-32.638,41.047a38.049,38.049,0,0,1-4.479-14.754C30.8,73.05,41.854,51.381,69.631,50.315c.381-.015.76-.023,1.14-.023m0-2.544c-.412,0-.823.007-1.236.023C57.069,48.25,46.713,52.8,39.587,60.935c-7.163,8.174-10.649,19.506-9.565,31.089A40.408,40.408,0,0,0,34.8,107.765a2.545,2.545,0,0,0,4.765-1.461,37.73,37.73,0,0,1,8.6-27.631,30.167,30.167,0,0,1,21.348-10.62c.586.766,3.034,5.472,1.722,29.57a2.543,2.543,0,0,0,1.793,2.57l32.462,10a2.544,2.544,0,0,0,3.26-2.845c-.74-4.5-3.2-19.674-3.8-26.113-1.786-19.089-16.478-33.483-34.179-33.483Z"/><path class="cls-20" d="M106.244,109.03a1.274,1.274,0,0,0,1.256-1.479c-.743-4.509-3.21-19.721-3.818-26.2C101.958,62.919,87.81,49.02,70.771,49.02q-.592,0-1.189.023c-12.106.465-22.147,4.867-29.039,12.731-6.932,7.913-10.306,18.895-9.253,30.131a39.076,39.076,0,0,0,4.629,15.248,1.273,1.273,0,0,0,1.116.661,1.257,1.257,0,0,0,.372-.056,1.271,1.271,0,0,0,.894-1.335C36.581,88,50.152,70.25,68.554,66.85a3.575,3.575,0,0,0,.576-.182,3.042,3.042,0,0,1,1.109-.259c1.624,0,7.337,2.508,12.714,34.773a1.268,1.268,0,0,0,.881,1.006l22.036,6.785A1.252,1.252,0,0,0,106.244,109.03Z"/><path class="cls-3" d="M70.771,50.292c15.947,0,29.933,12.875,31.644,31.176.612,6.528,3.053,21.578,3.829,26.289l-22.036-6.785c-5.3-31.8-10.989-35.835-13.969-35.835a6.039,6.039,0,0,0-1.917.461c-19.538,3.611-33,22.591-31.287,40.943a38.049,38.049,0,0,1-4.479-14.754C30.8,73.05,41.854,51.381,69.631,50.315c.381-.015.76-.023,1.14-.023m0-2.544c-.412,0-.823.007-1.236.023C57.069,48.25,46.713,52.8,39.587,60.935c-7.163,8.174-10.649,19.506-9.565,31.089A40.408,40.408,0,0,0,34.8,107.765a2.545,2.545,0,0,0,4.765-1.461C37.909,88.523,51.014,71.385,68.785,68.1a4.3,4.3,0,0,0,.8-.245,1.9,1.9,0,0,1,.652-.174c.239,0,5.906.383,11.46,33.709a2.544,2.544,0,0,0,1.761,2.014l22.035,6.784a2.544,2.544,0,0,0,3.26-2.845c-.74-4.5-3.2-19.674-3.8-26.113-1.786-19.089-16.478-33.483-34.179-33.483Z"/><g class="cls-4"><path class="cls-11" d="M102.415,81.468A35.989,35.989,0,0,0,94.2,61.447c-1.165,6.179-4.667,11.348-10.827,12-3.037.292-7-2.549-10.193-2.487,1.322,6.561,1.1,17.8.606,26.8l10.427,3.211,22.036,6.785C105.468,103.046,103.027,88,102.415,81.468Z"/></g><path class="cls-12" d="M47.679,68.413C53.568,63,59.433,58.442,64.008,56.192,66.8,54.82,72.549,52,72.549,52a56.875,56.875,0,0,0-8.377.2A41.04,41.04,0,0,0,42.619,63.718c-8.888,9.418-9.242,24.9-9.242,24.9S35.7,79.444,47.679,68.413Z"/><path class="cls-11" d="M118.323,117.74c.63,0,2.3,0,2.7-1.281l.511-1.725c.674-2.28,2.079-7.023,4.148-8.4a21.563,21.563,0,0,1,2.166-1.209,11.473,11.473,0,0,0,4.993-3.947,4.533,4.533,0,0,0,.64-3.93,6.128,6.128,0,0,0-3.776-3.592,4.651,4.651,0,0,0-1.76-.342c-3.59,0-7.08,3.881-10.16,7.307a24.566,24.566,0,0,1-3.63,3.595,4.839,4.839,0,0,1,.643-2.97l.207-.482a35.3,35.3,0,0,0,1.939-6.19c.663-3.07-.314-5.22-3.165-6.97a9.473,9.473,0,0,0-4.733-1.473,5.436,5.436,0,0,0-3.036.864c-2.3,1.5-2.27,3.754-2.25,5.563.005.444.012.895-.017,1.346a10.15,10.15,0,0,1-2.47,5.989,1.959,1.959,0,0,1-1.463.707,2.6,2.6,0,0,1-2-1.109,2.524,2.524,0,0,1-.432-2.248,34.8,34.8,0,0,1,1.384-3.5c1.483-3.411,3.163-7.276,1.989-10.657a5.849,5.849,0,0,0-5.619-4.208,7.649,7.649,0,0,0-4.867,1.905c-1.244,1.051-2.548,3.756-3.808,6.37a28.936,28.936,0,0,1-2.01,3.784l-.465.614c-.569.76-1.429,1.911-1.948,1.911-.242,0-.631-.282-1.039-.751-1.4-1.6-.879-3.613.067-6.5.2-.594.387-1.175.537-1.732.4-1.449,1.157-5.1-.323-7.683a4.829,4.829,0,0,0-3-2.3,7.372,7.372,0,0,0-1.944-.283c-2.963,0-4.441,2.235-5.872,4.4-1.112,1.683-2.072,3.48-3,5.218-.491.92-.982,1.839-1.493,2.738a4.044,4.044,0,0,1-1,1.357c-.015-.025-.081-.074-.174-.17-.5-.578-.188-3.881,0-5.853.45-4.736.958-10.1-2.916-10.545a3.564,3.564,0,0,0-.381-.022,2.9,2.9,0,0,0-2.235,1.031C57.323,74.6,57.989,79.9,58.072,80.5c.074.54.16,1.049.243,1.541.325,1.9.559,3.273-.138,5.024-.453,1.141-.8,2.325-1.133,3.47l-.369,1.247a5.979,5.979,0,0,1-.43,1.168,4.7,4.7,0,0,0-1.057,2.194l-.293.951c-.4,1.288.051,2.572,9.424,6.408,5.89,2.41,13.843,5.188,22.393,7.821C101.122,114.759,113.824,117.74,118.323,117.74Z"/><path class="cls-3" d="M61.5,72.572a2.253,2.253,0,0,1,.242.014c4.592.523.014,13.8,2.175,16.032a1.509,1.509,0,0,0,1.068.557c.84,0,1.517-1.053,2.055-1.991,1.484-2.605,2.794-5.376,4.454-7.886,1.513-2.287,2.665-3.847,4.846-3.847a6.178,6.178,0,0,1,1.623.241c3.575.97,3.236,5.629,2.461,8.472-.806,2.952-2.74,6.606-.347,9.356a2.723,2.723,0,0,0,1.965,1.173c1.328,0,2.357-1.681,3.382-3,1.376-1.768,3.86-8.466,5.642-9.969a6.409,6.409,0,0,1,4.074-1.616,4.629,4.629,0,0,1,4.46,3.383c1.422,4.1-2.21,9.511-3.389,13.4a3.927,3.927,0,0,0,3.6,4.94,3.16,3.16,0,0,0,2.369-1.1,11.362,11.362,0,0,0,2.792-6.743c.139-2.246-.491-4.512,1.714-5.957a4.242,4.242,0,0,1,2.363-.663,8.156,8.156,0,0,1,4.091,1.291c2.355,1.446,3.177,3.025,2.606,5.667a34.165,34.165,0,0,1-1.871,5.973c-.569,1.359-1.446,3.014-.83,4.516.212.516.512.741.884.741,2.608,0,8.822-11.006,14.02-11.006a3.413,3.413,0,0,1,1.3.252c2.632,1.069,4.149,3.24,2.564,5.723-1.673,2.613-4.443,3.228-6.8,4.8-2.712,1.8-4.2,7.658-4.873,9.826,0,0-.179.623-.281.959-.086.28-.615.413-1.524.413-4.24,0-16.749-2.9-31.25-7.362-17.609-5.423-31.492-11.1-31.006-12.689.1-.336.294-.956.294-.956.83-2.689.657-.675,1.487-3.365.471-1.537.877-3.129,1.47-4.622,1.026-2.578.338-4.509-.031-7.186-.25-1.817-.6-7.76,2.208-7.76m0-2.455a4.144,4.144,0,0,0-3.161,1.451c-2.189,2.513-1.685,7.6-1.478,9.1.074.553.164,1.075.25,1.578.312,1.83.5,2.934-.071,4.367-.474,1.194-.826,2.406-1.168,3.578-.122.412-.242.825-.366,1.227-.142.463-.234.707-.281.828a6.222,6.222,0,0,0-1.2,2.542l-.3.954c-.8,2.615,1.375,4.314,10.134,7.9,5.923,2.424,13.913,5.215,22.5,7.859,14.514,4.468,27.362,7.47,31.971,7.47,2.13,0,3.432-.722,3.874-2.158.1-.335.278-.947.278-.947.07-.225.147-.487.234-.78.535-1.8,1.954-6.594,3.65-7.723a20.734,20.734,0,0,1,2.046-1.139,12.6,12.6,0,0,0,5.469-4.381,5.719,5.719,0,0,0,.775-4.962,7.324,7.324,0,0,0-4.485-4.357,5.879,5.879,0,0,0-2.22-.432c-4.138,0-7.823,4.1-11.074,7.714-.094.1-.193.214-.291.325a36.708,36.708,0,0,0,1.561-5.29c.781-3.611-.4-6.24-3.718-8.276a10.7,10.7,0,0,0-5.378-1.656,6.639,6.639,0,0,0-3.708,1.065c-2.858,1.873-2.827,4.719-2.8,6.6,0,.415.011.836-.016,1.258a8.848,8.848,0,0,1-2.15,5.234c-.285.309-.483.309-.559.309a1.421,1.421,0,0,1-1.006-.612,1.312,1.312,0,0,1-.243-1.16,33.745,33.745,0,0,1,1.334-3.366c1.571-3.617,3.354-7.715,2.022-11.549a7.112,7.112,0,0,0-6.778-5.032,8.867,8.867,0,0,0-5.658,2.194c-1.344,1.136-2.505,3.42-4.124,6.776a30.509,30.509,0,0,1-1.873,3.563c-.159.2-.318.417-.477.631-.266.355-.661.882-.969,1.211-.034-.036-.071-.076-.11-.121-.97-1.116-.532-2.749.308-5.306.2-.616.4-1.217.556-1.793.435-1.6,1.264-5.633-.442-8.616A6.049,6.049,0,0,0,78.6,73.322,8.6,8.6,0,0,0,76.335,73c-3.622,0-5.436,2.744-6.895,4.948C68.3,79.675,67.323,81.5,66.38,83.26c-.188.351-.374.7-.564,1.05.056-.786.134-1.6.2-2.283.452-4.77,1.071-11.3-4-11.88a4.729,4.729,0,0,0-.522-.03Z"/><g class="cls-4"><path class="cls-11" d="M124.741,103.213c-4.931,3.622-5.134,5.271-8.042,10.282-4.089.349-52.459-13.837-57.08-14.419,5.168,2.558,15.442,6.375,27.454,10.074,17.613,5.422,32.287,8.534,32.774,6.949.1-.336.281-.959.281-.959.669-2.168,2.161-8.024,4.873-9.826,2.306-1.534,5.006-2.157,6.685-4.623C129.326,100.37,126.607,101.922,124.741,103.213Z"/></g><path class="cls-16" d="M34.615,123.679a10.164,10.164,0,1,0-.059,0Z"/><path class="cls-3" d="M34.614,104.477h.054a8.965,8.965,0,0,1-.051,17.93h-.054a8.965,8.965,0,0,1,.051-17.93m0-2.545a11.479,11.479,0,1,0,.069,0Z"/><g class="cls-4"><path class="cls-16" d="M35.609,104.532a8.964,8.964,0,0,1-4.292,16.862,9.117,9.117,0,0,1-.943-.055,8.965,8.965,0,1,0,5.235-16.807Z"/></g><path class="cls-17" d="M27.458,113.4c.24-3.748,4.043-7.642,7.2-7.439a4.9,4.9,0,0,1,2.38.819,4.425,4.425,0,0,0-3.633-1.643c-3.136-.2-6.765,3.095-6.993,6.65-.126,1.889.062,3.881,1.129,5.134A8.763,8.763,0,0,1,27.458,113.4Z"/><path class="cls-3" d="M32.842,117.485a2.706,2.706,0,0,1-1.259,3.157c-1.116.537-2.635-.318-3.082-1.989s.437-3.146,1.67-3.242A2.674,2.674,0,0,1,32.842,117.485Z"/><path class="cls-18" d="M32.705,104.272a17.527,17.527,0,0,0-.1,18.316"/><path class="cls-3" d="M36.346,117.5a2.709,2.709,0,0,0,1.22,3.172c1.113.551,2.639-.287,3.109-1.955s-.4-3.15-1.637-3.26A2.673,2.673,0,0,0,36.346,117.5Z"/><path class="cls-18" d="M36.635,104.3a17.55,17.55,0,0,1-.1,18.317"/><g class="cls-4"><path class="cls-11" d="M76.682,92.7a4.48,4.48,0,0,0,2.352,2.246,3.57,3.57,0,0,0,3.415-.3c-.7.183-1.475-.075-2.377-1.117-2.393-2.75-.459-6.4.347-9.356a14.893,14.893,0,0,0,.447-2.4C77.926,84.591,75.847,88.388,76.682,92.7Z"/></g><g class="cls-4"><path class="cls-11" d="M95.952,100.531a1.808,1.808,0,0,0,1.529.389,3.846,3.846,0,0,1-1.275-4.031c1.084-3.563,4.225-8.417,3.637-12.355C97.156,89.849,92.378,94.691,95.952,100.531Z"/></g><g class="cls-4"><path class="cls-11" d="M112.952,104.624c.007,0,.012,0,.021-.006-.473-1.449.348-3.024.9-4.326a34.165,34.165,0,0,0,1.871-5.973,4.5,4.5,0,0,0-.794-4.185c-.955,1.926-2.384,3.673-3.464,5.668C110.174,98.823,108.835,105.638,112.952,104.624Z"/></g><path class="cls-12" d="M75.212,79.461c-1.48,1.421-1.783,3.506-2.677,2.573s-.427-2.841,1.053-4.263,3.405-1.817,4.3-.884S76.69,78.039,75.212,79.461Z"/><path class="cls-12" d="M93.292,84.363c-1.478,1.42-1.779,3.5-2.675,2.573s-.425-2.842,1.055-4.262,3.4-1.819,4.3-.886S94.774,82.941,93.292,84.363Z"/><path class="cls-12" d="M61.091,76.254c-.476,1.266-.063,2.595-.862,2.293s-1.062-1.569-.586-2.838,1.51-2.052,2.309-1.75S61.566,74.985,61.091,76.254Z"/><path class="cls-12" d="M108.465,90.9c-1.087,1.044-1.072,2.822-1.967,1.889a2.759,2.759,0,0,1,3.933-3.78C111.327,89.946,109.551,89.86,108.465,90.9Z"/><path class="cls-3" d="M114.539,134.94l.117-.166c.054-.127.24-.225.379-.347a8.364,8.364,0,0,1,1.649-.816,2.8,2.8,0,0,1,.5-.139c-.017.009.125-.032-.027.014l.083,0,.166-.016.34-.028a2.49,2.49,0,0,1,.926.264c.168.039.27.2.412.281l.051.035.025.017c.022.019-.174-.162-.09-.083l0,0,.007.009.016.018.124.153.262.293c.175.2.109.284.207.406.061.141.1.369.156.545a5.629,5.629,0,0,1,.12,1.3c-.036.457-.039.921-.112,1.376-.03.227-.091.446-.113.669-.005.112-.105.432-.149.628a9.648,9.648,0,0,1-.354,1.15,8.786,8.786,0,0,1-.405.955c-.128.295-.255.554-.369.762-.213.428-.325.691-.325.691s.242-.137.65-.41a4.727,4.727,0,0,0,.7-.543,4.925,4.925,0,0,0,.826-.852,5.656,5.656,0,0,0,.772-1.175c.115-.234.2-.349.349-.7.1-.242.18-.5.262-.757a8.619,8.619,0,0,0,.339-1.68,7.485,7.485,0,0,0-.093-1.874,7.3,7.3,0,0,0-.339-.975,5.227,5.227,0,0,0-.616-.945l-.278-.278-.145-.132-.131-.12-.056-.034-.115-.066a3.765,3.765,0,0,0-.924-.439,3.122,3.122,0,0,0-.979-.165,3.674,3.674,0,0,0-.931.1l-.325.108-.159.051-.078.029c-.2.059-.112.046-.18.073a4.3,4.3,0,0,0-.619.418,5.112,5.112,0,0,0-1.358,1.607A1.513,1.513,0,0,0,114.539,134.94Z"/><path class="cls-3" d="M119.686,137.229s-.2-.01-.54,0a3.772,3.772,0,0,0-1.365.25,6.1,6.1,0,0,0-1.815.949,4.526,4.526,0,0,0-.873.718c-.268.279-.537.563-.808.846l-.642.986a4.225,4.225,0,0,0-.5,1.026,5.416,5.416,0,0,0-.454,1.981,3.7,3.7,0,0,0,.148,1.434,4.565,4.565,0,0,0,.161.51s.109-.185.265-.48a9.616,9.616,0,0,1,.613-1.131,7.248,7.248,0,0,0,.417-.7c.156-.24.369-.474.525-.736.315-.524.775-1.02,1.144-1.558.44-.488.818-1.047,1.255-1.49.218-.219.4-.481.591-.7a6.547,6.547,0,0,0,.545-.578,11.046,11.046,0,0,1,.959-.941C119.556,137.384,119.686,137.229,119.686,137.229Z"/><path class="cls-3" d="M52.274,123.573s.2-.348.562-.958a4.684,4.684,0,0,1,.7-1.03,7.236,7.236,0,0,1,1.024-1.141c.205-.189.42-.386.64-.59.237-.182.508-.338.766-.515a9.753,9.753,0,0,1,1.737-.87,7.854,7.854,0,0,1,1.993-.337,7.048,7.048,0,0,1,2.04.2l1.016.4a3.125,3.125,0,0,1,.877.511,8.041,8.041,0,0,1,1.494,1.291,9.756,9.756,0,0,1,1.039,1.641c.129.285.281.557.388.836.086.288.168.568.246.836a7.059,7.059,0,0,1,.287,1.525,4.665,4.665,0,0,1,.065,1.224c-.005.705-.009,1.108-.009,1.108s.148-.366.383-1.048a4.112,4.112,0,0,0,.289-1.27,5.983,5.983,0,0,0,.062-1.715c-.031-.319-.063-.652-.1-1-.063-.341-.2-.676-.3-1.033a8.354,8.354,0,0,0-1.022-2.122,7.892,7.892,0,0,0-1.856-1.834A5.356,5.356,0,0,0,63.442,117l-1.2-.493a8.911,8.911,0,0,0-2.67-.2,8.007,8.007,0,0,0-2.488.615,8.314,8.314,0,0,0-1.969,1.29,10.605,10.605,0,0,0-.791.729c-.206.277-.4.546-.6.8a6.137,6.137,0,0,0-.84,1.52,3.9,3.9,0,0,0-.4,1.22C52.352,123.176,52.274,123.573,52.274,123.573Z"/><path class="cls-3" d="M80.771,132.077s.237-.381.623-1.058a5.045,5.045,0,0,1,.769-1.14,8.1,8.1,0,0,1,1.131-1.261l.709-.651c.263-.2.561-.374.845-.57a10.56,10.56,0,0,1,1.92-.96,8.6,8.6,0,0,1,2.2-.373,7.842,7.842,0,0,1,2.257.224l1.121.438a3.422,3.422,0,0,1,.972.566,8.8,8.8,0,0,1,1.648,1.426,10.77,10.77,0,0,1,1.149,1.813c.143.317.308.616.429.924q.139.482.272.925a8.108,8.108,0,0,1,.319,1.687,5.337,5.337,0,0,1,.071,1.354c-.007.777-.01,1.223-.01,1.223s.162-.405.423-1.159a4.521,4.521,0,0,0,.318-1.4,6.655,6.655,0,0,0,.068-1.9c-.034-.352-.068-.719-.1-1.1-.07-.376-.218-.747-.334-1.142A9.163,9.163,0,0,0,96.44,127.6a8.71,8.71,0,0,0-2.05-2.03,6.016,6.016,0,0,0-1.272-.757l-1.328-.545a9.831,9.831,0,0,0-2.951-.222,8.853,8.853,0,0,0-2.75.679,9.188,9.188,0,0,0-2.177,1.424,11.665,11.665,0,0,0-.874.808l-.66.887a6.755,6.755,0,0,0-.93,1.68,4.306,4.306,0,0,0-.443,1.349C80.845,131.633,80.771,132.077,80.771,132.077Z"/><path class="cls-15" d="M70.605,149.173c5.306,0,9.577-2.849,10.386-6.927a8.165,8.165,0,0,0-2.227-7.093,13.763,13.763,0,0,0-7.58-4.121,15.3,15.3,0,0,0-2.957-.293c-5.306,0-9.576,2.848-10.384,6.927-.974,4.921,3.425,9.951,9.809,11.214A15.171,15.171,0,0,0,70.605,149.173Z"/><path class="cls-3" d="M68.227,131.737a14.211,14.211,0,0,1,2.764.274c5.85,1.158,9.892,5.654,9.021,10.041-.731,3.686-4.69,6.122-9.407,6.122a14.307,14.307,0,0,1-2.76-.272c-5.852-1.158-9.892-5.654-9.023-10.043.729-3.686,4.688-6.122,9.405-6.122m0-2c-5.79,0-10.462,3.178-11.363,7.729-1.082,5.461,3.671,11.018,10.6,12.388a16.212,16.212,0,0,0,3.146.312c5.789,0,10.462-3.178,11.365-7.731a9.14,9.14,0,0,0-2.464-7.954,14.783,14.783,0,0,0-8.127-4.433,16.373,16.373,0,0,0-3.152-.311Z"/><g class="cls-21"><path class="cls-22" d="M68.383,133.809c-.653,1.162.938,3.3,3.559,4.778s5.273,1.729,5.928.568-.936-3.3-3.557-4.779S69.039,132.646,68.383,133.809Z"/></g><g class="cls-4"><path class="cls-15" d="M58.822,137.859A6.883,6.883,0,0,1,62,133.44a6.352,6.352,0,0,0-1.413,2.885c-.867,4.389,3.171,8.885,9.026,10.044A12.335,12.335,0,0,0,78.6,144.94c-2.164,2.559-6.345,3.834-10.757,2.962C61.993,146.744,57.953,142.248,58.822,137.859Z"/></g><path class="cls-3" d="M49.947,136.483a1.608,1.608,0,0,0-.313-.229,2.689,2.689,0,0,0-.984-.32,2.2,2.2,0,0,0-.7,0,1.964,1.964,0,0,0-.772.163,7.52,7.52,0,0,0-.788.359,7.027,7.027,0,0,0-.665.574,3.033,3.033,0,0,0-.545.674,6.793,6.793,0,0,0-.339.743,2.692,2.692,0,0,0-.257,1.373,4.2,4.2,0,0,0,.2,1.35,6.439,6.439,0,0,0,.91-.959,3.933,3.933,0,0,0,.32-.453c.118-.151.286-.275.4-.43a3.772,3.772,0,0,0,.364-.464c.087-.188.278-.259.4-.4a5.552,5.552,0,0,1,.376-.416,3.1,3.1,0,0,0,.422-.343,2.615,2.615,0,0,1,.428-.319c.151-.08.283-.234.432-.3.295-.159.555-.335.759-.43A3.179,3.179,0,0,1,49.947,136.483Z"/><path class="cls-5" d="M58.3,167.1c.279-.6,2.46.527,5.008,1.724s4.508,2.013,4.227,2.609-2.945.572-5.5-.623S58.024,167.7,58.3,167.1Z"/><path class="cls-3" d="M99.06,153.379a2.589,2.589,0,0,0,.854-1.175,3.494,3.494,0,0,0,.261-1.5,4.041,4.041,0,0,0-.5-1.747,4.228,4.228,0,0,0-1.222-1.311,3.774,3.774,0,0,0-1.368-.581,3.178,3.178,0,0,0-1.035-.081,2.968,2.968,0,0,0-.4.046s.087.132.237.328.387.427.613.727a5.421,5.421,0,0,0,.378.433,3.775,3.775,0,0,0,.372.469,5.967,5.967,0,0,0,.349.484c.1.166.214.327.3.5a6.913,6.913,0,0,1,.5,1.04c.129.362.258.733.345,1.082C98.936,152.785,99.06,153.379,99.06,153.379Z"/><path class="cls-23" d="M66.187,169.153c17.422,0,32.346-15.137,32.344-18.686a1.137,1.137,0,0,0-1.187-1.189,2.669,2.669,0,0,0-1.051.266c-8.766,3.847-16.531,5.8-23.076,5.8h0c-14.967,0-20.116-10.063-22.591-14.9-.967-1.888-1.451-2.836-2.354-2.836h-.164l-.266.091c-1.224.536-1.566,2.391-1.045,5.675,1.319,8.288,8.294,24.851,16.379,25.635.994.1,2.006.145,3.009.145Z"/><path class="cls-3" d="M48.271,138.393c1.822,0,4.849,17.734,24.945,17.734,6.085,0,13.735-1.625,23.393-5.863a1.956,1.956,0,0,1,.735-.2c3.063,0-11.788,18.3-31.157,18.3-.97,0-1.945-.046-2.936-.142-9.768-.949-18.671-28.245-15.095-29.808a.281.281,0,0,1,.115-.025m0-1.572a1.86,1.86,0,0,0-.745.156c-2.13.931-1.879,4.165-1.505,6.519a53.459,53.459,0,0,0,5.721,15.838c2.491,4.51,6.482,9.984,11.358,10.456,1.018.1,2.056.149,3.087.149,16.883,0,29.852-12.916,32.42-17.366.485-.838,1.057-2.074.447-3.132a1.942,1.942,0,0,0-1.71-.95,3.412,3.412,0,0,0-1.366.334c-8.668,3.8-16.325,5.73-22.762,5.73-14.486,0-19.488-9.774-21.89-14.471-1.043-2.035-1.672-3.263-3.055-3.263Z"/><path class="cls-24" d="M66.158,169.187a33.7,33.7,0,0,0,8.35-1.083.821.821,0,0,0,.384-1.368c-3.815-3.927-10.317-4.752-15.1-4.752-1.262,0-2.576.056-3.908.165a.822.822,0,0,0-.586,1.317c2.625,3.449,5.274,5.325,7.873,5.577.986.1,1.99.144,2.986.144Z"/><path class="cls-3" d="M59.792,162.806c5.278,0,11.09.982,14.511,4.5a32.75,32.75,0,0,1-8.145,1.058q-1.437,0-2.907-.14c-2.563-.249-5.064-2.322-7.3-5.258,1.215-.1,2.509-.162,3.84-.162m0-1.643c-1.284,0-2.621.056-3.976.168a1.643,1.643,0,0,0-1.172,2.633c2.771,3.639,5.612,5.621,8.448,5.9,1.011.1,2.044.149,3.066.149a34.479,34.479,0,0,0,8.553-1.111,1.643,1.643,0,0,0,.77-2.736c-3.224-3.319-8.5-5-15.689-5Z"/><path class="cls-22" d="M74.45,160.582a3.871,3.871,0,0,0,2.77-1.021,3.17,3.17,0,0,0,2.041.661,4.777,4.777,0,0,0,.733-.058,4.139,4.139,0,0,0,2.7-1.441,3.056,3.056,0,0,0,1.51.339,9.21,9.21,0,0,0,1.214-.1c2.174-.295,3.454-.847,4.152-1.786.825-1.113.6-2.53.4-3.78-.022-.133-.044-.259-.077-.384a.775.775,0,0,0-.379-.494.784.784,0,0,0-.383-.1.807.807,0,0,0-.237.036,50.535,50.535,0,0,1-15.069,2.589c-11.265,0-17.051-5.322-19.5-8.5a.793.793,0,0,0-.584-.305H53.71a.789.789,0,0,0-.573.246,4.365,4.365,0,0,0-1.319,3.437,4.826,4.826,0,0,0,1.678,3.105c.224.161.447.356.671.549a3.681,3.681,0,0,0,2.027,1.138,4.537,4.537,0,0,0,3.972,2.721h0a2.851,2.851,0,0,0,1.092-.21A3.869,3.869,0,0,0,63.618,159a4.413,4.413,0,0,0,1.27.2,3.107,3.107,0,0,0,1.57-.4,3.689,3.689,0,0,0,2.521,1.4,4.831,4.831,0,0,0,.694.052,3.457,3.457,0,0,0,2.119-.67,3.547,3.547,0,0,0,2.643,1.007Z"/><path class="cls-3" d="M53.71,147.03c3.434,4.453,9.76,8.8,20.119,8.8a51.013,51.013,0,0,0,15.306-2.626c.027.107.044.212.061.315.386,2.415.539,4.062-3.877,4.663a8.487,8.487,0,0,1-1.111.093,1.835,1.835,0,0,1-1.693-.77,3.186,3.186,0,0,1-2.638,1.881,4.107,4.107,0,0,1-.616.049,2.159,2.159,0,0,1-2.069-1.139,2.91,2.91,0,0,1-2.744,1.5h-.013a2.482,2.482,0,0,1-2.53-1.49,2.513,2.513,0,0,1-2.232,1.151,4.015,4.015,0,0,1-.582-.044,2.661,2.661,0,0,1-2.381-1.866,2.214,2.214,0,0,1-1.822.865,3.65,3.65,0,0,1-1.044-.166,2.9,2.9,0,0,1-2.2-2.221,1.982,1.982,0,0,1-1.482.628,3.367,3.367,0,0,1-1.4-.35,3.2,3.2,0,0,1-1.991-2.559.76.76,0,0,1-.5.19c-.711,0-1.524-.972-2.319-1.541a3.587,3.587,0,0,1-.244-5.364m0-1.573a1.57,1.57,0,0,0-1.143.493A5.079,5.079,0,0,0,51.036,150a5.614,5.614,0,0,0,2,3.671c.2.148.41.327.615.5a5.193,5.193,0,0,0,1.993,1.248,5.042,5.042,0,0,0,2.448,2.3,4.907,4.907,0,0,0,2.071.5,3.786,3.786,0,0,0,.767-.076,4.828,4.828,0,0,0,2.459,1.6,5.206,5.206,0,0,0,1.5.232,3.981,3.981,0,0,0,1.358-.231,4.638,4.638,0,0,0,2.615,1.216,5.514,5.514,0,0,0,.812.061,4.373,4.373,0,0,0,2.039-.476,4.56,4.56,0,0,0,2.74.815,4.855,4.855,0,0,0,2.817-.838,4.159,4.159,0,0,0,1.992.475,5.79,5.79,0,0,0,.843-.064,5.111,5.111,0,0,0,2.788-1.285,4.29,4.29,0,0,0,1.316.191,10.079,10.079,0,0,0,1.324-.108c2.4-.327,3.839-.974,4.674-2.1,1.022-1.38.756-3.04.541-4.388-.023-.143-.05-.291-.088-.44a1.57,1.57,0,0,0-2-1.111,49.775,49.775,0,0,1-14.832,2.552c-10.928,0-16.516-5.13-18.873-8.188a1.576,1.576,0,0,0-1.168-.611l-.078,0Z"/><path class="cls-11" d="M82.2,156.961c.695-.519,1.231.365,1.741,1.3a1.723,1.723,0,0,1-1.429-.76,2.839,2.839,0,0,1-.667.979C81.922,157.816,81.86,157.181,82.2,156.961Z"/><path class="cls-11" d="M77.042,157.433c1.026-.207.937.731.9,1.676a1.962,1.962,0,0,1-.751-.812,2.614,2.614,0,0,1-1,1.064C76.477,158.479,76.534,157.5,77.042,157.433Z"/><path class="cls-11" d="M71.463,158.012c.886-.1,1.119.545,1.251,1.324a2.168,2.168,0,0,1-.809-1.029,2.376,2.376,0,0,1-1.106.939C70.986,158.662,71.053,158.066,71.463,158.012Z"/><path class="cls-11" d="M67.079,157.294a1.866,1.866,0,0,1,.417,1.468,2.383,2.383,0,0,1-.786-1.214,2.177,2.177,0,0,1-1.185.786C66.026,157.506,66.4,156.608,67.079,157.294Z"/><path class="cls-11" d="M62.362,157.4a2.626,2.626,0,0,1-.714-1.37,2.1,2.1,0,0,1-2.091.555,3.462,3.462,0,0,1,1.816-.931C62.5,155.543,62.426,156.471,62.362,157.4Z"/><path class="cls-11" d="M57.8,153.323a2.344,2.344,0,0,1-.12,2.249,2.91,2.91,0,0,1-.9-1.827.948.948,0,0,1-1.194-.057C56.243,153.131,57.455,152.794,57.8,153.323Z"/><path class="cls-11" d="M87.649,153.657q.737-.216,1.486-.452c.027.107.044.212.061.315.336,2.076.488,3.586-2.285,4.35A9.463,9.463,0,0,0,87.649,153.657Z"/></g></g></svg>