<svg width="200px" height="200px" xmlns="http://www.w3.org/2000/svg" viewBox="0 0 200 200"><defs><style>.cls-1{fill:#f6bd00;}.cls-1,.cls-10,.cls-11,.cls-12,.cls-2,.cls-3,.cls-4,.cls-5,.cls-6,.cls-7,.cls-8,.cls-9{fill-rule:evenodd;}.cls-2{fill:#a34027;}.cls-3{fill:#efabaf;}.cls-4{fill:#3e0305;}.cls-5{fill:#fcdeaa;}.cls-6{fill:#d3777a;}.cls-7{fill:#eaa379;}.cls-8{fill:#fff;}.cls-9{fill:#fbd9a9;}.cls-10{fill:#d4273f;}.cls-11{fill:#eb9a23;}.cls-12{fill:#ba2038;}</style></defs><g id="Layer_10" data-name="Layer 10"><path class="cls-1" d="M109.4,86.7q1.9-3,3.6-6c1.3-2.2,2.5-4.5,3.6-6.8s1.9-3.6,2.7-5.4,1.3-2.6,1.9-3.9a56,56,0,0,0,2.6-6.8c.9-2.6,3.1-9.5.5-11.7-4.5-3.8-1.7-8.5.4-12.7a33,33,0,0,0,1.9-4.3L127,28l.3,1.1a37.5,37.5,0,0,0,1.9,4.1l.6,1.2c1.8,3.8,4,8.2,0,11.5s-.5,9.5.5,12.3,1.6,4,2.5,6,1.3,2.9,2,4.3,2.3,4.8,3.5,7.1,2.2,4.1,3.4,6.1l3.2,5.2c7.3-1,14.4-4.4,20.7-7.9a80.3,80.3,0,0,0,17-13.1,3.5,3.5,0,0,0,.7-2,27.1,27.1,0,0,0,.1-2.9V58.7a5.9,5.9,0,0,1,.5-1.9c.8-1.5,2.7-2.1,4.2-2.6a15.4,15.4,0,0,0,3.4-1.7l.8-.6-.2,1-.3,3.1-.6,3.8a18.7,18.7,0,0,1-.8,3.2,18.6,18.6,0,0,1-4.1,6.2,34.3,34.3,0,0,0-5.1,7.5,93.3,93.3,0,0,0-4.4,9.7c-2.6,6.7-4.9,13.5-7.2,20.2l-.2.6-.4-.4c-11.6-10.5-26.6-14.6-42-14.6s-30.3,4.2-41.9,14.7l-.4.4-.2-.5c-2.4-6.7-4.6-13.4-7.3-19.9a103.8,103.8,0,0,0-4.3-9.6,36.3,36.3,0,0,0-5-7.3,16,16,0,0,1-4.1-6.2,15.7,15.7,0,0,1-.8-3.1c-.3-1.2-.4-2.4-.6-3.7a29.1,29.1,0,0,1-.4-3.1l-.2-.9.8.6a13.9,13.9,0,0,0,3.5,1.6c1.4.5,3.3,1.1,4.2,2.6a3.7,3.7,0,0,1,.4,1.8,16.9,16.9,0,0,1,.1,2.3h0a14,14,0,0,0,0,2.9,4.4,4.4,0,0,0,.7,1.9A74.4,74.4,0,0,0,88.4,79.3a62.7,62.7,0,0,0,21,7.4Zm66.1-5.8c.8-1.7,1.6-3.4,2.3-5.1l-.3.3c-1.5,1.3-3.1,2.5-4.6,3.6a73.8,73.8,0,0,1-6.8,4.6l-1.4.8A47.7,47.7,0,0,0,176,77.5l1.2-1.1-.6,1.6a24.9,24.9,0,0,1-1.1,2.9ZM88.6,85.1l-1.4-.8a62.4,62.4,0,0,1-6.8-4.6,51.9,51.9,0,0,1-4.6-3.6l-.3-.3c.7,1.7,1.5,3.4,2.3,5.1A24.9,24.9,0,0,1,76.7,78l-.6-1.6,1.2,1.1a47.7,47.7,0,0,0,11.3,7.6Zm33.7-11.7,1.4-2.5a37.3,37.3,0,0,0,1.6-3.5,19.9,19.9,0,0,0,.9-2.6l.4-1.4.4,1.4c.2.9.6,1.8.9,2.7l1.6,3.4,1.2,2.3V73a62.1,62.1,0,0,1-4-10.4A54.9,54.9,0,0,1,122.5,73,.8.8,0,0,1,122.3,73.4Z"/><path class="cls-2" d="M97.5,54.9a5.6,5.6,0,0,0,.2,3.6h0c2.4,5.1,6.2,11.7,11.2,14.4l.8.4-.8.4a27.4,27.4,0,0,0-4.2,2.1,42.7,42.7,0,0,0-7.9,6.1l-.2.2h-.2a37.9,37.9,0,0,1-4.2-1.8h-.3v-.3a98.1,98.1,0,0,0,2.2-10.5A53.1,53.1,0,0,0,95,58.8a3.3,3.3,0,0,0-.7-1.7l-.5-.9a5.7,5.7,0,0,1-.4-1.4,17.5,17.5,0,0,1,.1-5.1l.3-3.1V45l.7,1.4a19.8,19.8,0,0,0,1.1,2,12.8,12.8,0,0,1,1.9,4.1,9.9,9.9,0,0,1-.1,2.4Zm62.3,1.7a2.7,2.7,0,0,0-.6,1.7,53.5,53.5,0,0,0,.7,10.6,94.9,94.9,0,0,0,2.2,10.6v.3h-.3l-4.2,1.9h-.3l-.2-.2a41.5,41.5,0,0,0-7.8-6,27.4,27.4,0,0,0-4.2-2.1l-.7-.3.7-.5c5-2.8,8.8-9.5,11.2-14.7h.1a7.7,7.7,0,0,0,.2-3.7,6.4,6.4,0,0,1-.1-2.4,12.5,12.5,0,0,1,1.8-4.1,21.2,21.2,0,0,0,1.1-2.1l.6-1.4v1.5c.1,1.1.3,2.1.4,3.2a18.1,18.1,0,0,1,.1,5.2A5,5,0,0,1,159.8,56.6Z"/><path class="cls-2" d="M122.4,131.7c.1-.5.2-1.2.7-1.5a1.4,1.4,0,0,1,1.1-.3H131a1.4,1.4,0,0,1,.9.3,1.9,1.9,0,0,1,.7,1.4v.5h-.5a8.9,8.9,0,0,0-3.2.3l-1.5.6H127a5.2,5.2,0,0,0-1.3-.6,13.5,13.5,0,0,0-2.9-.4h-.4Z"/><path class="cls-3" d="M134.3,138.5a2.9,2.9,0,0,0-2-.2l-.5.4a2.6,2.6,0,0,0,.5,2.4,3.2,3.2,0,0,0,1,1l1.2.8h-1.4l-.7-.2a4.7,4.7,0,0,0,1.2.7l2,.5h0c.6,0,1,.7,1,1.2a1.4,1.4,0,0,1-.9,1.7,4.2,4.2,0,0,1-2.4.7h-.8a9.7,9.7,0,0,1-3.4-.5,4,4,0,0,1-1.9-1.5c-1.1,1.8-3,2-5.2,2h-.8a4.2,4.2,0,0,1-2.4-.7,1.6,1.6,0,0,1-1-1.7c.1-.5.5-1.2,1-1.2h.7l1.4-.4a4,4,0,0,0,1.3-.7l-.6.2h-1.4l1.2-.8a3.2,3.2,0,0,0,1-1,3.4,3.4,0,0,0,.6-1.5l-1.4-.2a4.2,4.2,0,0,0-3.1,1.3,3.3,3.3,0,0,0-1,3.6l.2.5h-.5a2.9,2.9,0,0,1-1.6-.1,2.6,2.6,0,0,1-1.6-.9c-1.7-2-.5-5.9.9-7.8a9.5,9.5,0,0,1,5.1-3.2,10.2,10.2,0,0,1,4.9-.3,6.7,6.7,0,0,1,2.3,1h.1a6.7,6.7,0,0,1,2.3-1,10.2,10.2,0,0,1,4.9.3,8.9,8.9,0,0,1,5,3.2,9.4,9.4,0,0,1,1.5,3.2,5.3,5.3,0,0,1-.5,4.6l-.2.2a2.6,2.6,0,0,1-1.5.7,2.6,2.6,0,0,1-1.5.1h-.5l.2-.5c.9-1.8-.9-4.4-2.7-4.8l-.6-.2.6-.8Zm-11.3.7a.9.9,0,0,0-.1-.5l-.5-.4a4.3,4.3,0,0,0-1.6,0l1.1.3Z"/><path class="cls-4" d="M172.7,118.1c1-3.8,6.2-6,10.1-4.8s6,7,3.5,10.1Z"/><path class="cls-5" d="M168.6,152.5l-3.7,1.1a10.7,10.7,0,0,1-2.5.3h-.7l-2.5,4.1,1.8-.8c2.3-.9,4.8-.1,7.2-1,0-.1,0-.1.1-.1,1.9-.9,11.7-9.5,12.6-10.6a17.2,17.2,0,0,0,2.5-4.6c2.3-5.6,6.4-17.5-.3-21.6A9.5,9.5,0,0,0,179,118c-3.7-.3-7.5,1.3-10.8,2.7l-1.1.5-.3.2v.3a1.9,1.9,0,0,1-.1.8v1h.1v2l.2.2a1.9,1.9,0,0,0,1,.5c1.6.1,6-2.1,7.6-2.8l2.2-.7,1-.3h1.1a3.8,3.8,0,0,1,3.8,4c-.4,6.8-.7,11.1-4.8,16.7a4.6,4.6,0,0,1-.7.7l-.7.4-.8.5a13.1,13.1,0,0,0-2.3,2.4.7.7,0,0,1-.5.4h-.5l-.7.2c-.6.1-1,.9-1.3,1.5a22.6,22.6,0,0,1-1.3,2A4,4,0,0,1,168.6,152.5Z"/><path class="cls-4" d="M167.8,125.6c-.7,0-1.8-2.3-1.6-2.8a4.4,4.4,0,0,1,2.2-1.5c4.4-1.8,9.8-4.2,14.4-1.3,6.3,3.8,2.2,15.5,0,20.8s-7.9,11.7-12.8,14.6-7.1,0-10,1.7l-.8-.7a3.6,3.6,0,0,1,3.2-1.8,29.8,29.8,0,0,0,6.4-1.5,25.4,25.4,0,0,0,11-10.6c3.3-5.7,4-9.7,4.4-16.1a4.5,4.5,0,0,0-4.5-4.7l-1.3.2c-.4,0-.6.2-1,.3l-2.2.7c-1.6.7-6,2.8-7.4,2.7Zm-1.2-7.9-.5-.7-2.5-2.9c-4.1,6.6-3,8.2-2.8,17.6a14.3,14.3,0,0,1,2.5,5.1,19.2,19.2,0,0,1,.1,4.8c-.2.8-.5,1.3-.7,2.3a12.4,12.4,0,0,1-2.1,4.7c-.5,5.5-5.5,8.8-3.5,13.9a5.6,5.6,0,0,1,3.7-1.5c9.8-.8,18.2-8.8,23-17s6.1-17.6,2.6-22.8-10.5-4.8-16-3.1A5,5,0,0,1,166.6,117.7Z"/><path class="cls-6" d="M170,131.5c-.1-2.5.4-5.2,3-5.9s6.2.1,7.3,1.8c4.5,7-7,22.8-13.4,23.5,1.9-1.8,2.7-4.5,3.8-6.2,2.8-.9,10.6-13.1.3-15.1,8.6,3.2,1.9,12.7,0,12.8C172.1,138.5,172,134.6,170,131.5Z"/><path class="cls-7" d="M181,140.6c2.6-4.6,2.8-8.5,3.2-14.2a4.5,4.5,0,0,0-4.5-4.7,4.2,4.2,0,0,1,4.9,2.5c1.5,3.3-.5,12.5-2.8,17.6a32,32,0,0,1-22.3,17.9,9.2,9.2,0,0,0,.6-4.8c2.9-.4,3.5-1.2,4.6-2.6C168.8,153.1,176.3,149,181,140.6Z"/><path class="cls-5" d="M85.9,152.5l3.7,1.1a10.7,10.7,0,0,0,2.5.3h.7l2.5,4.1-1.8-.8c-2.3-.9-4.8-.1-7.1-1h-.2c-1.9-.9-11.7-9.5-12.6-10.6a17.2,17.2,0,0,1-2.5-4.6c-2.3-5.6-6.4-17.5.3-21.6a9.5,9.5,0,0,1,4.1-1.4c3.7-.3,7.5,1.3,10.8,2.7l1.1.5.3.2v.3a1.9,1.9,0,0,0,.1.8v1h-.1v2l-.2.2a1.6,1.6,0,0,1-.9.5c-1.7.1-6.1-2.1-7.7-2.8l-2.2-.7-1-.3h-1a3.9,3.9,0,0,0-3.9,4c.4,6.8.7,11.1,4.8,16.7a2.7,2.7,0,0,0,.8.7l.6.4.8.5a13.1,13.1,0,0,1,2.3,2.4.7.7,0,0,0,.5.4h.5l.7.2c.6.1,1,.9,1.3,1.5a22.6,22.6,0,0,0,1.3,2A4,4,0,0,0,85.9,152.5Z"/><path class="cls-4" d="M86.7,125.6c.7,0,1.8-2.3,1.6-2.8a4.4,4.4,0,0,0-2.2-1.5c-4.4-1.8-9.8-4.2-14.4-1.3-6.3,3.8-2.2,15.5,0,20.8s7.9,11.7,12.8,14.6,7.1,0,10,1.7l.8-.7a3.6,3.6,0,0,0-3.2-1.8,29.8,29.8,0,0,1-6.4-1.5,25.4,25.4,0,0,1-11-10.6c-3.3-5.7-4-9.7-4.4-16.1a4.6,4.6,0,0,1,4.5-4.7l1.3.2a2.9,2.9,0,0,1,1,.3l2.2.7c1.6.7,6,2.8,7.4,2.7Zm1.2-7.9.5-.7,2.5-2.9c4.1,6.6,3,8.2,2.8,17.6a14.3,14.3,0,0,0-2.5,5.1,19.2,19.2,0,0,0-.1,4.8c.2.8.5,1.3.7,2.3a12.4,12.4,0,0,0,2.1,4.7c.5,5.5,5.5,8.8,3.5,13.9a5.6,5.6,0,0,0-3.7-1.5c-9.8-.8-18.2-8.8-23-17s-6.1-17.6-2.6-22.8,10.5-4.8,16-3.1A5,5,0,0,0,87.9,117.7Z"/><path class="cls-4" d="M111.4,166.7c-6.9-1.5-13.7-4.6-15.1-8.3a6.1,6.1,0,0,1,.6-5.4c.8-1.2,1.7-2.1,3.4-1.4a1.1,1.1,0,0,0-.1.5c-.9,5.6,7.8,9.1,15.3,9.6,0,0-16.2-3.8-13.8-11.1a22,22,0,0,1,11.1-11.8c-.5,1.9-.6,4.1.6,5.6s.7,1.4,3.5,1.4c0,1.8,1.9,2.4,3.5,2.7a28.6,28.6,0,0,1,4.2,1c1.2.5,1.9,1.7,2.7,1.7s1.7-1.5,2.8-2,7-.1,7.5-3.4h.4l2-.5a5.3,5.3,0,0,0,1.1-.9,5.2,5.2,0,0,0,.9-3.2,6.4,6.4,0,0,0-.4-2.4,10.3,10.3,0,0,1,2.3,1.2h0a19.8,19.8,0,0,1,9,11.6c1.8,5.9-8.4,9.4-13.8,10.2,7.8-.5,16.5-4,15-9.8,3.7-1.7,5.7,3.5,4.4,6.5s-8.9,7.1-16.3,8.7c-5.9,1.2-24.1,1-30.8-.4Zm15.8-32.4h0c-.7-.8-3.3-2-7.1-.9a8.1,8.1,0,0,0-4.8,3.1c-1.3,1.7-2.6,5.4-1,7.2a3.1,3.1,0,0,0,1.4.9h1.4c-1.2-2.6,2.3-5.9,4.6-5.5-1.8-1-5.6,1.2-5.3,3.9,0-.1-.1-.2-.1-.4a2.1,2.1,0,0,1,.3-2.1c1.1-1.4,4.3-3.1,6-2.4s.6,3.5-1,4.5c.8,0,2.1-1.5,2.1-1.5-.5,3.1-4.8,3.3-4.8,3.3a1.1,1.1,0,0,0,.1,2.1,4.4,4.4,0,0,0,2.2.7h.8c2.3,0,4.3-.1,5.2-2.6a4,4,0,0,0,2,2.2,9.1,9.1,0,0,0,3.3.4h.7a4.5,4.5,0,0,0,2.3-.7,1.1,1.1,0,0,0,.1-2.1s-4.1-.2-4.6-3.3c0,0,1.3,1.5,2.1,1.5-1.6-1-2.7-3.8-1-4.5s4.9,1,6,2.4a2.3,2.3,0,0,1,.3,2.1c0,.2-.1.3-.1.4.2-2-1.9-3.8-3.7-4.1l-.2.3c2,.5,4,3.3,3,5.4h1.4a2.9,2.9,0,0,0,1.2-.7l.2-.2c1.5-1.8.3-5.5-1-7.2a8.4,8.4,0,0,0-4.8-3.1c-3.8-1.1-6.4.1-7.1.9ZM92,153.9h0c.6,1.1,1.3,2.2,2,3.3l.3,1.1c1.2,2.9,3.8,5.2,6.9,6.9,1.6,10.9,6.7,16.9,18.1,19.6a40.1,40.1,0,0,0,5,.8h4.5c10.1-.4,20.4-5.1,23.7-15.8l.6-2.2a22.1,22.1,0,0,0,.5-2.5c3.1-1.7,5.7-4,6.9-6.9l.3-1.1c.7-1.1,1.4-2.2,2-3.3,4.1-2.3,8.9-12.1,8.9-16.6a10.5,10.5,0,0,0-4.2-8.2c.1-.7.1-10,.1-10-28.1-20.5-50.9-20.5-80.7,0,0,0,.1,2,.3,3.5s.1,6.2,0,6.2c-7.6,5.4-4.2,16.5,1.8,22.8a13.3,13.3,0,0,0,3,2.3Zm13.4,12.7c-2,2.9.7,8.5,2.9,10.5a28.1,28.1,0,0,0,12.5,6.4,36.2,36.2,0,0,0,7.9.7c6.6-.2,14.6-3.3,19.1-8.4,1-1.1,3.6-5.3,2.8-9.6-13.3,7.6-33.7,6.2-45.2.4Zm17.5-37.5c-4.3-4.1-24.7-5.4-31.2-2.3a41.6,41.6,0,0,1,21.8-16.6c5-1.7,11.1-2.5,14.1,2.7,3-6.3,17.4-3.8,20.9-2.6,5.4,1.8,10.5,5.5,12.4,10.7l1.3,5.7c-10.9-3.2-24-1.6-30.7,2.4a82.1,82.1,0,0,1-8.6,0Zm6.9,1.4c1.6-.1,2.2-.3,2.4,1.3a9.5,9.5,0,0,0-5,.9,8.9,8.9,0,0,0-4.4-1c.1-1.8,1-1.3,2.8-1.3Z"/><path class="cls-8" d="M110,127.9a26.5,26.5,0,0,0-7.5-.3L88.9,145.4a14.3,14.3,0,0,0,2.6,3.5l18.5-21ZM93,150.2l18.3-22.1.9.2c-6,7.5-11.9,15.2-17.8,22.8l-1.4-.9Zm67.5-20.3-10.4,13.5a30.4,30.4,0,0,1,1.8,2.5L163.5,131a12.1,12.1,0,0,0-3-1.1Zm-13.2,10.6h0l9.2-11.5,1.9.3-9.7,12.5Z"/><path class="cls-4" d="M167.3,99.4s8.1-17.1,11.7-25.2c0,0-14.8,13.9-29.4,16.2,0,0,15.2-2.1,26.6-12.6-2.7,7.3-6.8,15.6-8.9,21.6ZM136.5,82.6c-4.1-6.5-8-14.1-9.9-21.5-1.9,7.5-5.8,15-9.9,21.5,4.9-6,9-14.1,9.9-17.7,1,3.6,5,11.7,9.9,17.7ZM86,99.4S77.9,82.3,74.3,74.2c0,0,14.8,13.9,29.4,16.2,0,0-15.2-2.1-26.7-12.6C79.7,85.1,83.9,93.4,86,99.4Z"/><path class="cls-9" d="M162.2,126.7a17.3,17.3,0,0,0-1.3-5.7c-1.9-5.2-7-8.9-12.4-10.7-3.5-1.2-17.9-3.7-20.9,2.6a3.2,3.2,0,0,1-1.2-1.1,3.6,3.6,0,0,0-.4-.9,7.5,7.5,0,0,0-5.2-2c-13.1,0-23.5,10.2-26.8,14.7,0,1.2-.1,2-.1,2.4,2.3,0,11.6-1,14.3-.8,5.7.4,11.6,1.5,14.7,3.9a81.9,81.9,0,0,0,8.6,0c4.5-2.7,13.1-3.9,14.6-4a47.4,47.4,0,0,1,16.1,1.6ZM102,163.5c-2.7-1.4-4.8-3-5.7-5.1a5.8,5.8,0,0,1,.6-5.4c.8-1.2,1.7-2.1,3.4-1.4a1.1,1.1,0,0,0-.1.5,4.9,4.9,0,0,0,.1,2.1c1.5,5.1,10.6,7.2,15.2,7.5-5.8-1-15.7-5.4-13.8-11.1a22,22,0,0,1,11.1-11.8c-.5,1.9-.6,4.1.6,5.6a4.6,4.6,0,0,0,3.5,1.4c.4,3.6,6,2.2,8.6,4.1.7.6,1.2,1.3,1.8,1.3s1.3-1,1.9-1.5c2.2-1.8,6.7-.5,8.1-3.1l.3-.8c2.1-.1,2.9-.8,3.4-1.4a6.1,6.1,0,0,0,.6-5.6A19.5,19.5,0,0,1,153,151.7c1.4,5-6.6,9-13.9,10,7.8-.5,16.5-4,15-9.8,3.7-1.7,5.7,3.5,4.4,6.5s-2.3,3-4.6,4.4C141.4,170,118.5,171.8,102,163.5Z"/><path class="cls-7" d="M113.9,169.6c-1.8-.5-10.1-1.3-8.4,3.9a8.4,8.4,0,0,0,2,3.2c5.5,5.4,14,7.7,21.2,7.5s14.6-3.3,19.1-8.4c1-1.1,3.8-5.5,2.8-9.6C140.3,171.3,127.1,172.8,113.9,169.6Z"/><path class="cls-7" d="M100.9,162.9a9.3,9.3,0,0,1-4.6-4.5c-.2-.2-.2-.5-.3-.8s1.6,4.7,13.4,7.4c17.8,4.1,34.5.1,36-.3a27.8,27.8,0,0,0,9.5-4.6s4.2-2.9,3-7.1a6.1,6.1,0,0,1,.6,5.4,9.4,9.4,0,0,1-1.8,2.4c-5.8,5.3-18,8.1-29.5,8.3-9.1.2-18.4-1.5-26.3-6.2Zm24.6-13c-2.6-1.9-8.2-.5-8.6-4.1h-.4a7.2,7.2,0,0,1-2-.5h.1a5.5,5.5,0,0,1,1.8,2.2,5.4,5.4,0,0,0,4.2,2.9c1.9.2,6.7,2.8,6.7,5v-4a22.2,22.2,0,0,1,.2,4c.1-2.2,4.8-4.8,6.7-5a5.3,5.3,0,0,0,4.2-2.9c.7-1.4,2-2.2,2.3-2.9a4.8,4.8,0,0,1-3.1,1.1,1.7,1.7,0,0,0-.2.5c-1.2,3-5.9,1.6-8.2,3.4l-1.3,1.2-.6.3-.5-.2A10.9,10.9,0,0,1,125.5,149.9Z"/><path class="cls-8" d="M127.2,134.3h0c-.7-.8-3.3-2-7.1-1a8.7,8.7,0,0,0-4.8,3.2c-1.3,1.6-2.6,5.3-1,7.2,0,.1.1.1.1.2s-1.3-4.2,1.8-7.1,8.6-3.6,11.2-1.3c0,0,3.5-3,8.8-.6,3.2,1.4,4.4,5,4.1,8.7,1.4-2,.1-5.5-1.1-7.1a9.1,9.1,0,0,0-4.8-3.2c-3.8-1-6.4.2-7.1,1Zm-3.9-2.6a1,1,0,0,1,1.1-1,57.3,57.3,0,0,0,6.2.1,1.1,1.1,0,0,1,1.1.9h.5c-.2-1.6-.8-1.4-2.4-1.3h-4.2c-1.8,0-2.7-.5-2.8,1.3Zm-23.2,21.1c0-.2.1-.5.1-.7a1.1,1.1,0,0,1,.1-.5c-1.7-.8-2.6.2-3.4,1.4l-.3.5c2.9-3.2,1.4,3.6,9.3,5.9-2.9-1.2-5.8-3.3-5.8-6.6Zm54-.9a.9.9,0,0,1,.1.5,6.5,6.5,0,0,1,3.7.6,2.8,2.8,0,0,0-3.8-1.1Zm-1,1.3c-2.9-8.2-7.9-11.8-11.2-13.3l-.3-1.1a19.2,19.2,0,0,1,11.3,12.7,3.5,3.5,0,0,1,.2,1.7Zm-51.3.6a3.8,3.8,0,0,1,.1-3.6,21.8,21.8,0,0,1,10.9-11.4,9.1,9.1,0,0,0-.3,2.3A18.1,18.1,0,0,0,101.8,153.8Z"/><path class="cls-7" d="M99.2,118.1l4.8-.2c-1.4-3.6,16.3-12.3,23.7-3.4a22.1,22.1,0,0,1,21-2.4,15.4,15.4,0,0,1,5.6,3.5c.7,1.3-.2,2.2-1.3,2.8a24.3,24.3,0,0,1,2.7,0,2,2,0,0,1,0,1.1,5.4,5.4,0,0,1,4.3,2.8c.7,2.1-5.1,2.6-9.3,2.7a61.5,61.5,0,0,1,11.5,1.7,20.6,20.6,0,0,0-1.7-6.7c-2.1-4.7-6.9-8-12-9.7-3.5-1.2-17.9-3.7-20.9,2.6a10.8,10.8,0,0,0-1.6-2,7.8,7.8,0,0,0-5-1.9c-5.2-.4-14.4,1.8-21.8,9.1Zm-1.4,7.3,1.8.2-5.7.4c0-.4.1-1.2.1-2.4h0l.3-.2a7.4,7.4,0,0,1,2.3-2s-1.7,3.1,1.2,4.1Zm14.4.1c4.5-.2,10.8,1.8,15,1.9,2.2,0,9.5-2,17.2-2.1-6.1.9-10.5,2.4-12.9,3.8a81.9,81.9,0,0,1-8.6,0C121.1,127.5,115.5,126.1,112.2,125.5Z"/><path class="cls-4" d="M107.6,172.8c8.4,5.6,28.9,7.8,38.2-.5C140.8,181,115.7,181.8,107.6,172.8Z"/><path class="cls-5" d="M111.4,171.7c9.7,5.3,27.9,5.6,35.3-3.8-10.1,3.6-25.9,5.7-41.3-1.3-1.5,1.4-.9,4.7.5,7.9C104.5,169.3,107.5,169.7,111.4,171.7Z"/><path class="cls-1" d="M127,92.3c-14.7,0-29.9,4.1-42,15.4a3.3,3.3,0,0,0,.1,2.1l1.1,2.4c11.7-8.8,26.2-14.1,40.8-14.1s29.2,5.3,41,14.1a21.5,21.5,0,0,1,1.1-2.5,4.7,4.7,0,0,0,0-2.1C157,96.3,141.7,92.3,127,92.3Z"/><path class="cls-1" d="M127,99.2c-14.7,0-29.3,5.6-41,14.6-.4.5-1,3.6,1.2,4.6a65.8,65.8,0,0,1,25.1-12.3c12.5-3.8,24.3-3,36.6,2.1a73.1,73.1,0,0,1,18.3,10.2c2.1-1,1.4-4.1,1-4.7C156.4,104.7,141.8,99.2,127,99.2Z"/><path class="cls-10" d="M138.4,73c3.2,5.9,6.2,10.5,7,11.7A48,48,0,0,0,156.1,82a43.8,43.8,0,0,0-7-5.3A26.7,26.7,0,0,0,138.4,73ZM108.6,84.8c.9-1.3,3.9-5.9,7.1-11.8A25.5,25.5,0,0,0,105,76.9a39.7,39.7,0,0,0-7,5.3A54.7,54.7,0,0,0,108.6,84.8Z"/><path class="cls-8" d="M127.1,99.6c16.3,0,30.8,7.4,41.5,15.6a2.5,2.5,0,0,0-.4-1.5c-11.8-9-26.4-14.5-41.2-14.5s-29.3,5.6-41,14.6a4.3,4.3,0,0,0-.4,1.7C85.6,115.9,101.9,99.6,127.1,99.6Z"/><path class="cls-11" d="M112.3,106.1c12.5-3.8,24.3-3,36.6,2.1a73.1,73.1,0,0,1,18.3,10.2,2.5,2.5,0,0,0,1.4-2.3c-1.1.2-6.4-3.4-6.4-3.4-33.8-21.6-61.6-4.9-69-.4s-7.5,4.1-7.5,4.1a2.8,2.8,0,0,0,1.5,2A65.8,65.8,0,0,1,112.3,106.1Z"/><path class="cls-11" d="M81.5,84.6,89.3,103c11.1-8.1,24.6-11.1,37.7-11.2s25.5,2.7,36.4,10.1l7.2-17.3a23,23,0,0,1-21.7,8.5c-14.1-2.2-20.2-7.2-22.8-16.4-2.6,9.2-8.8,14.2-22.9,16.4S81.5,84.6,81.5,84.6Z"/><path class="cls-8" d="M86.2,112.2l1.1-.8a19.1,19.1,0,0,1-.7-3c-.2-2,12.1-12.3,31.1-15.5A56.9,56.9,0,0,0,85,107.7a3.3,3.3,0,0,0,.1,2.1l1.1,2.4Zm81.8,0-1.1-.9a15.4,15.4,0,0,0,.7-2.9c.2-2-12.1-12.4-31.1-15.6,11.7,1.5,23.2,5.9,32.7,14.8a3.1,3.1,0,0,1-.1,2.1C168.6,110.7,168.3,111.6,168,112.2Z"/><path class="cls-8" d="M100,82.9c1.7-2.4,5.8-6.8,15.7-9.9A25.5,25.5,0,0,0,105,76.9a39.7,39.7,0,0,0-7,5.3l2,.7Zm49.1-6.2A26.7,26.7,0,0,0,138.4,73s10,2.5,15.8,9.7l1.9-.7A43.8,43.8,0,0,0,149.1,76.7Z"/><path class="cls-12" d="M140.8,77.4c2.2,3.7,4,6.4,4.6,7.3a34.7,34.7,0,0,0,5.6-1.1,24.3,24.3,0,0,0-10.2-6.2Zm-27.8.4a29.7,29.7,0,0,0-10.5,5.8c2,.5,4.1.9,6.1,1.2S110.9,81.3,113,77.8Z"/><path class="cls-4" d="M165,96.6a3.4,3.4,0,0,1-4.7.7,3.5,3.5,0,0,1-.6-4.7C163.2,88.4,168.6,92.3,165,96.6Z"/><path class="cls-10" d="M164.2,92.2a2.9,2.9,0,1,1-3.5,4.5,2.9,2.9,0,0,1-.5-4A2.9,2.9,0,0,1,164.2,92.2Z"/><path class="cls-12" d="M164.7,96.3a3.8,3.8,0,0,1-3.1-.7,3.9,3.9,0,0,1-1.5-2.7,2.9,2.9,0,0,0,4.6,3.4Z"/><path class="cls-8" d="M164,92.6a2.4,2.4,0,0,1,.4,3.3l-.2.2a2.5,2.5,0,0,0-.5-3.2,2.4,2.4,0,0,0-3.2.3c0-.1.1-.1.1-.2A2.4,2.4,0,0,1,164,92.6Z"/><path class="cls-4" d="M87.3,96.8a3.3,3.3,0,0,0,4.6.6,3.4,3.4,0,0,0,.7-4.7C89.3,88.4,83.6,92,87.3,96.8Z"/><path class="cls-10" d="M88.1,92.3a2.9,2.9,0,0,0-.6,4,3,3,0,0,0,4.1.6,3.1,3.1,0,0,0,.5-4.1A3,3,0,0,0,88.1,92.3Z"/><path class="cls-12" d="M87.6,96.5a4.3,4.3,0,0,0,3.1-.8A3.9,3.9,0,0,0,92.2,93a3,3,0,0,1-.6,3.9A3,3,0,0,1,87.6,96.5Z"/><path class="cls-8" d="M88.3,92.7a2.4,2.4,0,0,0-.4,3.3.2.2,0,0,0,.2.2,2.2,2.2,0,0,1,.5-3.1,2.3,2.3,0,0,1,3.2.2c0-.1-.1-.1-.1-.2A2.5,2.5,0,0,0,88.3,92.7Z"/><path class="cls-8" d="M85.9,145.3c-3.9-9.2.1-16.6,10.7-17-14.1,2.1-13.5,15.3-4.8,23.6a9.7,9.7,0,0,0,3,2.2C92.6,154,87.3,148.6,85.9,145.3Z"/><path class="cls-8" d="M168.5,144.8c1.7-4,2.1-8.5.3-11.7-3.5-6.1-16.9-6.5-22.2-5.6,6.4-.3,17.5.7,20.7,5.5s.4,13.5-4.7,18.4a11.1,11.1,0,0,1-3,2.2C161.8,153.5,167.1,148.1,168.5,144.8Z"/><path class="cls-6" d="M84.5,131.5c.1-2.5-.4-5.2-3-5.9s-6.2.1-7.3,1.8c-4.5,7,7,22.8,13.4,23.5-2-1.8-2.7-4.7-3.9-6.4-4.2-.8-9.6-14.2-.2-14.9-7.6,1.8-3.6,12.2.1,12.8C82.4,138.5,82.5,134.6,84.5,131.5Z"/><path class="cls-7" d="M73.5,140.6c-2.6-4.6-2.8-8.5-3.2-14.2a4.6,4.6,0,0,1,4.5-4.7,4.2,4.2,0,0,0-4.9,2.5c-1.5,3.3.5,12.5,2.8,17.6A32,32,0,0,0,95,159.7a8.3,8.3,0,0,1-.5-4.8c-3-.4-3.6-1.2-4.7-2.6C85.7,153.1,78.2,149,73.5,140.6Z"/><path class="cls-8" d="M87.2,123.9v-1.3a2.5,2.5,0,0,0-.1-.8l-1-.5c-4.4-1.8-9.8-4.2-14.4-1.3a6.4,6.4,0,0,0-3,4.3c.8-2.5,3.5-5.2,8.9-4.3a26.1,26.1,0,0,1,9.6,3.9Zm80.4-2.2v1.9a23.2,23.2,0,0,1,8.8-3.5c5.4-1.1,8.7,1,9.7,5.5-.3-2.4-1.2-4.4-3.2-5.6-4.6-2.9-10-.5-14.4,1.3Z"/><path class="cls-4" d="M161.8,121.8l-2.4-3.9c.5.6.3,1.2-.4,1.1-4.2-1.9-7.3-2.6-11.9.4a3.5,3.5,0,0,0-5.4.9c-2.9-1-6.8,3.5-5.6,6.2.4-2,3-5.9,5.4-5.5,0,.3-.1.4-.1.6a2,2,0,0,0-.1.7,5.5,5.5,0,0,0,.3,1.6c.1-.6.2-1,.3-1.4.9-2.9,4.3-3.7,5.6-1a14.2,14.2,0,0,1,.5,1.6v.5c.1-.1.1-.2.1-.4a1.4,1.4,0,0,0,0-.9,3.7,3.7,0,0,0-.5-2C150.9,118,156.9,117.6,161.8,121.8Z"/><path class="cls-4" d="M109.9,119.6a4.1,4.1,0,0,1,5,.5l.2.2c2.9-1,6.8,3.5,5.5,6.2-.3-2-2.9-5.9-5.4-5.5a4.2,4.2,0,0,0,.2.6c0,.3.1.5.1.7a5.5,5.5,0,0,1-.3,1.6c-.1-.6-.2-1-.3-1.4l-.3-.7c-.1-.4-.3-.7-.4-1.1a4,4,0,0,0-4-.4,3.1,3.1,0,0,0-.9,1.2,14.2,14.2,0,0,0-.5,1.6,1.1,1.1,0,0,0-.1.5c0-.1-.1-.2-.1-.4v-.9a7.2,7.2,0,0,1,.5-2c-3.1-1.5-11.3-1.8-15.3,3.5.1-.4,1.3-3.5,1.4-3.9,4.7-3.6,12.1-1.9,14.8-.4Z"/><path class="cls-8" d="M108.8,121.3c-.9-1.5-4.5-2-6.7-1.8a13.4,13.4,0,0,1,7,.8,6.2,6.2,0,0,0-.3,1Zm39.2,0c3.2-1.9,5.9-2.8,12.5-.4-4.5-3.2-9.6-3-12.9-.6a2.3,2.3,0,0,1,.4,1Zm-6.3,1.9h0a1.4,1.4,0,0,1,.2-.7c.9-3,4.3-3.7,5.6-1,.1.4.3.8.4,1.2a4.1,4.1,0,0,0-3.5-1.9,3.1,3.1,0,0,0-2.7,2.4Zm-5.4,2.7s2.3-4.4,5.1-4.3c0-.2.1-.3.1-.6-2.2-.4-4.6,2.8-5.2,4.9Zm-15.7.6s-1.6-4-5.2-4.5v-.4a4.2,4.2,0,0,1-.2-.6c2.5-.4,5.1,3.5,5.4,5.5Zm-5.5-3.3h0a4.4,4.4,0,0,0-5.4-2.4,1.2,1.2,0,0,1,.5-.5,4,4,0,0,1,4,.4c.1.4.3.7.4,1.1l.3.7A2.5,2.5,0,0,0,115.1,123.2Z"/><path class="cls-7" d="M149,114.5a2,2,0,1,1-2.5,1.3A1.9,1.9,0,0,1,149,114.5Z"/><path class="cls-7" d="M123.1,126.2a.9.9,0,0,1,.7,1.3,1.1,1.1,0,0,1-1.3.7,1.2,1.2,0,0,1-.7-1.3A1,1,0,0,1,123.1,126.2Z"/><path class="cls-7" d="M125.5,125a.7.7,0,0,1,.4.8.7.7,0,0,1-.8.5.7.7,0,0,1-.5-.9A.7.7,0,0,1,125.5,125Z"/><path class="cls-7" d="M122.5,122.7a1,1,0,0,1-.6,2,1,1,0,0,1-.7-1.3A.9.9,0,0,1,122.5,122.7Z"/><path class="cls-4" d="M186.9,121.9a7,7,0,0,1-5,3.7c-.5-.5-1.5-2.2-2.1-2.7,1.3-.3,2.5-1.8,2.3-4.3C183.8,119.5,185.2,121.1,186.9,121.9Z"/><path class="cls-1" d="M179.7,124s2.7-.3,3.2-3.9-2.5-3.8-4.4-3.1h-3a4.9,4.9,0,0,1,2.4-2c2.4-1.1,5.9-.5,7.1,2.6S184.6,125.5,179.7,124Z"/><path class="cls-8" d="M183.2,123.3l-.5.4a2.4,2.4,0,0,1-1.1.6,3.2,3.2,0,0,0,1.4-.3l.5-.3c1.9-1.2,2.2-4,1.5-6a4.9,4.9,0,0,0-4.5-3.1A5.3,5.3,0,0,1,183.2,123.3Z"/><path class="cls-11" d="M183,120a5.4,5.4,0,0,0,0-1.8,3.1,3.1,0,0,0-4.1-2.4,4.6,4.6,0,0,0-2,1.2h1.6a3.2,3.2,0,0,1,4.5,3Z"/><path class="cls-4" d="M87.5,120.1c-3.2.2-3.7-4.8-2.5-6.8l-1.3-2.7h0a5.4,5.4,0,0,1-.1-2.9c-.5-1.3-2.9-7.9-5.9-15.4S71.3,76.4,67.5,71.4s-5.1-7.7-6-13.8a64.3,64.3,0,0,1-.4-7.7c1.4,2.6,2.8,3.2,5.4,4.1s3.6,1.3,4.5,2.9.6,2.9.6,4.7,0,3.4.6,4h0A72.9,72.9,0,0,0,90.4,78.9a29.2,29.2,0,0,0,3.1-9.1A51.9,51.9,0,0,0,94.4,59a1.9,1.9,0,0,0-.5-1.3,6.7,6.7,0,0,1-1-2.5c-.7-4.1,1-8.7.7-13a19.1,19.1,0,0,0,2.5,5.6,14.2,14.2,0,0,1,2,4.3,13.4,13.4,0,0,1-.1,2.8,6.4,6.4,0,0,0,.1,3.1h.1c2.7,5.6,6.9,13.6,13.6,14.2h0a24.1,24.1,0,0,1,4.8-.8,117.3,117.3,0,0,0,5.2-11.3c1-2.5,4.7-10.9,2-13.3-5.1-4.2-2.3-9.1.1-13.8a27,27,0,0,0,2.7-9.6,41.1,41.1,0,0,0,3.4,9.4c2.3,4.8,5.2,9.8.4,13.7-2.7,2.3,1.3,12,2,13.6a117,117,0,0,0,5.1,11.3,16.2,16.2,0,0,1,4.9.8h0c6.6-.7,10.9-8.9,13.6-14.6h0a6.3,6.3,0,0,0,.2-3.1,6.7,6.7,0,0,1-.1-2.8,13.4,13.4,0,0,1,1.9-4.4,22.2,22.2,0,0,0,2.4-5.7c-.2,4.3,1.5,8.8.9,13a6.4,6.4,0,0,1-1.1,2.6,2.5,2.5,0,0,0-.5,1.3,52.3,52.3,0,0,0,.9,10.9c.6,3.7,1.7,7.1,3.1,9.1a74.4,74.4,0,0,0,18.2-13.7h0c.6-.6.6-2.3.6-4.1s0-3.7.6-4.8,2.7-2.2,4.5-2.9,4-1.6,5.4-4.2a66.3,66.3,0,0,1-.4,7.8c-.8,6.1-1.2,9-6,14.1s-7.3,13.6-10.3,21.2-5.3,14.2-5.8,15.6a4.9,4.9,0,0,1,0,2.9h-.1l-1.1,2.8c1.2,1.9.9,7-2.4,6.8C153.4,109.7,140,106,127,106s-26.3,3.8-39.5,14.1Zm32.2-51.5a161.4,161.4,0,0,1-10.1,18.5c-7.5-.9-14.9-3.9-21.4-7.4A73.4,73.4,0,0,1,71.3,67h0c-1-1-1-3.1-.9-5.1s0-3.2-.5-3.9-2.3-1.9-4-2.4a14.2,14.2,0,0,1-3.5-1.7c.1,1.1.3,2.1.4,3.1.8,5.6,1.1,8.3,5.4,12.7s6.7,10.2,9.4,17,5.2,14.1,7.3,19.9C96.8,95.7,112.2,91.9,127,91.8s30.3,3.8,42.2,14.7c2.1-5.9,4.5-13.3,7.2-20.2S182.2,73,186,69s4.6-7.3,5.4-13c.1-1,.2-2.1.4-3.2a10.9,10.9,0,0,1-3.6,1.7c-1.7.6-3.3,1.2-4,2.5a11.1,11.1,0,0,0-.4,4c0,2.1.1,4.2-.9,5.2h0a76.1,76.1,0,0,1-17.1,13.1c-6.4,3.6-13.6,7.1-21.1,8.1a166.8,166.8,0,0,1-10.3-18.8c-2-4.1-9.5-19.1-4.8-23s1.3-7.9-.8-12.2a25.3,25.3,0,0,1-1.8-4.2,27.6,27.6,0,0,1-2,4.3c-2.1,4.3-4.7,8.7-.4,12.3s-3.8,20.6-4.9,22.8ZM85,107.7a3.3,3.3,0,0,0,.1,2.1l1.1,2.4c11.7-8.8,26.2-14.1,40.8-14.1s29.2,5.3,41,14.1a21.5,21.5,0,0,1,1.1-2.5,4.7,4.7,0,0,0,0-2.1C157,96.3,141.7,92.3,127,92.3s-29.9,4.1-42,15.4Zm1,6.1c-.4.5-1,3.6,1.2,4.6A63.1,63.1,0,0,1,127,104.5c13.2,0,26.8,3.6,40.2,13.9,2.1-1,1.4-4.1,1-4.7-11.8-9-26.4-14.5-41.2-14.5s-29.3,5.6-41,14.6Zm75.7-34.2A90.4,90.4,0,0,1,159.5,69a48.9,48.9,0,0,1-.7-10.7,2.7,2.7,0,0,1,.7-1.9,4.2,4.2,0,0,0,.8-2.2c.5-2.6-.3-5.5-.5-8.2a21.2,21.2,0,0,1-1.1,2.1,11.8,11.8,0,0,0-1.7,4,9.2,9.2,0,0,0,.1,2.3,7.4,7.4,0,0,1-.3,3.9h0c-2.6,5.4-6.4,12-11.4,14.9a27.4,27.4,0,0,1,4.2,2.1,44.5,44.5,0,0,1,7.9,6.1c1.4-.5,2.8-1.2,4.2-1.8ZM156.1,82a43.8,43.8,0,0,0-7-5.3A26.7,26.7,0,0,0,138.4,73c3.2,5.9,6.2,10.5,7,11.7A48,48,0,0,0,156.1,82ZM92.3,79.9l4.2,1.8a44.6,44.6,0,0,1,8-6.2,27.8,27.8,0,0,1,4.2-2.2c-5-2.8-8.8-9.3-11.4-14.6h0a6.5,6.5,0,0,1-.2-3.9,9.1,9.1,0,0,0,.1-2.3,15.3,15.3,0,0,0-1.8-3.9l-1.2-2c-.1,2.7-.9,5.6-.4,8.2a3.4,3.4,0,0,0,.9,2,4.7,4.7,0,0,1,.7,2,54.8,54.8,0,0,1-.8,10.5,90.6,90.6,0,0,1-2.3,10.6ZM98,82.2a54.7,54.7,0,0,0,10.6,2.6c.9-1.3,3.9-5.9,7.1-11.8A25.5,25.5,0,0,0,105,76.9,39.7,39.7,0,0,0,98,82.2Z"/><path class="cls-8" d="M127.3,109.1c-1.5-2.1-6.6-4.8-12.1-2.3,3.7-2.6,10.5-1.6,12.1,2.3Zm-11.1-1.9c6.1-.9,9,1.8,10.8,3.8-1.2-3.3-6-5.4-10.8-3.8Zm12.3.2s1-2.3,5.1-2.9a4.4,4.4,0,0,0-5.1,2.9Zm0,2.7c.5-3,3.1-5.1,6.9-4.8-3.1.4-4.3,1.5-5.2,2.6,4.3-2.7,7.4-2,11-1C134,105.1,129.9,108.7,128.5,110.1Z"/><path class="cls-7" d="M150.5,154.3a1.1,1.1,0,0,1,.7,1.3,1.2,1.2,0,0,1-1.3.7,1,1,0,0,1-.7-1.3A.9.9,0,0,1,150.5,154.3Z"/><path class="cls-7" d="M150.4,152.4a.7.7,0,1,1-.9.5A.7.7,0,0,1,150.4,152.4Z"/><path class="cls-7" d="M125.1,157.9a1,1,0,0,1,.7,1.3.9.9,0,0,1-1.3.7,1,1,0,1,1,.6-2Z"/><path class="cls-8" d="M107.8,144.9a1.1,1.1,0,0,1,.7,1.3,1,1,0,0,1-2-.6A.9.9,0,0,1,107.8,144.9Z"/><path class="cls-8" d="M111.3,142.6a.7.7,0,0,1,.5.8.8.8,0,0,1-.9.5.7.7,0,0,1-.5-.9A.6.6,0,0,1,111.3,142.6Z"/><path class="cls-8" d="M108.8,142.4a1,1,0,0,1,.7,1.3,1,1,0,0,1-2-.6A1,1,0,0,1,108.8,142.4Z"/><path class="cls-7" d="M126.5,160.1a.6.6,0,0,1-.4,1.2.6.6,0,0,1,.4-1.2Z"/><path class="cls-6" d="M118.9,144.3a1.1,1.1,0,0,0,.1,2.1,4.4,4.4,0,0,0,2.2.7h.8c2.3,0,4.3-.1,5.2-2.6a4,4,0,0,0,2,2.2,9.1,9.1,0,0,0,3.3.4h.7a4.5,4.5,0,0,0,2.3-.7,1.1,1.1,0,0,0,.1-2.1s-4.1-.2-4.6-3.3c0,0,1.3,1.5,2.1,1.5-1.6-1-2.7-3.8-1-4.5s4.9,1,6,2.4a2.3,2.3,0,0,1,.3,2.1c0,.2-.1.3-.1.4.2-2-1.9-3.8-3.7-4.1l-.2.3c2,.5,4,3.3,3,5.4a2.7,2.7,0,0,0,1.3-4.5,6.8,6.8,0,0,0-4.7-2.9c-3.1-.4-4.1,1.4-6.7,1.4s-2.5-.8-4.6-1.2-6.7,1.5-7.1,4.1.9,3,1.5,3.1c-1.2-2.6,2.3-5.9,4.6-5.5-1.8-1-5.6,1.2-5.3,3.9,0-.1-.1-.2-.1-.4a2.1,2.1,0,0,1,.3-2.1c1.1-1.4,4.3-3.1,6-2.4s.6,3.5-1,4.5c.8,0,2.1-1.5,2.1-1.5C123.2,144.1,118.9,144.3,118.9,144.3Z"/><path class="cls-4" d="M125,149.6c1.1.9,2,2.5,2.3,11.9.2-8-.1-11.3,2.8-12.3C128.2,149,126.3,148.1,125,149.6Z"/><path class="cls-4" d="M127.1,75.2l1.7,2.8c.5.6.9,1.3,1.4,2a5.2,5.2,0,0,1,1.1,2.9,4.3,4.3,0,0,1-1.1,2.5l-1.3,1.5-1.9,2-.4.4-.5-.4a18,18,0,0,0-1.9-2l-1.3-1.5a5.1,5.1,0,0,1-1.1-2.5A5.3,5.3,0,0,1,123,80l1.3-2,1.7-2.8.6-1Z"/><path class="cls-10" d="M126.6,88.2c-5.2-5.8-4-4.2,0-11.5C130.5,84,131.7,82.4,126.6,88.2Z"/><path class="cls-8" d="M126.6,77.8a9.5,9.5,0,0,0-1,1.7,16.3,16.3,0,0,0-1.1,1.7l-.6,1c1-1.5,2.2-3.2,2.7-3.4s1.4,1.3,2.6,3.4l-.5-1a16.3,16.3,0,0,1-1.1-1.7Z"/><path class="cls-12" d="M123.2,83.2c-.1,1.2.9,2.3,3.4,5,1.7-1.9,2.7-3,3.1-4a1.7,1.7,0,0,0,.3-1,1.4,1.4,0,0,1-.5.7,4,4,0,0,1-3,1C123.6,84.9,123.2,83.2,123.2,83.2Z"/></g></svg>