<svg width="200px" height="200px" xmlns="http://www.w3.org/2000/svg" viewBox="0 0 200 200"><defs><style>.cls-1{isolation:isolate;}.cls-2{fill:#ff74f5;}.cls-3{fill:#3b2314;}.cls-4,.cls-6{mix-blend-mode:multiply;}.cls-5,.cls-6{fill:#fccbaa;}.cls-7{fill:#be1e2d;stroke-linecap:round;stroke-miterlimit:10;stroke-width:1.24px;}.cls-19,.cls-20,.cls-7{stroke:#3b2314;}.cls-8{fill:#f8a576;}.cls-9{fill:#faaf40;}.cls-10{fill:#00a69c;}.cls-11{fill:#cd383a;}.cls-12{fill:#d0d2d3;}.cls-13,.cls-18,.cls-22{fill:#fff;}.cls-13,.cls-23{opacity:0.3;}.cls-14{fill:#8bc53f;}.cls-15{fill:#929497;}.cls-16{fill:#5661ab;}.cls-17{fill:#ffc609;}.cls-18{opacity:0.6;}.cls-19,.cls-20{fill:none;stroke-linecap:square;stroke-linejoin:round;}.cls-19{stroke-width:0.51px;}.cls-20{stroke-width:0.45px;}.cls-21{fill:#26a9e0;}</style></defs><g class="cls-1"><g id="Layer_2" data-name="Layer 2"><path class="cls-2" d="M135.5,178.6c-4.7,0-13.7-3.8-16.6-5l-.8-.4h0c-2.1-.7-10.1-5.1-10.2-5.1-7.1-4-11.7-7.4-13.7-10.3s-2.5-7.7-1-12.6c-1.5-3.9-3.5-15.4-3.8-18.5-.8-11.7-1-25,6.6-33.5,5-5.5,12.6-8.4,23.3-8.8h1.2c17.9,0,29.3,14.4,33,41.5,4.6,3,7.5,7,7.8,11.1.5,8.1-8.6,26-9,26.8-2.9,9.2-8.4,14.3-16.3,14.8Z"/><path class="cls-3" d="M120.5,85.4c23.2,0,29.9,24.7,32.1,41.1,4.1,2.6,7.4,6.4,7.7,10.5.5,8-8.9,26.3-8.9,26.3-2.5,8-7.2,13.8-15.4,14.3h-.5c-5.4,0-16.9-5.4-17.1-5.4h0s-18.8-8.5-23.4-15c-2.2-3.3-2.2-7.8-.8-12.2-1.5-3.3-3.6-15.3-3.8-18.4-1.3-18.8-1.1-40.2,28.9-41.3h1.2m0-2h-1.3c-10.9.4-18.8,3.4-23.9,9.2-7.9,8.7-7.7,22.2-6.8,34.2.2,3.1,2.1,14.1,3.7,18.4-1.5,5.1-1,9.9,1.2,13.2,4.8,6.9,23.4,15.3,24.2,15.7l1,.4h0c5.2,2.2,12.5,5.1,16.9,5.1h.6c8.3-.6,14.1-5.8,17.1-15.5,1-1.9,9.6-19.1,9-27.2-.3-4.2-3.1-8.4-7.8-11.5-3.9-27.5-15.6-42-33.9-42Z"/><g class="cls-4"><path class="cls-5" d="M148.6,127.2a51.2,51.2,0,0,1,6.8,1.4,18.6,18.6,0,0,0-2.8-2.1c-.2-1.1-.3-2.2-.5-3.4A11.5,11.5,0,0,1,148.6,127.2Z"/></g><g class="cls-4"><path class="cls-5" d="M105.6,141.9c-2.1-5.6-5.2-11.1-6.3-17a108.3,108.3,0,0,1-2.1-31.1c-7.8,8.2-7.6,20.8-6.8,32.9.2,3.1,2.3,15.1,3.8,18.4-1.4,4.4-1.4,8.9.8,12.2s7,6.2,11.8,9C104.8,163.3,91.4,147.3,105.6,141.9Z"/></g><path class="cls-6" d="M120.6,143.7s2.3,8.4,10.9,6.8,10.3-2.4,10.5-10.2S120.6,143.7,120.6,143.7Z"/><path class="cls-7" d="M84.8,113.2s-2.7,5.9-2.2,10.6,7,10.9,11.1,14.3S89,122,90.2,114.3s-4.9-1.9-4.9-1.9Z"/><path class="cls-8" d="M96,138.3s-3.6-1.7-4-2.3-1.4-4.4-2-5.8c-3-7-11.8-2.4-12.4,3.5-.8,8.9,7.8,19.7,12.9,18.5s4-7.9,4-7.9"/><path class="cls-3" d="M96,138.3l-2.4-1-1.3-.7-.4-.3h-.2v-.2l-.4-.7a10.7,10.7,0,0,1-.7-1.9,14.6,14.6,0,0,1-.7-1.9l-.4-1-.6-1-.6-.7-.9-.7a5,5,0,0,0-4.3.1,8.8,8.8,0,0,0-3.6,3.3,6.8,6.8,0,0,0-.7,2.3v1.5c0,.5.1.9.1,1.3a20,20,0,0,0,1.5,5.3,23.7,23.7,0,0,0,2.6,4.7,17.2,17.2,0,0,0,3.5,3.6,6.1,6.1,0,0,0,3.8,1.5h1l.7-.5a3.4,3.4,0,0,0,1.2-1.2,8.5,8.5,0,0,0,1.1-2.7,13.1,13.1,0,0,0,.4-2.7v.7a6.6,6.6,0,0,1,0,2,10.1,10.1,0,0,1-.8,3.1,4,4,0,0,1-1.3,1.6,2.6,2.6,0,0,1-1,.7l-.5.2h-.6a6.7,6.7,0,0,1-4.9-1.4,16,16,0,0,1-4-3.8,21.6,21.6,0,0,1-4.7-10.9,4.3,4.3,0,0,1-.1-1.6v-1.4a7.6,7.6,0,0,1,1.1-3.2,8.7,8.7,0,0,1,4.6-4.1,6.5,6.5,0,0,1,5.8.3l1.1.9.9,1.2.5,1a7,7,0,0,1,.3,1.2,16,16,0,0,1,.5,2.1c.2.6.3,1.2.5,1.7l.3.8v.2h.1l.2.2,1.2.8Z"/><path class="cls-9" d="M53.2,94.2a1.1,1.1,0,0,1-.9-.4,39,39,0,0,1-7.5-13.7c-3.2-10.6-2.2-21.8,2.9-30.7s13.7-15.2,25.2-18a30.4,30.4,0,0,1,7.3-.9c14.5,0,27.3,10,31.9,25,2.2,7.2,9.3,25.5,9.4,25.7a1.2,1.2,0,0,1-.1,1,.9.9,0,0,1-.8.6L88.8,91.9h-.3l-.7-.2a2.1,2.1,0,0,1-.6-1c-2.1-20.4-6.7-42.5-10.4-42.5A30.7,30.7,0,0,0,57.3,63.4a38.4,38.4,0,0,0-2.9,29.2,1.2,1.2,0,0,1-.6,1.5Z"/><path class="cls-3" d="M80.2,31.7c13.3,0,26.1,9.2,30.7,24.2,2.2,7.3,9.4,25.7,9.4,25.7L88.5,90.7S83.9,47.1,76.8,47.1h-.5C55.1,52.8,47.8,75.4,53.2,93A38.7,38.7,0,0,1,46,79.7c-5.4-17.6.8-40.5,27.2-47.1a28.6,28.6,0,0,1,7-.9m0-2.5h0a33,33,0,0,0-7.6,1c-11.8,2.9-20.8,9.3-26,18.6s-6.3,20.8-3,31.7a39.6,39.6,0,0,0,7.7,14.1,2.5,2.5,0,0,0,1.9.9,1.7,1.7,0,0,0,1.2-.4,2.3,2.3,0,0,0,1.2-2.9A37.2,37.2,0,0,1,58.3,64,29.6,29.6,0,0,1,76.7,49.6C79.6,51.7,83.8,70.4,86,91a2.7,2.7,0,0,0,1.1,1.8,2.3,2.3,0,0,0,1.4.4h.6L121,84a2,2,0,0,0,1.5-1.2,2.2,2.2,0,0,0,.1-2.1c0-.1-7.1-18.4-9.3-25.5-4.8-15.5-18.1-26-33.1-26Z"/><path class="cls-10" d="M53.2,94.2a1.1,1.1,0,0,1-.9-.4,39,39,0,0,1-7.5-13.7c-3.2-10.6-2.2-21.8,2.9-30.7s13.7-15.2,25.2-18a30.4,30.4,0,0,1,7.3-.9c14.5,0,27.3,10,31.9,25,2.2,7.2,9.3,25.5,9.4,25.7a1.2,1.2,0,0,1-.1,1,.9.9,0,0,1-.8.6L101,88.4h-.3a1.3,1.3,0,0,1-1.2-.8c-12.9-36-19.7-39.9-22-39.9a2.3,2.3,0,0,0-1.5.6l-.5.2c-16.9,7-26.4,26.7-21.1,44a1.2,1.2,0,0,1-.6,1.5Z"/><path class="cls-3" d="M80.2,31.7c13.3,0,26.1,9.2,30.7,24.2,2.2,7.3,9.4,25.7,9.4,25.7l-19.6,5.6C88,51.8,80.9,46.6,77.5,46.6a5.7,5.7,0,0,0-2.5.9C57,54.8,47.9,75.7,53.2,93A38.7,38.7,0,0,1,46,79.7c-5.4-17.6.8-40.5,27.2-47.1a28.6,28.6,0,0,1,7-.9m0-2.5h0a33,33,0,0,0-7.6,1c-11.8,2.9-20.8,9.3-26,18.6s-6.3,20.8-3,31.7a39.6,39.6,0,0,0,7.7,14.1,2.5,2.5,0,0,0,1.9.9,1.7,1.7,0,0,0,1.2-.4,2.3,2.3,0,0,0,1.2-2.9c-5.1-16.7,4-35.7,20.4-42.4l.7-.4a1.3,1.3,0,0,1,.8-.3c.7,0,7.3,1.1,20.8,39a2.6,2.6,0,0,0,2.4,1.6h.7L121,84a2,2,0,0,0,1.5-1.2,2.2,2.2,0,0,0,.1-2.1c0-.1-7.1-18.4-9.3-25.5-4.8-15.5-18.1-26-33.1-26Z"/><path class="cls-9" d="M53.2,94.2a1.1,1.1,0,0,1-.9-.4,39,39,0,0,1-7.5-13.7c-3.2-10.6-2.2-21.8,2.9-30.7s13.7-15.2,25.2-18a30.4,30.4,0,0,1,7.3-.9c14.5,0,27.3,10,31.9,25,2.2,7.2,9.3,25.5,9.4,25.7a1.2,1.2,0,0,1-.1,1,.9.9,0,0,1-.8.6L88.8,91.9h-.3l-.7-.2a2.1,2.1,0,0,1-.6-1c-2.1-20.4-6.7-42.5-10.4-42.5A30.7,30.7,0,0,0,57.3,63.4a38.4,38.4,0,0,0-2.9,29.2,1.2,1.2,0,0,1-.6,1.5Z"/><path class="cls-3" d="M80.2,31.7c13.3,0,26.1,9.2,30.7,24.2,2.2,7.3,9.4,25.7,9.4,25.7L88.5,90.7S83.9,47.1,76.8,47.1h-.5C55.1,52.8,47.8,75.4,53.2,93A38.7,38.7,0,0,1,46,79.7c-5.4-17.6.8-40.5,27.2-47.1a28.6,28.6,0,0,1,7-.9m0-2.5h0a33,33,0,0,0-7.6,1c-11.8,2.9-20.8,9.3-26,18.6s-6.3,20.8-3,31.7a39.6,39.6,0,0,0,7.7,14.1,2.5,2.5,0,0,0,1.9.9,1.7,1.7,0,0,0,1.2-.4,2.3,2.3,0,0,0,1.2-2.9A37.2,37.2,0,0,1,58.3,64,29.6,29.6,0,0,1,76.7,49.6C79.6,51.7,83.8,70.4,86,91a2.7,2.7,0,0,0,1.1,1.8,2.3,2.3,0,0,0,1.4.4h.6L121,84a2,2,0,0,0,1.5-1.2,2.2,2.2,0,0,0,.1-2.1c0-.1-7.1-18.4-9.3-25.5-4.8-15.5-18.1-26-33.1-26Z"/><path class="cls-11" d="M53.2,94.2a1.1,1.1,0,0,1-.9-.4,39,39,0,0,1-7.5-13.7c-3.2-10.6-2.2-21.8,2.9-30.7s13.7-15.2,25.2-18a30.4,30.4,0,0,1,7.3-.9c14.5,0,27.3,10,31.9,25,2.2,7.2,9.3,25.5,9.4,25.7a1.2,1.2,0,0,1-.1,1,.9.9,0,0,1-.8.6L101,88.4h-.3a1.3,1.3,0,0,1-1.2-.8c-12.9-36-19.7-39.9-22-39.9a2.3,2.3,0,0,0-1.5.6l-.5.2c-16.9,7-26.4,26.7-21.1,44a1.2,1.2,0,0,1-.6,1.5Z"/><path class="cls-3" d="M80.2,31.7c13.3,0,26.1,9.2,30.7,24.2,2.2,7.3,9.4,25.7,9.4,25.7l-19.6,5.6C88,51.8,80.9,46.6,77.5,46.6a5.7,5.7,0,0,0-2.5.9C57,54.8,47.9,75.7,53.2,93A38.7,38.7,0,0,1,46,79.7c-5.4-17.6.8-40.5,27.2-47.1a28.6,28.6,0,0,1,7-.9m0-2.5h0a33,33,0,0,0-7.6,1c-11.8,2.9-20.8,9.3-26,18.6s-6.3,20.8-3,31.7a39.6,39.6,0,0,0,7.7,14.1,2.5,2.5,0,0,0,1.9.9,1.7,1.7,0,0,0,1.2-.4,2.3,2.3,0,0,0,1.2-2.9c-5.1-16.7,4-35.7,20.4-42.4l.7-.4a1.3,1.3,0,0,1,.8-.3c.7,0,7.3,1.1,20.8,39a2.6,2.6,0,0,0,2.4,1.6h.7L121,84a2,2,0,0,0,1.5-1.2,2.2,2.2,0,0,0,.1-2.1c0-.1-7.1-18.4-9.3-25.5-4.8-15.5-18.1-26-33.1-26Z"/><g class="cls-4"><path class="cls-12" d="M103.9,55.3c2.5-1.9,2.8-4.9,3-8.1a34.6,34.6,0,0,1,4,8.7c2.2,7.3,9.4,25.7,9.4,25.7L88.5,90.7S86,67.5,82,54.9h.2C89.3,55,97.9,59.8,103.9,55.3Z"/></g><path class="cls-13" d="M86.3,39.8c6.8,2.7,15.4,15.3,17.2,7.6.5-2.3-6.3-10.3-16.4-13.6a28.3,28.3,0,0,0-22.2,2.3S77.2,36.3,86.3,39.8Z"/><path class="cls-14" d="M106.1,106.1l-.6-.2a1.3,1.3,0,0,1-.6-1c0-.2-1.9-23.7-.8-40.8,1.3-18.8,14.6-35.8,32.2-41.2a30.5,30.5,0,0,1,8.7-1.3c12.4,0,26.1,6.9,33.4,16.8a1.4,1.4,0,0,1-.1,1.6,1.8,1.8,0,0,1-.9.4l-.7-.2A28.9,28.9,0,0,0,160.4,35a25.3,25.3,0,0,0-7.7,1.2,27.3,27.3,0,0,0-17,15.3,35.2,35.2,0,0,0-1.4,25,36.5,36.5,0,0,0,8.8,14.8,1.2,1.2,0,0,1,.2,1.5,1.3,1.3,0,0,1-1.1.6h-.3l-1.6-.2c-9.6,0-33.4,12.6-33.6,12.7Z"/><path class="cls-3" d="M145,22.9c12.3,0,25.6,7,32.4,16.2a30.8,30.8,0,0,0-17-5.4,25.4,25.4,0,0,0-8.1,1.3c-16.2,4.9-24.8,23.7-19.2,41.9a38.6,38.6,0,0,0,9.1,15.3,5.8,5.8,0,0,0-1.9-.2c-10,0-34.2,12.8-34.2,12.8s-1.9-23.4-.7-40.6,13.3-34.6,31.2-40.1a29.4,29.4,0,0,1,8.4-1.2m0-2.5h0a29.9,29.9,0,0,0-9.1,1.3c-18.1,5.6-31.7,23-33,42.3-1.2,17.3.7,40,.7,41a2.8,2.8,0,0,0,1.3,2,2.5,2.5,0,0,0,2.4,0c6.6-3.5,25.3-12.5,33-12.5h1.9a2.6,2.6,0,0,0,2.2-1.3,2.6,2.6,0,0,0-.4-3,34.6,34.6,0,0,1-8.5-14.3A33.8,33.8,0,0,1,136.8,52a25.5,25.5,0,0,1,23.6-15.8,27.5,27.5,0,0,1,15.6,5,2.5,2.5,0,0,0,3.2-.4,2.6,2.6,0,0,0,.2-3.2c-7.5-10.1-21.6-17.2-34.4-17.2Z"/><path class="cls-9" d="M120.4,99.2h-.7a2.1,2.1,0,0,1-.6-1c-.6-10.7-.7-19.8-.4-26.9.9-18.7,13-35.4,29.6-40.5a26.3,26.3,0,0,1,7.6-1.1c6.6,0,13.8,2.3,20.4,6.3l.3.2,1.8,2.3a1.4,1.4,0,0,1-.1,1.6,1.8,1.8,0,0,1-.9.4l-.7-.2A28.9,28.9,0,0,0,160.4,35a25.3,25.3,0,0,0-7.7,1.2,27.3,27.3,0,0,0-17,15.3,35.2,35.2,0,0,0-1.4,25,36.5,36.5,0,0,0,8.8,14.8,1.2,1.2,0,0,1,.2,1.5,1.3,1.3,0,0,1-1.1.6h-.3l-1.6-.2c-3.8,0-10.5,2.1-19.4,5.9Z"/><path class="cls-3" d="M155.9,30.9A37.9,37.9,0,0,1,175.6,37c.7.7,1.2,1.4,1.8,2.1a30.8,30.8,0,0,0-17-5.4,25.4,25.4,0,0,0-8.1,1.3c-16.2,4.9-24.8,23.7-19.2,41.9a38.6,38.6,0,0,0,9.1,15.3,5.8,5.8,0,0,0-1.9-.2c-4.8,0-12.8,2.9-19.9,6a263.1,263.1,0,0,1-.4-26.8c.8-17.2,11.9-34.1,28.6-39.3a25.2,25.2,0,0,1,7.3-1m0-2.5h0a29.7,29.7,0,0,0-8,1.1c-17,5.3-29.5,22.4-30.4,41.6a254.1,254.1,0,0,0,.4,27,2.3,2.3,0,0,0,1.2,2,2,2,0,0,0,1.3.4l1-.2c11-4.8,16.4-5.8,18.9-5.8h1.9a2.6,2.6,0,0,0,2.2-1.3,2.6,2.6,0,0,0-.4-3,34.6,34.6,0,0,1-8.5-14.3A33.8,33.8,0,0,1,136.8,52a25.5,25.5,0,0,1,23.6-15.8,27.5,27.5,0,0,1,15.6,5,2.5,2.5,0,0,0,3.2-.4,2.6,2.6,0,0,0,.2-3.2l-1.9-2.3a1,1,0,0,0-.5-.4c-6.8-4.2-14.3-6.5-21.1-6.5Z"/><g class="cls-4"><path class="cls-15" d="M125,51.1c1.4-5.2,7.2-6.5,12.7-5.6-6,8.3-8.1,19.9-4.6,31.4a38.6,38.6,0,0,0,9.1,15.3h-9.7l-.4.2h-1.8l-.4.2h-.8l-.3.2H128l-.5.2h-.2l-.5.2h-.3l-.5.2h-.3l-.5.2h-.3l-.5.2h-.2l-.6.3h-.2l-.6.3h-.1l-.8.3h0l-1.5.7c-7.7,3.3-14.3,6.8-14.3,6.8s-1.5-18.1-1-34.2C113.9,66.8,122,61.8,125,51.1Z"/></g><path class="cls-13" d="M124,38.9c-7.9,8.4-10.7,25-16.2,21.2-1.7-1.1,2.8-15.7,12.6-24.6,14.7-13.4,26.9-10.9,26.9-10.9S132,30.5,124,38.9Z"/><path class="cls-16" d="M85.4,112h-.2a1.3,1.3,0,0,1-1.1-1.1A35,35,0,0,0,78,94.8c-6.6-9.7-16.9-15.5-27.7-15.5a26.9,26.9,0,0,0-15.2,4.6,28.2,28.2,0,0,0-11.9,21.3,1.4,1.4,0,0,1-1.1,1.2H22a1.2,1.2,0,0,1-1.2-1C17.1,92,22,71.7,35,62.9a44,44,0,0,1,25.2-7.6,47.8,47.8,0,0,1,27,8.2c14.1,9.8,31.2,25.9,31.4,26.1a1.2,1.2,0,0,1,.4,1.1,1.3,1.3,0,0,1-.7.9c-7.9,3.4-28.9,13.6-31.8,19.7A1.4,1.4,0,0,1,85.4,112Z"/><path class="cls-3" d="M60.2,56.5a46.5,46.5,0,0,1,26.3,8.1c14.2,9.8,31.3,25.9,31.3,25.9s-28.7,12.4-32.4,20.3a38.5,38.5,0,0,0-6.3-16.7C72,83.8,61,78.1,50.3,78.1a28.5,28.5,0,0,0-15.9,4.8C26.9,88,22.7,96.2,22,105.1c-3.7-13.5,1.4-32.9,13.7-41.2a43.5,43.5,0,0,1,24.5-7.4m0-2.5a45.5,45.5,0,0,0-25.9,7.8c-13.9,9.4-18.4,30.2-14.8,44a2.5,2.5,0,0,0,2.5,1.8h.2a2.5,2.5,0,0,0,2.2-2.3c.7-8.5,4.8-15.9,11.4-20.3a25.3,25.3,0,0,1,14.5-4.4c10.4,0,20.3,5.6,26.7,14.9a35.9,35.9,0,0,1,5.9,15.6,2.3,2.3,0,0,0,2.1,2.1h.4a2.5,2.5,0,0,0,2.2-1.5c2.4-5.1,20.4-14.4,31.2-19a2.7,2.7,0,0,0,1.4-1.9,2.3,2.3,0,0,0-.7-2.2c-.7-.7-17.4-16.4-31.6-26.2A48.7,48.7,0,0,0,60.2,54Z"/><path class="cls-9" d="M85.4,112h-.2a1.3,1.3,0,0,1-1.1-1.1A35,35,0,0,0,78,94.8c-6.6-9.7-16.9-15.5-27.7-15.5a26.9,26.9,0,0,0-15.2,4.6,28.2,28.2,0,0,0-11.9,21.3,1.4,1.4,0,0,1-1.1,1.2H22a1.2,1.2,0,0,1-1.2-1,19.1,19.1,0,0,1-.7-2.8v-.3C21.5,91.4,26.5,82,33.6,77.1a39.8,39.8,0,0,1,22.6-6.7,47.2,47.2,0,0,1,27.4,8.9c7.3,5.3,15.3,12.2,20.8,17.1a1.5,1.5,0,0,1,.4,1.1,1.4,1.4,0,0,1-.7,1c-9.9,5.3-16.2,9.8-17.6,12.8A1.4,1.4,0,0,1,85.4,112Z"/><path class="cls-3" d="M56.2,71.7a46.4,46.4,0,0,1,26.7,8.6,256.1,256.1,0,0,1,20.6,17.1c-7.8,4.1-16.2,9.3-18.1,13.4a38.5,38.5,0,0,0-6.3-16.7C72,83.8,61,78.1,50.3,78.1a28.5,28.5,0,0,0-15.9,4.8C26.9,88,22.7,96.2,22,105.1a13.1,13.1,0,0,1-.6-2.7c1.1-9.7,5.5-19.2,12.9-24.2a38.2,38.2,0,0,1,21.9-6.5m0-2.5a41.2,41.2,0,0,0-23.3,6.9c-7.4,5-12.6,14.8-14,26v.7a26.4,26.4,0,0,0,.7,3,2.3,2.3,0,0,0,2.4,1.8h.2a2.5,2.5,0,0,0,2.2-2.3c.7-8.5,4.8-15.9,11.4-20.3a25.3,25.3,0,0,1,14.5-4.4c10.4,0,20.3,5.6,26.7,14.9a35.9,35.9,0,0,1,5.9,15.6,2.3,2.3,0,0,0,2.1,2.1h.4a2.5,2.5,0,0,0,2.2-1.5c.6-1.2,3.5-5,17.1-12.2a2.6,2.6,0,0,0,1.3-1.9,2.7,2.7,0,0,0-.8-2.2c-5.5-4.9-13.5-11.9-20.8-17.2a48.4,48.4,0,0,0-28.2-9.1Z"/><g class="cls-4"><path class="cls-12" d="M73.4,81.6c6.1-.5,16,2.9,17.9-2.3,1-2.3-.3-7.2.2-11.1,12.9,9.7,26.3,22.3,26.3,22.3s-6.8,2.9-14.3,6.9h0l-2.2,1.2h0l-.7.4h-.1l-.6.4h-.1l-.6.4H99l-.5.3h-.2l-.5.3h-.3l-.4.3-.3.2-.4.2-.3.2-.4.3h-.3l-.4.3-.3.2-.4.2c-.1.1-.2.1-.2.2l-.4.2-.3.2-.4.3-.2.2a.5.5,0,0,0-.4.2l-.3.2-.3.2-.3.2-.3.3-.3.2-.3.2-.2.2-.3.2-.3.2-.3.2a.2.2,0,0,1-.2.2l-.3.3-.2.2-.3.2-.2.2-.2.2-.2.2-.3.2a.2.2,0,0,1-.2.2l-.2.2v.2l-.3.3h-.1l-.2.3h-.1l-.2.3h-.1c-.1.1-.2.2-.2.3h-.1l-.2.3h0l-.2.4a38.5,38.5,0,0,0-6.3-16.7A38.1,38.1,0,0,0,68.6,83.8,11.1,11.1,0,0,1,73.4,81.6Z"/></g><path class="cls-13" d="M56.6,62.9c11.6-.3,25.8,8.6,26.7,1.9.3-2-13.7-8.3-26.8-6.9-19.8,2.2-26,13-26,13S45.1,63.3,56.6,62.9Z"/><path class="cls-17" d="M180.7,56.2a10,10,0,0,1-2.9-19.6,9.3,9.3,0,0,1,2.9-.5,10,10,0,0,1,9.6,7.1,10.3,10.3,0,0,1-.7,7.7,10,10,0,0,1-5.9,4.8,10.5,10.5,0,0,1-3,.5Z"/><path class="cls-3" d="M180.7,37.4a8.7,8.7,0,0,1,2.6,17.1,7.5,7.5,0,0,1-2.6.4,8.8,8.8,0,0,1-8.4-6.2,8.7,8.7,0,0,1,5.8-10.9,8.2,8.2,0,0,1,2.6-.4m0-2.5a12.6,12.6,0,0,0-3.3.5,11.3,11.3,0,0,0,3.3,22,9.1,9.1,0,0,0,3.3-.5,11.2,11.2,0,0,0,7.5-14.1,11.3,11.3,0,0,0-10.8-7.9Z"/><g class="cls-4"><path class="cls-17" d="M177.3,38.1a8.8,8.8,0,0,0,8.8,14.6l.8-.3a8.6,8.6,0,0,1-3.6,2.1,8.7,8.7,0,0,1-6-16.4Z"/></g><path class="cls-18" d="M187.4,44.1c-1.3-3.4-5.9-6-8.8-4.9a4.3,4.3,0,0,0-2,1.4c.5-1.4,1.5-2,2.9-2.6,2.9-1,7.2,1,8.5,4.3.6,1.7,1,3.7.3,5.1A8.6,8.6,0,0,0,187.4,44.1Z"/><path class="cls-3" d="M183.5,49.5a2.8,2.8,0,0,0,2.1,2.6,2.4,2.4,0,0,0,2.3-2.8c0-1.7-1.3-2.8-2.4-2.5A2.6,2.6,0,0,0,183.5,49.5Z"/><path class="cls-19" d="M179.9,37a17.2,17.2,0,0,1,5.3,17.2"/><path class="cls-3" d="M180.3,50.5a2.7,2.7,0,0,1-.3,3.3c-.9.8-2.5.5-3.5-1s-.5-3,.7-3.5A2.6,2.6,0,0,1,180.3,50.5Z"/><path class="cls-19" d="M176.3,38.2a17.2,17.2,0,0,0,5.2,17.1"/><path class="cls-17" d="M19.2,115.1A10.1,10.1,0,1,1,19.3,95a10.2,10.2,0,0,1,10,10.1,10,10,0,0,1-10,10Z"/><path class="cls-3" d="M19.3,96.3h0a8.8,8.8,0,0,1,0,17.5h-.1a8.8,8.8,0,0,1,.1-17.5m0-2.5a11.3,11.3,0,1,0,11.2,11.3A11.3,11.3,0,0,0,19.3,93.8Z"/><g class="cls-4"><path class="cls-17" d="M18.4,96.3a8.8,8.8,0,0,0,4,16.6h1A8.8,8.8,0,0,1,10.5,105,8.8,8.8,0,0,1,18.4,96.3Z"/></g><path class="cls-18" d="M26.3,105.1c-.2-3.7-3.9-7.5-7-7.4a6.8,6.8,0,0,0-2.4.8,4.5,4.5,0,0,1,3.6-1.6c3.1-.1,6.6,3.1,6.8,6.6.1,1.9-.1,3.8-1.1,5C26.6,107.6,26.3,106.2,26.3,105.1Z"/><path class="cls-3" d="M21,109a2.5,2.5,0,0,0,1.2,3.1c1.1.6,2.6-.3,3-1.9s-.4-3.1-1.6-3.2A2.6,2.6,0,0,0,21,109Z"/><path class="cls-19" d="M21.2,96.1a17.2,17.2,0,0,1,0,17.9"/><path class="cls-3" d="M17.5,109a2.5,2.5,0,0,1-1.2,3.1,2.3,2.3,0,0,1-3-1.9c-.5-1.7.4-3.1,1.6-3.2A2.6,2.6,0,0,1,17.5,109Z"/><path class="cls-19" d="M17.4,96.1a17.2,17.2,0,0,0-.1,17.9"/><path class="cls-17" d="M56.8,107.1a9.2,9.2,0,0,1-6.6-2.9A9.3,9.3,0,0,1,48,97.8a8.7,8.7,0,0,1,8.8-8.3,8.8,8.8,0,0,1,6.6,2.9,9.3,9.3,0,0,1,2.2,6.4,8.6,8.6,0,0,1-2.9,6.1,9,9,0,0,1-5.9,2.2Z"/><path class="cls-3" d="M56.8,90.6A7.7,7.7,0,0,1,62,104a7.8,7.8,0,0,1-10.9-.5,7.8,7.8,0,0,1,.6-11,7.5,7.5,0,0,1,5.1-1.9m0-2.2a9.9,9.9,0,0,0-9.9,9.4,10.3,10.3,0,0,0,2.5,7.1,10,10,0,0,0,7.4,3.3,9.8,9.8,0,0,0,6.6-2.5,9.7,9.7,0,0,0,3.3-6.9,9.3,9.3,0,0,0-2.5-7.1,10,10,0,0,0-7.4-3.3Z"/><g class="cls-4"><path class="cls-17" d="M51.1,93.1a7.5,7.5,0,0,0,1.5,7.8,7.6,7.6,0,0,0,10.9.6l.6-.5a9,9,0,0,1-2.1,3A7.7,7.7,0,0,1,51.1,93.1Z"/></g><path class="cls-18" d="M61.4,94.2c-2.3-2.3-7-2.6-8.9-.7a7.2,7.2,0,0,0-1.1,1.9,4.1,4.1,0,0,1,1.4-3.1c1.9-2,6.2-1.9,8.4.2a7.3,7.3,0,0,1,2.2,4A8.7,8.7,0,0,0,61.4,94.2Z"/><path class="cls-3" d="M60.3,99.9a2.2,2.2,0,0,0,2.6,1.3A2.4,2.4,0,0,0,60.8,97,2.3,2.3,0,0,0,60.3,99.9Z"/><path class="cls-20" d="M52.8,91.3A15.1,15.1,0,0,1,63.3,103"/><path class="cls-3" d="M58,101.9a2.2,2.2,0,0,1,1,2.7c-.4,1-1.8,1.4-3.1.6a2.2,2.2,0,0,1-.8-3.1A2.3,2.3,0,0,1,58,101.9Z"/><path class="cls-20" d="M50.3,93.6a15.1,15.1,0,0,0,10.5,11.7"/><path class="cls-9" d="M95.8,108.8a1.3,1.3,0,0,1-.8-.3,1.2,1.2,0,0,1-.4-1.1c.9-5.7,3.2-19.5,3.8-25.7,1.6-18,15.5-31.6,32.2-31.6h1.1c11.9.5,21.7,4.8,28.4,12.5s10.1,18.5,9.1,29.5a38.5,38.5,0,0,1-4.5,14.9,1.4,1.4,0,0,1-1.1.6h-.4a1.3,1.3,0,0,1-.9-1.3,38,38,0,0,0-8.7-28,30.5,30.5,0,0,0-22-10.8h-.1a.5.5,0,0,0-.5.3c-1.1,1.1-3.4,6.3-2.1,29.9A1.4,1.4,0,0,1,128,99l-31.8,9.8Z"/><path class="cls-3" d="M130.6,51.4h1.1c27.2,1,38,22.2,36.3,40.6a38.4,38.4,0,0,1-4.4,14.4c1.7-18.3-10.1-38.9-32-40.2h-.1c-4.7,0-4.6,18.3-3.9,31.6l-31.8,9.8c.8-4.6,3.2-19.3,3.8-25.7,1.7-17.9,15.4-30.5,31-30.5m0-2.5c-17.4,0-31.7,14-33.5,32.7-.6,6.1-2.8,19.9-3.7,25.6a2.6,2.6,0,0,0,.8,2.3,2.5,2.5,0,0,0,1.6.6h.8l31.7-9.8a2.5,2.5,0,0,0,1.8-2.5c-1.3-23.6,1.1-28.2,1.7-29a30,30,0,0,1,20.9,10.4,36.9,36.9,0,0,1,8.4,27.1,2.6,2.6,0,0,0,1.7,2.6h.8a2.6,2.6,0,0,0,2.2-1.3,38.8,38.8,0,0,0,4.6-15.4,40.3,40.3,0,0,0-9.3-30.4c-7-8-17.1-12.4-29.3-12.9Z"/><path class="cls-21" d="M95.8,108.8a1.3,1.3,0,0,1-.8-.3,1.2,1.2,0,0,1-.4-1.1c.9-5.7,3.2-19.5,3.8-25.7,1.6-18,15.5-31.6,32.2-31.6h1.1c11.9.5,21.7,4.8,28.4,12.5s10.1,18.5,9.1,29.5a38.5,38.5,0,0,1-4.5,14.9,1.4,1.4,0,0,1-1.1.6h-.4a1.3,1.3,0,0,1-.9-1.3c1.7-18-11.6-35.4-29.6-38.7l-.5-.2a3.5,3.5,0,0,0-1.1-.3c-1.6,0-7.2,2.5-12.5,34.1a1.1,1.1,0,0,1-.8.9l-21.6,6.7Z"/><path class="cls-3" d="M130.6,51.4h1.1c27.2,1,38,22.2,36.3,40.6a38.4,38.4,0,0,1-4.4,14.4c1.7-18-11.5-36.5-30.6-40.1a9.7,9.7,0,0,0-1.9-.4c-2.9,0-8.5,3.9-13.7,35.1l-21.6,6.6c.8-4.6,3.2-19.3,3.8-25.7,1.7-17.9,15.4-30.5,31-30.5m0-2.5c-17.4,0-31.7,14-33.5,32.7-.6,6.1-2.8,19.9-3.7,25.6a2.6,2.6,0,0,0,.8,2.3,2.5,2.5,0,0,0,1.6.6h.8l21.5-6.7a2.5,2.5,0,0,0,1.8-1.9c5.4-32.7,10.9-33,11.2-33h.6l.8.3c17.4,3.2,30.2,20,28.6,37.4a2.6,2.6,0,0,0,1.7,2.6h.8a2.6,2.6,0,0,0,2.2-1.3,38.8,38.8,0,0,0,4.6-15.4,40.3,40.3,0,0,0-9.3-30.4c-7-8-17.1-12.4-29.3-12.9Z"/><g class="cls-4"><path class="cls-12" d="M99.6,81.9a35.4,35.4,0,0,1,8-19.6c1.2,6,4.6,11.1,10.6,11.7,3,.3,6.9-2.5,10-2.4-1.3,6.4-1.1,17.4-.6,26.2L117.4,101l-21.6,6.6C96.6,103,99,88.3,99.6,81.9Z"/></g><path class="cls-13" d="M153.2,69.1c-5.8-5.3-11.5-9.8-16-12L128.8,53a63.2,63.2,0,0,1,8.2.2,40.4,40.4,0,0,1,21.1,11.3c8.7,9.2,9.1,24.4,9.1,24.4S164.9,79.9,153.2,69.1Z"/><path class="cls-12" d="M84,117.4c-.6,0-2.2,0-2.6-1.3l-.3-1-.2-.7c-.7-2.2-2.1-6.9-4.1-8.2L74.7,105a11.1,11.1,0,0,1-4.9-3.8,4.5,4.5,0,0,1-.6-3.9,6.1,6.1,0,0,1,3.7-3.5,4.7,4.7,0,0,1,1.7-.3c3.5,0,6.9,3.8,9.9,7.1a22.6,22.6,0,0,0,3.6,3.5,5.2,5.2,0,0,0-.6-2.9l-.2-.5a30,30,0,0,1-1.9-6c-.7-3,.3-5.1,3.1-6.8a8.3,8.3,0,0,1,4.6-1.5,5.3,5.3,0,0,1,3,.9c2.2,1.4,2.2,3.6,2.2,5.4V94a9.5,9.5,0,0,0,2.4,5.9,1.7,1.7,0,0,0,1.4.7,2.4,2.4,0,0,0,2-1.1,2.5,2.5,0,0,0,.4-2.2c-.3-1-.8-2.2-1.3-3.4-1.5-3.4-3.1-7.1-2-10.4a5.8,5.8,0,0,1,5.5-4.2,7.5,7.5,0,0,1,4.8,1.9c1.2,1,2.5,3.7,3.7,6.2a22.9,22.9,0,0,0,2,3.7l.4.6c.6.8,1.4,1.9,1.9,1.9a2,2,0,0,0,1.1-.7c1.3-1.6.8-3.6-.1-6.4a10.9,10.9,0,0,1-.5-1.7c-.4-1.4-1.2-5,.3-7.5a4.8,4.8,0,0,1,2.9-2.3l1.9-.2c2.9,0,4.4,2.2,5.8,4.3a51.4,51.4,0,0,1,2.9,5.1l1.5,2.7a5.5,5.5,0,0,0,.9,1.3c.1,0,.1-.1.2-.2s.2-3.8,0-5.7c-.4-4.6-.9-9.9,2.9-10.3h.3a2.6,2.6,0,0,1,2.2,1c1.9,2.1,1.3,7.3,1.2,7.9l-.3,1.5c-.3,1.9-.5,3.2.2,4.9s.8,2.3,1.1,3.4a9.3,9.3,0,0,0,.4,1.3,2.6,2.6,0,0,0,.4,1.1,4.4,4.4,0,0,1,1,2.1l.3,1c.4,1.2,0,2.5-9.2,6.2-5.8,2.4-13.6,5.1-21.9,7.7C100.9,114.4,88.4,117.4,84,117.4Z"/><path class="cls-3" d="M139.6,73.2c2.8,0,2.4,5.8,2.2,7.6s-1,4.5,0,7,.9,3,1.4,4.5.7.7,1.5,3.3a2.9,2.9,0,0,0,.3.9c.4,1.6-13.2,7.1-30.4,12.5-14.2,4.3-26.4,7.2-30.6,7.2-.9,0-1.4-.2-1.5-.4l-.2-1c-.7-2.1-2.2-7.8-4.8-9.6s-5-2.1-6.7-4.7,0-4.5,2.5-5.6a3.2,3.2,0,0,1,1.3-.2c5.1,0,11.2,10.7,13.7,10.7a.9.9,0,0,0,.9-.7c.6-1.5-.3-3.1-.8-4.4a40.6,40.6,0,0,1-1.9-5.9c-.5-2.5.3-4.1,2.6-5.5a7.9,7.9,0,0,1,4-1.3,3.9,3.9,0,0,1,2.3.7c2.2,1.4,1.6,3.6,1.7,5.8a10.8,10.8,0,0,0,2.7,6.6,3,3,0,0,0,2.3,1.1,3.9,3.9,0,0,0,3.6-4.8c-1.2-3.8-4.7-9.1-3.3-13.2a4.4,4.4,0,0,1,4.3-3.3,6.6,6.6,0,0,1,4,1.6c1.7,1.5,4.2,8,5.5,9.8s2,2.9,3.3,2.9a2.9,2.9,0,0,0,2-1.1c2.3-2.7.4-6.3-.4-9.2s-1.1-7.3,2.4-8.3a4.7,4.7,0,0,1,1.6-.2c2.1,0,3.3,1.5,4.8,3.7s2.9,5.2,4.3,7.8c.5.9,1.2,1.9,2,1.9a1.8,1.8,0,0,0,1.1-.5c2.1-2.2-2.4-15.2,2.1-15.7h.2m0-2.4h-.5c-4.9.5-4.3,6.9-3.9,11.6a16.4,16.4,0,0,1,.2,2.2,9.3,9.3,0,0,1-.5-1c-1-1.7-1.9-3.5-3-5.2s-3.2-4.8-6.8-4.8l-2.2.3a5.8,5.8,0,0,0-3.7,2.8c-1.6,2.9-.8,6.9-.4,8.4s.3,1.2.5,1.8c.9,2.5,1.3,4.1.3,5.2a.1.1,0,0,1-.1.1l-.9-1.2-.5-.6a26.9,26.9,0,0,1-1.8-3.5c-1.6-3.3-2.7-5.5-4-6.6a9,9,0,0,0-5.6-2.2,6.9,6.9,0,0,0-6.6,5c-1.3,3.7.4,7.7,2,11.3.5,1.2,1,2.3,1.3,3.3a1.2,1.2,0,0,1-.3,1.1,1.3,1.3,0,0,1-1,.6s-.2,0-.5-.3A8.6,8.6,0,0,1,99.5,94V92.7c0-1.8,0-4.6-2.8-6.4a6.1,6.1,0,0,0-3.6-1.1,10.7,10.7,0,0,0-5.3,1.6c-3.2,2-4.4,4.6-3.6,8.1a44.4,44.4,0,0,0,1.5,5.2l-.3-.3c-3.1-3.5-6.7-7.5-10.8-7.5a5.7,5.7,0,0,0-2.2.4A7.3,7.3,0,0,0,68,96.9a5.8,5.8,0,0,0,.8,4.9,12,12,0,0,0,5.4,4.3l2,1.1c1.6,1.1,3,5.8,3.5,7.6l.3.7s.1.6.2,1,1.7,2.1,3.8,2.1c4.5,0,17.1-3,31.3-7.3,8.4-2.6,16.2-5.4,22-7.7,8.6-3.5,10.7-5.2,9.9-7.8l-.2-.9a5.8,5.8,0,0,0-1.2-2.5,1.6,1.6,0,0,1-.3-.8,5.6,5.6,0,0,0-.4-1.2,23.5,23.5,0,0,0-1.1-3.5c-.6-1.4-.4-2.5-.1-4.3l.3-1.5c.2-1.5.7-6.5-1.5-8.9a4.1,4.1,0,0,0-3.1-1.4Z"/><g class="cls-4"><path class="cls-12" d="M77.7,103.1c4.9,3.6,5.1,5.2,7.9,10.1,4,.3,51.4-13.5,55.9-14.1-5.1,2.5-15.1,6.2-26.9,9.9-17.2,5.3-31.6,8.3-32.1,6.8l-.2-1c-.7-2.1-2.2-7.8-4.8-9.6s-4.9-2.1-6.6-4.5C73.3,100.4,75.9,101.9,77.7,103.1Z"/></g><path class="cls-17" d="M165.9,123.2a10.1,10.1,0,1,1,.1,0Z"/><path class="cls-3" d="M166,104.4a8.8,8.8,0,0,1,0,17.5h-.1a8.8,8.8,0,0,1,0-17.5h.1m0-2.5h-.1a11.3,11.3,0,1,0,.1,0Z"/><g class="cls-4"><path class="cls-17" d="M165,104.4a8.8,8.8,0,0,0,4.2,16.5h.9a9.2,9.2,0,0,1-4.1,1,8.7,8.7,0,0,1-8.8-8.7A8.8,8.8,0,0,1,165,104.4Z"/></g><path class="cls-18" d="M173,113.1c-.3-3.7-4-7.5-7.1-7.3a5.7,5.7,0,0,0-2.3.8,4.2,4.2,0,0,1,3.5-1.6c3.1-.2,6.7,3.1,6.9,6.5a7.8,7.8,0,0,1-1.1,5.1C173.3,115.6,173,114.3,173,113.1Z"/><path class="cls-3" d="M167.7,117.1a2.7,2.7,0,0,0,1.2,3.1,2.3,2.3,0,0,0,3-1.9c.5-1.7-.4-3.1-1.6-3.2A2.6,2.6,0,0,0,167.7,117.1Z"/><path class="cls-19" d="M167.8,104.2a17,17,0,0,1,.1,17.9"/><path class="cls-3" d="M164.3,117.1a2.8,2.8,0,0,1-1.2,3.1c-1.1.6-2.6-.2-3.1-1.9s.4-3.1,1.6-3.2A2.8,2.8,0,0,1,164.3,117.1Z"/><path class="cls-19" d="M164,104.2a17,17,0,0,0,.1,17.9"/><g class="cls-4"><path class="cls-12" d="M124.8,92.9a4.7,4.7,0,0,1-2.3,2.1,3.4,3.4,0,0,1-3.4-.2,2.6,2.6,0,0,0,2.4-1.1c2.3-2.7.4-6.3-.4-9.2a15.7,15.7,0,0,1-.4-2.3C123.6,84.9,125.6,88.6,124.8,92.9Z"/></g><g class="cls-4"><path class="cls-12" d="M105.9,100.5a1.6,1.6,0,0,1-1.5.4,3.8,3.8,0,0,0,1.3-3.9c-1.1-3.5-4.2-8.3-3.6-12.1C104.7,90.1,109.4,94.8,105.9,100.5Z"/></g><g class="cls-4"><path class="cls-12" d="M89.3,104.5h0c.4-1.4-.4-2.9-.9-4.2a40.6,40.6,0,0,1-1.9-5.9,4.7,4.7,0,0,1,.8-4.1c1,1.9,2.4,3.6,3.4,5.6S93.3,105.5,89.3,104.5Z"/></g><path class="cls-13" d="M126.2,79.9c1.5,1.4,1.8,3.4,2.6,2.5s.5-2.8-1-4.2-3.3-1.7-4.2-.8S124.8,78.5,126.2,79.9Z"/><path class="cls-13" d="M108.5,84.7c1.5,1.4,1.8,3.4,2.6,2.5s.5-2.8-1-4.2-3.3-1.7-4.2-.8S107.1,83.3,108.5,84.7Z"/><path class="cls-13" d="M140,76.8c.5,1.2.1,2.5.9,2.2s1-1.5.6-2.8-1.5-2-2.3-1.7S139.6,75.5,140,76.8Z"/><path class="cls-13" d="M93.7,91.1c1,1,1,2.8,1.9,1.8a2.5,2.5,0,0,0-.3-3.5,2.6,2.6,0,0,0-3.6-.2C90.9,90.2,92.6,90.1,93.7,91.1Z"/><path class="cls-3" d="M87.7,134.2V134l-.4-.3a5.9,5.9,0,0,0-1.6-.8h-.5c.1,0-.1-.1.1,0h-.6l-.9.3c-.2,0-.3.2-.4.3h-.2l-.2.3c-.2.2-.1.3-.2.4s-.1.4-.2.5a5.7,5.7,0,0,0-.1,1.3,5.7,5.7,0,0,1,.1,1.3,2,2,0,0,1,.1.7l.2.6a8.1,8.1,0,0,0,.3,1.1,10.4,10.4,0,0,0,.4,1l.4.7.3.7-.6-.4-.7-.5a3.4,3.4,0,0,1-.8-.9,4.4,4.4,0,0,1-.8-1.1l-.3-.7-.3-.7a10.1,10.1,0,0,1-.3-1.7,10.9,10.9,0,0,1,.1-1.8l.3-1,.6-.9.3-.3h.4a1.8,1.8,0,0,1,.9-.4l1-.2h1.6c.3.2.5.3.6.5a6.2,6.2,0,0,1,1.4,1.5A1.3,1.3,0,0,1,87.7,134.2Z"/><path class="cls-3" d="M82.7,136.4h.5a5,5,0,0,1,1.4.3,7,7,0,0,1,1.7.9l.9.7.8.8.6,1,.5,1a5.1,5.1,0,0,1,.4,2,6.1,6.1,0,0,1-.1,1.4l-.2.5-.2-.5c-.2-.3-.3-.7-.6-1.1a2.5,2.5,0,0,1-.4-.7l-.6-.7-1.1-1.6L85.1,139l-.6-.7-.5-.6-.9-.9Z"/><path class="cls-22" d="M116.6,142.3c-5,0-9.9-4.6-11.7-10.9s.8-14.7,6.4-16.3l2.1-.3c5,0,9.9,4.6,11.7,11a16.1,16.1,0,0,1-.3,10.2c-1.2,3.1-3.3,5.3-6.1,6l-2.1.3Z"/><path class="cls-3" d="M113.4,115.6c4.6,0,9.3,4.2,11,10.4s-.7,13.9-5.9,15.3a6.3,6.3,0,0,1-1.9.3c-4.6,0-9.3-4.3-11-10.4s.7-13.9,5.9-15.4l1.9-.2m0-1.5a8.5,8.5,0,0,0-2.3.3c-6,1.7-9,9.4-6.9,17.2s7.1,11.4,12.4,11.4a8.5,8.5,0,0,0,2.3-.3,10,10,0,0,0,6.6-6.4,17.7,17.7,0,0,0,.3-10.7c-1.8-6.7-7-11.5-12.4-11.5Z"/><path class="cls-12" d="M107.5,118.6a15.4,15.4,0,0,0-.7,10.7c2,7,7.7,11.6,12.9,10.1a7.4,7.4,0,0,0,4-2.7,8.2,8.2,0,0,1-5.2,4.6c-5.1,1.4-10.9-3.1-12.9-10.1C104.3,126.3,105.1,121.5,107.5,118.6Z"/><path class="cls-10" d="M110.1,128.6c1.2,4.3,4.7,7.1,7.9,6.2s4.8-5.1,3.6-9.5-4.8-7.1-8-6.2S108.9,124.2,110.1,128.6Z"/><path class="cls-21" d="M110.1,128.6c1.2,4.3,4.7,7.1,7.9,6.2s4.8-5.1,3.6-9.5-4.8-7.1-8-6.2S108.9,124.2,110.1,128.6Z"/><path class="cls-3" d="M112.6,127.8c.7,2.4,2.7,4,4.4,3.5s2.7-2.9,2-5.2-2.6-4-4.4-3.5S112,125.4,112.6,127.8Z"/><path class="cls-22" d="M114.3,122.2c.5,1.9,2,3.1,3.3,2.7s2.1-2.2,1.6-4-2-3.1-3.4-2.7S113.8,120.4,114.3,122.2Z"/><path class="cls-22" d="M113.4,131.3a1.5,1.5,0,0,0,1.5,1.2,1.5,1.5,0,0,0,.6-1.8c-.2-.8-.9-1.3-1.4-1.1S113.2,130.5,113.4,131.3Z"/><path class="cls-22" d="M139.9,134.7c-4.9,0-9.7-4.5-11.4-10.7a16.2,16.2,0,0,1,.2-10,9.5,9.5,0,0,1,6-5.9l2.1-.3c4.9,0,9.7,4.5,11.4,10.7s-.8,14.4-6.2,15.9l-2.1.3Z"/><path class="cls-3" d="M136.8,108.5c4.5,0,9.1,4.2,10.7,10.2s-.6,13.6-5.7,15a6.3,6.3,0,0,1-1.9.3c-4.5,0-9-4.2-10.7-10.2s.6-13.6,5.7-15a6.3,6.3,0,0,1,1.9-.3m0-1.4a9.1,9.1,0,0,0-2.3.3,9.7,9.7,0,0,0-6.4,6.4,16.7,16.7,0,0,0-.3,10.4c1.8,6.6,6.8,11.2,12.1,11.2a8.5,8.5,0,0,0,2.3-.3c5.8-1.6,8.8-9.1,6.7-16.8s-6.9-11.2-12.1-11.2Z"/><path class="cls-12" d="M131,111.5a15.4,15.4,0,0,0-.7,10.5c1.9,6.9,7.6,11.3,12.7,9.9a7.5,7.5,0,0,0,3.9-2.7,8.1,8.1,0,0,1-5.1,4.5c-5.1,1.4-10.7-3-12.6-9.9C127.9,119.1,128.7,114.4,131,111.5Z"/><path class="cls-10" d="M133.5,121.2c1.2,4.3,4.7,7,7.8,6.2s4.7-5.1,3.5-9.3-4.7-7-7.8-6.1S132.3,117,133.5,121.2Z"/><path class="cls-21" d="M133.5,121.2c1.2,4.3,4.7,7,7.8,6.2s4.7-5.1,3.5-9.3-4.7-7-7.8-6.1S132.3,117,133.5,121.2Z"/><path class="cls-3" d="M136,120.5c.7,2.4,2.6,3.9,4.3,3.4s2.6-2.8,2-5.1-2.6-3.8-4.3-3.4S135.4,118.2,136,120.5Z"/><path class="cls-22" d="M137.6,115.1c.5,1.8,2,2.9,3.3,2.6s2-2.2,1.5-4-2-2.9-3.3-2.6S137.1,113.3,137.6,115.1Z"/><path class="cls-22" d="M136.8,124a1.4,1.4,0,0,0,1.4,1.1,1.2,1.2,0,0,0,.6-1.7c-.2-.8-.8-1.3-1.4-1.1S136.6,123.2,136.8,124Z"/><path class="cls-11" d="M130.7,148.1c-5.2,0-9.4-2.8-10.1-6.8s3.3-9.7,9.6-10.9a13.6,13.6,0,0,1,2.9-.3c5.1,0,9.3,2.8,10.1,6.8s-3.3,9.7-9.6,10.9A13.6,13.6,0,0,1,130.7,148.1Z"/><path class="cls-3" d="M133.1,131.1c4.6,0,8.4,2.3,9.2,6s-3.1,8.6-8.9,9.8a12.3,12.3,0,0,1-2.7.2c-4.6,0-8.5-2.3-9.2-5.9s3.1-8.7,8.8-9.9a13.7,13.7,0,0,1,2.8-.2m0-2h0a15.5,15.5,0,0,0-3.1.3c-6.8,1.4-11.5,6.8-10.4,12.1s5.5,7.6,11.1,7.6a16.3,16.3,0,0,0,3.1-.3c6.8-1.3,11.4-6.8,10.4-12.1s-5.5-7.6-11.1-7.6Z"/><g class="cls-23"><path class="cls-22" d="M132.9,133.1c.6,1.1-.9,3.2-3.5,4.7s-5.1,1.7-5.8.5.9-3.2,3.5-4.7S132.3,132,132.9,133.1Z"/></g><g class="cls-4"><path class="cls-11" d="M142.3,137.1a7.2,7.2,0,0,0-3.1-4.4,7,7,0,0,1,1.3,2.9c.9,4.2-3.1,8.6-8.8,9.8a12.8,12.8,0,0,1-8.8-1.4c2.1,2.5,6.2,3.7,10.5,2.9S143.1,141.3,142.3,137.1Z"/></g><path class="cls-3" d="M151.7,137a2.1,2.1,0,0,1,.9-.9,2,2,0,0,1,1.4-.2l.7.2.7.6.5.6a1.4,1.4,0,0,1,.2.6,3,3,0,0,1,.2,1.2,5.8,5.8,0,0,1-.3,1.2l-.8-.8-.6-.8-.6-.7-.3-.2-.3-.3-.6-.3Z"/><path class="cls-6" d="M142.8,165.7c-.3-.6-2.4.5-4.9,1.7s-4.5,1.9-4.2,2.5,2.9.6,5.4-.6S143,166.3,142.8,165.7Z"/><path class="cls-22" d="M129.8,167.2c-14.1,0-25.6-16.3-26.1-17a.8.8,0,0,1,.1-.8.5.5,0,0,1,.5-.3h.3a44.7,44.7,0,0,0,18.6,4.1h0a37.7,37.7,0,0,0,11.3-1.7,35.7,35.7,0,0,0,18.8-13.5.5.5,0,0,1,.5-.3h.3a.7.7,0,0,1,.4.8c-.5,2.4-5.4,24-20.1,28a18.2,18.2,0,0,1-4.6.6Z"/><path class="cls-3" d="M153.8,138.5h.1m-.1,0c-.6,2.9-5.3,23.6-19.6,27.4a17.2,17.2,0,0,1-4.4.6c-13.9,0-25.5-16.7-25.5-16.7a45.6,45.6,0,0,0,18.9,4.2,36.7,36.7,0,0,0,11.5-1.8c13.5-4.2,19.1-13.7,19.1-13.7m0-1.4h-.1l-.6.2-.3.3c0,.1-.1.1-.1.2s-5.8,9.2-18.4,13.2a36.8,36.8,0,0,1-11.1,1.6,43.8,43.8,0,0,1-18.3-4h-.6a1.2,1.2,0,0,0-1,.4,1.5,1.5,0,0,0-.1,1.7c.5.7,12.2,17.2,26.6,17.2a18.4,18.4,0,0,0,4.7-.6c6.4-1.7,11.7-6.7,15.8-14.8a51.2,51.2,0,0,0,4.8-13.6.4.4,0,0,0,.1-.3,1.3,1.3,0,0,0-1.3-1.4Z"/><path class="cls-3" d="M102.9,152.2a1.5,1.5,0,0,1-1.1-.7,2.2,2.2,0,0,1-.4-1.3,1.9,1.9,0,0,1,.1-.8l.4-.8.6-.5.6-.4,1.2-.3a2.3,2.3,0,0,1,1.1.1,3,3,0,0,1-.6.9l-.7.8-.6.6-.2.3c0,.2-.1.2-.2.3s-.1.5-.2.8A2.9,2.9,0,0,0,102.9,152.2Z"/><path class="cls-3" d="M97.8,99.1l4.4,1.3-2.7.5C98.7,100.9,97.8,99.1,97.8,99.1Z"/><path class="cls-3" d="M100.9,99.2l-1.8,1.6,1.4-.4C100.9,100.2,100.9,99.2,100.9,99.2Z"/><path class="cls-3" d="M97.4,100.4l1.7-.4.8-.2.6-.2h2.1a.8.8,0,0,1-.4.4l-.4.2a3.8,3.8,0,0,1-1,.3h.2a1.9,1.9,0,0,1-1,.5h-.9A4.7,4.7,0,0,1,97.4,100.4Z"/></g></g></svg>