<svg xmlns="http://www.w3.org/2000/svg" viewBox="0 0 200 200"><defs><style>.cls-1{isolation:isolate;}.cls-11,.cls-2{fill:#fccbaa;}.cls-16,.cls-3{fill:#3b2314;}.cls-11,.cls-4,.cls-6,.cls-8{mix-blend-mode:multiply;}.cls-5,.cls-8{fill:#f27f93;}.cls-6,.cls-8{opacity:0.2;}.cls-24,.cls-7,.cls-9{fill:#fff;}.cls-15,.cls-7{opacity:0.3;}.cls-10{fill:#d0d2d3;}.cls-12,.cls-13,.cls-25,.cls-26{fill:none;}.cls-12,.cls-13,.cls-16,.cls-17,.cls-25,.cls-26{stroke:#3b2314;}.cls-12,.cls-13,.cls-16,.cls-17{stroke-linecap:round;stroke-miterlimit:10;}.cls-12{stroke-width:0.88px;}.cls-13{stroke-width:0.842px;}.cls-14{fill:#cd383a;}.cls-16,.cls-17{stroke-width:1.238px;}.cls-17{fill:#f8a576;}.cls-18{fill:#faaf40;}.cls-19{fill:#00a69c;}.cls-20{fill:#8bc53f;}.cls-21{fill:#929497;}.cls-22{fill:#26a9e0;}.cls-23{fill:#ffc609;}.cls-24{opacity:0.6;}.cls-25,.cls-26{stroke-linecap:square;stroke-linejoin:round;}.cls-25{stroke-width:0.515px;}.cls-26{stroke-width:0.453px;}.cls-27{fill:#5661ab;}</style></defs><g class="cls-1"><g id="Layer_6" data-name="Layer 6"><path class="cls-2" d="M66.506,173.5c4.738,0,13.676-3.83,16.615-5.088.4-.174.669-.29.767-.325l-.023-.061c2.124-.7,10.109-5.027,10.2-5.076,7.133-3.974,11.742-7.428,13.7-10.265,2.162-3.132,2.543-7.73,1.062-12.658,1.526-3.884,3.53-15.4,3.74-18.446.819-11.76,1.054-25.018-6.562-33.49-4.982-5.542-12.595-8.427-23.271-8.821-.429-.016-.851-.023-1.269-.023-17.828,0-29.213,14.364-32.942,41.548-4.67,2.986-7.495,6.987-7.777,11.03-.562,8.105,8.6,26.065,8.994,26.825,2.85,9.24,8.327,14.283,16.215,14.831C66.128,173.493,66.313,173.5,66.506,173.5Z"/><path class="cls-3" d="M81.462,80.223q.606,0,1.231.023c29.992,1.106,30.2,22.5,28.895,41.268-.217,3.147-2.332,15.133-3.8,18.464,1.38,4.349,1.4,8.924-.829,12.153-4.511,6.54-23.357,15.027-23.357,15.027h0c-.187,0-11.708,5.366-17.091,5.366-.169,0-.331,0-.489-.017-8.247-.573-12.944-6.337-15.415-14.3,0,0-9.437-18.386-8.887-26.312.29-4.178,3.539-7.954,7.709-10.514,2.192-16.443,8.859-41.156,32.037-41.156m0-1.953c-18.289,0-29.982,14.5-33.85,41.95-4.707,3.13-7.55,7.3-7.845,11.538-.56,8.068,8.042,25.259,9.021,27.187,3.06,9.717,8.81,14.934,17.1,15.511.2.013.407.02.624.02,4.866,0,13.753-3.777,16.864-5.109l.033.021,1-.449c.788-.356,19.395-8.79,24.161-15.7,2.284-3.311,2.745-8.081,1.287-13.176,1.567-4.3,3.473-15.33,3.685-18.415.834-11.961,1.062-25.456-6.808-34.212-5.17-5.748-13.007-8.74-23.963-9.144-.44-.016-.875-.024-1.3-.024Z"/><g class="cls-4"><path class="cls-2" d="M53.409,122.04a55.952,55.952,0,0,0-6.815,1.394,21.959,21.959,0,0,1,2.831-2.055c.146-1.1.288-2.25.434-3.427A11.894,11.894,0,0,0,53.409,122.04Z"/></g><g class="cls-4"><path class="cls-2" d="M72.881,155.841a4.281,4.281,0,0,1,3.646.537,3.278,3.278,0,0,1,1.161,1.639c.224.866.728,1.75.105,2.558-3.033,4.012-6.679,7.448-8.684,11.655a12.442,12.442,0,0,1-3.091.277,15.285,15.285,0,0,1-7.455-2.414C61.91,163.917,65.546,157.113,72.881,155.841Z"/></g><g class="cls-4"><path class="cls-2" d="M96.449,136.79c2.095-5.663,5.164-11.118,6.281-16.991A110.719,110.719,0,0,0,104.8,88.685c7.822,8.125,7.63,20.816,6.793,32.829-.217,3.147-2.332,15.133-3.8,18.464,1.38,4.349,1.4,8.924-.829,12.153-2.025,2.935-6.934,6.262-11.735,9.038C97.182,158.124,110.592,142.126,96.449,136.79Z"/></g><path class="cls-5" d="M66.58,163.913c17.822,0,33.088-15.483,33.088-19.112a1.163,1.163,0,0,0-1.215-1.217,2.733,2.733,0,0,0-1.074.272c-8.969,3.934-16.912,5.929-23.607,5.929h0c-15.313,0-20.578-10.293-23.108-15.24-.988-1.931-1.483-2.9-2.406-2.9h-.168l-.273.093c-1.251.546-1.6,2.443-1.067,5.8,1.345,8.48,8.478,25.424,16.75,26.227,1.016.1,2.052.148,3.076.148Z"/><path class="cls-3" d="M48.257,132.449c1.861,0,4.956,18.141,25.514,18.141,6.226,0,14.051-1.663,23.931-6a2.017,2.017,0,0,1,.751-.2c3.134,0-12.059,18.721-31.873,18.721-.991,0-1.99-.046-3-.145-9.989-.969-19.1-28.891-15.438-30.489a.3.3,0,0,1,.118-.026m0-1.608a1.882,1.882,0,0,0-.761.16c-2.181.951-1.924,4.258-1.541,6.664a54.659,54.659,0,0,0,5.851,16.2c2.547,4.613,6.629,10.213,11.616,10.7,1.042.1,2.1.152,3.158.152,17.275,0,30.539-13.212,33.167-17.766.494-.856,1.079-2.119.454-3.2a1.978,1.978,0,0,0-1.746-.972h0a3.5,3.5,0,0,0-1.395.341c-8.866,3.889-16.7,5.862-23.285,5.862-14.821,0-19.935-10-22.394-14.8-1.064-2.082-1.707-3.338-3.12-3.338Z"/><path class="cls-5" d="M54.927,183.953c3.027,0,5.328-1.17,6.476-3.293a36.5,36.5,0,0,0,2.905-6.686l.521-1.444a24.126,24.126,0,0,1,2.951-6.016,12.841,12.841,0,0,1,1.962-2.091c.429-.384.873-.709,1.253-.987.709-.522,1.138-.837,1.271-1.286a2.428,2.428,0,0,0-.164-2.016c-.689-1.237-2.342-1.836-3.6-2.121a14.333,14.333,0,0,0-3.121-.346h-.141c-.442-1.059-1.844-1.588-4.181-1.588a24.017,24.017,0,0,0-2.443.142c-3.868.975-6.448,7.4-7.15,9.351a21.691,21.691,0,0,1-2.514,5.213l-.5.913c-2.03,3.706-3.948,7.206-.642,9.915A11.855,11.855,0,0,0,54.927,183.953Z"/><path class="cls-3" d="M61.055,156.883c4.027,0,3.45,1.561,3.543,1.64a2.819,2.819,0,0,1,.779-.052,13.481,13.481,0,0,1,2.943.327c1.876.423,3.765,1.407,3.175,3.123-.1.336-1.286,1.006-2.265,1.881a14.058,14.058,0,0,0-2.1,2.234,24.571,24.571,0,0,0-3.059,6.216,45.706,45.706,0,0,1-3.38,8.026c-1.108,2.05-3.379,2.87-5.768,2.87a11,11,0,0,1-6.609-2.156c-3.006-2.464-.935-5.631,1.316-9.788a22.387,22.387,0,0,0,2.585-5.36c.746-2.07,3.2-7.989,6.476-8.823a23.087,23.087,0,0,1,2.36-.138m0-1.608a24.717,24.717,0,0,0-2.525.146,1.618,1.618,0,0,0-.231.041c-4.022,1.022-6.65,7.22-7.595,9.839a21.076,21.076,0,0,1-2.486,5.138l-.475.873c-2.1,3.83-4.267,7.791-.444,10.924a12.524,12.524,0,0,0,7.628,2.521c3.288,0,5.906-1.354,7.142-3.641a37.278,37.278,0,0,0,3-6.872c.171-.479.344-.96.519-1.439a23.407,23.407,0,0,1,2.829-5.8A12.3,12.3,0,0,1,70.3,165c.368-.33.792-.643,1.169-.918.817-.6,1.357-1,1.546-1.64a3.241,3.241,0,0,0-.212-2.7c-.836-1.5-2.708-2.193-4.119-2.51a15,15,0,0,0-2.963-.365c-.618-.885-1.957-1.592-4.668-1.592Z"/><g class="cls-6"><path class="cls-5" d="M48.825,172.85a6.456,6.456,0,0,0,1.692,4.879,10.576,10.576,0,0,0,10.361,2.395c-.033.054-.062.109-.095.16-2.25,4.155-9.273,3.26-12.379.713C45.809,178.867,47,176.214,48.825,172.85Z"/></g><path class="cls-3" d="M64.688,158.53a2.857,2.857,0,0,0-.574.205,8.185,8.185,0,0,0-1.408.812,10.057,10.057,0,0,0-1.674,1.569,11.216,11.216,0,0,0-.819,1c-.233.372-.47.751-.706,1.131a12.692,12.692,0,0,0-1.1,2.369,9.086,9.086,0,0,0-.625,2.176c-.242,1.308-.314,2.18-.314,2.18s.452-.779,1-1.948c.136-.293.278-.609.414-.948.172-.324.355-.664.542-1.017a22.957,22.957,0,0,1,1.168-2.179A18.348,18.348,0,0,1,61.9,161.8c.236-.313.411-.662.656-.924s.441-.547.637-.8a15.171,15.171,0,0,1,1.051-1.134C64.512,158.675,64.688,158.53,64.688,158.53Z"/><path class="cls-7" d="M58.418,157.513c.861-.357,4.42.388,3.022,1.841s-4.385,4.139-4.922,6.248-3.106,2.79-2.582-.421S57.094,158.064,58.418,157.513Z"/><path class="cls-8" d="M64.618,158.5a16.088,16.088,0,0,1-2.7,5.414c-1.873,2.242-4.37,5.779-4.37,5.779S59.941,161.747,64.618,158.5Z"/><path class="cls-9" d="M75.034,155.147a3.964,3.964,0,0,0,2.833-1.046,3.244,3.244,0,0,0,2.09.676,5.083,5.083,0,0,0,.746-.057,4.257,4.257,0,0,0,2.767-1.476,3.114,3.114,0,0,0,1.545.348,9.435,9.435,0,0,0,1.244-.1c2.221-.3,3.53-.866,4.243-1.827.845-1.137.615-2.586.411-3.864l-.057-.3a.862.862,0,0,0-.384-.56.914.914,0,0,0-.456-.132.643.643,0,0,0-.2.031A51.764,51.764,0,0,1,74.4,149.482c-11.526,0-17.442-5.445-19.945-8.69a.8.8,0,0,0-.6-.312h-.04a.808.808,0,0,0-.585.252,4.457,4.457,0,0,0-1.347,3.526,4.917,4.917,0,0,0,1.722,3.168c.222.161.45.36.679.557a3.755,3.755,0,0,0,2.073,1.166,4.636,4.636,0,0,0,4.062,2.784h0a2.9,2.9,0,0,0,1.117-.216,3.96,3.96,0,0,0,2.415,1.812,4.506,4.506,0,0,0,1.3.2,3.173,3.173,0,0,0,1.6-.407,3.731,3.731,0,0,0,2.583,1.423,4.913,4.913,0,0,0,.711.053,3.542,3.542,0,0,0,2.166-.684,3.631,3.631,0,0,0,2.705,1.031Z"/><path class="cls-3" d="M53.818,141.283c3.512,4.557,9.985,9,20.581,9A52.2,52.2,0,0,0,90.058,147.6c.021.107.044.216.061.322.393,2.468.549,4.153-3.967,4.768a8.6,8.6,0,0,1-1.137.1,1.876,1.876,0,0,1-1.73-.788,3.274,3.274,0,0,1-2.7,1.925,4.126,4.126,0,0,1-.626.049,2.21,2.21,0,0,1-2.12-1.165,2.98,2.98,0,0,1-2.809,1.535h-.009a2.543,2.543,0,0,1-2.589-1.523A2.568,2.568,0,0,1,70.148,154a4.21,4.21,0,0,1-.6-.045,2.728,2.728,0,0,1-2.437-1.909,2.258,2.258,0,0,1-1.862.885,3.691,3.691,0,0,1-1.069-.17,2.97,2.97,0,0,1-2.246-2.272,2.032,2.032,0,0,1-1.516.643,3.442,3.442,0,0,1-1.435-.358,3.266,3.266,0,0,1-2.037-2.617.769.769,0,0,1-.507.193c-.727,0-1.559-.994-2.371-1.577a3.667,3.667,0,0,1-.254-5.486m0-1.608a1.608,1.608,0,0,0-1.17.5,5.2,5.2,0,0,0-1.563,4.157,5.726,5.726,0,0,0,2.049,3.74c.208.15.417.334.626.515a5.323,5.323,0,0,0,2.038,1.28,5.165,5.165,0,0,0,2.506,2.355,4.994,4.994,0,0,0,2.118.511,3.912,3.912,0,0,0,.787-.08A4.959,4.959,0,0,0,63.72,154.3a5.359,5.359,0,0,0,1.533.238,4.087,4.087,0,0,0,1.39-.237,4.736,4.736,0,0,0,2.675,1.243,5.763,5.763,0,0,0,.83.063,4.491,4.491,0,0,0,2.085-.486,4.67,4.67,0,0,0,2.8.832,4.979,4.979,0,0,0,2.884-.857,4.248,4.248,0,0,0,2.038.487,5.914,5.914,0,0,0,.86-.065,5.269,5.269,0,0,0,2.852-1.315,4.371,4.371,0,0,0,1.346.195,10.289,10.289,0,0,0,1.354-.111c2.451-.334,3.926-1,4.779-2.144,1.046-1.409.777-3.106.56-4.464-.018-.113-.04-.227-.074-.394a1.607,1.607,0,0,0-1.576-1.29,1.652,1.652,0,0,0-.486.074A50.918,50.918,0,0,1,74.4,148.678c-11.181,0-16.9-5.248-19.306-8.377a1.615,1.615,0,0,0-1.194-.625Z"/><path class="cls-10" d="M82.961,151.44c.711-.529,1.262.376,1.782,1.337A1.757,1.757,0,0,1,83.285,152a2.93,2.93,0,0,1-.685,1C82.677,152.315,82.612,151.666,82.961,151.44Z"/><path class="cls-10" d="M77.687,151.924c1.047-.209.954.748.918,1.716a2.042,2.042,0,0,1-.768-.832,2.7,2.7,0,0,1-1.025,1.09C77.107,153,77.166,151.991,77.687,151.924Z"/><path class="cls-10" d="M71.976,152.518c.908-.1,1.15.556,1.283,1.352a2.218,2.218,0,0,1-.829-1.05,2.454,2.454,0,0,1-1.13.959C71.49,153.182,71.56,152.572,71.976,152.518Z"/><path class="cls-10" d="M67.493,151.782a1.92,1.92,0,0,1,.429,1.5,2.456,2.456,0,0,1-.807-1.243,2.21,2.21,0,0,1-1.211.8C66.418,152,66.8,151.081,67.493,151.782Z"/><path class="cls-10" d="M62.668,151.887a2.694,2.694,0,0,1-.73-1.4,2.147,2.147,0,0,1-2.139.57,3.507,3.507,0,0,1,1.859-.953C62.805,149.991,62.735,150.942,62.668,151.887Z"/><path class="cls-10" d="M58,147.722a2.407,2.407,0,0,1-.122,2.3,2.983,2.983,0,0,1-.927-1.868.969.969,0,0,1-1.221-.058C56.408,147.523,57.65,147.179,58,147.722Z"/><path class="cls-10" d="M88.535,148.061c.5-.146,1.007-.3,1.523-.46.021.107.044.216.061.322.341,2.123.5,3.666-2.34,4.448A9.629,9.629,0,0,0,88.535,148.061Z"/><path class="cls-11" d="M81.4,138.579s-2.349,8.339-10.855,6.8S60.2,142.954,60,135.2,81.4,138.579,81.4,138.579Z"/><path class="cls-9" d="M85.368,137.218c5.064,0,10.15-4.24,12.366-10.31,2.734-7.487.286-15.287-5.459-17.385a8.758,8.758,0,0,0-3.01-.529c-5.064,0-10.15,4.239-12.365,10.31a16.86,16.86,0,0,0-.494,10.618,9.93,9.93,0,0,0,5.952,6.767,8.734,8.734,0,0,0,3.01.529Z"/><path class="cls-3" d="M89.264,109.764a7.974,7.974,0,0,1,2.747.482c5.353,1.955,7.594,9.3,5,16.4-2.161,5.92-6.995,9.8-11.645,9.8a7.984,7.984,0,0,1-2.744-.481c-5.353-1.954-7.6-9.3-5-16.4,2.161-5.918,7-9.8,11.642-9.8m0-1.539c-5.379,0-10.762,4.448-13.087,10.814a17.655,17.655,0,0,0-.509,11.108,10.691,10.691,0,0,0,6.427,7.266,9.509,9.509,0,0,0,3.271.574c5.383,0,10.765-4.447,13.09-10.815,2.881-7.887.227-16.128-5.918-18.372a9.5,9.5,0,0,0-3.274-.575Z"/><path class="cls-10" d="M96.022,113.425a15.744,15.744,0,0,1-.109,11.168c-2.594,7.1-9.035,11.276-14.392,9.321a8.354,8.354,0,0,1-4.012-3.179,8.923,8.923,0,0,0,5.113,5.232c5.352,1.955,11.8-2.219,14.389-9.323C98.806,121.732,98.286,116.7,96.022,113.425Z"/><path class="cls-12" d="M86.94,123.85c.173-.47.469-.184.763-.254.117.042.3.286.24.443a2.2,2.2,0,0,1-1.745,1.848c-.295.07-.706.1-.885-.146a3.054,3.054,0,0,1-.673-2.554c.448-1.965,2.022-3.344,3.555-3.14a3.21,3.21,0,0,1,1.838,1.2c.832,1.015.732,2.754.218,4.164a5.47,5.47,0,0,1-.8,1.837,6.2,6.2,0,0,1-1.281,1.307,3.953,3.953,0,0,1-4.055.474,5.415,5.415,0,0,1-2.284-4.741,9.5,9.5,0,0,1,.79-3.262c1.726-3.631,5.3-5.345,7.96-3.841A7.625,7.625,0,0,1,92,118.419a6.468,6.468,0,0,1,1.206,2.926,10.424,10.424,0,0,1-.935,6.227,9.248,9.248,0,0,1-5.124,4.876c-3.757,1.115-7.01-.96-7.822-5.341a15.377,15.377,0,0,1,.183-4.9,21.319,21.319,0,0,1,.974-2.664,13.9,13.9,0,0,1,1.853-2.875,10.247,10.247,0,0,1,3.032-2.443c5.207-2.893,10.426,1.142,10.608,7.6"/><path class="cls-9" d="M61.743,129.436c4.9,0,9.762-4.14,11.811-10.067,2.49-7.212.018-14.633-5.511-16.543a8.357,8.357,0,0,0-2.737-.456c-4.906,0-9.763,4.139-11.811,10.067a16.171,16.171,0,0,0-.3,10.166,9.508,9.508,0,0,0,5.807,6.376,8.364,8.364,0,0,0,2.738.457Z"/><path class="cls-3" d="M65.306,103.106a7.633,7.633,0,0,1,2.5.416c5.156,1.781,7.416,8.769,5.055,15.607-1.989,5.755-6.624,9.571-11.114,9.571a7.615,7.615,0,0,1-2.5-.417c-5.154-1.78-7.417-8.768-5.054-15.6,1.989-5.756,6.624-9.572,11.115-9.572m0-1.472c-5.215,0-10.356,4.343-12.507,10.563a16.907,16.907,0,0,0-.3,10.633,10.221,10.221,0,0,0,6.266,6.845,9.086,9.086,0,0,0,2.979.5c5.214,0,10.356-4.344,12.506-10.564,2.621-7.595-.053-15.436-5.966-17.478a9.066,9.066,0,0,0-2.978-.5Z"/><path class="cls-10" d="M71.694,106.5a15.078,15.078,0,0,1,.078,10.685c-2.363,6.838-8.458,10.937-13.61,9.155a8,8,0,0,1-3.895-2.975,8.533,8.533,0,0,0,4.978,4.92c5.154,1.782,11.25-2.317,13.613-9.154C74.492,114.4,73.912,109.6,71.694,106.5Z"/><path class="cls-13" d="M63.176,116.622c.156-.453.446-.184.726-.256.113.039.288.267.237.418a2.1,2.1,0,0,1-1.639,1.8c-.28.073-.673.106-.848-.123a2.931,2.931,0,0,1-.686-2.433c.4-1.888,1.88-3.232,3.347-3.063a3.066,3.066,0,0,1,1.778,1.121c.814.957.748,2.621.28,3.979a5.172,5.172,0,0,1-.74,1.771,5.813,5.813,0,0,1-1.2,1.271,3.776,3.776,0,0,1-3.872.521,5.181,5.181,0,0,1-2.264-4.5,9.178,9.178,0,0,1,.7-3.135c1.59-3.5,4.981-5.2,7.551-3.806a7.232,7.232,0,0,1,1.384,1.153,6.171,6.171,0,0,1,1.2,2.779,9.942,9.942,0,0,1-.792,5.973,8.86,8.86,0,0,1-4.822,4.75c-3.572,1.129-6.722-.8-7.57-4.98a14.622,14.622,0,0,1,.1-4.695,20.368,20.368,0,0,1,.886-2.563,13.249,13.249,0,0,1,1.724-2.781,9.814,9.814,0,0,1,2.862-2.388c4.932-2.855,9.989.92,10.274,7.1"/><path class="cls-14" d="M71.278,142.986c5.2,0,9.375-2.788,10.164-6.781.951-4.816-3.356-9.739-9.6-10.974a14.967,14.967,0,0,0-2.893-.287c-5.194,0-9.372,2.788-10.161,6.78a8,8,0,0,0,2.181,6.942,13.479,13.479,0,0,0,7.42,4.033A14.861,14.861,0,0,0,71.278,142.986Z"/><path class="cls-3" d="M68.947,125.921a14,14,0,0,1,2.7.268c5.727,1.132,9.682,5.532,8.833,9.828-.713,3.606-4.589,5.992-9.206,5.992a13.889,13.889,0,0,1-2.7-.268c-5.727-1.133-9.681-5.533-8.831-9.829.713-3.606,4.586-5.991,9.2-5.991m0-1.953c-5.666,0-10.237,3.111-11.116,7.565a8.948,8.948,0,0,0,2.411,7.785,14.458,14.458,0,0,0,7.958,4.339,15.922,15.922,0,0,0,3.08.3c5.67,0,10.242-3.111,11.122-7.567,1.057-5.345-3.6-10.783-10.369-12.121a15.93,15.93,0,0,0-3.086-.306Z"/><g class="cls-15"><path class="cls-9" d="M69.1,127.949c-.643,1.138.917,3.232,3.48,4.676s5.164,1.694,5.806.555-.92-3.232-3.482-4.676S69.742,126.811,69.1,127.949Z"/></g><g class="cls-4"><path class="cls-14" d="M59.744,131.912a6.743,6.743,0,0,1,3.106-4.326,6.251,6.251,0,0,0-1.382,2.827c-.85,4.294,3.1,8.694,8.831,9.828a12.08,12.08,0,0,0,8.8-1.4c-2.118,2.506-6.208,3.753-10.527,2.9C62.848,140.608,58.894,136.208,59.744,131.912Z"/></g><path class="cls-16" d="M117.237,108.107s2.67,5.813,2.165,10.54-7.02,10.94-11.14,14.28,4.753-16.11,3.55-23.726,4.923-1.918,4.923-1.918Z"/><path class="cls-17" d="M105.965,133.2s3.6-1.785,4-2.341c.89-1.251,1.394-4.4,2-5.806,3-6.958,11.814-2.405,12.388,3.484.872,8.924-7.753,19.683-12.812,18.47-4.484-1.074-4-7.81-4-7.81"/><path class="cls-18" d="M148.764,89.068a1.243,1.243,0,0,0,.946-.436,38.262,38.262,0,0,0,7.479-13.686,39.219,39.219,0,0,0-2.854-30.716C149.3,35.321,140.559,29.1,129.051,26.235a30.176,30.176,0,0,0-7.278-.892c-14.434,0-27.229,10.064-31.84,25.043-2.215,7.2-9.331,25.488-9.4,25.672a1.244,1.244,0,0,0,.819,1.649l31.85,9.069a1.281,1.281,0,0,0,.341.047,1.244,1.244,0,0,0,1.238-1.116c2.133-20.461,6.728-42.545,10.434-42.545A30.783,30.783,0,0,1,144.747,58.3a38.194,38.194,0,0,1,2.827,29.157,1.245,1.245,0,0,0,1.19,1.611Z"/><path class="cls-3" d="M121.771,26.588a28.89,28.89,0,0,1,6.98.856c26.4,6.567,32.667,29.533,27.248,47.135a37.216,37.216,0,0,1-7.235,13.244c5.415-17.6-1.9-40.146-23.082-45.843a1.831,1.831,0,0,0-.47-.063c-7.125,0-11.672,43.66-11.672,43.66L81.69,76.509s7.179-18.434,9.433-25.757c4.614-14.988,17.338-24.165,30.648-24.164m0-2.491c-14.982,0-28.255,10.417-33.027,25.923-2.2,7.151-9.3,25.4-9.374,25.585a2.491,2.491,0,0,0,1.638,3.3l31.851,9.068a2.461,2.461,0,0,0,.681.095,2.49,2.49,0,0,0,2.477-2.232c2.145-20.573,6.354-39.266,9.286-41.378A29.533,29.533,0,0,1,143.656,58.9a36.916,36.916,0,0,1,2.728,28.189,2.489,2.489,0,0,0,4.272,2.35,39.468,39.468,0,0,0,7.723-14.13c3.35-10.88,2.27-22.432-2.96-31.693C150.214,34.4,141.2,27.973,129.351,25.027a31.394,31.394,0,0,0-7.58-.93Z"/><path class="cls-19" d="M148.764,89.068a1.243,1.243,0,0,0,.946-.436,38.262,38.262,0,0,0,7.479-13.686,39.219,39.219,0,0,0-2.854-30.716C149.3,35.321,140.559,29.1,129.051,26.235a30.176,30.176,0,0,0-7.278-.892c-14.434,0-27.229,10.064-31.84,25.043-2.215,7.2-9.331,25.488-9.4,25.672a1.244,1.244,0,0,0,.819,1.649L100.972,83.3a1.262,1.262,0,0,0,.341.047,1.244,1.244,0,0,0,1.172-.825C115.363,46.582,122.205,42.7,124.549,42.7a2.513,2.513,0,0,1,1.422.512,3.368,3.368,0,0,0,.517.288c16.951,6.933,26.41,26.651,21.086,43.955a1.245,1.245,0,0,0,1.19,1.611Z"/><path class="cls-3" d="M121.771,26.588a28.89,28.89,0,0,1,6.98.856c26.4,6.567,32.667,29.533,27.248,47.135a37.216,37.216,0,0,1-7.235,13.244c5.3-17.24-3.809-38.113-21.806-45.473a4.531,4.531,0,0,0-2.409-.893c-3.426,0-10.543,5.225-23.236,40.64L81.69,76.509s7.179-18.434,9.433-25.757c4.614-14.988,17.338-24.165,30.648-24.164m0-2.491c-14.982,0-28.255,10.417-33.027,25.923-2.2,7.151-9.3,25.4-9.374,25.585a2.491,2.491,0,0,0,1.638,3.3l19.624,5.587a2.465,2.465,0,0,0,.683.1,2.493,2.493,0,0,0,2.343-1.651c13.579-37.895,20.183-38.989,20.891-38.989a1.372,1.372,0,0,1,.747.312,4.217,4.217,0,0,0,.719.4c16.372,6.7,25.508,25.732,20.369,42.436a2.489,2.489,0,0,0,4.272,2.35,39.468,39.468,0,0,0,7.723-14.13c3.35-10.88,2.27-22.432-2.96-31.693C150.214,34.4,141.2,27.973,129.351,25.027a31.394,31.394,0,0,0-7.58-.93Z"/><path class="cls-18" d="M148.764,89.068a1.243,1.243,0,0,0,.946-.436,38.262,38.262,0,0,0,7.479-13.686,39.219,39.219,0,0,0-2.854-30.716C149.3,35.321,140.559,29.1,129.051,26.235a30.176,30.176,0,0,0-7.278-.892c-14.434,0-27.229,10.064-31.84,25.043-2.215,7.2-9.331,25.488-9.4,25.672a1.244,1.244,0,0,0,.819,1.649l31.85,9.069a1.281,1.281,0,0,0,.341.047,1.244,1.244,0,0,0,1.238-1.116c2.133-20.461,6.728-42.545,10.434-42.545A30.783,30.783,0,0,1,144.747,58.3a38.194,38.194,0,0,1,2.827,29.157,1.245,1.245,0,0,0,1.19,1.611Z"/><path class="cls-3" d="M121.771,26.588a28.89,28.89,0,0,1,6.98.856c26.4,6.567,32.667,29.533,27.248,47.135a37.216,37.216,0,0,1-7.235,13.244c5.415-17.6-1.9-40.146-23.082-45.843a1.831,1.831,0,0,0-.47-.063c-7.125,0-11.672,43.66-11.672,43.66L81.69,76.509s7.179-18.434,9.433-25.757c4.614-14.988,17.338-24.165,30.648-24.164m0-2.491c-14.982,0-28.255,10.417-33.027,25.923-2.2,7.151-9.3,25.4-9.374,25.585a2.491,2.491,0,0,0,1.638,3.3l31.851,9.068a2.461,2.461,0,0,0,.681.095,2.49,2.49,0,0,0,2.477-2.232c2.145-20.573,6.354-39.266,9.286-41.378A29.533,29.533,0,0,1,143.656,58.9a36.916,36.916,0,0,1,2.728,28.189,2.489,2.489,0,0,0,4.272,2.35,39.468,39.468,0,0,0,7.723-14.13c3.35-10.88,2.27-22.432-2.96-31.693C150.214,34.4,141.2,27.973,129.351,25.027a31.394,31.394,0,0,0-7.58-.93Z"/><path class="cls-20" d="M148.764,89.068a1.243,1.243,0,0,0,.946-.436,38.262,38.262,0,0,0,7.479-13.686,39.219,39.219,0,0,0-2.854-30.716C149.3,35.321,140.559,29.1,129.051,26.235a30.176,30.176,0,0,0-7.278-.892c-14.434,0-27.229,10.064-31.84,25.043-2.215,7.2-9.331,25.488-9.4,25.672a1.244,1.244,0,0,0,.819,1.649L100.972,83.3a1.262,1.262,0,0,0,.341.047,1.244,1.244,0,0,0,1.172-.825C115.363,46.582,122.205,42.7,124.549,42.7a2.513,2.513,0,0,1,1.422.512,3.368,3.368,0,0,0,.517.288c16.951,6.933,26.41,26.651,21.086,43.955a1.245,1.245,0,0,0,1.19,1.611Z"/><path class="cls-3" d="M121.771,26.588a28.89,28.89,0,0,1,6.98.856c26.4,6.567,32.667,29.533,27.248,47.135a37.216,37.216,0,0,1-7.235,13.244c5.3-17.24-3.809-38.113-21.806-45.473a4.531,4.531,0,0,0-2.409-.893c-3.426,0-10.543,5.225-23.236,40.64L81.69,76.509s7.179-18.434,9.433-25.757c4.614-14.988,17.338-24.165,30.648-24.164m0-2.491c-14.982,0-28.255,10.417-33.027,25.923-2.2,7.151-9.3,25.4-9.374,25.585a2.491,2.491,0,0,0,1.638,3.3l19.624,5.587a2.465,2.465,0,0,0,.683.1,2.493,2.493,0,0,0,2.343-1.651c13.579-37.895,20.183-38.989,20.891-38.989a1.372,1.372,0,0,1,.747.312,4.217,4.217,0,0,0,.719.4c16.372,6.7,25.508,25.732,20.369,42.436a2.489,2.489,0,0,0,4.272,2.35,39.468,39.468,0,0,0,7.723-14.13c3.35-10.88,2.27-22.432-2.96-31.693C150.214,34.4,141.2,27.973,129.351,25.027a31.394,31.394,0,0,0-7.58-.93Z"/><g class="cls-4"><path class="cls-10" d="M98.08,50.2c-2.522-1.949-2.782-4.942-3.026-8.113a36.978,36.978,0,0,0-3.931,8.665c-2.254,7.323-9.433,25.757-9.433,25.757l31.85,9.068s2.415-23.191,6.485-35.768l-.229,0C112.707,49.863,104.149,54.674,98.08,50.2Z"/></g><path class="cls-7" d="M115.727,34.659c-6.839,2.661-15.451,15.285-17.219,7.6-.537-2.322,6.337-10.3,16.422-13.556a28.136,28.136,0,0,1,22.21,2.286S124.824,31.118,115.727,34.659Z"/><path class="cls-14" d="M95.879,100.912a1.245,1.245,0,0,0,1.242-1.144c.019-.234,1.9-23.666.727-40.8-1.291-18.849-14.5-35.8-32.115-41.223a29.489,29.489,0,0,0-8.69-1.254c-12.429,0-26.174,6.89-33.426,16.755a1.245,1.245,0,0,0,1.7,1.769,29.046,29.046,0,0,1,16.27-5.171,26.34,26.34,0,0,1,7.759,1.168C64.84,35.78,73.071,53.877,67.694,71.352a36.4,36.4,0,0,1-8.777,14.813,1.245,1.245,0,0,0,.887,2.119,1.2,1.2,0,0,0,.29-.034,6.874,6.874,0,0,1,1.577-.158c9.621,0,33.386,12.548,33.625,12.675A1.24,1.24,0,0,0,95.879,100.912Z"/><path class="cls-3" d="M57.041,17.734a28.23,28.23,0,0,1,8.326,1.2c17.9,5.509,30.048,22.733,31.238,40.118,1.183,17.242-.726,40.617-.726,40.617S71.716,86.845,61.671,86.847a8.1,8.1,0,0,0-1.867.192,37.5,37.5,0,0,0,9.08-15.321c5.588-18.159-2.992-36.918-19.171-41.9A27.555,27.555,0,0,0,41.586,28.6,30.343,30.343,0,0,0,24.62,33.981c6.745-9.175,20.072-16.247,32.421-16.247m0-2.491c-12.8,0-26.955,7.1-34.428,17.262a2.491,2.491,0,0,0,3.4,3.539,27.812,27.812,0,0,1,15.571-4.958,25.129,25.129,0,0,1,7.4,1.113c14.837,4.568,22.7,21.968,17.523,38.786A35.163,35.163,0,0,1,58.031,85.29,2.491,2.491,0,0,0,59.8,89.53a2.541,2.541,0,0,0,.582-.069,5.666,5.666,0,0,1,1.289-.123c7.726,0,26.467,9.045,33.038,12.529a2.49,2.49,0,0,0,3.649-2c.079-.962,1.911-23.76.729-40.99C97.765,39.529,84.2,22.123,66.1,16.551a30.766,30.766,0,0,0-9.059-1.308Z"/><path class="cls-18" d="M81.624,94.1a1.245,1.245,0,0,0,1.243-1.173c.423-7.316.839-17.919.419-26.882-.878-18.735-13.03-35.373-29.552-40.46a25.872,25.872,0,0,0-7.625-1.1,39.79,39.79,0,0,0-20.4,6.28,1.31,1.31,0,0,0-.282.238c-.683.778-1.275,1.511-1.808,2.24a1.245,1.245,0,0,0,1.7,1.767,29.046,29.046,0,0,1,16.27-5.171,26.34,26.34,0,0,1,7.759,1.168C64.84,35.78,73.071,53.877,67.694,71.352a36.4,36.4,0,0,1-8.777,14.813,1.245,1.245,0,0,0,.887,2.119,1.2,1.2,0,0,0,.29-.034,6.868,6.868,0,0,1,1.577-.158c3.805,0,10.534,2.044,19.458,5.908A1.245,1.245,0,0,0,81.624,94.1Z"/><path class="cls-3" d="M46.107,25.733a24.618,24.618,0,0,1,7.26,1.045C70.11,31.933,81.233,48.841,82.042,66.106c.4,8.609.043,18.77-.418,26.751-7.084-3.068-15.14-6.01-19.953-6.01a8.1,8.1,0,0,0-1.867.192,37.5,37.5,0,0,0,9.08-15.321c5.588-18.159-2.992-36.918-19.171-41.9A27.555,27.555,0,0,0,41.586,28.6,30.343,30.343,0,0,0,24.62,33.981c.537-.733,1.122-1.45,1.74-2.154,6.057-3.741,13.092-6.094,19.747-6.094m0-2.491a41.036,41.036,0,0,0-21.056,6.466,2.531,2.531,0,0,0-.562.475c-.708.807-1.322,1.567-1.877,2.326a2.49,2.49,0,0,0,3.4,3.535,27.814,27.814,0,0,1,15.573-4.958A25.125,25.125,0,0,1,48.981,32.2c14.837,4.568,22.7,21.968,17.523,38.786A35.156,35.156,0,0,1,58.031,85.29,2.491,2.491,0,0,0,59.8,89.53a2.541,2.541,0,0,0,.582-.069,5.653,5.653,0,0,1,1.285-.123c2.536,0,7.882,1.006,18.962,5.805A2.491,2.491,0,0,0,84.11,93c.424-7.346.842-17.994.421-27.012C83.629,46.74,71.114,29.636,54.1,24.4a27.172,27.172,0,0,0-7.994-1.155Z"/><g class="cls-4"><path class="cls-21" d="M77.049,45.957c-1.467-5.19-7.264-6.495-12.8-5.628C70.307,48.648,72.4,60.3,68.884,71.718A37.5,37.5,0,0,1,59.8,87.039c.131-.032.273-.06.416-.084.046-.008.1-.012.142-.02.1-.014.2-.028.3-.04.062-.006.126-.008.188-.013.092-.009.187-.018.285-.022.068,0,.14,0,.215-.006s.182-.007.277-.007l.235,0,.287.006c.079,0,.164.009.248.014s.193.01.3.017c.085,0,.173.014.261.023s.2.017.306.028c.088.009.179.022.27.032s.207.025.313.039l.289.041c.1.016.212.03.318.049s.2.033.3.051l.333.056.3.06.343.067.31.067c.118.025.232.05.348.077l.318.074c.119.028.239.055.358.084l.325.082c.123.031.245.061.365.094l.328.086.378.1c.109.03.218.062.331.092.128.037.255.073.384.112.113.032.222.064.332.1.131.04.265.079.4.12l.332.1.406.128.333.107.414.134.332.11c.142.047.28.095.422.143l.33.111.438.154c.106.036.212.074.318.111.151.052.3.107.451.161l.311.112q.237.085.471.173l.292.107.49.184c.094.036.186.072.282.106l.5.193c.085.034.178.069.264.1.175.069.351.139.53.208l.239.094.56.223.2.083c.2.08.4.162.6.243l.16.067.659.269c.032.015.07.029.1.045.238.1.474.2.712.3l.047.019c.51.216,1.021.433,1.521.651,7.7,3.331,14.255,6.81,14.255,6.81s1.477-18.083,1.028-34.173C88.051,61.609,79.993,56.68,77.049,45.957Z"/></g><path class="cls-7" d="M77.958,33.776C85.9,42.15,88.69,58.71,94.25,54.991,95.926,53.865,91.4,39.23,81.6,30.358,66.855,16.994,54.677,19.463,54.677,19.463S70.015,25.4,77.958,33.776Z"/><path class="cls-22" d="M116.634,106.883a1.214,1.214,0,0,0,.2-.016,1.244,1.244,0,0,0,1.037-1.083,36.434,36.434,0,0,1,6.087-16.105c6.6-9.693,16.973-15.479,27.756-15.479a26.885,26.885,0,0,1,15.208,4.608,28.088,28.088,0,0,1,11.884,21.265,1.246,1.246,0,0,0,1.129,1.141c.038,0,.076,0,.114,0a1.248,1.248,0,0,0,1.2-.922c3.606-13.439-1.24-33.754-14.2-42.576a44.689,44.689,0,0,0-25.285-7.574A47.7,47.7,0,0,0,114.8,58.39c-14.119,9.787-31.242,25.892-31.414,26.053a1.246,1.246,0,0,0,.361,2.049c7.86,3.4,28.893,13.572,31.762,19.675A1.245,1.245,0,0,0,116.634,106.883Z"/><path class="cls-3" d="M141.764,51.393a43.577,43.577,0,0,1,24.584,7.357c12.245,8.335,17.333,27.681,13.7,41.224-.714-8.924-4.956-17.116-12.423-22.2a28.066,28.066,0,0,0-15.91-4.823c-10.718,0-21.762,5.7-28.785,16.023a37.493,37.493,0,0,0-6.294,16.66c-3.7-7.87-32.395-20.288-32.395-20.288S101.3,69.261,115.507,59.414a46.452,46.452,0,0,1,26.257-8.021m0-2.491a48.942,48.942,0,0,0-27.675,8.465c-14.2,9.841-30.857,25.508-31.558,26.17a2.492,2.492,0,0,0,.719,4.1c10.76,4.658,28.729,13.953,31.13,19.062a2.488,2.488,0,0,0,2.254,1.43,2.445,2.445,0,0,0,.4-.032,2.487,2.487,0,0,0,2.074-2.165,35.18,35.18,0,0,1,5.88-15.552c6.366-9.351,16.357-14.934,26.727-14.934a25.647,25.647,0,0,1,14.507,4.392,26.853,26.853,0,0,1,11.344,20.335,2.491,2.491,0,0,0,2.255,2.282c.077.007.153.01.229.01a2.488,2.488,0,0,0,2.4-1.845c3.7-13.794-.865-34.51-14.7-43.928A45.921,45.921,0,0,0,141.764,48.9Z"/><path class="cls-18" d="M116.634,106.883a1.214,1.214,0,0,0,.2-.016,1.244,1.244,0,0,0,1.037-1.083,36.434,36.434,0,0,1,6.087-16.105c6.6-9.693,16.973-15.479,27.756-15.479a26.885,26.885,0,0,1,15.208,4.608,28.088,28.088,0,0,1,11.884,21.265,1.246,1.246,0,0,0,1.129,1.141c.038,0,.076,0,.112,0a1.246,1.246,0,0,0,1.2-.925c.237-.89.445-1.833.618-2.8a1.262,1.262,0,0,0,.01-.368c-1.329-10.9-6.362-20.3-13.463-25.127a39.955,39.955,0,0,0-22.614-6.71,47.06,47.06,0,0,0-27.442,8.9c-7.237,5.254-15.268,12.207-20.73,17.116a1.245,1.245,0,0,0,.249,2.027c9.963,5.285,16.224,9.845,17.629,12.837A1.245,1.245,0,0,0,116.634,106.883Z"/><path class="cls-3" d="M145.8,66.53a38.74,38.74,0,0,1,21.913,6.494c7.351,5,11.742,14.529,12.927,24.247-.164.922-.361,1.825-.595,2.7-.714-8.924-4.956-17.116-12.423-22.2a28.066,28.066,0,0,0-15.91-4.823c-10.718,0-21.762,5.7-28.785,16.023a37.493,37.493,0,0,0-6.294,16.66c-1.9-4.037-10.369-9.268-18.173-13.409,5.946-5.342,13.655-11.971,20.629-17.034A45.983,45.983,0,0,1,145.8,66.53m0-2.491a48.314,48.314,0,0,0-28.174,9.141c-7.28,5.285-15.346,12.268-20.83,17.2a2.489,2.489,0,0,0,.5,4.052c13.612,7.223,16.482,10.985,17.085,12.268a2.489,2.489,0,0,0,2.254,1.431,2.338,2.338,0,0,0,.4-.032,2.487,2.487,0,0,0,2.074-2.165,35.18,35.18,0,0,1,5.88-15.552c6.366-9.351,16.357-14.934,26.727-14.934a25.647,25.647,0,0,1,14.507,4.392,26.853,26.853,0,0,1,11.344,20.335,2.489,2.489,0,0,0,2.259,2.282c.076.007.151.01.225.01a2.491,2.491,0,0,0,2.406-1.849c.246-.923.461-1.9.64-2.907a2.5,2.5,0,0,0,.02-.738c-1.372-11.253-6.606-20.974-14-26A41.188,41.188,0,0,0,145.8,64.039Z"/><g class="cls-4"><path class="cls-10" d="M128.589,76.5c-6.055-.56-16.035,2.911-17.851-2.317-1-2.366.308-7.254-.256-11.126C97.576,72.774,84.239,85.35,84.239,85.35S91.05,88.3,98.461,92.229h0q1.093.579,2.2,1.186l.033.018c.23.126.461.253.686.38.03.017.059.035.089.05l.633.356.13.072.586.336c.057.031.111.061.163.093q.278.157.55.317c.068.038.134.078.2.117.171.1.338.2.507.3l.222.131c.163.095.322.192.484.289.08.047.159.095.235.142.155.093.31.186.461.279l.252.153.437.271c.087.054.176.108.261.162.139.088.276.175.419.264.09.057.176.114.268.171q.2.129.4.259c.089.056.178.115.268.174l.388.254c.089.06.179.12.271.18l.368.25c.093.061.183.122.272.184.12.081.239.164.358.247l.269.188c.112.081.227.161.341.242.089.063.176.126.262.189.113.081.222.161.331.242.09.064.174.127.26.19.106.08.213.159.314.238s.172.129.255.194c.1.078.2.156.3.234.082.063.163.129.244.194.1.078.194.155.288.233s.161.128.238.194c.092.076.185.153.275.23s.152.128.225.193c.089.076.176.154.262.23l.214.19c.084.077.167.154.247.23l.2.188c.078.076.154.152.234.229l.189.185.219.227c.058.06.116.122.172.182.073.078.137.152.2.227s.111.121.163.18c.066.076.127.151.188.227.049.058.1.116.143.173.063.078.121.154.177.231.038.055.085.11.123.164.058.08.109.159.164.239.033.049.07.1.1.151.054.087.106.172.156.258.023.042.053.085.072.126.073.128.14.253.2.378a38.156,38.156,0,0,1,16.751-27.006A10.249,10.249,0,0,0,128.589,76.5Z"/></g><path class="cls-7" d="M145.353,57.8c-11.536-.384-25.779,8.513-26.682,1.887-.274-2,13.683-8.32,26.818-6.882,19.782,2.166,26.02,12.916,26.02,12.916S156.885,58.182,145.353,57.8Z"/><path class="cls-23" d="M21.273,51.045a10.035,10.035,0,1,0-2.952-.446,9.965,9.965,0,0,0,2.952.446Z"/><path class="cls-3" d="M21.266,32.247a8.775,8.775,0,1,1-8.382,6.194,8.778,8.778,0,0,1,8.382-6.194m0-2.49a11.28,11.28,0,1,0,3.318.5,11.2,11.2,0,0,0-3.318-.5Z"/><g class="cls-4"><path class="cls-23" d="M24.719,32.956a8.775,8.775,0,0,1-8.793,14.586c-.295-.093-.586-.2-.866-.319a8.774,8.774,0,1,0,9.659-14.267Z"/></g><path class="cls-24" d="M14.574,38.962c1.286-3.443,5.946-6.018,8.846-4.936a4.817,4.817,0,0,1,2,1.44A4.338,4.338,0,0,0,22.479,32.9c-2.877-1.075-7.212.987-8.432,4.255-.649,1.735-1.037,3.655-.394,5.128A8.613,8.613,0,0,1,14.574,38.962Z"/><path class="cls-3" d="M18.464,44.31a2.647,2.647,0,0,1-2.074,2.6c-1.2.191-2.379-1.041-2.326-2.734s1.3-2.823,2.484-2.564A2.619,2.619,0,0,1,18.464,44.31Z"/><path class="cls-25" d="M22.068,31.889A17.162,17.162,0,0,0,16.8,49.024"/><path class="cls-3" d="M21.74,45.319a2.641,2.641,0,0,0,.252,3.316c.881.831,2.552.477,3.462-.953s.512-3.065-.615-3.517A2.616,2.616,0,0,0,21.74,45.319Z"/><path class="cls-25" d="M25.744,33.022a17.156,17.156,0,0,1-5.277,17.133"/><path class="cls-23" d="M182.759,109.939a10.031,10.031,0,1,0-.023,0Z"/><path class="cls-3" d="M182.738,91.146a8.774,8.774,0,0,1,.018,17.548h-.02a8.774,8.774,0,0,1-.02-17.548h.022m0-2.491h-.026a11.276,11.276,0,1,0,.028,0Z"/><g class="cls-4"><path class="cls-23" d="M183.641,91.193a8.773,8.773,0,0,1-4.074,16.534,8.529,8.529,0,0,1-.921-.046,8.773,8.773,0,1,0,5-16.488Z"/></g><path class="cls-24" d="M175.729,99.938c.209-3.672,3.9-7.513,6.987-7.338a4.771,4.771,0,0,1,2.337.783,4.324,4.324,0,0,0-3.566-1.58c-3.07-.173-6.6,3.08-6.795,6.563-.106,1.849.093,3.8,1.147,5.016A8.617,8.617,0,0,1,175.729,99.938Z"/><path class="cls-3" d="M181.032,103.891a2.646,2.646,0,0,1-1.209,3.1c-1.086.535-2.582-.291-3.033-1.924s.406-3.081,1.614-3.184A2.612,2.612,0,0,1,181.032,103.891Z"/><path class="cls-25" d="M180.794,90.96a17.168,17.168,0,0,0,.041,17.928"/><path class="cls-3" d="M184.46,103.883a2.65,2.65,0,0,0,1.223,3.093c1.09.53,2.581-.3,3.022-1.937s-.416-3.079-1.624-3.178A2.617,2.617,0,0,0,184.46,103.883Z"/><path class="cls-25" d="M184.642,90.952a17.163,17.163,0,0,1,.036,17.926"/><path class="cls-23" d="M145.189,101.975a8.822,8.822,0,1,0-5.89-2.258,8.826,8.826,0,0,0,5.89,2.258Z"/><path class="cls-3" d="M145.194,85.432A7.723,7.723,0,1,1,139.445,88a7.692,7.692,0,0,1,5.749-2.563m0-2.192a9.915,9.915,0,1,0,6.622,2.539,9.933,9.933,0,0,0-6.622-2.539Z"/><g class="cls-4"><path class="cls-23" d="M150.928,87.983a7.724,7.724,0,0,1-12.413,8.408q-.3-.276-.574-.574a7.723,7.723,0,1,0,12.987-7.834Z"/></g><path class="cls-24" d="M140.6,89.036c2.3-2.277,6.977-2.612,8.893-.677a4.2,4.2,0,0,1,1.067,1.89,3.8,3.8,0,0,0-1.4-3.136c-1.9-1.923-6.128-1.875-8.309.284a6.312,6.312,0,0,0-2.209,3.954A7.559,7.559,0,0,1,140.6,89.036Z"/><path class="cls-3" d="M141.737,94.745a2.332,2.332,0,0,1-2.618,1.314c-1.028-.292-1.515-1.713-.849-3.046s2.082-1.775,2.932-1.131A2.3,2.3,0,0,1,141.737,94.745Z"/><path class="cls-26" d="M149.2,86.154A15.113,15.113,0,0,0,138.661,97.9"/><path class="cls-3" d="M143.979,96.762a2.33,2.33,0,0,0-1.022,2.742c.4.99,1.863,1.324,3.119.518s1.541-2.261.807-3.037A2.3,2.3,0,0,0,143.979,96.762Z"/><path class="cls-26" d="M151.722,88.415a15.106,15.106,0,0,1-10.543,11.742"/><path class="cls-18" d="M106.157,103.7a1.244,1.244,0,0,0,1.228-1.448c-.513-3.109-3.109-18.955-3.737-25.644-1.689-18.038-15.536-31.641-32.211-31.641-.387,0-.773.007-1.163.022-11.847.456-21.674,4.764-28.419,12.46C35.07,65.19,31.768,75.938,32.8,86.936a38.291,38.291,0,0,0,4.529,14.923,1.245,1.245,0,0,0,2.331-.714,38.2,38.2,0,0,1,8.719-27.972A30.762,30.762,0,0,1,70.433,62.331h.022a.737.737,0,0,1,.571.3c1.068,1.127,3.409,6.3,2.117,29.968a1.243,1.243,0,0,0,.876,1.258l31.772,9.783A1.24,1.24,0,0,0,106.157,103.7Z"/><path class="cls-3" d="M71.436,46.209c15.611,0,29.3,12.6,30.973,30.512.6,6.39,2.986,21.12,3.748,25.731L74.385,92.669c.726-13.3.854-31.585-3.914-31.585l-.109,0c-21.9,1.257-33.654,21.84-31.944,40.174A37.274,37.274,0,0,1,34.036,86.82c-1.715-18.337,9.1-39.544,36.286-40.589.373-.014.744-.022,1.114-.022m0-2.491c-.4,0-.806.009-1.21.024-12.2.469-22.332,4.923-29.308,12.883-7.009,8-10.422,19.09-9.361,30.428a39.554,39.554,0,0,0,4.677,15.405A2.49,2.49,0,0,0,40.9,101.03a36.932,36.932,0,0,1,8.422-27.045A29.52,29.52,0,0,1,70.211,63.591c.572.749,2.976,5.357,1.687,28.943a2.493,2.493,0,0,0,1.755,2.516l31.772,9.782a2.49,2.49,0,0,0,3.19-2.786c-.512-3.1-3.1-18.91-3.727-25.557-1.748-18.682-16.13-32.771-33.452-32.771Z"/><path class="cls-27" d="M106.157,103.7a1.244,1.244,0,0,0,1.228-1.448c-.513-3.109-3.109-18.955-3.737-25.644-1.689-18.038-15.536-31.641-32.211-31.641-.387,0-.773.007-1.163.022-11.847.456-21.674,4.764-28.419,12.46C35.07,65.19,31.768,75.938,32.8,86.936a38.291,38.291,0,0,0,4.529,14.923,1.245,1.245,0,0,0,2.331-.714c-1.683-18.028,11.6-35.4,29.613-38.73a3.494,3.494,0,0,0,.563-.178,2.961,2.961,0,0,1,1.084-.254c1.588,0,7.181,2.454,12.446,34.033a1.242,1.242,0,0,0,.861.985l21.567,6.641A1.24,1.24,0,0,0,106.157,103.7Z"/><path class="cls-3" d="M71.436,46.209c15.611,0,29.3,12.6,30.973,30.512.6,6.39,2.986,21.12,3.748,25.731L84.591,95.811C79.4,64.69,73.832,60.738,70.917,60.738a5.849,5.849,0,0,0-1.874.452c-19.124,3.534-32.3,22.111-30.625,40.071A37.274,37.274,0,0,1,34.036,86.82c-1.715-18.337,9.1-39.544,36.286-40.589.373-.014.744-.022,1.114-.022m0-2.491c-.4,0-.806.009-1.21.024-12.2.469-22.332,4.923-29.308,12.883-7.009,8-10.422,19.09-9.361,30.428a39.554,39.554,0,0,0,4.677,15.405,2.49,2.49,0,0,0,4.663-1.429c-1.624-17.4,11.2-34.175,28.6-37.39a4.219,4.219,0,0,0,.783-.24,1.889,1.889,0,0,1,.636-.171c.234,0,5.779.376,11.218,32.993a2.49,2.49,0,0,0,1.723,1.971l21.567,6.64a2.49,2.49,0,0,0,3.19-2.786c-.512-3.1-3.1-18.91-3.727-25.557-1.748-18.682-16.13-32.771-33.452-32.771Z"/><g class="cls-4"><path class="cls-10" d="M102.409,76.721a35.238,35.238,0,0,0-8.046-19.6c-1.138,6.05-4.566,11.106-10.594,11.75-2.973.286-6.855-2.494-9.977-2.432,1.293,6.419,1.074,17.416.593,26.225l10.206,3.142,21.566,6.641C105.4,97.841,103.009,83.111,102.409,76.721Z"/></g><path class="cls-7" d="M48.842,63.946c5.758-5.3,11.5-9.761,15.978-11.963l8.357-4.107a55.677,55.677,0,0,0-8.2.2,40.165,40.165,0,0,0-21.094,11.27c-8.7,9.217-9.043,24.371-9.043,24.371S37.119,74.74,48.842,63.946Z"/><path class="cls-10" d="M117.978,112.221c.616,0,2.255,0,2.641-1.251l.506-1.707c.66-2.227,2.033-6.86,4.054-8.2a21.329,21.329,0,0,1,2.117-1.184,11.191,11.191,0,0,0,4.887-3.863,4.429,4.429,0,0,0,.632-3.844,6,6,0,0,0-3.7-3.518,4.581,4.581,0,0,0-1.724-.334c-3.513,0-6.929,3.8-9.943,7.15a24.034,24.034,0,0,1-3.553,3.519,4.745,4.745,0,0,1,.635-2.921l.195-.455a34.945,34.945,0,0,0,1.9-6.056c.646-3.007-.308-5.11-3.094-6.825a9.307,9.307,0,0,0-4.64-1.443,5.317,5.317,0,0,0-2.971.846c-2.243,1.472-2.218,3.672-2.2,5.44,0,.436.01.879-.018,1.321a9.917,9.917,0,0,1-2.418,5.861,1.916,1.916,0,0,1-1.435.693A2.548,2.548,0,0,1,97.9,94.364a2.468,2.468,0,0,1-.422-2.2,34,34,0,0,1,1.354-3.421c1.453-3.34,3.1-7.124,1.947-10.433a5.724,5.724,0,0,0-5.5-4.118,7.478,7.478,0,0,0-4.761,1.863c-1.218,1.03-2.494,3.677-3.729,6.238a28.541,28.541,0,0,1-1.964,3.7l-.457.6c-.559.744-1.4,1.868-1.908,1.868-.238,0-.618-.273-1.017-.732-1.364-1.572-.86-3.539.068-6.36.19-.582.376-1.15.523-1.693.388-1.418,1.134-4.989-.314-7.52a4.739,4.739,0,0,0-2.937-2.249,7.258,7.258,0,0,0-1.9-.277c-2.9,0-4.345,2.188-5.744,4.3-1.089,1.646-2.028,3.4-2.938,5.1-.482.9-.963,1.8-1.465,2.681a3.892,3.892,0,0,1-.976,1.328c-.015-.023-.081-.072-.174-.166-.487-.565-.181-3.8,0-5.725.439-4.635.937-9.889-2.854-10.323a3.463,3.463,0,0,0-.375-.021,2.832,2.832,0,0,0-2.187,1.008c-1.9,2.174-1.245,7.368-1.164,7.953.073.527.158,1.024.239,1.5.318,1.86.549,3.2-.134,4.92-.439,1.1-.772,2.239-1.094,3.342-.124.427-.248.852-.379,1.274a5.776,5.776,0,0,1-.42,1.145,4.582,4.582,0,0,0-1.032,2.148l-.288.935c-.385,1.255.049,2.512,9.223,6.267,5.766,2.359,13.548,5.076,21.918,7.653C101.144,109.3,113.577,112.221,117.978,112.221Z"/><path class="cls-3" d="M62.359,68.015a2.17,2.17,0,0,1,.239.014c4.493.513.015,13.51,2.126,15.69a1.489,1.489,0,0,0,1.048.545c.821,0,1.484-1.029,2.008-1.948,1.453-2.55,2.738-5.262,4.362-7.718,1.48-2.238,2.608-3.765,4.739-3.765a6.1,6.1,0,0,1,1.591.236c3.5.949,3.169,5.508,2.408,8.292-.789,2.888-2.68,6.464-.34,9.158a2.673,2.673,0,0,0,1.924,1.146c1.3,0,2.309-1.646,3.313-2.935,1.346-1.729,3.777-8.283,5.52-9.757a6.278,6.278,0,0,1,3.986-1.58,4.529,4.529,0,0,1,4.365,3.312c1.4,4.008-2.161,9.308-3.316,13.11a3.843,3.843,0,0,0,3.525,4.835,3.1,3.1,0,0,0,2.318-1.082,11.119,11.119,0,0,0,2.733-6.6c.137-2.2-.481-4.417,1.675-5.831a4.14,4.14,0,0,1,2.312-.65,8.008,8.008,0,0,1,4.01,1.266c2.3,1.415,3.106,2.958,2.549,5.546a33.661,33.661,0,0,1-1.833,5.844c-.56,1.331-1.415,2.951-.812,4.419.207.506.5.727.865.727,2.551,0,8.634-10.77,13.72-10.77a3.346,3.346,0,0,1,1.271.246c2.575,1.045,4.064,3.171,2.506,5.6-1.634,2.557-4.345,3.159-6.657,4.694-2.655,1.764-4.112,7.5-4.768,9.616,0,0-.175.612-.275.939-.084.274-.6.4-1.493.4-4.15,0-16.391-2.836-30.584-7.205C70.156,98.507,56.572,92.947,57.048,91.4l.288-.936c.809-2.632.643-.659,1.452-3.292.464-1.505.858-3.065,1.44-4.525,1.006-2.523.333-4.412-.03-7.032-.245-1.78-.581-7.6,2.161-7.6m0-2.4a4.058,4.058,0,0,0-3.094,1.421c-2.142,2.458-1.65,7.438-1.448,8.908.076.539.162,1.049.247,1.539.306,1.792.49,2.872-.068,4.273-.459,1.153-.8,2.32-1.13,3.45-.123.421-.246.841-.375,1.259-.139.451-.227.691-.275.808a6.138,6.138,0,0,0-1.177,2.482l-.288.939c-.785,2.561,1.346,4.221,9.917,7.73,5.8,2.372,13.617,5.1,22.02,7.69,14.206,4.373,26.781,7.311,31.29,7.311,2.085,0,3.359-.706,3.793-2.108.1-.328.272-.928.272-.93.07-.224.146-.486.234-.78.522-1.762,1.911-6.442,3.566-7.543a20.584,20.584,0,0,1,2-1.113,12.315,12.315,0,0,0,5.35-4.285,5.592,5.592,0,0,0,.767-4.857,7.163,7.163,0,0,0-4.39-4.266,5.775,5.775,0,0,0-2.176-.423c-4.048,0-7.654,4.01-10.836,7.548-.093.1-.189.209-.285.318a36.689,36.689,0,0,0,1.531-5.177c.759-3.531-.4-6.1-3.643-8.1a10.518,10.518,0,0,0-5.266-1.62,6.492,6.492,0,0,0-3.629,1.044c-2.794,1.832-2.763,4.615-2.741,6.457,0,.407.01.82-.017,1.236a8.661,8.661,0,0,1-2.1,5.121c-.279.3-.474.3-.547.3a1.394,1.394,0,0,1-.988-.6,1.291,1.291,0,0,1-.239-1.134,33.488,33.488,0,0,1,1.308-3.292c1.539-3.541,3.286-7.554,1.98-11.306a6.966,6.966,0,0,0-6.635-4.926,8.683,8.683,0,0,0-5.537,2.148c-1.316,1.112-2.451,3.348-4.035,6.633a30.2,30.2,0,0,1-1.83,3.482c-.156.2-.313.411-.47.621-.262.348-.648.864-.952,1.186-.033-.035-.066-.074-.106-.117-.951-1.1-.52-2.695.3-5.2.2-.6.389-1.188.544-1.751.427-1.562,1.239-5.511-.431-8.432A5.917,5.917,0,0,0,79.1,68.75a8.409,8.409,0,0,0-2.221-.319c-3.543,0-5.318,2.685-6.745,4.842-1.118,1.693-2.071,3.476-2.994,5.2-.184.343-.366.685-.552,1.026.055-.767.129-1.563.194-2.227.442-4.669,1.049-11.064-3.913-11.63a4.513,4.513,0,0,0-.512-.03Z"/><g class="cls-4"><path class="cls-10" d="M124.262,98c-4.827,3.546-5.026,5.159-7.87,10.063-4.007.342-51.346-13.542-55.867-14.112,5.057,2.5,15.113,6.24,26.869,9.859,17.239,5.307,31.6,8.352,32.077,6.8.1-.327.275-.939.275-.939.656-2.12,2.113-7.852,4.768-9.616,2.259-1.5,4.9-2.11,6.544-4.524C128.748,95.222,126.083,96.741,124.262,98Z"/></g><path class="cls-23" d="M36.058,118.033a9.962,9.962,0,1,0-.06,0Z"/><path class="cls-3" d="M36.055,99.241H36.1a8.774,8.774,0,0,1-.045,17.547h-.053a8.774,8.774,0,0,1,.05-17.547m0-2.491a11.235,11.235,0,1,0,.059,0Z"/><g class="cls-4"><path class="cls-23" d="M37.026,99.3a8.774,8.774,0,0,1-4.2,16.5,9,9,0,0,1-.921-.054,8.775,8.775,0,0,0,12.926-7.678A8.775,8.775,0,0,0,37.026,99.3Z"/></g><path class="cls-24" d="M29.048,107.977c.235-3.67,3.958-7.481,7.043-7.282a4.8,4.8,0,0,1,2.333.8,4.329,4.329,0,0,0-3.556-1.608c-3.067-.2-6.622,3.028-6.846,6.508-.117,1.849.062,3.8,1.106,5.024A8.567,8.567,0,0,1,29.048,107.977Z"/><path class="cls-3" d="M34.318,111.973a2.647,2.647,0,0,1-1.233,3.088c-1.094.528-2.582-.31-3.019-1.947s.43-3.078,1.64-3.172A2.618,2.618,0,0,1,34.318,111.973Z"/><path class="cls-25" d="M34.182,99.04a17.166,17.166,0,0,0-.1,17.928"/><path class="cls-3" d="M37.745,111.992a2.649,2.649,0,0,0,1.2,3.1c1.088.54,2.586-.281,3.041-1.914s-.394-3.082-1.6-3.19A2.618,2.618,0,0,0,37.745,111.992Z"/><path class="cls-25" d="M38.027,99.062a17.164,17.164,0,0,1-.1,17.928"/><g class="cls-4"><path class="cls-10" d="M77.224,87.71a4.389,4.389,0,0,0,2.3,2.2,3.5,3.5,0,0,0,3.341-.3c-.683.178-1.442-.075-2.327-1.093-2.34-2.694-.449-6.27.34-9.158a14.762,14.762,0,0,0,.439-2.347C78.441,79.779,76.407,83.493,77.224,87.71Z"/></g><g class="cls-4"><path class="cls-10" d="M96.083,95.379a1.77,1.77,0,0,0,1.5.381,3.764,3.764,0,0,1-1.248-3.945c1.059-3.488,4.138-8.238,3.561-12.094C97.263,84.925,92.588,89.663,96.083,95.379Z"/></g><g class="cls-4"><path class="cls-10" d="M112.723,99.384l.02,0c-.464-1.419.345-2.959.878-4.235a33.661,33.661,0,0,0,1.833-5.844,4.412,4.412,0,0,0-.782-4.1c-.932,1.883-2.33,3.593-3.389,5.547C110,93.709,108.693,100.379,112.723,99.384Z"/></g><path class="cls-7" d="M75.784,74.757c-1.448,1.391-1.743,3.431-2.622,2.519S72.751,74.5,74.2,73.105s3.331-1.78,4.209-.868S77.233,73.366,75.784,74.757Z"/><path class="cls-7" d="M93.481,79.553c-1.448,1.391-1.741,3.433-2.62,2.521S90.444,79.292,91.9,77.9s3.33-1.778,4.208-.866S94.928,78.163,93.481,79.553Z"/><path class="cls-7" d="M61.963,71.618c-.464,1.24-.061,2.539-.845,2.245s-1.037-1.537-.573-2.777,1.479-2.008,2.263-1.715S62.431,70.378,61.963,71.618Z"/><path class="cls-7" d="M108.328,85.957c-1.062,1.021-1.045,2.762-1.924,1.849a2.7,2.7,0,0,1,3.85-3.7C111.132,85.019,109.392,84.935,108.328,85.957Z"/><path class="cls-3" d="M114.274,129.055s.04-.056.113-.162c.054-.124.235-.22.373-.34a8.3,8.3,0,0,1,1.614-.8,2.658,2.658,0,0,1,.489-.134c-.017.007.119-.032-.025.012l.081,0,.162-.014.335-.029a2.523,2.523,0,0,1,.905.257c.164.041.265.2.4.277l.05.034.027.017c.021.02-.179-.164-.093-.084l0,0,.008.01.015.018.123.148.255.287c.172.2.106.279.2.4.06.137.1.361.153.532a5.575,5.575,0,0,1,.118,1.275c-.035.447-.037.9-.108,1.349-.03.222-.09.436-.111.656a6.27,6.27,0,0,1-.146.61,9.082,9.082,0,0,1-.35,1.124,8.72,8.72,0,0,1-.394.936c-.128.287-.252.541-.363.745-.211.418-.32.676-.32.676s.239-.134.636-.4a4.5,4.5,0,0,0,.683-.531,4.7,4.7,0,0,0,.809-.832,5.646,5.646,0,0,0,.761-1.148c.114-.231.2-.337.343-.685.1-.237.175-.486.255-.741a8.5,8.5,0,0,0,.329-1.642,7.453,7.453,0,0,0-.089-1.835,7.593,7.593,0,0,0-.333-.954,5.042,5.042,0,0,0-.6-.925l-.273-.273-.139-.129-.133-.121-.056-.032-.109-.065a3.835,3.835,0,0,0-.905-.427,3.138,3.138,0,0,0-.957-.161,3.643,3.643,0,0,0-.914.1l-.319.1-.155.052-.077.026c-.2.058-.107.046-.173.072a4.279,4.279,0,0,0-.607.408,5.019,5.019,0,0,0-1.329,1.572A1.487,1.487,0,0,0,114.274,129.055Z"/><path class="cls-3" d="M119.314,131.294s-.2-.01-.529,0a3.676,3.676,0,0,0-1.336.244,6,6,0,0,0-1.776.929,4.419,4.419,0,0,0-.855.7c-.262.273-.527.551-.792.829-.209.322-.421.645-.628.964a4.1,4.1,0,0,0-.486,1.006,5.271,5.271,0,0,0-.444,1.939,3.59,3.59,0,0,0,.146,1.4,4.685,4.685,0,0,0,.155.5s.108-.181.262-.468a8.792,8.792,0,0,1,.6-1.108,7.3,7.3,0,0,0,.407-.684c.154-.237.361-.464.515-.722.31-.512.759-1,1.122-1.525.431-.478.8-1.025,1.226-1.458.216-.214.395-.472.58-.682a6.56,6.56,0,0,0,.534-.565,10.48,10.48,0,0,1,.938-.922C119.186,131.445,119.314,131.294,119.314,131.294Z"/></g></g></svg>