<svg width="200px" height="200px" xmlns="http://www.w3.org/2000/svg" xmlns:xlink="http://www.w3.org/1999/xlink" viewBox="0 0 200 200"><defs><style>.cls-1{mask:url(#mask);filter:url(#luminosity-noclip-6);}.cls-10,.cls-2,.cls-4,.cls-6,.cls-8{mix-blend-mode:multiply;}.cls-2{fill:url(#radial-gradient);}.cls-3{mask:url(#mask-2);filter:url(#luminosity-noclip-7);}.cls-4{fill:url(#linear-gradient);}.cls-5{mask:url(#mask-3);filter:url(#luminosity-noclip-8);}.cls-6{fill:url(#linear-gradient-2);}.cls-7{mask:url(#mask-4);filter:url(#luminosity-noclip-9);}.cls-8{fill:url(#linear-gradient-3);}.cls-9{mask:url(#mask-5);filter:url(#luminosity-noclip-10);}.cls-10{fill:url(#linear-gradient-4);}.cls-11{isolation:isolate;}.cls-12{fill:#f1f2f2;}.cls-13{fill:#eceff0;}.cls-14{fill:#9c9fa0;}.cls-15{fill:url(#linear-gradient-5);}.cls-16{mask:url(#mask-6);}.cls-17,.cls-19{mix-blend-mode:overlay;}.cls-17{fill:url(#radial-gradient-2);}.cls-18{mask:url(#mask-7);}.cls-19{fill:url(#linear-gradient-6);}.cls-20{fill:#090916;}.cls-21{fill:#231f20;}.cls-22{mask:url(#mask-8);}.cls-23{fill:url(#linear-gradient-7);}.cls-24{mask:url(#mask-9);}.cls-25{fill:url(#linear-gradient-8);}.cls-26{mask:url(#mask-10);}.cls-27{fill:url(#linear-gradient-9);}.cls-28{filter:url(#luminosity-noclip-5);}.cls-29{filter:url(#luminosity-noclip-4);}.cls-30{filter:url(#luminosity-noclip-3);}.cls-31{filter:url(#luminosity-noclip-2);}.cls-32{filter:url(#luminosity-noclip);}</style><filter id="luminosity-noclip" x="86.67" y="-8072" width="79.08" height="32766" filterUnits="userSpaceOnUse" color-interpolation-filters="sRGB"><feFlood flood-color="#fff" result="bg"/><feBlend in="SourceGraphic" in2="bg"/></filter><mask id="mask" x="86.67" y="-8072" width="79.08" height="32766" maskUnits="userSpaceOnUse"><g class="cls-32"/></mask><radialGradient id="radial-gradient" cx="126.21" cy="146.23" r="64.11" gradientUnits="userSpaceOnUse"><stop offset="0" stop-color="#fff"/><stop offset="0.08" stop-color="#f6f6f6"/><stop offset="0.23" stop-color="#ddd"/><stop offset="0.4" stop-color="#b4b4b4"/><stop offset="0.61" stop-color="#7b7b7b"/><stop offset="0.85" stop-color="#333"/><stop offset="1"/></radialGradient><filter id="luminosity-noclip-2" x="87.35" y="-8072" width="77.82" height="32766" filterUnits="userSpaceOnUse" color-interpolation-filters="sRGB"><feFlood flood-color="#fff" result="bg"/><feBlend in="SourceGraphic" in2="bg"/></filter><mask id="mask-2" x="87.35" y="-8072" width="77.82" height="32766" maskUnits="userSpaceOnUse"><g class="cls-31"/></mask><linearGradient id="linear-gradient" x1="101.75" y1="69.22" x2="139.24" y2="157.54" gradientUnits="userSpaceOnUse"><stop offset="0" stop-color="#fff"/><stop offset="1"/></linearGradient><filter id="luminosity-noclip-3" x="117.83" y="-8072" width="16.61" height="32766" filterUnits="userSpaceOnUse" color-interpolation-filters="sRGB"><feFlood flood-color="#fff" result="bg"/><feBlend in="SourceGraphic" in2="bg"/></filter><mask id="mask-3" x="117.83" y="-8072" width="16.61" height="32766" maskUnits="userSpaceOnUse"><g class="cls-30"/></mask><linearGradient id="linear-gradient-2" x1="126.25" y1="137.36" x2="126.08" y2="154.94" xlink:href="#linear-gradient"/><filter id="luminosity-noclip-4" x="62.56" y="-8072" width="30.85" height="32766" filterUnits="userSpaceOnUse" color-interpolation-filters="sRGB"><feFlood flood-color="#fff" result="bg"/><feBlend in="SourceGraphic" in2="bg"/></filter><mask id="mask-4" x="62.56" y="-8072" width="30.85" height="32766" maskUnits="userSpaceOnUse"><g class="cls-29"/></mask><linearGradient id="linear-gradient-3" x1="88.07" y1="55.65" x2="72.1" y2="92.31" xlink:href="#linear-gradient"/><filter id="luminosity-noclip-5" x="158.86" y="-8072" width="30.85" height="32766" filterUnits="userSpaceOnUse" color-interpolation-filters="sRGB"><feFlood flood-color="#fff" result="bg"/><feBlend in="SourceGraphic" in2="bg"/></filter><mask id="mask-5" x="158.86" y="-8072" width="30.85" height="32766" maskUnits="userSpaceOnUse"><g class="cls-28"/></mask><linearGradient id="linear-gradient-4" x1="-2648.39" y1="55.65" x2="-2664.36" y2="92.31" gradientTransform="matrix(-1, 0, 0, 1, -2484.19, 0)" xlink:href="#linear-gradient"/><linearGradient id="linear-gradient-5" x1="126.13" y1="99.94" x2="126.13" y2="189.49" gradientUnits="userSpaceOnUse"><stop offset="0" stop-color="#1eccfe"/><stop offset="1" stop-color="#1b43c4"/></linearGradient><filter id="luminosity-noclip-6" x="86.67" y="116.8" width="79.08" height="42.55" filterUnits="userSpaceOnUse" color-interpolation-filters="sRGB"><feFlood flood-color="#fff" result="bg"/><feBlend in="SourceGraphic" in2="bg"/></filter><mask id="mask-6" x="86.67" y="116.8" width="79.08" height="42.55" maskUnits="userSpaceOnUse"><g class="cls-1"><path class="cls-2" d="M161.2,117.3l-1.3-.5c6.3,9.4,1.3,30.5-3,33.9,2.6-3.4.9-9.7.9-9.7-3.2,9.5-8.9,7.1-14.4-.1s-12.4-11.3-17.2-11.3-10.9,3.1-17.2,11.3-11.2,9.6-14.4.1c0,0-1.7,6.3.9,9.7-4.3-3.4-9.3-24.5-3-33.9l-1.3.5c-4.6,5.2-4.7,19.7-4.5,26,.4,10.7,4.5,13.2,9.2,16.1l.6-1a4.9,4.9,0,0,1-2-2.1,8.5,8.5,0,0,0,4.7,1.7c3.2,0,5.3-3,8.2-7.3.7-1.1,1.5-2.3,2.4-3.5,5.9-8.3,11.2-12.4,16.1-12.5l.3.3.3-.3c5,.1,10.2,4.2,16.1,12.5.9,1.2,1.7,2.4,2.4,3.5,2.9,4.3,5,7.3,8.2,7.3a9,9,0,0,0,4.8-1.7,6,6,0,0,1-2.1,2.1l.6,1c4.7-2.9,8.8-5.4,9.2-16.1C165.9,137,165.8,122.5,161.2,117.3Z"/></g></mask><radialGradient id="radial-gradient-2" cx="126.21" cy="146.23" r="64.11" gradientUnits="userSpaceOnUse"><stop offset="0" stop-color="#231f20"/><stop offset="1" stop-color="#231f20"/></radialGradient><filter id="luminosity-noclip-7" x="87.35" y="108.8" width="77.82" height="21.6" filterUnits="userSpaceOnUse" color-interpolation-filters="sRGB"><feFlood flood-color="#fff" result="bg"/><feBlend in="SourceGraphic" in2="bg"/></filter><mask id="mask-7" x="87.35" y="108.8" width="77.82" height="21.6" maskUnits="userSpaceOnUse"><g class="cls-3"><path class="cls-4" d="M165.2,130.4c-.6-5.9-2.1-11.8-5.1-14-7.2-5.3-17.6-7.6-34-7.6s-26.8,2.3-33.9,7.6c-2.7,1.9-4.1,6.7-4.8,11.9,7.7-11.5,35.9-16.2,55-9.8a25.6,25.6,0,0,0-8.7-4.4C140.2,114.7,156.6,117.4,165.2,130.4Z"/></g></mask><linearGradient id="linear-gradient-6" x1="101.75" y1="69.22" x2="139.24" y2="157.54" gradientUnits="userSpaceOnUse"><stop offset="0" stop-color="#f1f2f2"/><stop offset="1" stop-color="#f1f2f2"/></linearGradient><filter id="luminosity-noclip-8" x="117.83" y="144.29" width="16.61" height="5.14" filterUnits="userSpaceOnUse" color-interpolation-filters="sRGB"><feFlood flood-color="#fff" result="bg"/><feBlend in="SourceGraphic" in2="bg"/></filter><mask id="mask-8" x="117.83" y="144.29" width="16.61" height="5.14" maskUnits="userSpaceOnUse"><g class="cls-5"><path class="cls-6" d="M126.1,144.3c-2.6,0-6,2.1-8.3,4.7.9,1.7,3.9-2.5,5.1-1.2a3.4,3.4,0,0,0,3.2.7s2.1.6,3.3-.7,4.2,2.9,5,1.2C132.1,146.4,128.7,144.3,126.1,144.3Z"/></g></mask><linearGradient id="linear-gradient-7" x1="126.25" y1="137.36" x2="126.08" y2="154.94" gradientUnits="userSpaceOnUse"><stop offset="0" stop-color="#1b43c4"/><stop offset="1" stop-color="#1eccfe"/></linearGradient><filter id="luminosity-noclip-9" x="62.56" y="71.9" width="30.85" height="14.68" filterUnits="userSpaceOnUse" color-interpolation-filters="sRGB"><feFlood flood-color="#fff" result="bg"/><feBlend in="SourceGraphic" in2="bg"/></filter><mask id="mask-9" x="62.56" y="71.9" width="30.85" height="14.68" maskUnits="userSpaceOnUse"><g class="cls-7"><path class="cls-8" d="M62.6,81.1s8.9-8.2,23.3-2.3c0,0-3.8,4-4.7,7.8,0,0,3.6-7.9,12.2-10.2C81.7,69.2,67.1,70.5,62.6,81.1Z"/></g></mask><linearGradient id="linear-gradient-8" x1="88.07" y1="55.65" x2="72.1" y2="92.31" xlink:href="#linear-gradient-7"/><filter id="luminosity-noclip-10" x="158.86" y="71.9" width="30.85" height="14.68" filterUnits="userSpaceOnUse" color-interpolation-filters="sRGB"><feFlood flood-color="#fff" result="bg"/><feBlend in="SourceGraphic" in2="bg"/></filter><mask id="mask-10" x="158.86" y="71.9" width="30.85" height="14.68" maskUnits="userSpaceOnUse"><g class="cls-9"><path class="cls-10" d="M189.7,81.1s-9-8.2-23.3-2.3c0,0,3.8,4,4.7,7.8,0,0-3.7-7.9-12.2-10.2C170.6,69.2,185.2,70.5,189.7,81.1Z"/></g></mask><linearGradient id="linear-gradient-9" x1="-2648.39" y1="55.65" x2="-2664.36" y2="92.31" gradientTransform="matrix(-1, 0, 0, 1, -2484.19, 0)" xlink:href="#linear-gradient-7"/></defs><g class="cls-11"><g id="Layer_11" data-name="Layer 11"><path class="cls-12" d="M126.1,184.7c-7.7,0-17-3-25.5-8.2A49,49,0,0,1,88,166.1l.2,6-4.4-3.9c-8.5-7.7-14-18-16.3-30.5a81.2,81.2,0,0,1,.2-28.5c-9.9-7.7-12.9-20.7-10-29.3s9.8-13.5,19.5-13.5a36.5,36.5,0,0,1,20,6.2,52.2,52.2,0,0,1,8.7-4c7.7-3,14.3-5.6,18.2-16.7l2.1-5.8s6.5,9.5,3.7,18.2a21.5,21.5,0,0,0,4.1-7.9l1.7-7.2s4,6.9,4.2,10.5l1.8-6.8s4.9,9,4,15.1a32.2,32.2,0,0,1,9.6,4.4,36.3,36.3,0,0,1,19.1-5.9c9.5,0,16.7,4.7,20.2,13.2,1.7,4.3,1.6,9.9-.3,15.6a29.1,29.1,0,0,1-9.7,13.8,84.3,84.3,0,0,1,.2,28.6c-2.3,12.5-7.8,22.8-16.3,30.5l-4.4,3.9.2-6a49,49,0,0,1-12.6,10.4C143.2,181.7,133.9,184.7,126.1,184.7Zm-27-20.6a42.8,42.8,0,0,0,27,11.8,42.8,42.8,0,0,0,27.1-11.8,17,17,0,0,1-10.7-7.5l-.2-.3c-4.1-6.4-10.4-16.1-16.2-16.6s-12,10.2-16.1,16.6l-.2.3A17,17,0,0,1,99.1,164.1Zm27-32.5c6.2,0,12.2,4.4,18.9,13.8l2.4,3.6c2.6,3.8,4.1,6,5.7,6s2.5-.7,4.4-2.2l3.9-2.9a22.1,22.1,0,0,0,1.1-6.7c.5-14.3-1.8-22.6-4.3-24.4-6.5-4.8-16.4-6.9-32.1-6.9S100.6,114,94,118.8c-2.4,1.8-4.7,10.1-4.2,24.4a26.4,26.4,0,0,0,1,6.7l4,2.9c1.9,1.5,3.4,2.2,4.4,2.2s3.1-2.2,5.6-6l2.5-3.6C114,136,120,131.6,126.1,131.6Zm0-28.7a101.1,101.1,0,0,1,23,2.5c11.7,2.8,18.4,7.9,20,14.9a116.7,116.7,0,0,1,2.5,22.2c.1,1.8.2,3.7.3,5.1,1.8-2.7,4.6-9.8,4.6-21.8,0-17.1-3.5-26.9-12.5-35l1.4-2.1a33.9,33.9,0,0,0-7.9-4.3,18.9,18.9,0,0,0-7-1.3c-3.6,0-7,1.1-10.6,2.2s-8.1,2.5-13,2.5a29.7,29.7,0,0,1-4.2-.3V84.1l-3.6-.2-6-.2A32.8,32.8,0,0,0,100,86l-2.4-3.8a44.6,44.6,0,0,0-10.7,6.6l1.4,1.9c-9.1,8.6-12.5,18.1-12.5,35.1,0,12.5,3,19.3,4.6,21.4.1-1,.1-2.6.1-4.1a93.2,93.2,0,0,1,2.7-22.8C87.2,104.2,117.1,102.9,126.1,102.9Z"/><path class="cls-13" d="M126.1,179a40.2,40.2,0,0,1-13.5-2.9,46.6,46.6,0,0,1-19.1-13.5l-.7-.9h1.1c6.3-.3,10.5-2.4,13.3-6.7l.2-.4c4.8-7.4,11.3-17.6,18.7-18h.1c7.4.4,13.9,10.6,18.7,18l.2.4c2.7,4.3,7,6.4,13.3,6.7h1.1l-.7.9a46.6,46.6,0,0,1-19.1,13.5A40.2,40.2,0,0,1,126.1,179Z"/><path class="cls-14" d="M129,138.3l-2.9-2.1-2.8,2.3a14.4,14.4,0,0,0-2.2,2.4,6.4,6.4,0,0,1,5-1.9c3.6,0,5,1.9,5,1.9A8.1,8.1,0,0,0,129,138.3Z"/><path class="cls-14" d="M138.7,162.6c-4.8,1.8-10.2,3-10.7.1s-.6-7.3.3-7.2c3.5.5,5.5-2.5,6.8-1.9,4.3,2,3.9,0,2.9-2.3l-11.9-1h0l-11.8,1c-1.1,2.3-1.4,4.3,2.8,2.3,1.4-.6,3.4,2.4,6.8,1.9,1-.1.7,5.6.4,7.2s-6,1.7-10.7-.1c-.7-.2-1.6-.1-1.3,1.1s2.9,5.5,13.8,6.3h0c11-.8,13.6-5,13.9-6.3S139.4,162.4,138.7,162.6Z"/><path class="cls-14" d="M126.1,137.1l.8-.4h-.8c-7.4.4-13.9,10.6-18.7,18l-.2.4c-2.8,4.3-7,6.4-13.3,6.7H92.8l.7.9a45.8,45.8,0,0,0,11.6,9.9h.8c-4.2-2.2-2.9-9-2.9-9-.4,3.5,5.3,5.8,5.3,5.8-3.6-9.2-.3-11.3,2-15.1C115.9,145.1,121.2,138.1,126.1,137.1Z"/><path class="cls-15" d="M95.9,159.4c-4.7-2.9-8.8-5.4-9.2-16.1-.2-6.7-.1-22.8,5.5-26.9s17.6-7.6,33.9-7.6,26.8,2.3,34,7.6c5.6,4.1,5.7,20.2,5.4,26.9-.3,10.7-4.4,13.2-9.2,16.1l-.6-1a5.2,5.2,0,0,0,2.1-2.1,8.5,8.5,0,0,1-4.7,1.7h0c-3.3,0-5.4-3-8.2-7.3-.8-1.1-1.5-2.3-2.4-3.5-6-8.4-11.4-12.6-16.4-12.6s-10.3,4.2-16.3,12.6c-.9,1.2-1.7,2.4-2.4,3.5-2.9,4.3-5,7.3-8.2,7.3a8.5,8.5,0,0,1-4.7-1.7,4.9,4.9,0,0,0,2,2.1Z"/><g class="cls-16"><path class="cls-17" d="M161.2,117.3l-1.3-.5c6.3,9.4,1.3,30.5-3,33.9,2.6-3.4.9-9.7.9-9.7-3.2,9.5-8.9,7.1-14.4-.1s-12.4-11.3-17.2-11.3-10.9,3.1-17.2,11.3-11.2,9.6-14.4.1c0,0-1.7,6.3.9,9.7-4.3-3.4-9.3-24.5-3-33.9l-1.3.5c-4.6,5.2-4.7,19.7-4.5,26,.4,10.7,4.5,13.2,9.2,16.1l.6-1a4.9,4.9,0,0,1-2-2.1,8.5,8.5,0,0,0,4.7,1.7c3.2,0,5.3-3,8.2-7.3.7-1.1,1.5-2.3,2.4-3.5,5.9-8.3,11.2-12.4,16.1-12.5l.3.3.3-.3c5,.1,10.2,4.2,16.1,12.5.9,1.2,1.7,2.4,2.4,3.5,2.9,4.3,5,7.3,8.2,7.3a9,9,0,0,0,4.8-1.7,6,6,0,0,1-2.1,2.1l.6,1c4.7-2.9,8.8-5.4,9.2-16.1C165.9,137,165.8,122.5,161.2,117.3Z"/></g><g class="cls-18"><path class="cls-19" d="M165.2,130.4c-.6-5.9-2.1-11.8-5.1-14-7.2-5.3-17.6-7.6-34-7.6s-26.8,2.3-33.9,7.6c-2.7,1.9-4.1,6.7-4.8,11.9,7.7-11.5,35.9-16.2,55-9.8a25.6,25.6,0,0,0-8.7-4.4C140.2,114.7,156.6,117.4,165.2,130.4Z"/></g><path class="cls-13" d="M170.6,152.3c-2.3,0-2.4-4.3-2.6-11.3s-.2-13.4-1.9-20c-3.7-14.3-33.9-15-40-15s-36.2.7-39.9,15c-1.7,6.6-1.8,14-2,20s-.2,11.3-2.5,11.3h-.6c-3-1-8.4-10.6-8.4-26.4,0-13.3,1.9-24.4,10.5-34.2a31,31,0,0,0-6.1,5.5l-.9-.6A44.1,44.1,0,0,1,97.5,78.9a78,78,0,0,1,11.9-3.1l.4,1.1s-4.6,2.8-7.9,5.2a39.1,39.1,0,0,1,11.3-1.5l6.2.2,5.2.2c4.2,0,6.9-.5,9.2-1.8l.7.8a21,21,0,0,1-7.8,4.7h.2c4.5,0,8.3-1.2,12.1-2.3s7.4-2.4,11.5-2.4a21.3,21.3,0,0,1,8.1,1.6c3.1,1.1,13.3,5.6,17.5,15l-1,.5a26.1,26.1,0,0,0-5.8-5.3,36.4,36.4,0,0,1,7.5,12.9c1.9,5.7,2.7,12.4,2.7,21.1,0,15.8-5.3,25.4-8.3,26.4Z"/><path class="cls-14" d="M175,98.1l.9-1.8c-4.3-9.2-14.3-13.6-17.3-14.7a21.3,21.3,0,0,0-8.1-1.6c-4.1,0-7.8,1.2-11.5,2.4s-7.6,2.3-12.1,2.3h-.2a21,21,0,0,0,7.8-4.7l-.7-.8c-2.3,1.3-5,1.8-9.2,1.8l-5.2-.2-6.2-.2A39.5,39.5,0,0,0,102.3,82l-3.2,1.7s13.6-1.8,22.4-.4c-2.5,1.1-8.6,3.2-14.1,2.2,5.5,2.3,14.3,5,31.5.3s23.1,2.5,27.4,11.1c0,0-.9-7.8-5.5-11.8A63.5,63.5,0,0,1,175,98.1Z"/><path class="cls-14" d="M119.7,105.6c-15.1,0-35.4,1.4-37.8,16.3-.5,2.5-10-12.1,4.7-33a39.5,39.5,0,0,0-6.4,6.5c-6.1,8.8-7.5,18.8-7.5,30.4,0,15.8,5.4,25.4,8.4,26.4h.6c2.3,0,2.4-4.3,2.5-11.3s.3-13.4,2-20c2.9-11.3,22.3-14.1,33.4-14.8Z"/><path class="cls-14" d="M126.1,137.1l-.8-.4h.9c7.4.4,13.9,10.6,18.7,18l.2.4c2.7,4.3,7,6.4,13.3,6.7h1.1l-.7.9a44.6,44.6,0,0,1-11.7,9.9h-.7c4.2-2.2,2.8-9,2.8-9,.4,3.5-5.2,5.8-5.2,5.8,3.5-9.2.3-11.3-2.1-15.1C136.4,145.1,131.1,138.1,126.1,137.1Z"/><path class="cls-14" d="M132.6,105.6c15,0,35.3,1.4,37.8,16.3.4,2.5,9.9-12.1-4.7-33a39.5,39.5,0,0,1,6.4,6.5c6,8.8,7.4,18.8,7.4,30.4,0,15.8-5.3,25.4-8.3,26.4h-.6c-2.3,0-2.4-4.3-2.6-11.3s-.2-13.4-1.9-20c-2.9-11.3-22.4-14.1-33.4-14.8Z"/><path class="cls-20" d="M138.4,163c-7.8,4.8-11,2.4-11.3.4-.6-4.3-.2-8.5.6-8.8,3.4-1.3,4.8-4.1,7-2.8s3.8,2.6,3.7,1.2c-.5-5.1-7.4-10.2-12.3-10.2s-11.8,5.1-12.2,10.2c-.1,1.4,1.5.1,3.7-1.2s3.5,1.5,7,2.8c.8.3,1.1,4.5.5,8.8-.3,2-3.4,4.4-11.2-.4-2.1-1.3-2.7,1.6,1.2,3.7a22.2,22.2,0,0,0,11,2.5,21.8,21.8,0,0,0,11-2.5C141.1,164.6,140.4,161.7,138.4,163Z"/><polygon class="cls-21" points="105.8 126.2 103 129.1 100.2 126.2 100.2 120.6 105.8 120.6 105.8 126.2"/><polygon class="cls-21" points="106.9 132.9 104 130.1 106.9 127.3 112.6 127.3 112.6 132.9 106.9 132.9"/><polygon class="cls-21" points="100.2 134 103 131.2 105.8 134 105.8 139.7 100.2 139.7 100.2 134"/><polygon class="cls-21" points="99.1 127.3 101.9 130.1 99.1 132.9 93.4 132.9 93.4 127.3 99.1 127.3"/><path class="cls-21" d="M158.5,130.1a3.1,3.1,0,0,1-3.1,3.1,3,3,0,0,1-3-3.1,2.9,2.9,0,0,1,3-3A3,3,0,0,1,158.5,130.1Z"/><path class="cls-21" d="M149.3,120.9a3,3,0,0,1,3,3.1,2.9,2.9,0,0,1-3,3,3,3,0,0,1-3.1-3A3.1,3.1,0,0,1,149.3,120.9Z"/><path class="cls-21" d="M140.1,130.1a3.1,3.1,0,0,1,6.1,0,3.1,3.1,0,1,1-6.1,0Z"/><circle class="cls-21" cx="149.3" cy="136.3" r="3.1"/><rect class="cls-21" x="117.2" y="126.3" width="4.9" height="2.8"/><rect class="cls-21" x="130.1" y="126.3" width="4.9" height="2.8"/><path class="cls-20" d="M192.2,80.7c-7.5-18.3-30.4-11-36.9-5-3.9-4-12.3-5.8-12.3-5.8a19.3,19.3,0,0,0-.8-8.9s-1.6,5.8-5.8,8.2c0,0,2.8-6.3.1-12.2,0,0-2.4,10.1-11.4,14.3.1-.3,5.2-10.6,1.4-18.6-6.2,17.6-19.4,16.1-29.5,23-6.5-6-30.7-13.6-37,5-2.6,7.7.3,20.4,10.5,27.4-3.2,16.3-3.2,41.9,15,58.2l-.3-9.5c5,13,25.8,25.4,40.9,25.4s36-12.4,41-25.4l-.3,9.5c18.1-16.3,18.2-41.9,15-58.2C192,101.1,195.2,87.9,192.2,80.7Zm-66.1,97.8c-4.4,0-20.5-2.3-32.2-16.3,5.1-.2,10.4-1.7,13.7-6.9,4.8-7.4,11.3-17.7,18.5-18.2s13.7,10.8,18.5,18.2c3.4,5.2,8.6,6.7,13.8,6.9C146.7,176.2,130.5,178.5,126.1,178.5ZM165,143.3c-.4,10.3-4.1,12.7-9,15.6a6.4,6.4,0,0,0,3-4c-8.3,6.1-9.9.6-16.1-8s-11-12.8-16.8-12.8-11.3,5.1-16.8,12.8-7.7,14.1-16,8a6,6,0,0,0,2.9,4c-4.8-2.9-8.6-5.3-8.9-15.6-.4-12.1,1-23.4,5.2-26.5,6.8-4.9,16.8-7.4,33.6-7.4s26.9,2.5,33.6,7.4C163.9,119.9,165.4,131.2,165,143.3Zm6.7,8c-4.1,1.3-.9-12-5.1-30.4-3.2-14.2-31.5-15.5-40.5-15.5s-37,1.4-40.4,15.5c-5,20-.5,28.5-4.8,29.4-2.7.5-7.6-8.4-7.6-24.5s2.8-27.1,13.3-36.9c-.2.1-6.3,3.2-9.9,7.9a42.8,42.8,0,0,1,21-17.3,65.8,65.8,0,0,1,11.8-3.1s-7.7,4.7-10.4,7.3c13.5-5.6,26.6.7,35-4.1a19.3,19.3,0,0,1-11,5.4c13.8,2.1,21.5-8.1,35.3-2.9,5.4,2,13.6,6.7,17.2,14.7-3.6-4.7-9.7-7.8-9.9-7.9,10.4,9.4,13.3,20.9,13.3,36.9S174.2,150.4,171.7,151.3Z"/><g class="cls-22"><path class="cls-23" d="M126.1,144.3c-2.6,0-6,2.1-8.3,4.7.9,1.7,3.9-2.5,5.1-1.2a3.4,3.4,0,0,0,3.2.7s2.1.6,3.3-.7,4.2,2.9,5,1.2C132.1,146.4,128.7,144.3,126.1,144.3Z"/></g><g class="cls-24"><path class="cls-25" d="M62.6,81.1s8.9-8.2,23.3-2.3c0,0-3.8,4-4.7,7.8,0,0,3.6-7.9,12.2-10.2C81.7,69.2,67.1,70.5,62.6,81.1Z"/></g><g class="cls-26"><path class="cls-27" d="M189.7,81.1s-9-8.2-23.3-2.3c0,0,3.8,4,4.7,7.8,0,0-3.7-7.9-12.2-10.2C170.6,69.2,185.2,70.5,189.7,81.1Z"/></g></g></g></svg>