<svg xmlns="http://www.w3.org/2000/svg" viewBox="0 0 200 200"><defs><style>.cls-1{isolation:isolate;}.cls-2,.cls-5{fill:#fccbaa;}.cls-3{fill:#3b2314;}.cls-4,.cls-5{mix-blend-mode:multiply;}.cls-6{fill:#be1e2d;stroke-linecap:round;stroke-miterlimit:10;stroke-width:1.238px;}.cls-18,.cls-19,.cls-6{stroke:#3b2314;}.cls-7{fill:#f8a576;}.cls-8{fill:#faaf40;}.cls-9{fill:#00a69c;}.cls-10{fill:#cd383a;}.cls-11{fill:#d0d2d3;}.cls-12,.cls-17,.cls-21{fill:#fff;}.cls-12,.cls-22{opacity:0.3;}.cls-13{fill:#8bc53f;}.cls-14{fill:#929497;}.cls-15{fill:#5661ab;}.cls-16{fill:#ffc609;}.cls-17{opacity:0.6;}.cls-18,.cls-19{fill:none;stroke-linecap:square;stroke-linejoin:round;}.cls-18{stroke-width:0.515px;}.cls-19{stroke-width:0.453px;}.cls-20{fill:#26a9e0;}</style></defs><g class="cls-1"><g id="Layer_2" data-name="Layer 2"><path class="cls-2" d="M135.5,178.64c-4.734,0-13.673-3.828-16.611-5.086-.406-.174-.676-.29-.772-.325l.021-.063c-2.119-.692-10.109-5.028-10.2-5.076-7.132-3.974-11.741-7.427-13.7-10.264-2.162-3.136-2.543-7.733-1.059-12.659-1.524-3.878-3.529-15.4-3.742-18.445C88.62,114.961,88.385,101.7,96,93.231c4.983-5.542,12.593-8.427,23.268-8.82.43-.016.852-.024,1.27-.024,17.826,0,29.212,14.365,32.944,41.546,4.667,2.985,7.492,6.985,7.777,11.032.562,8.1-8.6,26.066-9,26.827-2.853,9.24-8.33,14.281-16.215,14.83C135.872,178.633,135.687,178.64,135.5,178.64Z"/><path class="cls-3" d="M120.537,85.363c23.177,0,29.846,24.715,32.04,41.156,4.169,2.558,7.416,6.336,7.709,10.514.55,7.925-8.889,26.313-8.889,26.313-2.473,7.963-7.166,13.728-15.415,14.3-.156.01-.318.017-.486.017-5.384,0-16.905-5.366-17.1-5.366h0s-18.842-8.486-23.356-15.027c-2.227-3.228-2.207-7.806-.825-12.152-1.472-3.331-3.586-15.318-3.805-18.465-1.306-18.766-1.1-40.163,28.893-41.267q.624-.024,1.231-.024m0-1.953q-.641,0-1.3.025c-10.953.4-18.792,3.394-23.959,9.143-7.872,8.756-7.643,22.251-6.811,34.212.216,3.089,2.121,14.116,3.687,18.415-1.456,5.092-1,9.863,1.285,13.174,4.769,6.911,23.372,15.344,24.161,15.7l1,.45.033-.024c5.17,2.211,12.482,5.111,16.868,5.111.214,0,.423-.007.622-.02,8.281-.577,14.033-5.793,17.094-15.509.979-1.926,9.583-19.121,9.023-27.19-.3-4.245-3.142-8.411-7.845-11.538-3.871-27.45-15.564-41.949-33.853-41.949Z"/><g class="cls-4"><path class="cls-2" d="M148.591,127.18a56.032,56.032,0,0,1,6.815,1.395,21.987,21.987,0,0,0-2.829-2.056c-.149-1.1-.292-2.249-.436-3.428A11.912,11.912,0,0,1,148.591,127.18Z"/></g><g class="cls-4"><path class="cls-2" d="M105.551,141.93c-2.094-5.664-5.165-11.118-6.282-16.992A110.77,110.77,0,0,1,97.2,93.827c-7.822,8.123-7.63,20.814-6.791,32.827.219,3.147,2.333,15.134,3.805,18.465-1.382,4.346-1.4,8.924.825,12.152,2.025,2.933,6.934,6.261,11.736,9.038C104.819,163.263,91.409,147.266,105.551,141.93Z"/></g><path class="cls-5" d="M120.6,143.72s2.35,8.337,10.856,6.8,10.343-2.428,10.551-10.183S120.6,143.72,120.6,143.72Z"/><path class="cls-6" d="M84.762,113.248s-2.67,5.812-2.161,10.54,7.017,10.939,11.138,14.279-4.754-16.109-3.55-23.726-4.923-1.918-4.923-1.918Z"/><path class="cls-7" d="M96.034,138.342s-3.6-1.784-4-2.341c-.888-1.251-1.392-4.4-2-5.807-3-6.957-11.812-2.4-12.387,3.487-.87,8.92,7.755,19.682,12.811,18.469,4.485-1.075,4.007-7.812,4.007-7.812"/><path class="cls-3" d="M96.034,138.342s-.918-.339-2.474-1.075c-.386-.194-.814-.4-1.274-.681a2.04,2.04,0,0,1-.368-.272l-.1-.084c-.024-.03-.009.006-.069-.08l-.023-.043-.1-.181c-.136-.242-.278-.492-.424-.752a19.631,19.631,0,0,1-.741-1.838c-.227-.625-.413-1.326-.668-1.973-.119-.3-.262-.7-.368-.932-.194-.328-.391-.663-.593-1-.222-.282-.451-.5-.661-.761a9.974,9.974,0,0,0-.842-.62,4.812,4.812,0,0,0-4.307.045,7.816,7.816,0,0,0-3.589,3.351,6.434,6.434,0,0,0-.755,2.278l-.038,1.46c-.006.484.077.883.105,1.328a19.431,19.431,0,0,0,1.42,5.288,25.624,25.624,0,0,0,2.668,4.693,17.186,17.186,0,0,0,3.445,3.622,5.924,5.924,0,0,0,3.833,1.465c.053,0,.2-.011.179,0l.262-.076.511-.148a5.523,5.523,0,0,0,.737-.412,4.415,4.415,0,0,0,1.2-1.223,8.431,8.431,0,0,0,1.107-2.744,12.834,12.834,0,0,0,.359-2.642s.024.244.07.7a10.976,10.976,0,0,1-.027,2,8.937,8.937,0,0,1-.831,3.069,5.308,5.308,0,0,1-1.257,1.631,4.781,4.781,0,0,1-1,.666l-.5.192-.252.1a2.648,2.648,0,0,1-.361.066,6.9,6.9,0,0,1-4.933-1.37,16.943,16.943,0,0,1-4.014-3.785,21.968,21.968,0,0,1-4.708-10.91c-.033-.528-.109-1.1-.1-1.59l.058-1.46a8.173,8.173,0,0,1,1.044-3.195,9.426,9.426,0,0,1,4.642-4.064,6.329,6.329,0,0,1,5.84.32,9.878,9.878,0,0,1,1.093.92,13.571,13.571,0,0,1,.827,1.13c.171.355.34.706.506,1.049.185.471.245.792.368,1.182.212.74.341,1.41.49,2.064.169.607.249,1.2.464,1.752.113.277.226.544.332.8l.079.193.02.046c-.036-.063,0,0,0-.01l.053.053a1.305,1.305,0,0,0,.242.222c.383.307.784.565,1.138.8Z"/><path class="cls-8" d="M53.236,94.209a1.246,1.246,0,0,1-.948-.436,38.264,38.264,0,0,1-7.474-13.686C41.564,69.53,42.6,58.333,47.67,49.368c5.031-8.909,13.772-15.13,25.278-17.991a30.2,30.2,0,0,1,7.28-.892c14.432,0,27.227,10.063,31.839,25.042,2.214,7.2,9.33,25.487,9.4,25.671a1.244,1.244,0,0,1-.818,1.65L88.8,91.917a1.286,1.286,0,0,1-.341.047,1.244,1.244,0,0,1-1.238-1.116C85.092,70.388,80.5,48.3,76.789,48.3A30.769,30.769,0,0,0,57.256,63.437,38.2,38.2,0,0,0,54.426,92.6a1.245,1.245,0,0,1-1.19,1.611Z"/><path class="cls-3" d="M80.228,31.731c13.31,0,26.034,9.174,30.649,24.162,2.253,7.323,9.431,25.757,9.431,25.757L88.461,90.719S83.915,47.06,76.788,47.059a1.765,1.765,0,0,0-.469.063c-21.187,5.7-28.5,28.243-23.083,45.842A37.254,37.254,0,0,1,46,79.721c-5.419-17.6.845-40.57,27.244-47.135a28.907,28.907,0,0,1,6.98-.855m0-2.491h0a31.4,31.4,0,0,0-7.58.929C60.8,33.114,51.789,39.542,46.584,48.756c-5.232,9.262-6.31,20.815-2.96,31.7a39.51,39.51,0,0,0,7.718,14.128,2.49,2.49,0,0,0,4.274-2.35A36.918,36.918,0,0,1,58.347,64.04,29.528,29.528,0,0,1,76.7,49.6c2.932,2.109,7.143,20.8,9.285,41.376a2.493,2.493,0,0,0,3.161,2.138l31.847-9.069a2.489,2.489,0,0,0,1.637-3.3c-.069-.183-7.17-18.433-9.369-25.585C108.483,39.656,95.21,29.24,80.228,29.24Z"/><path class="cls-9" d="M53.236,94.209a1.246,1.246,0,0,1-.948-.436,38.264,38.264,0,0,1-7.474-13.686C41.564,69.53,42.6,58.333,47.67,49.368c5.031-8.909,13.772-15.13,25.278-17.991a30.2,30.2,0,0,1,7.28-.892c14.432,0,27.227,10.063,31.839,25.042,2.214,7.2,9.33,25.487,9.4,25.671a1.244,1.244,0,0,1-.818,1.65l-19.624,5.587a1.27,1.27,0,0,1-.342.047,1.244,1.244,0,0,1-1.171-.825C86.638,51.724,79.8,47.844,77.454,47.844a2.513,2.513,0,0,0-1.422.512,3.486,3.486,0,0,1-.515.289C58.564,55.574,49.1,75.291,54.426,92.6a1.245,1.245,0,0,1-.59,1.457A1.23,1.23,0,0,1,53.236,94.209Z"/><path class="cls-3" d="M80.228,31.731c13.31,0,26.034,9.174,30.649,24.162,2.253,7.323,9.431,25.757,9.431,25.757l-19.624,5.587C88,51.825,80.881,46.6,77.454,46.6a4.54,4.54,0,0,0-2.41.893c-18,7.358-27.111,28.232-21.808,45.472A37.254,37.254,0,0,1,46,79.721c-5.419-17.6.845-40.57,27.244-47.135a28.907,28.907,0,0,1,6.98-.855m0-2.491h0a31.4,31.4,0,0,0-7.58.929C60.8,33.114,51.789,39.542,46.584,48.756c-5.232,9.262-6.31,20.815-2.96,31.7a39.51,39.51,0,0,0,7.718,14.128,2.49,2.49,0,0,0,4.274-2.35c-5.138-16.706,4-35.742,20.37-42.434a4.357,4.357,0,0,0,.722-.4,1.359,1.359,0,0,1,.746-.312c.707,0,7.311,1.094,20.885,38.987a2.489,2.489,0,0,0,3.028,1.555l19.624-5.587a2.489,2.489,0,0,0,1.637-3.3c-.069-.183-7.17-18.433-9.369-25.585C108.483,39.656,95.21,29.24,80.228,29.24Z"/><path class="cls-8" d="M53.236,94.209a1.246,1.246,0,0,1-.948-.436,38.264,38.264,0,0,1-7.474-13.686C41.564,69.53,42.6,58.333,47.67,49.368c5.031-8.909,13.772-15.13,25.278-17.991a30.2,30.2,0,0,1,7.28-.892c14.432,0,27.227,10.063,31.839,25.042,2.214,7.2,9.33,25.487,9.4,25.671a1.244,1.244,0,0,1-.818,1.65L88.8,91.917a1.286,1.286,0,0,1-.341.047,1.244,1.244,0,0,1-1.238-1.116C85.092,70.388,80.5,48.3,76.789,48.3A30.769,30.769,0,0,0,57.256,63.437,38.2,38.2,0,0,0,54.426,92.6a1.245,1.245,0,0,1-1.19,1.611Z"/><path class="cls-3" d="M80.228,31.731c13.31,0,26.034,9.174,30.649,24.162,2.253,7.323,9.431,25.757,9.431,25.757L88.461,90.719S83.915,47.06,76.788,47.059a1.765,1.765,0,0,0-.469.063c-21.187,5.7-28.5,28.243-23.083,45.842A37.254,37.254,0,0,1,46,79.721c-5.419-17.6.845-40.57,27.244-47.135a28.907,28.907,0,0,1,6.98-.855m0-2.491h0a31.4,31.4,0,0,0-7.58.929C60.8,33.114,51.789,39.542,46.584,48.756c-5.232,9.262-6.31,20.815-2.96,31.7a39.51,39.51,0,0,0,7.718,14.128,2.49,2.49,0,0,0,4.274-2.35A36.918,36.918,0,0,1,58.347,64.04,29.528,29.528,0,0,1,76.7,49.6c2.932,2.109,7.143,20.8,9.285,41.376a2.493,2.493,0,0,0,3.161,2.138l31.847-9.069a2.489,2.489,0,0,0,1.637-3.3c-.069-.183-7.17-18.433-9.369-25.585C108.483,39.656,95.21,29.24,80.228,29.24Z"/><path class="cls-10" d="M53.236,94.209a1.246,1.246,0,0,1-.948-.436,38.264,38.264,0,0,1-7.474-13.686C41.564,69.53,42.6,58.333,47.67,49.368c5.031-8.909,13.772-15.13,25.278-17.991a30.2,30.2,0,0,1,7.28-.892c14.432,0,27.227,10.063,31.839,25.042,2.214,7.2,9.33,25.487,9.4,25.671a1.244,1.244,0,0,1-.818,1.65l-19.624,5.587a1.27,1.27,0,0,1-.342.047,1.244,1.244,0,0,1-1.171-.825C86.638,51.724,79.8,47.844,77.454,47.844a2.513,2.513,0,0,0-1.422.512,3.486,3.486,0,0,1-.515.289C58.564,55.574,49.1,75.291,54.426,92.6a1.245,1.245,0,0,1-.59,1.457A1.23,1.23,0,0,1,53.236,94.209Z"/><path class="cls-3" d="M80.228,31.731c13.31,0,26.034,9.174,30.649,24.162,2.253,7.323,9.431,25.757,9.431,25.757l-19.624,5.587C88,51.825,80.881,46.6,77.454,46.6a4.54,4.54,0,0,0-2.41.893c-18,7.358-27.111,28.232-21.808,45.472A37.254,37.254,0,0,1,46,79.721c-5.419-17.6.845-40.57,27.244-47.135a28.907,28.907,0,0,1,6.98-.855m0-2.491h0a31.4,31.4,0,0,0-7.58.929C60.8,33.114,51.789,39.542,46.584,48.756c-5.232,9.262-6.31,20.815-2.96,31.7a39.51,39.51,0,0,0,7.718,14.128,2.49,2.49,0,0,0,4.274-2.35c-5.138-16.706,4-35.742,20.37-42.434a4.357,4.357,0,0,0,.722-.4,1.359,1.359,0,0,1,.746-.312c.707,0,7.311,1.094,20.885,38.987a2.489,2.489,0,0,0,3.028,1.555l19.624-5.587a2.489,2.489,0,0,0,1.637-3.3c-.069-.183-7.17-18.433-9.369-25.585C108.483,39.656,95.21,29.24,80.228,29.24Z"/><g class="cls-4"><path class="cls-11" d="M103.919,55.341c2.522-1.949,2.781-4.941,3.026-8.112a37.055,37.055,0,0,1,3.932,8.664c2.253,7.323,9.431,25.757,9.431,25.757L88.461,90.719s-2.416-23.193-6.486-35.77c.078,0,.154,0,.232,0C89.3,55,97.85,59.816,103.919,55.341Z"/></g><path class="cls-12" d="M86.273,39.8c6.838,2.662,15.448,15.285,17.22,7.6.534-2.321-6.339-10.3-16.423-13.556A28.138,28.138,0,0,0,64.861,36.13S77.177,36.26,86.273,39.8Z"/><path class="cls-13" d="M106.12,106.052a1.248,1.248,0,0,1-1.242-1.145c-.02-.234-1.9-23.663-.729-40.8,1.3-18.847,14.5-35.8,32.116-41.221a29.5,29.5,0,0,1,8.691-1.254c12.427,0,26.173,6.89,33.426,16.755a1.245,1.245,0,0,1-1.7,1.769,29.035,29.035,0,0,0-16.27-5.17,26.372,26.372,0,0,0-7.759,1.167,27.642,27.642,0,0,0-16.981,15.336,35.175,35.175,0,0,0-1.364,25.007,36.451,36.451,0,0,0,8.775,14.812,1.246,1.246,0,0,1-1.177,2.086,6.857,6.857,0,0,0-1.577-.159c-9.622,0-33.387,12.548-33.626,12.675A1.24,1.24,0,0,1,106.12,106.052Z"/><path class="cls-3" d="M144.956,22.875c12.352,0,25.677,7.073,32.424,16.247a30.348,30.348,0,0,0-16.968-5.384,27.509,27.509,0,0,0-8.125,1.223c-16.179,4.98-24.76,23.739-19.169,41.9a37.52,37.52,0,0,0,9.078,15.32,8.138,8.138,0,0,0-1.867-.192c-10.045,0-34.209,12.819-34.209,12.819s-1.911-23.373-.728-40.616c1.2-17.383,13.345-34.607,31.24-40.117a28.292,28.292,0,0,1,8.324-1.2m0-2.491h0a30.808,30.808,0,0,0-9.057,1.308c-18.1,5.573-31.662,22.978-32.991,42.327-1.183,17.232.65,40.028.729,40.99a2.491,2.491,0,0,0,3.649,2c6.573-3.485,25.317-12.53,33.043-12.529a5.672,5.672,0,0,1,1.287.123,2.451,2.451,0,0,0,.58.069,2.489,2.489,0,0,0,1.773-4.239,35.192,35.192,0,0,1-8.471-14.3A33.925,33.925,0,0,1,136.8,52a26.409,26.409,0,0,1,16.215-14.663,25.082,25.082,0,0,1,7.393-1.113,27.8,27.8,0,0,1,15.571,4.956,2.491,2.491,0,0,0,3.4-3.538c-7.474-10.164-21.633-17.262-34.43-17.262Z"/><path class="cls-8" d="M120.375,99.242a1.245,1.245,0,0,1-1.243-1.174,267.648,267.648,0,0,1-.42-26.879c.879-18.734,13.031-35.372,29.553-40.459a25.869,25.869,0,0,1,7.626-1.1,39.79,39.79,0,0,1,20.405,6.28,1.246,1.246,0,0,1,.282.239c.661.754,1.267,1.506,1.8,2.235a1.245,1.245,0,0,1-1.7,1.77,29.035,29.035,0,0,0-16.27-5.17,26.372,26.372,0,0,0-7.759,1.167,27.642,27.642,0,0,0-16.981,15.336,35.175,35.175,0,0,0-1.364,25.007,36.451,36.451,0,0,0,8.775,14.812,1.246,1.246,0,0,1-1.177,2.086,6.857,6.857,0,0,0-1.577-.159c-3.8,0-10.532,2.043-19.459,5.908A1.261,1.261,0,0,1,120.375,99.242Z"/><path class="cls-3" d="M155.891,30.874c6.655,0,13.693,2.354,19.75,6.1.617.7,1.2,1.421,1.739,2.153a30.348,30.348,0,0,0-16.968-5.384,27.509,27.509,0,0,0-8.125,1.223c-16.179,4.98-24.76,23.739-19.169,41.9a37.52,37.52,0,0,0,9.078,15.32,8.138,8.138,0,0,0-1.867-.192c-4.813,0-12.872,2.944-19.954,6.01-.458-7.979-.821-18.141-.418-26.75.809-17.265,11.932-34.172,28.674-39.327a24.6,24.6,0,0,1,7.26-1.046m0-2.491h0a27.177,27.177,0,0,0-7.994,1.156c-17.013,5.239-29.527,22.342-30.429,41.591a268.715,268.715,0,0,0,.421,27.009,2.49,2.49,0,0,0,3.475,2.144c11.085-4.8,16.431-5.805,18.965-5.805a5.672,5.672,0,0,1,1.287.123,2.451,2.451,0,0,0,.58.069,2.489,2.489,0,0,0,1.773-4.239,35.192,35.192,0,0,1-8.471-14.3A33.925,33.925,0,0,1,136.8,52a26.409,26.409,0,0,1,16.215-14.663,25.082,25.082,0,0,1,7.393-1.113,27.8,27.8,0,0,1,15.571,4.956,2.492,2.492,0,0,0,3.4-3.539c-.559-.757-1.189-1.537-1.873-2.317a2.438,2.438,0,0,0-.564-.478,41.042,41.042,0,0,0-21.059-6.467Z"/><g class="cls-4"><path class="cls-14" d="M124.95,51.1c1.47-5.192,7.264-6.5,12.8-5.628-6.054,8.317-8.143,19.97-4.627,31.387a37.52,37.52,0,0,0,9.078,15.32c-.132-.032-.273-.058-.416-.083-.048-.008-.094-.012-.146-.019-.1-.015-.195-.03-.3-.041-.061,0-.128-.01-.189-.013-.093-.008-.186-.017-.282-.022-.071,0-.144,0-.215-.006-.093,0-.186-.007-.282-.007l-.232,0c-.1,0-.189,0-.285.006s-.169.009-.249.013c-.1,0-.2.01-.3.017l-.26.023c-.1.009-.2.018-.305.029s-.183.021-.272.032c-.106.012-.209.024-.315.039s-.192.028-.287.04-.212.032-.319.05-.2.033-.3.05l-.332.058-.3.058c-.113.023-.227.044-.34.068s-.209.044-.31.068c-.117.024-.233.048-.349.075l-.319.074-.358.085-.324.082-.365.092c-.109.029-.217.06-.328.089s-.25.066-.376.1l-.33.092-.388.111-.331.1c-.133.039-.265.079-.4.119l-.333.1-.409.128c-.108.036-.219.07-.328.106-.139.044-.275.09-.414.135l-.333.11-.426.143c-.108.036-.219.073-.325.111-.148.05-.295.1-.441.152l-.318.112c-.149.054-.3.107-.451.162l-.308.111-.474.174-.292.108c-.162.059-.328.121-.487.183-.1.035-.191.07-.282.106-.172.064-.339.128-.507.194-.089.033-.175.068-.263.1-.178.069-.353.137-.529.208l-.242.094-.56.222c-.068.029-.138.056-.207.084l-.6.243c-.053.023-.106.044-.159.066l-.656.269-.106.045-.709.3c-.017.006-.033.014-.048.02-.512.216-1.021.433-1.523.65-7.7,3.332-14.255,6.809-14.255,6.809s-1.477-18.083-1.028-34.172C113.948,66.751,122.007,61.822,124.95,51.1Z"/></g><path class="cls-12" d="M124.044,38.916c-7.942,8.376-10.736,24.935-16.294,21.215-1.675-1.124,2.857-15.759,12.648-24.631,14.745-13.364,26.922-10.9,26.922-10.9S131.981,30.542,124.044,38.916Z"/><path class="cls-15" d="M85.365,112.022a1.221,1.221,0,0,1-.2-.015,1.244,1.244,0,0,1-1.037-1.084,36.41,36.41,0,0,0-6.087-16.1c-6.595-9.692-16.971-15.478-27.756-15.478a26.9,26.9,0,0,0-15.209,4.608A28.087,28.087,0,0,0,23.2,105.213a1.245,1.245,0,0,1-1.128,1.141c-.038,0-.076,0-.114,0a1.247,1.247,0,0,1-1.2-.923c-3.6-13.44,1.241-33.755,14.2-42.574a44.7,44.7,0,0,1,25.289-7.574,47.7,47.7,0,0,1,26.964,8.243c14.117,9.786,31.239,25.892,31.411,26.053a1.245,1.245,0,0,1-.361,2.049c-7.861,3.4-28.894,13.571-31.763,19.673A1.245,1.245,0,0,1,85.365,112.022Z"/><path class="cls-3" d="M60.239,56.534A46.455,46.455,0,0,1,86.5,64.554C100.7,74.4,117.761,90.49,117.761,90.49s-28.7,12.419-32.4,20.287a37.5,37.5,0,0,0-6.294-16.658C72.05,83.8,61.005,78.1,50.286,78.1a28.064,28.064,0,0,0-15.91,4.823C26.91,88,22.668,96.191,21.955,105.114c-3.632-13.543,1.452-32.889,13.7-41.223a43.6,43.6,0,0,1,24.586-7.357m0-2.491a45.951,45.951,0,0,0-25.988,7.789c-13.834,9.415-18.4,30.131-14.7,43.927a2.493,2.493,0,0,0,2.405,1.845c.074,0,.15,0,.228-.01a2.488,2.488,0,0,0,2.255-2.282A26.852,26.852,0,0,1,35.776,84.978a25.66,25.66,0,0,1,14.51-4.391c10.372,0,20.364,5.582,26.727,14.933a35.2,35.2,0,0,1,5.88,15.55,2.488,2.488,0,0,0,2.073,2.165,2.459,2.459,0,0,0,.4.033,2.489,2.489,0,0,0,2.254-1.431c2.4-5.112,20.37-14.4,31.132-19.061a2.489,2.489,0,0,0,.719-4.1c-.7-.662-17.361-16.331-31.556-26.171a48.951,48.951,0,0,0-27.675-8.464Z"/><path class="cls-8" d="M85.365,112.022a1.236,1.236,0,0,1-1.236-1.1,36.41,36.41,0,0,0-6.087-16.1c-6.595-9.692-16.971-15.478-27.756-15.478a26.9,26.9,0,0,0-15.209,4.608A28.087,28.087,0,0,0,23.2,105.213a1.245,1.245,0,0,1-1.127,1.141c-.038,0-.077,0-.115,0a1.248,1.248,0,0,1-1.2-.921c-.237-.88-.444-1.825-.618-2.809a1.221,1.221,0,0,1-.01-.367c1.327-10.9,6.358-20.294,13.46-25.126A39.953,39.953,0,0,1,56.2,70.426a47.069,47.069,0,0,1,27.443,8.9c7.247,5.261,15.273,12.211,20.73,17.114a1.245,1.245,0,0,1-.249,2.027c-9.958,5.282-16.219,9.842-17.629,12.837A1.244,1.244,0,0,1,85.365,112.022Z"/><path class="cls-3" d="M56.2,71.671a46,46,0,0,1,26.712,8.665C89.883,85.4,97.593,92.028,103.538,97.37c-7.8,4.139-16.274,9.372-18.173,13.407a37.5,37.5,0,0,0-6.294-16.658C72.05,83.8,61.005,78.1,50.286,78.1a28.064,28.064,0,0,0-15.91,4.823C26.91,88,22.668,96.191,21.955,105.114c-.237-.879-.432-1.779-.595-2.7,1.183-9.718,5.577-19.247,12.925-24.247A38.73,38.73,0,0,1,56.2,71.671m0-2.491a41.2,41.2,0,0,0-23.314,6.926c-7.393,5.031-12.625,14.753-13.995,26.006a2.462,2.462,0,0,0,.02.732c.179,1.021.4,2,.643,2.918a2.489,2.489,0,0,0,2.4,1.842c.076,0,.154,0,.23-.01a2.489,2.489,0,0,0,2.253-2.282A26.852,26.852,0,0,1,35.776,84.978a25.66,25.66,0,0,1,14.51-4.391c10.371,0,20.364,5.582,26.727,14.933a35.2,35.2,0,0,1,5.88,15.55,2.488,2.488,0,0,0,2.073,2.165,2.459,2.459,0,0,0,.4.033,2.492,2.492,0,0,0,2.254-1.43c.6-1.284,3.478-5.05,17.085-12.268a2.49,2.49,0,0,0,.5-4.053c-5.479-4.923-13.54-11.9-20.829-17.2A48.332,48.332,0,0,0,56.2,69.18Z"/><g class="cls-4"><path class="cls-11" d="M73.41,81.638c6.056-.558,16.038,2.912,17.853-2.316,1-2.365-.306-7.254.254-11.126,12.907,9.719,26.244,22.294,26.244,22.294s-6.811,2.946-14.223,6.879h0c-.728.386-1.462.783-2.2,1.186-.012.005-.022.012-.035.018l-.686.381-.089.049c-.213.118-.421.237-.633.355l-.126.073c-.2.112-.395.223-.59.336-.057.03-.11.062-.163.092-.182.106-.368.212-.548.318-.07.039-.134.078-.2.116l-.509.3-.219.13-.485.29c-.076.046-.158.095-.235.143-.155.092-.309.184-.461.278-.083.05-.169.1-.25.154l-.44.27-.258.162c-.143.088-.282.175-.419.264l-.269.171-.4.257c-.09.058-.176.116-.269.175l-.386.255c-.088.06-.179.12-.27.179l-.373.251c-.088.061-.179.123-.27.184-.12.081-.239.163-.355.246l-.27.188c-.114.081-.23.161-.341.243-.09.062-.178.125-.265.189-.112.08-.221.161-.33.241-.088.063-.174.127-.259.192-.106.078-.212.156-.313.237-.088.063-.171.129-.257.193-.1.078-.2.156-.3.234-.083.064-.166.13-.249.193s-.192.156-.286.235l-.237.192c-.093.078-.186.154-.275.231-.073.065-.151.129-.226.193s-.175.155-.262.231c-.069.064-.142.126-.212.189-.086.077-.167.154-.248.232-.068.062-.138.124-.2.186-.082.076-.156.153-.236.229-.061.062-.126.124-.185.186-.077.075-.15.15-.219.226-.06.061-.119.123-.176.184s-.136.151-.2.226c-.053.059-.113.119-.162.179-.065.077-.126.152-.188.228l-.144.173c-.059.077-.119.154-.177.232-.04.054-.085.109-.124.163-.057.08-.108.159-.16.237-.036.051-.072.1-.1.153-.06.086-.11.173-.158.257-.024.042-.051.085-.074.126-.073.128-.138.253-.2.377a38.171,38.171,0,0,0-16.747-27A10.224,10.224,0,0,1,73.41,81.638Z"/></g><path class="cls-12" d="M56.65,62.939c11.532-.383,25.777,8.513,26.68,1.887.272-2-13.688-8.319-26.82-6.882C36.731,60.112,30.493,70.86,30.493,70.86S45.116,63.322,56.65,62.939Z"/><path class="cls-16" d="M180.727,56.186a10.036,10.036,0,1,1,2.95-.446,9.971,9.971,0,0,1-2.95.446Z"/><path class="cls-3" d="M180.732,37.388a8.78,8.78,0,1,1-2.583.39,8.777,8.777,0,0,1,2.583-.39m0-2.491a11.269,11.269,0,1,0,10.762,7.951A11.274,11.274,0,0,0,180.732,34.9Z"/><g class="cls-4"><path class="cls-16" d="M177.282,38.1a8.774,8.774,0,0,0,8.79,14.585,8.881,8.881,0,0,0,.865-.318A8.773,8.773,0,1,1,177.282,38.1Z"/></g><path class="cls-17" d="M187.427,44.1c-1.286-3.444-5.949-6.018-8.847-4.937a4.8,4.8,0,0,0-2,1.44,4.335,4.335,0,0,1,2.94-2.565c2.879-1.075,7.214.987,8.433,4.253.647,1.737,1.04,3.656.4,5.13A8.628,8.628,0,0,0,187.427,44.1Z"/><path class="cls-3" d="M183.536,49.452a2.647,2.647,0,0,0,2.072,2.6c1.2.19,2.381-1.042,2.328-2.735s-1.3-2.822-2.484-2.564A2.617,2.617,0,0,0,183.536,49.452Z"/><path class="cls-18" d="M179.93,37.031a17.17,17.17,0,0,1,5.277,17.134"/><path class="cls-3" d="M180.258,50.459a2.647,2.647,0,0,1-.248,3.317c-.885.83-2.556.478-3.464-.953s-.51-3.065.615-3.517A2.612,2.612,0,0,1,180.258,50.459Z"/><path class="cls-18" d="M176.255,38.163A17.159,17.159,0,0,0,181.531,55.3"/><path class="cls-16" d="M19.241,115.08a10.031,10.031,0,1,1,.023,0Z"/><path class="cls-3" d="M19.264,96.286h.02a8.775,8.775,0,0,1-.022,17.549h-.018a8.775,8.775,0,0,1,.02-17.549m0-2.491a11.251,11.251,0,1,0,.026,0Z"/><g class="cls-4"><path class="cls-16" d="M18.362,96.333a8.773,8.773,0,0,0,4.072,16.535,8.484,8.484,0,0,0,.92-.047,8.773,8.773,0,1,1-4.992-16.488Z"/></g><path class="cls-17" d="M26.27,105.077c-.208-3.67-3.9-7.511-6.983-7.336a4.792,4.792,0,0,0-2.34.783,4.323,4.323,0,0,1,3.568-1.58c3.069-.173,6.6,3.081,6.793,6.563.1,1.849-.091,3.8-1.145,5.015A8.641,8.641,0,0,0,26.27,105.077Z"/><path class="cls-3" d="M20.971,109.03a2.645,2.645,0,0,0,1.206,3.1c1.086.536,2.582-.291,3.033-1.922s-.406-3.082-1.613-3.186A2.612,2.612,0,0,0,20.971,109.03Z"/><path class="cls-18" d="M21.206,96.1a17.156,17.156,0,0,1-.04,17.927"/><path class="cls-3" d="M17.54,109.022a2.645,2.645,0,0,1-1.221,3.094c-1.09.531-2.58-.3-3.026-1.936s.419-3.079,1.629-3.178A2.613,2.613,0,0,1,17.54,109.022Z"/><path class="cls-18" d="M17.361,96.093a17.16,17.16,0,0,0-.039,17.926"/><path class="cls-16" d="M56.81,107.116a8.819,8.819,0,1,1,5.892-2.258,8.831,8.831,0,0,1-5.892,2.258Z"/><path class="cls-3" d="M56.806,90.573a7.722,7.722,0,1,1-5.156,1.976,7.7,7.7,0,0,1,5.156-1.976m0-2.193a9.917,9.917,0,1,0,7.379,3.291,9.9,9.9,0,0,0-7.379-3.291Z"/><g class="cls-4"><path class="cls-16" d="M51.072,93.123a7.724,7.724,0,0,0,12.41,8.409,7.638,7.638,0,0,0,.577-.575,7.724,7.724,0,1,1-12.987-7.834Z"/></g><path class="cls-17" d="M61.4,94.177c-2.3-2.278-6.978-2.612-8.894-.678a4.252,4.252,0,0,0-1.066,1.891,3.811,3.811,0,0,1,1.4-3.137c1.906-1.922,6.129-1.875,8.311.285a6.311,6.311,0,0,1,2.208,3.953A7.61,7.61,0,0,0,61.4,94.177Z"/><path class="cls-3" d="M60.266,99.886a2.325,2.325,0,0,0,2.615,1.313c1.029-.29,1.516-1.711.85-3.045s-2.083-1.775-2.933-1.13A2.3,2.3,0,0,0,60.266,99.886Z"/><path class="cls-19" d="M52.8,91.294A15.106,15.106,0,0,1,63.34,103.036"/><path class="cls-3" d="M58.022,101.9a2.332,2.332,0,0,1,1.024,2.743c-.4.989-1.866,1.324-3.119.518s-1.541-2.261-.812-3.037A2.309,2.309,0,0,1,58.022,101.9Z"/><path class="cls-19" d="M50.28,93.556A15.106,15.106,0,0,0,60.819,105.3"/><path class="cls-8" d="M95.842,108.837a1.246,1.246,0,0,1-1.23-1.447c.933-5.669,3.167-19.514,3.742-25.644,1.685-18.038,15.531-31.641,32.207-31.641q.579,0,1.164.023c11.848.455,21.675,4.763,28.42,12.46,6.785,7.744,10.087,18.493,9.057,29.49A38.241,38.241,0,0,1,164.671,107a1.245,1.245,0,0,1-2.332-.715,38.185,38.185,0,0,0-8.715-27.971,30.77,30.77,0,0,0-22.06-10.842h-.022a.732.732,0,0,0-.57.3c-1.065,1.125-3.4,6.3-2.116,29.967A1.243,1.243,0,0,1,127.979,99l-31.771,9.783A1.24,1.24,0,0,1,95.842,108.837Z"/><path class="cls-3" d="M130.56,51.351c.373,0,.742.007,1.117.021,27.184,1.044,38,22.252,36.285,40.589a37.174,37.174,0,0,1-4.383,14.441c1.712-18.334-10.039-38.916-31.944-40.173-.036,0-.073,0-.109,0-4.766,0-4.635,18.283-3.913,31.583l-31.771,9.783c.759-4.611,3.152-19.34,3.752-25.729,1.673-17.912,15.36-30.512,30.966-30.512m0-2.491c-17.321,0-31.7,14.088-33.445,32.771-.574,6.089-2.8,19.9-3.731,25.557a2.492,2.492,0,0,0,2.458,2.895,2.518,2.518,0,0,0,.732-.11l31.772-9.784a2.491,2.491,0,0,0,1.755-2.515c-1.285-23.581,1.113-28.19,1.685-28.941A29.517,29.517,0,0,1,152.68,79.127,36.912,36.912,0,0,1,161.1,106.17a2.491,2.491,0,0,0,4.663,1.431,39.409,39.409,0,0,0,4.68-15.408c1.062-11.335-2.35-22.425-9.36-30.426-6.975-7.96-17.11-12.415-29.308-12.884-.406-.015-.809-.023-1.213-.023Z"/><path class="cls-20" d="M95.842,108.837a1.246,1.246,0,0,1-1.23-1.447c.933-5.669,3.167-19.514,3.742-25.644,1.685-18.038,15.531-31.641,32.207-31.641q.579,0,1.164.023c11.848.455,21.675,4.763,28.42,12.46,6.785,7.744,10.087,18.493,9.057,29.49A38.241,38.241,0,0,1,164.671,107a1.245,1.245,0,0,1-2.332-.715c1.687-18.027-11.595-35.4-29.608-38.73a3.562,3.562,0,0,1-.564-.178,2.977,2.977,0,0,0-1.084-.253c-1.589,0-7.18,2.454-12.443,34.031a1.243,1.243,0,0,1-.862.985l-21.57,6.641A1.25,1.25,0,0,1,95.842,108.837Z"/><path class="cls-3" d="M130.56,51.351c.373,0,.742.007,1.117.021,27.184,1.044,38,22.252,36.285,40.589a37.174,37.174,0,0,1-4.383,14.441c1.68-17.961-11.5-36.537-30.622-40.071a5.876,5.876,0,0,0-1.874-.452c-2.916,0-8.484,3.952-13.671,35.073l-21.57,6.64c.759-4.611,3.152-19.34,3.752-25.729,1.673-17.912,15.36-30.512,30.966-30.512m0-2.491c-17.321,0-31.7,14.088-33.445,32.771-.574,6.089-2.8,19.9-3.731,25.557a2.492,2.492,0,0,0,2.458,2.895,2.518,2.518,0,0,0,.732-.11l21.57-6.641a2.488,2.488,0,0,0,1.724-1.971c5.435-32.616,10.98-32.991,11.215-32.991a1.87,1.87,0,0,1,.637.171,4.406,4.406,0,0,0,.785.239C149.9,72,162.727,88.768,161.1,106.17a2.491,2.491,0,0,0,4.663,1.431,39.409,39.409,0,0,0,4.68-15.408c1.062-11.335-2.35-22.425-9.36-30.426-6.975-7.96-17.11-12.415-29.308-12.884-.406-.015-.809-.023-1.213-.023Z"/><g class="cls-4"><path class="cls-11" d="M99.594,81.863a35.175,35.175,0,0,1,8.044-19.6c1.14,6.048,4.563,11.107,10.6,11.751,2.969.285,6.854-2.5,9.974-2.435-1.294,6.422-1.074,17.417-.595,26.226l-10.2,3.143-21.57,6.64C96.6,102.981,98.994,88.252,99.594,81.863Z"/></g><path class="cls-12" d="M153.16,69.086c-5.76-5.3-11.5-9.759-15.982-11.962l-8.355-4.106a55.6,55.6,0,0,1,8.2.2A40.182,40.182,0,0,1,158.114,64.49c8.7,9.218,9.044,24.371,9.044,24.371S164.883,79.882,153.16,69.086Z"/><path class="cls-11" d="M84.023,117.362c-.617,0-2.256,0-2.64-1.254-.1-.332-.285-.958-.285-.958l-.214-.718c-.661-2.234-2.037-6.882-4.063-8.23a21.07,21.07,0,0,0-2.12-1.184,11.2,11.2,0,0,1-4.883-3.864,4.439,4.439,0,0,1-.632-3.844,6,6,0,0,1,3.7-3.517,4.553,4.553,0,0,1,1.722-.335c3.513,0,6.928,3.8,9.941,7.151a24.046,24.046,0,0,0,3.555,3.52,4.737,4.737,0,0,0-.63-2.911l-.2-.469a34.364,34.364,0,0,1-1.9-6.057c-.649-3,.3-5.108,3.1-6.822A9.261,9.261,0,0,1,93.1,86.428a5.322,5.322,0,0,1,2.972.846c2.245,1.472,2.218,3.673,2.2,5.441-.005.436-.012.879.016,1.32a9.933,9.933,0,0,0,2.42,5.862,1.916,1.916,0,0,0,1.433.692,2.536,2.536,0,0,0,1.949-1.085,2.453,2.453,0,0,0,.422-2.2,33.585,33.585,0,0,0-1.355-3.433c-1.45-3.335-3.092-7.116-1.944-10.422a5.725,5.725,0,0,1,5.5-4.118,7.471,7.471,0,0,1,4.761,1.865c1.218,1.028,2.494,3.673,3.727,6.232a28.5,28.5,0,0,0,1.969,3.7l.457.6c.557.743,1.4,1.868,1.9,1.868.237,0,.619-.275,1.018-.734,1.362-1.569.86-3.534-.065-6.352-.19-.585-.377-1.156-.527-1.7-.386-1.415-1.133-4.983.313-7.515a4.742,4.742,0,0,1,2.94-2.252,7.245,7.245,0,0,1,1.9-.277c2.9,0,4.345,2.189,5.744,4.3,1.093,1.653,2.038,3.42,2.951,5.128.477.894.955,1.785,1.45,2.657a3.913,3.913,0,0,0,.979,1.329c.015-.024.08-.072.171-.166.491-.566.184-3.8,0-5.729-.441-4.635-.938-9.888,2.853-10.32a3.455,3.455,0,0,1,.373-.021,2.833,2.833,0,0,1,2.191,1.01c1.9,2.179,1.241,7.366,1.16,7.951-.073.53-.157,1.033-.24,1.517-.317,1.855-.545,3.2.136,4.907.444,1.113.78,2.269,1.107,3.387.119.412.238.823.363,1.229a5.714,5.714,0,0,0,.421,1.143,4.61,4.61,0,0,1,1.034,2.147l.286.931c.388,1.26-.046,2.517-9.22,6.272-5.765,2.359-13.549,5.078-21.918,7.654C100.858,114.445,88.426,117.362,84.023,117.362Z"/><path class="cls-3" d="M139.641,73.156c2.744,0,2.406,5.817,2.159,7.595-.359,2.62-1.036,4.51-.031,7.033.583,1.461.977,3.019,1.438,4.524.812,2.632.643.661,1.455,3.293,0,0,.186.607.288.935.478,1.551-13.108,7.112-30.344,12.419-14.19,4.369-26.434,7.2-30.583,7.2-.89,0-1.409-.13-1.492-.4-.1-.329-.278-.939-.278-.939-.653-2.121-2.114-7.852-4.768-9.616-2.308-1.535-5.021-2.136-6.655-4.694-1.556-2.43-.069-4.555,2.508-5.6a3.325,3.325,0,0,1,1.269-.247c5.087,0,11.166,10.772,13.718,10.772.366,0,.66-.22.867-.726.6-1.47-.254-3.089-.811-4.419a33.226,33.226,0,0,1-1.833-5.846c-.56-2.586.246-4.132,2.549-5.546A7.989,7.989,0,0,1,93.1,87.63a4.155,4.155,0,0,1,2.314.649c2.156,1.414,1.537,3.632,1.673,5.83a11.133,11.133,0,0,0,2.735,6.6,3.1,3.1,0,0,0,2.318,1.081,3.841,3.841,0,0,0,3.522-4.835c-1.151-3.8-4.707-9.1-3.315-13.11a4.528,4.528,0,0,1,4.365-3.311,6.274,6.274,0,0,1,3.986,1.581c1.745,1.471,4.174,8.027,5.523,9.757,1,1.288,2.012,2.934,3.309,2.934a2.67,2.67,0,0,0,1.924-1.148c2.34-2.692.448-6.268-.338-9.157-.762-2.782-1.093-7.342,2.408-8.292a6.063,6.063,0,0,1,1.588-.235c2.133,0,3.263,1.526,4.741,3.765,1.624,2.456,2.91,5.168,4.36,7.717.525.919,1.188,1.949,2.014,1.949a1.485,1.485,0,0,0,1.044-.545c2.114-2.18-2.367-15.178,2.127-15.69a2.17,2.17,0,0,1,.239-.014m0-2.4a4.5,4.5,0,0,0-.511.03c-4.964.565-4.358,6.958-3.914,11.627.063.666.139,1.465.193,2.233-.179-.334-.359-.669-.537-1-.928-1.732-1.886-3.524-3.01-5.225-1.425-2.157-3.2-4.842-6.746-4.842a8.38,8.38,0,0,0-2.217.319,5.917,5.917,0,0,0-3.668,2.815c-1.67,2.923-.855,6.87-.427,8.431.152.561.344,1.152.542,1.757.82,2.5,1.247,4.1.3,5.189-.039.044-.073.082-.106.117-.3-.321-.687-.836-.948-1.182-.155-.211-.314-.42-.47-.621a30.147,30.147,0,0,1-1.835-3.489c-1.582-3.283-2.717-5.518-4.035-6.629a8.672,8.672,0,0,0-5.535-2.147,6.966,6.966,0,0,0-6.635,4.925c-1.3,3.749.441,7.758,1.977,11.3a33.131,33.131,0,0,1,1.307,3.3,1.292,1.292,0,0,1-.237,1.138,1.39,1.39,0,0,1-.984.6c-.074,0-.27,0-.548-.3a8.683,8.683,0,0,1-2.105-5.122c-.027-.414-.02-.827-.015-1.233.022-1.843.055-4.628-2.741-6.46A6.5,6.5,0,0,0,93.1,85.227a10.49,10.49,0,0,0-5.265,1.62c-3.248,1.994-4.4,4.568-3.639,8.1a35.741,35.741,0,0,0,1.53,5.176q-.15-.163-.289-.32c-3.181-3.538-6.784-7.549-10.834-7.549a5.757,5.757,0,0,0-2.174.423,7.173,7.173,0,0,0-4.392,4.267,5.6,5.6,0,0,0,.766,4.857,12.321,12.321,0,0,0,5.349,4.284,20.45,20.45,0,0,1,2,1.115c1.663,1.107,3.054,5.8,3.576,7.571.083.28.159.533.225.749,0,0,.176.614.282.951.424,1.383,1.7,2.09,3.785,2.09,4.511,0,17.085-2.938,31.291-7.311,8.4-2.588,16.22-5.319,22.017-7.691,8.572-3.508,10.705-5.17,9.916-7.732l-.288-.931a6.1,6.1,0,0,0-1.18-2.488c-.046-.118-.136-.357-.275-.811-.123-.4-.24-.8-.358-1.209-.335-1.145-.679-2.329-1.147-3.5-.553-1.394-.371-2.471-.066-4.257.086-.5.172-1.013.249-1.558.2-1.462.7-6.439-1.446-8.9a4.057,4.057,0,0,0-3.095-1.422Z"/><g class="cls-4"><path class="cls-11" d="M77.739,103.145c4.826,3.545,5.024,5.158,7.872,10.062,4,.343,51.342-13.542,55.863-14.111-5.055,2.5-15.112,6.239-26.868,9.859-17.236,5.307-31.6,8.352-32.075,6.8-.1-.329-.278-.939-.278-.939-.653-2.121-2.114-7.852-4.768-9.616-2.258-1.5-4.9-2.112-6.542-4.525C73.251,100.363,75.916,101.881,77.739,103.145Z"/></g><path class="cls-16" d="M165.945,123.175a9.991,9.991,0,1,1,.058,0Z"/><path class="cls-3" d="M165.95,104.382A8.774,8.774,0,0,1,166,121.93h-.053a8.774,8.774,0,0,1-.047-17.548h.053m0-2.491h-.068a11.3,11.3,0,1,0,.068,0Z"/><g class="cls-4"><path class="cls-16" d="M164.974,104.436a8.773,8.773,0,0,0,5.124,16.448,8.774,8.774,0,1,1-5.124-16.448Z"/></g><path class="cls-17" d="M172.953,113.117c-.237-3.669-3.957-7.48-7.044-7.281a4.8,4.8,0,0,0-2.334.8,4.335,4.335,0,0,1,3.558-1.607c3.066-.2,6.619,3.028,6.843,6.508.121,1.849-.058,3.8-1.1,5.024A8.588,8.588,0,0,0,172.953,113.117Z"/><path class="cls-3" d="M167.682,117.112a2.647,2.647,0,0,0,1.233,3.09c1.092.526,2.582-.31,3.018-1.946s-.43-3.079-1.638-3.173A2.617,2.617,0,0,0,167.682,117.112Z"/><path class="cls-18" d="M167.816,104.181a17.158,17.158,0,0,1,.1,17.926"/><path class="cls-3" d="M164.255,117.131a2.651,2.651,0,0,1-1.2,3.105c-1.087.539-2.582-.282-3.04-1.914s.4-3.082,1.6-3.19A2.62,2.62,0,0,1,164.255,117.131Z"/><path class="cls-18" d="M163.972,104.2a17.161,17.161,0,0,0,.1,17.926"/><g class="cls-4"><path class="cls-11" d="M124.776,92.851a4.393,4.393,0,0,1-2.3,2.2,3.5,3.5,0,0,1-3.342-.3c.682.179,1.442-.073,2.326-1.093,2.34-2.692.448-6.268-.338-9.157a14.113,14.113,0,0,1-.439-2.345C123.56,84.919,125.591,88.635,124.776,92.851Z"/></g><g class="cls-4"><path class="cls-11" d="M105.916,100.52a1.764,1.764,0,0,1-1.495.38,3.759,3.759,0,0,0,1.245-3.945c-1.058-3.487-4.133-8.237-3.558-12.092C104.738,90.065,109.414,94.8,105.916,100.52Z"/></g><g class="cls-4"><path class="cls-11" d="M89.279,104.525l-.021-.005c.464-1.419-.343-2.96-.877-4.234a33.226,33.226,0,0,1-1.833-5.846,4.41,4.41,0,0,1,.778-4.1c.933,1.885,2.335,3.594,3.389,5.547C92,98.848,93.308,105.518,89.279,104.525Z"/></g><path class="cls-12" d="M126.215,79.9c1.448,1.391,1.743,3.432,2.62,2.519s.416-2.781-1.03-4.173-3.334-1.778-4.212-.865S124.768,78.507,126.215,79.9Z"/><path class="cls-12" d="M108.519,84.7c1.445,1.39,1.74,3.431,2.618,2.518s.415-2.781-1.03-4.171-3.333-1.78-4.211-.867S107.071,83.3,108.519,84.7Z"/><path class="cls-12" d="M140.035,76.759c.468,1.24.062,2.54.846,2.245s1.039-1.536.57-2.777-1.475-2.009-2.261-1.714S139.568,75.517,140.035,76.759Z"/><path class="cls-12" d="M93.673,91.1c1.062,1.022,1.045,2.763,1.924,1.85a2.7,2.7,0,0,0-3.848-3.7C90.869,90.16,92.609,90.076,93.673,91.1Z"/><path class="cls-3" d="M87.725,134.2s-.04-.056-.113-.162c-.056-.125-.235-.221-.374-.34a8.217,8.217,0,0,0-1.613-.8,2.771,2.771,0,0,0-.488-.136c.016.007-.121-.033.026.014l-.081,0-.163-.015-.333-.028a2.532,2.532,0,0,0-.906.258c-.164.04-.264.2-.4.275l-.05.035-.026.018.089-.083,0,0-.007.01-.016.018-.121.149-.257.287c-.171.195-.106.276-.2.4-.058.138-.095.362-.153.534a5.679,5.679,0,0,0-.116,1.273c.035.447.037.9.11,1.349.03.222.089.435.111.656a5.766,5.766,0,0,0,.146.612,9.307,9.307,0,0,0,.348,1.125,8.6,8.6,0,0,0,.4.936c.126.287.252.54.361.746.209.417.32.674.32.674s-.237-.134-.635-.4a4.493,4.493,0,0,1-.686-.532,4.882,4.882,0,0,1-.809-.832,5.763,5.763,0,0,1-.759-1.148c-.112-.23-.195-.34-.341-.683-.1-.238-.176-.487-.255-.742a8.418,8.418,0,0,1-.332-1.643,5.023,5.023,0,0,1,.421-2.789,5.177,5.177,0,0,1,.6-.926l.272-.272.143-.129.127-.118.057-.033.111-.064a3.773,3.773,0,0,1,.905-.43,3.1,3.1,0,0,1,.956-.162,3.677,3.677,0,0,1,.916.1l.318.1.154.051.078.028c.2.058.106.045.174.072a4.032,4.032,0,0,1,.605.409,5.018,5.018,0,0,1,1.329,1.573A1.487,1.487,0,0,1,87.725,134.2Z"/><path class="cls-3" d="M82.687,136.437s.2-.01.527,0a3.7,3.7,0,0,1,1.338.245,5.926,5.926,0,0,1,1.774.928,4.372,4.372,0,0,1,.857.7c.26.273.525.552.791.829.21.323.421.646.628.962a4.163,4.163,0,0,1,.485,1.006,5.284,5.284,0,0,1,.444,1.939,3.6,3.6,0,0,1-.145,1.4,4.694,4.694,0,0,1-.156.5s-.108-.181-.262-.469a8.6,8.6,0,0,0-.6-1.107,6.871,6.871,0,0,1-.406-.685c-.153-.235-.362-.464-.514-.721-.312-.512-.759-1-1.122-1.524-.431-.479-.8-1.024-1.228-1.459-.214-.213-.393-.47-.578-.681a7.48,7.48,0,0,1-.536-.565,10.339,10.339,0,0,0-.936-.921C82.815,136.588,82.687,136.437,82.687,136.437Z"/><path class="cls-21" d="M116.59,142.3c-4.993,0-9.9-4.593-11.657-10.924-2.058-7.407.789-14.689,6.345-16.234a8.051,8.051,0,0,1,2.158-.293c4.995,0,9.9,4.595,11.657,10.926a16.565,16.565,0,0,1-.267,10.22,9.317,9.317,0,0,1-6.082,6.014,8.05,8.05,0,0,1-2.154.291Z"/><path class="cls-3" d="M113.436,115.584c4.6,0,9.242,4.238,10.949,10.388,1.952,7.029-.66,13.893-5.837,15.33a7.317,7.317,0,0,1-1.958.267c-4.6,0-9.241-4.241-10.949-10.389-1.954-7.028.661-13.892,5.835-15.33a7.28,7.28,0,0,1,1.96-.266m0-1.468a8.8,8.8,0,0,0-2.353.32c-5.948,1.654-9.023,9.342-6.856,17.137,1.846,6.642,7.046,11.463,12.363,11.463a8.788,8.788,0,0,0,2.351-.32,10.027,10.027,0,0,0,6.571-6.46,17.284,17.284,0,0,0,.287-10.677c-1.845-6.642-7.045-11.463-12.363-11.463Z"/><path class="cls-11" d="M107.482,118.573a15.4,15.4,0,0,0-.663,10.726c1.952,7.028,7.731,11.561,12.906,10.124a7.755,7.755,0,0,0,4-2.724,8.333,8.333,0,0,1-5.174,4.6c-5.173,1.439-10.953-3.095-12.907-10.122C104.29,126.318,105.125,121.536,107.482,118.573Z"/><path class="cls-9" d="M110.052,128.55c1.2,4.329,4.761,7.121,7.953,6.233s4.8-5.113,3.594-9.441-4.764-7.121-7.949-6.234S108.851,124.22,110.052,128.55Z"/><path class="cls-20" d="M110.052,128.55c1.2,4.329,4.761,7.121,7.953,6.233s4.8-5.113,3.594-9.441-4.764-7.121-7.949-6.234S108.851,124.22,110.052,128.55Z"/><path class="cls-3" d="M112.642,127.829c.663,2.392,2.625,3.93,4.385,3.441s2.648-2.821,1.982-5.209-2.626-3.928-4.385-3.438S111.976,125.441,112.642,127.829Z"/><path class="cls-21" d="M114.266,122.233c.511,1.843,2.027,3.029,3.381,2.653s2.045-2.176,1.531-4.018-2.027-3.031-3.381-2.654S113.753,120.39,114.266,122.233Z"/><path class="cls-21" d="M113.391,131.319c.222.8.877,1.31,1.464,1.146a1.347,1.347,0,0,0,.661-1.736c-.222-.8-.877-1.309-1.462-1.146A1.347,1.347,0,0,0,113.391,131.319Z"/><path class="cls-21" d="M139.9,134.713c-4.89,0-9.69-4.5-11.413-10.7a16.2,16.2,0,0,1,.26-10.007,9.124,9.124,0,0,1,5.954-5.89,7.9,7.9,0,0,1,2.112-.287c4.89,0,9.689,4.5,11.414,10.7,2.012,7.254-.775,14.385-6.216,15.9a7.972,7.972,0,0,1-2.111.286Z"/><path class="cls-3" d="M136.811,108.55c4.5,0,9.048,4.15,10.721,10.172,1.909,6.882-.646,13.6-5.715,15.012a7.186,7.186,0,0,1-1.919.26c-4.506,0-9.047-4.15-10.72-10.172-1.914-6.882.646-13.6,5.713-15.012a7.147,7.147,0,0,1,1.92-.26m0-1.438a8.582,8.582,0,0,0-2.3.313,9.824,9.824,0,0,0-6.433,6.327,16.921,16.921,0,0,0-.282,10.455c1.836,6.609,6.814,11.224,12.106,11.224a8.591,8.591,0,0,0,2.3-.313c5.822-1.618,8.835-9.145,6.717-16.78-1.81-6.5-6.9-11.226-12.107-11.226Z"/><path class="cls-11" d="M130.977,111.476a15.11,15.11,0,0,0-.648,10.5c1.913,6.883,7.572,11.323,12.64,9.913a7.563,7.563,0,0,0,3.914-2.667,8.161,8.161,0,0,1-5.066,4.508c-5.07,1.407-10.727-3.029-12.639-9.912C127.853,119.06,128.67,114.377,130.977,111.476Z"/><path class="cls-9" d="M133.5,121.245c1.178,4.241,4.663,6.974,7.787,6.107s4.7-5.007,3.516-9.247-4.66-6.973-7.785-6.105S132.318,117.006,133.5,121.245Z"/><path class="cls-20" d="M133.5,121.245c1.178,4.241,4.663,6.974,7.787,6.107s4.7-5.007,3.516-9.247-4.66-6.973-7.785-6.105S132.318,117.006,133.5,121.245Z"/><path class="cls-3" d="M136.032,120.542c.649,2.34,2.573,3.845,4.295,3.367s2.592-2.761,1.942-5.1-2.575-3.847-4.3-3.367S135.382,118.2,136.032,120.542Z"/><path class="cls-21" d="M137.623,115.06c.5,1.8,1.985,2.967,3.314,2.6s2-2.131,1.5-3.935-1.985-2.968-3.314-2.6S137.12,113.256,137.623,115.06Z"/><path class="cls-21" d="M136.767,123.958c.216.779.857,1.281,1.43,1.122a1.313,1.313,0,0,0,.647-1.7c-.216-.78-.854-1.283-1.43-1.123A1.318,1.318,0,0,0,136.767,123.958Z"/><path class="cls-10" d="M130.724,148.126c-5.2,0-9.375-2.789-10.167-6.779-.951-4.816,3.356-9.739,9.6-10.975a14.886,14.886,0,0,1,2.9-.287c5.192,0,9.369,2.787,10.16,6.779.953,4.816-3.353,9.739-9.6,10.976A14.919,14.919,0,0,1,130.724,148.126Z"/><path class="cls-3" d="M133.052,131.061c4.617,0,8.49,2.385,9.2,5.992.85,4.3-3.106,8.695-8.831,9.829a14.023,14.023,0,0,1-2.7.267c-4.616,0-8.493-2.385-9.209-5.993-.849-4.293,3.105-8.693,8.833-9.827a13.921,13.921,0,0,1,2.7-.268m0-1.952h0a15.923,15.923,0,0,0-3.084.3c-6.773,1.34-11.426,6.778-10.369,12.12.883,4.458,5.459,7.569,11.125,7.569a15.945,15.945,0,0,0,3.08-.305c6.775-1.341,11.425-6.78,10.368-12.124-.882-4.455-5.454-7.565-11.12-7.565Z"/><g class="cls-22"><path class="cls-21" d="M132.9,133.089c.639,1.137-.919,3.232-3.484,4.677s-5.16,1.692-5.8.555.915-3.233,3.48-4.677S132.257,131.951,132.9,133.089Z"/></g><g class="cls-4"><path class="cls-10" d="M142.256,137.053a6.743,6.743,0,0,0-3.106-4.325,6.215,6.215,0,0,1,1.382,2.824c.851,4.3-3.105,8.7-8.832,9.83a12.081,12.081,0,0,1-8.8-1.4c2.118,2.5,6.211,3.751,10.528,2.9C139.15,145.748,143.106,141.349,142.256,137.053Z"/></g><path class="cls-3" d="M151.71,136.993a1.707,1.707,0,0,1,.857-.908,2.12,2.12,0,0,1,1.385-.22,2.365,2.365,0,0,1,.8.275,3.276,3.276,0,0,1,.663.514,3.212,3.212,0,0,1,.457.634,2.325,2.325,0,0,1,.275.657,3.257,3.257,0,0,1-.152,2.346,5.39,5.39,0,0,1-.8-.815c-.228-.219-.407-.512-.626-.751a5.926,5.926,0,0,0-.6-.687,1.352,1.352,0,0,0-.258-.272c-.1-.065-.166-.163-.267-.219a2.444,2.444,0,0,0-.681-.335A6.514,6.514,0,0,0,151.71,136.993Z"/><path class="cls-5" d="M142.765,165.674c-.274-.585-2.408.516-4.9,1.687s-4.411,1.971-4.133,2.554,2.88.56,5.378-.61S143.041,166.257,142.765,165.674Z"/><path class="cls-21" d="M129.794,167.164c-14.094,0-25.565-16.278-26.047-16.971a.668.668,0,0,1,.548-1.049.636.636,0,0,1,.3.073,46.011,46.011,0,0,0,18.648,4.072h0a37.484,37.484,0,0,0,11.264-1.684c13.022-4.1,18.712-13.4,18.767-13.5a.671.671,0,0,1,.574-.327.638.638,0,0,1,.241.047.663.663,0,0,1,.411.755c-.5,2.448-5.364,24.026-20.141,27.98a17.661,17.661,0,0,1-4.567.6Z"/><path class="cls-3" d="M153.85,138.45h.008m-.008,0c-.6,2.905-5.368,23.645-19.661,27.469a16.889,16.889,0,0,1-4.395.577c-13.907,0-25.5-16.684-25.5-16.684a46.238,46.238,0,0,0,18.95,4.144,38.09,38.09,0,0,0,11.464-1.715c13.443-4.232,19.141-13.791,19.141-13.791m0-1.334a1.427,1.427,0,0,0-.146.007,1.33,1.33,0,0,0-.6.222,1.3,1.3,0,0,0-.313.3,1.26,1.26,0,0,0-.091.134c-.231.373-5.84,9.242-18.39,13.193a36.8,36.8,0,0,1-11.063,1.653,45.124,45.124,0,0,1-18.348-4,1.345,1.345,0,0,0-.6-.142,1.334,1.334,0,0,0-1.1,2.094c.489.706,12.157,17.258,26.594,17.258a18.377,18.377,0,0,0,4.74-.621c6.393-1.71,11.712-6.679,15.811-14.766a58.534,58.534,0,0,0,4.791-13.618,1.415,1.415,0,0,0,.052-.375,1.33,1.33,0,0,0-1.3-1.334Z"/><path class="cls-3" d="M102.875,152.243a1.7,1.7,0,0,1-1.034-.7,2.119,2.119,0,0,1-.441-1.33,2.367,2.367,0,0,1,.144-.83,3.307,3.307,0,0,1,.4-.738,3.213,3.213,0,0,1,.553-.553,2.271,2.271,0,0,1,.6-.377,3.252,3.252,0,0,1,2.34-.228,5.48,5.48,0,0,1-.676.924c-.179.259-.437.483-.64.74a5.741,5.741,0,0,0-.581.7,1.334,1.334,0,0,0-.226.3c-.048.1-.134.191-.174.3a2.506,2.506,0,0,0-.22.725A6.463,6.463,0,0,0,102.875,152.243Z"/><path class="cls-3" d="M97.769,99.144l4.462,1.282s-1.926.392-2.724.43S97.769,99.144,97.769,99.144Z"/><path class="cls-3" d="M100.928,99.189l-1.856,1.622s1.014-.246,1.407-.407S100.928,99.189,100.928,99.189Z"/><path class="cls-3" d="M97.357,100.411a15.155,15.155,0,0,1,1.7-.433l.806-.18a2.343,2.343,0,0,0,.633-.237l.111-.09.1-.006.945-.053.485-.026c.168,0,.322-.037.5-.044a2.086,2.086,0,0,1-.407.33,2.867,2.867,0,0,1-.459.249,4.869,4.869,0,0,1-.99.292l.213-.1a2.093,2.093,0,0,1-.958.435,4.735,4.735,0,0,1-.908.1A5.385,5.385,0,0,1,97.357,100.411Z"/></g></g></svg>