<svg xmlns="http://www.w3.org/2000/svg" viewBox="0 0 200 200"><defs><style>.cls-1{fill:#a25100;}.cls-2{fill:#ba712f;}.cls-3{fill:#7a3b01;}.cls-4{fill:#331700;}.cls-5{fill:#eca77f;}.cls-6{fill:#87402c;}.cls-7{fill:#ffd110;}.cls-8{fill:#aa5b0c;}.cls-9{fill:#e5e0d6;}.cls-10{fill:#d3cdc2;}.cls-11{fill:#877463;}.cls-12{fill:#fff;}.cls-13{fill:#4a4947;}.cls-14{fill:#302f2f;}.cls-15{fill:#ffe6a9;}.cls-16{fill:#f4a608;}.cls-17{fill:#f9c89f;}.cls-18{fill:#d17c00;}.cls-19{fill:#873700;}.cls-20{fill:#bf6c21;}.cls-21{fill:#dd9458;}.cls-22{fill:#ffc112;}.cls-23{fill:#fe0000;}.cls-24{fill:#ff8d8d;}.cls-25{fill:#d60000;}.cls-26{fill:#a80505;}.cls-27{fill:#178fff;}.cls-28{fill:#7bc3ff;}.cls-29{fill:#1771ff;}.cls-30{fill:#0258d3;}.cls-31{fill:#02e700;}.cls-32{fill:#1f0;}.cls-33{fill:#02bf00;}.cls-34{fill:#028600;}.cls-35{fill:#fff017;}.cls-36{fill:#fff7b0;}.cls-37{fill:#dbdbdb;}.cls-38{fill:#0092ff;}.cls-39{fill:#005dcc;}.cls-40{fill:#003084;}</style></defs><g id="Layer_12" data-name="Layer 12"><path class="cls-1" d="M169.7,121.7c-.5-9.5-7.6-19.2-9.1-23.8s-6-19.2-4.7-25.6c-1.9-2.3-30-8-30-8s-28.1,5.7-30,8c1.3,6.7-3.3,21-4.8,25.6s-8.5,14.3-9.1,23.8,5.9,15.8,14,19.3,29.9,5.4,29.9,5.4,21.7-1.9,29.8-5.4S170.3,131.2,169.7,121.7Z"/><path class="cls-2" d="M94.8,92.3a18.6,18.6,0,0,0,2.5-13.7A40.7,40.7,0,0,1,94.8,92.3Z"/><path class="cls-2" d="M84.7,128.7c-1.1-7,.9-13.3,2.7-17.5C83.4,115.7,82.5,124.4,84.7,128.7Z"/><path class="cls-2" d="M168.1,124.8c.5-5.2-.4-12.5-5.2-15.8C166.5,113.4,167.3,118.6,168.1,124.8Z"/><path class="cls-2" d="M160.3,101.6c-3.5,1.2-5.2,3.7-5,6,2.7,2.7,5.5,9.2,5.8,14.3.7-5.9-1.6-12-3.4-15.9.7.2,1.5-1.8,2.3-1.6s2.5,2.8,3.8,3.2C162.3,106.1,161.7,103.1,160.3,101.6Z"/><path class="cls-2" d="M88.2,109.1c3.7-3.6,4.5-3,6.6-4.6-2.1,5.3-5,10-4.3,18.4.6-7.5,3.8-14.2,8.5-17.9-2.4-2-4.2-1.8-7.2-2.3A13.4,13.4,0,0,0,88.2,109.1Z"/><path class="cls-2" d="M156.9,92.4a59,59,0,0,1-2.5-14.3C153.3,82.2,154.4,89.1,156.9,92.4Z"/><path class="cls-3" d="M99.7,76.8a69,69,0,0,1-3.9,19c0,3.5,2.7,6.1,3.2,5S106.3,79.8,99.7,76.8Z"/><path class="cls-3" d="M118,139.2c-7.9-10-10.8-22.7-16.1-33.7-3.4,6.1-4.4,15.4-4.3,22.3-2.6-6.4,0-14.7.6-20.4-5.3,7.4-6.6,14.2-5.7,24.2-6.3-4.8-3.7-16.6-1.4-22.5-7.8,8.2-5.8,18.7-4.3,23.7a18.8,18.8,0,0,1-3.5-3.4c2.2,5.3,7,9.1,12.7,11.6s14.6,3.6,21.7,4.5C118.5,143.2,119,140.9,118,139.2Z"/><path class="cls-3" d="M159.6,131.8c.4-9.5.4-16.7-5.9-23.6,1.3,7.2,2.7,15.9-.5,22.7.5-8.5.5-20.8-4.3-27.1-3.8,11.9-8.2,28.6-9.5,41,6-.9,12.6-2.2,16.3-3.8,5.3-2.3,11-6.7,13.2-12.9-2.2,1.6-2.1,0-2.2-1.2-.1-7-.5-12.8-6-17.7C163.9,118.4,164.4,126.1,159.6,131.8Z"/><path class="cls-3" d="M154.8,93.5c-1.8-6.7-2.4-10.9-3.4-14.7-3.9,5.7-1.9,17.3,1.9,23.1C153.8,100.3,156.2,97.6,154.8,93.5Z"/><path class="cls-4" d="M125.9,146.7c-.3,0-21.9-2-30-5.5-9.6-4.1-14.6-11.1-14.1-19.5.3-6.6,3.9-13.3,6.4-18.2a45.1,45.1,0,0,0,2.7-5.7c4-12.4,5.6-21,4.7-25.5h.1c1.9-2.3,29-7.8,30.1-8h.1c1.2.2,28.3,5.7,30.2,8h.1c-.9,4.3.8,13.4,4.7,25.5a60.4,60.4,0,0,0,2.6,5.7c2.6,4.9,6.1,11.6,6.5,18.2.5,8.4-4.6,15.4-14.2,19.5C147.8,144.7,126.1,146.7,125.9,146.7ZM96.1,72.4C97,77,95.4,85.6,91.4,98a45.1,45.1,0,0,1-2.7,5.7c-2.6,4.9-6,11.6-6.4,18-.6,11.1,8.4,16.7,13.8,19.1,8,3.4,29.6,5.3,29.8,5.4s21.8-2,29.7-5.4c5.5-2.4,14.5-8,13.9-19.1-.4-6.4-3.9-13.1-6.4-18a45.1,45.1,0,0,1-2.7-5.7c-2.8-8.6-5.8-20-4.8-25.6-2-1.9-22-6.2-29.7-7.8C118.2,66.2,98.2,70.5,96.1,72.4Z"/><path class="cls-4" d="M95.4,137.9c-4.3-2.3-7.1-5.6-8.2-9.9s.1-11.8,1.7-15.5a11.3,11.3,0,0,1,2.2-3.4c-.6,1-5.8,10.2-3.4,18.8a15,15,0,0,0,8,9.5Z"/><path class="cls-4" d="M98.6,137.8c-7.7-10.1-3.4-22.5-1.1-29.1.5-1.5.9-2.6,1.1-3.4h.5a25.5,25.5,0,0,1-1.1,3.5c-2.3,6.5-6.6,18.7,1,28.6Z"/><path class="cls-4" d="M105.5,137.2c-7.5-7.3-6.3-18-5.5-25.8l.3-2.4h.5c-.1.8-.1,1.6-.2,2.5-.9,7.7-2,18.2,5.3,25.3Z"/><path class="cls-4" d="M156.3,137.9l-.2-.5a15,15,0,0,0,8-9.5c2.4-8.6-2.8-17.8-3.5-18.8a12.8,12.8,0,0,1,2.6,4.1c1.5,3.7,2.9,9.4,1.4,14.8A15.9,15.9,0,0,1,156.3,137.9Z"/><path class="cls-4" d="M153.2,137.8l-.5-.3c7.6-9.9,3.3-22.1,1-28.6a22.4,22.4,0,0,1-1-3.5h.5a21.9,21.9,0,0,0,1,3.4C156.6,115.3,160.9,127.7,153.2,137.8Z"/><path class="cls-4" d="M146.2,137.2l-.3-.4c7.3-7.1,6.2-17.6,5.3-25.3l-.3-2.5h.6a21.2,21.2,0,0,0,.2,2.4C152.6,119.2,153.8,129.9,146.2,137.2Z"/><polygon class="cls-5" points="108.5 132.2 108.5 149.3 125.2 154.6 145.6 148.3 142.7 129.4 108.5 132.2"/><path class="cls-6" d="M125.2,154.9l-17-5.4V131.9l34.8-2.8,2.9,19.4Zm-16.4-5.8,16.4,5.2,20.1-6.2-2.8-18.4-33.7,2.7Z"/><circle class="cls-7" cx="158.3" cy="136.8" r="1.3"/><path class="cls-8" d="M158.3,138.4a1.6,1.6,0,0,1-1.6-1.6,1.6,1.6,0,0,1,1.6-1.5,1.5,1.5,0,0,1,1.5,1.5A1.6,1.6,0,0,1,158.3,138.4Zm0-2.6a1,1,0,0,0-1,1,.9.9,0,0,0,1,1,1,1,0,0,0,1-1A1.1,1.1,0,0,0,158.3,135.8Z"/><path class="cls-9" d="M146.6,137.5c2.8-1,8.5-2.7,16.6,1.7s19.1,13,19.1,13-.1,8-1.5,10.9-23.3,22-31.1,19.2-21.8-26.7-21.3-30.1S146.6,137.5,146.6,137.5Z"/><path class="cls-10" d="M163.2,139.2a23.4,23.4,0,0,0-4.8-2c2.9,1.8,22.2,11.6,23.4,22.2a56.6,56.6,0,0,0,.5-7.2S171.3,143.6,163.2,139.2Z"/><path class="cls-11" d="M151.5,182.9a5.8,5.8,0,0,1-1.9-.3c-7.9-2.9-22-26.8-21.5-30.4s17.6-14.5,18.3-15h.1c3.5-1.2,9.1-2.4,16.8,1.8s19.1,12.9,19.2,13h.1c0,.4-.1,8.1-1.6,11S160.7,182.9,151.5,182.9Zm-4.8-45.2c-4.9,3.2-17.7,11.9-18.1,14.6s13.7,27,21.2,29.8l1.8.2c8.7,0,27.5-16.5,28.9-19.3s1.5-9.6,1.6-10.6-11.5-8.9-19-13S148.9,136.9,146.7,137.7Z"/><path class="cls-12" d="M126.1,154.4a22,22,0,0,0,1.1,7.2c1.2,3.1,11.7,23.8,17.9,24.8s18.5-3,26.1-8.6,15.1-13.6,14.5-20.5a6.1,6.1,0,0,0-3.4-5.1s-4,9.6-9.8,15.4-17.7,12.7-23.7,11.1-18.9-24.8-19.3-26.5Z"/><path class="cls-9" d="M185.7,157.3a6.1,6.1,0,0,0-3.4-5.1s-.5,1.3-1.5,3.3c.8,6.2-2.7,12.1-6.7,16.1-6.2,6.6-17.1,11.3-26.9,12.3-3.6.3-5.7-2.4-8.9-5.5-5.5-6-11.4-17.5-11.1-16.8,1.2,3.1,11.7,23.8,17.9,24.8s18.5-3,26.1-8.6S186.3,164.2,185.7,157.3Z"/><path class="cls-11" d="M147.2,186.8h-2.1c-6.4-1-16.9-21.8-18.2-25a21.9,21.9,0,0,1-1.1-7.3h0l3.8-2.5v.4c.6,1.9,13.4,24.6,19.2,26.2s16.8-4.4,23.4-10.9,9.7-15.3,9.8-15.4v-.2h.2a6.2,6.2,0,0,1,3.6,5.2c.6,7-7.1,15.3-14.6,20.8S153.9,186.8,147.2,186.8Zm-20.9-32.2a23.1,23.1,0,0,0,1.1,6.9c1.5,3.8,12,23.7,17.8,24.7s18.2-3.1,25.9-8.7S186,164,185.4,157.3a5.9,5.9,0,0,0-2.9-4.7c-.7,1.6-4.6,10-9.8,15.2s-15.3,11.4-21.6,11.4a9.3,9.3,0,0,1-2.4-.3c-5.8-1.6-17.9-22.8-19.4-26.2Z"/><path class="cls-12" d="M126.1,154.4c-.7-.5.7-8.1,4.1-10.7s13.7-9.7,14.6-9.8c2.7-.6,4.6,3.6,3.8,5.2C145.2,145.8,127.5,155.6,126.1,154.4Z"/><path class="cls-9" d="M145.5,133.8c2.3,3.5-5.7,9.1-12.9,13.4-2.3,1.5-5.8,4.1-6.5,7.2,1.4,1.2,19.1-8.6,22.5-15.3C149.4,137.6,147.9,134.1,145.5,133.8Z"/><path class="cls-11" d="M126.4,154.8l-.5-.2c-.1-.1-.3-.3-.3-1s1.4-7.9,4.5-10.1,13.6-9.7,14.6-9.9a3.1,3.1,0,0,1,3.2,1.4c1.1,1.4,1.5,3.2,1,4.2-3.2,6.2-17.8,14.7-21.9,15.5Zm-.2-.6a1.9,1.9,0,0,0,.8,0c4-1,18.4-9.3,21.4-15.2.4-.8,0-2.5-.9-3.6a2.9,2.9,0,0,0-2.7-1.3c-.8.2-10.6,7-14.4,9.8S125.8,153.4,126.2,154.2Z"/><path class="cls-13" d="M148.1,168.8c0,2.1,4.2,3.3-.2,3.7s-4.6-3.8-2.5-3.8.2-4.1,2.5-3.8S148.1,166.7,148.1,168.8Z"/><path class="cls-14" d="M147.3,172.8a3.6,3.6,0,0,1-3.1-1.4,2.2,2.2,0,0,1-.2-2.2,1.6,1.6,0,0,1,1.4-.8h0c.3,0,.4-.7.5-1.3s.4-2.7,2-2.5a.8.8,0,0,1,.7.4c.3.4.2,1,.1,1.9a5.4,5.4,0,0,0-.3,1.9,3.1,3.1,0,0,0,1.1,1.9c.4.5.8.9.6,1.3s-.8.6-2.2.8Zm-1.9-3.8c-.5,0-.8.2-.9.5a1.4,1.4,0,0,0,.2,1.6,3.1,3.1,0,0,0,3.1,1.1c1.6-.1,1.8-.4,1.8-.4s-.3-.5-.5-.8a3,3,0,0,1-1.2-2.2,12.5,12.5,0,0,1,.2-2.1c.2-.6.3-1.2.1-1.4h-.4c-.9-.1-1.1.7-1.4,2s-.3,1.8-1,1.8Z"/><path class="cls-13" d="M163.4,169.9c1.3.7-1.1,5.5-1.9,3.9-1.8-3.3-3.2-1.5-3.2-3.3a3.3,3.3,0,0,1,3.2-3.4C163.3,167.1,161.8,169.1,163.4,169.9Z"/><path class="cls-14" d="M161.9,174.4a.7.7,0,0,1-.6-.4c-1-1.8-1.8-2-2.3-2.2s-1-.4-1-1.3a3.7,3.7,0,0,1,3.5-3.7c1.2,0,1.2.8,1.3,1.4a1.5,1.5,0,0,0,.8,1.5h0c.3.2.6.6.4,1.6s-1.1,3-2,3.1Zm-.4-7a3,3,0,0,0-2.9,3.1c0,.6.1.6.5.8a4.1,4.1,0,0,1,2.6,2.4l.2.2c.5-.1,1.4-1.5,1.6-2.7s0-.9-.2-1h0a2.3,2.3,0,0,1-1.1-1.9C162.2,167.6,162.2,167.4,161.5,167.4Z"/><path class="cls-13" d="M164.7,153c0,2.1-2.3,4.7-3.7,3.3s-2,.1-2.7-.6.8-1.7.8-2.7-1.6-1.8-1.1-2.5,2.6.5,2.9-1.4,3.3.5,2.6,1.1C160,153,164.7,151.9,164.7,153Z"/><path class="cls-14" d="M161.9,157a1.8,1.8,0,0,1-1.1-.5c-.2-.3-.7-.3-1.2-.3a1.6,1.6,0,0,1-1.5-.3c-.6-.6-.2-1.2.2-1.8a2.2,2.2,0,0,0,.5-1.1c0-.4-.3-.7-.6-1.1s-.8-1-.4-1.5a1.7,1.7,0,0,1,1.5-.5c.8,0,1.2,0,1.4-.8s.2-.5.6-.6,2.3.6,2.5,1.2a.6.6,0,0,1-.1.7c-1.2,1-1.2,1.3-1.2,1.3s.6.3,1,.4,1.5.2,1.5.9a4.4,4.4,0,0,1-2.4,3.8Zm-1.8-1.3a1.2,1.2,0,0,1,1.1.4,1.1,1.1,0,0,0,1.2.2,4,4,0,0,0,2-3.3c0-.2-.6-.3-1-.4s-1.3-.2-1.4-.7.2-1.1,1.3-1.9-1-.9-1.8-.9h-.3c-.2,1.3-1.2,1.3-1.9,1.3s-.9,0-1.1.2,0,.4.4.9a2.1,2.1,0,0,1,.7,1.4,3.4,3.4,0,0,1-.5,1.4c-.4.6-.5.9-.3,1.1s.6.2,1.1.2Z"/><path class="cls-13" d="M154.6,144.3c-1.9.9-5.3,0-4.6-1.8s-1-1.9-.6-2.8,1.8,0,2.8-.5.9-2.2,1.7-2,.8,2.6,2.5,2.1,1,3.2.2,2.8C152.5,140.1,155.6,143.9,154.6,144.3Z"/><path class="cls-14" d="M152.9,145a3.8,3.8,0,0,1-2.7-.9,1.4,1.4,0,0,1-.4-1.7,1.8,1.8,0,0,0-.3-1.2,1.9,1.9,0,0,1-.4-1.6c.3-.7,1-.6,1.7-.5s.9.1,1.2-.1.5-.6.7-1,.6-1.2,1.3-1,.8.7,1,1.1.6,1.1,1.3.9.6.1.8.4a3.1,3.1,0,0,1,0,2.8c-.1.2-.4.2-.6.1s-1.7-.5-1.8-.5.1.7.2,1.1.4,1.4-.2,1.7h0A5.3,5.3,0,0,1,152.9,145Zm-2.8-5.5a.5.5,0,0,0-.5.3,1.7,1.7,0,0,0,.3,1.1,1.9,1.9,0,0,1,.4,1.6.9.9,0,0,0,.3,1.2c.8.8,2.7.9,3.9.4s-.1-.7-.1-1.1-.4-1.3,0-1.6,1.1-.2,2.3.4a2.6,2.6,0,0,0,0-2c0-.1-.1-.3-.2-.3s-1.7-.5-2-1.1-.4-.8-.7-.9-.3.2-.6.8-.4,1-.9,1.2a2.9,2.9,0,0,1-1.6.1Z"/><path class="cls-13" d="M176.7,152.5c.3,3-1.7-.6-3.1.8s.8,2.4,0,2.2c-3.8-.8-.4-2.8-2.4-3.2s1.1-3.2,2.4-3.2-.3,1.2.4,2.2S176.1,151.1,176.7,152.5Z"/><path class="cls-14" d="M173.7,155.8h-.2a3.1,3.1,0,0,1-1.9-1,1.7,1.7,0,0,1-.1-1.4c.1-.3.2-.5.1-.6s-.2-.2-.4-.2a.9.9,0,0,1-.8-.9c.1-1.1,2.1-2.8,3.2-2.8s.4,0,.5.2.1.5.1.8a1.3,1.3,0,0,0,.1,1.2h.5c.7.1,1.7.1,2.2,1.2h0c.1.8,0,1.2-.3,1.4s-.7,0-1.2-.2-1.3-.7-1.7-.2a3.1,3.1,0,0,0,.2.8c.1.6.3,1.1,0,1.4Zm-.1-6.4a3.8,3.8,0,0,0-2.6,2.3c0,.2,0,.3.3.4a1,1,0,0,1,.8.4,1.2,1.2,0,0,1,0,1c-.1.4-.2.7,0,1s.7.6,1.5.7-.1-.5-.1-.7-.4-1.1-.1-1.4,1.7-.3,2.4.1l.6.3s.1-.1.1-.9a2.1,2.1,0,0,0-1.8-.9c-.4,0-.7,0-.9-.3a1.9,1.9,0,0,1-.2-1.6.6.6,0,0,0,.1-.4Z"/><path class="cls-13" d="M145.6,155.4a5.6,5.6,0,0,1-.6,2.1c-.7,1.1-1.6,1.8-2.3,1s-2.8-1.4-2.8-3.1,2-4.4,2.8-3.1S145.6,153.7,145.6,155.4Z"/><path class="cls-14" d="M143.3,159.1a1.2,1.2,0,0,1-.8-.4,5.5,5.5,0,0,0-1.7-1.5,1.8,1.8,0,0,1-1.2-1.8c0-1.4,1.2-3.3,2.3-3.6a.9.9,0,0,1,1.1.4,4,4,0,0,0,1.2,1c.8.5,1.7,1,1.7,2.2a4.7,4.7,0,0,1-.7,2.2c-.5.9-1.2,1.5-1.8,1.5Zm-1.1-6.8H142c-.7.2-1.8,1.9-1.8,3.1s.3,1,.9,1.4a7.5,7.5,0,0,1,1.9,1.6.4.4,0,0,0,.4.2,2.3,2.3,0,0,0,1.3-1.3,3.5,3.5,0,0,0,.6-1.9c0-.9-.6-1.3-1.4-1.7a8.1,8.1,0,0,1-1.4-1.2C142.4,152.3,142.3,152.3,142.2,152.3Z"/><path class="cls-7" d="M94.4,137.2a1.2,1.2,0,0,1-1.2,1.3,1.3,1.3,0,0,1-1.3-1.3,1.2,1.2,0,0,1,1.3-1.3A1.2,1.2,0,0,1,94.4,137.2Z"/><path class="cls-8" d="M93.2,138.7a1.6,1.6,0,0,1-1.6-1.5,1.6,1.6,0,0,1,1.6-1.6,1.6,1.6,0,0,1,1.5,1.6A1.5,1.5,0,0,1,93.2,138.7Zm0-2.6a1.1,1.1,0,0,0-1.1,1.1,1.1,1.1,0,0,0,1.1,1,1.1,1.1,0,0,0,1-1A1.1,1.1,0,0,0,93.2,136.1Z"/><path class="cls-9" d="M104.2,137.6c-2.8-1-8.5-2.6-16.6,1.8s-19.1,13-19.1,13,.1,7.9,1.5,10.8,23.3,22.1,31.1,19.3,21.8-26.7,21.3-30.1S104.2,137.6,104.2,137.6Z"/><path class="cls-11" d="M99.7,183c-9.1,0-28.1-16.8-29.5-19.6s-1.6-10.7-1.6-11h.1c.1-.1,11.2-8.7,19.2-13.1s13.3-3,16.8-1.7h.1c.7.5,17.9,11.5,18.3,15s-13.5,27.4-21.5,30.3A5.8,5.8,0,0,1,99.7,183ZM69.2,152.5c0,1.1.2,8,1.5,10.6s23.1,21.9,30.7,19.1,21.7-26.4,21.2-29.8-13.2-11.4-18.1-14.5c-2.2-.8-7.9-2.8-16.3,1.7S70.3,151.6,69.2,152.5Z"/><path class="cls-12" d="M125.2,154.6a23.6,23.6,0,0,1-1.2,7.2c-1.1,3.1-11.7,23.8-17.9,24.8s-18.4-3.1-26.1-8.7-15.1-13.6-14.5-20.5a6,6,0,0,1,3.4-5s4.1,9.6,9.8,15.4,17.8,12.7,23.7,11,18.9-24.8,19.4-26.4Z"/><path class="cls-9" d="M105.6,182.9c-7.1,2.2-16.5-1.7-23.4-5.8s-12.9-10.4-16.6-17.3c1.1,6.4,7.9,13.4,14.4,18.1s19.9,9.7,26.1,8.7,16.8-21.7,17.9-24.8a23.6,23.6,0,0,0,1.2-7.2S115.5,178.5,105.6,182.9Z"/><path class="cls-11" d="M104,187c-6.6,0-17.2-3.8-24.2-8.9s-15.2-13.7-14.5-20.7a6.2,6.2,0,0,1,3.5-5.3h.3v.3c0,.1,4.1,9.6,9.7,15.3s17.6,12.6,23.4,11,18.7-24.4,19.2-26.3V152l3.8,2.4v.2a22.2,22.2,0,0,1-1.1,7.3c-1.2,3.2-11.7,23.9-18.2,24.9ZM68.8,152.8a5.5,5.5,0,0,0-3,4.6c-.6,6.8,7,14.9,14.4,20.3s19.7,9.6,25.8,8.6,16.4-20.8,17.8-24.6a23.2,23.2,0,0,0,1.1-7l-3-1.9c-1.4,3.4-13.6,24.7-19.4,26.3S85.2,174.7,78.6,168C73.3,162.8,69.5,154.3,68.8,152.8Z"/><path class="cls-12" d="M125.2,154.6c.6-.5-.7-8.2-4.2-10.7s-13.6-9.7-14.5-9.9c-2.8-.6-4.7,3.6-3.9,5.2C106.1,146,123.8,155.7,125.2,154.6Z"/><path class="cls-9" d="M119.7,149c-8.4-5.7-15.5-10-15.3-14.5-1.6,1.1-2.4,3.6-1.8,4.7,3.5,6.8,21.2,16.5,22.6,15.4A20.1,20.1,0,0,0,119.7,149Z"/><path class="cls-11" d="M124.8,154.9h-.6c-4.1-.9-18.7-9.4-21.8-15.5-.5-1-.1-2.9.9-4.2a3.3,3.3,0,0,1,3.2-1.5c1,.3,11.6,7.7,14.7,9.9s4.3,8.1,4.4,10.1-.1,1-.3,1.1h-.5Zm-18.9-20.7a3.1,3.1,0,0,0-2.2,1.3c-.9,1.2-1.3,2.8-.8,3.6,3,5.9,17.3,14.3,21.4,15.2h.7c.4-.8-.9-7.9-4.2-10.3s-13.6-9.6-14.4-9.8Z"/><path class="cls-13" d="M103.1,169c0,2.1-4.1,3.3.3,3.6s4.6-3.8,2.5-3.8-.3-4-2.5-3.8S103.1,166.9,103.1,169Z"/><path class="cls-14" d="M103.9,172.9h-.6c-1.4-.1-2-.3-2.2-.7s.2-.9.7-1.4,1-1.1,1-1.8a12.3,12.3,0,0,0-.2-2,2.5,2.5,0,0,1,0-1.9.9.9,0,0,1,.7-.3c1.6-.2,1.8,1.3,2,2.4s.3,1.4.6,1.4h0a1.6,1.6,0,0,1,1.3.7,2,2,0,0,1-.2,2.2A3.3,3.3,0,0,1,103.9,172.9Zm-.3-7.6h-.2c-.3,0-.3.1-.4.2a3.7,3.7,0,0,0,.1,1.4,11.8,11.8,0,0,1,.3,2.1,3.7,3.7,0,0,1-1.2,2.2,1.4,1.4,0,0,0-.6.8s.2.2,1.8.4a3.3,3.3,0,0,0,3.2-1.2,1.5,1.5,0,0,0,.1-1.6.8.8,0,0,0-.8-.5h0c-.8,0-1-.9-1.1-1.8S104.4,165.3,103.6,165.3Z"/><path class="cls-13" d="M87.8,170.1c-1.3.7,1.1,5.5,1.9,3.9,1.9-3.4,3.3-1.5,3.3-3.4a3.3,3.3,0,0,0-3.3-3.3C88,167.3,89.4,169.2,87.8,170.1Z"/><path class="cls-14" d="M89.3,174.6h-.1c-.9-.2-1.8-2-2-3.2s.2-1.4.5-1.5a1.6,1.6,0,0,0,.7-1.5c.1-.6.2-1.4,1.3-1.4a3.5,3.5,0,0,1,3.5,3.6c0,1-.3,1.2-.9,1.4s-1.4.4-2.3,2.1A.8.8,0,0,1,89.3,174.6Zm.4-7.1c-.6,0-.7.3-.7.9a2.3,2.3,0,0,1-1.1,1.9h0c-.2.2-.2.5-.2,1.1s1.1,2.6,1.6,2.6.1.1.2-.1c1.1-2,2-2.3,2.6-2.5s.6-.1.6-.8A3,3,0,0,0,89.7,167.5Z"/><path class="cls-13" d="M86.5,153.1c0,2.1,2.3,4.8,3.7,3.3s2.1.1,2.8-.5-.8-1.7-.8-2.8,1.6-1.7,1-2.4-2.6.4-2.9-1.4-3.3.4-2.6,1C91.2,153.1,86.5,152,86.5,153.1Z"/><path class="cls-14" d="M89.3,157.1h-.7a4.6,4.6,0,0,1-2.3-3.9c0-.6.7-.7,1.4-.9s1-.1,1.1-.3,0-.4-1.3-1.4-.2-.4-.1-.6a3,3,0,0,1,2.5-1.2.7.7,0,0,1,.7.6c.1.8.6.8,1.4.8s1.1,0,1.4.4,0,1.1-.4,1.6a1.8,1.8,0,0,0-.6,1,3.1,3.1,0,0,0,.5,1.2c.4.6.8,1.2.2,1.7s-1,.4-1.5.4-.9-.1-1.2.2A1.6,1.6,0,0,1,89.3,157.1Zm.5-7.9h-.1c-.7.1-1.8.7-1.8.9s1.5,1.5,1.4,1.9-.8.7-1.5.8l-1,.3a4.3,4.3,0,0,0,2,3.4c.5.1.9.1,1.2-.3a2.3,2.3,0,0,1,1.6-.4,1.6,1.6,0,0,0,1.2-.1c.2-.3,0-.5-.3-1.1a2.5,2.5,0,0,1-.6-1.5,2.7,2.7,0,0,1,.7-1.4c.4-.4.5-.7.4-.8s-.6-.3-1-.3-1.8.1-2-1.3Z"/><path class="cls-13" d="M95.5,144c1.6,1.3,5.1,1,4.8-1s1.3-1.6,1.2-2.5-1.8-.4-2.7-1-.4-2.4-1.3-2.3-1.2,2.3-2.9,1.5-1.6,2.9-.7,2.7C98.3,140.2,94.6,143.3,95.5,144Z"/><path class="cls-14" d="M98,145a4.8,4.8,0,0,1-2.7-.8c-.5-.4-.2-1.1.2-1.7s.4-.9.3-1-.3-.3-1.8.1a.4.4,0,0,1-.6-.2c-.4-.6,0-2.2.5-2.8a1,1,0,0,1,.9-.2c.7.4,1,.1,1.5-.6s.6-.9,1.2-.9.9.7,1,1.3a1.6,1.6,0,0,0,.5,1,1.7,1.7,0,0,0,1.2.3c.7.1,1.4.2,1.6.9a2.6,2.6,0,0,1-.7,1.5,1.3,1.3,0,0,0-.5,1.1,1.6,1.6,0,0,1-.8,1.6A3.4,3.4,0,0,1,98,145Zm-2.6-4.2c.4,0,.7.1.8.3s0,1.1-.3,1.7-.4.9-.3,1h0a4.2,4.2,0,0,0,3.9.3.9.9,0,0,0,.5-1,1.9,1.9,0,0,1,.7-1.6c.3-.3.6-.7.5-1s-.3-.4-1-.4a3.7,3.7,0,0,1-1.5-.4,1.9,1.9,0,0,1-.7-1.4c-.2-.6-.3-.9-.5-.9s-.5.4-.8.7-1,1.4-2.2.8l-.3.2c-.4.6-.5,1.9-.3,2Z"/><path class="cls-13" d="M74.5,152.6c-.3,3.1,1.8-.5,3.1.8s-.8,2.5,0,2.3c3.9-.9.4-2.8,2.4-3.2s-1.1-3.2-2.4-3.2.3,1.1-.4,2.1S75.1,151.3,74.5,152.6Z"/><path class="cls-14" d="M77.5,156l-.3-.2c-.2-.2-.1-.7.1-1.3s.2-.8.1-.9-1-.2-1.7.2-.8.5-1.2.3-.4-.6-.3-1.5h.1a2.1,2.1,0,0,1,2.1-1.1H77a2.6,2.6,0,0,0,.1-1.2c-.1-.4-.2-.7,0-.9a.6.6,0,0,1,.5-.2,4.2,4.2,0,0,1,3.2,2.8c.1.5-.2.8-.8,1h-.4a1.3,1.3,0,0,0,.1.6,1.7,1.7,0,0,1-.1,1.4c-.2.5-.9.8-1.9,1Zm-.6-3.2a1.2,1.2,0,0,1,.9.4c.3.3.2.8,0,1.5a1.9,1.9,0,0,0-.2.7,2.6,2.6,0,0,0,1.6-.8,1.4,1.4,0,0,0,0-.9c-.1-.4-.2-.7,0-1s.4-.4.7-.5.4-.2.4-.3a3.9,3.9,0,0,0-2.7-2.3h-.1v.3a2.1,2.1,0,0,1-.2,1.7c-.1.2-.5.3-.9.3a1.7,1.7,0,0,0-1.7.8c-.1.8,0,.9,0,.9s.5-.1.7-.3A3.4,3.4,0,0,1,76.9,152.8Z"/><path class="cls-13" d="M105.6,155.6a4,4,0,0,0,.7,2c.6,1.1,1.6,1.9,2.2,1.1s2.8-1.4,2.8-3.1-1.9-4.4-2.8-3.1S105.6,153.9,105.6,155.6Z"/><path class="cls-14" d="M107.9,159.3h-.1a3,3,0,0,1-1.8-1.5,5.2,5.2,0,0,1-.6-2.2,2.4,2.4,0,0,1,1.6-2.2c.5-.4,1-.6,1.3-1.1a.9.9,0,0,1,1.1-.4c1,.3,2.2,2.3,2.2,3.7a1.8,1.8,0,0,1-1.2,1.8,6.6,6.6,0,0,0-1.7,1.5A1.2,1.2,0,0,1,107.9,159.3Zm1.2-6.9-.4.2a3.2,3.2,0,0,1-1.4,1.2c-.7.5-1.4.9-1.4,1.8a4.1,4.1,0,0,0,.6,1.9c.4.7,1,1.2,1.4,1.2l.4-.2a6.1,6.1,0,0,1,1.9-1.6c.6-.3.9-.5.9-1.3a4.2,4.2,0,0,0-1.9-3.2Z"/><circle class="cls-7" cx="125.6" cy="172.5" r="8.4" transform="translate(-60.9 276.1) rotate(-83)"/><path class="cls-15" d="M130.5,165.6a8.9,8.9,0,0,0-4.2-1.5,8.6,8.6,0,0,0-9.1,7.8,9.8,9.8,0,0,0,.6,3.8C116.9,168.8,122.4,162.8,130.5,165.6Z"/><path class="cls-16" d="M130.8,165.9c5.4,9.3-2.3,16.1-10.1,13.4a8.1,8.1,0,0,0,4.3,1.6,8.3,8.3,0,0,0,9-7.8A8.1,8.1,0,0,0,130.8,165.9Z"/><path class="cls-8" d="M125.6,181.2a8.7,8.7,0,1,1,8.7-8.7A8.7,8.7,0,0,1,125.6,181.2Zm0-16.8a8.1,8.1,0,0,0-8.1,8.1,8.2,8.2,0,0,0,8.1,8.2,8.2,8.2,0,0,0,8.2-8.2A8.2,8.2,0,0,0,125.6,164.4Z"/><circle class="cls-7" cx="125.6" cy="172.5" r="4.8"/><path class="cls-15" d="M128.4,168.6a4.8,4.8,0,0,0-1.8-.8,4.9,4.9,0,0,0-5.7,3.8,5.4,5.4,0,0,0,.1,2.2A5.8,5.8,0,0,1,128.4,168.6Z"/><path class="cls-16" d="M129.7,170c.5,2.9-2.3,7.2-5.7,7l.7.2a4.8,4.8,0,0,0,5-7.2Z"/><path class="cls-8" d="M125.6,177.6a5.1,5.1,0,0,1,0-10.2,5.1,5.1,0,0,1,0,10.2Zm0-9.6a4.5,4.5,0,0,0-4.5,4.5,4.6,4.6,0,0,0,4.5,4.6,4.7,4.7,0,0,0,4.6-4.6A4.6,4.6,0,0,0,125.6,168Z"/><path class="cls-7" d="M118.5,167.6a1.3,1.3,0,0,1-2.6,0,1.3,1.3,0,0,1,2.6,0Z"/><path class="cls-8" d="M117.2,169.1a1.6,1.6,0,0,1-1.6-1.5,1.6,1.6,0,1,1,3.2,0A1.6,1.6,0,0,1,117.2,169.1Zm0-2.6a1,1,0,0,0-1,1.1,1,1,0,0,0,2,0A1,1,0,0,0,117.2,166.5Z"/><path class="cls-7" d="M116.5,166a1.3,1.3,0,0,1-1.3,1.3,1.3,1.3,0,0,1-1.3-1.3,1.2,1.2,0,0,1,1.3-1.3A1.3,1.3,0,0,1,116.5,166Z"/><path class="cls-8" d="M115.2,167.5a1.6,1.6,0,0,1-1.6-1.5,1.6,1.6,0,0,1,1.6-1.6,1.6,1.6,0,0,1,1.5,1.6A1.5,1.5,0,0,1,115.2,167.5Zm0-2.6a1.1,1.1,0,0,0-1.1,1.1,1.1,1.1,0,0,0,1.1,1,1.1,1.1,0,0,0,1-1A1.1,1.1,0,0,0,115.2,164.9Z"/><path class="cls-7" d="M114.2,164.7a1.3,1.3,0,0,1-1.3,1.3,1.3,1.3,0,0,1,0-2.6A1.3,1.3,0,0,1,114.2,164.7Z"/><path class="cls-8" d="M112.9,166.2a1.5,1.5,0,0,1-1.5-1.5,1.6,1.6,0,0,1,1.5-1.6,1.6,1.6,0,0,1,1.6,1.6A1.6,1.6,0,0,1,112.9,166.2Zm0-2.6a1.1,1.1,0,0,0-1,1.1,1.1,1.1,0,0,0,1,1,1.1,1.1,0,0,0,1.1-1A1.1,1.1,0,0,0,112.9,163.6Z"/><path class="cls-7" d="M112.2,163a1.3,1.3,0,0,1-1.3,1.3,1.3,1.3,0,1,1,0-2.6A1.3,1.3,0,0,1,112.2,163Z"/><path class="cls-8" d="M110.9,164.6a1.6,1.6,0,0,1-1.6-1.6,1.6,1.6,0,0,1,1.6-1.5,1.5,1.5,0,0,1,1.5,1.5A1.6,1.6,0,0,1,110.9,164.6Zm0-2.6a1.1,1.1,0,0,0-1.1,1,1,1,0,0,0,1.1,1,1,1,0,0,0,1-1A1.1,1.1,0,0,0,110.9,162Z"/><circle class="cls-7" cx="108.8" cy="161.2" r="1.3"/><path class="cls-8" d="M108.8,162.8a1.6,1.6,0,0,1-1.6-1.6,1.6,1.6,0,0,1,3.2,0A1.6,1.6,0,0,1,108.8,162.8Zm0-2.6a1,1,0,0,0-1,1,1,1,0,0,0,2,0A1,1,0,0,0,108.8,160.2Z"/><path class="cls-7" d="M107.9,159.6a1.3,1.3,0,1,1-1.3-1.3A1.3,1.3,0,0,1,107.9,159.6Z"/><path class="cls-8" d="M106.6,161.2a1.6,1.6,0,0,1-1.5-1.6,1.5,1.5,0,0,1,1.5-1.5,1.6,1.6,0,0,1,1.6,1.5A1.6,1.6,0,0,1,106.6,161.2Zm0-2.6a1.1,1.1,0,0,0-1,1,1,1,0,0,0,1,1,.9.9,0,0,0,1-1A1,1,0,0,0,106.6,158.6Z"/><path class="cls-7" d="M106,157.9a1.3,1.3,0,1,1-1.3-1.3A1.3,1.3,0,0,1,106,157.9Z"/><path class="cls-8" d="M104.7,159.5a1.6,1.6,0,0,1-1.6-1.6,1.7,1.7,0,0,1,1.6-1.6,1.6,1.6,0,0,1,1.6,1.6A1.6,1.6,0,0,1,104.7,159.5Zm0-2.6a1.1,1.1,0,0,0-1,1,1,1,0,0,0,1,1,.9.9,0,0,0,1-1A1,1,0,0,0,104.7,156.9Z"/><path class="cls-7" d="M104.1,156.3a1.3,1.3,0,0,1-2.6,0,1.3,1.3,0,1,1,2.6,0Z"/><path class="cls-8" d="M102.8,157.8a1.5,1.5,0,0,1-1.5-1.5,1.6,1.6,0,0,1,1.5-1.6,1.6,1.6,0,0,1,1.6,1.6A1.6,1.6,0,0,1,102.8,157.8Zm0-2.6a1.1,1.1,0,0,0-1,1.1,1.1,1.1,0,0,0,1,1,1,1,0,0,0,1-1A1,1,0,0,0,102.8,155.2Z"/><path class="cls-7" d="M102.6,154.2a1.3,1.3,0,1,1-1.3-1.3A1.3,1.3,0,0,1,102.6,154.2Z"/><path class="cls-8" d="M101.3,155.8a1.6,1.6,0,0,1,0-3.2,1.6,1.6,0,1,1,0,3.2Zm0-2.6a1,1,0,0,0,0,2,1,1,0,1,0,0-2Z"/><path class="cls-7" d="M101,152.1a1.3,1.3,0,1,1-1.3-1.3A1.3,1.3,0,0,1,101,152.1Z"/><path class="cls-8" d="M99.7,153.7a1.6,1.6,0,0,1-1.6-1.6,1.6,1.6,0,0,1,1.6-1.5,1.6,1.6,0,1,1,0,3.1Zm0-2.6a1,1,0,0,0-1,1,1,1,0,0,0,1,1.1,1.1,1.1,0,0,0,1-1.1A1.1,1.1,0,0,0,99.7,151.1Z"/><path class="cls-7" d="M99.3,150.2a1.3,1.3,0,0,1-2.6,0,1.3,1.3,0,0,1,2.6,0Z"/><path class="cls-8" d="M98,151.8a1.6,1.6,0,0,1-1.6-1.6,1.6,1.6,0,0,1,1.6-1.5,1.5,1.5,0,0,1,1.5,1.5A1.6,1.6,0,0,1,98,151.8Zm0-2.6a1,1,0,0,0-1,1,1,1,0,0,0,1,1.1,1.1,1.1,0,0,0,1-1.1A1.1,1.1,0,0,0,98,149.2Z"/><path class="cls-7" d="M97.8,148a1.3,1.3,0,0,1-1.3,1.3,1.3,1.3,0,1,1,0-2.6A1.3,1.3,0,0,1,97.8,148Z"/><path class="cls-8" d="M96.5,149.6a1.6,1.6,0,0,1,0-3.2,1.6,1.6,0,0,1,0,3.2Zm0-2.6a1,1,0,0,0,0,2,1,1,0,1,0,0-2Z"/><path class="cls-7" d="M96.4,145.9a1.3,1.3,0,1,1-2.6,0,1.3,1.3,0,1,1,2.6,0Z"/><path class="cls-8" d="M95.1,147.4a1.6,1.6,0,0,1-1.6-1.5,1.6,1.6,0,0,1,3.2,0A1.6,1.6,0,0,1,95.1,147.4Zm0-2.6a1,1,0,0,0-1,1.1,1,1,0,0,0,2,0A1,1,0,0,0,95.1,144.8Z"/><path class="cls-7" d="M94.8,143.6a1.3,1.3,0,0,1-1.3,1.3,1.3,1.3,0,0,1,0-2.6A1.3,1.3,0,0,1,94.8,143.6Z"/><path class="cls-8" d="M93.5,145.2a1.6,1.6,0,0,1-1.5-1.6,1.5,1.5,0,0,1,1.5-1.5,1.6,1.6,0,0,1,1.6,1.5A1.6,1.6,0,0,1,93.5,145.2Zm0-2.6a1.1,1.1,0,0,0-1,1,1,1,0,0,0,1,1,1,1,0,0,0,1.1-1A1.1,1.1,0,0,0,93.5,142.6Z"/><path class="cls-7" d="M93.8,141.3a1.3,1.3,0,1,1-1.3-1.3A1.3,1.3,0,0,1,93.8,141.3Z"/><path class="cls-8" d="M92.5,142.9a1.6,1.6,0,1,1,0-3.1,1.6,1.6,0,0,1,1.6,1.5A1.6,1.6,0,0,1,92.5,142.9Zm0-2.6a1.1,1.1,0,0,0-1,1,1.1,1.1,0,0,0,1,1.1,1,1,0,0,0,1-1.1A1,1,0,0,0,92.5,140.3Z"/><path class="cls-7" d="M92.5,137.2a1.3,1.3,0,1,1-1.3-1.3A1.3,1.3,0,0,1,92.5,137.2Z"/><path class="cls-8" d="M91.2,138.8a1.6,1.6,0,0,1-1.5-1.6,1.5,1.5,0,0,1,1.5-1.5,1.6,1.6,0,0,1,1.6,1.5A1.6,1.6,0,0,1,91.2,138.8Zm0-2.6a1.1,1.1,0,0,0-1,1,1,1,0,0,0,1,1,.9.9,0,0,0,1-1A1,1,0,0,0,91.2,136.2Z"/><path class="cls-7" d="M93,138.9a1.3,1.3,0,1,1-1.3-1.3A1.3,1.3,0,0,1,93,138.9Z"/><path class="cls-8" d="M91.7,140.5a1.6,1.6,0,1,1,1.6-1.6A1.6,1.6,0,0,1,91.7,140.5Zm0-2.6a1,1,0,1,0,1,1A.9.9,0,0,0,91.7,137.9Z"/><path class="cls-7" d="M132.8,167.6a1.3,1.3,0,0,0,1.3,1.3,1.3,1.3,0,0,0,1.3-1.3,1.3,1.3,0,0,0-1.3-1.3A1.2,1.2,0,0,0,132.8,167.6Z"/><path class="cls-8" d="M134.1,169.1a1.6,1.6,0,0,1-1.6-1.5,1.6,1.6,0,0,1,1.6-1.6,1.6,1.6,0,0,1,1.5,1.6A1.5,1.5,0,0,1,134.1,169.1Zm0-2.6a1.1,1.1,0,0,0-1.1,1.1,1.1,1.1,0,0,0,1.1,1,1.1,1.1,0,0,0,1-1A1.1,1.1,0,0,0,134.1,166.5Z"/><path class="cls-7" d="M134.8,166a1.3,1.3,0,0,0,2.6,0,1.3,1.3,0,0,0-2.6,0Z"/><path class="cls-8" d="M136.1,167.5a1.6,1.6,0,0,1-1.6-1.5,1.6,1.6,0,1,1,3.2,0A1.6,1.6,0,0,1,136.1,167.5Zm0-2.6a1,1,0,0,0-1,1.1,1,1,0,0,0,2,0A1,1,0,0,0,136.1,164.9Z"/><path class="cls-7" d="M137,164.7a1.3,1.3,0,1,0,1.3-1.3A1.3,1.3,0,0,0,137,164.7Z"/><path class="cls-8" d="M138.3,166.2a1.5,1.5,0,0,1-1.5-1.5,1.6,1.6,0,0,1,1.5-1.6,1.6,1.6,0,0,1,1.6,1.6A1.6,1.6,0,0,1,138.3,166.2Zm0-2.6a1.1,1.1,0,0,0-1,1.1,1.1,1.1,0,0,0,1,1,1,1,0,0,0,1-1A1,1,0,0,0,138.3,163.6Z"/><path class="cls-7" d="M139.1,163a1.3,1.3,0,1,0,1.3-1.3A1.3,1.3,0,0,0,139.1,163Z"/><path class="cls-8" d="M140.4,164.6a1.6,1.6,0,0,1-1.6-1.6,1.6,1.6,0,0,1,3.2,0A1.6,1.6,0,0,1,140.4,164.6Zm0-2.6a1,1,0,0,0-1,1,1,1,0,0,0,2,0A1,1,0,0,0,140.4,162Z"/><path class="cls-7" d="M141.2,161.2a1.3,1.3,0,0,0,1.3,1.3,1.3,1.3,0,0,0,0-2.6A1.3,1.3,0,0,0,141.2,161.2Z"/><path class="cls-8" d="M142.5,162.8a1.6,1.6,0,0,1-1.6-1.6,1.6,1.6,0,0,1,1.6-1.5,1.5,1.5,0,0,1,1.5,1.5A1.6,1.6,0,0,1,142.5,162.8Zm0-2.6a1.1,1.1,0,0,0-1.1,1,1,1,0,0,0,1.1,1,1,1,0,0,0,1-1A1.1,1.1,0,0,0,142.5,160.2Z"/><circle class="cls-7" cx="144.6" cy="159.6" r="1.3"/><path class="cls-8" d="M144.6,161.2a1.6,1.6,0,0,1-1.5-1.6,1.5,1.5,0,0,1,1.5-1.5,1.6,1.6,0,0,1,1.6,1.5A1.6,1.6,0,0,1,144.6,161.2Zm0-2.6a1.1,1.1,0,0,0-1,1,1,1,0,0,0,1,1,1,1,0,0,0,1.1-1A1.1,1.1,0,0,0,144.6,158.6Z"/><path class="cls-7" d="M145.3,157.9a1.3,1.3,0,0,0,1.3,1.3,1.3,1.3,0,0,0,0-2.6A1.3,1.3,0,0,0,145.3,157.9Z"/><path class="cls-8" d="M146.6,159.5a1.6,1.6,0,0,1-1.6-1.6,1.6,1.6,0,1,1,3.1,0A1.6,1.6,0,0,1,146.6,159.5Zm0-2.6a1.1,1.1,0,0,0-1.1,1,1,1,0,0,0,1.1,1,1,1,0,0,0,1-1A1.1,1.1,0,0,0,146.6,156.9Z"/><path class="cls-7" d="M147.2,156.3a1.2,1.2,0,0,0,1.2,1.2,1.2,1.2,0,0,0,1.3-1.2,1.2,1.2,0,0,0-1.3-1.3A1.2,1.2,0,0,0,147.2,156.3Z"/><path class="cls-8" d="M148.4,157.8a1.5,1.5,0,0,1-1.5-1.5,1.6,1.6,0,0,1,1.5-1.6,1.6,1.6,0,0,1,1.6,1.6A1.6,1.6,0,0,1,148.4,157.8Zm0-2.6a1.1,1.1,0,0,0-1,1.1,1.1,1.1,0,0,0,1,1,1.1,1.1,0,0,0,1.1-1A1.1,1.1,0,0,0,148.4,155.2Z"/><path class="cls-7" d="M148.6,154.2a1.3,1.3,0,1,0,1.3-1.3A1.3,1.3,0,0,0,148.6,154.2Z"/><path class="cls-8" d="M149.9,155.8a1.6,1.6,0,0,1,0-3.2,1.6,1.6,0,0,1,0,3.2Zm0-2.6a1,1,0,0,0,0,2,1,1,0,1,0,0-2Z"/><path class="cls-7" d="M150.3,152.1a1.3,1.3,0,1,0,1.3-1.3A1.3,1.3,0,0,0,150.3,152.1Z"/><path class="cls-8" d="M151.6,153.7a1.6,1.6,0,0,1-1.6-1.6,1.6,1.6,0,0,1,1.6-1.5,1.5,1.5,0,0,1,1.5,1.5A1.6,1.6,0,0,1,151.6,153.7Zm0-2.6a1,1,0,0,0-1,1,1,1,0,0,0,1,1.1,1.1,1.1,0,0,0,1-1.1A1.1,1.1,0,0,0,151.6,151.1Z"/><path class="cls-7" d="M152,150.2a1.3,1.3,0,1,0,2.6,0,1.3,1.3,0,0,0-2.6,0Z"/><path class="cls-8" d="M153.3,151.8a1.6,1.6,0,0,1-1.6-1.6,1.6,1.6,0,0,1,3.2,0A1.6,1.6,0,0,1,153.3,151.8Zm0-2.6a1,1,0,0,0-1,1,1,1,0,1,0,2,0A1,1,0,0,0,153.3,149.2Z"/><path class="cls-7" d="M153.4,148a1.3,1.3,0,1,0,1.3-1.3A1.3,1.3,0,0,0,153.4,148Z"/><path class="cls-8" d="M154.7,149.6a1.6,1.6,0,0,1,0-3.2,1.6,1.6,0,1,1,0,3.2Zm0-2.6a1,1,0,0,0,0,2,1,1,0,0,0,0-2Z"/><path class="cls-7" d="M154.9,145.9a1.3,1.3,0,0,0,2.6,0,1.3,1.3,0,0,0-2.6,0Z"/><path class="cls-8" d="M156.2,147.4a1.6,1.6,0,0,1-1.6-1.5,1.6,1.6,0,0,1,1.6-1.6,1.6,1.6,0,0,1,1.5,1.6A1.5,1.5,0,0,1,156.2,147.4Zm0-2.6a1,1,0,0,0-1,1.1,1,1,0,0,0,1,1,1.1,1.1,0,0,0,1-1A1.1,1.1,0,0,0,156.2,144.8Z"/><path class="cls-7" d="M156.4,143.6a1.3,1.3,0,1,0,1.3-1.3A1.3,1.3,0,0,0,156.4,143.6Z"/><path class="cls-8" d="M157.7,145.2a1.6,1.6,0,0,1-1.5-1.6,1.5,1.5,0,0,1,1.5-1.5,1.6,1.6,0,0,1,1.6,1.5A1.6,1.6,0,0,1,157.7,145.2Zm0-2.6a1.1,1.1,0,0,0-1,1,1,1,0,0,0,1,1,.9.9,0,0,0,1-1A1,1,0,0,0,157.7,142.6Z"/><circle class="cls-7" cx="158.8" cy="141.3" r="1.3"/><path class="cls-8" d="M158.8,142.9a1.6,1.6,0,0,1-1.6-1.6,1.6,1.6,0,0,1,1.6-1.5,1.5,1.5,0,0,1,1.5,1.5A1.6,1.6,0,0,1,158.8,142.9Zm0-2.6a1.1,1.1,0,0,0-1.1,1,1.1,1.1,0,0,0,1.1,1.1,1.1,1.1,0,0,0,1-1.1A1.1,1.1,0,0,0,158.8,140.3Z"/><path class="cls-7" d="M158.8,137.2a1.2,1.2,0,0,0,1.2,1.3,1.3,1.3,0,1,0,0-2.6A1.2,1.2,0,0,0,158.8,137.2Z"/><path class="cls-8" d="M160,138.8a1.6,1.6,0,0,1-1.5-1.6,1.5,1.5,0,0,1,1.5-1.5,1.6,1.6,0,0,1,1.6,1.5A1.6,1.6,0,0,1,160,138.8Zm0-2.6a1.1,1.1,0,0,0-1,1,1,1,0,0,0,1,1,1,1,0,0,0,1.1-1A1.1,1.1,0,0,0,160,136.2Z"/><circle class="cls-7" cx="159.6" cy="138.9" r="1.3"/><path class="cls-8" d="M159.6,140.5a1.6,1.6,0,0,1,0-3.2,1.6,1.6,0,0,1,0,3.2Zm0-2.6a1,1,0,0,0,0,2,1,1,0,0,0,0-2Z"/><path class="cls-17" d="M152.5,100c1.3-3.4,4.3-9.2,9.8-7.4s-2.1,20.7-10.4,16.1C150.4,106.7,152.5,100,152.5,100Z"/><path class="cls-5" d="M151.5,104.2c-.2,1.8-.3,3.6.4,4.5,3.9,2.1,7.4-.9,9.6-4.9a18,18,0,0,1-4,2.8C154.8,108.4,151.9,106.9,151.5,104.2Z"/><path class="cls-5" d="M161.1,96.6c-2.9-1.4-5.5,2.6-6.3,5.3,2.3-2.6,3,.8,2.5,2.5a3.7,3.7,0,0,0-.1-4.5c.8-1.2,1.9-3.5,3.2-2.7s.6,1.8.4,3.8C161.9,99.4,162.2,97.1,161.1,96.6Z"/><path class="cls-6" d="M154.5,109.6a5.8,5.8,0,0,1-2.8-.7h0c-1.6-2,.4-8.6.5-8.8h0c1.4-3.6,4.5-9.4,10.1-7.5.9.2,1.5,1,1.7,2.3.6,3.7-2.1,11-6.1,13.8A6.2,6.2,0,0,1,154.5,109.6Zm-2.4-1.1a4.9,4.9,0,0,0,5.5-.5c3.8-2.6,6.5-9.6,5.9-13.2-.2-1.1-.6-1.7-1.3-1.9-5.2-1.8-8.2,3.8-9.5,7.2C152.2,101.9,151,106.9,152.1,108.5Z"/><path class="cls-6" d="M154.8,101.9a3.6,3.6,0,0,1,.5-2c1.1-1.9,3.1-4.5,4.8-4.1a2.7,2.7,0,0,1,1.6,1.1,3,3,0,0,1,.2,2.1,3.3,3.3,0,0,1-1,2c.4-1.4.9-2.9.3-3.8a1.4,1.4,0,0,0-1.2-.8C158.3,95.9,155.9,99.5,154.8,101.9Z"/><path class="cls-6" d="M157.3,104.4a3.7,3.7,0,0,0,.2-3.5,2,2,0,0,0-1.6-1.2v-.5a2.6,2.6,0,0,1,2.1,1.4,4.6,4.6,0,0,1,.4,2.1A2.2,2.2,0,0,1,157.3,104.4Z"/><path class="cls-17" d="M99.3,100c-1.3-3.4-4.3-9.2-9.8-7.4s2,20.7,10.4,16.1C101.3,106.7,99.3,100,99.3,100Z"/><path class="cls-5" d="M100.1,103.6c-.2,1.4-.9,3.2-2,3.6-3.8,1.4-6.7-2.1-8.9-5.7,2,5,6.1,9.7,10.7,7.2C100.6,107.7,100.5,105.5,100.1,103.6Z"/><path class="cls-5" d="M90.5,96.4c3-1.4,5.6,2.6,6.4,5.3-2.3-2.5-3,.8-2.6,2.5a3.9,3.9,0,0,1,.2-4.5c-.8-1.2-2-3.5-3.2-2.7s-.6,1.8-.4,3.8C89.8,99.2,89.5,96.9,90.5,96.4Z"/><path class="cls-6" d="M97.3,109.6a6.8,6.8,0,0,1-3.5-1.1c-3.9-2.8-6.6-10.1-6-13.8.2-1.3.8-2.1,1.6-2.3,5.6-1.9,8.8,3.9,10.2,7.5h0c0,.2,2,6.8.5,8.8H100A5.4,5.4,0,0,1,97.3,109.6ZM91.5,92.5a4.6,4.6,0,0,0-1.9.4c-.7.2-1.1.8-1.3,1.9-.6,3.6,2,10.6,5.8,13.2a5,5,0,0,0,5.6.5c1.1-1.6-.1-6.6-.6-8.4S95.5,92.5,91.5,92.5Z"/><path class="cls-6" d="M96.9,101.9c-1.1-2.4-3.5-6-5.1-5.6a2.1,2.1,0,0,0-1.3.9c-.5.9-.1,2.4.4,3.8a3.8,3.8,0,0,1-1.1-2.4,2.5,2.5,0,0,1,.3-1.7,2.4,2.4,0,0,1,1.6-1.1c1.6-.4,3.5,2.1,4.6,3.9A3.8,3.8,0,0,1,96.9,101.9Z"/><path class="cls-6" d="M93.4,102.4a3.7,3.7,0,0,1,.4-1.8,2.5,2.5,0,0,1,2-1.4v.5a2.3,2.3,0,0,0-1.7,1.2,4,4,0,0,0,.2,3.5A2.8,2.8,0,0,1,93.4,102.4Z"/><path class="cls-17" d="M152.1,94.9c-.5-2.3,2.1-18.7.1-22s-26.3-4.7-26.3-4.7-24.4,1.3-26.3,4.7.6,19.7.1,22a16.4,16.4,0,0,0-.4,7.7,10.9,10.9,0,0,0,2.2,9.3s0,10.9.7,13c2,6.6,16.8,12.9,23.7,13.1s21.6-6.5,23.7-13.1c.7-2.1.7-13,.7-13a10.9,10.9,0,0,0,2.2-9.3A17.8,17.8,0,0,0,152.1,94.9Z"/><path class="cls-5" d="M118.4,109.1a2.4,2.4,0,0,0-.1,2.6c1.3,1.3,2.9,1.5,4.3,2s.6,1.2,2.3,1.3c3.9.1,3.4-1,4.3-1.4a11.4,11.4,0,0,0,2.6-.9c2.3-.8,2.3-1.8,1.6-3.6.1.7-.7,2.5-3.2,3.1s-2.7,1.3-4.6,1.3-2.5-.9-4.3-1.4S118.5,111,118.4,109.1Z"/><path class="cls-5" d="M152.1,94.9c-.5-2.3,2.1-18.7.1-22-.6-1.1-1.2-1.7-4.9-2.3,2.9,8.6,3.4,13.4,2.3,20.7-.4,2.4.8,5.5.5,8.5a42.1,42.1,0,0,1-.1,7c0,3.1-4,6.8-4,7.3,2.1,8.8-2.8,15.4-8.5,20.7,5.6-2.5,10.9-6.2,12.1-9.9.7-2.1.7-13,.7-13a10.9,10.9,0,0,0,2.2-9.3A17.8,17.8,0,0,0,152.1,94.9Z"/><path class="cls-6" d="M125.9,138.3c-6.6-.2-21.8-6.5-23.9-13.3-.7-2-.8-11.8-.8-13a11.1,11.1,0,0,1-2.2-9.4,16.6,16.6,0,0,1,.3-7,3.1,3.1,0,0,1,.2-.8,48.8,48.8,0,0,0-.4-6.4c-.5-6-1.1-13.4.2-15.7s25.6-4.7,26.6-4.8,24.5,1.4,26.5,4.8.7,9.7.2,15.7c-.2,3-.5,5.6-.3,6.4h0c.1.3.1.6.2.8a15.4,15.4,0,0,1,.2,7,10.7,10.7,0,0,1-2.2,9.4c0,1.2,0,11-.7,13C147.7,131.8,132.5,138.1,125.9,138.3Zm0-69.8c-6.7.3-24.6,1.9-26.1,4.5s-.6,9.8-.1,15.4c.2,3.2.4,5.7.3,6.5s-.1.6-.2.8a14.6,14.6,0,0,0-.2,6.8h0c-1.1,5.8,2,9.1,2.1,9.2h0c0,.2.1,10.9.8,12.9,1.9,6.3,16.2,12.8,23.4,12.9s21.5-6.6,23.4-12.9c.7-2,.7-12.7.7-12.9h.1a11,11,0,0,0,2.1-9.2h0a16.1,16.1,0,0,0-.2-6.8c-.1-.2-.1-.5-.2-.8a33.6,33.6,0,0,1,.3-6.5c.5-5.6,1.1-13.3-.1-15.4S132.6,68.8,125.9,68.5Z"/><path class="cls-6" d="M99.6,102.7l-.5-.2a5.5,5.5,0,0,1,1.6-2.3A10.6,10.6,0,0,0,99.6,102.7Z"/><path class="cls-6" d="M102.1,112.9a6,6,0,0,1-.8-.8l.4-.3a11.2,11.2,0,0,0,3.1,2.1A7.3,7.3,0,0,1,102.1,112.9Z"/><path class="cls-6" d="M152.2,102.7a10.6,10.6,0,0,0-1.1-2.5,6.6,6.6,0,0,1,1.6,2.3Z"/><path class="cls-6" d="M147,113.9a11.2,11.2,0,0,0,3.1-2.1l.4.3-1,.9A5.4,5.4,0,0,1,147,113.9Z"/><path class="cls-7" d="M155.7,73.6l-29.8-.9-29.8.9s-.5,3.3,1.4,3.9,54.9.7,56.8,0S155.7,73.6,155.7,73.6Z"/><path class="cls-16" d="M155.7,73.6l-11.2.2c-2.2,3.5-20.8,4-27.6,4.2,16,.1,36.2-.1,37.4-.5S155.7,73.6,155.7,73.6Z"/><path class="cls-8" d="M125.9,78.3c-10.1,0-27.4-.1-28.5-.5s-1.6-4.1-1.6-4.2v-.3l30-.9,30,.9v.3c.1.1.6,3.5-1.5,4.2S135.9,78.3,125.9,78.3ZM96.3,73.9c-.1.7-.2,2.9,1.3,3.4s12.7.5,28.3.5,27.5-.2,28.3-.5,1.3-2.7,1.2-3.4l-29.5-1Z"/><path class="cls-18" d="M90.9,54.6a55.9,55.9,0,0,1,7.2,3.8c.2.5.5,6,2.5,7.4-2.9-.4-4.2-1.4-4.9-3.1S90.9,54.6,90.9,54.6Z"/><path class="cls-19" d="M101.6,66.2h-1.1c-2.7-.4-4.3-1.4-5-3.3s-4.8-8-4.8-8.1v-.2l.2-.2H91c.4.1,7,3.4,7.3,4a4.1,4.1,0,0,1,.2,1c.2,1.6.8,5.3,2.2,6.3Zm-10-11.1c1.1,1.7,3.8,6.1,4.4,7.5s1.7,2.4,3.8,2.8c-1.2-1.5-1.6-4.5-1.8-6a8.1,8.1,0,0,1-.2-.9A69.3,69.3,0,0,0,91.6,55.1Z"/><path class="cls-18" d="M160.9,54.6a50,50,0,0,0-7.2,3.8c-.2.5-.6,6-2.5,7.4,2.8-.4,4.2-1.4,4.8-3.1S160.9,54.6,160.9,54.6Z"/><path class="cls-19" d="M150.2,66.2l.8-.6c1.5-1,2-4.7,2.3-6.3a4.1,4.1,0,0,1,.2-1c.2-.6,6.9-3.9,7.3-4h.4v.2c0,.1-4.2,6.4-4.8,8.1s-2.3,2.9-5.1,3.3Zm10-11.1a51.3,51.3,0,0,0-6.3,3.5,3.7,3.7,0,0,1-.1.8c-.2,1.5-.7,4.5-1.8,6a4.6,4.6,0,0,0,3.8-2.8A68.8,68.8,0,0,1,160.2,55.1Z"/><path class="cls-1" d="M155.4,72.7c-3.2.2-57.5-.2-58.5,0,0-9.3,12.8-18.1,29-18.1S155.4,63.4,155.4,72.7Z"/><path class="cls-20" d="M98.8,68.7c2-5.5,11.1-11.8,20.8-12.4C114.8,57.7,102.6,63.8,98.8,68.7Z"/><path class="cls-21" d="M100,66.8c3.2-4.3,9.6-7.9,16.6-9.8C112.8,58.6,103.9,62.5,100,66.8Z"/><path class="cls-20" d="M100,71.1c1.9-5.5,10.6-11.7,20.8-12.4C116,61.3,103.8,66.2,100,71.1Z"/><path class="cls-21" d="M101.1,69.2c3.3-4.3,9.7-7.9,16.7-9.8C114,61,105.1,64.9,101.1,69.2Z"/><path class="cls-20" d="M152.9,68.1c-1.9-5.5-11.1-11.8-20.7-12.4C137,57.1,149.2,63.2,152.9,68.1Z"/><path class="cls-21" d="M151.8,66.2c-3.3-4.3-9.6-7.9-16.7-9.8C138.9,58,147.9,61.9,151.8,66.2Z"/><path class="cls-20" d="M151.8,70.5c-2-5.5-10-11.7-20.8-12.4C137.5,62.5,148,65.6,151.8,70.5Z"/><path class="cls-21" d="M150.6,68.7c-3.2-4.4-9.6-8-16.6-9.9C137.8,60.4,146.7,64.3,150.6,68.7Z"/><path class="cls-4" d="M145.8,73H96.6v-.3c0-9.8,13.7-18.4,29.3-18.4s29.8,8.6,29.8,18.4v.2h-9.9Zm-43.7-.6h53c-.2-9.4-13.8-17.6-29.2-17.6S97.4,63,97.2,72.4Z"/><path class="cls-22" d="M161.4,54c-.4.1-7,6.4-7.1,6.6s-.2,2.6-.3,2.9-1.1,2.3-8,3-8.3-9.8-8.2-10.5,4-7.4,4-8.4c-.6-3.3-13.6-17-15.9-18.4-2.4,1.4-15.4,15.1-16,18.4.1,1,4,7.7,4.1,8.4s-.6,10.8-8.2,10.5-7.9-2.6-8-3-.2-2.7-.3-2.9-6.7-6.5-7.1-6.6a38.5,38.5,0,0,0,.2,4.8l2,3.6,1.8,7.3s9.5,2.1,14.5,1.4,17-.9,17-.9,12,.3,17,.9,14.5-1.4,14.5-1.4l1.7-7.3,2-3.6S161.5,54,161.4,54Z"/><path class="cls-15" d="M125.9,30.4c.2-.2,1.5.8,3.4,1.8a20.4,20.4,0,0,0-3.4-3c-2.4,1.4-15.4,15.1-16,18.4a23.9,23.9,0,0,0,1.9,4c-.3-1.7-1.2-3.7-1-4.1C112.4,44.3,120.7,34.4,125.9,30.4Z"/><path class="cls-15" d="M154.9,63.7c.3-1.4.1-2.8.4-3a60.4,60.4,0,0,0,6.1-6.7h0c-.4.1-7,6.4-7.1,6.6s-.2,2.6-.3,2.9-.8,1.7-5.1,2.6C152.2,65.7,154.6,64.6,154.9,63.7Z"/><path class="cls-8" d="M145.2,71.5h-2.3c-5-.6-16.9-1-17-1s-12.1.4-17,1S94.7,70.1,94.3,70h-.2l-1.7-7.5-2-3.7c-.4-5-.3-5-.1-5.1h.2c.4.2,7.1,6.5,7.2,6.8s.1.4.2,1.3.1,1.5.1,1.6,1.2,2.2,7.8,2.8a6.5,6.5,0,0,0,5.1-2c2.6-2.8,2.8-7.7,2.8-8.2s-.9-1.8-1.6-3.3-2.4-4.5-2.4-5.1h0c.6-3.4,13.5-17.1,16-18.6h.3c2.6,1.5,15.5,15.2,16.1,18.6h0c0,.6-1,2.4-2.4,5.1s-1.6,3.1-1.6,3.3.2,5.4,2.8,8.2a6.2,6.2,0,0,0,5.1,2c6.6-.6,7.6-2.4,7.7-2.8a5.1,5.1,0,0,0,.2-1.6c.1-.9.1-1.2.2-1.3s6.8-6.6,7.1-6.8h.2c.3.1.4.1,0,5.1h0l-2,3.6L157.6,70h-.1A70.7,70.7,0,0,1,145.2,71.5Zm-19.3-1.6c.1,0,12.1.3,17,1s13-1.1,14.3-1.4l1.7-7.2,2-3.6c.1-1.4.2-3.4.2-4.2l-6.6,6.2a6.2,6.2,0,0,1-.1,1.2,4.9,4.9,0,0,1-.2,1.7c-.2.6-1.4,2.5-8.2,3.1a6.6,6.6,0,0,1-5.5-2.2c-2.8-3-3-8-3-8.5s.7-1.5,1.7-3.5a34,34,0,0,0,2.4-4.9c-.7-3.2-13.1-16.3-15.7-18.1-2.6,1.8-15,14.9-15.7,18.1a43.8,43.8,0,0,0,2.3,4.9,15.1,15.1,0,0,1,1.7,3.5c.1.5-.2,5.5-3,8.5a6.4,6.4,0,0,1-5.4,2.2c-6.8-.6-8.1-2.5-8.3-3.1s-.1-.8-.2-1.7a3.8,3.8,0,0,0-.1-1.2c-.4-.4-5.2-5-6.6-6.2,0,.8.2,2.8.3,4.2l2,3.7,1.7,7.1c1.2.3,9.7,2,14.2,1.4S125.8,69.9,125.9,69.9Z"/><path class="cls-7" d="M161.7,58a23.8,23.8,0,0,0-4.3,3.4c-.1.4.2,3.8-.8,5.5s-11.3,3.8-16.4,1.8-6.3-5.9-6.5-8.2,3.1-11.3,3.3-12.4-8.9-12-11.1-14.3c-2.2,2.3-11.2,12.6-11.2,14.3s3.6,10.1,3.4,12.4a9.5,9.5,0,0,1-6.5,8.2c-5.2,2-14.9.9-16.4-1.8s-.7-5.1-.9-5.5A20.8,20.8,0,0,0,90,58c-.2-.1,1.3,4.5,1.9,6.5s2,9.7,4.6,10.5,56.2.8,58.8,0,4.1-8.8,4.6-10.5S162,57.9,161.7,58Z"/><path class="cls-16" d="M143.1,69.5a13.8,13.8,0,0,1-2.9-.8c-5.2-2-6.3-5.9-6.5-8.2s3.1-11.3,3.3-12.4-7.3-9.7-10.7-13.6c3.8,5.5,8.5,10.8,8.8,13.2s-2.3,7.4-2.7,12.3S135.5,69.2,143.1,69.5Z"/><path class="cls-16" d="M161.7,58a23.8,23.8,0,0,0-4.3,3.4c-.1.4.2,3.8-.8,5.5s-2.4,1.8-4.7,2.3c-9.6,7.2-45.1,5.5-55.4,5.8,2.6.8,56.2.8,58.8,0s4.1-8.8,4.6-10.5S162,57.9,161.7,58Z"/><path class="cls-15" d="M119,60.7c.4-4.3-3.7-12.3-3.3-12.9,2.7-4.4,9.2-11.9,10.4-13.8-2.3,1.7-11.4,12.4-11.4,14.1s3.6,10.1,3.4,12.4a9.5,9.5,0,0,1-6.5,8.2,17.3,17.3,0,0,1-5.4,1C114,70.1,118.5,65.9,119,60.7Z"/><path class="cls-15" d="M94.4,61.5a.1.1,0,0,1-.1-.1A20.8,20.8,0,0,0,90,58c-.2-.1,1.3,4.5,1.9,6.5a30.1,30.1,0,0,0,.9,3.6A41.1,41.1,0,0,0,91,59.5Z"/><path class="cls-8" d="M125.9,75.8c-13.7,0-28.1-.2-29.5-.6s-3.9-6.8-4.6-9.7c-.1-.4-.1-.7-.2-1l-.8-2.7c-1.1-3.6-1.1-3.8-1-4h.3a29.6,29.6,0,0,1,4.5,3.6v1c.1,1.1.1,3.3.8,4.5s5,2.7,9.6,2.7a20.2,20.2,0,0,0,6.5-1c3.7-1.5,5.9-4.2,6.3-8,.2-1.6-1.5-6.7-2.5-9.8-.4-1.3-.8-2.2-.8-2.5,0-2.1,9.6-12.9,11.2-14.6h.4c1.6,1.7,11.2,12.5,11.2,14.5l-.8,2.6c-1,3.1-2.7,8.2-2.6,9.8a9.5,9.5,0,0,0,6.4,8,19.1,19.1,0,0,0,6.4,1c4.7,0,8.8-1.2,9.6-2.7s.8-3.4.8-4.5a2.2,2.2,0,0,1,.1-1c.2-.5,4.2-3.5,4.4-3.6h.4c.1.2.1.4-1,4l-.8,2.7-.3,1c-.7,2.9-2.1,9-4.5,9.7S139.6,75.8,125.9,75.8ZM90.4,58.5a16.9,16.9,0,0,0,.9,3.1l.8,2.8a6.2,6.2,0,0,1,.3,1c.6,2.6,2,8.7,4.2,9.3s13.2.6,29.3.6,28.2-.2,29.3-.6,3.6-6.7,4.2-9.3a6.2,6.2,0,0,1,.3-1,25.5,25.5,0,0,1,.8-2.8l.9-3.1a38.5,38.5,0,0,0-3.7,3,1.7,1.7,0,0,0-.1.8c0,1.2,0,3.4-.8,4.7s-5.9,3-10.1,3a18.3,18.3,0,0,1-6.6-1,9.9,9.9,0,0,1-6.7-8.5c-.2-1.7,1.5-6.6,2.6-9.9l.8-2.5c0-1.5-8.1-10.9-10.9-13.9C123,37.2,115,46.6,115,48.1l.8,2.5c1.1,3.3,2.7,8.2,2.5,9.9-.4,4.1-2.7,6.9-6.6,8.5a18.6,18.6,0,0,1-6.7,1c-4.2,0-9-1-10-3s-.9-3.5-.9-4.7v-.8A38.5,38.5,0,0,0,90.4,58.5Z"/><ellipse class="cls-23" cx="125.9" cy="48.4" rx="3.4" ry="4.2"/><path class="cls-24" d="M127.2,44.6a2,2,0,0,0-1.3-.4c-1.9,0-3.4,1.9-3.4,4.2a5.2,5.2,0,0,0,.5,2.3C122.9,47.8,123.8,44.5,127.2,44.6Z"/><path class="cls-25" d="M128,45.1c.6,3.2-.3,7.3-3.1,7.4l1,.2c1.9,0,3.4-1.9,3.4-4.3A4.7,4.7,0,0,0,128,45.1Z"/><path class="cls-26" d="M125.9,52.9c-2,0-3.7-2-3.7-4.5s1.7-4.5,3.7-4.5,3.6,2.1,3.6,4.5S127.9,52.9,125.9,52.9Zm0-8.4c-1.7,0-3.1,1.7-3.1,3.9s1.4,4,3.1,4,3.1-1.8,3.1-4S127.6,44.5,125.9,44.5Z"/><path class="cls-23" d="M127.8,69.3a1.9,1.9,0,0,1-1.9,2,2,2,0,0,1-2-2,1.9,1.9,0,0,1,2-1.9A1.8,1.8,0,0,1,127.8,69.3Z"/><path class="cls-24" d="M126.9,67.6l-1-.2a1.9,1.9,0,0,0-2,1.9,1.7,1.7,0,0,0,.3,1A2.5,2.5,0,0,1,126.9,67.6Z"/><path class="cls-25" d="M127.5,68.3a2.3,2.3,0,0,1-2.9,2.4,1.8,1.8,0,0,0,3.2-1.4A1.4,1.4,0,0,0,127.5,68.3Z"/><path class="cls-26" d="M125.9,71.5a2.2,2.2,0,1,1,2.2-2.2A2.2,2.2,0,0,1,125.9,71.5Zm0-3.9a1.7,1.7,0,0,0,0,3.4,1.7,1.7,0,0,0,0-3.4Z"/><path class="cls-27" d="M119.4,70.7a1.6,1.6,0,1,1-1.6-1.6A1.6,1.6,0,0,1,119.4,70.7Z"/><path class="cls-28" d="M118.6,69.3l-.8-.2a1.6,1.6,0,0,0-1.6,1.6,2.4,2.4,0,0,0,.2.8A2,2,0,0,1,118.6,69.3Z"/><path class="cls-29" d="M119.1,69.9a1.9,1.9,0,0,1-2.3,1.9,1.5,1.5,0,0,0,2.6-1.1A1.3,1.3,0,0,0,119.1,69.9Z"/><path class="cls-30" d="M117.8,72.5a1.8,1.8,0,1,1,1.8-1.8A1.8,1.8,0,0,1,117.8,72.5Zm0-3.2a1.4,1.4,0,0,0-1.4,1.4,1.4,1.4,0,0,0,1.4,1.3,1.3,1.3,0,0,0,1.4-1.3A1.4,1.4,0,0,0,117.8,69.3Z"/><path class="cls-31" d="M112.4,71.5a1.4,1.4,0,0,1-1.4,1.4,1.4,1.4,0,0,1-1.5-1.4A1.5,1.5,0,0,1,111,70,1.5,1.5,0,0,1,112.4,71.5Z"/><path class="cls-32" d="M111.7,70.2,111,70a1.5,1.5,0,0,0-1.5,1.5,1.9,1.9,0,0,0,.2.7A1.8,1.8,0,0,1,111.7,70.2Z"/><path class="cls-33" d="M112.2,70.7a1.8,1.8,0,0,1-2.2,1.8,1.3,1.3,0,0,0,1,.4,1.4,1.4,0,0,0,1.4-1.4A1.2,1.2,0,0,0,112.2,70.7Z"/><path class="cls-34" d="M111,73.1a1.6,1.6,0,0,1-1.7-1.6,1.6,1.6,0,0,1,1.7-1.7,1.6,1.6,0,0,1,1.6,1.7A1.6,1.6,0,0,1,111,73.1Zm0-2.9a1.3,1.3,0,0,0-1.3,1.3,1.2,1.2,0,0,0,1.3,1.2,1.2,1.2,0,0,0,1.2-1.2A1.2,1.2,0,0,0,111,70.2Z"/><circle class="cls-23" cx="104.4" cy="72.1" r="1.4"/><path class="cls-24" d="M105.1,70.9l-.7-.2a1.3,1.3,0,0,0-1.3,1.4,1.9,1.9,0,0,0,.2.7A1.7,1.7,0,0,1,105.1,70.9Z"/><path class="cls-25" d="M105.6,71.4a1.7,1.7,0,0,1-2,1.7,1.3,1.3,0,0,0,.8.3,1.3,1.3,0,0,0,1.4-1.3A1.9,1.9,0,0,0,105.6,71.4Z"/><path class="cls-26" d="M104.4,73.6a1.5,1.5,0,0,1-1.5-1.5,1.5,1.5,0,0,1,1.5-1.5,1.5,1.5,0,0,1,1.6,1.5A1.6,1.6,0,0,1,104.4,73.6Zm0-2.7a1.1,1.1,0,0,0-1.1,1.2,1.2,1.2,0,0,0,1.1,1.2,1.2,1.2,0,0,0,1.2-1.2A1.2,1.2,0,0,0,104.4,70.9Z"/><path class="cls-35" d="M99.8,72.3a1.3,1.3,0,0,1-1.4,1.3,1.3,1.3,0,0,1-1.3-1.3,1.3,1.3,0,0,1,1.3-1.4A1.4,1.4,0,0,1,99.8,72.3Z"/><path class="cls-36" d="M99.1,71.1l-.7-.2a1.3,1.3,0,0,0-1.3,1.4,1.4,1.4,0,0,0,.2.6A1.7,1.7,0,0,1,99.1,71.1Z"/><path class="cls-16" d="M99.6,71.6a1.6,1.6,0,0,1-2,1.6,1,1,0,0,0,.8.4,1.3,1.3,0,0,0,1.4-1.3A1.9,1.9,0,0,0,99.6,71.6Z"/><path class="cls-8" d="M98.4,73.8a1.5,1.5,0,0,1-1.5-1.5,1.6,1.6,0,0,1,1.5-1.6,1.6,1.6,0,0,1,1.6,1.6A1.6,1.6,0,0,1,98.4,73.8Zm0-2.7a1.1,1.1,0,0,0-1.1,1.2,1.1,1.1,0,0,0,1.1,1.1,1.1,1.1,0,0,0,1.2-1.1A1.2,1.2,0,0,0,98.4,71.1Z"/><path class="cls-27" d="M135.5,70.7a1.6,1.6,0,0,1-1.5,1.6,1.6,1.6,0,1,1,0-3.2A1.6,1.6,0,0,1,135.5,70.7Z"/><path class="cls-28" d="M134.7,69.3l-.7-.2a1.6,1.6,0,0,0-1.6,1.6,2.4,2.4,0,0,0,.2.8A2,2,0,0,1,134.7,69.3Z"/><path class="cls-29" d="M135.3,69.9a1.9,1.9,0,0,1-2.3,1.9,1.2,1.2,0,0,0,1,.5,1.6,1.6,0,0,0,1.5-1.6A1.2,1.2,0,0,0,135.3,69.9Z"/><path class="cls-30" d="M134,72.5a1.8,1.8,0,0,1,0-3.6,1.8,1.8,0,0,1,0,3.6Zm0-3.2a1.4,1.4,0,0,0-1.4,1.4A1.3,1.3,0,0,0,134,72a1.3,1.3,0,0,0,1.3-1.3A1.3,1.3,0,0,0,134,69.3Z"/><path class="cls-31" d="M142.3,71.5a1.5,1.5,0,0,1-3,0,1.5,1.5,0,0,1,3,0Z"/><path class="cls-32" d="M141.5,70.2l-.7-.2a1.5,1.5,0,0,0-1.5,1.5,1.9,1.9,0,0,0,.2.7A1.9,1.9,0,0,1,141.5,70.2Z"/><path class="cls-33" d="M142,70.7a1.7,1.7,0,0,1-2.1,1.8,1.1,1.1,0,0,0,.9.4,1.5,1.5,0,0,0,1.5-1.4A1.3,1.3,0,0,0,142,70.7Z"/><path class="cls-34" d="M140.8,73.1a1.6,1.6,0,0,1-1.6-1.6,1.7,1.7,0,0,1,1.6-1.7,1.8,1.8,0,0,1,1.7,1.7A1.7,1.7,0,0,1,140.8,73.1Zm0-2.9a1.3,1.3,0,0,0-1.3,1.3,1.3,1.3,0,0,0,2.6,0A1.3,1.3,0,0,0,140.8,70.2Z"/><path class="cls-23" d="M148.7,72a1.4,1.4,0,0,1-1.4,1.4A1.3,1.3,0,0,1,146,72a1.3,1.3,0,0,1,1.3-1.3A1.3,1.3,0,0,1,148.7,72Z"/><path class="cls-24" d="M148,70.9l-.7-.2A1.3,1.3,0,0,0,146,72a1.5,1.5,0,0,0,.1.7A1.8,1.8,0,0,1,148,70.9Z"/><path class="cls-25" d="M148.4,71.3a1.6,1.6,0,0,1-1.9,1.7.9.9,0,0,0,.8.4,1.4,1.4,0,0,0,1.4-1.4A1.3,1.3,0,0,0,148.4,71.3Z"/><path class="cls-26" d="M147.3,73.6a1.6,1.6,0,0,1-1.5-1.6,1.5,1.5,0,0,1,1.5-1.5,1.6,1.6,0,0,1,1.6,1.5A1.6,1.6,0,0,1,147.3,73.6Zm0-2.7a1.1,1.1,0,0,0-1.1,1.1,1.1,1.1,0,0,0,1.1,1.2,1.2,1.2,0,0,0,1.2-1.2A1.1,1.1,0,0,0,147.3,70.9Z"/><path class="cls-35" d="M154.6,72.3a1.3,1.3,0,0,1-1.3,1.3,1.3,1.3,0,0,1-1.4-1.3,1.4,1.4,0,0,1,1.4-1.4A1.3,1.3,0,0,1,154.6,72.3Z"/><path class="cls-36" d="M153.9,71.1l-.6-.2a1.4,1.4,0,0,0-1.4,1.4,1.4,1.4,0,0,0,.2.6A1.7,1.7,0,0,1,153.9,71.1Z"/><path class="cls-16" d="M154.4,71.6a1.6,1.6,0,0,1-2,1.6,1.1,1.1,0,0,0,.9.4,1.3,1.3,0,0,0,1.3-1.3A1,1,0,0,0,154.4,71.6Z"/><path class="cls-8" d="M153.3,73.8a1.6,1.6,0,0,1-1.6-1.5,1.6,1.6,0,0,1,1.6-1.6,1.6,1.6,0,0,1,1.5,1.6A1.5,1.5,0,0,1,153.3,73.8Zm0-2.7a1.2,1.2,0,0,0-1.2,1.2,1.1,1.1,0,0,0,1.2,1.1,1.1,1.1,0,0,0,1.1-1.1A1.1,1.1,0,0,0,153.3,71.1Z"/><path class="cls-1" d="M101.5,87.3c-.3-3.2,1.2-7.3,6.4-7.2s6.2,10.7,13.3,9.9c-2.1,2.2-6.1.3-8.9-1.9S101.5,87.3,101.5,87.3Z"/><path class="cls-3" d="M118,90.3c-4.9-1.7-9.8-9.9-16.5-4.4a6.5,6.5,0,0,0,0,1.4s6.6-2.5,10.8.8,6.8,4.1,8.9,1.9h-.1A4.7,4.7,0,0,1,118,90.3Z"/><path class="cls-4" d="M118.8,91.3c-2.1,0-4.6-1.4-6.6-3-4.1-3.2-10.6-.8-10.6-.7h-.4v-.4a7.6,7.6,0,0,1,1.8-5.6,6.1,6.1,0,0,1,4.9-1.8c2.4.2,4,2.3,5.5,4.6s4,5.7,7.8,5.3h.7l-.5.5A3.3,3.3,0,0,1,118.8,91.3Zm-12-5.2a8.8,8.8,0,0,1,5.7,1.8c2.5,1.9,5.9,3.6,7.9,2.4-3.6,0-5.6-2.9-7.4-5.5s-2.9-4.2-5.1-4.4a6,6,0,0,0-4.6,1.7,6.9,6.9,0,0,0-1.6,4.9A15.5,15.5,0,0,1,106.8,86.1Z"/><path class="cls-5" d="M103.8,99.1c1.2,1.1,8.4,3.1,12.4.3a6.4,6.4,0,0,0-3.7-6.9c-3.9-1.7-7-.7-8,1.9A11.7,11.7,0,0,0,103.8,99.1Z"/><path d="M103.8,99.3c1.2,1,8.4,2.7,12.4.3a5.6,5.6,0,0,0-3.7-6.1c-3.9-1.4-7-.5-8,1.8A8.5,8.5,0,0,0,103.8,99.3Z"/><path class="cls-12" d="M104.1,99.4c1.1.9,8,2.5,11.9.2a5.3,5.3,0,0,0-3.7-5.6c-3.6-1.3-6.6-.5-7.6,1.6A8.5,8.5,0,0,0,104.1,99.4Z"/><path class="cls-37" d="M104.2,97.4a7.7,7.7,0,0,0-.1,2c1.1.9,8,2.5,11.9.2a2,2,0,0,0,0-.8C113.2,100.2,105.3,100.5,104.2,97.4Z"/><path d="M110.8,101.1c-3.1,0-6.1-.9-6.9-1.5h-.1a8,8,0,0,1,.7-3.9c1.1-2.3,4.3-3,7.9-1.7a5.4,5.4,0,0,1,3.8,5.9h-.1A11.5,11.5,0,0,1,110.8,101.1Zm-6.5-1.9c1.3.9,7.8,2.3,11.4.3a4.9,4.9,0,0,0-3.4-5.2c-3.4-1.2-6.4-.7-7.4,1.4A9.8,9.8,0,0,0,104.3,99.2Z"/><path class="cls-6" d="M104.9,93.6a2.4,2.4,0,0,1,1.2-1.8,6,6,0,0,1,3.5-.7,4.3,4.3,0,0,1,2.5,1.3C109.8,91.1,106.3,91.3,104.9,93.6Z"/><path class="cls-6" d="M124.1,114.6c-2,0-2.6-.6-3.1-1.1l-.2-.2a4.8,4.8,0,0,0-1.2-.5c-1.2-.4-2.8-.9-3.4-2.1a.1.1,0,0,1-.1-.1c-.6-1,.5-2.3.5-2.3a2.6,2.6,0,0,0,0,2.1c.5,1,2.1,1.6,3.2,1.9a4,4,0,0,1,1.3.6l.3.2a3,3,0,0,0,2.6.9c1.8,0,2.3-.5,2.7-.9l.3-.2a4,4,0,0,1,1.3-.6,5.5,5.5,0,0,0,3.3-1.9,3.1,3.1,0,0,0-.1-2.1s1,1.3.5,2.3-2.3,1.8-3.5,2.2a4.8,4.8,0,0,0-1.2.5c0,.1-.1.1-.2.2S126.1,114.6,124.1,114.6Z"/><path class="cls-6" d="M124.1,120.4H124a47.2,47.2,0,0,1-7.8-.5,3,3,0,0,1-2.4-1.5c1.3,1.5,8,1.5,10.2,1.5h.1c2.2,0,8.9,0,10.2-1.5,0,0-.2,1.1-2.1,1.5A50.3,50.3,0,0,1,124.1,120.4Z"/><path class="cls-6" d="M124.1,125.2H124a11.4,11.4,0,0,1-2.7-.2,1.9,1.9,0,0,1-1.3-1.4c.7,1,2.2,1.1,4,1.1h.1c1.8,0,3.3-.1,4-1.1a1.5,1.5,0,0,1-1,1.3,9.6,9.6,0,0,1-3,.3Z"/><path class="cls-1" d="M150.3,87.3c.2-3.2-1.3-7.3-6.5-7.2s-6.2,10.7-13.3,9.9c2.1,2.2,6.2.3,8.9-1.9S150.3,87.3,150.3,87.3Z"/><path class="cls-3" d="M130.5,90c2.1,2.2,6.2.3,8.9-1.9s10.9-.8,10.9-.8v-1C141.6,79.1,136.6,93.1,130.5,90Z"/><path class="cls-4" d="M132.9,91.3a3.3,3.3,0,0,1-2.6-1.1l-.5-.5h.8c3.8.4,5.8-2.5,7.7-5.3s3.1-4.4,5.5-4.6a6.4,6.4,0,0,1,5,1.8,7.1,7.1,0,0,1,1.7,5.6v.4h-.3c-.1-.1-6.6-2.5-10.6.7C137.5,89.9,135,91.3,132.9,91.3Zm-1.6-1c2.1,1.2,5.5-.5,8-2.4s9.3-1.4,10.7-.9a6.5,6.5,0,0,0-1.6-4.9,5.8,5.8,0,0,0-4.6-1.7c-2.1.2-3.5,2.2-5,4.4S134.9,90.3,131.3,90.3Z"/><path class="cls-5" d="M148,99.1c-1.2,1.1-8.4,3.1-12.5.3-.2-1.1,0-5.3,3.8-6.9s6.9-.7,8,1.9A11.7,11.7,0,0,1,148,99.1Z"/><path d="M148,99.3c-1.2,1-8.4,2.7-12.5.3a5.7,5.7,0,0,1,3.8-6c3.9-1.5,6.9-.6,8,1.7A8.6,8.6,0,0,1,148,99.3Z"/><path class="cls-12" d="M147.7,99.4c-1.2.9-8,2.5-11.9.2-.3-.8-.1-4.2,3.6-5.6s6.6-.5,7.7,1.6A8.5,8.5,0,0,1,147.7,99.4Z"/><path class="cls-37" d="M135.7,98.6a2.5,2.5,0,0,0,.1,1c3.9,2.3,10.7.7,11.9-.2V97.9C144.3,100.5,138.1,100.4,135.7,98.6Z"/><path d="M141,101.1a11.2,11.2,0,0,1-5.3-1.2h-.2a5.5,5.5,0,0,1,3.8-5.9c3.7-1.3,6.9-.6,8,1.7a7.4,7.4,0,0,1,.6,3.9h-.1C147.1,100.2,144.1,101.1,141,101.1Zm-5-1.6c3.7,2,10.1.6,11.4-.3a6.6,6.6,0,0,0-.6-3.5c-1-2.1-3.9-2.6-7.3-1.4A5,5,0,0,0,136,99.5Z"/><path class="cls-38" d="M110.2,95c-1,0-1.8,1.1-1.8,2.6s.8,2.6,1.8,2.6,1.9-1.1,1.9-2.6S111.3,95,110.2,95Z"/><path class="cls-39" d="M109.8,98.7a2.2,2.2,0,0,1-1.3-.8c0,1.3.8,2.3,1.7,2.3s1.8-1.1,1.8-2.4A2.3,2.3,0,0,1,109.8,98.7Z"/><path class="cls-40" d="M110.3,100.5h-.1a2.7,2.7,0,0,1-2.1-2.9,3,3,0,0,1,.9-2.3,1.6,1.6,0,0,1,1.2-.6h0c1.2,0,2.2,1.3,2.2,2.9a3.4,3.4,0,0,1-.9,2.3A2,2,0,0,1,110.3,100.5Zm-.1-5.3-.9.4a3.2,3.2,0,0,0-.7,2c0,1.3.7,2.3,1.6,2.3a1.1,1.1,0,0,0,.9-.4,2.4,2.4,0,0,0,.7-1.9c0-1.3-.7-2.4-1.6-2.4Z"/><path d="M110.2,96.3c-.6,0-1,.7-1,1.6s.4,1.6,1,1.6,1.1-.7,1.1-1.6S110.9,96.3,110.2,96.3Z"/><path class="cls-12" d="M110.2,96.3a.7.7,0,0,0-.7.6.6.6,0,1,0,1.2.2A.7.7,0,0,0,110.2,96.3Z"/><path class="cls-12" d="M109.7,98.5a.3.3,0,0,0-.3.3c0,.2.1.3.2.3s.3-.1.3-.2S109.8,98.6,109.7,98.5Z"/><path class="cls-38" d="M141.6,95c1,0,1.8,1.1,1.8,2.6s-.8,2.6-1.8,2.6-1.9-1.1-1.9-2.6S140.5,95,141.6,95Z"/><path class="cls-39" d="M142,98.7a2.2,2.2,0,0,0,1.3-.8c0,1.3-.8,2.3-1.7,2.3s-1.8-1.1-1.8-2.4A2.3,2.3,0,0,0,142,98.7Z"/><path class="cls-40" d="M140.3,99.9a3.4,3.4,0,0,1-.9-2.3c0-1.6,1-2.9,2.2-2.9h0a1.6,1.6,0,0,1,1.2.6,3,3,0,0,1,.9,2.3,2.7,2.7,0,0,1-2.1,2.9h-.1A2,2,0,0,1,140.3,99.9Zm1.3-4.7c-.9,0-1.6,1.1-1.6,2.4a2.4,2.4,0,0,0,.7,1.9,1.1,1.1,0,0,0,.9.4c.9,0,1.6-1,1.6-2.3a3.2,3.2,0,0,0-.7-2l-.9-.4Z"/><path d="M141.6,96.3c.6,0,1,.7,1,1.6s-.4,1.6-1,1.6-1.1-.7-1.1-1.6S141,96.3,141.6,96.3Z"/><path class="cls-12" d="M141.7,96.3a.6.6,0,0,1,.6.6.6.6,0,0,1-1.2.2C141,96.7,141.3,96.4,141.7,96.3Z"/><path class="cls-12" d="M142.1,98.5a.3.3,0,0,1,.3.3c0,.2-.1.3-.2.3s-.3-.1-.3-.2S142,98.6,142.1,98.5Z"/><path class="cls-6" d="M146.9,93.6c-1.4-2.3-4.9-2.5-7.2-1.2a4.1,4.1,0,0,1,2.5-1.3,6.5,6.5,0,0,1,3.9.9A1.9,1.9,0,0,1,146.9,93.6Z"/><path class="cls-1" d="M142,118.9c-1.9-4.8-5.5-5.2-8.1-4s-7.9,1.2-9.8,1.2-7.3.1-9.9-1.2-6.2-.8-8.1,4-2.5,5-6,3.9a8.6,8.6,0,0,0,.3,1.3c2,6.6,16.8,13,23.7,13.2s21.6-6.6,23.6-13.2a8.6,8.6,0,0,0,.3-1.3C144.5,123.9,143.5,122.6,142,118.9Zm-8.5,10.8c-4.8,2.1-8.1-3.6-9.4-4.2s-4.7,6.3-9.5,4.2-4.8-8.3-2.8-10.6,7.3-.5,12.3-1.1,10.4-1.1,12.3,1.1A6.9,6.9,0,0,1,133.5,129.7Z"/><path class="cls-3" d="M142,118.9c-1.5-3.9-4.2-4.9-6.5-4.5,5.3,1.9,4.4,5.5,6.2,8.7a12.1,12.1,0,0,0,2.9,2.1c-5.7,7.9-15.5,11-25,8.9-7.4-1.4-17.1-5.7-19.4-11.3h-.1a8.6,8.6,0,0,0,.3,1.3c2,6.6,16.8,13,23.7,13.2s21.6-6.6,23.6-13.2a8.6,8.6,0,0,0,.3-1.3C144.5,123.9,143.5,122.6,142,118.9Z"/><path class="cls-4" d="M124.1,137.5c-6.6-.2-21.8-6.4-24-13.3a4.1,4.1,0,0,1-.2-1.4v-.4h.4c3.2,1.1,4.2.1,5.7-3.7a7.5,7.5,0,0,1,3.9-4.4,5.9,5.9,0,0,1,4.5.3c2.4,1.2,7.4,1.2,9.5,1.2h.5c2.2,0,7.1,0,9.5-1.2a5.9,5.9,0,0,1,4.5-.3,7.6,7.6,0,0,1,4,4.4c1.5,3.8,2.4,4.8,5.6,3.7h.4v.4a7.8,7.8,0,0,1-.3,1.4C145.9,131.1,130.6,137.3,124.1,137.5Zm-23.7-14.3a5.1,5.1,0,0,1,.2.9c2,6.3,16.3,12.7,23.5,12.9s21.4-6.6,23.4-12.9a6.4,6.4,0,0,0,.2-.9c-3.3.9-4.5-.6-5.9-4.2h0a7.1,7.1,0,0,0-3.6-4.1,5.2,5.2,0,0,0-4.2.3c-2.5,1.2-7.5,1.2-9.7,1.2h-.5c-2.2,0-7.2,0-9.7-1.2a5,5,0,0,0-4.1-.3,6.5,6.5,0,0,0-3.6,4.1C104.9,122.6,103.7,124.1,100.4,123.2Zm31.1,7.2c-2.7,0-4.8-2.1-6.2-3.4a6.6,6.6,0,0,0-1.2-1.2,6.4,6.4,0,0,0-1.3,1.2c-1.7,1.7-4.6,4.6-8.3,3a6.8,6.8,0,0,1-4.2-4.9,7.4,7.4,0,0,1,1.3-6.2c1.2-1.4,3.8-1.3,6.8-1.1a34.9,34.9,0,0,0,5.6,0h.1a34.9,34.9,0,0,0,5.6,0c3-.2,5.6-.3,6.9,1.1a7.7,7.7,0,0,1,1.3,6.2,7.2,7.2,0,0,1-4.3,4.9h0A5.2,5.2,0,0,1,131.5,130.4Zm-15.8-12.2c-1.7,0-3,.2-3.7,1a6.7,6.7,0,0,0-1.2,5.8,6.5,6.5,0,0,0,3.9,4.5c3.4,1.4,6-1.2,7.7-2.9a4.9,4.9,0,0,1,1.6-1.3h.2a4,4,0,0,1,1.5,1.3c1.7,1.7,4.4,4.3,7.7,2.9a6.3,6.3,0,0,0,3.9-4.5,7.1,7.1,0,0,0-1.1-5.8c-1.1-1.2-3.6-1.1-6.5-.9a34.9,34.9,0,0,1-5.6,0,36.2,36.2,0,0,1-5.7,0Z"/></g></svg>