<svg width="200px" height="200px" xmlns="http://www.w3.org/2000/svg" xmlns:xlink="http://www.w3.org/1999/xlink" viewBox="0 0 200 200"><defs><style>.cls-1{mask:url(#mask);filter:url(#luminosity-noclip-6);}.cls-10,.cls-2,.cls-4,.cls-6,.cls-8{mix-blend-mode:multiply;}.cls-2{fill:url(#radial-gradient);}.cls-3{mask:url(#mask-2);filter:url(#luminosity-noclip-7);}.cls-4{fill:url(#linear-gradient);}.cls-5{mask:url(#mask-3);filter:url(#luminosity-noclip-8);}.cls-6{fill:url(#linear-gradient-2);}.cls-7{mask:url(#mask-4);filter:url(#luminosity-noclip-9);}.cls-8{fill:url(#linear-gradient-3);}.cls-9{mask:url(#mask-5);filter:url(#luminosity-noclip-10);}.cls-10{fill:url(#linear-gradient-4);}.cls-11{isolation:isolate;}.cls-12{fill:#f1f2f2;}.cls-13{fill:#eceff0;}.cls-14{fill:#9c9fa0;}.cls-15{fill:url(#linear-gradient-5);}.cls-16{mask:url(#mask-6);}.cls-17,.cls-19{mix-blend-mode:overlay;}.cls-17{fill:url(#radial-gradient-2);}.cls-18{mask:url(#mask-7);}.cls-19{fill:url(#linear-gradient-6);}.cls-20{fill:#090916;}.cls-21{fill:#231f20;}.cls-22{mask:url(#mask-8);}.cls-23{fill:url(#linear-gradient-7);}.cls-24{mask:url(#mask-9);}.cls-25{fill:url(#linear-gradient-8);}.cls-26{mask:url(#mask-10);}.cls-27{fill:url(#linear-gradient-9);}.cls-28{filter:url(#luminosity-noclip-5);}.cls-29{filter:url(#luminosity-noclip-4);}.cls-30{filter:url(#luminosity-noclip-3);}.cls-31{filter:url(#luminosity-noclip-2);}.cls-32{filter:url(#luminosity-noclip);}</style><filter id="luminosity-noclip" x="41.25" y="-8072" width="79.08" height="32766" filterUnits="userSpaceOnUse" color-interpolation-filters="sRGB"><feFlood flood-color="#fff" result="bg"/><feBlend in="SourceGraphic" in2="bg"/></filter><mask id="mask" x="41.25" y="-8072" width="79.08" height="32766" maskUnits="userSpaceOnUse"><g class="cls-32"/></mask><radialGradient id="radial-gradient" cx="80.79" cy="145.82" r="64.11" gradientUnits="userSpaceOnUse"><stop offset="0" stop-color="#fff"/><stop offset="0.08" stop-color="#f6f6f6"/><stop offset="0.23" stop-color="#ddd"/><stop offset="0.4" stop-color="#b4b4b4"/><stop offset="0.61" stop-color="#7b7b7b"/><stop offset="0.85" stop-color="#333"/><stop offset="1"/></radialGradient><filter id="luminosity-noclip-2" x="41.94" y="-8072" width="77.82" height="32766" filterUnits="userSpaceOnUse" color-interpolation-filters="sRGB"><feFlood flood-color="#fff" result="bg"/><feBlend in="SourceGraphic" in2="bg"/></filter><mask id="mask-2" x="41.94" y="-8072" width="77.82" height="32766" maskUnits="userSpaceOnUse"><g class="cls-31"/></mask><linearGradient id="linear-gradient" x1="56.33" y1="68.82" x2="93.82" y2="157.13" gradientUnits="userSpaceOnUse"><stop offset="0" stop-color="#fff"/><stop offset="1"/></linearGradient><filter id="luminosity-noclip-3" x="72.41" y="-8072" width="16.61" height="32766" filterUnits="userSpaceOnUse" color-interpolation-filters="sRGB"><feFlood flood-color="#fff" result="bg"/><feBlend in="SourceGraphic" in2="bg"/></filter><mask id="mask-3" x="72.41" y="-8072" width="16.61" height="32766" maskUnits="userSpaceOnUse"><g class="cls-30"/></mask><linearGradient id="linear-gradient-2" x1="80.83" y1="136.95" x2="80.66" y2="154.53" xlink:href="#linear-gradient"/><filter id="luminosity-noclip-4" x="17.14" y="-8072" width="30.85" height="32766" filterUnits="userSpaceOnUse" color-interpolation-filters="sRGB"><feFlood flood-color="#fff" result="bg"/><feBlend in="SourceGraphic" in2="bg"/></filter><mask id="mask-4" x="17.14" y="-8072" width="30.85" height="32766" maskUnits="userSpaceOnUse"><g class="cls-29"/></mask><linearGradient id="linear-gradient-3" x1="42.65" y1="55.24" x2="26.68" y2="91.9" xlink:href="#linear-gradient"/><filter id="luminosity-noclip-5" x="113.44" y="-8072" width="30.85" height="32766" filterUnits="userSpaceOnUse" color-interpolation-filters="sRGB"><feFlood flood-color="#fff" result="bg"/><feBlend in="SourceGraphic" in2="bg"/></filter><mask id="mask-5" x="113.44" y="-8072" width="30.85" height="32766" maskUnits="userSpaceOnUse"><g class="cls-28"/></mask><linearGradient id="linear-gradient-4" x1="-3922.97" y1="55.24" x2="-3938.94" y2="91.9" gradientTransform="matrix(-1, 0, 0, 1, -3804.19, 0)" xlink:href="#linear-gradient"/><linearGradient id="linear-gradient-5" x1="80.72" y1="99.54" x2="80.72" y2="189.09" gradientUnits="userSpaceOnUse"><stop offset="0" stop-color="#1eccfe"/><stop offset="1" stop-color="#1b43c4"/></linearGradient><filter id="luminosity-noclip-6" x="41.25" y="116.4" width="79.08" height="42.55" filterUnits="userSpaceOnUse" color-interpolation-filters="sRGB"><feFlood flood-color="#fff" result="bg"/><feBlend in="SourceGraphic" in2="bg"/></filter><mask id="mask-6" x="41.25" y="116.4" width="79.08" height="42.55" maskUnits="userSpaceOnUse"><g class="cls-1"><path class="cls-2" d="M115.8,116.9l-1.3-.5c6.3,9.4,1.3,30.5-3,33.9,2.6-3.4.9-9.7.9-9.7-3.2,9.5-8.9,7.1-14.4-.1s-12.4-11.3-17.2-11.3-10.9,3.1-17.2,11.3-11.2,9.6-14.4.1c0,0-1.7,6.3.9,9.7-4.3-3.4-9.3-24.5-3-33.9l-1.3.5c-4.6,5.2-4.7,19.7-4.5,26,.4,10.7,4.5,13.2,9.2,16.1l.6-1a6,6,0,0,1-2.1-2.1,9,9,0,0,0,4.8,1.7c3.2,0,5.3-3,8.2-7.3.7-1.1,1.5-2.3,2.4-3.5,5.9-8.3,11.1-12.4,16.1-12.6,0,.1.2.3.3.4s.3-.3.3-.4c4.9.2,10.2,4.3,16.1,12.6.9,1.2,1.7,2.4,2.4,3.5,2.9,4.3,4.9,7.3,8.2,7.3a8.5,8.5,0,0,0,4.7-1.7,4.9,4.9,0,0,1-2,2.1l.6,1c4.7-2.9,8.8-5.4,9.2-16.1C120.5,136.6,120.4,122.1,115.8,116.9Z"/></g></mask><radialGradient id="radial-gradient-2" cx="80.79" cy="145.82" r="64.11" gradientUnits="userSpaceOnUse"><stop offset="0" stop-color="#231f20"/><stop offset="1" stop-color="#231f20"/></radialGradient><filter id="luminosity-noclip-7" x="41.94" y="108.39" width="77.82" height="21.6" filterUnits="userSpaceOnUse" color-interpolation-filters="sRGB"><feFlood flood-color="#fff" result="bg"/><feBlend in="SourceGraphic" in2="bg"/></filter><mask id="mask-7" x="41.94" y="108.39" width="77.82" height="21.6" maskUnits="userSpaceOnUse"><g class="cls-3"><path class="cls-4" d="M119.8,130c-.7-5.9-2.1-11.8-5.2-14-7.1-5.3-17.5-7.6-33.9-7.6s-26.8,2.3-33.9,7.6c-2.7,1.9-4.1,6.7-4.9,11.9,7.7-11.5,35.9-16.2,55.1-9.8a25.4,25.4,0,0,0-8.8-4.4C94.7,114.3,111.2,116.9,119.8,130Z"/></g></mask><linearGradient id="linear-gradient-6" x1="56.33" y1="68.82" x2="93.82" y2="157.13" gradientUnits="userSpaceOnUse"><stop offset="0" stop-color="#f1f2f2"/><stop offset="1" stop-color="#f1f2f2"/></linearGradient><filter id="luminosity-noclip-8" x="72.41" y="143.88" width="16.61" height="5.14" filterUnits="userSpaceOnUse" color-interpolation-filters="sRGB"><feFlood flood-color="#fff" result="bg"/><feBlend in="SourceGraphic" in2="bg"/></filter><mask id="mask-8" x="72.41" y="143.88" width="16.61" height="5.14" maskUnits="userSpaceOnUse"><g class="cls-5"><path class="cls-6" d="M80.7,143.9c-2.6,0-6,2.1-8.3,4.7.9,1.7,3.9-2.5,5.1-1.2a3.4,3.4,0,0,0,3.2.7s2.1.6,3.3-.7,4.1,2.9,5,1.2C86.7,146,83.3,143.9,80.7,143.9Z"/></g></mask><linearGradient id="linear-gradient-7" x1="80.83" y1="136.95" x2="80.66" y2="154.53" gradientUnits="userSpaceOnUse"><stop offset="0" stop-color="#1b43c4"/><stop offset="1" stop-color="#1eccfe"/></linearGradient><filter id="luminosity-noclip-9" x="17.14" y="71.5" width="30.85" height="14.68" filterUnits="userSpaceOnUse" color-interpolation-filters="sRGB"><feFlood flood-color="#fff" result="bg"/><feBlend in="SourceGraphic" in2="bg"/></filter><mask id="mask-9" x="17.14" y="71.5" width="30.85" height="14.68" maskUnits="userSpaceOnUse"><g class="cls-7"><path class="cls-8" d="M17.1,80.7s9-8.2,23.4-2.3c0,0-3.8,4-4.7,7.8,0,0,3.6-7.9,12.2-10.2C36.3,68.8,21.7,70.1,17.1,80.7Z"/></g></mask><linearGradient id="linear-gradient-8" x1="42.65" y1="55.24" x2="26.68" y2="91.9" xlink:href="#linear-gradient-7"/><filter id="luminosity-noclip-10" x="113.44" y="71.5" width="30.85" height="14.68" filterUnits="userSpaceOnUse" color-interpolation-filters="sRGB"><feFlood flood-color="#fff" result="bg"/><feBlend in="SourceGraphic" in2="bg"/></filter><mask id="mask-10" x="113.44" y="71.5" width="30.85" height="14.68" maskUnits="userSpaceOnUse"><g class="cls-9"><path class="cls-10" d="M144.3,80.7s-9-8.2-23.3-2.3c0,0,3.8,4,4.7,7.8,0,0-3.7-7.9-12.3-10.2C125.2,68.8,139.8,70.1,144.3,80.7Z"/></g></mask><linearGradient id="linear-gradient-9" x1="-3922.97" y1="55.24" x2="-3938.94" y2="91.9" gradientTransform="matrix(-1, 0, 0, 1, -3804.19, 0)" xlink:href="#linear-gradient-7"/></defs><g class="cls-11"><g id="Layer_14" data-name="Layer 14"><path class="cls-12" d="M80.7,184.3c-7.7,0-17-3-25.6-8.2a50.2,50.2,0,0,1-12.5-10.4l.2,6-4.4-3.9c-8.6-7.7-14.1-18-16.3-30.6a81.3,81.3,0,0,1,.2-28.5c-9.9-7.6-13-20.6-10.1-29.3S22.1,66,31.8,66c7.8,0,15.6,3,19.9,6.2a57.1,57.1,0,0,1,8.8-4c7.7-3,14.3-5.6,18.2-16.7l2.1-5.8s6.4,9.5,3.7,18.2A21.5,21.5,0,0,0,88.6,56l1.7-7.2s4,6.9,4.2,10.5l1.8-6.9s4.8,9.1,4,15.2a34.6,34.6,0,0,1,9.6,4.4A36.3,36.3,0,0,1,129,66.1c9.5,0,16.7,4.7,20.1,13.2,1.8,4.3,1.7,9.9-.2,15.6a29.8,29.8,0,0,1-9.7,13.8,86.3,86.3,0,0,1,.2,28.5c-2.3,12.6-7.8,22.9-16.4,30.6l-4.4,3.9.2-6a50.2,50.2,0,0,1-12.5,10.4C97.8,181.3,88.5,184.3,80.7,184.3ZM53.6,163.7a43,43,0,0,0,27.1,11.8,42.8,42.8,0,0,0,27.1-11.8,17,17,0,0,1-10.7-7.5l-.2-.3c-4.2-6.4-10.4-16.1-16.2-16.6s-12,10.2-16.1,16.6l-.3.3A16.8,16.8,0,0,1,53.6,163.7Zm27.1-32.5c6.2,0,12.2,4.4,18.9,13.8l2.4,3.6c2.6,3.8,4.1,6,5.7,6s2.5-.7,4.4-2.2l3.9-2.9a22.1,22.1,0,0,0,1.1-6.7c.4-14.3-1.8-22.6-4.3-24.4-6.5-4.8-16.4-6.9-32.1-6.9s-25.5,2.1-32.1,6.9c-2.4,1.8-4.7,10.1-4.2,24.4a22.6,22.6,0,0,0,1,6.7l4,2.9c1.9,1.5,3.4,2.2,4.4,2.2s3.1-2.2,5.6-6l2.5-3.6C68.6,135.6,74.6,131.2,80.7,131.2Zm0-28.7a101.1,101.1,0,0,1,23,2.5c11.6,2.8,18.4,7.9,19.9,14.9a110.3,110.3,0,0,1,2.6,22.2c.1,1.8.2,3.7.3,5.1,1.8-2.7,4.6-9.8,4.6-21.8,0-17.1-3.5-26.9-12.5-35l1.4-2.1a33.9,33.9,0,0,0-7.9-4.3,19.3,19.3,0,0,0-7-1.3c-3.6,0-7,1.1-10.6,2.2s-8.1,2.5-13,2.5a29.7,29.7,0,0,1-4.2-.3V83.7l-3.5-.2-6-.2a32.8,32.8,0,0,0-13.2,2.3l-2.4-3.8a44.6,44.6,0,0,0-10.7,6.6l1.4,1.9c-9.1,8.6-12.5,18.1-12.5,35.1,0,12.5,3,19.3,4.6,21.4.1-1,.1-2.7.1-4.1a93.2,93.2,0,0,1,2.7-22.8C41.8,103.8,71.7,102.5,80.7,102.5Z"/><path class="cls-13" d="M80.7,178.6a43.9,43.9,0,0,1-13.6-2.9,46.3,46.3,0,0,1-19-13.5l-.7-.9h1.1c6.3-.3,10.5-2.4,13.3-6.7l.2-.4c4.8-7.4,11.3-17.6,18.7-18h.1c7.3.4,13.9,10.6,18.6,18l.3.4c2.7,4.3,6.9,6.4,13.3,6.7h1.1l-.7.9a46.6,46.6,0,0,1-19.1,13.5A42.9,42.9,0,0,1,80.7,178.6Z"/><path class="cls-14" d="M83.6,137.9l-2.9-2.1-2.8,2.3a14.4,14.4,0,0,0-2.2,2.4,6.4,6.4,0,0,1,5-1.9,6.4,6.4,0,0,1,5,1.9A8.1,8.1,0,0,0,83.6,137.9Z"/><path class="cls-14" d="M93.2,162.2c-4.7,1.8-10.1,3-10.6.1s-.7-7.3.3-7.2c3.5.5,5.5-2.5,6.8-1.9,4.3,2,3.9,0,2.9-2.3l-11.9-1h0l-11.8,1c-1.1,2.3-1.5,4.3,2.8,2.3,1.3-.6,3.3,2.4,6.8,1.9,1-.1.6,5.6.3,7.2s-5.9,1.7-10.6-.1c-.7-.2-1.7-.1-1.4,1.1s3,5.5,13.9,6.2h0c11-.7,13.6-4.9,13.9-6.2S94,162,93.2,162.2Z"/><path class="cls-14" d="M80.7,136.7l.8-.4h-.8c-7.4.4-13.9,10.6-18.7,18l-.2.4c-2.8,4.3-7,6.4-13.3,6.7H47.4l.7.9a45.8,45.8,0,0,0,11.6,9.9h.8c-4.3-2.2-2.9-9-2.9-9-.4,3.5,5.3,5.8,5.3,5.8-3.6-9.2-.3-11.3,2-15.1C70.5,144.7,75.7,137.7,80.7,136.7Z"/><path class="cls-15" d="M50.5,159c-4.7-2.9-8.8-5.4-9.2-16.1-.2-6.7-.1-22.8,5.5-26.9,7.1-5.3,17.6-7.6,33.9-7.6s26.8,2.3,33.9,7.6,5.7,20.2,5.5,26.9c-.3,10.7-4.4,13.2-9.2,16.1l-.6-1a5.2,5.2,0,0,0,2.1-2.1,8.7,8.7,0,0,1-4.7,1.7h0c-3.3,0-5.4-3-8.2-7.3l-2.4-3.5c-6-8.5-11.4-12.6-16.4-12.6s-10.3,4.1-16.3,12.6c-.9,1.2-1.7,2.4-2.4,3.5-2.9,4.3-5,7.3-8.2,7.3a9,9,0,0,1-4.8-1.7,6,6,0,0,0,2.1,2.1Z"/><g class="cls-16"><path class="cls-17" d="M115.8,116.9l-1.3-.5c6.3,9.4,1.3,30.5-3,33.9,2.6-3.4.9-9.7.9-9.7-3.2,9.5-8.9,7.1-14.4-.1s-12.4-11.3-17.2-11.3-10.9,3.1-17.2,11.3-11.2,9.6-14.4.1c0,0-1.7,6.3.9,9.7-4.3-3.4-9.3-24.5-3-33.9l-1.3.5c-4.6,5.2-4.7,19.7-4.5,26,.4,10.7,4.5,13.2,9.2,16.1l.6-1a6,6,0,0,1-2.1-2.1,9,9,0,0,0,4.8,1.7c3.2,0,5.3-3,8.2-7.3.7-1.1,1.5-2.3,2.4-3.5,5.9-8.3,11.1-12.4,16.1-12.6,0,.1.2.3.3.4s.3-.3.3-.4c4.9.2,10.2,4.3,16.1,12.6.9,1.2,1.7,2.4,2.4,3.5,2.9,4.3,4.9,7.3,8.2,7.3a8.5,8.5,0,0,0,4.7-1.7,4.9,4.9,0,0,1-2,2.1l.6,1c4.7-2.9,8.8-5.4,9.2-16.1C120.5,136.6,120.4,122.1,115.8,116.9Z"/></g><g class="cls-18"><path class="cls-19" d="M119.8,130c-.7-5.9-2.1-11.8-5.2-14-7.1-5.3-17.5-7.6-33.9-7.6s-26.8,2.3-33.9,7.6c-2.7,1.9-4.1,6.7-4.9,11.9,7.7-11.5,35.9-16.2,55.1-9.8a25.4,25.4,0,0,0-8.8-4.4C94.7,114.3,111.2,116.9,119.8,130Z"/></g><path class="cls-13" d="M125.2,151.9c-2.3,0-2.4-4.3-2.6-11.3s-.2-13.4-1.9-20c-3.7-14.3-34-15-40-15s-36.2.7-39.9,15c-1.7,6.6-1.9,14-2,20s-.2,11.3-2.5,11.3h-.6c-3-1-8.4-10.6-8.4-26.4,0-13.3,1.9-24.4,10.4-34.2a30.6,30.6,0,0,0-6,5.5l-.9-.6A44.1,44.1,0,0,1,52.1,78.5,78,78,0,0,1,64,75.4l.4,1.1s-4.6,2.8-7.9,5.2a39.1,39.1,0,0,1,11.3-1.5l6.1.2,5.3.2c4.2,0,6.9-.5,9.2-1.8l.7.8a21,21,0,0,1-7.8,4.7h.2c4.4,0,8.3-1.2,12.1-2.4s7.4-2.3,11.5-2.3a21.3,21.3,0,0,1,8.1,1.6c3,1.1,13.3,5.6,17.5,15l-1,.5a23.9,23.9,0,0,0-5.8-5.3,38,38,0,0,1,7.5,12.9c1.9,5.7,2.7,12.4,2.7,21.1,0,15.8-5.3,25.4-8.4,26.4Z"/><path class="cls-14" d="M129.6,97.7l.9-1.8c-4.3-9.2-14.3-13.6-17.3-14.7a21.3,21.3,0,0,0-8.1-1.6c-4.1,0-7.9,1.2-11.5,2.3s-7.7,2.4-12.1,2.4h-.2a21,21,0,0,0,7.8-4.7l-.7-.8c-2.3,1.3-5,1.8-9.2,1.8l-5.3-.2-6.1-.2a40.8,40.8,0,0,0-11,1.4l-3.2,1.7s13.7-1.8,22.5-.4C73.6,84,67.5,86,62,85.1c5.5,2.3,14.3,5,31.5.3s23.1,2.5,27.4,11.1c0,0-.9-7.8-5.5-11.8A63.5,63.5,0,0,1,129.6,97.7Z"/><path class="cls-14" d="M74.3,105.2c-15.1,0-35.4,1.4-37.9,16.3-.4,2.5-9.9-12.1,4.7-33A43.4,43.4,0,0,0,34.8,95c-6.1,8.8-7.5,18.8-7.5,30.4,0,15.8,5.4,25.4,8.4,26.4h.6c2.3,0,2.4-4.3,2.5-11.3s.3-13.4,2-20c2.9-11.3,22.3-14.1,33.3-14.8Z"/><path class="cls-14" d="M80.7,136.7l-.8-.4h.9c7.3.4,13.9,10.6,18.6,18l.3.4c2.7,4.3,6.9,6.4,13.3,6.7h1.1l-.7.9a48.1,48.1,0,0,1-11.7,9.9H101c4.2-2.2,2.8-9,2.8-9,.4,3.5-5.3,5.8-5.3,5.8,3.6-9.2.4-11.3-2-15.1C91,144.7,85.7,137.7,80.7,136.7Z"/><path class="cls-14" d="M87.1,105.2c15.1,0,35.4,1.4,37.9,16.3.4,2.5,9.9-12.1-4.7-33a35.4,35.4,0,0,1,6.3,6.5c6.1,8.8,7.5,18.8,7.5,30.4,0,15.8-5.3,25.4-8.4,26.4h-.5c-2.3,0-2.4-4.3-2.6-11.3s-.3-13.4-1.9-20c-3-11.3-22.4-14.1-33.4-14.8Z"/><path class="cls-20" d="M92.9,162.6c-7.7,4.8-10.9,2.4-11.2.4-.6-4.3-.2-8.5.6-8.8,3.4-1.3,4.8-4.1,6.9-2.8s3.9,2.6,3.7,1.2c-.4-5.1-7.3-10.2-12.2-10.2s-11.8,5.1-12.2,10.2c-.1,1.4,1.5.1,3.7-1.2s3.5,1.5,6.9,2.8c.9.3,1.2,4.5.6,8.8-.3,2-3.4,4.4-11.2-.4-2.1-1.3-2.7,1.6,1.2,3.7a22.2,22.2,0,0,0,11,2.5,21.8,21.8,0,0,0,11-2.5C95.7,164.2,95,161.3,92.9,162.6Z"/><polygon class="cls-21" points="60.4 125.8 57.6 128.7 54.8 125.8 54.8 120.1 60.4 120.1 60.4 125.8"/><polygon class="cls-21" points="61.5 132.5 58.6 129.7 61.5 126.9 67.1 126.9 67.1 132.5 61.5 132.5"/><polygon class="cls-21" points="54.8 133.6 57.6 130.8 60.4 133.6 60.4 139.3 54.8 139.3 54.8 133.6"/><polygon class="cls-21" points="53.7 126.9 56.5 129.7 53.7 132.5 48 132.5 48 126.9 53.7 126.9"/><path class="cls-21" d="M113.1,129.7a3.1,3.1,0,0,1-3.1,3.1,3,3,0,0,1-3-3.1,2.9,2.9,0,0,1,3-3A3,3,0,0,1,113.1,129.7Z"/><path class="cls-21" d="M103.9,120.5a3,3,0,0,1,3,3.1,2.9,2.9,0,0,1-3,3,3,3,0,0,1-3.1-3A3.1,3.1,0,0,1,103.9,120.5Z"/><path class="cls-21" d="M94.7,129.7a2.9,2.9,0,0,1,3-3,3,3,0,0,1,3.1,3,3.1,3.1,0,0,1-3.1,3.1A3,3,0,0,1,94.7,129.7Z"/><circle class="cls-21" cx="103.9" cy="135.9" r="3.1"/><rect class="cls-21" x="71.8" y="125.9" width="4.9" height="2.8"/><rect class="cls-21" x="84.7" y="125.9" width="4.9" height="2.8"/><path class="cls-20" d="M146.8,80.2c-7.5-18.2-30.5-10.9-36.9-4.9-3.9-4-12.3-5.8-12.3-5.8a18.6,18.6,0,0,0-.9-8.9s-1.5,5.8-5.7,8.2c0,0,2.8-6.3,0-12.3,0,0-2.3,10.2-11.3,14.3.1-.2,5.1-10.5,1.4-18.5-6.2,17.6-19.5,16.1-29.5,23-6.5-6-30.7-13.6-37,4.9C12,88,14.9,100.7,25,107.6c-3.2,16.4-3.1,42,15.1,58.3l-.3-9.5c5,13,25.8,25.4,40.9,25.4s36-12.4,41-25.4l-.3,9.5c18.1-16.3,18.2-41.9,15-58.3C146.5,100.7,149.8,87.5,146.8,80.2ZM80.7,178.1c-4.4,0-20.5-2.3-32.2-16.3,5.1-.2,10.3-1.7,13.7-6.9,4.8-7.5,11.3-17.7,18.5-18.2s13.7,10.7,18.5,18.2c3.4,5.2,8.6,6.7,13.7,6.9C101.3,175.8,85.1,178.1,80.7,178.1Zm38.9-35.2c-.4,10.3-4.1,12.7-9,15.6a6.5,6.5,0,0,0,3-4.1c-8.3,6.2-9.9.7-16.1-7.9s-11-12.8-16.8-12.8-11.3,5.1-16.8,12.8-7.8,14.1-16,7.9a6.1,6.1,0,0,0,2.9,4.1c-4.8-2.9-8.6-5.3-8.9-15.6-.4-12.1,1-23.4,5.2-26.5,6.8-5,16.8-7.5,33.6-7.5s26.9,2.5,33.6,7.5C118.5,119.5,120,130.8,119.6,142.9Zm6.7,8c-4.1,1.3-1-12-5.1-30.4C118,106.3,89.7,105,80.7,105s-37,1.4-40.5,15.5c-4.9,20-.4,28.5-4.8,29.4-2.6.5-7.5-8.4-7.5-24.5s2.8-27.1,13.2-36.9c-.2.1-6.3,3.2-9.8,7.9.2-.4,6.3-11.5,21-17.3A65.8,65.8,0,0,1,64.1,76s-7.8,4.7-10.5,7.3c13.6-5.6,26.7.7,35.1-4.1a20.2,20.2,0,0,1-11,5.4c13.8,2.1,21.5-8.1,35.3-2.9,5.3,2,13.6,6.7,17.2,14.7-3.6-4.7-9.7-7.8-9.9-7.9,10.4,9.4,13.3,20.9,13.3,36.9S128.8,150,126.3,150.9Z"/><g class="cls-22"><path class="cls-23" d="M80.7,143.9c-2.6,0-6,2.1-8.3,4.7.9,1.7,3.9-2.5,5.1-1.2a3.4,3.4,0,0,0,3.2.7s2.1.6,3.3-.7,4.1,2.9,5,1.2C86.7,146,83.3,143.9,80.7,143.9Z"/></g><g class="cls-24"><path class="cls-25" d="M17.1,80.7s9-8.2,23.4-2.3c0,0-3.8,4-4.7,7.8,0,0,3.6-7.9,12.2-10.2C36.3,68.8,21.7,70.1,17.1,80.7Z"/></g><g class="cls-26"><path class="cls-27" d="M144.3,80.7s-9-8.2-23.3-2.3c0,0,3.8,4,4.7,7.8,0,0-3.7-7.9-12.3-10.2C125.2,68.8,139.8,70.1,144.3,80.7Z"/></g></g></g></svg>