<svg xmlns="http://www.w3.org/2000/svg" viewBox="0 0 200 200"><defs><style>.cls-1{isolation:isolate;}.cls-11,.cls-2{fill:#fccbaa;}.cls-16,.cls-3{fill:#3b2314;}.cls-11,.cls-4,.cls-6,.cls-8{mix-blend-mode:multiply;}.cls-5,.cls-8{fill:#f27f93;}.cls-6,.cls-8{opacity:0.2;}.cls-24,.cls-7,.cls-9{fill:#fff;}.cls-15,.cls-7{opacity:0.3;}.cls-10{fill:#d0d2d3;}.cls-12,.cls-13,.cls-25,.cls-26{fill:none;}.cls-12,.cls-13,.cls-16,.cls-17,.cls-25,.cls-26{stroke:#3b2314;}.cls-12,.cls-13,.cls-16,.cls-17{stroke-linecap:round;stroke-miterlimit:10;}.cls-12{stroke-width:0.88px;}.cls-13{stroke-width:0.842px;}.cls-14{fill:#cd383a;}.cls-16,.cls-17{stroke-width:1.238px;}.cls-17{fill:#f8a576;}.cls-18{fill:#faaf40;}.cls-19{fill:#00a69c;}.cls-20{fill:#8bc53f;}.cls-21{fill:#929497;}.cls-22{fill:#26a9e0;}.cls-23{fill:#ffc609;}.cls-24{opacity:0.6;}.cls-25,.cls-26{stroke-linecap:square;stroke-linejoin:round;}.cls-25{stroke-width:0.515px;}.cls-26{stroke-width:0.453px;}.cls-27{fill:#5661ab;}</style></defs><g class="cls-1"><g id="Layer_3" data-name="Layer 3"><path class="cls-2" d="M135.494,173.5c-4.738,0-13.676-3.83-16.615-5.088-.4-.174-.669-.29-.767-.325l.023-.061c-2.124-.7-10.109-5.027-10.2-5.076-7.133-3.974-11.742-7.428-13.7-10.265-2.162-3.132-2.543-7.73-1.062-12.658-1.526-3.884-3.53-15.4-3.74-18.446-.819-11.76-1.054-25.018,6.562-33.49,4.982-5.542,12.6-8.427,23.271-8.821.429-.016.851-.023,1.269-.023,17.828,0,29.213,14.364,32.942,41.548,4.67,2.986,7.5,6.987,7.777,11.03.562,8.105-8.6,26.065-8.994,26.825-2.85,9.24-8.327,14.283-16.215,14.831C135.872,173.493,135.687,173.5,135.494,173.5Z"/><path class="cls-3" d="M120.538,80.223c23.178,0,29.845,24.713,32.037,41.156,4.17,2.56,7.419,6.336,7.709,10.514.55,7.926-8.887,26.312-8.887,26.312-2.471,7.965-7.168,13.729-15.415,14.3-.158.012-.32.017-.489.017-5.383,0-16.9-5.366-17.091-5.366h0s-18.846-8.487-23.357-15.027c-2.229-3.229-2.209-7.8-.829-12.153-1.471-3.331-3.586-15.317-3.8-18.464-1.306-18.767-1.1-40.162,28.895-41.268q.624-.022,1.231-.023m0-1.953c-.427,0-.862.008-1.3.024-10.956.4-18.793,3.4-23.963,9.144-7.87,8.756-7.642,22.251-6.808,34.212.212,3.085,2.118,14.111,3.685,18.415-1.458,5.095-1,9.865,1.287,13.176,4.766,6.908,23.373,15.342,24.161,15.7l1,.449.033-.021c3.111,1.332,12,5.109,16.864,5.109.217,0,.424-.007.624-.02,8.285-.577,14.035-5.794,17.1-15.511.979-1.928,9.581-19.119,9.021-27.187-.3-4.243-3.138-8.408-7.845-11.538-3.868-27.451-15.561-41.95-33.85-41.95Z"/><g class="cls-4"><path class="cls-2" d="M148.591,122.04a55.952,55.952,0,0,1,6.815,1.394,21.959,21.959,0,0,0-2.831-2.055c-.146-1.1-.288-2.25-.434-3.427A11.894,11.894,0,0,1,148.591,122.04Z"/></g><g class="cls-4"><path class="cls-2" d="M129.119,155.841a4.281,4.281,0,0,0-3.646.537,3.278,3.278,0,0,0-1.161,1.639c-.224.866-.728,1.75-.105,2.558,3.033,4.012,6.679,7.448,8.684,11.655a12.442,12.442,0,0,0,3.091.277,15.285,15.285,0,0,0,7.455-2.414C140.09,163.917,136.454,157.113,129.119,155.841Z"/></g><g class="cls-4"><path class="cls-2" d="M105.551,136.79c-2.095-5.663-5.164-11.118-6.281-16.991a110.719,110.719,0,0,1-2.065-31.114c-7.822,8.125-7.63,20.816-6.793,32.829.217,3.147,2.332,15.133,3.8,18.464-1.38,4.349-1.4,8.924.829,12.153,2.025,2.935,6.934,6.262,11.735,9.038C104.818,158.124,91.408,142.126,105.551,136.79Z"/></g><path class="cls-5" d="M135.42,163.913c-17.822,0-33.088-15.483-33.088-19.112a1.163,1.163,0,0,1,1.215-1.217,2.733,2.733,0,0,1,1.074.272c8.969,3.934,16.912,5.929,23.607,5.929h0c15.313,0,20.578-10.293,23.108-15.24.988-1.931,1.483-2.9,2.406-2.9h.168l.273.093c1.251.546,1.6,2.443,1.067,5.8-1.345,8.48-8.478,25.424-16.75,26.227-1.016.1-2.052.148-3.076.148Z"/><path class="cls-3" d="M153.743,132.449a.3.3,0,0,1,.118.026c3.659,1.6-5.449,29.52-15.438,30.489-1.013.1-2.012.145-3,.145-19.814,0-35.007-18.723-31.873-18.721a2.017,2.017,0,0,1,.751.2c9.88,4.334,17.7,6,23.931,6,20.558,0,23.653-18.141,25.514-18.141m0-1.608c-1.413,0-2.056,1.256-3.12,3.338-2.459,4.805-7.573,14.8-22.394,14.8-6.584,0-14.419-1.973-23.285-5.862a3.5,3.5,0,0,0-1.395-.341h0a1.978,1.978,0,0,0-1.746.972c-.625,1.081-.04,2.344.454,3.2,2.628,4.554,15.892,17.766,33.167,17.766,1.054,0,2.116-.051,3.158-.152,4.987-.484,9.069-6.084,11.616-10.7a54.659,54.659,0,0,0,5.851-16.2c.383-2.406.64-5.713-1.541-6.664a1.882,1.882,0,0,0-.761-.16Z"/><path class="cls-5" d="M147.073,183.953c-3.027,0-5.328-1.17-6.476-3.293a36.5,36.5,0,0,1-2.905-6.686l-.521-1.444a24.126,24.126,0,0,0-2.951-6.016,12.841,12.841,0,0,0-1.962-2.091c-.429-.384-.873-.709-1.253-.987-.709-.522-1.138-.837-1.271-1.286a2.428,2.428,0,0,1,.164-2.016c.689-1.237,2.342-1.836,3.6-2.121a14.333,14.333,0,0,1,3.121-.346h.141c.442-1.059,1.844-1.588,4.181-1.588a24.017,24.017,0,0,1,2.443.142c3.868.975,6.448,7.4,7.15,9.351a21.691,21.691,0,0,0,2.514,5.213l.5.913c2.03,3.706,3.948,7.206.642,9.915A11.855,11.855,0,0,1,147.073,183.953Z"/><path class="cls-3" d="M140.945,156.883a23.087,23.087,0,0,1,2.36.138c3.281.834,5.73,6.753,6.476,8.823a22.387,22.387,0,0,0,2.585,5.36c2.251,4.157,4.322,7.324,1.316,9.788a11,11,0,0,1-6.609,2.156c-2.389,0-4.66-.82-5.768-2.87a45.706,45.706,0,0,1-3.38-8.026,24.571,24.571,0,0,0-3.059-6.216,14.058,14.058,0,0,0-2.1-2.234c-.979-.875-2.166-1.545-2.265-1.881-.59-1.716,1.3-2.7,3.175-3.123a13.481,13.481,0,0,1,2.943-.327,2.819,2.819,0,0,1,.779.052c.093-.079-.484-1.64,3.543-1.64m0-1.608h0c-2.711,0-4.05.707-4.668,1.592a15,15,0,0,0-2.963.365c-1.411.317-3.283,1.014-4.119,2.51a3.241,3.241,0,0,0-.212,2.7c.189.642.729,1.039,1.546,1.64.377.275.8.588,1.169.918a12.3,12.3,0,0,1,1.889,2.008,23.407,23.407,0,0,1,2.829,5.8c.175.479.348.96.519,1.439a37.278,37.278,0,0,0,3,6.872c1.236,2.287,3.854,3.641,7.142,3.641a12.524,12.524,0,0,0,7.628-2.521c3.823-3.133,1.654-7.094-.444-10.924l-.475-.873A21.076,21.076,0,0,1,151.3,165.3c-.945-2.619-3.573-8.817-7.595-9.839a1.618,1.618,0,0,0-.231-.041,24.717,24.717,0,0,0-2.525-.146Z"/><g class="cls-6"><path class="cls-5" d="M153.175,172.85a6.456,6.456,0,0,1-1.692,4.879,10.576,10.576,0,0,1-10.361,2.395c.033.054.062.109.095.16,2.25,4.155,9.273,3.26,12.379.713C156.191,178.867,155,176.214,153.175,172.85Z"/></g><path class="cls-3" d="M137.312,158.53a2.857,2.857,0,0,1,.574.205,8.185,8.185,0,0,1,1.408.812,10.057,10.057,0,0,1,1.674,1.569,11.216,11.216,0,0,1,.819,1c.233.372.47.751.706,1.131a12.692,12.692,0,0,1,1.1,2.369,9.086,9.086,0,0,1,.625,2.176c.242,1.308.314,2.18.314,2.18s-.452-.779-1-1.948c-.136-.293-.278-.609-.414-.948-.172-.324-.355-.664-.542-1.017a22.957,22.957,0,0,0-1.168-2.179A18.348,18.348,0,0,0,140.1,161.8c-.236-.313-.411-.662-.656-.924s-.441-.547-.637-.8a15.171,15.171,0,0,0-1.051-1.134C137.488,158.675,137.312,158.53,137.312,158.53Z"/><path class="cls-7" d="M143.582,157.513c-.861-.357-4.42.388-3.022,1.841s4.385,4.139,4.922,6.248,3.106,2.79,2.582-.421S144.906,158.064,143.582,157.513Z"/><path class="cls-8" d="M137.382,158.5a16.088,16.088,0,0,0,2.7,5.414c1.873,2.242,4.37,5.779,4.37,5.779S142.059,161.747,137.382,158.5Z"/><path class="cls-9" d="M126.966,155.147a3.964,3.964,0,0,1-2.833-1.046,3.244,3.244,0,0,1-2.09.676,5.083,5.083,0,0,1-.746-.057,4.257,4.257,0,0,1-2.767-1.476,3.114,3.114,0,0,1-1.545.348,9.435,9.435,0,0,1-1.244-.1c-2.221-.3-3.53-.866-4.243-1.827-.845-1.137-.615-2.586-.411-3.864l.057-.3a.862.862,0,0,1,.384-.56.914.914,0,0,1,.456-.132.643.643,0,0,1,.2.031,51.764,51.764,0,0,0,15.417,2.647c11.526,0,17.442-5.445,19.945-8.69a.8.8,0,0,1,.6-.312h.04a.808.808,0,0,1,.585.252,4.457,4.457,0,0,1,1.347,3.526,4.917,4.917,0,0,1-1.722,3.168c-.222.161-.45.36-.679.557a3.755,3.755,0,0,1-2.073,1.166,4.636,4.636,0,0,1-4.062,2.784h0a2.9,2.9,0,0,1-1.117-.216,3.96,3.96,0,0,1-2.415,1.812,4.506,4.506,0,0,1-1.3.2,3.173,3.173,0,0,1-1.6-.407,3.731,3.731,0,0,1-2.583,1.423,4.913,4.913,0,0,1-.711.053,3.542,3.542,0,0,1-2.166-.684,3.631,3.631,0,0,1-2.705,1.031Z"/><path class="cls-3" d="M148.182,141.283a3.667,3.667,0,0,1-.254,5.486c-.812.583-1.644,1.577-2.371,1.577a.769.769,0,0,1-.507-.193,3.266,3.266,0,0,1-2.037,2.617,3.442,3.442,0,0,1-1.435.358,2.032,2.032,0,0,1-1.516-.643,2.97,2.97,0,0,1-2.246,2.272,3.691,3.691,0,0,1-1.069.17,2.258,2.258,0,0,1-1.862-.885,2.728,2.728,0,0,1-2.437,1.909,4.21,4.21,0,0,1-.6.045,2.568,2.568,0,0,1-2.282-1.176,2.543,2.543,0,0,1-2.589,1.523h-.009a2.98,2.98,0,0,1-2.809-1.535,2.21,2.21,0,0,1-2.12,1.165,4.126,4.126,0,0,1-.626-.049,3.274,3.274,0,0,1-2.7-1.925,1.876,1.876,0,0,1-1.73.788,8.6,8.6,0,0,1-1.137-.1c-4.516-.615-4.36-2.3-3.967-4.768.017-.106.04-.215.061-.322a52.2,52.2,0,0,0,15.659,2.686c10.6,0,17.069-4.447,20.581-9m0-1.608H148.1a1.615,1.615,0,0,0-1.194.625c-2.411,3.129-8.125,8.377-19.306,8.377a50.918,50.918,0,0,1-15.173-2.611,1.652,1.652,0,0,0-.486-.074,1.607,1.607,0,0,0-1.576,1.29c-.034.167-.056.281-.074.394-.217,1.358-.486,3.055.56,4.464.853,1.149,2.328,1.81,4.779,2.144a10.289,10.289,0,0,0,1.354.111,4.371,4.371,0,0,0,1.346-.195,5.269,5.269,0,0,0,2.852,1.315,5.914,5.914,0,0,0,.86.065,4.248,4.248,0,0,0,2.038-.487,4.979,4.979,0,0,0,2.884.857,4.67,4.67,0,0,0,2.8-.832,4.491,4.491,0,0,0,2.085.486,5.763,5.763,0,0,0,.83-.063,4.736,4.736,0,0,0,2.675-1.243,4.087,4.087,0,0,0,1.39.237,5.359,5.359,0,0,0,1.533-.238,4.959,4.959,0,0,0,2.511-1.641,3.912,3.912,0,0,0,.787.08,4.994,4.994,0,0,0,2.118-.511,5.165,5.165,0,0,0,2.506-2.355,5.323,5.323,0,0,0,2.038-1.28c.209-.181.418-.365.626-.515a5.726,5.726,0,0,0,2.049-3.74,5.2,5.2,0,0,0-1.563-4.157,1.608,1.608,0,0,0-1.17-.5Z"/><path class="cls-10" d="M119.039,151.44c-.711-.529-1.262.376-1.782,1.337a1.757,1.757,0,0,0,1.458-.778,2.93,2.93,0,0,0,.685,1C119.323,152.315,119.388,151.666,119.039,151.44Z"/><path class="cls-10" d="M124.313,151.924c-1.047-.209-.954.748-.918,1.716a2.042,2.042,0,0,0,.768-.832,2.7,2.7,0,0,0,1.025,1.09C124.893,153,124.834,151.991,124.313,151.924Z"/><path class="cls-10" d="M130.024,152.518c-.908-.1-1.15.556-1.283,1.352a2.218,2.218,0,0,0,.829-1.05,2.454,2.454,0,0,0,1.13.959C130.51,153.182,130.44,152.572,130.024,152.518Z"/><path class="cls-10" d="M134.507,151.782a1.92,1.92,0,0,0-.429,1.5,2.456,2.456,0,0,0,.807-1.243,2.21,2.21,0,0,0,1.211.8C135.582,152,135.2,151.081,134.507,151.782Z"/><path class="cls-10" d="M139.332,151.887a2.694,2.694,0,0,0,.73-1.4,2.147,2.147,0,0,0,2.139.57,3.507,3.507,0,0,0-1.859-.953C139.2,149.991,139.265,150.942,139.332,151.887Z"/><path class="cls-10" d="M144,147.722a2.407,2.407,0,0,0,.122,2.3,2.983,2.983,0,0,0,.927-1.868.969.969,0,0,0,1.221-.058C145.592,147.523,144.35,147.179,144,147.722Z"/><path class="cls-10" d="M113.465,148.061c-.5-.146-1.007-.3-1.523-.46-.021.107-.044.216-.061.322-.341,2.123-.5,3.666,2.34,4.448A9.629,9.629,0,0,1,113.465,148.061Z"/><path class="cls-11" d="M120.6,138.579s2.349,8.339,10.855,6.8,10.344-2.429,10.549-10.185S120.6,138.579,120.6,138.579Z"/><path class="cls-9" d="M116.632,137.218c-5.064,0-10.15-4.24-12.366-10.31-2.734-7.487-.286-15.287,5.459-17.385a8.758,8.758,0,0,1,3.01-.529c5.064,0,10.15,4.239,12.365,10.31a16.86,16.86,0,0,1,.494,10.618,9.93,9.93,0,0,1-5.952,6.767,8.734,8.734,0,0,1-3.01.529Z"/><path class="cls-3" d="M112.736,109.764c4.647,0,9.481,3.885,11.642,9.8,2.6,7.1.353,14.446-5,16.4a7.984,7.984,0,0,1-2.744.481c-4.65,0-9.484-3.884-11.645-9.8-2.594-7.1-.353-14.443,5-16.4a7.974,7.974,0,0,1,2.747-.482m0-1.539a9.5,9.5,0,0,0-3.274.575c-6.145,2.244-8.8,10.485-5.918,18.372,2.325,6.368,7.707,10.815,13.09,10.815a9.509,9.509,0,0,0,3.271-.574,10.691,10.691,0,0,0,6.427-7.266,17.655,17.655,0,0,0-.509-11.108c-2.325-6.366-7.708-10.814-13.087-10.814Z"/><path class="cls-10" d="M105.978,113.425a15.744,15.744,0,0,0,.109,11.168c2.594,7.1,9.035,11.276,14.392,9.321a8.354,8.354,0,0,0,4.012-3.179,8.923,8.923,0,0,1-5.113,5.232c-5.352,1.955-11.8-2.219-14.389-9.323C103.194,121.732,103.714,116.7,105.978,113.425Z"/><path class="cls-12" d="M115.06,123.85c-.173-.47-.469-.184-.763-.254-.117.042-.3.286-.24.443a2.2,2.2,0,0,0,1.745,1.848c.295.07.706.1.885-.146a3.054,3.054,0,0,0,.673-2.554c-.448-1.965-2.022-3.344-3.555-3.14a3.21,3.21,0,0,0-1.838,1.2c-.832,1.015-.732,2.754-.218,4.164a5.47,5.47,0,0,0,.8,1.837,6.2,6.2,0,0,0,1.281,1.307,3.953,3.953,0,0,0,4.055.474,5.415,5.415,0,0,0,2.284-4.741,9.5,9.5,0,0,0-.79-3.262c-1.726-3.631-5.3-5.345-7.96-3.841A7.625,7.625,0,0,0,110,118.419a6.468,6.468,0,0,0-1.206,2.926,10.424,10.424,0,0,0,.935,6.227,9.248,9.248,0,0,0,5.124,4.876c3.757,1.115,7.01-.96,7.822-5.341a15.377,15.377,0,0,0-.183-4.9,21.319,21.319,0,0,0-.974-2.664,13.9,13.9,0,0,0-1.853-2.875,10.247,10.247,0,0,0-3.032-2.443c-5.207-2.893-10.426,1.142-10.608,7.6"/><path class="cls-9" d="M140.257,129.436c-4.905,0-9.762-4.14-11.811-10.067-2.49-7.212-.018-14.633,5.511-16.543a8.357,8.357,0,0,1,2.737-.456c4.906,0,9.763,4.139,11.811,10.067a16.171,16.171,0,0,1,.3,10.166A9.508,9.508,0,0,1,143,128.979a8.364,8.364,0,0,1-2.738.457Z"/><path class="cls-3" d="M136.694,103.106c4.491,0,9.126,3.816,11.115,9.572,2.363,6.837.1,13.825-5.054,15.6a7.615,7.615,0,0,1-2.5.417c-4.49,0-9.125-3.816-11.114-9.571-2.361-6.838-.1-13.826,5.055-15.607a7.633,7.633,0,0,1,2.5-.416m0-1.472a9.066,9.066,0,0,0-2.978.5c-5.913,2.042-8.587,9.883-5.966,17.478,2.15,6.22,7.292,10.564,12.506,10.564a9.086,9.086,0,0,0,2.979-.5,10.221,10.221,0,0,0,6.266-6.845,16.907,16.907,0,0,0-.3-10.633c-2.151-6.22-7.292-10.563-12.507-10.563Z"/><path class="cls-10" d="M130.306,106.5a15.078,15.078,0,0,0-.078,10.685c2.363,6.838,8.458,10.937,13.61,9.155a8,8,0,0,0,3.9-2.975,8.533,8.533,0,0,1-4.978,4.92c-5.154,1.782-11.25-2.317-13.613-9.154C127.508,114.4,128.088,109.6,130.306,106.5Z"/><path class="cls-13" d="M138.824,116.622c-.156-.453-.446-.184-.726-.256-.113.039-.288.267-.237.418a2.1,2.1,0,0,0,1.639,1.8c.28.073.673.106.848-.123a2.931,2.931,0,0,0,.686-2.433c-.4-1.888-1.88-3.232-3.347-3.063a3.066,3.066,0,0,0-1.778,1.121c-.814.957-.748,2.621-.28,3.979a5.172,5.172,0,0,0,.74,1.771,5.813,5.813,0,0,0,1.2,1.271,3.776,3.776,0,0,0,3.872.521,5.181,5.181,0,0,0,2.264-4.5,9.178,9.178,0,0,0-.7-3.135c-1.59-3.5-4.981-5.2-7.551-3.806a7.232,7.232,0,0,0-1.384,1.153,6.171,6.171,0,0,0-1.2,2.779,9.942,9.942,0,0,0,.792,5.973,8.86,8.86,0,0,0,4.822,4.75c3.572,1.129,6.722-.8,7.57-4.98a14.622,14.622,0,0,0-.1-4.695,20.368,20.368,0,0,0-.886-2.563,13.249,13.249,0,0,0-1.724-2.781,9.814,9.814,0,0,0-2.862-2.388c-4.932-2.855-9.989.92-10.274,7.1"/><path class="cls-14" d="M130.722,142.986c-5.2,0-9.375-2.788-10.164-6.781-.951-4.816,3.356-9.739,9.6-10.974a14.967,14.967,0,0,1,2.893-.287c5.194,0,9.372,2.788,10.161,6.78a8,8,0,0,1-2.181,6.942,13.479,13.479,0,0,1-7.42,4.033A14.861,14.861,0,0,1,130.722,142.986Z"/><path class="cls-3" d="M133.053,125.921c4.617,0,8.49,2.385,9.2,5.991.85,4.3-3.1,8.7-8.831,9.829a13.889,13.889,0,0,1-2.7.268c-4.617,0-8.493-2.386-9.206-5.992-.849-4.3,3.106-8.7,8.833-9.828a14,14,0,0,1,2.7-.268m0-1.953h0a15.93,15.93,0,0,0-3.086.306c-6.773,1.338-11.426,6.776-10.369,12.121.88,4.456,5.452,7.567,11.122,7.567a15.922,15.922,0,0,0,3.08-.3,14.458,14.458,0,0,0,7.958-4.339,8.948,8.948,0,0,0,2.411-7.785c-.879-4.454-5.45-7.565-11.116-7.565Z"/><g class="cls-15"><path class="cls-9" d="M132.9,127.949c.643,1.138-.917,3.232-3.48,4.676s-5.164,1.694-5.806.555.92-3.232,3.482-4.676S132.258,126.811,132.9,127.949Z"/></g><g class="cls-4"><path class="cls-14" d="M142.256,131.912a6.743,6.743,0,0,0-3.106-4.326,6.251,6.251,0,0,1,1.382,2.827c.85,4.294-3.105,8.694-8.831,9.828a12.08,12.08,0,0,1-8.8-1.4c2.118,2.506,6.208,3.753,10.527,2.9C139.152,140.608,143.106,136.208,142.256,131.912Z"/></g><path class="cls-16" d="M84.763,108.107s-2.67,5.813-2.165,10.54,7.02,10.94,11.14,14.28-4.753-16.11-3.55-23.726-4.923-1.918-4.923-1.918Z"/><path class="cls-17" d="M96.035,133.2s-3.6-1.785-4-2.341c-.89-1.251-1.394-4.4-2-5.806-3-6.958-11.814-2.405-12.388,3.484-.872,8.924,7.753,19.683,12.812,18.47,4.484-1.074,4-7.81,4-7.81"/><path class="cls-18" d="M53.236,89.068a1.243,1.243,0,0,1-.946-.436,38.262,38.262,0,0,1-7.479-13.686A39.219,39.219,0,0,1,47.665,44.23C52.7,35.321,61.441,29.1,72.949,26.235a30.176,30.176,0,0,1,7.278-.892c14.434,0,27.229,10.064,31.84,25.043,2.215,7.2,9.331,25.488,9.4,25.672a1.244,1.244,0,0,1-.819,1.649L88.8,86.776a1.281,1.281,0,0,1-.341.047,1.244,1.244,0,0,1-1.238-1.116c-2.133-20.461-6.728-42.545-10.434-42.545A30.783,30.783,0,0,0,57.253,58.3a38.194,38.194,0,0,0-2.827,29.157,1.245,1.245,0,0,1-1.19,1.611Z"/><path class="cls-3" d="M80.229,26.588c13.31,0,26.034,9.176,30.648,24.164,2.254,7.323,9.433,25.757,9.433,25.757L88.46,85.577s-4.547-43.659-11.672-43.66a1.831,1.831,0,0,0-.47.063c-21.186,5.7-28.5,28.244-23.082,45.843A37.216,37.216,0,0,1,46,74.579c-5.419-17.6.849-40.568,27.248-47.135a28.89,28.89,0,0,1,6.98-.856m0-2.491h0a31.394,31.394,0,0,0-7.58.93C60.8,27.973,51.786,34.4,46.581,43.618c-5.23,9.261-6.31,20.813-2.96,31.693a39.468,39.468,0,0,0,7.723,14.13,2.49,2.49,0,0,0,4.272-2.35A36.916,36.916,0,0,1,58.344,58.9,29.533,29.533,0,0,1,76.7,44.458c2.932,2.112,7.141,20.805,9.286,41.378a2.49,2.49,0,0,0,2.477,2.232,2.461,2.461,0,0,0,.681-.095l31.851-9.068a2.491,2.491,0,0,0,1.638-3.3c-.07-.183-7.171-18.434-9.374-25.585C108.484,34.514,95.211,24.1,80.229,24.1Z"/><path class="cls-19" d="M53.236,89.068a1.243,1.243,0,0,1-.946-.436,38.262,38.262,0,0,1-7.479-13.686A39.219,39.219,0,0,1,47.665,44.23C52.7,35.321,61.441,29.1,72.949,26.235a30.176,30.176,0,0,1,7.278-.892c14.434,0,27.229,10.064,31.84,25.043,2.215,7.2,9.331,25.488,9.4,25.672a1.244,1.244,0,0,1-.819,1.649L101.028,83.3a1.262,1.262,0,0,1-.341.047,1.244,1.244,0,0,1-1.172-.825C86.637,46.582,79.8,42.7,77.451,42.7a2.513,2.513,0,0,0-1.422.512,3.368,3.368,0,0,1-.517.288C58.561,50.435,49.1,70.153,54.426,87.457a1.245,1.245,0,0,1-1.19,1.611Z"/><path class="cls-3" d="M80.229,26.588c13.31,0,26.034,9.176,30.648,24.164,2.254,7.323,9.433,25.757,9.433,25.757L100.687,82.1c-12.693-35.415-19.81-40.64-23.236-40.64a4.531,4.531,0,0,0-2.409.893c-18,7.36-27.11,28.233-21.806,45.473A37.216,37.216,0,0,1,46,74.579c-5.419-17.6.849-40.568,27.248-47.135a28.89,28.89,0,0,1,6.98-.856m0-2.491h0a31.394,31.394,0,0,0-7.58.93C60.8,27.973,51.786,34.4,46.581,43.618c-5.23,9.261-6.31,20.813-2.96,31.693a39.468,39.468,0,0,0,7.723,14.13,2.49,2.49,0,0,0,4.272-2.35c-5.139-16.7,4-35.741,20.369-42.436a4.217,4.217,0,0,0,.719-.4,1.372,1.372,0,0,1,.747-.312c.708,0,7.312,1.094,20.891,38.989a2.493,2.493,0,0,0,2.343,1.651,2.465,2.465,0,0,0,.683-.1l19.624-5.587a2.491,2.491,0,0,0,1.638-3.3c-.07-.183-7.171-18.434-9.374-25.585C108.484,34.514,95.211,24.1,80.229,24.1Z"/><path class="cls-18" d="M53.236,89.068a1.243,1.243,0,0,1-.946-.436,38.262,38.262,0,0,1-7.479-13.686A39.219,39.219,0,0,1,47.665,44.23C52.7,35.321,61.441,29.1,72.949,26.235a30.176,30.176,0,0,1,7.278-.892c14.434,0,27.229,10.064,31.84,25.043,2.215,7.2,9.331,25.488,9.4,25.672a1.244,1.244,0,0,1-.819,1.649L88.8,86.776a1.281,1.281,0,0,1-.341.047,1.244,1.244,0,0,1-1.238-1.116c-2.133-20.461-6.728-42.545-10.434-42.545A30.783,30.783,0,0,0,57.253,58.3a38.194,38.194,0,0,0-2.827,29.157,1.245,1.245,0,0,1-1.19,1.611Z"/><path class="cls-3" d="M80.229,26.588c13.31,0,26.034,9.176,30.648,24.164,2.254,7.323,9.433,25.757,9.433,25.757L88.46,85.577s-4.547-43.659-11.672-43.66a1.831,1.831,0,0,0-.47.063c-21.186,5.7-28.5,28.244-23.082,45.843A37.216,37.216,0,0,1,46,74.579c-5.419-17.6.849-40.568,27.248-47.135a28.89,28.89,0,0,1,6.98-.856m0-2.491h0a31.394,31.394,0,0,0-7.58.93C60.8,27.973,51.786,34.4,46.581,43.618c-5.23,9.261-6.31,20.813-2.96,31.693a39.468,39.468,0,0,0,7.723,14.13,2.49,2.49,0,0,0,4.272-2.35A36.916,36.916,0,0,1,58.344,58.9,29.533,29.533,0,0,1,76.7,44.458c2.932,2.112,7.141,20.805,9.286,41.378a2.49,2.49,0,0,0,2.477,2.232,2.461,2.461,0,0,0,.681-.095l31.851-9.068a2.491,2.491,0,0,0,1.638-3.3c-.07-.183-7.171-18.434-9.374-25.585C108.484,34.514,95.211,24.1,80.229,24.1Z"/><path class="cls-20" d="M53.236,89.068a1.243,1.243,0,0,1-.946-.436,38.262,38.262,0,0,1-7.479-13.686A39.219,39.219,0,0,1,47.665,44.23C52.7,35.321,61.441,29.1,72.949,26.235a30.176,30.176,0,0,1,7.278-.892c14.434,0,27.229,10.064,31.84,25.043,2.215,7.2,9.331,25.488,9.4,25.672a1.244,1.244,0,0,1-.819,1.649L101.028,83.3a1.262,1.262,0,0,1-.341.047,1.244,1.244,0,0,1-1.172-.825C86.637,46.582,79.8,42.7,77.451,42.7a2.513,2.513,0,0,0-1.422.512,3.368,3.368,0,0,1-.517.288C58.561,50.435,49.1,70.153,54.426,87.457a1.245,1.245,0,0,1-1.19,1.611Z"/><path class="cls-3" d="M80.229,26.588c13.31,0,26.034,9.176,30.648,24.164,2.254,7.323,9.433,25.757,9.433,25.757L100.687,82.1c-12.693-35.415-19.81-40.64-23.236-40.64a4.531,4.531,0,0,0-2.409.893c-18,7.36-27.11,28.233-21.806,45.473A37.216,37.216,0,0,1,46,74.579c-5.419-17.6.849-40.568,27.248-47.135a28.89,28.89,0,0,1,6.98-.856m0-2.491h0a31.394,31.394,0,0,0-7.58.93C60.8,27.973,51.786,34.4,46.581,43.618c-5.23,9.261-6.31,20.813-2.96,31.693a39.468,39.468,0,0,0,7.723,14.13,2.49,2.49,0,0,0,4.272-2.35c-5.139-16.7,4-35.741,20.369-42.436a4.217,4.217,0,0,0,.719-.4,1.372,1.372,0,0,1,.747-.312c.708,0,7.312,1.094,20.891,38.989a2.493,2.493,0,0,0,2.343,1.651,2.465,2.465,0,0,0,.683-.1l19.624-5.587a2.491,2.491,0,0,0,1.638-3.3c-.07-.183-7.171-18.434-9.374-25.585C108.484,34.514,95.211,24.1,80.229,24.1Z"/><g class="cls-4"><path class="cls-10" d="M103.92,50.2c2.522-1.949,2.782-4.942,3.026-8.113a36.978,36.978,0,0,1,3.931,8.665c2.254,7.323,9.433,25.757,9.433,25.757L88.46,85.577s-2.415-23.191-6.485-35.768l.229,0C89.293,49.863,97.851,54.674,103.92,50.2Z"/></g><path class="cls-7" d="M86.273,34.659c6.839,2.661,15.451,15.285,17.219,7.6.537-2.322-6.337-10.3-16.422-13.556a28.136,28.136,0,0,0-22.21,2.286S77.176,31.118,86.273,34.659Z"/><path class="cls-14" d="M106.121,100.912a1.245,1.245,0,0,1-1.242-1.144c-.019-.234-1.9-23.666-.727-40.8,1.291-18.849,14.5-35.8,32.115-41.223a29.489,29.489,0,0,1,8.69-1.254c12.429,0,26.174,6.89,33.426,16.755a1.245,1.245,0,0,1-1.7,1.769,29.046,29.046,0,0,0-16.27-5.171,26.34,26.34,0,0,0-7.759,1.168c-15.493,4.771-23.724,22.868-18.347,40.343a36.4,36.4,0,0,0,8.777,14.813,1.245,1.245,0,0,1-.887,2.119,1.2,1.2,0,0,1-.29-.034,6.874,6.874,0,0,0-1.577-.158c-9.621,0-33.386,12.548-33.625,12.675A1.24,1.24,0,0,1,106.121,100.912Z"/><path class="cls-3" d="M144.959,17.734c12.349,0,25.676,7.072,32.421,16.247A30.343,30.343,0,0,0,160.414,28.6a27.555,27.555,0,0,0-8.127,1.223c-16.179,4.981-24.759,23.74-19.171,41.9a37.5,37.5,0,0,0,9.08,15.321,8.1,8.1,0,0,0-1.867-.192c-10.045,0-34.208,12.82-34.208,12.82s-1.909-23.375-.726-40.617c1.19-17.385,13.34-34.609,31.238-40.118a28.23,28.23,0,0,1,8.326-1.2m0-2.491h0a30.766,30.766,0,0,0-9.059,1.308c-18.1,5.572-31.665,22.978-32.991,42.329-1.182,17.23.65,40.028.729,40.99a2.489,2.489,0,0,0,3.649,2c6.571-3.484,25.312-12.529,33.038-12.529a5.666,5.666,0,0,1,1.289.123,2.541,2.541,0,0,0,.582.069,2.491,2.491,0,0,0,1.773-4.24A35.163,35.163,0,0,1,135.5,70.985c-5.174-16.818,2.686-34.218,17.523-38.786a25.129,25.129,0,0,1,7.395-1.113,27.812,27.812,0,0,1,15.571,4.958,2.491,2.491,0,0,0,3.4-3.539c-7.473-10.164-21.632-17.262-34.428-17.262Z"/><path class="cls-18" d="M120.376,94.1a1.245,1.245,0,0,1-1.243-1.173c-.423-7.316-.839-17.919-.419-26.882.878-18.735,13.03-35.373,29.552-40.46a25.872,25.872,0,0,1,7.625-1.1,39.79,39.79,0,0,1,20.4,6.28,1.31,1.31,0,0,1,.282.238c.683.778,1.275,1.511,1.808,2.24a1.245,1.245,0,0,1-1.7,1.767,29.046,29.046,0,0,0-16.27-5.171,26.34,26.34,0,0,0-7.759,1.168c-15.493,4.771-23.724,22.868-18.347,40.343a36.4,36.4,0,0,0,8.777,14.813,1.245,1.245,0,0,1-.887,2.119,1.2,1.2,0,0,1-.29-.034,6.868,6.868,0,0,0-1.577-.158c-3.805,0-10.534,2.044-19.458,5.908A1.245,1.245,0,0,1,120.376,94.1Z"/><path class="cls-3" d="M155.893,25.733c6.655,0,13.69,2.353,19.747,6.094.618.7,1.2,1.421,1.74,2.154A30.343,30.343,0,0,0,160.414,28.6a27.555,27.555,0,0,0-8.127,1.223c-16.179,4.981-24.759,23.74-19.171,41.9a37.5,37.5,0,0,0,9.08,15.321,8.1,8.1,0,0,0-1.867-.192c-4.813,0-12.869,2.942-19.953,6.01-.461-7.981-.82-18.142-.418-26.751.809-17.265,11.932-34.173,28.675-39.328a24.618,24.618,0,0,1,7.26-1.045m0-2.491h0A27.172,27.172,0,0,0,147.9,24.4c-17.013,5.239-29.528,22.343-30.43,41.592-.421,9.018,0,19.666.421,27.012a2.492,2.492,0,0,0,3.477,2.142c11.08-4.8,16.426-5.805,18.962-5.805a5.653,5.653,0,0,1,1.285.123,2.541,2.541,0,0,0,.582.069,2.491,2.491,0,0,0,1.773-4.24A35.156,35.156,0,0,1,135.5,70.985c-5.174-16.818,2.686-34.218,17.523-38.786a25.125,25.125,0,0,1,7.393-1.113,27.814,27.814,0,0,1,15.573,4.958,2.49,2.49,0,0,0,3.4-3.535c-.555-.759-1.169-1.519-1.877-2.326a2.531,2.531,0,0,0-.562-.475,41.036,41.036,0,0,0-21.056-6.466Z"/><g class="cls-4"><path class="cls-21" d="M124.951,45.957c1.467-5.19,7.264-6.495,12.8-5.628-6.054,8.319-8.144,19.972-4.631,31.389a37.5,37.5,0,0,0,9.08,15.321c-.131-.032-.273-.06-.416-.084-.046-.008-.1-.012-.142-.02-.1-.014-.2-.028-.3-.04-.062-.006-.126-.008-.188-.013-.092-.009-.187-.018-.285-.022-.068,0-.14,0-.215-.006-.09,0-.182-.007-.277-.007l-.235,0-.287.006c-.079,0-.164.009-.248.014s-.193.01-.3.017c-.085,0-.173.014-.261.023s-.2.017-.306.028c-.088.009-.179.022-.27.032s-.207.025-.313.039l-.289.041c-.1.016-.212.03-.318.049s-.2.033-.3.051l-.333.056-.3.06-.343.067-.31.067c-.118.025-.232.05-.348.077l-.318.074c-.119.028-.239.055-.358.084l-.325.082c-.123.031-.245.061-.365.094l-.328.086-.378.1c-.109.03-.218.062-.331.092s-.255.073-.384.112c-.113.032-.222.064-.332.1-.131.04-.265.079-.4.12l-.332.1-.406.128-.333.107-.414.134-.332.11c-.142.047-.28.095-.422.143l-.33.111-.438.154c-.106.036-.212.074-.318.111-.151.052-.3.107-.451.161l-.311.112q-.237.085-.471.173l-.292.107-.49.184c-.094.036-.186.072-.282.106l-.5.193c-.085.034-.178.069-.264.1-.175.069-.351.139-.53.208l-.239.094-.56.223-.2.083c-.2.08-.4.162-.6.243l-.16.067-.659.269c-.032.015-.07.029-.1.045-.238.1-.474.2-.712.3l-.047.019c-.51.216-1.021.433-1.521.651-7.7,3.331-14.255,6.81-14.255,6.81s-1.477-18.083-1.028-34.173C113.949,61.609,122.007,56.68,124.951,45.957Z"/></g><path class="cls-7" d="M124.042,33.776C116.1,42.15,113.31,58.71,107.75,54.991c-1.676-1.126,2.855-15.761,12.647-24.633,14.748-13.364,26.926-10.895,26.926-10.895S131.985,25.4,124.042,33.776Z"/><path class="cls-22" d="M85.366,106.883a1.214,1.214,0,0,1-.2-.016,1.244,1.244,0,0,1-1.037-1.083,36.434,36.434,0,0,0-6.087-16.105C71.446,79.986,61.07,74.2,50.287,74.2a26.885,26.885,0,0,0-15.208,4.608A28.088,28.088,0,0,0,23.2,100.073a1.246,1.246,0,0,1-1.129,1.141c-.038,0-.076,0-.114,0a1.248,1.248,0,0,1-1.2-.922c-3.606-13.439,1.24-33.754,14.2-42.576a44.689,44.689,0,0,1,25.285-7.574A47.7,47.7,0,0,1,87.2,58.39c14.119,9.787,31.242,25.892,31.414,26.053a1.246,1.246,0,0,1-.361,2.049c-7.86,3.4-28.893,13.572-31.762,19.675A1.245,1.245,0,0,1,85.366,106.883Z"/><path class="cls-3" d="M60.236,51.393a46.452,46.452,0,0,1,26.257,8.021c14.2,9.847,31.268,25.936,31.268,25.936s-28.7,12.418-32.395,20.288a37.493,37.493,0,0,0-6.294-16.66C72.049,78.659,61.005,72.955,50.287,72.955a28.066,28.066,0,0,0-15.91,4.823c-7.467,5.08-11.709,13.272-12.423,22.2-3.635-13.543,1.453-32.889,13.7-41.224a43.577,43.577,0,0,1,24.584-7.357m0-2.491a45.921,45.921,0,0,0-25.984,7.789c-13.838,9.418-18.4,30.134-14.7,43.928a2.488,2.488,0,0,0,2.4,1.845c.076,0,.152,0,.229-.01a2.491,2.491,0,0,0,2.255-2.282A26.853,26.853,0,0,1,35.78,79.837a25.647,25.647,0,0,1,14.507-4.392c10.37,0,20.361,5.583,26.727,14.934a35.18,35.18,0,0,1,5.88,15.552,2.487,2.487,0,0,0,2.074,2.165,2.445,2.445,0,0,0,.4.032,2.488,2.488,0,0,0,2.254-1.43c2.4-5.109,20.37-14.4,31.13-19.062a2.492,2.492,0,0,0,.719-4.1c-.7-.662-17.362-16.329-31.558-26.17A48.942,48.942,0,0,0,60.236,48.9Z"/><path class="cls-18" d="M85.366,106.883a1.214,1.214,0,0,1-.2-.016,1.244,1.244,0,0,1-1.037-1.083,36.434,36.434,0,0,0-6.087-16.105C71.446,79.986,61.07,74.2,50.287,74.2a26.885,26.885,0,0,0-15.208,4.608A28.088,28.088,0,0,0,23.2,100.073a1.246,1.246,0,0,1-1.129,1.141c-.038,0-.076,0-.112,0a1.246,1.246,0,0,1-1.2-.925c-.237-.89-.445-1.833-.618-2.8a1.262,1.262,0,0,1-.01-.368c1.329-10.9,6.362-20.3,13.463-25.127A39.955,39.955,0,0,1,56.2,65.284a47.06,47.06,0,0,1,27.442,8.9c7.237,5.254,15.268,12.207,20.73,17.116a1.245,1.245,0,0,1-.249,2.027c-9.963,5.285-16.224,9.845-17.629,12.837A1.245,1.245,0,0,1,85.366,106.883Z"/><path class="cls-3" d="M56.2,66.53A45.983,45.983,0,0,1,82.91,75.195c6.974,5.063,14.683,11.692,20.629,17.034-7.8,4.141-16.277,9.372-18.173,13.409a37.493,37.493,0,0,0-6.294-16.66C72.049,78.659,61.005,72.955,50.287,72.955a28.066,28.066,0,0,0-15.91,4.823c-7.467,5.08-11.709,13.272-12.423,22.2-.234-.878-.431-1.781-.595-2.7,1.185-9.718,5.576-19.245,12.927-24.247A38.74,38.74,0,0,1,56.2,66.53m0-2.491a41.188,41.188,0,0,0-23.313,6.926c-7.394,5.031-12.628,14.752-14,26a2.5,2.5,0,0,0,.02.738c.179,1.006.394,1.984.64,2.907a2.491,2.491,0,0,0,2.406,1.849c.074,0,.149,0,.225-.01a2.489,2.489,0,0,0,2.259-2.282A26.853,26.853,0,0,1,35.78,79.837a25.647,25.647,0,0,1,14.507-4.392c10.37,0,20.361,5.583,26.727,14.934a35.18,35.18,0,0,1,5.88,15.552,2.487,2.487,0,0,0,2.074,2.165,2.338,2.338,0,0,0,.4.032A2.489,2.489,0,0,0,87.62,106.7c.6-1.283,3.473-5.045,17.085-12.268a2.489,2.489,0,0,0,.5-4.052c-5.484-4.929-13.55-11.912-20.83-17.2A48.314,48.314,0,0,0,56.2,64.039Z"/><g class="cls-4"><path class="cls-10" d="M73.411,76.5c6.055-.56,16.035,2.911,17.851-2.317,1-2.366-.308-7.254.256-11.126,12.906,9.719,26.243,22.295,26.243,22.295s-6.811,2.947-14.222,6.879h0q-1.093.579-2.2,1.186l-.033.018c-.23.126-.461.253-.686.38-.03.017-.059.035-.089.05l-.633.356-.13.072-.586.336c-.057.031-.111.061-.163.093q-.278.157-.55.317c-.068.038-.134.078-.2.117-.171.1-.338.2-.507.3l-.222.131c-.163.095-.322.192-.484.289-.08.047-.159.095-.235.142-.155.093-.31.186-.461.279l-.252.153-.437.271c-.087.054-.176.108-.261.162-.139.088-.276.175-.419.264-.09.057-.176.114-.268.171q-.2.129-.4.259c-.089.056-.178.115-.268.174L93.665,98c-.089.06-.179.12-.271.18l-.368.25c-.093.061-.183.122-.272.184-.12.081-.239.164-.358.247l-.269.188c-.112.081-.227.161-.341.242-.089.063-.176.126-.262.189-.113.081-.222.161-.331.242-.09.064-.174.127-.26.19-.106.08-.213.159-.314.238s-.172.129-.255.194c-.1.078-.2.156-.3.234-.082.063-.163.129-.244.194-.1.078-.194.155-.288.233s-.161.128-.238.194c-.092.076-.185.153-.275.23s-.152.128-.225.193c-.089.076-.176.154-.262.23l-.214.19c-.084.077-.167.154-.247.23l-.2.188c-.078.076-.154.152-.234.229l-.189.185-.219.227c-.058.06-.116.122-.172.182-.073.078-.137.152-.2.227s-.111.121-.163.18c-.066.076-.127.151-.188.227-.049.058-.1.116-.143.173-.063.078-.121.154-.177.231-.038.055-.085.11-.123.164-.058.08-.109.159-.164.239-.033.049-.07.1-.1.151-.054.087-.106.172-.156.258-.023.042-.053.085-.072.126-.073.128-.14.253-.2.378A38.156,38.156,0,0,0,68.615,78.632,10.249,10.249,0,0,1,73.411,76.5Z"/></g><path class="cls-7" d="M56.647,57.8c11.536-.384,25.779,8.513,26.682,1.887.274-2-13.683-8.32-26.818-6.882-19.782,2.166-26.02,12.916-26.02,12.916S45.115,58.182,56.647,57.8Z"/><path class="cls-23" d="M180.727,51.045a10.035,10.035,0,1,1,2.952-.446,9.965,9.965,0,0,1-2.952.446Z"/><path class="cls-3" d="M180.734,32.247a8.78,8.78,0,1,1-2.585.391,8.776,8.776,0,0,1,2.585-.391m0-2.49a11.267,11.267,0,1,0,3.311,22.032,11.266,11.266,0,0,0-3.311-22.032Z"/><g class="cls-4"><path class="cls-23" d="M177.281,32.956a8.775,8.775,0,0,0,8.793,14.586c.295-.093.586-.2.866-.319a8.774,8.774,0,1,1-9.659-14.267Z"/></g><path class="cls-24" d="M187.426,38.962c-1.286-3.443-5.946-6.018-8.846-4.936a4.817,4.817,0,0,0-2,1.44,4.338,4.338,0,0,1,2.941-2.566c2.877-1.075,7.212.987,8.432,4.255.649,1.735,1.037,3.655.394,5.128A8.613,8.613,0,0,0,187.426,38.962Z"/><path class="cls-3" d="M183.536,44.31a2.647,2.647,0,0,0,2.074,2.6c1.2.191,2.379-1.041,2.326-2.734s-1.3-2.823-2.484-2.564A2.619,2.619,0,0,0,183.536,44.31Z"/><path class="cls-25" d="M179.932,31.889a17.162,17.162,0,0,1,5.273,17.135"/><path class="cls-3" d="M180.26,45.319a2.641,2.641,0,0,1-.252,3.316c-.881.831-2.552.477-3.462-.953s-.512-3.065.615-3.517A2.616,2.616,0,0,1,180.26,45.319Z"/><path class="cls-25" d="M176.256,33.022a17.156,17.156,0,0,0,5.277,17.133"/><path class="cls-23" d="M19.241,109.939a10.031,10.031,0,1,1,.023,0Z"/><path class="cls-3" d="M19.262,91.146h.022a8.774,8.774,0,0,1-.02,17.548h-.02a8.774,8.774,0,0,1,.018-17.548m0-2.491a11.252,11.252,0,1,0,.028,0h-.028Z"/><g class="cls-4"><path class="cls-23" d="M18.359,91.193a8.773,8.773,0,0,0,4.074,16.534,8.529,8.529,0,0,0,.921-.046,8.773,8.773,0,1,1-4.995-16.488Z"/></g><path class="cls-24" d="M26.271,99.938c-.209-3.672-3.9-7.513-6.987-7.338a4.771,4.771,0,0,0-2.337.783,4.324,4.324,0,0,1,3.566-1.58c3.07-.173,6.6,3.08,6.795,6.563.106,1.849-.093,3.8-1.147,5.016A8.617,8.617,0,0,0,26.271,99.938Z"/><path class="cls-3" d="M20.968,103.891a2.646,2.646,0,0,0,1.209,3.1c1.086.535,2.582-.291,3.033-1.924s-.406-3.081-1.614-3.184A2.612,2.612,0,0,0,20.968,103.891Z"/><path class="cls-25" d="M21.206,90.96a17.168,17.168,0,0,1-.041,17.928"/><path class="cls-3" d="M17.54,103.883a2.65,2.65,0,0,1-1.223,3.093c-1.09.53-2.581-.3-3.022-1.937s.416-3.079,1.624-3.178A2.617,2.617,0,0,1,17.54,103.883Z"/><path class="cls-25" d="M17.358,90.952a17.163,17.163,0,0,0-.036,17.926"/><path class="cls-23" d="M56.811,101.975a8.822,8.822,0,1,1,5.89-2.258,8.826,8.826,0,0,1-5.89,2.258Z"/><path class="cls-3" d="M56.806,85.432a7.722,7.722,0,1,1-5.157,1.977,7.706,7.706,0,0,1,5.157-1.977m0-2.192a9.914,9.914,0,1,0,7.381,3.29,9.891,9.891,0,0,0-7.381-3.29Z"/><g class="cls-4"><path class="cls-23" d="M51.072,87.983a7.724,7.724,0,0,0,12.413,8.408q.3-.276.574-.574a7.723,7.723,0,1,1-12.987-7.834Z"/></g><path class="cls-24" d="M61.4,89.036c-2.3-2.277-6.977-2.612-8.893-.677a4.2,4.2,0,0,0-1.067,1.89,3.8,3.8,0,0,1,1.4-3.136c1.9-1.923,6.128-1.875,8.309.284a6.312,6.312,0,0,1,2.209,3.954A7.559,7.559,0,0,0,61.4,89.036Z"/><path class="cls-3" d="M60.263,94.745a2.332,2.332,0,0,0,2.618,1.314c1.028-.292,1.515-1.713.849-3.046s-2.082-1.775-2.932-1.131A2.3,2.3,0,0,0,60.263,94.745Z"/><path class="cls-26" d="M52.8,86.154A15.113,15.113,0,0,1,63.339,97.9"/><path class="cls-3" d="M58.021,96.762A2.33,2.33,0,0,1,59.043,99.5c-.4.99-1.863,1.324-3.119.518s-1.541-2.261-.807-3.037A2.3,2.3,0,0,1,58.021,96.762Z"/><path class="cls-26" d="M50.278,88.415a15.106,15.106,0,0,0,10.543,11.742"/><path class="cls-18" d="M95.843,103.7a1.244,1.244,0,0,1-1.228-1.448c.513-3.109,3.109-18.955,3.737-25.644,1.689-18.038,15.536-31.641,32.211-31.641.387,0,.773.007,1.163.022,11.847.456,21.674,4.764,28.419,12.46,6.785,7.744,10.087,18.492,9.058,29.49a38.291,38.291,0,0,1-4.529,14.923,1.245,1.245,0,0,1-2.331-.714,38.2,38.2,0,0,0-8.719-27.972,30.762,30.762,0,0,0-22.057-10.842h-.022a.737.737,0,0,0-.571.3c-1.068,1.127-3.409,6.3-2.117,29.968a1.243,1.243,0,0,1-.876,1.258l-31.772,9.783A1.24,1.24,0,0,1,95.843,103.7Z"/><path class="cls-3" d="M130.564,46.209c.37,0,.741.008,1.114.022,27.184,1.045,38,22.252,36.286,40.589a37.274,37.274,0,0,1-4.382,14.441c1.71-18.334-10.042-38.917-31.944-40.174l-.109,0c-4.768,0-4.64,18.285-3.914,31.585l-31.772,9.783c.762-4.611,3.148-19.341,3.748-25.731,1.677-17.912,15.362-30.512,30.973-30.512m0-2.491c-17.322,0-31.7,14.089-33.452,32.771-.625,6.647-3.215,22.455-3.727,25.557a2.489,2.489,0,0,0,3.19,2.786l31.772-9.782a2.493,2.493,0,0,0,1.755-2.516c-1.289-23.586,1.115-28.194,1.687-28.943a29.52,29.52,0,0,1,20.892,10.394A36.932,36.932,0,0,1,161.1,101.03a2.49,2.49,0,0,0,4.663,1.428,39.554,39.554,0,0,0,4.677-15.4c1.061-11.338-2.352-22.427-9.361-30.428-6.976-7.96-17.111-12.414-29.308-12.883-.4-.015-.809-.024-1.21-.024Z"/><path class="cls-27" d="M95.843,103.7a1.244,1.244,0,0,1-1.228-1.448c.513-3.109,3.109-18.955,3.737-25.644,1.689-18.038,15.536-31.641,32.211-31.641.387,0,.773.007,1.163.022,11.847.456,21.674,4.764,28.419,12.46,6.785,7.744,10.087,18.492,9.058,29.49a38.291,38.291,0,0,1-4.529,14.923,1.245,1.245,0,0,1-2.331-.714c1.683-18.028-11.6-35.4-29.613-38.73a3.494,3.494,0,0,1-.563-.178,2.961,2.961,0,0,0-1.084-.254c-1.588,0-7.181,2.454-12.446,34.033a1.242,1.242,0,0,1-.861.985l-21.567,6.641A1.24,1.24,0,0,1,95.843,103.7Z"/><path class="cls-3" d="M130.564,46.209c.37,0,.741.008,1.114.022,27.184,1.045,38,22.252,36.286,40.589a37.274,37.274,0,0,1-4.382,14.441c1.677-17.96-11.5-36.537-30.625-40.071a5.849,5.849,0,0,0-1.874-.452c-2.915,0-8.485,3.952-13.674,35.073l-21.566,6.641c.762-4.611,3.148-19.341,3.748-25.731,1.677-17.912,15.362-30.512,30.973-30.512m0-2.491c-17.322,0-31.7,14.089-33.452,32.771-.625,6.647-3.215,22.455-3.727,25.557a2.489,2.489,0,0,0,3.19,2.786l21.567-6.64a2.49,2.49,0,0,0,1.723-1.971C125.3,63.6,130.849,63.228,131.083,63.228a1.889,1.889,0,0,1,.636.171,4.219,4.219,0,0,0,.783.24c17.4,3.215,30.225,19.988,28.6,37.39a2.49,2.49,0,0,0,4.663,1.429,39.554,39.554,0,0,0,4.677-15.4c1.061-11.338-2.352-22.427-9.361-30.428-6.976-7.96-17.111-12.414-29.308-12.883-.4-.015-.809-.024-1.21-.024Z"/><g class="cls-4"><path class="cls-10" d="M99.591,76.721a35.238,35.238,0,0,1,8.046-19.6c1.138,6.05,4.566,11.106,10.594,11.75,2.973.286,6.855-2.494,9.977-2.432-1.293,6.419-1.074,17.416-.593,26.225l-10.206,3.142-21.566,6.641C96.605,97.841,98.991,83.111,99.591,76.721Z"/></g><path class="cls-7" d="M153.158,63.946c-5.758-5.3-11.5-9.761-15.978-11.963l-8.357-4.107a55.677,55.677,0,0,1,8.2.2,40.165,40.165,0,0,1,21.094,11.27c8.7,9.217,9.043,24.371,9.043,24.371S164.881,74.74,153.158,63.946Z"/><path class="cls-10" d="M84.022,112.221c-.616,0-2.255,0-2.641-1.251l-.506-1.707c-.66-2.227-2.033-6.86-4.054-8.2A21.329,21.329,0,0,0,74.7,99.877a11.191,11.191,0,0,1-4.887-3.863,4.429,4.429,0,0,1-.632-3.844,6,6,0,0,1,3.7-3.518,4.581,4.581,0,0,1,1.724-.334c3.513,0,6.929,3.8,9.943,7.15A24.034,24.034,0,0,0,88.1,98.987a4.745,4.745,0,0,0-.635-2.921l-.195-.455a34.945,34.945,0,0,1-1.9-6.056c-.646-3.007.308-5.11,3.094-6.825a9.307,9.307,0,0,1,4.64-1.443,5.317,5.317,0,0,1,2.971.846c2.243,1.472,2.218,3.672,2.2,5.44,0,.436-.01.879.018,1.321a9.917,9.917,0,0,0,2.418,5.861,1.916,1.916,0,0,0,1.435.693,2.548,2.548,0,0,0,1.951-1.084,2.468,2.468,0,0,0,.422-2.2,34,34,0,0,0-1.354-3.421c-1.453-3.34-3.1-7.124-1.947-10.433a5.724,5.724,0,0,1,5.5-4.118,7.478,7.478,0,0,1,4.761,1.863c1.218,1.03,2.494,3.677,3.729,6.238a28.541,28.541,0,0,0,1.964,3.7l.457.6c.559.744,1.4,1.868,1.908,1.868.238,0,.618-.273,1.017-.732,1.364-1.572.86-3.539-.068-6.36-.19-.582-.376-1.15-.523-1.693-.388-1.418-1.134-4.989.314-7.52a4.739,4.739,0,0,1,2.937-2.249,7.258,7.258,0,0,1,1.9-.277c2.9,0,4.345,2.188,5.744,4.3,1.089,1.646,2.028,3.4,2.938,5.1.482.9.963,1.8,1.465,2.681a3.892,3.892,0,0,0,.976,1.328c.015-.023.081-.072.174-.166.487-.565.181-3.8,0-5.725-.439-4.635-.937-9.889,2.854-10.323a3.463,3.463,0,0,1,.375-.021,2.832,2.832,0,0,1,2.187,1.008c1.9,2.174,1.245,7.368,1.164,7.953-.073.527-.158,1.024-.239,1.5-.318,1.86-.549,3.2.134,4.92.439,1.1.772,2.239,1.094,3.342.124.427.248.852.379,1.274a5.776,5.776,0,0,0,.42,1.145,4.582,4.582,0,0,1,1.032,2.148l.288.935c.385,1.255-.049,2.512-9.223,6.267-5.766,2.359-13.548,5.076-21.918,7.653C100.856,109.3,88.423,112.221,84.022,112.221Z"/><path class="cls-3" d="M139.641,68.015c2.742,0,2.406,5.816,2.161,7.6-.363,2.62-1.036,4.509-.03,7.032.582,1.46.976,3.02,1.44,4.525.809,2.633.643.66,1.452,3.292l.288.936c.476,1.551-13.108,7.111-30.346,12.418-14.193,4.369-26.434,7.205-30.584,7.205-.89,0-1.409-.13-1.493-.4-.1-.327-.275-.939-.275-.939-.656-2.12-2.113-7.852-4.768-9.616-2.312-1.535-5.023-2.137-6.657-4.694-1.558-2.429-.069-4.555,2.506-5.6a3.346,3.346,0,0,1,1.271-.246c5.086,0,11.169,10.77,13.72,10.77.364,0,.658-.221.865-.727.6-1.468-.252-3.088-.812-4.419A33.661,33.661,0,0,1,86.546,89.3c-.557-2.588.249-4.131,2.549-5.546a8.008,8.008,0,0,1,4.01-1.266,4.14,4.14,0,0,1,2.312.65c2.156,1.414,1.538,3.633,1.675,5.831a11.119,11.119,0,0,0,2.733,6.6,3.1,3.1,0,0,0,2.318,1.082,3.843,3.843,0,0,0,3.525-4.835c-1.155-3.8-4.711-9.1-3.316-13.11a4.529,4.529,0,0,1,4.365-3.312,6.278,6.278,0,0,1,3.986,1.58c1.743,1.474,4.174,8.028,5.52,9.757,1,1.289,2.015,2.935,3.313,2.935a2.673,2.673,0,0,0,1.924-1.146c2.34-2.694.449-6.27-.34-9.158-.761-2.784-1.092-7.343,2.408-8.292a6.1,6.1,0,0,1,1.591-.236c2.131,0,3.259,1.527,4.739,3.765,1.624,2.456,2.909,5.168,4.362,7.718.524.919,1.187,1.948,2.008,1.948a1.489,1.489,0,0,0,1.048-.545c2.111-2.18-2.367-15.177,2.126-15.69a2.17,2.17,0,0,1,.239-.014m0-2.4h0a4.513,4.513,0,0,0-.512.03c-4.962.566-4.355,6.961-3.913,11.63.065.664.139,1.46.194,2.227-.186-.341-.368-.683-.552-1.026-.923-1.724-1.876-3.507-2.994-5.2-1.427-2.157-3.2-4.842-6.745-4.842a8.409,8.409,0,0,0-2.221.319,5.917,5.917,0,0,0-3.666,2.812c-1.67,2.921-.858,6.87-.431,8.432.155.563.345,1.15.544,1.751.822,2.5,1.253,4.1.3,5.2-.04.043-.073.082-.106.117-.3-.322-.69-.838-.952-1.186-.157-.21-.314-.42-.47-.621a30.2,30.2,0,0,1-1.83-3.482c-1.584-3.285-2.719-5.521-4.035-6.633a8.683,8.683,0,0,0-5.537-2.148,6.966,6.966,0,0,0-6.635,4.926c-1.306,3.752.441,7.765,1.98,11.306a33.488,33.488,0,0,1,1.308,3.292,1.291,1.291,0,0,1-.239,1.134,1.394,1.394,0,0,1-.988.6c-.073,0-.268,0-.547-.3a8.661,8.661,0,0,1-2.1-5.121c-.027-.416-.02-.829-.017-1.236.022-1.842.053-4.625-2.741-6.457a6.492,6.492,0,0,0-3.629-1.044,10.518,10.518,0,0,0-5.266,1.62c-3.245,2-4.4,4.57-3.643,8.1a36.689,36.689,0,0,0,1.531,5.177c-.1-.109-.192-.215-.285-.318-3.182-3.538-6.788-7.548-10.836-7.548a5.775,5.775,0,0,0-2.176.423,7.163,7.163,0,0,0-4.39,4.266,5.592,5.592,0,0,0,.767,4.857,12.315,12.315,0,0,0,5.35,4.285,20.584,20.584,0,0,1,2,1.113c1.655,1.1,3.044,5.781,3.566,7.543.088.294.164.556.234.78,0,0,.172.6.272.93.434,1.4,1.708,2.108,3.793,2.108,4.509,0,17.084-2.938,31.29-7.311,8.4-2.587,16.223-5.318,22.02-7.69,8.571-3.509,10.7-5.169,9.917-7.73l-.288-.939a6.138,6.138,0,0,0-1.177-2.482c-.048-.117-.136-.357-.275-.808-.129-.418-.252-.838-.375-1.259-.329-1.13-.671-2.3-1.13-3.45-.558-1.4-.374-2.481-.068-4.273.085-.49.171-1,.247-1.539.2-1.47.694-6.45-1.448-8.908a4.058,4.058,0,0,0-3.094-1.421Z"/><g class="cls-4"><path class="cls-10" d="M77.738,98c4.827,3.546,5.026,5.159,7.87,10.063,4.007.342,51.346-13.542,55.867-14.112-5.057,2.5-15.113,6.24-26.869,9.859-17.239,5.307-31.6,8.352-32.077,6.8-.1-.327-.275-.939-.275-.939-.656-2.12-2.113-7.852-4.768-9.616-2.259-1.5-4.9-2.11-6.544-4.524C73.252,95.222,75.917,96.741,77.738,98Z"/></g><path class="cls-23" d="M165.942,118.033a9.962,9.962,0,1,1,.06,0Z"/><path class="cls-3" d="M165.945,99.241a8.774,8.774,0,0,1,.05,17.547h-.053a8.774,8.774,0,0,1-.045-17.547h.048m0-2.491h-.059a11.3,11.3,0,1,0,.059,0Z"/><g class="cls-4"><path class="cls-23" d="M164.974,99.3a8.774,8.774,0,0,0,4.2,16.5,9,9,0,0,0,.921-.054,8.775,8.775,0,0,1-12.926-7.678A8.775,8.775,0,0,1,164.974,99.3Z"/></g><path class="cls-24" d="M172.952,107.977c-.235-3.67-3.958-7.481-7.043-7.282a4.8,4.8,0,0,0-2.333.8,4.329,4.329,0,0,1,3.556-1.608c3.067-.2,6.622,3.028,6.846,6.508.117,1.849-.062,3.8-1.106,5.024A8.567,8.567,0,0,0,172.952,107.977Z"/><path class="cls-3" d="M167.682,111.973a2.647,2.647,0,0,0,1.233,3.088c1.094.528,2.582-.31,3.019-1.947s-.43-3.078-1.64-3.172A2.618,2.618,0,0,0,167.682,111.973Z"/><path class="cls-25" d="M167.818,99.04a17.166,17.166,0,0,1,.1,17.928"/><path class="cls-3" d="M164.255,111.992a2.649,2.649,0,0,1-1.2,3.1c-1.088.54-2.586-.281-3.041-1.914s.394-3.082,1.6-3.19A2.618,2.618,0,0,1,164.255,111.992Z"/><path class="cls-25" d="M163.973,99.062a17.164,17.164,0,0,0,.1,17.928"/><g class="cls-4"><path class="cls-10" d="M124.776,87.71a4.389,4.389,0,0,1-2.3,2.2,3.5,3.5,0,0,1-3.341-.3c.683.178,1.442-.075,2.327-1.093,2.34-2.694.449-6.27-.34-9.158a14.762,14.762,0,0,1-.439-2.347C123.559,79.779,125.593,83.493,124.776,87.71Z"/></g><g class="cls-4"><path class="cls-10" d="M105.917,95.379a1.77,1.77,0,0,1-1.5.381,3.764,3.764,0,0,0,1.248-3.945c-1.059-3.488-4.138-8.238-3.561-12.094C104.737,84.925,109.412,89.663,105.917,95.379Z"/></g><g class="cls-4"><path class="cls-10" d="M89.277,99.384l-.02,0c.464-1.419-.345-2.959-.878-4.235A33.661,33.661,0,0,1,86.546,89.3a4.412,4.412,0,0,1,.782-4.1c.932,1.883,2.33,3.593,3.389,5.547C92,93.709,93.307,100.379,89.277,99.384Z"/></g><path class="cls-7" d="M126.216,74.757c1.448,1.391,1.743,3.431,2.622,2.519s.411-2.781-1.035-4.171-3.331-1.78-4.209-.868S124.767,73.366,126.216,74.757Z"/><path class="cls-7" d="M108.519,79.553c1.448,1.391,1.741,3.433,2.62,2.521s.417-2.782-1.034-4.173-3.33-1.778-4.208-.866S107.072,78.163,108.519,79.553Z"/><path class="cls-7" d="M140.037,71.618c.464,1.24.061,2.539.845,2.245s1.037-1.537.573-2.777-1.479-2.008-2.263-1.715S139.569,70.378,140.037,71.618Z"/><path class="cls-7" d="M93.672,85.957c1.062,1.021,1.045,2.762,1.924,1.849a2.7,2.7,0,0,0-3.85-3.7C90.868,85.019,92.608,84.935,93.672,85.957Z"/><path class="cls-3" d="M87.726,129.055s-.04-.056-.113-.162c-.054-.124-.235-.22-.373-.34a8.3,8.3,0,0,0-1.614-.8,2.658,2.658,0,0,0-.489-.134c.017.007-.119-.032.025.012l-.081,0-.162-.014-.335-.029a2.523,2.523,0,0,0-.905.257c-.164.041-.265.2-.4.277l-.05.034-.027.017c-.021.02.179-.164.093-.084l0,0-.008.01-.015.018-.123.148-.255.287c-.172.2-.106.279-.2.4-.06.137-.1.361-.153.532a5.575,5.575,0,0,0-.118,1.275c.035.447.037.9.108,1.349.03.222.09.436.111.656a6.27,6.27,0,0,0,.146.61,9.082,9.082,0,0,0,.35,1.124,8.72,8.72,0,0,0,.394.936c.128.287.252.541.363.745.211.418.32.676.32.676s-.239-.134-.636-.4a4.5,4.5,0,0,1-.683-.531,4.7,4.7,0,0,1-.809-.832,5.646,5.646,0,0,1-.761-1.148c-.114-.231-.2-.337-.343-.685-.1-.237-.175-.486-.255-.741a8.5,8.5,0,0,1-.329-1.642,7.453,7.453,0,0,1,.089-1.835,7.593,7.593,0,0,1,.333-.954,5.042,5.042,0,0,1,.6-.925l.273-.273.139-.129.133-.121.056-.032.109-.065a3.835,3.835,0,0,1,.905-.427,3.138,3.138,0,0,1,.957-.161,3.643,3.643,0,0,1,.914.1l.319.1.155.052.077.026c.2.058.107.046.173.072a4.279,4.279,0,0,1,.607.408,5.019,5.019,0,0,1,1.329,1.572A1.487,1.487,0,0,1,87.726,129.055Z"/><path class="cls-3" d="M82.686,131.294s.2-.01.529,0a3.676,3.676,0,0,1,1.336.244,6,6,0,0,1,1.776.929,4.419,4.419,0,0,1,.855.7c.262.273.527.551.792.829.209.322.421.645.628.964a4.1,4.1,0,0,1,.486,1.006,5.271,5.271,0,0,1,.444,1.939,3.59,3.59,0,0,1-.146,1.4,4.685,4.685,0,0,1-.155.5s-.108-.181-.262-.468a8.792,8.792,0,0,0-.6-1.108,7.3,7.3,0,0,1-.407-.684c-.154-.237-.361-.464-.515-.722-.31-.512-.759-1-1.122-1.525-.431-.478-.8-1.025-1.226-1.458-.216-.214-.395-.472-.58-.682a6.56,6.56,0,0,1-.534-.565,10.48,10.48,0,0,0-.938-.922C82.814,131.445,82.686,131.294,82.686,131.294Z"/></g></g></svg>