<svg xmlns="http://www.w3.org/2000/svg" viewBox="0 0 200 200"><defs><style>.cls-1{isolation:isolate;}.cls-2{fill:#37cb00;}.cls-17,.cls-3{fill:#3b2314;}.cls-12,.cls-4,.cls-7,.cls-9{mix-blend-mode:multiply;}.cls-12,.cls-5{fill:#fccbaa;}.cls-6,.cls-9{fill:#f27f93;}.cls-7,.cls-9{opacity:0.2;}.cls-10,.cls-25,.cls-8{fill:#fff;}.cls-16,.cls-8{opacity:0.3;}.cls-11{fill:#d0d2d3;}.cls-13,.cls-14,.cls-26,.cls-27{fill:none;}.cls-13,.cls-14,.cls-17,.cls-18,.cls-26,.cls-27{stroke:#3b2314;}.cls-13,.cls-14,.cls-17,.cls-18{stroke-linecap:round;stroke-miterlimit:10;}.cls-13{stroke-width:0.88px;}.cls-14{stroke-width:0.84px;}.cls-15{fill:#cd383a;}.cls-17,.cls-18{stroke-width:1.24px;}.cls-18{fill:#f8a576;}.cls-19{fill:#faaf40;}.cls-20{fill:#00a69c;}.cls-21{fill:#8bc53f;}.cls-22{fill:#929497;}.cls-23{fill:#26a9e0;}.cls-24{fill:#ffc609;}.cls-25{opacity:0.6;}.cls-26,.cls-27{stroke-linecap:square;stroke-linejoin:round;}.cls-26{stroke-width:0.51px;}.cls-27{stroke-width:0.45px;}.cls-28{fill:#5661ab;}</style></defs><g class="cls-1"><g id="Layer_3" data-name="Layer 3"><path class="cls-2" d="M135.5,178.5c-4.7,0-13.7-3.8-16.6-5.1l-.8-.3h0c-2.1-.7-10.1-5-10.2-5-7.1-4-11.7-7.5-13.7-10.3s-2.5-7.7-1-12.7c-1.5-3.9-3.6-15.4-3.8-18.4-.8-11.8-1-25,6.6-33.5,5-5.6,12.6-8.4,23.3-8.8h1.2c17.9,0,29.3,14.4,33,41.6,4.7,3,7.5,7,7.8,11,.5,8.1-8.6,26.1-9,26.9-2.9,9.2-8.4,14.2-16.3,14.8Z"/><path class="cls-3" d="M120.5,85.2c23.2,0,29.9,24.7,32.1,41.2,4.1,2.5,7.4,6.3,7.7,10.5.5,7.9-8.9,26.3-8.9,26.3-2.5,8-7.2,13.7-15.4,14.3h-.5c-5.4,0-16.9-5.3-17.1-5.3h0S99.6,163.7,95,157.1c-2.2-3.2-2.2-7.8-.8-12.1-1.5-3.4-3.6-15.3-3.8-18.5-1.3-18.8-1.1-40.1,28.9-41.3h1.2m0-1.9h-1.3c-10.9.4-18.8,3.4-23.9,9.1-7.9,8.8-7.7,22.3-6.8,34.2.2,3.1,2.1,14.2,3.7,18.5-1.5,5.1-1,9.8,1.2,13.1,4.8,6.9,23.4,15.4,24.2,15.7l1,.5h0c3.1,1.3,12,5.1,16.9,5.1h.6c8.3-.6,14.1-5.8,17.1-15.6,1-1.9,9.6-19.1,9-27.1-.3-4.3-3.1-8.5-7.8-11.6-3.9-27.4-15.6-41.9-33.9-41.9Z"/><g class="cls-4"><path class="cls-5" d="M148.6,127c2.3.4,4.6.8,6.8,1.4a28.3,28.3,0,0,0-2.8-2c-.2-1.1-.3-2.3-.5-3.4A12.1,12.1,0,0,1,148.6,127Z"/></g><g class="cls-4"><path class="cls-5" d="M129.1,160.8a4.1,4.1,0,0,0-3.6.6,2.7,2.7,0,0,0-1.2,1.6c-.2.9-.7,1.8-.1,2.6,3,4,6.7,7.4,8.7,11.6a8.8,8.8,0,0,0,3.1.3,14.5,14.5,0,0,0,7.4-2.4C140.1,168.9,136.5,162.1,129.1,160.8Z"/></g><g class="cls-4"><path class="cls-5" d="M105.6,141.8c-2.1-5.7-5.2-11.1-6.3-17a108.5,108.5,0,0,1-2.1-31.1c-7.8,8.1-7.6,20.8-6.8,32.8.2,3.2,2.3,15.1,3.8,18.5-1.4,4.3-1.4,8.9.8,12.1s7,6.3,11.8,9.1C104.8,163.1,91.4,147.1,105.6,141.8Z"/></g><path class="cls-6" d="M135.4,168.9c-17.8,0-33.1-15.5-33.1-19.1a1.2,1.2,0,0,1,1.2-1.2,2.3,2.3,0,0,1,1.1.3c9,3.9,16.9,5.9,23.6,5.9h0c15.3,0,20.6-10.3,23.1-15.3,1-1.9,1.5-2.9,2.4-2.9h.5c1.2.6,1.6,2.5,1.1,5.8-1.4,8.5-8.5,25.5-16.8,26.3Z"/><path class="cls-3" d="M153.7,137.4h.2c3.6,1.6-5.5,29.5-15.5,30.5h-3c-19.8,0-35-18.7-31.9-18.7l.8.2c9.9,4.3,17.7,6,23.9,6,20.6,0,23.7-18.2,25.5-18.2m0-1.6c-1.4,0-2,1.3-3.1,3.4C148.2,144,143,154,128.2,154c-6.6,0-14.4-2-23.3-5.9a3.5,3.5,0,0,0-1.4-.3h0a1.9,1.9,0,0,0-1.7,1c-.6,1,0,2.3.5,3.2,2.6,4.5,15.8,17.7,33.1,17.7h3.2c5-.5,9-6.1,11.6-10.7a53.8,53.8,0,0,0,5.8-16.2c.4-2.4.7-5.7-1.5-6.7l-.8-.2Z"/><path class="cls-6" d="M147.1,189c-3.1,0-5.4-1.2-6.5-3.3a39.9,39.9,0,0,1-2.9-6.7l-.5-1.5a25.9,25.9,0,0,0-3-6,19.9,19.9,0,0,0-1.9-2.1l-1.3-1c-.7-.5-1.1-.8-1.3-1.3a2.8,2.8,0,0,1,.2-2c.7-1.2,2.3-1.8,3.6-2.1a13.6,13.6,0,0,1,3.1-.3h.2c.4-1.1,1.8-1.6,4.1-1.6h2.5c3.9,1,6.4,7.4,7.1,9.4a19.5,19.5,0,0,0,2.6,5.2l.5.9c2,3.7,3.9,7.2.6,9.9A11.9,11.9,0,0,1,147.1,189Z"/><path class="cls-3" d="M140.9,161.9h2.4c3.3.9,5.7,6.8,6.5,8.8a19.3,19.3,0,0,0,2.6,5.4c2.2,4.2,4.3,7.3,1.3,9.8a11.1,11.1,0,0,1-6.6,2.1c-2.4,0-4.7-.8-5.8-2.8a43.7,43.7,0,0,1-3.4-8,24.5,24.5,0,0,0-3-6.3,18.3,18.3,0,0,0-2.1-2.2c-1-.9-2.2-1.5-2.3-1.9s1.3-2.7,3.2-3.1a10.9,10.9,0,0,1,2.9-.3h.8c.1-.1-.5-1.6,3.5-1.6m0-1.6h0c-2.7,0-4,.7-4.6,1.6l-3,.3c-1.4.3-3.3,1-4.1,2.5a3.2,3.2,0,0,0-.2,2.7c.2.7.7,1.1,1.5,1.7l1.2.9a12.3,12.3,0,0,1,1.9,2,23.9,23.9,0,0,1,2.8,5.8,12.1,12.1,0,0,1,.5,1.4,38.9,38.9,0,0,0,3,6.9c1.3,2.3,3.9,3.7,7.2,3.7a12.2,12.2,0,0,0,7.6-2.6c3.8-3.1,1.7-7.1-.4-10.9l-.5-.9a22,22,0,0,1-2.5-5.1c-.9-2.6-3.6-8.8-7.6-9.8h-2.8Z"/><g class="cls-7"><path class="cls-6" d="M153.2,177.9a6.5,6.5,0,0,1-1.7,4.8,10.5,10.5,0,0,1-10.4,2.4c.1.1.1.1.1.2,2.3,4.1,9.3,3.2,12.4.7S155,181.2,153.2,177.9Z"/></g><path class="cls-3" d="M137.3,163.5l.6.2,1.4.8,1.7,1.6a8.7,8.7,0,0,1,.8,1l.7,1.2a9.7,9.7,0,0,1,1.1,2.3,10.4,10.4,0,0,1,.6,2.2,10.8,10.8,0,0,1,.3,2.2l-1-2a3.6,3.6,0,0,0-.4-.9c-.2-.3-.3-.7-.5-1a23.9,23.9,0,0,0-1.2-2.2,10.7,10.7,0,0,0-1.3-2.1,3.1,3.1,0,0,0-.7-.9l-.6-.8-1-1.2Z"/><path class="cls-8" d="M143.6,162.5c-.9-.3-4.4.4-3,1.9s4.3,4.1,4.9,6.2,3.1,2.8,2.6-.4S144.9,163.1,143.6,162.5Z"/><path class="cls-9" d="M137.4,163.5a15.1,15.1,0,0,0,2.7,5.4c1.9,2.3,4.4,5.8,4.4,5.8S142.1,166.7,137.4,163.5Z"/><path class="cls-10" d="M127,160.1a3.9,3.9,0,0,1-2.9-1,3.3,3.3,0,0,1-2.1.7h-.7a4.5,4.5,0,0,1-2.8-1.5,2.6,2.6,0,0,1-1.5.4h-1.3c-2.2-.3-3.5-.9-4.2-1.8a5.3,5.3,0,0,1-.4-3.9v-.3l.4-.6h.7a50,50,0,0,0,15.4,2.7c11.5,0,17.4-5.5,19.9-8.7a.9.9,0,0,1,.6-.3h.1l.6.2a4.6,4.6,0,0,1,1.3,3.6,5,5,0,0,1-1.7,3.1l-.7.6a3.6,3.6,0,0,1-2.1,1.1,3.7,3.7,0,0,1-2.2,2.4,4.5,4.5,0,0,1-1.8.4h0a2,2,0,0,1-1.1-.2,3.7,3.7,0,0,1-2.5,1.8,2.7,2.7,0,0,1-1.3.2,3.2,3.2,0,0,1-1.6-.4,3.2,3.2,0,0,1-2.5,1.4h-.7a3.2,3.2,0,0,1-2.2-.7,3.5,3.5,0,0,1-2.7,1Z"/><path class="cls-3" d="M148.2,146.3a3.7,3.7,0,0,1-.3,5.5c-.8.6-1.6,1.5-2.3,1.5H145a3.2,3.2,0,0,1-2,2.6l-1.4.3a2,2,0,0,1-1.5-.6,3.3,3.3,0,0,1-2.3,2.3h-1.1a2,2,0,0,1-1.8-.9,2.8,2.8,0,0,1-2.5,2h-.5a2.6,2.6,0,0,1-2.3-1.2,2.5,2.5,0,0,1-2.6,1.5h0a2.8,2.8,0,0,1-2.8-1.5A2.4,2.4,0,0,1,122,159h-.6a3.4,3.4,0,0,1-2.7-1.9,1.9,1.9,0,0,1-1.7.8h-1.2c-4.5-.6-4.3-2.3-3.9-4.8v-.3a52.7,52.7,0,0,0,15.7,2.7c10.6,0,17.1-4.5,20.6-9m0-1.6h-.1a1.4,1.4,0,0,0-1.2.6c-2.4,3.1-8.1,8.4-19.3,8.4a52.1,52.1,0,0,1-15.2-2.6h-.5l-.8.2a1.4,1.4,0,0,0-.7,1.1.6.6,0,0,0-.1.4c-.2,1.3-.5,3,.6,4.4s2.3,1.9,4.7,2.2H117l1.3-.2a5.9,5.9,0,0,0,2.9,1.3h.8a4.6,4.6,0,0,0,2.1-.5,6.6,6.6,0,0,0,2.9.9,4.5,4.5,0,0,0,2.8-.9,4.6,4.6,0,0,0,2.1.5h.8a4.2,4.2,0,0,0,2.7-1.2,3,3,0,0,0,1.3.2,4.4,4.4,0,0,0,1.6-.2,5.4,5.4,0,0,0,2.5-1.6h.8a4.1,4.1,0,0,0,2.1-.5,5.1,5.1,0,0,0,2.5-2.3,4.6,4.6,0,0,0,2-1.3l.7-.5a6.5,6.5,0,0,0,2-3.8,5.2,5.2,0,0,0-1.5-4.1,2.1,2.1,0,0,0-1.2-.5Z"/><path class="cls-11" d="M119,156.4c-.7-.5-1.2.4-1.7,1.4a1.8,1.8,0,0,0,1.4-.8,3.6,3.6,0,0,0,.7,1C119.3,157.3,119.4,156.7,119,156.4Z"/><path class="cls-11" d="M124.3,156.9c-1-.2-.9.8-.9,1.7a1.5,1.5,0,0,0,.8-.8,2.7,2.7,0,0,0,1,1.1C124.9,158,124.8,157,124.3,156.9Z"/><path class="cls-11" d="M130,157.5c-.9-.1-1.1.6-1.3,1.4a2.4,2.4,0,0,0,.9-1.1,2.6,2.6,0,0,0,1.1,1C130.5,158.2,130.4,157.6,130,157.5Z"/><path class="cls-11" d="M134.5,156.8a1.9,1.9,0,0,0-.4,1.5,3.2,3.2,0,0,0,.8-1.3,1.6,1.6,0,0,0,1.2.8C135.6,157,135.2,156.1,134.5,156.8Z"/><path class="cls-11" d="M139.3,156.9a2.5,2.5,0,0,0,.8-1.4,2.2,2.2,0,0,0,2.1.6,3.2,3.2,0,0,0-1.9-1C139.2,155,139.3,155.9,139.3,156.9Z"/><path class="cls-11" d="M144,152.7a2.4,2.4,0,0,0,.1,2.3,2.6,2.6,0,0,0,.9-1.8c.4.3.8.2,1.3-.1S144.4,152.2,144,152.7Z"/><path class="cls-11" d="M113.5,153.1l-1.6-.5v.3c-.4,2.1-.5,3.7,2.3,4.5A9.1,9.1,0,0,1,113.5,153.1Z"/><path class="cls-12" d="M120.6,143.6s2.3,8.3,10.9,6.8,10.3-2.4,10.5-10.2S120.6,143.6,120.6,143.6Z"/><path class="cls-10" d="M116.6,142.2c-5,0-10.1-4.2-12.3-10.3s-.3-15.3,5.4-17.4a10.5,10.5,0,0,1,3-.5c5.1,0,10.2,4.2,12.4,10.3a16.9,16.9,0,0,1,.5,10.6,9.6,9.6,0,0,1-6,6.8,9.4,9.4,0,0,1-3,.5Z"/><path class="cls-3" d="M112.7,114.8c4.7,0,9.5,3.8,11.7,9.8s.3,14.4-5,16.4a8.6,8.6,0,0,1-2.8.4c-4.6,0-9.5-3.8-11.6-9.8s-.4-14.4,5-16.4a8.4,8.4,0,0,1,2.7-.4m0-1.6a8.7,8.7,0,0,0-3.2.6c-6.2,2.2-8.8,10.5-6,18.4,2.4,6.3,7.8,10.8,13.1,10.8a8.8,8.8,0,0,0,3.3-.6c3.1-1.1,5.3-3.7,6.4-7.3a17,17,0,0,0-.5-11.1c-2.3-6.3-7.7-10.8-13.1-10.8Z"/><path class="cls-11" d="M106,118.4a15.5,15.5,0,0,0,.1,11.2c2.6,7.1,9,11.3,14.4,9.3a8.3,8.3,0,0,0,4-3.2,9.2,9.2,0,0,1-5.1,5.3c-5.4,1.9-11.8-2.3-14.4-9.4C103.2,126.7,103.7,121.7,106,118.4Z"/><path class="cls-13" d="M115.1,128.9c-.2-.5-.5-.2-.8-.3s-.3.3-.2.4a2.3,2.3,0,0,0,1.7,1.9.8.8,0,0,0,.9-.2,2.9,2.9,0,0,0,.7-2.5c-.5-2-2.1-3.4-3.6-3.2a2.7,2.7,0,0,0-1.8,1.3c-.9,1-.8,2.7-.3,4.1a8.2,8.2,0,0,0,.9,1.9,7.4,7.4,0,0,0,1.2,1.3,3.9,3.9,0,0,0,4.1.4,5.3,5.3,0,0,0,2.3-4.7,10.6,10.6,0,0,0-.8-3.3c-1.7-3.6-5.3-5.3-8-3.8l-1.4,1.2a5.8,5.8,0,0,0-1.2,2.9,10.6,10.6,0,0,0,.9,6.3,9.3,9.3,0,0,0,5.2,4.8c3.7,1.2,7-.9,7.8-5.3a16.1,16.1,0,0,0-.2-4.9,14.8,14.8,0,0,0-1-2.7,13.4,13.4,0,0,0-1.8-2.8,12.2,12.2,0,0,0-3.1-2.5c-5.2-2.9-10.4,1.2-10.6,7.6"/><path class="cls-10" d="M140.3,134.4c-4.9,0-9.8-4.1-11.9-10s0-14.7,5.6-16.6a8,8,0,0,1,2.7-.4c4.9,0,9.8,4.1,11.8,10a16.3,16.3,0,0,1,.3,10.2A9.6,9.6,0,0,1,143,134a8.4,8.4,0,0,1-2.7.4Z"/><path class="cls-3" d="M136.7,108.1c4.5,0,9.1,3.8,11.1,9.6s.1,13.8-5,15.6a7.7,7.7,0,0,1-2.5.4c-4.5,0-9.2-3.8-11.2-9.6s-.1-13.8,5.1-15.6a7.3,7.3,0,0,1,2.5-.4m0-1.5a10.5,10.5,0,0,0-3,.5c-5.9,2.1-8.6,9.9-5.9,17.5s7.2,10.6,12.5,10.6a9.3,9.3,0,0,0,2.9-.5,10.2,10.2,0,0,0,6.3-6.9,16.8,16.8,0,0,0-.3-10.6c-2.1-6.2-7.3-10.6-12.5-10.6Z"/><path class="cls-11" d="M130.3,111.5a15.1,15.1,0,0,0-.1,10.7c2.4,6.8,8.5,10.9,13.6,9.1a8.1,8.1,0,0,0,3.9-2.9,8.7,8.7,0,0,1-4.9,4.9c-5.2,1.8-11.3-2.3-13.7-9.2C127.5,119.4,128.1,114.6,130.3,111.5Z"/><path class="cls-14" d="M138.8,121.6c-.1-.4-.4-.2-.7-.2a.3.3,0,0,0-.2.4,2.2,2.2,0,0,0,1.6,1.8c.3.1.7.1.8-.1a3,3,0,0,0,.7-2.5c-.4-1.9-1.8-3.2-3.3-3a2.9,2.9,0,0,0-1.8,1.1c-.8.9-.7,2.6-.3,4a6,6,0,0,0,2,3,3.6,3.6,0,0,0,3.8.5,5,5,0,0,0,2.3-4.5,8.7,8.7,0,0,0-.7-3.1c-1.6-3.5-5-5.2-7.5-3.8a3.8,3.8,0,0,0-1.4,1.1,5.5,5.5,0,0,0-1.2,2.8,9.6,9.6,0,0,0,.8,6,8.5,8.5,0,0,0,4.8,4.7c3.6,1.2,6.7-.8,7.6-4.9a18.5,18.5,0,0,0-.1-4.7,19.9,19.9,0,0,0-.9-2.6,13.4,13.4,0,0,0-1.8-2.8,10.8,10.8,0,0,0-2.8-2.4c-4.9-2.8-10,1-10.3,7.1"/><path class="cls-15" d="M130.7,148c-5.2,0-9.4-2.8-10.1-6.8s3.3-9.7,9.6-11a13.6,13.6,0,0,1,2.9-.3c5.1,0,9.3,2.8,10.1,6.8a8,8,0,0,1-2.2,7,13.4,13.4,0,0,1-7.4,4A13.6,13.6,0,0,1,130.7,148Z"/><path class="cls-3" d="M133.1,130.9c4.6,0,8.4,2.4,9.2,6s-3.1,8.7-8.9,9.8a12.4,12.4,0,0,1-2.7.3c-4.6,0-8.5-2.4-9.2-6s3.1-8.7,8.8-9.8l2.8-.3m0-1.9h0a15.5,15.5,0,0,0-3.1.3c-6.8,1.3-11.5,6.7-10.4,12.1s5.5,7.6,11.1,7.6a16.3,16.3,0,0,0,3.1-.3,15,15,0,0,0,8-4.4,9.3,9.3,0,0,0,2.4-7.8c-.9-4.4-5.5-7.5-11.1-7.5Z"/><g class="cls-16"><path class="cls-10" d="M132.9,132.9c.6,1.2-.9,3.3-3.5,4.7s-5.1,1.7-5.8.6.9-3.3,3.5-4.7S132.3,131.8,132.9,132.9Z"/></g><g class="cls-4"><path class="cls-15" d="M142.3,136.9a6.8,6.8,0,0,0-3.1-4.3,7.2,7.2,0,0,1,1.3,2.8c.9,4.3-3.1,8.7-8.8,9.8a11.8,11.8,0,0,1-8.8-1.4c2.1,2.5,6.2,3.8,10.5,2.9S143.1,141.2,142.3,136.9Z"/></g><path class="cls-17" d="M84.8,113.1s-2.7,5.8-2.2,10.5,7,11,11.1,14.3-4.7-16.1-3.5-23.7-4.9-1.9-4.9-1.9Z"/><path class="cls-18" d="M96,138.2a30.1,30.1,0,0,1-4-2.3c-.9-1.3-1.4-4.4-2-5.8-3-7-11.8-2.5-12.3,3.4-.9,9,7.7,19.7,12.8,18.5s4-7.8,4-7.8"/><path class="cls-19" d="M53.2,94.1a1.2,1.2,0,0,1-.9-.5,37.3,37.3,0,0,1-7.5-13.7c-3.2-10.5-2.2-21.7,2.9-30.7s13.7-15.1,25.2-18a30.4,30.4,0,0,1,7.3-.9c14.5,0,27.3,10.1,31.9,25.1,2.2,7.2,9.3,25.5,9.4,25.7a1.2,1.2,0,0,1-.1,1,1.1,1.1,0,0,1-.7.6L88.8,91.8h-.3l-.7-.2a1.5,1.5,0,0,1-.6-.9c-2.1-20.5-6.7-42.5-10.4-42.5A30.7,30.7,0,0,0,57.3,63.3a38.4,38.4,0,0,0-2.9,29.2,1.1,1.1,0,0,1-.6,1.4Z"/><path class="cls-3" d="M80.2,31.6c13.3,0,26.1,9.2,30.7,24.2,2.2,7.3,9.4,25.7,9.4,25.7L88.5,90.6S83.9,46.9,76.8,46.9h-.5C55.1,52.7,47.8,75.2,53.2,92.8A38.3,38.3,0,0,1,46,79.6C40.6,62,46.8,39,73.2,32.4a34.2,34.2,0,0,1,7-.8m0-2.5h0a32.9,32.9,0,0,0-7.6.9c-11.8,3-20.8,9.4-26,18.6a40.8,40.8,0,0,0-3,31.7,38,38,0,0,0,7.7,14.1,2.5,2.5,0,0,0,1.9.9,2.5,2.5,0,0,0,2.4-3.2,37.2,37.2,0,0,1,2.7-28.2A29.6,29.6,0,0,1,76.7,49.5c2.9,2.1,7.1,20.8,9.3,41.3a2.5,2.5,0,0,0,1.1,1.8,2.4,2.4,0,0,0,1.4.5h.6L121,83.9a2.4,2.4,0,0,0,1.5-1.3,2,2,0,0,0,.1-2c0-.2-7.1-18.4-9.3-25.6-4.8-15.5-18.1-25.9-33.1-25.9Z"/><path class="cls-20" d="M53.2,94.1a1.2,1.2,0,0,1-.9-.5,37.3,37.3,0,0,1-7.5-13.7c-3.2-10.5-2.2-21.7,2.9-30.7s13.7-15.1,25.2-18a30.4,30.4,0,0,1,7.3-.9c14.5,0,27.3,10.1,31.9,25.1,2.2,7.2,9.3,25.5,9.4,25.7a1.2,1.2,0,0,1-.1,1,1.1,1.1,0,0,1-.7.6L101,88.3h-.3a1.3,1.3,0,0,1-1.2-.8c-12.9-35.9-19.7-39.8-22-39.8a3,3,0,0,0-1.5.5l-.5.3c-16.9,6.9-26.4,26.7-21.1,44a1.1,1.1,0,0,1-.6,1.4Z"/><path class="cls-3" d="M80.2,31.6c13.3,0,26.1,9.2,30.7,24.2,2.2,7.3,9.4,25.7,9.4,25.7l-19.6,5.6C88,51.7,80.9,46.5,77.5,46.5a5.4,5.4,0,0,0-2.5.8C57,54.7,47.9,75.6,53.2,92.8A38.3,38.3,0,0,1,46,79.6C40.6,62,46.8,39,73.2,32.4a34.2,34.2,0,0,1,7-.8m0-2.5h0a32.9,32.9,0,0,0-7.6.9c-11.8,3-20.8,9.4-26,18.6a40.8,40.8,0,0,0-3,31.7,38,38,0,0,0,7.7,14.1,2.5,2.5,0,0,0,1.9.9,2.5,2.5,0,0,0,2.4-3.2c-5.1-16.7,4-35.8,20.4-42.4l.7-.4c.3-.2.5-.4.8-.4s7.3,1.1,20.8,39a2.7,2.7,0,0,0,2.4,1.7h.7L121,83.9a2.4,2.4,0,0,0,1.5-1.3,2,2,0,0,0,.1-2c0-.2-7.1-18.4-9.3-25.6-4.8-15.5-18.1-25.9-33.1-25.9Z"/><path class="cls-19" d="M53.2,94.1a1.2,1.2,0,0,1-.9-.5,37.3,37.3,0,0,1-7.5-13.7c-3.2-10.5-2.2-21.7,2.9-30.7s13.7-15.1,25.2-18a30.4,30.4,0,0,1,7.3-.9c14.5,0,27.3,10.1,31.9,25.1,2.2,7.2,9.3,25.5,9.4,25.7a1.2,1.2,0,0,1-.1,1,1.1,1.1,0,0,1-.7.6L88.8,91.8h-.3l-.7-.2a1.5,1.5,0,0,1-.6-.9c-2.1-20.5-6.7-42.5-10.4-42.5A30.7,30.7,0,0,0,57.3,63.3a38.4,38.4,0,0,0-2.9,29.2,1.1,1.1,0,0,1-.6,1.4Z"/><path class="cls-3" d="M80.2,31.6c13.3,0,26.1,9.2,30.7,24.2,2.2,7.3,9.4,25.7,9.4,25.7L88.5,90.6S83.9,46.9,76.8,46.9h-.5C55.1,52.7,47.8,75.2,53.2,92.8A38.3,38.3,0,0,1,46,79.6C40.6,62,46.8,39,73.2,32.4a34.2,34.2,0,0,1,7-.8m0-2.5h0a32.9,32.9,0,0,0-7.6.9c-11.8,3-20.8,9.4-26,18.6a40.8,40.8,0,0,0-3,31.7,38,38,0,0,0,7.7,14.1,2.5,2.5,0,0,0,1.9.9,2.5,2.5,0,0,0,2.4-3.2,37.2,37.2,0,0,1,2.7-28.2A29.6,29.6,0,0,1,76.7,49.5c2.9,2.1,7.1,20.8,9.3,41.3a2.5,2.5,0,0,0,1.1,1.8,2.4,2.4,0,0,0,1.4.5h.6L121,83.9a2.4,2.4,0,0,0,1.5-1.3,2,2,0,0,0,.1-2c0-.2-7.1-18.4-9.3-25.6-4.8-15.5-18.1-25.9-33.1-25.9Z"/><path class="cls-21" d="M53.2,94.1a1.2,1.2,0,0,1-.9-.5,37.3,37.3,0,0,1-7.5-13.7c-3.2-10.5-2.2-21.7,2.9-30.7s13.7-15.1,25.2-18a30.4,30.4,0,0,1,7.3-.9c14.5,0,27.3,10.1,31.9,25.1,2.2,7.2,9.3,25.5,9.4,25.7a1.2,1.2,0,0,1-.1,1,1.1,1.1,0,0,1-.7.6L101,88.3h-.3a1.3,1.3,0,0,1-1.2-.8c-12.9-35.9-19.7-39.8-22-39.8a3,3,0,0,0-1.5.5l-.5.3c-16.9,6.9-26.4,26.7-21.1,44a1.1,1.1,0,0,1-.6,1.4Z"/><path class="cls-3" d="M80.2,31.6c13.3,0,26.1,9.2,30.7,24.2,2.2,7.3,9.4,25.7,9.4,25.7l-19.6,5.6C88,51.7,80.9,46.5,77.5,46.5a5.4,5.4,0,0,0-2.5.8C57,54.7,47.9,75.6,53.2,92.8A38.3,38.3,0,0,1,46,79.6C40.6,62,46.8,39,73.2,32.4a34.2,34.2,0,0,1,7-.8m0-2.5h0a32.9,32.9,0,0,0-7.6.9c-11.8,3-20.8,9.4-26,18.6a40.8,40.8,0,0,0-3,31.7,38,38,0,0,0,7.7,14.1,2.5,2.5,0,0,0,1.9.9,2.5,2.5,0,0,0,2.4-3.2c-5.1-16.7,4-35.8,20.4-42.4l.7-.4c.3-.2.5-.4.8-.4s7.3,1.1,20.8,39a2.7,2.7,0,0,0,2.4,1.7h.7L121,83.9a2.4,2.4,0,0,0,1.5-1.3,2,2,0,0,0,.1-2c0-.2-7.1-18.4-9.3-25.6-4.8-15.5-18.1-25.9-33.1-25.9Z"/><g class="cls-4"><path class="cls-11" d="M103.9,55.2c2.5-1.9,2.8-4.9,3-8.1a34.6,34.6,0,0,1,4,8.7c2.2,7.3,9.4,25.7,9.4,25.7L88.5,90.6S86,67.4,82,54.8h.2C89.3,54.9,97.9,59.7,103.9,55.2Z"/></g><path class="cls-8" d="M86.3,39.7c6.8,2.6,15.4,15.2,17.2,7.6.5-2.4-6.3-10.3-16.4-13.6A27.9,27.9,0,0,0,64.9,36S77.2,36.1,86.3,39.7Z"/><path class="cls-15" d="M106.1,105.9h-.6a1.3,1.3,0,0,1-.6-1c0-.3-1.9-23.7-.7-40.8,1.2-18.9,14.4-35.8,32.1-41.3a30.5,30.5,0,0,1,8.7-1.2c12.4,0,26.1,6.9,33.4,16.7a1.3,1.3,0,0,1-.1,1.6,1.2,1.2,0,0,1-.9.4.8.8,0,0,1-.7-.2,28.9,28.9,0,0,0-16.3-5.2,25.3,25.3,0,0,0-7.7,1.2c-15.5,4.8-23.8,22.9-18.4,40.4a36.5,36.5,0,0,0,8.8,14.8,1.2,1.2,0,0,1,.2,1.5,1.5,1.5,0,0,1-1.1.6h-.3a3.9,3.9,0,0,0-1.6-.2c-9.6,0-33.4,12.5-33.6,12.7Z"/><path class="cls-3" d="M145,22.7c12.3,0,25.6,7.1,32.4,16.3a30.1,30.1,0,0,0-17-5.4,28.4,28.4,0,0,0-8.1,1.2c-16.2,5-24.8,23.8-19.2,41.9A37.2,37.2,0,0,0,142.2,92l-1.9-.2c-10,0-34.2,12.9-34.2,12.9s-1.9-23.4-.7-40.7,13.3-34.6,31.2-40.1a29.4,29.4,0,0,1,8.4-1.2m0-2.5h0a29.9,29.9,0,0,0-9.1,1.4c-18.1,5.5-31.7,22.9-33,42.3-1.2,17.2.7,40,.7,41a3,3,0,0,0,1.3,2l1.2.3,1.2-.3c6.6-3.5,25.3-12.6,33-12.6l1.3.2h.6a2.5,2.5,0,0,0,2.2-1.2,2.7,2.7,0,0,0-.4-3A35.2,35.2,0,0,1,135.5,76c-5.2-16.8,2.7-34.2,17.5-38.8a26.5,26.5,0,0,1,7.4-1.1A28.2,28.2,0,0,1,176,41a2.4,2.4,0,0,0,1.4.5,2.7,2.7,0,0,0,1.8-.8,2.6,2.6,0,0,0,.2-3.2c-7.5-10.2-21.6-17.3-34.4-17.3Z"/><path class="cls-19" d="M120.4,99.1l-.7-.2a1.7,1.7,0,0,1-.6-1c-.4-7.3-.8-17.9-.4-26.9.9-18.7,13-35.3,29.6-40.4a26.3,26.3,0,0,1,7.6-1.1,39.5,39.5,0,0,1,20.4,6.3l.3.2,1.8,2.2a1.3,1.3,0,0,1-.1,1.6,1.2,1.2,0,0,1-.9.4.8.8,0,0,1-.7-.2,28.9,28.9,0,0,0-16.3-5.2,25.3,25.3,0,0,0-7.7,1.2c-15.5,4.8-23.8,22.9-18.4,40.4a36.5,36.5,0,0,0,8.8,14.8,1.2,1.2,0,0,1,.2,1.5,1.5,1.5,0,0,1-1.1.6h-.3a3.9,3.9,0,0,0-1.6-.2c-3.8,0-10.5,2-19.4,5.9Z"/><path class="cls-3" d="M155.9,30.7c6.6,0,13.7,2.4,19.7,6.1a19.2,19.2,0,0,1,1.8,2.2,30.1,30.1,0,0,0-17-5.4,28.4,28.4,0,0,0-8.1,1.2c-16.2,5-24.8,23.8-19.2,41.9A37.2,37.2,0,0,0,142.2,92l-1.9-.2c-4.8,0-12.8,3-19.9,6.1a263.6,263.6,0,0,1-.4-26.8c.8-17.3,11.9-34.2,28.6-39.3a25.8,25.8,0,0,1,7.3-1.1m0-2.5h0a26.3,26.3,0,0,0-8,1.2c-17,5.2-29.5,22.3-30.4,41.6a262.3,262.3,0,0,0,.4,27,2.4,2.4,0,0,0,1.2,2,2.8,2.8,0,0,0,1.3.3,2,2,0,0,0,1-.2c11-4.8,16.4-5.8,18.9-5.8l1.3.2h.6a2.5,2.5,0,0,0,2.2-1.2,2.7,2.7,0,0,0-.4-3A35.2,35.2,0,0,1,135.5,76c-5.2-16.8,2.7-34.2,17.5-38.8a26.5,26.5,0,0,1,7.4-1.1A28.2,28.2,0,0,1,176,41a2.4,2.4,0,0,0,1.4.5,2.7,2.7,0,0,0,1.8-.8,2.6,2.6,0,0,0,.2-3.2l-1.9-2.3c-.2-.2-.3-.4-.6-.5a40.6,40.6,0,0,0-21-6.5Z"/><g class="cls-4"><path class="cls-22" d="M125,51c1.4-5.2,7.2-6.5,12.7-5.7-6,8.3-8.1,20-4.6,31.4A37.2,37.2,0,0,0,142.2,92H131.4l-.4.2h-1.1l-.4.2h-.7l-.5.2H128l-.5.2h-.2l-.5.2h-.3l-.5.2h-.3l-.5.2h-.3l-.5.2h-.2l-.6.2h-.2l-.6.2h-.1l-.8.3h0l-1.5.7c-7.7,3.3-14.3,6.8-14.3,6.8s-1.5-18.1-1-34.2C113.9,66.6,122,61.7,125,51Z"/></g><path class="cls-8" d="M124,38.8c-7.9,8.3-10.7,24.9-16.3,21.2-1.6-1.1,2.9-15.8,12.7-24.6,14.7-13.4,26.9-10.9,26.9-10.9S132,30.4,124,38.8Z"/><path class="cls-23" d="M85.4,111.9h-.2a1.4,1.4,0,0,1-1.1-1.1A34.2,34.2,0,0,0,78,94.7C71.4,85,61.1,79.2,50.3,79.2a26.9,26.9,0,0,0-15.2,4.6,28,28,0,0,0-11.9,21.3,1.2,1.2,0,0,1-1.1,1.1H22a1.2,1.2,0,0,1-1.2-.9C17.1,91.9,22,71.5,35,62.7a44.8,44.8,0,0,1,25.2-7.6,47.9,47.9,0,0,1,27,8.3c14.1,9.8,31.2,25.9,31.4,26a1.4,1.4,0,0,1,.4,1.2,1.6,1.6,0,0,1-.7.9c-7.9,3.4-28.9,13.6-31.8,19.7A1.4,1.4,0,0,1,85.4,111.9Z"/><path class="cls-3" d="M60.2,56.4a46.4,46.4,0,0,1,26.3,8c14.2,9.9,31.3,25.9,31.3,25.9s-28.7,12.5-32.4,20.3A38.1,38.1,0,0,0,79.1,94C72,83.7,61,78,50.3,78a27.8,27.8,0,0,0-15.9,4.8C26.9,87.9,22.7,96.1,22,105c-3.7-13.6,1.4-32.9,13.7-41.2a42.7,42.7,0,0,1,24.5-7.4m0-2.5a45.5,45.5,0,0,0-25.9,7.8c-13.9,9.4-18.5,30.1-14.8,43.9a2.6,2.6,0,0,0,2.5,1.9h.2a2.6,2.6,0,0,0,2.2-2.3A27.3,27.3,0,0,1,35.8,84.8a26.1,26.1,0,0,1,14.5-4.4c10.4,0,20.3,5.6,26.7,15a35.9,35.9,0,0,1,5.9,15.5,2.5,2.5,0,0,0,2.1,2.2h.4a2.4,2.4,0,0,0,2.2-1.4c2.4-5.1,20.4-14.4,31.2-19.1a2.4,2.4,0,0,0,1.4-1.8,2.5,2.5,0,0,0-.7-2.3c-.7-.6-17.4-16.3-31.6-26.1a48.7,48.7,0,0,0-27.7-8.5Z"/><path class="cls-19" d="M85.4,111.9h-.2a1.4,1.4,0,0,1-1.1-1.1A34.2,34.2,0,0,0,78,94.7C71.4,85,61.1,79.2,50.3,79.2a26.9,26.9,0,0,0-15.2,4.6,28,28,0,0,0-11.9,21.3,1.2,1.2,0,0,1-1.1,1.1H22a1.2,1.2,0,0,1-1.2-.9,22.9,22.9,0,0,1-.7-2.8v-.4C21.5,91.2,26.5,81.8,33.6,77a39.8,39.8,0,0,1,22.6-6.7,46.5,46.5,0,0,1,27.4,8.9,264.8,264.8,0,0,1,20.8,17.1,1.5,1.5,0,0,1,.4,1.1,1.3,1.3,0,0,1-.7.9c-9.9,5.3-16.2,9.9-17.6,12.9A1.4,1.4,0,0,1,85.4,111.9Z"/><path class="cls-3" d="M56.2,71.5a45.8,45.8,0,0,1,26.7,8.7c7,5.1,14.7,11.7,20.6,17-7.8,4.2-16.2,9.4-18.1,13.4A38.1,38.1,0,0,0,79.1,94C72,83.7,61,78,50.3,78a27.8,27.8,0,0,0-15.9,4.8C26.9,87.9,22.7,96.1,22,105a13.1,13.1,0,0,1-.6-2.7C22.5,92.6,26.9,83,34.3,78a39,39,0,0,1,21.9-6.5m0-2.5a40.5,40.5,0,0,0-23.3,7c-7.4,5-12.6,14.7-14,26v.7l.6,2.9a2.6,2.6,0,0,0,2.5,1.9h.2a2.6,2.6,0,0,0,2.2-2.3A27.3,27.3,0,0,1,35.8,84.8a26.1,26.1,0,0,1,14.5-4.4c10.4,0,20.3,5.6,26.7,15a35.9,35.9,0,0,1,5.9,15.5,2.5,2.5,0,0,0,2.1,2.2h.4a2.4,2.4,0,0,0,2.2-1.4c.6-1.3,3.5-5,17.1-12.3a2.6,2.6,0,0,0,1.3-1.9,2.4,2.4,0,0,0-.8-2.1A264.8,264.8,0,0,0,84.4,78.2,48.5,48.5,0,0,0,56.2,69Z"/><g class="cls-4"><path class="cls-11" d="M73.4,81.5c6.1-.6,16,2.9,17.9-2.3,1-2.4-.3-7.3.2-11.1,12.9,9.7,26.3,22.2,26.3,22.2s-6.9,3-14.3,6.9h0l-2.2,1.2h0l-.7.4h-.1l-.6.3h-.1l-.6.3H99l-.5.3c-.1.1-.2.1-.2.2l-.5.3h-.3l-.4.3h-.3l-.4.3h-.3l-.4.3-.3.2-.4.2-.3.2-.4.3h-.2l-.4.3-.3.2-.4.2-.2.2-.4.3h-.3l-.3.3-.3.2-.3.2-.3.2-.3.3h-.2l-.3.3-.3.2-.3.2-.2.2-.3.2-.2.2-.3.3h-.2l-.2.3a.2.2,0,0,0-.2.2l-.3.2-.2.2-.2.2c0,.1-.1.1-.1.2l-.2.2c-.1.1-.2.1-.2.2l-.2.2v.2l-.2.2v.2c-.1.1-.2.1-.2.2s-.1.1-.1.2l-.2.2v.2l-.2.3A38.1,38.1,0,0,0,79.1,94,37.1,37.1,0,0,0,68.6,83.6,10.9,10.9,0,0,1,73.4,81.5Z"/></g><path class="cls-8" d="M56.6,62.8c11.6-.4,25.8,8.5,26.7,1.9.3-2-13.7-8.3-26.8-6.9-19.8,2.2-26,12.9-26,12.9S45.1,63.2,56.6,62.8Z"/><path class="cls-24" d="M180.7,56a10,10,0,0,1-2.9-19.6,13.5,13.5,0,0,1,2.9-.4,9.9,9.9,0,0,1,9.6,7.1,10.1,10.1,0,0,1-.7,7.6,10.2,10.2,0,0,1-5.9,4.9,10.3,10.3,0,0,1-3,.4Z"/><path class="cls-3" d="M180.7,37.2a8.8,8.8,0,0,1,2.6,17.2,7.5,7.5,0,0,1-2.6.4,8.8,8.8,0,0,1-2.6-17.2,12.7,12.7,0,0,1,2.6-.4m0-2.4a9.5,9.5,0,0,0-3.3.5,10.6,10.6,0,0,0-6.6,5.5,11,11,0,0,0-.8,8.5,11.1,11.1,0,0,0,10.7,8,12,12,0,0,0,3.3-.5,11.2,11.2,0,0,0,7.5-14.1,11.3,11.3,0,0,0-10.8-7.9Z"/><g class="cls-4"><path class="cls-24" d="M177.3,38a8.7,8.7,0,0,0,8.8,14.5l.8-.3a7.8,7.8,0,0,1-3.6,2.2,8.9,8.9,0,0,1-11-5.8A8.8,8.8,0,0,1,177.3,38Z"/></g><path class="cls-25" d="M187.4,44c-1.3-3.5-5.9-6.1-8.8-5a3.8,3.8,0,0,0-2,1.5,4.2,4.2,0,0,1,2.9-2.6c2.9-1.1,7.2,1,8.5,4.3.6,1.7,1,3.6.3,5.1A7.8,7.8,0,0,0,187.4,44Z"/><path class="cls-3" d="M183.5,49.3a2.7,2.7,0,0,0,2.1,2.6c1.2.2,2.4-1,2.3-2.7a2.4,2.4,0,0,0-2.4-2.6A2.8,2.8,0,0,0,183.5,49.3Z"/><path class="cls-26" d="M179.9,36.9A17,17,0,0,1,185.2,54"/><path class="cls-3" d="M180.3,50.3a2.7,2.7,0,0,1-.3,3.3c-.9.9-2.5.5-3.5-.9s-.5-3.1.7-3.5A2.6,2.6,0,0,1,180.3,50.3Z"/><path class="cls-26" d="M176.3,38a17.3,17.3,0,0,0,5.2,17.2"/><path class="cls-24" d="M19.2,114.9a9.8,9.8,0,0,1-7-2.9,10,10,0,0,1-3-7.1,10.2,10.2,0,0,1,10.1-10,10,10,0,0,1,7.1,3,9.7,9.7,0,0,1,2.9,7,10,10,0,0,1-10,10Z"/><path class="cls-3" d="M19.3,96.1h0a8.9,8.9,0,0,1,8.7,8.8,8.7,8.7,0,0,1-8.7,8.8h-.1a8.8,8.8,0,0,1,.1-17.6m0-2.4A11.3,11.3,0,0,0,8,104.9a11.5,11.5,0,0,0,3.3,8,11.1,11.1,0,0,0,7.9,3.3,11.3,11.3,0,0,0,.1-22.5Z"/><g class="cls-4"><path class="cls-24" d="M18.4,96.2a8.7,8.7,0,0,0,4,16.5h1a10,10,0,0,1-4.2,1,8.8,8.8,0,0,1-8.7-8.8A8.7,8.7,0,0,1,18.4,96.2Z"/></g><path class="cls-25" d="M26.3,104.9c-.2-3.6-3.9-7.5-7-7.3a5.3,5.3,0,0,0-2.4.8,4.5,4.5,0,0,1,3.6-1.6c3.1-.2,6.6,3.1,6.8,6.6.1,1.8-.1,3.8-1.1,5C26.6,107.4,26.3,106.1,26.3,104.9Z"/><path class="cls-3" d="M21,108.9a2.5,2.5,0,0,0,1.2,3.1,2.3,2.3,0,0,0,3-1.9c.5-1.7-.4-3.1-1.6-3.2A2.6,2.6,0,0,0,21,108.9Z"/><path class="cls-26" d="M21.2,96a17.2,17.2,0,0,1,0,17.9"/><path class="cls-3" d="M17.5,108.9a2.6,2.6,0,0,1-1.2,3.1c-1.1.5-2.6-.3-3-2a2.2,2.2,0,0,1,1.6-3.1A2.6,2.6,0,0,1,17.5,108.9Z"/><path class="cls-26" d="M17.4,96a17.2,17.2,0,0,0-.1,17.9"/><path class="cls-24" d="M56.8,107a8.9,8.9,0,0,1-6.6-3A9,9,0,0,1,48,97.7a8.8,8.8,0,0,1,2.9-6.1,8.6,8.6,0,0,1,5.9-2.3,8.9,8.9,0,0,1,6.6,3,9,9,0,0,1,2.2,6.3,8.4,8.4,0,0,1-2.9,6.1,8.6,8.6,0,0,1-5.9,2.3Z"/><path class="cls-3" d="M56.8,90.4A8,8,0,0,1,62.6,93a7.8,7.8,0,0,1-.6,10.9,8.1,8.1,0,0,1-5.2,2,7.6,7.6,0,0,1-5.7-2.6,7.7,7.7,0,0,1,.5-10.9,8.1,8.1,0,0,1,5.2-2m0-2.2a9.6,9.6,0,0,0-6.6,2.6,9.8,9.8,0,0,0-3.3,6.8,10.4,10.4,0,0,0,2.5,7.2,10,10,0,0,0,7.4,3.3,9.5,9.5,0,0,0,6.6-2.6,9.9,9.9,0,0,0-6.6-17.3Z"/><g class="cls-4"><path class="cls-24" d="M51.1,93a7.5,7.5,0,0,0,1.5,7.8,7.7,7.7,0,0,0,10.9.6l.6-.6a9.5,9.5,0,0,1-2.1,3.1A7.7,7.7,0,0,1,51.1,93Z"/></g><path class="cls-25" d="M61.4,94c-2.3-2.2-7-2.6-8.9-.6a5.4,5.4,0,0,0-1.1,1.8,4.3,4.3,0,0,1,1.4-3.1c1.9-1.9,6.2-1.9,8.4.3a6.7,6.7,0,0,1,2.2,4A7.6,7.6,0,0,0,61.4,94Z"/><path class="cls-3" d="M60.3,99.7a2.4,2.4,0,0,0,2.6,1.4c1-.3,1.5-1.8.8-3.1s-2.1-1.8-2.9-1.1A2.2,2.2,0,0,0,60.3,99.7Z"/><path class="cls-27" d="M52.8,91.2a15,15,0,0,1,10.5,11.7"/><path class="cls-3" d="M58,101.8a2.3,2.3,0,0,1,1,2.7c-.4,1-1.8,1.3-3.1.5a2.1,2.1,0,0,1-.8-3A2.3,2.3,0,0,1,58,101.8Z"/><path class="cls-27" d="M50.3,93.4a15.2,15.2,0,0,0,10.5,11.8"/><path class="cls-19" d="M95.8,108.7a1.3,1.3,0,0,1-.8-.3,1.3,1.3,0,0,1-.4-1.2c.5-3.1,3.1-18.9,3.8-25.6C100,63.6,113.9,50,130.6,50h1.1c11.9.4,21.7,4.7,28.4,12.4a39.4,39.4,0,0,1,9.1,29.5,38.5,38.5,0,0,1-4.5,15,1.3,1.3,0,0,1-1.1.6h-.4a1.6,1.6,0,0,1-.9-1.4,37.8,37.8,0,0,0-8.7-27.9,30.7,30.7,0,0,0-22-10.9h-.1a.5.5,0,0,0-.5.3c-1.1,1.2-3.4,6.3-2.1,30a1.4,1.4,0,0,1-.9,1.3l-31.8,9.7Z"/><path class="cls-3" d="M130.6,51.2h1.1c27.2,1.1,38,22.3,36.3,40.6a38.4,38.4,0,0,1-4.4,14.5c1.7-18.4-10.1-39-32-40.2h-.1c-4.7,0-4.6,18.3-3.9,31.6l-31.8,9.8c.8-4.7,3.2-19.4,3.8-25.8,1.7-17.9,15.4-30.5,31-30.5m0-2.5c-17.4,0-31.7,14.1-33.5,32.8-.6,6.6-3.2,22.4-3.7,25.5a2.4,2.4,0,0,0,.8,2.3,2.5,2.5,0,0,0,1.6.6h.8l31.7-9.8a2.4,2.4,0,0,0,1.8-2.5c-1.3-23.6,1.1-28.2,1.7-28.9A29.2,29.2,0,0,1,152.7,79a36.8,36.8,0,0,1,8.4,27,2.4,2.4,0,0,0,1.8,2.6l.7.2a2.6,2.6,0,0,0,2.2-1.3,39.3,39.3,0,0,0,4.6-15.4c1.1-11.4-2.3-22.5-9.3-30.5S144,49.2,131.8,48.7Z"/><path class="cls-28" d="M95.8,108.7a1.3,1.3,0,0,1-.8-.3,1.3,1.3,0,0,1-.4-1.2c.5-3.1,3.1-18.9,3.8-25.6C100,63.6,113.9,50,130.6,50h1.1c11.9.4,21.7,4.7,28.4,12.4a39.4,39.4,0,0,1,9.1,29.5,38.5,38.5,0,0,1-4.5,15,1.3,1.3,0,0,1-1.1.6h-.4a1.6,1.6,0,0,1-.9-1.4c1.7-18-11.6-35.4-29.6-38.7l-.5-.2-1.1-.2c-1.6,0-7.2,2.4-12.5,34a1.1,1.1,0,0,1-.8,1l-21.6,6.6Z"/><path class="cls-3" d="M130.6,51.2h1.1c27.2,1.1,38,22.3,36.3,40.6a38.4,38.4,0,0,1-4.4,14.5c1.7-18-11.5-36.6-30.6-40.1a5,5,0,0,0-1.9-.5c-2.9,0-8.5,4-13.7,35.1l-21.6,6.7c.8-4.7,3.2-19.4,3.8-25.8,1.7-17.9,15.4-30.5,31-30.5m0-2.5c-17.4,0-31.7,14.1-33.5,32.8-.6,6.6-3.2,22.4-3.7,25.5a2.4,2.4,0,0,0,.8,2.3,2.5,2.5,0,0,0,1.6.6h.8l21.5-6.6a2.6,2.6,0,0,0,1.8-2c5.4-32.6,10.9-33,11.2-33l.6.2.8.2c17.4,3.3,30.2,20,28.6,37.4a2.4,2.4,0,0,0,1.8,2.6l.7.2a2.6,2.6,0,0,0,2.2-1.3,39.3,39.3,0,0,0,4.6-15.4c1.1-11.4-2.3-22.5-9.3-30.5S144,49.2,131.8,48.7Z"/><g class="cls-4"><path class="cls-11" d="M99.6,81.7a35.7,35.7,0,0,1,8-19.6c1.2,6.1,4.6,11.1,10.6,11.8,3,.3,6.9-2.5,10-2.5-1.3,6.5-1.1,17.5-.6,26.3l-10.2,3.1-21.6,6.7C96.6,102.8,99,88.1,99.6,81.7Z"/></g><path class="cls-8" d="M153.2,68.9c-5.8-5.3-11.5-9.7-16-11.9l-8.4-4.1a48.6,48.6,0,0,1,8.2.2,40.2,40.2,0,0,1,21.1,11.2c8.7,9.3,9.1,24.4,9.1,24.4S164.9,79.7,153.2,68.9Z"/><path class="cls-11" d="M84,117.2c-.6,0-2.2,0-2.6-1.2l-.5-1.7c-.7-2.3-2.1-6.9-4.1-8.2a10.5,10.5,0,0,0-2.1-1.2,11.4,11.4,0,0,1-4.9-3.9,4.3,4.3,0,0,1-.6-3.8,5.9,5.9,0,0,1,3.7-3.5,3.3,3.3,0,0,1,1.7-.4c3.5,0,6.9,3.8,9.9,7.2a28.1,28.1,0,0,0,3.6,3.5,5.2,5.2,0,0,0-.6-2.9l-.2-.5a32.2,32.2,0,0,1-1.9-6c-.7-3.1.3-5.2,3.1-6.9a9.2,9.2,0,0,1,4.6-1.4,6.1,6.1,0,0,1,3,.8c2.2,1.5,2.2,3.7,2.2,5.5v1.3a9.7,9.7,0,0,0,2.4,5.9,2,2,0,0,0,1.4.6,2.6,2.6,0,0,0,2-1,2.5,2.5,0,0,0,.4-2.2c-.3-1.1-.8-2.2-1.3-3.5-1.5-3.3-3.1-7.1-2-10.4a5.7,5.7,0,0,1,5.5-4.1,7.5,7.5,0,0,1,4.8,1.9c1.2,1,2.5,3.6,3.7,6.2a22.9,22.9,0,0,0,2,3.7l.4.6c.6.7,1.4,1.9,1.9,1.9s.7-.3,1.1-.8.8-3.5-.1-6.3a15.4,15.4,0,0,1-.5-1.7c-.4-1.4-1.2-5,.3-7.5a4.5,4.5,0,0,1,2.9-2.3l1.9-.3c2.9,0,4.4,2.2,5.8,4.3s2,3.4,2.9,5.1l1.5,2.7c.5,1,.8,1.3.9,1.3h.2c.5-.6.2-3.8,0-5.7-.4-4.7-.9-9.9,2.9-10.4h.3a2.9,2.9,0,0,1,2.2,1c1.9,2.2,1.3,7.4,1.2,8a7.7,7.7,0,0,0-.2,1.5,7.5,7.5,0,0,0,.1,4.9c.4,1.1.8,2.2,1.1,3.3a5,5,0,0,0,.4,1.3,6.4,6.4,0,0,0,.4,1.2c.4.3.6.7,1,2.1l.3.9c.4,1.3,0,2.6-9.2,6.3-5.8,2.4-13.6,5.1-21.9,7.7C100.9,114.3,88.4,117.2,84,117.2Z"/><path class="cls-3" d="M139.6,73c2.8,0,2.4,5.8,2.2,7.6s-1,4.5,0,7,.9,3.1,1.4,4.6.7.6,1.5,3.3l.3.9c.4,1.5-13.2,7.1-30.4,12.4C100.4,113.2,88.2,116,84,116c-.9,0-1.4-.1-1.5-.4a8.1,8.1,0,0,1-.2-.9c-.7-2.1-2.2-7.9-4.8-9.6s-5-2.2-6.7-4.7,0-4.6,2.5-5.6a3.1,3.1,0,0,1,1.3-.3c5.1,0,11.2,10.8,13.7,10.8a.9.9,0,0,0,.9-.7c.6-1.5-.3-3.1-.8-4.5a35.8,35.8,0,0,1-1.9-5.8c-.5-2.6.3-4.1,2.6-5.5a7.1,7.1,0,0,1,4-1.3,4.6,4.6,0,0,1,2.3.6c2.2,1.5,1.6,3.7,1.7,5.9a11,11,0,0,0,2.7,6.6,3.3,3.3,0,0,0,2.3,1.1,3.9,3.9,0,0,0,3.6-4.9c-1.2-3.8-4.7-9.1-3.3-13.1a4.4,4.4,0,0,1,4.3-3.3,6,6,0,0,1,4,1.6c1.7,1.4,4.2,8,5.5,9.7s2,3,3.3,3,1.2-.4,2-1.2c2.3-2.7.4-6.3-.4-9.1s-1.1-7.4,2.4-8.3l1.6-.3c2.1,0,3.3,1.6,4.8,3.8s2.9,5.2,4.3,7.7c.5.9,1.2,2,2,2a1.5,1.5,0,0,0,1.1-.6c2.1-2.2-2.4-15.2,2.1-15.7h.2m0-2.4h-.5c-4.9.6-4.3,7-3.9,11.7a13.8,13.8,0,0,1,.2,2.2,4.7,4.7,0,0,1-.5-1c-1-1.8-1.9-3.5-3-5.2s-3.2-4.9-6.8-4.9a6,6,0,0,0-2.2.4,5.8,5.8,0,0,0-3.7,2.8c-1.6,2.9-.8,6.8-.4,8.4l.5,1.7c.9,2.5,1.3,4.1.3,5.2v.2a12.5,12.5,0,0,0-.9-1.2l-.5-.6a35.6,35.6,0,0,1-1.8-3.5c-1.6-3.3-2.7-5.6-4-6.7a9.5,9.5,0,0,0-5.6-2.1,6.9,6.9,0,0,0-6.6,4.9c-1.3,3.8.4,7.8,2,11.3.5,1.2,1,2.4,1.3,3.3a1.2,1.2,0,0,1-.3,1.1,1.1,1.1,0,0,1-1,.6s-.2,0-.5-.3a8.1,8.1,0,0,1-2.1-5.1V92.6c0-1.9,0-4.6-2.8-6.5a6.1,6.1,0,0,0-3.6-1,10.7,10.7,0,0,0-5.3,1.6c-3.2,2-4.4,4.6-3.6,8.1a44.4,44.4,0,0,0,1.5,5.2l-.3-.3c-3.1-3.6-6.7-7.6-10.8-7.6a8.5,8.5,0,0,0-2.2.4A7.7,7.7,0,0,0,68,96.8a5.8,5.8,0,0,0,.8,4.9,11.8,11.8,0,0,0,5.4,4.2l2,1.2c1.6,1.1,3,5.7,3.5,7.5l.3.8a8.1,8.1,0,0,0,.2.9c.5,1.4,1.7,2.1,3.8,2.1,4.5,0,17.1-2.9,31.3-7.3,8.4-2.6,16.2-5.3,22-7.7,8.6-3.5,10.7-5.1,9.9-7.7l-.2-.9a5.2,5.2,0,0,0-1.2-2.5,2.2,2.2,0,0,1-.3-.8,5,5,0,0,0-.4-1.3,22.4,22.4,0,0,0-1.1-3.4c-.6-1.4-.4-2.5-.1-4.3l.3-1.6c.2-1.4.7-6.4-1.5-8.9a4.1,4.1,0,0,0-3.1-1.4Z"/><g class="cls-4"><path class="cls-11" d="M77.7,103c4.9,3.6,5.1,5.2,7.9,10.1,4,.3,51.4-13.6,55.9-14.1-5.1,2.5-15.1,6.2-26.9,9.8-17.2,5.3-31.6,8.4-32.1,6.8a8.1,8.1,0,0,1-.2-.9c-.7-2.1-2.2-7.9-4.8-9.6s-4.9-2.1-6.6-4.6C73.3,100.2,75.9,101.7,77.7,103Z"/></g><path class="cls-24" d="M165.9,123a10,10,0,1,1,0-20A10.2,10.2,0,0,1,176,113a10.1,10.1,0,0,1-2.9,7.1A9.9,9.9,0,0,1,166,123Z"/><path class="cls-3" d="M165.9,104.2a8.8,8.8,0,0,1,.1,17.6h-.1a8.7,8.7,0,0,1-8.7-8.7,8.8,8.8,0,0,1,8.7-8.9h0m0-2.4h0a11.3,11.3,0,1,0,8.1,19.1,11,11,0,0,0,3.2-7.9,11.3,11.3,0,0,0-11.3-11.2Z"/><g class="cls-4"><path class="cls-24" d="M165,104.3a8.5,8.5,0,0,0-4.6,7.8,8.7,8.7,0,0,0,8.8,8.7h.9a8.1,8.1,0,0,1-4.1,1.1,8.8,8.8,0,0,1-1-17.5Z"/></g><path class="cls-25" d="M173,113c-.3-3.7-4-7.5-7.1-7.3a4.5,4.5,0,0,0-2.3.8,4.2,4.2,0,0,1,3.5-1.6c3.1-.2,6.7,3,6.9,6.5.1,1.8-.1,3.8-1.1,5C173.3,115.5,173,114.1,173,113Z"/><path class="cls-3" d="M167.7,117a2.7,2.7,0,0,0,1.2,3.1c1.1.5,2.6-.3,3-2s-.4-3.1-1.6-3.2A2.7,2.7,0,0,0,167.7,117Z"/><path class="cls-26" d="M167.8,104a17.2,17.2,0,0,1,.1,18"/><path class="cls-3" d="M164.3,117a2.8,2.8,0,0,1-1.2,3.1c-1.1.5-2.6-.3-3.1-1.9s.4-3.1,1.6-3.2A2.8,2.8,0,0,1,164.3,117Z"/><path class="cls-26" d="M164,104.1a17,17,0,0,0,.1,17.9"/><g class="cls-4"><path class="cls-11" d="M124.8,92.7a4.5,4.5,0,0,1-2.3,2.2,3.7,3.7,0,0,1-3.4-.3c.7.2,1.5-.1,2.4-1.1,2.3-2.7.4-6.3-.4-9.1a15,15,0,0,1-.4-2.4C123.6,84.8,125.6,88.5,124.8,92.7Z"/></g><g class="cls-4"><path class="cls-11" d="M105.9,100.4a1.9,1.9,0,0,1-1.5.4,4,4,0,0,0,1.3-4c-1.1-3.5-4.2-8.2-3.6-12.1C104.7,89.9,109.4,94.7,105.9,100.4Z"/></g><g class="cls-4"><path class="cls-11" d="M89.3,104.4h0c.4-1.4-.4-3-.9-4.3a35.8,35.8,0,0,1-1.9-5.8,4.7,4.7,0,0,1,.8-4.1c1,1.9,2.4,3.6,3.4,5.6S93.3,105.4,89.3,104.4Z"/></g><path class="cls-8" d="M126.2,79.8c1.5,1.3,1.8,3.4,2.6,2.5s.4-2.8-1-4.2-3.3-1.8-4.2-.9S124.8,78.4,126.2,79.8Z"/><path class="cls-8" d="M108.5,84.6c1.5,1.3,1.8,3.4,2.6,2.5s.5-2.8-1-4.2-3.3-1.8-4.2-.9S107.1,83.2,108.5,84.6Z"/><path class="cls-8" d="M140,76.6c.5,1.3.1,2.6.9,2.3s1-1.6.6-2.8-1.5-2-2.3-1.7S139.6,75.4,140,76.6Z"/><path class="cls-8" d="M93.7,91c1,1,1,2.7,1.9,1.8a2.5,2.5,0,0,0-.3-3.5,2.6,2.6,0,0,0-3.6-.2C90.9,90,92.6,89.9,93.7,91Z"/><path class="cls-3" d="M87.7,134.1v-.2l-.4-.3a4,4,0,0,0-1.6-.8l-.5-.2h-.5l-.9.2-.4.3h0l-.2.2-.2.3c-.2.2-.1.2-.2.4s-.1.3-.2.5a5.3,5.3,0,0,0-.1,1.3c0,.4.1.9.1,1.3a1.5,1.5,0,0,1,.1.7l.2.6.3,1.1.4.9a5.9,5.9,0,0,1,.4.8l.3.7-.6-.4c-.2-.2-.5-.3-.7-.6a2,2,0,0,1-.8-.8l-.8-1.2-.3-.6-.3-.8a7.6,7.6,0,0,1-.3-1.6,6.2,6.2,0,0,1,.1-1.9l.3-.9c.2-.3.4-.8.6-.9l.3-.3h.1l.2-.2h.1l.9-.4c.4,0,.6-.2,1-.1h1.6l.6.4a6.4,6.4,0,0,1,1.4,1.6A1.3,1.3,0,0,1,87.7,134.1Z"/><path class="cls-3" d="M82.7,136.3h.5a4.2,4.2,0,0,1,1.4.2,5,5,0,0,1,1.7,1l.9.7.8.8.6,1a3.1,3.1,0,0,1,.5,1,4.3,4.3,0,0,1,.4,1.9,5.3,5.3,0,0,1-.1,1.4l-.2.5-.2-.5a9.1,9.1,0,0,1-.6-1.1,2.1,2.1,0,0,1-.4-.6l-.6-.8-1.1-1.5-1.2-1.5-.6-.6-.5-.6a4.1,4.1,0,0,0-1-.9Z"/></g></g></svg>