<svg xmlns="http://www.w3.org/2000/svg" viewBox="0 0 200 200"><defs><style>.cls-1{isolation:isolate;}.cls-2,.cls-5{fill:#fccbaa;}.cls-3{fill:#3b2314;}.cls-4,.cls-5{mix-blend-mode:multiply;}.cls-6{fill:#6d6e70;stroke-linecap:round;stroke-miterlimit:10;stroke-width:1.238px;}.cls-18,.cls-19,.cls-6{stroke:#3b2314;}.cls-7{fill:#f8a576;}.cls-8{fill:#faaf40;}.cls-9{fill:#00a69c;}.cls-10{fill:#5661ab;}.cls-11{fill:#d0d2d3;}.cls-12,.cls-17,.cls-22{fill:#fff;}.cls-12,.cls-21{opacity:0.3;}.cls-13{fill:#26a9e0;}.cls-14{fill:#929497;}.cls-15{fill:#cd383a;}.cls-16{fill:#ffc609;}.cls-17{opacity:0.6;}.cls-18,.cls-19{fill:none;stroke-linecap:square;stroke-linejoin:round;}.cls-18{stroke-width:0.515px;}.cls-19{stroke-width:0.453px;}.cls-20{fill:#8bc53f;}.cls-23{fill:#f27f93;}.cls-24{fill:#b2546b;}</style></defs><g class="cls-1"><g id="Layer_4" data-name="Layer 4"><path class="cls-2" d="M136.272,180.351c-4.838,0-13.971-3.912-16.973-5.2-.415-.178-.691-.3-.789-.332l.022-.064c-2.166-.708-10.329-5.137-10.417-5.186-7.288-4.061-12-7.589-14-10.488-2.209-3.2-2.6-7.9-1.083-12.935-1.56-3.967-3.607-15.74-3.822-18.845-.836-12.018-1.077-25.565,6.7-34.22,5.09-5.663,12.869-8.61,23.776-9.013q.659-.024,1.3-.023c18.213,0,29.845,14.677,33.658,42.45,4.77,3.051,7.657,7.138,7.947,11.272.574,8.279-8.79,26.632-9.19,27.409-2.915,9.442-8.511,14.593-16.568,15.153C136.656,180.344,136.466,180.351,136.272,180.351Z"/><path class="cls-3" d="M120.989,85.045c23.681,0,30.491,25.252,32.733,42.051,4.259,2.614,7.579,6.474,7.877,10.743.562,8.1-9.081,26.885-9.081,26.885-2.526,8.136-7.323,14.027-15.75,14.612-.159.011-.324.017-.5.017-5.5,0-17.275-5.482-17.468-5.482h0S99.551,165.2,94.938,158.517c-2.275-3.3-2.255-7.975-.845-12.417-1.5-3.4-3.664-15.65-3.885-18.866-1.335-19.175-1.123-41.037,29.523-42.165q.638-.024,1.258-.024m0-2q-.655,0-1.331.026c-11.194.411-19.2,3.468-24.484,9.342-8.041,8.946-7.808,22.734-6.956,34.956.217,3.153,2.164,14.42,3.766,18.815-1.49,5.205-1.021,10.08,1.312,13.461,4.871,7.061,23.88,15.678,24.687,16.042l1.019.459.033-.024c5.284,2.259,12.753,5.222,17.237,5.222.22,0,.43-.007.633-.02,8.463-.59,14.338-5.92,17.467-15.847,1-1.968,9.791-19.536,9.218-27.781-.3-4.336-3.21-8.593-8.015-11.79-3.956-28.046-15.9-42.861-34.586-42.861Z"/><g class="cls-4"><path class="cls-2" d="M149.652,127.771a57.309,57.309,0,0,1,6.962,1.426,22.535,22.535,0,0,0-2.892-2.1c-.149-1.126-.3-2.3-.443-3.5A12.182,12.182,0,0,1,149.652,127.771Z"/></g><g class="cls-4"><path class="cls-2" d="M105.675,142.842c-2.14-5.787-5.278-11.359-6.419-17.362a113.174,113.174,0,0,1-2.108-31.788c-7.992,8.3-7.8,21.267-6.94,33.542.221,3.216,2.382,15.463,3.885,18.866-1.41,4.442-1.43,9.118.845,12.417,2.068,3,7.086,6.4,11.992,9.234C104.927,164.639,91.225,148.295,105.675,142.842Z"/></g><path class="cls-5" d="M121.051,144.671s2.4,8.519,11.093,6.949,10.569-2.48,10.777-10.4S121.051,144.671,121.051,144.671Z"/><path class="cls-6" d="M84.435,113.536s-2.729,5.939-2.209,10.769,7.167,11.177,11.38,14.59-4.856-16.459-3.627-24.242-5.032-1.959-5.032-1.959Z"/><path class="cls-7" d="M95.953,139.177s-3.681-1.824-4.084-2.393c-.911-1.278-1.423-4.492-2.046-5.933-3.065-7.108-12.069-2.457-12.658,3.563-.891,9.114,7.924,20.11,13.092,18.871,4.581-1.1,4.092-7.982,4.092-7.982"/><path class="cls-3" d="M95.953,139.177s-.938-.348-2.528-1.1c-.395-.2-.832-.407-1.3-.7a2.117,2.117,0,0,1-.376-.278l-.1-.086c-.025-.031-.01.006-.071-.08l-.023-.045-.105-.185c-.139-.247-.285-.5-.434-.767a20.2,20.2,0,0,1-.758-1.88c-.232-.638-.42-1.354-.681-2.016-.122-.3-.268-.718-.376-.952q-.3-.5-.606-1.024c-.227-.288-.461-.507-.677-.777a9.742,9.742,0,0,0-.861-.634,4.912,4.912,0,0,0-4.4.046,7.992,7.992,0,0,0-3.669,3.424,6.61,6.61,0,0,0-.77,2.328l-.041,1.493c-.007.493.08.9.108,1.355a19.881,19.881,0,0,0,1.45,5.4,26.278,26.278,0,0,0,2.728,4.8,17.594,17.594,0,0,0,3.52,3.7,6.05,6.05,0,0,0,3.918,1.5c.054,0,.207-.013.183.006l.266-.078.521-.151a5.414,5.414,0,0,0,.754-.42,4.5,4.5,0,0,0,1.226-1.251,8.54,8.54,0,0,0,1.131-2.8,13.118,13.118,0,0,0,.367-2.7s.026.249.073.718a11.645,11.645,0,0,1-.027,2.048,9.163,9.163,0,0,1-.852,3.138,5.43,5.43,0,0,1-1.282,1.666,4.937,4.937,0,0,1-1.024.679l-.506.2-.258.1a2.65,2.65,0,0,1-.369.067,7.05,7.05,0,0,1-5.042-1.4,17.312,17.312,0,0,1-4.1-3.866A22.454,22.454,0,0,1,76.149,137.5c-.034-.54-.112-1.124-.095-1.626l.057-1.491a8.381,8.381,0,0,1,1.067-3.265,9.641,9.641,0,0,1,4.745-4.152,6.463,6.463,0,0,1,5.965.327,9.95,9.95,0,0,1,1.119.94,14.222,14.222,0,0,1,.843,1.153c.176.364.349.723.517,1.074.191.48.252.809.377,1.207.217.757.349,1.441.5,2.111.172.618.253,1.223.473,1.788q.175.424.34.818l.082.2.02.047c-.037-.063.005,0,0-.01l.056.054a1.4,1.4,0,0,0,.247.227c.391.313.8.577,1.163.814Z"/><path class="cls-8" d="M52.223,94.083a1.267,1.267,0,0,1-.967-.446,39.1,39.1,0,0,1-7.641-13.982c-3.32-10.787-2.257-22.226,2.917-31.387,5.143-9.1,14.074-15.46,25.831-18.384a30.826,30.826,0,0,1,7.436-.911c14.746,0,27.822,10.282,32.534,25.586,2.264,7.353,9.531,26.042,9.6,26.23a1.273,1.273,0,0,1-.837,1.686L88.563,91.741a1.3,1.3,0,0,1-.348.048,1.27,1.27,0,0,1-1.265-1.14C84.771,69.743,80.075,47.18,76.288,47.18A31.436,31.436,0,0,0,56.329,62.642a39.024,39.024,0,0,0-2.89,29.795,1.271,1.271,0,0,1-1.216,1.646Z"/><path class="cls-3" d="M79.8,30.246c13.6,0,26.6,9.373,31.318,24.688,2.3,7.482,9.635,26.316,9.635,26.316L88.215,90.517s-4.647-44.608-11.927-44.61a1.86,1.86,0,0,0-.481.064c-21.65,5.821-29.115,28.858-23.584,46.84A38.072,38.072,0,0,1,44.831,79.28c-5.537-17.986.867-41.453,27.838-48.161a29.559,29.559,0,0,1,7.13-.873m0-2.545h0a32.124,32.124,0,0,0-7.747.949c-12.1,3.009-21.31,9.577-26.631,18.992C40.08,57.106,38.975,68.91,42.4,80.029a40.387,40.387,0,0,0,7.889,14.435,2.545,2.545,0,0,0,4.367-2.4,37.732,37.732,0,0,1,2.787-28.806A30.177,30.177,0,0,1,76.194,48.5c3,2.156,7.3,21.256,9.489,42.277a2.543,2.543,0,0,0,3.229,2.184L121.449,83.7a2.543,2.543,0,0,0,1.673-3.37c-.071-.188-7.323-18.835-9.573-26.143C108.672,38.343,95.109,27.7,79.8,27.7Z"/><path class="cls-9" d="M52.223,94.083a1.267,1.267,0,0,1-.967-.446,39.1,39.1,0,0,1-7.641-13.982c-3.32-10.787-2.257-22.226,2.917-31.387,5.143-9.1,14.074-15.46,25.831-18.384a30.826,30.826,0,0,1,7.436-.911c14.746,0,27.822,10.282,32.534,25.586,2.264,7.353,9.531,26.042,9.6,26.23a1.273,1.273,0,0,1-.837,1.686l-20.047,5.708a1.284,1.284,0,0,1-.349.049,1.27,1.27,0,0,1-1.2-.844C86.349,50.673,79.359,46.71,76.965,46.71a2.567,2.567,0,0,0-1.453.522,3.5,3.5,0,0,1-.527.3C57.664,54.608,48,74.755,53.439,92.437a1.271,1.271,0,0,1-1.216,1.646Z"/><path class="cls-3" d="M79.8,30.246c13.6,0,26.6,9.373,31.318,24.688,2.3,7.482,9.635,26.316,9.635,26.316L100.7,86.959C87.737,50.777,80.465,45.438,76.965,45.437a4.628,4.628,0,0,0-2.462.913C56.114,53.868,46.8,75.2,52.223,92.811A38.072,38.072,0,0,1,44.831,79.28c-5.537-17.986.867-41.453,27.838-48.161a29.559,29.559,0,0,1,7.13-.873m0-2.545h0a32.124,32.124,0,0,0-7.747.949c-12.1,3.009-21.31,9.577-26.631,18.992C40.08,57.106,38.975,68.91,42.4,80.029a40.387,40.387,0,0,0,7.889,14.435,2.545,2.545,0,0,0,4.367-2.4C49.4,74.994,58.739,55.544,75.466,48.705a4.385,4.385,0,0,0,.737-.4,1.393,1.393,0,0,1,.762-.319c.723,0,7.469,1.118,21.343,39.836a2.542,2.542,0,0,0,3.093,1.589L121.449,83.7a2.543,2.543,0,0,0,1.673-3.37c-.071-.188-7.323-18.835-9.573-26.143C108.672,38.343,95.109,27.7,79.8,27.7Z"/><path class="cls-8" d="M52.223,94.083a1.267,1.267,0,0,1-.967-.446,39.1,39.1,0,0,1-7.641-13.982c-3.32-10.787-2.257-22.226,2.917-31.387,5.143-9.1,14.074-15.46,25.831-18.384a30.826,30.826,0,0,1,7.436-.911c14.746,0,27.822,10.282,32.534,25.586,2.264,7.353,9.531,26.042,9.6,26.23a1.273,1.273,0,0,1-.837,1.686L88.563,91.741a1.3,1.3,0,0,1-.348.048,1.27,1.27,0,0,1-1.265-1.14C84.771,69.743,80.075,47.18,76.288,47.18A31.436,31.436,0,0,0,56.329,62.642a39.024,39.024,0,0,0-2.89,29.795,1.271,1.271,0,0,1-1.216,1.646Z"/><path class="cls-3" d="M79.8,30.246c13.6,0,26.6,9.373,31.318,24.688,2.3,7.482,9.635,26.316,9.635,26.316L88.215,90.517s-4.647-44.608-11.927-44.61a1.86,1.86,0,0,0-.481.064c-21.65,5.821-29.115,28.858-23.584,46.84A38.072,38.072,0,0,1,44.831,79.28c-5.537-17.986.867-41.453,27.838-48.161a29.559,29.559,0,0,1,7.13-.873m0-2.545h0a32.124,32.124,0,0,0-7.747.949c-12.1,3.009-21.31,9.577-26.631,18.992C40.08,57.106,38.975,68.91,42.4,80.029a40.387,40.387,0,0,0,7.889,14.435,2.545,2.545,0,0,0,4.367-2.4,37.732,37.732,0,0,1,2.787-28.806A30.177,30.177,0,0,1,76.194,48.5c3,2.156,7.3,21.256,9.489,42.277a2.543,2.543,0,0,0,3.229,2.184L121.449,83.7a2.543,2.543,0,0,0,1.673-3.37c-.071-.188-7.323-18.835-9.573-26.143C108.672,38.343,95.109,27.7,79.8,27.7Z"/><path class="cls-10" d="M52.223,94.083a1.267,1.267,0,0,1-.967-.446,39.1,39.1,0,0,1-7.641-13.982c-3.32-10.787-2.257-22.226,2.917-31.387,5.143-9.1,14.074-15.46,25.831-18.384a30.826,30.826,0,0,1,7.436-.911c14.746,0,27.822,10.282,32.534,25.586,2.264,7.353,9.531,26.042,9.6,26.23a1.273,1.273,0,0,1-.837,1.686l-20.047,5.708a1.284,1.284,0,0,1-.349.049,1.27,1.27,0,0,1-1.2-.844C86.349,50.673,79.359,46.71,76.965,46.71a2.567,2.567,0,0,0-1.453.522,3.5,3.5,0,0,1-.527.3C57.664,54.608,48,74.755,53.439,92.437a1.271,1.271,0,0,1-1.216,1.646Z"/><path class="cls-3" d="M79.8,30.246c13.6,0,26.6,9.373,31.318,24.688,2.3,7.482,9.635,26.316,9.635,26.316L100.7,86.959C87.737,50.777,80.465,45.438,76.965,45.437a4.628,4.628,0,0,0-2.462.913C56.114,53.868,46.8,75.2,52.223,92.811A38.072,38.072,0,0,1,44.831,79.28c-5.537-17.986.867-41.453,27.838-48.161a29.559,29.559,0,0,1,7.13-.873m0-2.545h0a32.124,32.124,0,0,0-7.747.949c-12.1,3.009-21.31,9.577-26.631,18.992C40.08,57.106,38.975,68.91,42.4,80.029a40.387,40.387,0,0,0,7.889,14.435,2.545,2.545,0,0,0,4.367-2.4C49.4,74.994,58.739,55.544,75.466,48.705a4.385,4.385,0,0,0,.737-.4,1.393,1.393,0,0,1,.762-.319c.723,0,7.469,1.118,21.343,39.836a2.542,2.542,0,0,0,3.093,1.589L121.449,83.7a2.543,2.543,0,0,0,1.673-3.37c-.071-.188-7.323-18.835-9.573-26.143C108.672,38.343,95.109,27.7,79.8,27.7Z"/><g class="cls-4"><path class="cls-11" d="M104.006,54.37c2.58-1.992,2.844-5.05,3.093-8.289a37.873,37.873,0,0,1,4.018,8.853c2.3,7.482,9.635,26.316,9.635,26.316L88.215,90.517s-2.471-23.7-6.628-36.548c.078,0,.156,0,.234,0C89.065,54.025,97.808,58.941,104.006,54.37Z"/></g><path class="cls-12" d="M85.978,38.49c6.988,2.719,15.786,15.617,17.594,7.765.545-2.371-6.477-10.527-16.78-13.851A28.747,28.747,0,0,0,64.1,34.74S76.684,34.873,85.978,38.49Z"/><path class="cls-13" d="M106.256,106.183a1.271,1.271,0,0,1-1.268-1.169c-.021-.24-1.946-24.178-.745-41.69,1.324-19.258,14.817-36.578,32.813-42.119a30.142,30.142,0,0,1,8.881-1.281c12.7,0,26.742,7.04,34.154,17.12a1.272,1.272,0,0,1-1.738,1.807,29.674,29.674,0,0,0-16.624-5.282,26.942,26.942,0,0,0-7.927,1.192c-15.83,4.874-24.24,23.365-18.746,41.22a37.229,37.229,0,0,0,8.966,15.135,1.273,1.273,0,0,1-1.2,2.131,7.026,7.026,0,0,0-1.611-.162c-9.828,0-34.112,12.821-34.356,12.95A1.268,1.268,0,0,1,106.256,106.183Z"/><path class="cls-3" d="M145.937,21.2c12.621,0,26.236,7.227,33.129,16.6a31.017,31.017,0,0,0-17.337-5.5,28.113,28.113,0,0,0-8.3,1.25C136.9,38.635,128.131,57.8,133.84,76.355a38.315,38.315,0,0,0,9.276,15.654,8.311,8.311,0,0,0-1.908-.2c-10.263,0-34.952,13.1-34.952,13.1s-1.952-23.881-.743-41.5c1.22-17.761,13.632-35.36,31.917-40.99a28.948,28.948,0,0,1,8.507-1.224m0-2.545h0a31.454,31.454,0,0,0-9.256,1.337c-18.486,5.692-32.349,23.476-33.708,43.247-1.208,17.607.667,40.9.747,41.882a2.545,2.545,0,0,0,3.73,2.041c6.712-3.56,25.865-12.8,33.758-12.8a5.779,5.779,0,0,1,1.315.126,2.544,2.544,0,0,0,2.405-4.261,35.94,35.94,0,0,1-8.656-14.617c-5.287-17.184,2.743-34.961,17.9-39.628a25.6,25.6,0,0,1,7.553-1.137,28.419,28.419,0,0,1,15.912,5.064,2.545,2.545,0,0,0,3.476-3.616c-7.638-10.384-22.1-17.637-35.179-17.637Z"/><path class="cls-8" d="M120.819,99.226a1.272,1.272,0,0,1-1.27-1.2,274.2,274.2,0,0,1-.426-27.464c.9-19.141,13.314-36.141,30.2-41.339a26.418,26.418,0,0,1,7.791-1.125c6.745,0,14.148,2.279,20.848,6.417a1.25,1.25,0,0,1,.286.241c.654.744,1.275,1.512,1.848,2.285a1.273,1.273,0,0,1-1.738,1.81,29.674,29.674,0,0,0-16.624-5.282,26.942,26.942,0,0,0-7.927,1.192c-15.83,4.874-24.24,23.365-18.746,41.22a37.229,37.229,0,0,0,8.966,15.135,1.273,1.273,0,0,1-1.2,2.131,7.026,7.026,0,0,0-1.611-.162c-3.883,0-10.759,2.087-19.884,6.036A1.27,1.27,0,0,1,120.819,99.226Z"/><path class="cls-3" d="M157.109,29.37c6.8,0,13.991,2.4,20.179,6.228q.951,1.079,1.778,2.2a31.017,31.017,0,0,0-17.337-5.5,28.113,28.113,0,0,0-8.3,1.25C136.9,38.635,128.131,57.8,133.84,76.355a38.315,38.315,0,0,0,9.276,15.654,8.311,8.311,0,0,0-1.908-.2c-4.918,0-13.149,3.008-20.389,6.14-.465-8.153-.836-18.535-.425-27.332.827-17.641,12.193-34.915,29.3-40.182a25.142,25.142,0,0,1,7.417-1.069m0-2.545h0a27.73,27.73,0,0,0-8.166,1.181c-17.386,5.354-30.17,22.829-31.091,42.5a275.272,275.272,0,0,0,.426,27.6,2.545,2.545,0,0,0,3.551,2.191c11.33-4.9,16.79-5.931,19.378-5.931a5.779,5.779,0,0,1,1.315.126,2.544,2.544,0,0,0,2.405-4.261,35.94,35.94,0,0,1-8.656-14.617c-5.287-17.184,2.743-34.961,17.9-39.628a25.6,25.6,0,0,1,7.553-1.137,28.419,28.419,0,0,1,15.912,5.064,2.545,2.545,0,0,0,3.472-3.62c-.592-.8-1.237-1.6-1.915-2.369a2.543,2.543,0,0,0-.572-.483c-6.9-4.261-14.538-6.608-21.516-6.608Z"/><g class="cls-4"><path class="cls-14" d="M125.5,50.036c1.5-5.3,7.421-6.638,13.075-5.75-6.187,8.5-8.322,20.4-4.731,32.069a38.315,38.315,0,0,0,9.276,15.654c-.136-.033-.278-.06-.424-.085-.047-.008-.1-.012-.149-.02-.1-.015-.2-.03-.3-.041l-.19-.014c-.1-.007-.191-.017-.291-.023-.071,0-.146,0-.22-.006-.095,0-.188-.006-.285-.006l-.239,0-.292.006c-.085,0-.17.009-.253.013-.1.006-.2.01-.3.018s-.178.016-.267.023-.207.019-.31.03-.187.021-.28.032-.213.025-.321.04l-.292.041-.328.051c-.1.015-.2.034-.3.051l-.34.06-.308.058c-.115.024-.231.045-.349.07l-.318.069-.354.077c-.109.026-.217.052-.325.076l-.366.087-.332.084c-.124.03-.249.062-.374.094l-.335.09-.383.1-.337.095-.4.114-.34.1c-.134.039-.269.08-.405.121l-.338.1-.417.131-.338.108c-.143.045-.28.092-.424.138l-.338.113c-.146.047-.288.1-.434.145l-.335.114-.449.156-.325.114c-.152.055-.31.109-.462.165l-.318.114c-.158.059-.321.117-.481.177-.1.037-.2.073-.3.11q-.251.092-.5.188l-.29.108c-.171.066-.343.131-.514.2-.09.033-.18.068-.27.1-.183.07-.362.14-.542.212-.081.032-.165.064-.243.1l-.573.227c-.071.03-.142.058-.213.086-.2.083-.41.165-.615.249l-.164.067c-.222.091-.447.183-.667.275-.037.015-.075.03-.108.045-.246.1-.486.2-.729.3-.015.006-.03.014-.049.021-.519.22-1.041.441-1.556.663-7.866,3.405-14.563,6.958-14.563,6.958S104.749,86.434,105.2,70C114.256,66.028,122.489,60.991,125.5,50.036Z"/></g><path class="cls-12" d="M124.57,37.587c-8.116,8.559-10.971,25.477-16.646,21.676-1.717-1.148,2.915-16.1,12.919-25.166,15.07-13.655,27.512-11.134,27.512-11.134S132.682,29.031,124.57,37.587Z"/><path class="cls-15" d="M85.05,112.284a1.269,1.269,0,0,1-1.263-1.123,37.211,37.211,0,0,0-6.221-16.454c-6.738-9.9-17.339-15.815-28.358-15.815A27.485,27.485,0,0,0,33.667,83.6a28.709,28.709,0,0,0-12.14,21.727,1.273,1.273,0,0,1-1.153,1.165,1.145,1.145,0,0,1-.117,0,1.274,1.274,0,0,1-1.228-.942c-3.684-13.733,1.267-34.489,14.513-43.5a45.675,45.675,0,0,1,25.837-7.738,48.717,48.717,0,0,1,27.549,8.422c14.426,10,31.92,26.455,32.1,26.62a1.272,1.272,0,0,1-.369,2.093c-8.032,3.476-29.521,13.866-32.454,20.1A1.269,1.269,0,0,1,85.05,112.284Z"/><path class="cls-3" d="M59.379,55.588a47.454,47.454,0,0,1,26.824,8.2c14.514,10.061,31.948,26.5,31.948,26.5s-29.32,12.689-33.1,20.729a38.287,38.287,0,0,0-6.433-17.021C71.445,83.447,60.161,77.619,49.208,77.619a28.676,28.676,0,0,0-16.257,4.929c-7.626,5.19-11.961,13.56-12.692,22.677-3.714-13.837,1.483-33.6,14-42.119a44.538,44.538,0,0,1,25.121-7.518m0-2.545A46.936,46.936,0,0,0,32.826,61C18.687,70.621,14.017,91.789,17.8,105.884a2.547,2.547,0,0,0,2.457,1.886c.076,0,.154,0,.232-.01a2.546,2.546,0,0,0,2.306-2.332A27.449,27.449,0,0,1,34.384,84.651a26.214,26.214,0,0,1,14.824-4.487c10.6,0,20.8,5.7,27.306,15.259a35.91,35.91,0,0,1,6.008,15.888,2.546,2.546,0,0,0,2.12,2.212,2.585,2.585,0,0,0,.41.033,2.545,2.545,0,0,0,2.3-1.462c2.455-5.219,20.813-14.716,31.809-19.475a2.546,2.546,0,0,0,.734-4.188c-.716-.676-17.739-16.685-32.244-26.74a50,50,0,0,0-28.273-8.648Z"/><path class="cls-8" d="M85.05,112.284a1.269,1.269,0,0,1-1.263-1.123,37.211,37.211,0,0,0-6.221-16.454c-6.738-9.9-17.339-15.815-28.358-15.815A27.485,27.485,0,0,0,33.667,83.6a28.709,28.709,0,0,0-12.14,21.727,1.273,1.273,0,0,1-1.153,1.165,1.145,1.145,0,0,1-.117,0,1.273,1.273,0,0,1-1.228-.943c-.242-.9-.453-1.869-.629-2.868a1.274,1.274,0,0,1-.011-.375c1.357-11.137,6.5-20.735,13.754-25.673a40.832,40.832,0,0,1,23.106-6.856,48.083,48.083,0,0,1,28.037,9.1c7.4,5.368,15.6,12.472,21.182,17.487a1.272,1.272,0,0,1-.254,2.071c-10.175,5.4-16.572,10.056-18.013,13.116A1.269,1.269,0,0,1,85.05,112.284Z"/><path class="cls-3" d="M55.247,71.055a46.976,46.976,0,0,1,27.292,8.854c7.128,5.172,15,11.945,21.079,17.4-7.974,4.23-16.628,9.577-18.568,13.7a38.287,38.287,0,0,0-6.433-17.021C71.445,83.447,60.161,77.619,49.208,77.619a28.676,28.676,0,0,0-16.257,4.929c-7.626,5.19-11.961,13.56-12.692,22.677-.241-.9-.441-1.818-.607-2.76,1.209-9.93,5.7-19.666,13.208-24.775a39.568,39.568,0,0,1,22.387-6.635m0-2.545a42.085,42.085,0,0,0-23.82,7.077c-7.555,5.14-12.9,15.074-14.3,26.571a2.5,2.5,0,0,0,.021.748c.182,1.036.4,2.038.653,2.978a2.548,2.548,0,0,0,2.457,1.886c.076,0,.154,0,.232-.01a2.545,2.545,0,0,0,2.306-2.332A27.449,27.449,0,0,1,34.384,84.651a26.214,26.214,0,0,1,14.824-4.487c10.6,0,20.8,5.7,27.306,15.259a35.91,35.91,0,0,1,6.008,15.888,2.546,2.546,0,0,0,2.12,2.212,2.585,2.585,0,0,0,.41.033,2.544,2.544,0,0,0,2.3-1.461c.618-1.311,3.554-5.159,17.459-12.535a2.546,2.546,0,0,0,.508-4.141c-5.6-5.034-13.844-12.17-21.288-17.57A49.36,49.36,0,0,0,55.247,68.51Z"/><g class="cls-4"><path class="cls-11" d="M72.833,81.239c6.187-.571,16.387,2.975,18.243-2.367,1.026-2.417-.313-7.412.261-11.368,13.187,9.931,26.814,22.779,26.814,22.779s-6.959,3.011-14.533,7.029h0q-1.114.592-2.244,1.213l-.037.018c-.232.13-.467.259-.7.389-.03.016-.059.034-.088.051-.217.12-.43.241-.647.362-.044.025-.089.049-.132.075-.2.114-.4.227-.6.343L99,99.857c-.186.108-.377.216-.564.325-.067.04-.134.079-.2.118-.173.1-.349.2-.521.306l-.224.133c-.166.1-.332.2-.494.3-.083.047-.163.1-.244.146l-.471.284c-.083.052-.171.1-.254.158l-.449.275c-.086.056-.177.111-.265.166q-.215.134-.427.27l-.276.174-.408.263-.274.179c-.136.086-.265.174-.4.261l-.276.182c-.127.086-.252.172-.381.256-.091.063-.183.127-.274.188-.125.083-.244.167-.366.252l-.274.192c-.117.083-.234.165-.349.248-.091.063-.179.129-.271.193-.115.082-.227.165-.338.247-.088.064-.177.13-.263.2-.107.079-.215.16-.32.242-.091.064-.176.132-.261.2-.105.08-.206.159-.308.24-.083.065-.169.132-.25.2-.1.08-.2.159-.295.24l-.244.2c-.093.08-.186.158-.279.236-.076.066-.154.132-.232.2s-.18.158-.264.236-.149.129-.22.194c-.087.078-.17.156-.254.236-.07.063-.139.127-.2.19-.083.078-.159.156-.239.234-.064.064-.132.127-.193.191s-.151.153-.224.231c-.059.062-.121.125-.176.188-.074.076-.142.154-.21.23-.054.061-.111.122-.164.184-.066.077-.13.155-.191.232-.051.059-.1.118-.149.177-.063.078-.119.157-.18.237-.04.055-.084.111-.125.166-.058.082-.112.163-.166.243-.037.052-.074.105-.107.156-.055.088-.106.176-.157.263-.025.043-.054.087-.078.128-.071.131-.139.259-.2.386A39.018,39.018,0,0,0,67.937,83.419,10.453,10.453,0,0,1,72.833,81.239Z"/></g><path class="cls-12" d="M55.711,62.133c11.782-.392,26.335,8.7,27.258,1.928.279-2.045-13.983-8.5-27.4-7.032-20.213,2.215-26.585,13.2-26.585,13.2S43.923,62.524,55.711,62.133Z"/><path class="cls-16" d="M182.487,55.233a10.245,10.245,0,1,1,3.015-.456,10.183,10.183,0,0,1-3.015.456Z"/><path class="cls-3" d="M182.492,36.025a8.971,8.971,0,1,1-2.64.4,8.97,8.97,0,0,1,2.64-.4m0-2.545a11.512,11.512,0,1,0,11,8.126,11.477,11.477,0,0,0-11-8.126Z"/><g class="cls-4"><path class="cls-16" d="M178.965,36.75a8.965,8.965,0,0,0,8.984,14.9q.451-.141.884-.325a8.965,8.965,0,1,1-9.868-14.578Z"/></g><path class="cls-17" d="M189.332,42.888c-1.315-3.519-6.078-6.149-9.04-5.044a4.917,4.917,0,0,0-2.044,1.471,4.421,4.421,0,0,1,3.006-2.621c2.939-1.1,7.367,1.008,8.615,4.346.66,1.774,1.06,3.735.4,5.241A8.781,8.781,0,0,0,189.332,42.888Z"/><path class="cls-3" d="M185.357,48.352a2.7,2.7,0,0,0,2.118,2.657c1.222.194,2.431-1.065,2.377-2.8s-1.329-2.883-2.538-2.619A2.674,2.674,0,0,0,185.357,48.352Z"/><path class="cls-18" d="M181.672,35.661a17.543,17.543,0,0,1,5.391,17.507"/><path class="cls-3" d="M182.009,49.382a2.7,2.7,0,0,1-.256,3.389c-.9.848-2.609.488-3.537-.974s-.525-3.132.623-3.594A2.677,2.677,0,0,1,182.009,49.382Z"/><path class="cls-18" d="M177.918,36.818a17.534,17.534,0,0,0,5.388,17.506"/><path class="cls-16" d="M17.485,115.408a10.252,10.252,0,1,1,.022,0Z"/><path class="cls-3" d="M17.509,96.205h.02a8.966,8.966,0,0,1-.022,17.931h-.018a8.966,8.966,0,0,1,.02-17.931m0-2.545a11.479,11.479,0,1,0,.027,0Z"/><g class="cls-4"><path class="cls-16" d="M16.588,96.253a8.964,8.964,0,0,0,5.1,16.847,8.965,8.965,0,1,1-5.1-16.847Z"/></g><path class="cls-17" d="M24.668,105.188c-.212-3.75-3.981-7.675-7.139-7.5a4.895,4.895,0,0,0-2.387.8,4.423,4.423,0,0,1,3.647-1.615c3.136-.177,6.737,3.149,6.942,6.706.1,1.89-.1,3.881-1.172,5.124A8.751,8.751,0,0,0,24.668,105.188Z"/><path class="cls-3" d="M19.253,109.227a2.705,2.705,0,0,0,1.233,3.167c1.11.548,2.638-.3,3.1-1.964s-.416-3.149-1.649-3.255A2.672,2.672,0,0,0,19.253,109.227Z"/><path class="cls-18" d="M19.5,96.016a17.541,17.541,0,0,1-.041,18.317"/><path class="cls-3" d="M15.751,109.218A2.7,2.7,0,0,1,14.5,112.38c-1.113.542-2.636-.309-3.09-1.978s.43-3.147,1.663-3.248A2.676,2.676,0,0,1,15.751,109.218Z"/><path class="cls-18" d="M15.565,96.008a17.546,17.546,0,0,0-.041,18.316"/><path class="cls-16" d="M55.876,107.27a9.011,9.011,0,1,1,6.017-2.307,9.021,9.021,0,0,1-6.017,2.307Z"/><path class="cls-3" d="M55.871,90.368a7.89,7.89,0,1,1-5.27,2.019,7.872,7.872,0,0,1,5.27-2.019m0-2.24a10.133,10.133,0,1,0,7.538,3.362,10.11,10.11,0,0,0-7.538-3.362Z"/><g class="cls-4"><path class="cls-16" d="M50.012,92.974a7.89,7.89,0,0,0,13.268,8,7.891,7.891,0,1,1-13.268-8Z"/></g><path class="cls-17" d="M60.562,94.051c-2.348-2.328-7.128-2.669-9.085-.693a4.345,4.345,0,0,0-1.089,1.932,3.894,3.894,0,0,1,1.431-3.205c1.947-1.964,6.26-1.916,8.491.291,1.184,1.172,2.227,2.591,2.256,4.038A7.767,7.767,0,0,0,60.562,94.051Z"/><path class="cls-3" d="M59.4,99.884a2.377,2.377,0,0,0,2.672,1.341c1.05-.3,1.549-1.748.869-3.111s-2.129-1.813-3-1.155A2.353,2.353,0,0,0,59.4,99.884Z"/><path class="cls-19" d="M51.773,91.1a15.435,15.435,0,0,1,10.772,12"/><path class="cls-3" d="M57.11,101.943a2.379,2.379,0,0,1,1.046,2.8c-.409,1.011-1.9,1.353-3.186.529s-1.575-2.31-.826-3.1A2.353,2.353,0,0,1,57.11,101.943Z"/><path class="cls-19" d="M49.2,93.416a15.426,15.426,0,0,0,10.771,12"/><path class="cls-8" d="M95.756,109.03a1.274,1.274,0,0,1-1.256-1.479c.743-4.509,3.21-19.721,3.818-26.2,1.724-18.431,15.872-32.33,32.911-32.33q.592,0,1.189.023c12.106.465,22.147,4.867,29.039,12.731,6.932,7.913,10.306,18.895,9.253,30.131a39.076,39.076,0,0,1-4.629,15.248,1.273,1.273,0,0,1-1.116.661,1.257,1.257,0,0,1-.372-.056,1.271,1.271,0,0,1-.894-1.335,39.022,39.022,0,0,0-8.905-28.579,31.441,31.441,0,0,0-22.54-11.079h-.022a.75.75,0,0,0-.584.309c-1.088,1.148-3.475,6.431-2.159,30.619a1.271,1.271,0,0,1-.9,1.285l-32.463,10A1.252,1.252,0,0,1,95.756,109.03Z"/><path class="cls-3" d="M131.229,50.292c.38,0,.759.008,1.14.023,27.777,1.066,38.829,22.735,37.075,41.472a38.049,38.049,0,0,1-4.479,14.754c1.749-18.733-10.257-39.762-32.638-41.047l-.112,0c-4.872,0-4.734,18.681-4,32.27l-32.463,10c.776-4.711,3.217-19.761,3.829-26.289,1.711-18.3,15.7-31.176,31.644-31.176m0-2.544c-17.7,0-32.393,14.394-34.179,33.483-.6,6.439-3.065,21.615-3.8,26.113a2.544,2.544,0,0,0,3.26,2.845l32.462-10a2.543,2.543,0,0,0,1.793-2.57c-1.312-24.1,1.136-28.8,1.722-29.57a30.167,30.167,0,0,1,21.348,10.62,37.73,37.73,0,0,1,8.6,27.631,2.545,2.545,0,0,0,4.765,1.461,40.408,40.408,0,0,0,4.781-15.741c1.084-11.583-2.4-22.915-9.565-31.089-7.126-8.133-17.482-12.685-29.948-13.164-.413-.016-.824-.023-1.236-.023Z"/><path class="cls-20" d="M95.756,109.03a1.274,1.274,0,0,1-1.256-1.479c.743-4.509,3.21-19.721,3.818-26.2,1.724-18.431,15.872-32.33,32.911-32.33q.592,0,1.189.023c12.106.465,22.147,4.867,29.039,12.731,6.932,7.913,10.306,18.895,9.253,30.131a39.076,39.076,0,0,1-4.629,15.248,1.273,1.273,0,0,1-1.116.661,1.257,1.257,0,0,1-.372-.056,1.271,1.271,0,0,1-.894-1.335C165.419,88,151.848,70.25,133.446,66.85a3.575,3.575,0,0,1-.576-.182,3.042,3.042,0,0,0-1.109-.259c-1.624,0-7.337,2.508-12.714,34.773a1.268,1.268,0,0,1-.881,1.006L96.13,108.973A1.252,1.252,0,0,1,95.756,109.03Z"/><path class="cls-3" d="M131.229,50.292c.38,0,.759.008,1.14.023,27.777,1.066,38.829,22.735,37.075,41.472a38.049,38.049,0,0,1-4.479,14.754c1.714-18.352-11.749-37.332-31.287-40.943a6.039,6.039,0,0,0-1.917-.461c-2.98,0-8.669,4.037-13.969,35.835l-22.036,6.785c.776-4.711,3.217-19.761,3.829-26.289,1.711-18.3,15.7-31.176,31.644-31.176m0-2.544c-17.7,0-32.393,14.394-34.179,33.483-.6,6.439-3.065,21.615-3.8,26.113a2.544,2.544,0,0,0,3.26,2.845l22.035-6.784a2.544,2.544,0,0,0,1.761-2.014c5.554-33.326,11.221-33.709,11.46-33.709a1.9,1.9,0,0,1,.652.174,4.3,4.3,0,0,0,.8.245c17.771,3.284,30.876,20.422,29.217,38.2a2.545,2.545,0,0,0,4.765,1.461,40.408,40.408,0,0,0,4.781-15.741c1.084-11.583-2.4-22.915-9.565-31.089-7.126-8.133-17.482-12.685-29.948-13.164-.413-.016-.824-.023-1.236-.023Z"/><g class="cls-4"><path class="cls-11" d="M99.585,81.468a35.989,35.989,0,0,1,8.22-20.021c1.165,6.179,4.667,11.348,10.827,12,3.037.292,7-2.549,10.193-2.487-1.322,6.561-1.1,17.8-.606,26.8l-10.427,3.211-22.036,6.785C96.532,103.046,98.973,88,99.585,81.468Z"/></g><path class="cls-12" d="M154.321,68.413c-5.889-5.418-11.754-9.971-16.329-12.221-2.79-1.372-8.541-4.2-8.541-4.2a56.875,56.875,0,0,1,8.377.2,41.04,41.04,0,0,1,21.553,11.517c8.888,9.418,9.242,24.9,9.242,24.9S166.3,79.444,154.321,68.413Z"/><path class="cls-11" d="M83.677,117.74c-.63,0-2.3,0-2.7-1.281l-.511-1.725c-.674-2.28-2.079-7.023-4.148-8.4a21.563,21.563,0,0,0-2.166-1.209,11.473,11.473,0,0,1-4.993-3.947,4.533,4.533,0,0,1-.64-3.93A6.128,6.128,0,0,1,72.3,93.658a4.651,4.651,0,0,1,1.76-.342c3.59,0,7.08,3.881,10.16,7.307a24.566,24.566,0,0,0,3.63,3.595,4.839,4.839,0,0,0-.643-2.97L87,100.766a35.3,35.3,0,0,1-1.939-6.19c-.663-3.07.314-5.22,3.165-6.97a9.473,9.473,0,0,1,4.733-1.473A5.436,5.436,0,0,1,95.992,87c2.3,1.5,2.27,3.754,2.25,5.563-.005.444-.012.895.017,1.346a10.15,10.15,0,0,0,2.47,5.989,1.959,1.959,0,0,0,1.463.707,2.6,2.6,0,0,0,2-1.109,2.524,2.524,0,0,0,.432-2.248,34.8,34.8,0,0,0-1.384-3.5c-1.483-3.411-3.163-7.276-1.989-10.657a5.849,5.849,0,0,1,5.619-4.208,7.649,7.649,0,0,1,4.867,1.905c1.244,1.051,2.548,3.756,3.808,6.37a28.936,28.936,0,0,0,2.01,3.784l.465.614c.569.76,1.429,1.911,1.948,1.911.242,0,.631-.282,1.039-.751,1.4-1.6.879-3.613-.067-6.5-.2-.594-.387-1.175-.537-1.732-.4-1.449-1.157-5.1.323-7.683a4.829,4.829,0,0,1,3-2.3,7.372,7.372,0,0,1,1.944-.283c2.963,0,4.441,2.235,5.872,4.4,1.112,1.683,2.072,3.48,3,5.218.491.92.982,1.839,1.493,2.738a4.044,4.044,0,0,0,1,1.357c.015-.025.081-.074.174-.17.5-.578.188-3.881,0-5.853-.45-4.736-.958-10.1,2.916-10.545a3.564,3.564,0,0,1,.381-.022,2.9,2.9,0,0,1,2.235,1.031c1.937,2.222,1.271,7.527,1.188,8.124-.074.54-.16,1.049-.243,1.541-.325,1.9-.559,3.273.138,5.024.453,1.141.8,2.325,1.133,3.47l.369,1.247a5.979,5.979,0,0,0,.43,1.168,4.7,4.7,0,0,1,1.057,2.194l.293.951c.4,1.288-.051,2.572-9.424,6.408-5.89,2.41-13.843,5.188-22.393,7.821C100.878,114.759,88.176,117.74,83.677,117.74Z"/><path class="cls-3" d="M140.505,72.572c2.8,0,2.458,5.943,2.208,7.76-.369,2.677-1.057,4.608-.031,7.186.593,1.493,1,3.085,1.47,4.622.83,2.69.657.676,1.487,3.365,0,0,.189.62.294.956.486,1.585-13.4,7.266-31.006,12.689-14.5,4.464-27.01,7.362-31.25,7.362-.909,0-1.438-.133-1.524-.413-.1-.336-.281-.959-.281-.959-.669-2.168-2.161-8.024-4.873-9.826-2.361-1.568-5.131-2.183-6.8-4.8-1.585-2.483-.068-4.654,2.564-5.723a3.413,3.413,0,0,1,1.3-.252c5.2,0,11.412,11.006,14.02,11.006.372,0,.672-.225.884-.741.616-1.5-.261-3.157-.83-4.516a34.165,34.165,0,0,1-1.871-5.973c-.571-2.642.251-4.221,2.606-5.667a8.156,8.156,0,0,1,4.091-1.291,4.242,4.242,0,0,1,2.363.663c2.2,1.445,1.575,3.711,1.714,5.957a11.362,11.362,0,0,0,2.792,6.743,3.16,3.16,0,0,0,2.369,1.1,3.927,3.927,0,0,0,3.6-4.94c-1.179-3.885-4.811-9.3-3.389-13.4a4.629,4.629,0,0,1,4.46-3.383,6.409,6.409,0,0,1,4.074,1.616c1.782,1.5,4.266,8.2,5.642,9.969,1.025,1.317,2.054,3,3.382,3a2.723,2.723,0,0,0,1.965-1.173c2.393-2.75.459-6.4-.347-9.356-.775-2.843-1.114-7.5,2.461-8.472a6.178,6.178,0,0,1,1.623-.241c2.181,0,3.333,1.56,4.846,3.847,1.66,2.51,2.97,5.281,4.454,7.886.538.938,1.215,1.991,2.055,1.991a1.509,1.509,0,0,0,1.068-.557c2.161-2.228-2.417-15.509,2.175-16.032a2.253,2.253,0,0,1,.242-.014m0-2.455a4.729,4.729,0,0,0-.522.03c-5.069.577-4.45,7.11-4,11.88.065.681.143,1.5.2,2.283-.19-.349-.376-.7-.564-1.05-.943-1.762-1.915-3.585-3.06-5.316C131.1,75.74,129.287,73,125.665,73a8.6,8.6,0,0,0-2.267.326,6.049,6.049,0,0,0-3.744,2.872c-1.706,2.983-.877,7.019-.442,8.616.158.576.354,1.177.556,1.793.84,2.557,1.278,4.19.308,5.306-.039.045-.076.085-.11.121-.308-.329-.7-.856-.969-1.211-.159-.214-.318-.427-.477-.631a30.509,30.509,0,0,1-1.873-3.563c-1.619-3.356-2.78-5.64-4.124-6.776a8.867,8.867,0,0,0-5.658-2.194,7.112,7.112,0,0,0-6.778,5.032c-1.332,3.834.451,7.932,2.022,11.549a33.745,33.745,0,0,1,1.334,3.366,1.312,1.312,0,0,1-.243,1.16,1.421,1.421,0,0,1-1.006.612c-.076,0-.274,0-.559-.309a8.848,8.848,0,0,1-2.15-5.234c-.027-.422-.021-.843-.016-1.258.022-1.884.053-4.73-2.8-6.6a6.639,6.639,0,0,0-3.708-1.065,10.7,10.7,0,0,0-5.378,1.656c-3.315,2.036-4.5,4.665-3.718,8.276a36.708,36.708,0,0,0,1.561,5.29c-.1-.111-.2-.22-.291-.325-3.251-3.616-6.936-7.714-11.074-7.714a5.879,5.879,0,0,0-2.22.432,7.324,7.324,0,0,0-4.485,4.357,5.719,5.719,0,0,0,.775,4.962A12.6,12.6,0,0,0,73.6,106.22a20.734,20.734,0,0,1,2.046,1.139c1.7,1.129,3.115,5.92,3.65,7.723.087.293.164.555.234.78,0,0,.176.612.278.947.442,1.436,1.744,2.158,3.874,2.158,4.609,0,17.457-3,31.971-7.47,8.585-2.644,16.575-5.435,22.5-7.859,8.759-3.583,10.937-5.282,10.134-7.9l-.295-.954a6.222,6.222,0,0,0-1.205-2.542c-.047-.121-.139-.365-.281-.828-.124-.4-.244-.815-.366-1.227-.342-1.172-.694-2.384-1.168-3.578-.571-1.433-.383-2.537-.071-4.367.086-.5.176-1.025.25-1.578.207-1.5.711-6.586-1.478-9.1a4.144,4.144,0,0,0-3.161-1.451Z"/><g class="cls-4"><path class="cls-11" d="M77.259,103.213c4.931,3.622,5.134,5.271,8.042,10.282,4.089.349,52.459-13.837,57.08-14.419-5.168,2.558-15.442,6.375-27.454,10.074-17.613,5.422-32.287,8.534-32.774,6.949-.1-.336-.281-.959-.281-.959-.669-2.168-2.161-8.024-4.873-9.826-2.306-1.534-5.006-2.157-6.685-4.623C72.674,100.37,75.393,101.922,77.259,103.213Z"/></g><path class="cls-16" d="M167.385,123.679a10.164,10.164,0,1,1,.059,0Z"/><path class="cls-3" d="M167.386,104.477a8.965,8.965,0,0,1,.051,17.93h-.054a8.965,8.965,0,0,1-.051-17.93h.054m0-2.545h-.069a11.541,11.541,0,1,0,.069,0Z"/><g class="cls-4"><path class="cls-16" d="M166.391,104.532a8.964,8.964,0,0,0,4.292,16.862,9.117,9.117,0,0,0,.943-.055,8.965,8.965,0,1,1-5.235-16.807Z"/></g><path class="cls-17" d="M174.542,113.4c-.24-3.748-4.043-7.642-7.2-7.439a4.9,4.9,0,0,0-2.38.819,4.425,4.425,0,0,1,3.633-1.643c3.136-.2,6.765,3.095,6.993,6.65.126,1.889-.062,3.881-1.129,5.134A8.763,8.763,0,0,0,174.542,113.4Z"/><path class="cls-3" d="M169.158,117.485a2.706,2.706,0,0,0,1.259,3.157c1.116.537,2.635-.318,3.082-1.989s-.437-3.146-1.67-3.242A2.674,2.674,0,0,0,169.158,117.485Z"/><path class="cls-18" d="M169.3,104.272a17.527,17.527,0,0,1,.1,18.316"/><path class="cls-3" d="M165.654,117.5a2.709,2.709,0,0,1-1.22,3.172c-1.113.551-2.639-.287-3.109-1.955s.4-3.15,1.637-3.26A2.673,2.673,0,0,1,165.654,117.5Z"/><path class="cls-18" d="M165.365,104.3a17.55,17.55,0,0,0,.1,18.317"/><g class="cls-4"><path class="cls-11" d="M125.318,92.7a4.48,4.48,0,0,1-2.352,2.246,3.57,3.57,0,0,1-3.415-.3c.7.183,1.475-.075,2.377-1.117,2.393-2.75.459-6.4-.347-9.356a14.893,14.893,0,0,1-.447-2.4C124.074,84.591,126.153,88.388,125.318,92.7Z"/></g><g class="cls-4"><path class="cls-11" d="M106.048,100.531a1.808,1.808,0,0,1-1.529.389,3.846,3.846,0,0,0,1.275-4.031c-1.084-3.563-4.225-8.417-3.637-12.355C104.844,89.849,109.622,94.691,106.048,100.531Z"/></g><g class="cls-4"><path class="cls-11" d="M89.048,104.624c-.007,0-.012,0-.021-.006.473-1.449-.348-3.024-.9-4.326a34.165,34.165,0,0,1-1.871-5.973,4.5,4.5,0,0,1,.794-4.185c.955,1.926,2.384,3.673,3.464,5.668C91.826,98.823,93.165,105.638,89.048,104.624Z"/></g><path class="cls-12" d="M126.788,79.461c1.48,1.421,1.783,3.506,2.677,2.573s.427-2.841-1.053-4.263-3.405-1.817-4.3-.884S125.31,78.039,126.788,79.461Z"/><path class="cls-12" d="M108.708,84.363c1.478,1.42,1.779,3.5,2.675,2.573s.425-2.842-1.055-4.262-3.4-1.819-4.3-.886S107.226,82.941,108.708,84.363Z"/><path class="cls-12" d="M140.909,76.254c.476,1.266.063,2.595.862,2.293s1.062-1.569.586-2.838-1.51-2.052-2.309-1.75S140.434,74.985,140.909,76.254Z"/><path class="cls-12" d="M93.535,90.9c1.087,1.044,1.072,2.822,1.967,1.889a2.759,2.759,0,0,0-3.933-3.78C90.673,89.946,92.449,89.86,93.535,90.9Z"/><path class="cls-3" d="M87.461,134.94l-.117-.166c-.054-.127-.24-.225-.379-.347a8.364,8.364,0,0,0-1.649-.816,2.8,2.8,0,0,0-.5-.139c.017.009-.125-.032.027.014l-.083,0-.166-.016-.34-.028a2.49,2.49,0,0,0-.926.264c-.168.039-.27.2-.412.281l-.051.035-.025.017c-.022.019.174-.162.09-.083l0,0-.007.009-.016.018-.124.153-.262.293c-.175.2-.109.284-.207.406-.061.141-.1.369-.156.545a5.629,5.629,0,0,0-.12,1.3c.036.457.039.921.112,1.376.03.227.091.446.113.669.005.112.105.432.149.628a9.648,9.648,0,0,0,.354,1.15,8.786,8.786,0,0,0,.405.955c.128.295.255.554.369.762.213.428.325.691.325.691s-.242-.137-.65-.41a4.727,4.727,0,0,1-.7-.543,4.925,4.925,0,0,1-.826-.852,5.656,5.656,0,0,1-.772-1.175c-.115-.234-.2-.349-.349-.7-.1-.242-.18-.5-.262-.757a8.619,8.619,0,0,1-.339-1.68,7.485,7.485,0,0,1,.093-1.874,7.3,7.3,0,0,1,.339-.975,5.227,5.227,0,0,1,.616-.945l.278-.278.145-.132.131-.12.056-.034.115-.066a3.765,3.765,0,0,1,.924-.439,3.122,3.122,0,0,1,.979-.165,3.674,3.674,0,0,1,.931.1l.325.108.159.051.078.029c.2.059.112.046.18.073a4.3,4.3,0,0,1,.619.418,5.112,5.112,0,0,1,1.358,1.607A1.513,1.513,0,0,1,87.461,134.94Z"/><path class="cls-3" d="M82.314,137.229s.2-.01.54,0a3.772,3.772,0,0,1,1.365.25,6.1,6.1,0,0,1,1.815.949,4.526,4.526,0,0,1,.873.718c.268.279.537.563.808.846l.642.986a4.225,4.225,0,0,1,.5,1.026,5.416,5.416,0,0,1,.454,1.981,3.7,3.7,0,0,1-.148,1.434,4.565,4.565,0,0,1-.161.51s-.109-.185-.265-.48a9.616,9.616,0,0,0-.613-1.131,7.248,7.248,0,0,1-.417-.7c-.156-.24-.369-.474-.525-.736-.315-.524-.775-1.02-1.144-1.558-.44-.488-.818-1.047-1.255-1.49-.218-.219-.4-.481-.591-.7a6.547,6.547,0,0,1-.545-.578,11.046,11.046,0,0,0-.959-.941C82.444,137.384,82.314,137.229,82.314,137.229Z"/><path class="cls-3" d="M149.726,123.573s-.205-.348-.562-.958a4.684,4.684,0,0,0-.7-1.03,7.236,7.236,0,0,0-1.024-1.141c-.2-.189-.42-.386-.64-.59-.237-.182-.508-.338-.766-.515a9.753,9.753,0,0,0-1.737-.87,7.854,7.854,0,0,0-1.993-.337,7.048,7.048,0,0,0-2.04.2l-1.016.4a3.125,3.125,0,0,0-.877.511,8.041,8.041,0,0,0-1.494,1.291,9.756,9.756,0,0,0-1.039,1.641c-.129.285-.281.557-.388.836-.086.288-.168.568-.246.836a7.059,7.059,0,0,0-.287,1.525,4.665,4.665,0,0,0-.065,1.224c0,.705.009,1.108.009,1.108s-.148-.366-.383-1.048a4.112,4.112,0,0,1-.289-1.27,5.983,5.983,0,0,1-.062-1.715c.031-.319.063-.652.1-1,.063-.341.2-.676.3-1.033a8.354,8.354,0,0,1,1.022-2.122,7.892,7.892,0,0,1,1.856-1.834,5.356,5.356,0,0,1,1.152-.686l1.2-.493a8.911,8.911,0,0,1,2.67-.2,8.007,8.007,0,0,1,2.488.615,8.314,8.314,0,0,1,1.969,1.29,10.605,10.605,0,0,1,.791.729c.206.277.4.546.6.8a6.137,6.137,0,0,1,.84,1.52,3.9,3.9,0,0,1,.4,1.22C149.648,123.176,149.726,123.573,149.726,123.573Z"/><path class="cls-3" d="M121.229,132.077s-.237-.381-.623-1.058a5.045,5.045,0,0,0-.769-1.14,8.1,8.1,0,0,0-1.131-1.261l-.709-.651c-.263-.2-.561-.374-.845-.57a10.56,10.56,0,0,0-1.92-.96,8.6,8.6,0,0,0-2.2-.373,7.842,7.842,0,0,0-2.257.224l-1.121.438a3.422,3.422,0,0,0-.972.566,8.8,8.8,0,0,0-1.648,1.426,10.77,10.77,0,0,0-1.149,1.813c-.143.317-.308.616-.429.924q-.139.482-.272.925a8.108,8.108,0,0,0-.319,1.687,5.337,5.337,0,0,0-.071,1.354c.007.777.01,1.223.01,1.223s-.162-.405-.423-1.159a4.521,4.521,0,0,1-.318-1.4,6.655,6.655,0,0,1-.068-1.9c.034-.352.068-.719.1-1.1.07-.376.218-.747.334-1.142a9.163,9.163,0,0,1,1.129-2.345,8.71,8.71,0,0,1,2.05-2.03,6.016,6.016,0,0,1,1.272-.757l1.328-.545a9.831,9.831,0,0,1,2.951-.222,8.853,8.853,0,0,1,2.75.679,9.188,9.188,0,0,1,2.177,1.424,11.665,11.665,0,0,1,.874.808l.66.887a6.755,6.755,0,0,1,.93,1.68,4.306,4.306,0,0,1,.443,1.349C121.155,131.633,121.229,132.077,121.229,132.077Z"/><path class="cls-15" d="M131.4,149.173c-5.306,0-9.577-2.849-10.386-6.927a8.165,8.165,0,0,1,2.227-7.093,13.763,13.763,0,0,1,7.58-4.121,15.3,15.3,0,0,1,2.957-.293c5.306,0,9.576,2.848,10.384,6.927.974,4.921-3.425,9.951-9.809,11.214A15.171,15.171,0,0,1,131.4,149.173Z"/><path class="cls-3" d="M133.773,131.737c4.717,0,8.676,2.436,9.405,6.122.869,4.389-3.171,8.885-9.023,10.043a14.307,14.307,0,0,1-2.76.272c-4.717,0-8.676-2.436-9.407-6.122-.871-4.387,3.171-8.883,9.021-10.041a14.211,14.211,0,0,1,2.764-.274m0-2h0a16.373,16.373,0,0,0-3.152.311,14.783,14.783,0,0,0-8.127,4.433,9.14,9.14,0,0,0-2.464,7.954c.9,4.553,5.576,7.731,11.365,7.731a16.212,16.212,0,0,0,3.146-.312c6.924-1.37,11.677-6.927,10.6-12.388-.9-4.551-5.573-7.729-11.363-7.729Z"/><g class="cls-21"><path class="cls-22" d="M133.617,133.809c.653,1.162-.938,3.3-3.559,4.778s-5.273,1.729-5.928.568.936-3.3,3.557-4.779S132.961,132.646,133.617,133.809Z"/></g><g class="cls-4"><path class="cls-15" d="M143.178,137.859A6.883,6.883,0,0,0,140,133.44a6.352,6.352,0,0,1,1.413,2.885c.867,4.389-3.171,8.885-9.026,10.044a12.335,12.335,0,0,1-8.993-1.429c2.164,2.559,6.345,3.834,10.757,2.962C140.007,146.744,144.047,142.248,143.178,137.859Z"/></g><path class="cls-3" d="M152.053,136.483a1.608,1.608,0,0,1,.313-.229,2.689,2.689,0,0,1,.984-.32,2.2,2.2,0,0,1,.7,0,1.964,1.964,0,0,1,.772.163,7.52,7.52,0,0,1,.788.359,7.027,7.027,0,0,1,.665.574,3.033,3.033,0,0,1,.545.674,6.793,6.793,0,0,1,.339.743,2.692,2.692,0,0,1,.257,1.373,4.2,4.2,0,0,1-.2,1.35,6.439,6.439,0,0,1-.91-.959,3.933,3.933,0,0,1-.32-.453c-.118-.151-.286-.275-.4-.43a3.772,3.772,0,0,1-.364-.464c-.087-.188-.278-.259-.4-.4a5.552,5.552,0,0,0-.376-.416,3.1,3.1,0,0,1-.422-.343,2.615,2.615,0,0,0-.428-.319c-.151-.08-.283-.234-.432-.3-.295-.159-.555-.335-.759-.43A3.179,3.179,0,0,0,152.053,136.483Z"/><path class="cls-5" d="M143.7,167.1c-.279-.6-2.46.527-5.008,1.724s-4.508,2.013-4.227,2.609,2.945.572,5.5-.623S143.976,167.7,143.7,167.1Z"/><path class="cls-3" d="M102.94,153.379a2.589,2.589,0,0,1-.854-1.175,3.494,3.494,0,0,1-.261-1.5,4.041,4.041,0,0,1,.5-1.747,4.228,4.228,0,0,1,1.222-1.311,3.774,3.774,0,0,1,1.368-.581,3.178,3.178,0,0,1,1.035-.081,2.968,2.968,0,0,1,.4.046s-.087.132-.237.328-.387.427-.613.727a5.421,5.421,0,0,1-.378.433,3.775,3.775,0,0,1-.372.469,5.967,5.967,0,0,1-.349.484c-.1.166-.214.327-.3.5a6.913,6.913,0,0,0-.5,1.04c-.129.362-.258.733-.345,1.082C103.064,152.785,102.94,153.379,102.94,153.379Z"/><path class="cls-23" d="M135.813,169.153c-17.422,0-32.346-15.137-32.344-18.686a1.137,1.137,0,0,1,1.187-1.189,2.669,2.669,0,0,1,1.051.266c8.766,3.847,16.531,5.8,23.076,5.8h0c14.967,0,20.116-10.063,22.591-14.9.967-1.888,1.451-2.836,2.354-2.836h.164l.266.091c1.224.536,1.566,2.391,1.045,5.675-1.319,8.288-8.294,24.851-16.379,25.635-.994.1-2.006.145-3.009.145Z"/><path class="cls-3" d="M153.729,138.393a.281.281,0,0,1,.115.025c3.576,1.563-5.327,28.859-15.095,29.808-.991.1-1.966.142-2.936.142-19.369,0-34.22-18.3-31.157-18.3a1.956,1.956,0,0,1,.735.2c9.658,4.238,17.308,5.863,23.393,5.863,20.1,0,23.123-17.734,24.945-17.734m0-1.572c-1.383,0-2.012,1.228-3.055,3.263-2.4,4.7-7.4,14.471-21.89,14.471-6.437,0-14.094-1.927-22.762-5.73a3.412,3.412,0,0,0-1.366-.334,1.942,1.942,0,0,0-1.71.95c-.61,1.058-.038,2.294.447,3.132,2.568,4.45,15.537,17.366,32.42,17.366,1.031,0,2.069-.049,3.087-.149,4.876-.472,8.867-5.946,11.358-10.456a53.459,53.459,0,0,0,5.721-15.838c.374-2.354.625-5.588-1.505-6.519a1.86,1.86,0,0,0-.745-.156Z"/><path class="cls-24" d="M135.842,169.187a33.7,33.7,0,0,1-8.35-1.083.821.821,0,0,1-.384-1.368c3.815-3.927,10.317-4.752,15.1-4.752,1.262,0,2.576.056,3.908.165a.822.822,0,0,1,.586,1.317c-2.625,3.449-5.274,5.325-7.873,5.577-.986.1-1.99.144-2.986.144Z"/><path class="cls-3" d="M142.208,162.806c1.331,0,2.625.062,3.84.162-2.235,2.936-4.736,5.009-7.3,5.258q-1.47.141-2.907.14a32.75,32.75,0,0,1-8.145-1.058c3.421-3.52,9.233-4.5,14.511-4.5m0-1.643c-7.186,0-12.465,1.681-15.689,5a1.643,1.643,0,0,0,.77,2.736,34.479,34.479,0,0,0,8.553,1.111c1.022,0,2.055-.051,3.066-.149,2.836-.276,5.677-2.258,8.448-5.9a1.643,1.643,0,0,0-1.172-2.633c-1.355-.112-2.692-.168-3.976-.168Z"/><path class="cls-22" d="M127.55,160.582a3.871,3.871,0,0,1-2.77-1.021,3.17,3.17,0,0,1-2.041.661,4.777,4.777,0,0,1-.733-.058,4.139,4.139,0,0,1-2.7-1.441,3.056,3.056,0,0,1-1.51.339,9.21,9.21,0,0,1-1.214-.1c-2.174-.295-3.454-.847-4.152-1.786-.825-1.113-.6-2.53-.4-3.78.022-.133.044-.259.077-.384a.775.775,0,0,1,.379-.494.784.784,0,0,1,.383-.1.807.807,0,0,1,.237.036,50.535,50.535,0,0,0,15.069,2.589c11.265,0,17.051-5.322,19.5-8.5a.793.793,0,0,1,.584-.305h.039a.789.789,0,0,1,.573.246,4.365,4.365,0,0,1,1.319,3.437,4.826,4.826,0,0,1-1.678,3.105c-.224.161-.447.356-.671.549a3.681,3.681,0,0,1-2.027,1.138,4.537,4.537,0,0,1-3.972,2.721h0a2.851,2.851,0,0,1-1.092-.21,3.869,3.869,0,0,1-2.36,1.771,4.413,4.413,0,0,1-1.27.2,3.107,3.107,0,0,1-1.57-.4,3.689,3.689,0,0,1-2.521,1.4,4.831,4.831,0,0,1-.694.052,3.457,3.457,0,0,1-2.119-.67,3.547,3.547,0,0,1-2.643,1.007Z"/><path class="cls-3" d="M148.29,147.03a3.587,3.587,0,0,1-.244,5.364c-.795.569-1.608,1.541-2.319,1.541a.76.76,0,0,1-.5-.19,3.2,3.2,0,0,1-1.991,2.559,3.367,3.367,0,0,1-1.4.35,1.982,1.982,0,0,1-1.482-.628,2.9,2.9,0,0,1-2.2,2.221,3.65,3.65,0,0,1-1.044.166,2.214,2.214,0,0,1-1.822-.865,2.661,2.661,0,0,1-2.381,1.866,4.015,4.015,0,0,1-.582.044,2.513,2.513,0,0,1-2.232-1.151,2.482,2.482,0,0,1-2.53,1.49h-.013a2.91,2.91,0,0,1-2.744-1.5,2.159,2.159,0,0,1-2.069,1.139,4.107,4.107,0,0,1-.616-.049,3.186,3.186,0,0,1-2.638-1.881,1.835,1.835,0,0,1-1.693.77,8.487,8.487,0,0,1-1.111-.093c-4.416-.6-4.263-2.248-3.877-4.663.017-.1.034-.208.061-.315a51.013,51.013,0,0,0,15.306,2.626c10.359,0,16.685-4.348,20.119-8.8m0-1.573-.078,0a1.576,1.576,0,0,0-1.168.611c-2.357,3.058-7.945,8.188-18.873,8.188a49.775,49.775,0,0,1-14.832-2.552,1.573,1.573,0,0,0-2,1.111c-.038.149-.065.3-.088.44-.215,1.348-.481,3.008.541,4.388.835,1.122,2.276,1.769,4.674,2.1a10.079,10.079,0,0,0,1.324.108,4.29,4.29,0,0,0,1.316-.191,5.111,5.111,0,0,0,2.788,1.285,5.79,5.79,0,0,0,.843.064,4.159,4.159,0,0,0,1.992-.475,4.855,4.855,0,0,0,2.817.838,4.56,4.56,0,0,0,2.74-.815,4.373,4.373,0,0,0,2.039.476,5.514,5.514,0,0,0,.812-.061,4.638,4.638,0,0,0,2.615-1.216,3.981,3.981,0,0,0,1.358.231,5.206,5.206,0,0,0,1.5-.232,4.828,4.828,0,0,0,2.459-1.6,3.786,3.786,0,0,0,.767.076,4.907,4.907,0,0,0,2.071-.5,5.042,5.042,0,0,0,2.448-2.3,5.193,5.193,0,0,0,1.993-1.248c.2-.178.41-.357.615-.5a5.614,5.614,0,0,0,2-3.671,5.079,5.079,0,0,0-1.531-4.051,1.57,1.57,0,0,0-1.143-.493Z"/><path class="cls-11" d="M119.8,156.961c-.695-.519-1.231.365-1.741,1.3a1.723,1.723,0,0,0,1.429-.76,2.839,2.839,0,0,0,.667.979C120.078,157.816,120.14,157.181,119.8,156.961Z"/><path class="cls-11" d="M124.958,157.433c-1.026-.207-.937.731-.9,1.676a1.962,1.962,0,0,0,.751-.812,2.614,2.614,0,0,0,1,1.064C125.523,158.479,125.466,157.5,124.958,157.433Z"/><path class="cls-11" d="M130.537,158.012c-.886-.1-1.119.545-1.251,1.324a2.168,2.168,0,0,0,.809-1.029,2.376,2.376,0,0,0,1.106.939C131.014,158.662,130.947,158.066,130.537,158.012Z"/><path class="cls-11" d="M134.921,157.294a1.866,1.866,0,0,0-.417,1.468,2.383,2.383,0,0,0,.786-1.214,2.177,2.177,0,0,0,1.185.786C135.974,157.506,135.6,156.608,134.921,157.294Z"/><path class="cls-11" d="M139.638,157.4a2.626,2.626,0,0,0,.714-1.37,2.1,2.1,0,0,0,2.091.555,3.462,3.462,0,0,0-1.816-.931C139.5,155.543,139.574,156.471,139.638,157.4Z"/><path class="cls-11" d="M144.205,153.323a2.344,2.344,0,0,0,.12,2.249,2.91,2.91,0,0,0,.9-1.827.948.948,0,0,0,1.194-.057C145.757,153.131,144.545,152.794,144.205,153.323Z"/><path class="cls-11" d="M114.351,153.657q-.737-.216-1.486-.452c-.027.107-.044.212-.061.315-.336,2.076-.488,3.586,2.285,4.35A9.463,9.463,0,0,1,114.351,153.657Z"/></g></g></svg>