<svg xmlns="http://www.w3.org/2000/svg" viewBox="0 0 200 200"><defs><style>.cls-1{isolation:isolate;}.cls-2,.cls-5{fill:#fccbaa;}.cls-3{fill:#3b2314;}.cls-4,.cls-5{mix-blend-mode:multiply;}.cls-6,.cls-8{fill:#faaf40;}.cls-18,.cls-19,.cls-6{stroke:#3b2314;}.cls-6{stroke-linecap:round;stroke-miterlimit:10;stroke-width:1.238px;}.cls-7{fill:#f8a576;}.cls-9{fill:#00a69c;}.cls-10{fill:#26a9e0;}.cls-11{fill:#d0d2d3;}.cls-12,.cls-17,.cls-21{fill:#fff;}.cls-12,.cls-22{opacity:0.3;}.cls-13{fill:#5661ab;}.cls-14{fill:#929497;}.cls-15{fill:#8bc53f;}.cls-16{fill:#ffc609;}.cls-17{opacity:0.6;}.cls-18,.cls-19{fill:none;stroke-linecap:square;stroke-linejoin:round;}.cls-18{stroke-width:0.515px;}.cls-19{stroke-width:0.453px;}.cls-20{fill:#cd383a;}</style></defs><g class="cls-1"><g id="Layer_1" data-name="Layer 1"><path class="cls-2" d="M135.5,178.639c-4.739,0-13.678-3.83-16.616-5.088-.4-.172-.67-.288-.767-.323l.023-.063c-2.125-.694-10.109-5.027-10.2-5.076-7.132-3.974-11.741-7.427-13.7-10.264-2.161-3.134-2.541-7.732-1.059-12.658-1.53-3.891-3.532-15.409-3.741-18.446C88.621,114.96,88.386,101.7,96,93.231c4.982-5.541,12.593-8.426,23.268-8.82q.644-.024,1.27-.023c17.827,0,29.214,14.364,32.942,41.547,4.672,2.986,7.5,6.987,7.778,11.03.561,8.1-8.6,26.065-8.992,26.826-2.854,9.24-8.331,14.283-16.216,14.83C135.871,178.632,135.687,178.639,135.5,178.639Z"/><path class="cls-3" d="M120.538,85.364c23.177,0,29.844,24.713,32.036,41.155,4.169,2.559,7.421,6.337,7.709,10.513.55,7.926-8.886,26.313-8.886,26.313-2.472,7.963-7.167,13.729-15.415,14.3-.155.012-.318.017-.487.017-5.385,0-16.906-5.366-17.093-5.366h0s-18.844-8.487-23.358-15.027c-2.225-3.229-2.2-7.8-.825-12.153-1.472-3.331-3.588-15.316-3.8-18.463-1.306-18.768-1.1-40.163,28.891-41.268q.624-.023,1.233-.023m0-1.953c-.431,0-.865.008-1.306.024-10.954.4-18.789,3.395-23.958,9.143-7.869,8.755-7.641,22.25-6.809,34.212.212,3.081,2.115,14.105,3.686,18.415-1.455,5.093-1,9.863,1.282,13.174,4.769,6.91,23.376,15.343,24.165,15.7l1,.449.034-.021c3.11,1.332,12,5.109,16.866,5.109q.324,0,.623-.02c8.281-.575,14.032-5.792,17.094-15.509.979-1.926,9.58-19.121,9.02-27.189-.293-4.242-3.139-8.407-7.845-11.537-3.868-27.451-15.561-41.949-33.849-41.949Z"/><g class="cls-4"><path class="cls-2" d="M148.593,127.18a55.37,55.37,0,0,1,6.811,1.4,22,22,0,0,0-2.83-2.057c-.146-1.1-.288-2.249-.431-3.426A11.954,11.954,0,0,1,148.593,127.18Z"/></g><g class="cls-4"><path class="cls-2" d="M105.55,141.931c-2.094-5.664-5.163-11.119-6.28-16.992a110.712,110.712,0,0,1-2.065-31.113c-7.822,8.124-7.628,20.816-6.791,32.829.215,3.147,2.331,15.132,3.8,18.463-1.38,4.348-1.4,8.924.825,12.153,2.025,2.934,6.937,6.261,11.735,9.037C104.821,163.264,91.408,147.265,105.55,141.931Z"/></g><path class="cls-5" d="M120.6,143.719s2.348,8.339,10.854,6.8S141.8,148.093,142,140.338,120.6,143.719,120.6,143.719Z"/><path class="cls-6" d="M84.763,113.247s-2.668,5.814-2.163,10.54,7.019,10.94,11.138,14.279-4.753-16.109-3.546-23.725-4.925-1.917-4.925-1.917Z"/><path class="cls-7" d="M96.035,138.342s-3.6-1.784-4-2.341c-.892-1.25-1.392-4.4-2-5.807-3-6.957-11.814-2.4-12.388,3.485-.873,8.923,7.753,19.683,12.81,18.471,4.485-1.076,4.007-7.811,4.007-7.811"/><path class="cls-3" d="M96.035,138.342s-.918-.339-2.474-1.076c-.386-.193-.814-.4-1.275-.681a1.933,1.933,0,0,1-.367-.272l-.1-.083c-.024-.031-.01.006-.069-.079l-.023-.045-.1-.18c-.136-.242-.278-.492-.424-.751-.282-.526-.479-1.183-.743-1.838-.225-.626-.411-1.327-.664-1.974-.121-.3-.262-.7-.368-.933-.194-.328-.393-.662-.593-1-.222-.281-.449-.5-.662-.76a9.582,9.582,0,0,0-.841-.619,4.8,4.8,0,0,0-4.307.045,7.811,7.811,0,0,0-3.591,3.349,6.439,6.439,0,0,0-.753,2.279l-.04,1.461c-.006.483.078.883.106,1.327a19.393,19.393,0,0,0,1.419,5.288,25.566,25.566,0,0,0,2.668,4.693,17.206,17.206,0,0,0,3.444,3.622,5.926,5.926,0,0,0,3.834,1.465c.053,0,.2-.012.179,0l.26-.075.512-.149a5.463,5.463,0,0,0,.738-.411,4.394,4.394,0,0,0,1.2-1.223,8.339,8.339,0,0,0,1.107-2.745,12.759,12.759,0,0,0,.361-2.641s.023.244.07.7a11.079,11.079,0,0,1-.027,2.006,8.9,8.9,0,0,1-.833,3.07,5.3,5.3,0,0,1-1.255,1.629,4.877,4.877,0,0,1-1,.667l-.5.192-.252.1a2.438,2.438,0,0,1-.361.064,6.89,6.89,0,0,1-4.935-1.37,16.992,16.992,0,0,1-4.014-3.783A21.981,21.981,0,0,1,76.656,136.7c-.033-.529-.109-1.1-.093-1.591l.057-1.46a8.189,8.189,0,0,1,1.044-3.195,9.409,9.409,0,0,1,4.641-4.063,6.326,6.326,0,0,1,5.839.32,9.689,9.689,0,0,1,1.093.921,12.644,12.644,0,0,1,.829,1.128c.171.357.338.706.5,1.05.185.472.245.792.368,1.182.212.741.341,1.411.49,2.065.167.606.247,1.2.462,1.751l.333.8.08.192.02.047c-.037-.062.005,0,0-.009l.055.052a1.305,1.305,0,0,0,.242.222c.383.307.784.565,1.138.8Z"/><path class="cls-8" d="M53.237,94.209a1.248,1.248,0,0,1-.948-.437,38.311,38.311,0,0,1-7.477-13.684A39.219,39.219,0,0,1,47.667,49.37C52.7,40.461,61.442,34.24,72.949,31.378a30.188,30.188,0,0,1,7.278-.892c14.434,0,27.229,10.063,31.839,25.042,2.218,7.2,9.332,25.487,9.4,25.671a1.244,1.244,0,0,1-.819,1.649L88.8,91.916a1.244,1.244,0,0,1-1.579-1.069C85.093,70.387,80.5,48.3,76.789,48.3A30.776,30.776,0,0,0,57.254,63.441,38.188,38.188,0,0,0,54.427,92.6a1.245,1.245,0,0,1-1.19,1.612Z"/><path class="cls-3" d="M80.229,31.732c13.31,0,26.034,9.174,30.647,24.162,2.256,7.322,9.433,25.756,9.433,25.756L88.462,90.718S83.916,47.059,76.789,47.059a1.79,1.79,0,0,0-.471.063c-21.185,5.7-28.5,28.243-23.081,45.842A37.284,37.284,0,0,1,46,79.721c-5.419-17.6.848-40.569,27.247-47.134a28.9,28.9,0,0,1,6.98-.855m0-2.491h0a31.4,31.4,0,0,0-7.58.929C60.8,33.115,51.789,39.543,46.582,48.758c-5.23,9.261-6.31,20.814-2.96,31.7a39.56,39.56,0,0,0,7.721,14.127,2.49,2.49,0,0,0,4.274-2.35,36.911,36.911,0,0,1,2.728-28.187A29.528,29.528,0,0,1,76.7,49.6c2.932,2.109,7.143,20.8,9.285,41.376a2.492,2.492,0,0,0,2.478,2.233,2.541,2.541,0,0,0,.683-.095l31.847-9.068a2.492,2.492,0,0,0,1.637-3.3c-.069-.183-7.169-18.433-9.373-25.585-4.773-15.5-18.045-25.92-33.027-25.92Z"/><path class="cls-9" d="M53.237,94.209a1.248,1.248,0,0,1-.948-.437,38.311,38.311,0,0,1-7.477-13.684A39.219,39.219,0,0,1,47.667,49.37C52.7,40.461,61.442,34.24,72.949,31.378a30.188,30.188,0,0,1,7.278-.892c14.434,0,27.229,10.063,31.839,25.042,2.218,7.2,9.332,25.487,9.4,25.671a1.244,1.244,0,0,1-.819,1.649l-19.622,5.587a1.262,1.262,0,0,1-.341.047,1.244,1.244,0,0,1-1.172-.825C86.637,51.724,79.8,47.845,77.453,47.845a2.506,2.506,0,0,0-1.42.512,3.368,3.368,0,0,1-.517.288C58.565,55.576,49.1,75.293,54.427,92.6a1.245,1.245,0,0,1-1.19,1.612Z"/><path class="cls-3" d="M80.229,31.732c13.31,0,26.034,9.174,30.647,24.162,2.256,7.322,9.433,25.756,9.433,25.756l-19.622,5.587C88,51.825,80.879,46.6,77.455,46.6a4.54,4.54,0,0,0-2.41.893c-18,7.358-27.111,28.231-21.808,45.471A37.284,37.284,0,0,1,46,79.721c-5.419-17.6.848-40.569,27.247-47.134a28.9,28.9,0,0,1,6.98-.855m0-2.491h0a31.4,31.4,0,0,0-7.58.929C60.8,33.115,51.789,39.543,46.582,48.758c-5.23,9.261-6.31,20.814-2.96,31.7a39.56,39.56,0,0,0,7.721,14.127,2.49,2.49,0,0,0,4.274-2.35c-5.137-16.7,4-35.74,20.37-42.433a4.217,4.217,0,0,0,.722-.4,1.359,1.359,0,0,1,.744-.313c.708,0,7.31,1.1,20.889,38.987a2.486,2.486,0,0,0,3.026,1.555l19.624-5.586a2.492,2.492,0,0,0,1.637-3.3c-.069-.183-7.169-18.433-9.373-25.585-4.773-15.5-18.045-25.92-33.027-25.92Z"/><path class="cls-8" d="M53.237,94.209a1.248,1.248,0,0,1-.948-.437,38.311,38.311,0,0,1-7.477-13.684A39.219,39.219,0,0,1,47.667,49.37C52.7,40.461,61.442,34.24,72.949,31.378a30.188,30.188,0,0,1,7.278-.892c14.434,0,27.229,10.063,31.839,25.042,2.218,7.2,9.332,25.487,9.4,25.671a1.244,1.244,0,0,1-.819,1.649L88.8,91.916a1.244,1.244,0,0,1-1.579-1.069C85.093,70.387,80.5,48.3,76.789,48.3A30.776,30.776,0,0,0,57.254,63.441,38.188,38.188,0,0,0,54.427,92.6a1.245,1.245,0,0,1-1.19,1.612Z"/><path class="cls-3" d="M80.229,31.732c13.31,0,26.034,9.174,30.647,24.162,2.256,7.322,9.433,25.756,9.433,25.756L88.462,90.718S83.916,47.059,76.789,47.059a1.79,1.79,0,0,0-.471.063c-21.185,5.7-28.5,28.243-23.081,45.842A37.284,37.284,0,0,1,46,79.721c-5.419-17.6.848-40.569,27.247-47.134a28.9,28.9,0,0,1,6.98-.855m0-2.491h0a31.4,31.4,0,0,0-7.58.929C60.8,33.115,51.789,39.543,46.582,48.758c-5.23,9.261-6.31,20.814-2.96,31.7a39.56,39.56,0,0,0,7.721,14.127,2.49,2.49,0,0,0,4.274-2.35,36.911,36.911,0,0,1,2.728-28.187A29.528,29.528,0,0,1,76.7,49.6c2.932,2.109,7.143,20.8,9.285,41.376a2.492,2.492,0,0,0,2.478,2.233,2.541,2.541,0,0,0,.683-.095l31.847-9.068a2.492,2.492,0,0,0,1.637-3.3c-.069-.183-7.169-18.433-9.373-25.585-4.773-15.5-18.045-25.92-33.027-25.92Z"/><path class="cls-10" d="M53.237,94.209a1.248,1.248,0,0,1-.948-.437,38.311,38.311,0,0,1-7.477-13.684A39.219,39.219,0,0,1,47.667,49.37C52.7,40.461,61.442,34.24,72.949,31.378a30.188,30.188,0,0,1,7.278-.892c14.434,0,27.229,10.063,31.839,25.042,2.218,7.2,9.332,25.487,9.4,25.671a1.244,1.244,0,0,1-.819,1.649l-19.622,5.587a1.262,1.262,0,0,1-.341.047,1.244,1.244,0,0,1-1.172-.825C86.637,51.724,79.8,47.845,77.453,47.845a2.506,2.506,0,0,0-1.42.512,3.368,3.368,0,0,1-.517.288C58.565,55.576,49.1,75.293,54.427,92.6a1.245,1.245,0,0,1-1.19,1.612Z"/><path class="cls-3" d="M80.229,31.732c13.31,0,26.034,9.174,30.647,24.162,2.256,7.322,9.433,25.756,9.433,25.756l-19.622,5.587C88,51.825,80.879,46.6,77.455,46.6a4.54,4.54,0,0,0-2.41.893c-18,7.358-27.111,28.231-21.808,45.471A37.284,37.284,0,0,1,46,79.721c-5.419-17.6.848-40.569,27.247-47.134a28.9,28.9,0,0,1,6.98-.855m0-2.491h0a31.4,31.4,0,0,0-7.58.929C60.8,33.115,51.789,39.543,46.582,48.758c-5.23,9.261-6.31,20.814-2.96,31.7a39.56,39.56,0,0,0,7.721,14.127,2.49,2.49,0,0,0,4.274-2.35c-5.137-16.7,4-35.74,20.37-42.433a4.217,4.217,0,0,0,.722-.4,1.359,1.359,0,0,1,.744-.313c.708,0,7.31,1.1,20.889,38.987a2.486,2.486,0,0,0,3.026,1.555l19.624-5.586a2.492,2.492,0,0,0,1.637-3.3c-.069-.183-7.169-18.433-9.373-25.585-4.773-15.5-18.045-25.92-33.027-25.92Z"/><g class="cls-4"><path class="cls-11" d="M103.918,55.341c2.524-1.949,2.783-4.941,3.026-8.112a37.021,37.021,0,0,1,3.932,8.665c2.256,7.322,9.433,25.756,9.433,25.756L88.462,90.718s-2.416-23.19-6.486-35.768c.076,0,.155,0,.23,0C89.3,55.005,97.851,59.815,103.918,55.341Z"/></g><path class="cls-12" d="M86.271,39.8c6.841,2.662,15.451,15.285,17.225,7.6.533-2.321-6.341-10.3-16.423-13.555A28.142,28.142,0,0,0,64.86,36.131S77.176,36.26,86.271,39.8Z"/><path class="cls-13" d="M106.12,106.053a1.248,1.248,0,0,1-1.241-1.144c-.02-.235-1.9-23.666-.727-40.8,1.292-18.847,14.5-35.8,32.112-41.221a29.507,29.507,0,0,1,8.692-1.254c12.429,0,26.173,6.89,33.425,16.755a1.245,1.245,0,0,1-1.7,1.769,29.046,29.046,0,0,0-16.27-5.171,26.372,26.372,0,0,0-7.759,1.167c-15.493,4.771-23.724,22.868-18.347,40.343a36.44,36.44,0,0,0,8.778,14.813,1.245,1.245,0,0,1-1.176,2.085,6.892,6.892,0,0,0-1.579-.158c-9.62,0-33.386,12.548-33.624,12.675A1.244,1.244,0,0,1,106.12,106.053Z"/><path class="cls-3" d="M144.958,22.876c12.35,0,25.676,7.072,32.42,16.247a30.341,30.341,0,0,0-16.967-5.385,27.532,27.532,0,0,0-8.125,1.223c-16.179,4.981-24.758,23.739-19.17,41.9A37.5,37.5,0,0,0,142.2,92.18a8.1,8.1,0,0,0-1.869-.192c-10.045,0-34.208,12.819-34.208,12.819s-1.909-23.374-.725-40.617c1.191-17.383,13.341-34.607,31.235-40.116a28.239,28.239,0,0,1,8.328-1.2m0-2.491h0a30.8,30.8,0,0,0-9.062,1.308c-18.1,5.572-31.66,22.978-32.987,42.327-1.182,17.231.649,40.028.729,40.99a2.489,2.489,0,0,0,3.649,2c6.571-3.484,25.313-12.529,33.041-12.529a5.684,5.684,0,0,1,1.289.124,2.49,2.49,0,0,0,2.353-4.17A35.188,35.188,0,0,1,135.5,76.126c-5.173-16.818,2.686-34.217,17.523-38.785a25.12,25.12,0,0,1,7.393-1.113,27.811,27.811,0,0,1,15.572,4.958,2.491,2.491,0,0,0,3.4-3.539c-7.472-10.163-21.631-17.262-34.427-17.262Z"/><path class="cls-8" d="M120.374,99.244a1.247,1.247,0,0,1-1.243-1.175,268.766,268.766,0,0,1-.418-26.879c.878-18.736,13.03-35.374,29.554-40.46a25.851,25.851,0,0,1,7.624-1.1,39.8,39.8,0,0,1,20.405,6.28,1.282,1.282,0,0,1,.282.238c.656.748,1.264,1.5,1.8,2.239a1.245,1.245,0,0,1-1.7,1.768,29.046,29.046,0,0,0-16.27-5.171,26.372,26.372,0,0,0-7.759,1.167c-15.493,4.771-23.724,22.868-18.347,40.343a36.44,36.44,0,0,0,8.778,14.813,1.245,1.245,0,0,1-1.176,2.085,6.892,6.892,0,0,0-1.579-.158c-3.8,0-10.53,2.043-19.459,5.908A1.245,1.245,0,0,1,120.374,99.244Z"/><path class="cls-3" d="M155.891,30.875c6.656,0,13.692,2.353,19.751,6.094.618.7,1.2,1.421,1.736,2.154a30.341,30.341,0,0,0-16.967-5.385,27.532,27.532,0,0,0-8.125,1.223c-16.179,4.981-24.758,23.739-19.17,41.9A37.5,37.5,0,0,0,142.2,92.18a8.1,8.1,0,0,0-1.869-.192c-4.813,0-12.867,2.943-19.954,6.01-.456-7.981-.817-18.142-.416-26.751.808-17.264,11.931-34.172,28.675-39.327a24.609,24.609,0,0,1,7.258-1.045m0-2.491h0a27.145,27.145,0,0,0-7.99,1.155c-17.016,5.239-29.529,22.342-30.432,41.592-.335,7.2-.194,16.286.417,27.009a2.491,2.491,0,0,0,3.477,2.144c11.086-4.8,16.432-5.806,18.965-5.806a5.678,5.678,0,0,1,1.289.124,2.49,2.49,0,0,0,2.353-4.17A35.188,35.188,0,0,1,135.5,76.126c-5.173-16.818,2.686-34.217,17.523-38.785a25.12,25.12,0,0,1,7.393-1.113,27.811,27.811,0,0,1,15.572,4.958,2.491,2.491,0,0,0,3.4-3.536c-.564-.768-1.193-1.55-1.874-2.325a2.577,2.577,0,0,0-.562-.475,41.057,41.057,0,0,0-21.06-6.466Z"/><g class="cls-4"><path class="cls-14" d="M124.949,51.1c1.468-5.191,7.265-6.5,12.8-5.628-6.056,8.318-8.144,19.97-4.63,31.387A37.5,37.5,0,0,0,142.2,92.18c-.134-.033-.272-.06-.418-.085-.044-.007-.1-.011-.142-.019-.1-.015-.2-.029-.3-.04l-.186-.014c-.092-.007-.185-.016-.285-.021-.069,0-.142,0-.212-.007-.094,0-.185-.006-.28-.006-.078,0-.157,0-.233,0L139.85,92c-.081,0-.165.009-.247.013l-.3.018c-.087,0-.173.014-.26.022-.1.009-.2.018-.3.029s-.182.021-.275.033-.207.024-.313.038-.191.027-.283.041l-.322.048-.3.051c-.113.019-.222.037-.331.058s-.2.039-.3.058l-.341.067-.314.068-.346.075-.318.076-.358.084-.325.082c-.122.03-.242.061-.364.093s-.219.058-.33.087l-.376.1c-.11.03-.219.061-.33.093l-.386.111c-.11.031-.222.064-.332.1-.132.04-.263.078-.4.12-.11.033-.219.066-.33.1-.134.042-.272.084-.409.128l-.33.106c-.139.044-.277.089-.415.135l-.332.11-.425.142-.325.112c-.149.052-.295.1-.44.154-.106.036-.212.072-.319.111-.152.053-.3.107-.452.161l-.31.112c-.156.056-.315.114-.471.172l-.293.108c-.162.061-.325.122-.487.185-.094.035-.187.07-.283.1l-.5.195-.264.1-.532.207-.238.095c-.186.073-.371.149-.559.223l-.207.082-.6.244c-.053.023-.106.043-.161.066-.22.09-.439.18-.654.27l-.106.044-.711.3-.048.021c-.511.214-1.021.431-1.523.65-7.7,3.331-14.254,6.809-14.254,6.809s-1.474-18.083-1.027-34.172C113.95,66.751,122.006,61.821,124.949,51.1Z"/></g><path class="cls-12" d="M124.043,38.917c-7.941,8.375-10.735,24.934-16.292,21.215-1.677-1.125,2.857-15.76,12.644-24.632,14.747-13.363,26.926-10.9,26.926-10.9S131.984,30.542,124.043,38.917Z"/><path class="cls-15" d="M85.366,112.023a1.221,1.221,0,0,1-.2-.015,1.247,1.247,0,0,1-1.037-1.083A36.428,36.428,0,0,0,78.042,94.82c-6.594-9.692-16.97-15.479-27.755-15.479A26.884,26.884,0,0,0,35.08,83.949,28.1,28.1,0,0,0,23.2,105.213a1.247,1.247,0,0,1-1.129,1.141,1.087,1.087,0,0,1-.114,0,1.247,1.247,0,0,1-1.2-.923c-3.6-13.439,1.243-33.754,14.2-42.574A44.7,44.7,0,0,1,60.24,55.289,47.686,47.686,0,0,1,87.2,63.532c14.117,9.785,31.239,25.891,31.411,26.053a1.244,1.244,0,0,1-.361,2.048c-7.86,3.4-28.892,13.571-31.761,19.675A1.245,1.245,0,0,1,85.366,112.023Z"/><path class="cls-3" d="M60.24,56.534A46.456,46.456,0,0,1,86.5,64.555C100.7,74.4,117.76,90.49,117.76,90.49s-28.7,12.419-32.394,20.288a37.5,37.5,0,0,0-6.3-16.659C72.049,83.8,61.006,78.1,50.287,78.1a28.06,28.06,0,0,0-15.908,4.823c-7.466,5.081-11.71,13.272-12.426,22.2-3.632-13.542,1.455-32.888,13.7-41.222A43.575,43.575,0,0,1,60.24,56.534m0-2.49a45.916,45.916,0,0,0-25.984,7.789c-13.837,9.415-18.408,30.131-14.709,43.926a2.492,2.492,0,0,0,2.405,1.846c.074,0,.15,0,.227-.01a2.491,2.491,0,0,0,2.257-2.282A26.859,26.859,0,0,1,35.781,84.978a25.646,25.646,0,0,1,14.506-4.392c10.373,0,20.364,5.583,26.724,14.934a35.178,35.178,0,0,1,5.883,15.551,2.488,2.488,0,0,0,2.074,2.166,2.445,2.445,0,0,0,.4.032,2.489,2.489,0,0,0,2.254-1.431c2.4-5.108,20.37-14.4,31.13-19.062a2.491,2.491,0,0,0,.719-4.1c-.7-.662-17.362-16.33-31.554-26.17A48.959,48.959,0,0,0,60.24,54.044Z"/><path class="cls-8" d="M85.366,112.023a1.221,1.221,0,0,1-.2-.015,1.247,1.247,0,0,1-1.037-1.083A36.428,36.428,0,0,0,78.042,94.82c-6.594-9.692-16.97-15.479-27.755-15.479A26.884,26.884,0,0,0,35.08,83.949,28.1,28.1,0,0,0,23.2,105.213a1.244,1.244,0,0,1-1.131,1.141,1.049,1.049,0,0,1-.112,0,1.246,1.246,0,0,1-1.2-.927c-.242-.915-.45-1.859-.615-2.8a1.222,1.222,0,0,1-.01-.367c1.33-10.9,6.363-20.3,13.461-25.126A39.955,39.955,0,0,1,56.2,70.426a47.053,47.053,0,0,1,27.441,8.9A266.822,266.822,0,0,1,104.37,96.445a1.244,1.244,0,0,1-.248,2.026c-9.96,5.281-16.22,9.84-17.629,12.837A1.245,1.245,0,0,1,85.366,112.023Z"/><path class="cls-3" d="M56.2,71.671a46,46,0,0,1,26.711,8.665c6.975,5.063,14.684,11.692,20.63,17.035-7.806,4.139-16.275,9.37-18.173,13.407a37.5,37.5,0,0,0-6.3-16.659C72.049,83.8,61.006,78.1,50.287,78.1a28.06,28.06,0,0,0-15.908,4.823c-7.466,5.081-11.71,13.272-12.426,22.2-.232-.877-.431-1.78-.593-2.7,1.187-9.718,5.578-19.246,12.926-24.247A38.734,38.734,0,0,1,56.2,71.671m0-2.491a41.2,41.2,0,0,0-23.314,6.926c-7.391,5.03-12.623,14.751-14,26a2.474,2.474,0,0,0,.019.734c.173.979.388,1.957.638,2.906a2.489,2.489,0,0,0,2.407,1.855c.074,0,.147,0,.223-.01a2.49,2.49,0,0,0,2.261-2.282A26.859,26.859,0,0,1,35.781,84.978a25.646,25.646,0,0,1,14.506-4.392c10.373,0,20.364,5.583,26.724,14.934a35.178,35.178,0,0,1,5.883,15.551,2.488,2.488,0,0,0,2.074,2.166,2.445,2.445,0,0,0,.4.032,2.489,2.489,0,0,0,2.254-1.431c.6-1.284,3.477-5.051,17.085-12.266a2.49,2.49,0,0,0,.5-4.054,268.482,268.482,0,0,0-20.83-17.2A48.327,48.327,0,0,0,56.2,69.18Z"/><g class="cls-4"><path class="cls-11" d="M73.41,81.638c6.055-.559,16.036,2.911,17.854-2.315,1-2.366-.308-7.254.254-11.127C104.427,77.915,117.76,90.49,117.76,90.49s-6.807,2.947-14.221,6.88h0c-.726.385-1.462.781-2.2,1.185a.347.347,0,0,0-.033.018c-.232.127-.459.254-.688.38l-.087.05c-.213.118-.422.236-.632.355-.045.024-.088.049-.131.073l-.588.335c-.055.032-.108.062-.161.094l-.552.316c-.064.039-.134.079-.2.118-.169.1-.34.2-.507.3-.073.044-.146.088-.222.131-.163.1-.322.192-.484.29l-.237.142c-.154.092-.307.186-.459.278l-.252.154c-.148.09-.293.18-.438.271-.086.053-.172.109-.261.162-.14.087-.277.176-.416.264-.092.057-.179.115-.27.17l-.4.259-.268.174c-.131.086-.261.17-.386.256-.093.059-.184.118-.272.179l-.371.25c-.093.06-.179.123-.272.183-.12.082-.239.164-.358.248-.086.062-.179.125-.265.187-.118.081-.232.162-.345.243-.089.063-.176.126-.262.189-.113.08-.223.161-.333.242-.088.063-.174.127-.257.19-.106.079-.21.159-.315.237l-.255.193-.3.235-.249.194c-.1.078-.192.156-.288.233-.078.064-.159.129-.237.194l-.274.231-.225.192c-.089.077-.175.154-.26.23s-.147.128-.215.191c-.085.077-.168.153-.249.23-.065.062-.134.125-.2.187l-.235.229c-.061.062-.126.124-.187.186s-.148.15-.219.227c-.058.061-.118.122-.174.183s-.139.151-.2.225-.109.12-.16.18c-.067.076-.128.152-.189.228-.05.057-.1.116-.143.172-.063.079-.118.154-.175.232-.04.055-.085.11-.127.163-.056.081-.109.16-.162.239-.033.05-.069.1-.1.152-.054.086-.106.172-.152.257-.027.043-.053.085-.078.127-.07.128-.134.252-.194.377a38.169,38.169,0,0,0-16.75-27.005A10.264,10.264,0,0,1,73.41,81.638Z"/></g><path class="cls-12" d="M56.649,62.939c11.536-.383,25.777,8.513,26.682,1.888.272-2-13.686-8.32-26.819-6.882C36.73,60.112,30.494,70.86,30.494,70.86S45.114,63.324,56.649,62.939Z"/><path class="cls-16" d="M180.726,56.186a10.039,10.039,0,1,1,2.951-.446,9.967,9.967,0,0,1-2.951.446Z"/><path class="cls-3" d="M180.732,37.388a8.781,8.781,0,1,1-2.585.391,8.779,8.779,0,0,1,2.585-.391m0-2.49a11.268,11.268,0,1,0,10.762,7.95,11.265,11.265,0,0,0-10.762-7.95Z"/><g class="cls-4"><path class="cls-16" d="M177.28,38.1a8.775,8.775,0,0,0,8.792,14.586c.3-.093.585-.2.865-.319A8.774,8.774,0,1,1,177.28,38.1Z"/></g><path class="cls-17" d="M187.427,44.1c-1.287-3.444-5.951-6.017-8.849-4.936a4.814,4.814,0,0,0-2,1.44,4.339,4.339,0,0,1,2.943-2.566c2.88-1.075,7.212.987,8.435,4.254.647,1.736,1.036,3.656.39,5.129A8.639,8.639,0,0,0,187.427,44.1Z"/><path class="cls-3" d="M183.535,49.452a2.647,2.647,0,0,0,2.073,2.6c1.2.19,2.379-1.042,2.326-2.735s-1.3-2.822-2.485-2.564A2.619,2.619,0,0,0,183.535,49.452Z"/><path class="cls-18" d="M179.93,37.032a17.157,17.157,0,0,1,5.275,17.133"/><path class="cls-3" d="M180.258,50.46a2.646,2.646,0,0,1-.248,3.317c-.883.829-2.555.477-3.464-.953s-.513-3.066.612-3.517A2.615,2.615,0,0,1,180.258,50.46Z"/><path class="cls-18" d="M176.255,38.165A17.161,17.161,0,0,0,181.529,55.3"/><path class="cls-16" d="M19.242,115.08a10.032,10.032,0,1,1,.023,0Z"/><path class="cls-3" d="M19.264,96.286h.021a8.775,8.775,0,0,1-.021,17.549h-.018a8.775,8.775,0,0,1,.018-17.549m0-2.49a11.251,11.251,0,1,0,.028,0Z"/><g class="cls-4"><path class="cls-16" d="M18.361,96.333a8.773,8.773,0,0,0,5,16.488,8.774,8.774,0,1,1-5-16.488Z"/></g><path class="cls-17" d="M26.272,105.078c-.209-3.671-3.9-7.512-6.987-7.338a4.8,4.8,0,0,0-2.338.784,4.333,4.333,0,0,1,3.568-1.58c3.069-.173,6.595,3.081,6.793,6.564.106,1.849-.092,3.8-1.146,5.013A8.522,8.522,0,0,0,26.272,105.078Z"/><path class="cls-3" d="M20.969,109.031a2.65,2.65,0,0,0,1.208,3.1c1.089.536,2.582-.291,3.034-1.923s-.4-3.081-1.614-3.184A2.614,2.614,0,0,0,20.969,109.031Z"/><path class="cls-18" d="M21.209,96.1a17.163,17.163,0,0,1-.041,17.926"/><path class="cls-3" d="M17.542,109.023a2.646,2.646,0,0,1-1.223,3.093c-1.087.531-2.58-.3-3.023-1.936s.42-3.08,1.628-3.178A2.617,2.617,0,0,1,17.542,109.023Z"/><path class="cls-18" d="M17.363,96.092a17.168,17.168,0,0,0-.041,17.928"/><path class="cls-16" d="M56.813,107.116A8.82,8.82,0,1,1,63.372,92.4a8.821,8.821,0,0,1-6.559,14.712Z"/><path class="cls-3" d="M56.807,90.573a7.722,7.722,0,1,1-5.157,1.976,7.7,7.7,0,0,1,5.157-1.976m0-2.192a9.912,9.912,0,1,0,7.381,3.29,9.9,9.9,0,0,0-7.381-3.29Z"/><g class="cls-4"><path class="cls-16" d="M51.075,93.124a7.723,7.723,0,0,0,12.41,8.408c.2-.185.394-.376.577-.574a7.724,7.724,0,1,1-12.987-7.834Z"/></g><path class="cls-17" d="M61.4,94.177c-2.3-2.277-6.975-2.611-8.891-.677a4.226,4.226,0,0,0-1.067,1.891,3.815,3.815,0,0,1,1.4-3.137c1.9-1.924,6.128-1.875,8.309.284a6.3,6.3,0,0,1,2.207,3.952A7.555,7.555,0,0,0,61.4,94.177Z"/><path class="cls-3" d="M60.267,99.886a2.327,2.327,0,0,0,2.615,1.314c1.027-.292,1.515-1.712.85-3.045s-2.083-1.776-2.932-1.131A2.3,2.3,0,0,0,60.267,99.886Z"/><path class="cls-19" d="M52.8,91.294a15.122,15.122,0,0,1,10.543,11.743"/><path class="cls-3" d="M58.02,101.9a2.325,2.325,0,0,1,1.024,2.742c-.4.99-1.863,1.324-3.119.518s-1.541-2.26-.809-3.037A2.3,2.3,0,0,1,58.02,101.9Z"/><path class="cls-19" d="M50.278,93.555A15.109,15.109,0,0,0,60.822,105.3"/><path class="cls-8" d="M95.843,108.837a1.246,1.246,0,0,1-1.228-1.449c.722-4.387,3.132-19.2,3.737-25.642,1.688-18.038,15.536-31.641,32.21-31.641.388,0,.774.008,1.163.023,11.849.455,21.676,4.764,28.421,12.461,6.784,7.744,10.085,18.492,9.056,29.488A38.313,38.313,0,0,1,164.673,107a1.246,1.246,0,0,1-1.092.647,1.216,1.216,0,0,1-.365-.055,1.245,1.245,0,0,1-.875-1.306,38.2,38.2,0,0,0-8.716-27.972,30.774,30.774,0,0,0-22.059-10.842h-.021a.736.736,0,0,0-.572.3c-1.066,1.125-3.406,6.3-2.115,29.967A1.244,1.244,0,0,1,127.982,99l-31.773,9.782A1.209,1.209,0,0,1,95.843,108.837Z"/><path class="cls-3" d="M130.564,51.351q.554,0,1.113.021c27.184,1.045,38,22.252,36.285,40.589a37.29,37.29,0,0,1-4.381,14.441c1.71-18.334-10.043-38.916-31.944-40.173-.036,0-.073,0-.109,0-4.768,0-4.637,18.285-3.912,31.584l-31.773,9.782c.76-4.61,3.148-19.339,3.748-25.729,1.677-17.912,15.362-30.511,30.973-30.511m0-2.491c-17.323,0-31.7,14.088-33.452,32.77-.616,6.563-3.211,22.44-3.727,25.556a2.491,2.491,0,0,0,3.19,2.786l31.775-9.782a2.492,2.492,0,0,0,1.753-2.517c-1.286-23.584,1.113-28.191,1.687-28.94a29.518,29.518,0,0,1,20.89,10.393A36.934,36.934,0,0,1,161.1,106.17a2.49,2.49,0,0,0,4.663,1.428,39.56,39.56,0,0,0,4.676-15.4c1.063-11.336-2.349-22.426-9.359-30.426-6.975-7.961-17.109-12.416-29.309-12.885-.4-.015-.808-.023-1.209-.023Z"/><path class="cls-20" d="M95.843,108.837a1.246,1.246,0,0,1-1.228-1.449c.722-4.387,3.132-19.2,3.737-25.642,1.688-18.038,15.536-31.641,32.21-31.641.388,0,.774.008,1.163.023,11.849.455,21.676,4.764,28.421,12.461,6.784,7.744,10.085,18.492,9.056,29.488A38.313,38.313,0,0,1,164.673,107a1.246,1.246,0,0,1-1.092.647,1.216,1.216,0,0,1-.365-.055,1.245,1.245,0,0,1-.875-1.306c1.681-18.027-11.6-35.4-29.608-38.73a3.647,3.647,0,0,1-.564-.177,2.952,2.952,0,0,0-1.087-.255c-1.587,0-7.182,2.455-12.445,34.032a1.244,1.244,0,0,1-.862.985l-21.566,6.64A1.209,1.209,0,0,1,95.843,108.837Z"/><path class="cls-3" d="M130.564,51.351q.554,0,1.113.021c27.184,1.045,38,22.252,36.285,40.589a37.29,37.29,0,0,1-4.381,14.441c1.675-17.961-11.5-36.536-30.621-40.07a5.874,5.874,0,0,0-1.876-.453c-2.917,0-8.488,3.952-13.675,35.072l-21.566,6.64c.76-4.61,3.148-19.339,3.748-25.729,1.677-17.912,15.362-30.511,30.973-30.511m0-2.491c-17.323,0-31.7,14.088-33.452,32.77-.616,6.563-3.211,22.44-3.727,25.556a2.491,2.491,0,0,0,3.19,2.786l21.566-6.64a2.489,2.489,0,0,0,1.724-1.972c5.437-32.615,10.984-32.99,11.219-32.99a1.9,1.9,0,0,1,.638.17,4.13,4.13,0,0,0,.784.241C149.9,72,162.724,88.769,161.1,106.17a2.49,2.49,0,0,0,4.663,1.428,39.56,39.56,0,0,0,4.676-15.4c1.063-11.336-2.349-22.426-9.359-30.426-6.975-7.961-17.109-12.416-29.309-12.885-.4-.015-.808-.023-1.209-.023Z"/><g class="cls-4"><path class="cls-11" d="M99.591,81.862a35.218,35.218,0,0,1,8.047-19.595c1.137,6.049,4.563,11.107,10.6,11.75,2.97.286,6.851-2.494,9.973-2.434-1.292,6.422-1.074,17.417-.591,26.226l-10.207,3.142-21.566,6.64C96.6,102.981,98.991,88.252,99.591,81.862Z"/></g><path class="cls-12" d="M153.159,69.086c-5.76-5.3-11.5-9.759-15.978-11.962l-8.361-4.106a55.7,55.7,0,0,1,8.2.2A40.158,40.158,0,0,1,158.112,64.49c8.7,9.217,9.045,24.37,9.045,24.37S164.882,79.881,153.159,69.086Z"/><path class="cls-11" d="M84.021,117.361c-.617,0-2.254,0-2.64-1.253l-.5-1.692c-.661-2.229-2.036-6.87-4.06-8.215a20.836,20.836,0,0,0-2.118-1.183,11.187,11.187,0,0,1-4.885-3.864,4.434,4.434,0,0,1-.63-3.847,6,6,0,0,1,3.7-3.514,4.56,4.56,0,0,1,1.722-.334c3.511,0,6.925,3.8,9.938,7.147a24.047,24.047,0,0,0,3.56,3.524,4.744,4.744,0,0,0-.63-2.909l-.2-.471a34.26,34.26,0,0,1-1.9-6.058c-.648-3,.307-5.109,3.094-6.823a9.309,9.309,0,0,1,4.637-1.441,5.316,5.316,0,0,1,2.97.846c2.248,1.472,2.222,3.675,2.2,5.446-.005.435-.011.876.017,1.317a9.909,9.909,0,0,0,2.42,5.859,1.916,1.916,0,0,0,1.433.693A2.533,2.533,0,0,0,104.1,99.5a2.456,2.456,0,0,0,.421-2.2,33.494,33.494,0,0,0-1.357-3.433c-1.448-3.335-3.09-7.115-1.942-10.42a5.722,5.722,0,0,1,5.5-4.119A7.488,7.488,0,0,1,111.48,81.2c1.218,1.028,2.492,3.675,3.727,6.236a28.532,28.532,0,0,0,1.963,3.7l.461.605c.557.742,1.4,1.865,1.9,1.865.237,0,.618-.274,1.018-.734,1.365-1.57.858-3.538-.07-6.362-.191-.58-.376-1.147-.524-1.689-.387-1.42-1.13-4.991.317-7.52a4.735,4.735,0,0,1,2.938-2.248,7.22,7.22,0,0,1,1.9-.278c2.9,0,4.343,2.188,5.742,4.3,1.086,1.641,2.023,3.394,2.93,5.088.484.906.968,1.811,1.473,2.7a3.917,3.917,0,0,0,.976,1.329c.015-.023.081-.072.173-.166.49-.565.184-3.8,0-5.728-.439-4.634-.938-9.886,2.852-10.319a3.2,3.2,0,0,1,.374-.022,2.831,2.831,0,0,1,2.191,1.012c1.9,2.185,1.241,7.367,1.16,7.952-.073.523-.157,1.021-.239,1.5-.316,1.861-.545,3.206.138,4.921.441,1.106.775,2.255,1.1,3.365.123.418.244.837.372,1.25a5.462,5.462,0,0,0,.421,1.145,4.583,4.583,0,0,1,1.032,2.147l.287.931c.386,1.26-.05,2.517-9.222,6.271-5.764,2.358-13.548,5.077-21.918,7.655C100.856,114.445,88.424,117.361,84.021,117.361Z"/><path class="cls-3" d="M139.638,73.156c2.746,0,2.41,5.818,2.161,7.6-.361,2.62-1.032,4.509-.028,7.032.582,1.46.976,3.019,1.438,4.524.811,2.633.643.661,1.454,3.293,0,0,.185.607.288.936.476,1.551-13.11,7.11-30.346,12.418-14.192,4.368-26.435,7.2-30.584,7.2-.89,0-1.407-.13-1.492-.405-.1-.329-.275-.938-.275-.938-.654-2.12-2.115-7.853-4.769-9.617-2.31-1.534-5.021-2.136-6.655-4.693-1.555-2.429-.072-4.556,2.507-5.6a3.327,3.327,0,0,1,1.271-.246c5.084,0,11.166,10.77,13.719,10.77.367,0,.658-.221.867-.726.6-1.47-.255-3.089-.812-4.419a33.173,33.173,0,0,1-1.833-5.846c-.558-2.587.246-4.131,2.549-5.546a8.006,8.006,0,0,1,4.007-1.265,4.152,4.152,0,0,1,2.312.65c2.159,1.414,1.541,3.632,1.675,5.831a11.112,11.112,0,0,0,2.735,6.6,3.1,3.1,0,0,0,2.318,1.082,3.84,3.84,0,0,0,3.521-4.835c-1.15-3.8-4.708-9.1-3.314-13.11a4.529,4.529,0,0,1,4.365-3.312,6.278,6.278,0,0,1,3.987,1.582c1.742,1.471,4.173,8.026,5.518,9.756,1.005,1.288,2.016,2.934,3.312,2.934a2.673,2.673,0,0,0,1.925-1.148c2.34-2.691.449-6.268-.341-9.157-.759-2.782-1.091-7.342,2.411-8.29a6.081,6.081,0,0,1,1.589-.236c2.131,0,3.26,1.526,4.74,3.764,1.625,2.456,2.906,5.167,4.361,7.718.524.918,1.187,1.948,2.01,1.948a1.484,1.484,0,0,0,1.046-.545c2.113-2.18-2.366-15.177,2.125-15.69.082-.008.162-.014.238-.014m0-2.4h0a4.46,4.46,0,0,0-.51.029c-4.962.566-4.355,6.959-3.911,11.626.063.667.139,1.464.192,2.233q-.28-.52-.56-1.044c-.92-1.719-1.869-3.5-2.988-5.185-1.427-2.157-3.2-4.841-6.743-4.841a8.364,8.364,0,0,0-2.22.32,5.913,5.913,0,0,0-3.664,2.81c-1.672,2.92-.86,6.869-.435,8.432.155.563.347,1.15.542,1.75.826,2.5,1.256,4.1.305,5.2l-.106.119c-.3-.322-.689-.836-.948-1.182-.159-.212-.318-.422-.474-.625a30.488,30.488,0,0,1-1.829-3.48c-1.583-3.286-2.718-5.522-4.034-6.633a8.681,8.681,0,0,0-5.538-2.149,6.966,6.966,0,0,0-6.635,4.926c-1.3,3.749.439,7.757,1.975,11.294a32.955,32.955,0,0,1,1.309,3.3,1.267,1.267,0,0,1-.235,1.137,1.39,1.39,0,0,1-.986.6c-.075,0-.27,0-.549-.3a8.663,8.663,0,0,1-2.1-5.122c-.027-.411-.02-.823-.013-1.228.021-1.845.054-4.633-2.746-6.466a6.5,6.5,0,0,0-3.628-1.043,10.5,10.5,0,0,0-5.263,1.619c-3.248,2-4.405,4.569-3.642,8.1a35.634,35.634,0,0,0,1.531,5.18c-.1-.111-.2-.219-.292-.323-3.18-3.538-6.784-7.546-10.831-7.546a5.752,5.752,0,0,0-2.174.422,7.166,7.166,0,0,0-4.392,4.262,5.61,5.61,0,0,0,.762,4.86,12.337,12.337,0,0,0,5.351,4.286,20.078,20.078,0,0,1,2,1.114c1.66,1.1,3.049,5.791,3.572,7.556.085.287.161.545.229.765,0,0,.173.6.272.928.432,1.405,1.707,2.112,3.792,2.112,4.51,0,17.085-2.938,31.29-7.311,8.4-2.588,16.224-5.319,22.019-7.691,8.572-3.508,10.7-5.169,9.918-7.729l-.288-.934a6.121,6.121,0,0,0-1.18-2.487c-.047-.118-.135-.357-.274-.809-.124-.408-.245-.82-.366-1.233-.332-1.138-.675-2.315-1.137-3.474-.557-1.4-.374-2.482-.068-4.274.085-.491.171-1,.244-1.541.146-1.039.76-6.37-1.444-8.9a4.056,4.056,0,0,0-3.1-1.424Z"/><g class="cls-4"><path class="cls-11" d="M77.74,103.144c4.826,3.547,5.024,5.16,7.871,10.064,4,.341,51.343-13.543,55.863-14.112-5.057,2.5-15.113,6.24-26.869,9.859-17.238,5.307-31.6,8.351-32.076,6.8-.1-.329-.275-.938-.275-.938-.654-2.12-2.115-7.853-4.769-9.617-2.257-1.5-4.9-2.109-6.543-4.523C73.252,100.363,75.915,101.881,77.74,103.144Z"/></g><path class="cls-16" d="M165.945,123.174A10.019,10.019,0,1,1,175.963,113.1,10.016,10.016,0,0,1,166,123.174Z"/><path class="cls-3" d="M165.944,104.381A8.774,8.774,0,0,1,166,121.929h-.053a8.774,8.774,0,0,1-.05-17.548h.05m0-2.49h-.065a11.3,11.3,0,1,0,.065,0Z"/><g class="cls-4"><path class="cls-16" d="M164.973,104.436a8.774,8.774,0,0,0,4.2,16.5,8.5,8.5,0,0,0,.923-.055,8.773,8.773,0,1,1-5.125-16.447Z"/></g><path class="cls-17" d="M172.95,113.117c-.237-3.669-3.957-7.48-7.043-7.281a4.787,4.787,0,0,0-2.33.8,4.322,4.322,0,0,1,3.553-1.609c3.07-.2,6.621,3.029,6.848,6.508.119,1.85-.063,3.8-1.107,5.025A8.591,8.591,0,0,0,172.95,113.117Z"/><path class="cls-3" d="M167.681,117.112a2.647,2.647,0,0,0,1.234,3.09c1.092.527,2.579-.311,3.018-1.947s-.431-3.079-1.639-3.171A2.614,2.614,0,0,0,167.681,117.112Z"/><path class="cls-18" d="M167.817,104.182a17.161,17.161,0,0,1,.1,17.926"/><path class="cls-3" d="M164.254,117.133a2.645,2.645,0,0,1-1.2,3.1c-1.087.538-2.582-.282-3.042-1.914s.394-3.081,1.6-3.19A2.616,2.616,0,0,1,164.254,117.133Z"/><path class="cls-18" d="M163.972,104.2a17.162,17.162,0,0,0,.1,17.927"/><g class="cls-4"><path class="cls-11" d="M124.777,92.851a4.393,4.393,0,0,1-2.3,2.2,3.5,3.5,0,0,1-3.341-.3c.683.178,1.442-.076,2.327-1.095,2.34-2.691.449-6.268-.341-9.157a14.649,14.649,0,0,1-.438-2.345C123.559,84.921,125.592,88.634,124.777,92.851Z"/></g><g class="cls-4"><path class="cls-11" d="M105.915,100.519a1.765,1.765,0,0,1-1.5.382,3.763,3.763,0,0,0,1.246-3.945c-1.057-3.489-4.133-8.239-3.559-12.093C104.738,90.065,109.415,94.8,105.915,100.519Z"/></g><g class="cls-4"><path class="cls-11" d="M89.277,104.525c-.007,0-.01,0-.02-.006.466-1.419-.341-2.959-.875-4.233a33.173,33.173,0,0,1-1.833-5.846,4.405,4.405,0,0,1,.779-4.1c.932,1.885,2.33,3.595,3.387,5.548C92,98.848,93.311,105.518,89.277,104.525Z"/></g><path class="cls-12" d="M126.215,79.9c1.449,1.39,1.743,3.431,2.62,2.518s.416-2.781-1.032-4.171-3.331-1.78-4.208-.867S124.767,78.507,126.215,79.9Z"/><path class="cls-12" d="M108.52,84.7c1.445,1.391,1.742,3.431,2.618,2.517s.416-2.78-1.03-4.171-3.335-1.78-4.21-.866S107.07,83.3,108.52,84.7Z"/><path class="cls-12" d="M140.036,76.759c.464,1.24.063,2.54.843,2.245s1.039-1.536.574-2.777-1.48-2.007-2.261-1.714S139.569,75.519,140.036,76.759Z"/><path class="cls-12" d="M93.672,91.1c1.062,1.021,1.047,2.761,1.924,1.848a2.7,2.7,0,0,0-3.85-3.7C90.868,90.161,92.608,90.076,93.672,91.1Z"/><path class="cls-3" d="M87.726,134.2l-.113-.161c-.056-.125-.235-.221-.374-.341a8.249,8.249,0,0,0-1.613-.8,2.658,2.658,0,0,0-.489-.134c.017.007-.117-.031.027.013l-.083-.006-.162-.014-.333-.029a2.5,2.5,0,0,0-.905.257c-.164.041-.264.2-.405.277l-.049.035-.025.017c.186-.175.05-.046.089-.083l0,0-.006.009-.017.018-.121.148-.257.288c-.169.2-.106.278-.2.4-.058.138-.094.362-.153.533a5.513,5.513,0,0,0-.116,1.274c.033.447.037.9.11,1.347.028.223.088.436.109.655,0,.108.1.422.146.614a9,9,0,0,0,.348,1.124,8.616,8.616,0,0,0,.394.935c.128.288.252.541.363.746.211.418.32.675.32.675s-.238-.134-.636-.4a4.376,4.376,0,0,1-.683-.531,4.736,4.736,0,0,1-.809-.832,5.58,5.58,0,0,1-.759-1.15c-.112-.229-.2-.34-.341-.682-.1-.237-.176-.486-.257-.741a8.433,8.433,0,0,1-.331-1.643,7.455,7.455,0,0,1,.091-1.835,7.575,7.575,0,0,1,.331-.954,5.076,5.076,0,0,1,.6-.925l.271-.272.141-.13.131-.119.055-.033.111-.065a3.8,3.8,0,0,1,.905-.428,3.1,3.1,0,0,1,.957-.162,3.669,3.669,0,0,1,.915.1l.318.106.154.051.077.027c.2.057.107.045.174.071a4.207,4.207,0,0,1,.606.409,5.006,5.006,0,0,1,1.329,1.572A1.473,1.473,0,0,1,87.726,134.2Z"/><path class="cls-3" d="M82.688,136.434s.2-.01.527,0a3.677,3.677,0,0,1,1.338.245,5.954,5.954,0,0,1,1.774.929,4.431,4.431,0,0,1,.857.7c.26.274.525.551.791.829l.628.963a4.139,4.139,0,0,1,.485,1,5.289,5.289,0,0,1,.444,1.939,3.593,3.593,0,0,1-.146,1.4,4.685,4.685,0,0,1-.155.5s-.108-.181-.262-.468a8.724,8.724,0,0,0-.6-1.108,6.986,6.986,0,0,1-.406-.685c-.155-.235-.362-.464-.514-.72-.312-.513-.759-1-1.122-1.525-.431-.478-.8-1.024-1.228-1.458-.215-.214-.394-.473-.58-.682a7.62,7.62,0,0,1-.534-.565,10.663,10.663,0,0,0-.936-.923C82.814,136.586,82.688,136.434,82.688,136.434Z"/><path class="cls-21" d="M116.589,142.3c-5,0-9.9-4.595-11.653-10.924a16.533,16.533,0,0,1,.265-10.219,9.31,9.31,0,0,1,6.082-6.014,8.026,8.026,0,0,1,2.156-.293c4.994,0,9.894,4.595,11.653,10.925A16.547,16.547,0,0,1,124.826,136a9.316,9.316,0,0,1-6.081,6.013,8.031,8.031,0,0,1-2.156.293Z"/><path class="cls-3" d="M113.439,115.584c4.6,0,9.238,4.24,10.945,10.389,1.954,7.028-.66,13.892-5.835,15.328a7.283,7.283,0,0,1-1.962.266c-4.6,0-9.239-4.239-10.944-10.387-1.955-7.028.658-13.893,5.835-15.329a7.3,7.3,0,0,1,1.961-.267m0-1.468a8.805,8.805,0,0,0-2.354.321,10.028,10.028,0,0,0-6.57,6.46,17.271,17.271,0,0,0-.285,10.677c1.841,6.64,7.039,11.461,12.357,11.461a8.806,8.806,0,0,0,2.355-.32,10.027,10.027,0,0,0,6.571-6.46,17.294,17.294,0,0,0,.285-10.675c-1.843-6.642-7.04-11.464-12.359-11.464Z"/><path class="cls-11" d="M107.481,118.573a15.4,15.4,0,0,0-.663,10.726c1.954,7.029,7.731,11.562,12.908,10.124a7.761,7.761,0,0,0,4-2.724,8.331,8.331,0,0,1-5.174,4.6c-5.177,1.439-10.957-3.094-12.906-10.121C104.291,126.317,105.123,121.536,107.481,118.573Z"/><path class="cls-9" d="M110.054,128.55c1.2,4.329,4.762,7.12,7.95,6.234s4.8-5.113,3.594-9.442-4.762-7.122-7.951-6.235S108.851,124.221,110.054,128.55Z"/><path class="cls-15" d="M110.054,128.55c1.2,4.329,4.762,7.12,7.95,6.234s4.8-5.113,3.594-9.442-4.762-7.122-7.951-6.235S108.851,124.221,110.054,128.55Z"/><path class="cls-3" d="M112.64,127.83c.664,2.389,2.628,3.929,4.384,3.44s2.649-2.821,1.986-5.21-2.628-3.927-4.385-3.438S111.978,125.442,112.64,127.83Z"/><path class="cls-21" d="M114.264,122.233c.515,1.841,2.028,3.03,3.385,2.653s2.042-2.176,1.53-4.019-2.025-3.03-3.384-2.654S113.753,120.39,114.264,122.233Z"/><path class="cls-21" d="M113.392,131.319c.222.8.875,1.309,1.462,1.145a1.343,1.343,0,0,0,.661-1.734c-.221-.8-.874-1.31-1.463-1.147A1.348,1.348,0,0,0,113.392,131.319Z"/><path class="cls-21" d="M139.9,134.713c-4.891,0-9.69-4.5-11.411-10.7-2.016-7.253.772-14.384,6.212-15.9a7.858,7.858,0,0,1,2.111-.288c4.892,0,9.693,4.5,11.417,10.7,2.013,7.254-.776,14.386-6.218,15.9a7.9,7.9,0,0,1-2.111.287Z"/><path class="cls-3" d="M136.811,108.549c4.5,0,9.048,4.151,10.722,10.173,1.91,6.883-.65,13.6-5.717,15.012a7.145,7.145,0,0,1-1.919.26c-4.5,0-9.047-4.15-10.719-10.172-1.912-6.883.646-13.6,5.712-15.013a7.2,7.2,0,0,1,1.921-.26m0-1.437a8.6,8.6,0,0,0-2.305.313c-5.822,1.619-8.834,9.147-6.713,16.781,1.806,6.5,6.9,11.226,12.1,11.226a8.621,8.621,0,0,0,2.3-.313c5.823-1.618,8.836-9.146,6.718-16.782-1.808-6.5-6.9-11.225-12.107-11.225Z"/><path class="cls-11" d="M130.98,111.478a15.082,15.082,0,0,0-.652,10.5c1.913,6.883,7.572,11.321,12.641,9.913a7.6,7.6,0,0,0,3.914-2.668,8.166,8.166,0,0,1-5.067,4.508c-5.068,1.408-10.727-3.03-12.638-9.912C127.852,119.061,128.671,114.377,130.98,111.478Z"/><path class="cls-9" d="M133.5,121.246c1.178,4.239,4.663,6.973,7.785,6.105s4.7-5.007,3.52-9.247-4.663-6.973-7.785-6.1S132.32,117.007,133.5,121.246Z"/><path class="cls-15" d="M133.5,121.246c1.178,4.239,4.663,6.973,7.785,6.105s4.7-5.007,3.52-9.247-4.663-6.973-7.785-6.1S132.32,117.007,133.5,121.246Z"/><path class="cls-3" d="M136.029,120.542c.653,2.339,2.575,3.846,4.3,3.367s2.59-2.76,1.938-5.1-2.57-3.846-4.293-3.368S135.383,118.2,136.029,120.542Z"/><path class="cls-21" d="M137.623,115.06c.5,1.8,1.984,2.967,3.311,2.6s2-2.13,1.5-3.934-1.987-2.969-3.316-2.6S137.123,113.256,137.623,115.06Z"/><path class="cls-21" d="M136.768,123.957c.215.78.858,1.282,1.432,1.122a1.316,1.316,0,0,0,.646-1.7c-.215-.78-.858-1.283-1.432-1.124A1.316,1.316,0,0,0,136.768,123.957Z"/><path class="cls-20" d="M130.721,148.125c-5.194,0-9.371-2.788-10.162-6.779a7.994,7.994,0,0,1,2.181-6.941,13.468,13.468,0,0,1,7.419-4.034,14.871,14.871,0,0,1,2.892-.287c5.192,0,9.371,2.788,10.163,6.779.952,4.817-3.355,9.741-9.6,10.976A14.947,14.947,0,0,1,130.721,148.125Z"/><path class="cls-3" d="M133.051,131.061c4.615,0,8.49,2.385,9.205,5.992.849,4.3-3.1,8.695-8.832,9.828a13.889,13.889,0,0,1-2.7.268c-4.615,0-8.49-2.386-9.2-5.993-.85-4.293,3.1-8.694,8.831-9.827a13.881,13.881,0,0,1,2.7-.268m0-1.953h0a15.922,15.922,0,0,0-3.083.305,14.462,14.462,0,0,0-7.957,4.339,8.95,8.95,0,0,0-2.412,7.784c.882,4.454,5.454,7.566,11.12,7.566a15.94,15.94,0,0,0,3.081-.305c6.774-1.34,11.426-6.778,10.37-12.122-.883-4.457-5.455-7.567-11.119-7.567Z"/><g class="cls-22"><path class="cls-21" d="M132.9,133.089c.643,1.138-.918,3.232-3.48,4.677s-5.164,1.693-5.8.555.917-3.233,3.48-4.677S132.257,131.951,132.9,133.089Z"/></g><g class="cls-4"><path class="cls-20" d="M142.256,137.053a6.739,6.739,0,0,0-3.108-4.326,6.243,6.243,0,0,1,1.385,2.826c.849,4.294-3.1,8.695-8.834,9.828a12.069,12.069,0,0,1-8.8-1.4c2.117,2.5,6.207,3.752,10.526,2.9C139.153,145.748,143.1,141.349,142.256,137.053Z"/></g><path class="cls-3" d="M102.69,149.651s.864.43,2.4,1.089a60.624,60.624,0,0,0,6.463,2.344c1.353.417,2.837.789,4.4,1.156.792.15,1.6.331,2.427.468l2.544.367q1.3.1,2.638.213l2.7.033c.906-.02,1.816-.11,2.731-.16s1.809-.27,2.717-.4a23.211,23.211,0,0,0,2.675-.594c.418-.116.943-.207,1.269-.341l1.333-.48a27.291,27.291,0,0,0,4.733-2.263,31.271,31.271,0,0,0,4-2.926,35.456,35.456,0,0,0,3.127-3.22,36.559,36.559,0,0,0,2.312-3.062,27.461,27.461,0,0,0,1.541-2.56c.791-1.464,1.154-2.359,1.154-2.359a15.591,15.591,0,0,1-.678,2.566,28.014,28.014,0,0,1-3.1,6.333A27.242,27.242,0,0,1,147.1,149.6c-.611.591-1.234,1.212-1.909,1.805a26.392,26.392,0,0,1-2.2,1.659,23.848,23.848,0,0,1-2.459,1.484,18.927,18.927,0,0,1-2.654,1.223l-1.326.5a14.744,14.744,0,0,1-1.473.431,25.075,25.075,0,0,1-2.9.691c-.988.124-1.969.327-2.956.381s-1.972.118-2.947.124c-.974-.031-1.94-.072-2.89-.137L120.6,157.4c-.905-.173-1.8-.349-2.657-.542-.858-.215-1.687-.471-2.495-.7a41.264,41.264,0,0,1-4.422-1.643,35.286,35.286,0,0,1-3.559-1.761c-1.034-.566-1.909-1.1-2.62-1.559A22.757,22.757,0,0,1,102.69,149.651Z"/><path class="cls-3" d="M102.877,152.244a2.057,2.057,0,0,1-.671-.825,2.143,2.143,0,0,1-.22-1.127,2.54,2.54,0,0,1,.49-1.246,3.85,3.85,0,0,1,.968-.849,4.984,4.984,0,0,1,.98-.469,6.557,6.557,0,0,1,1.017-.242s-.341.257-.848.577c-.242.179-.539.369-.812.6a3.342,3.342,0,0,0-.773.779,2.148,2.148,0,0,0-.447,1.852A3.546,3.546,0,0,0,102.877,152.244Z"/><path class="cls-3" d="M151.709,136.991a2.054,2.054,0,0,1,.921-.529,2.158,2.158,0,0,1,1.15-.035,2.55,2.55,0,0,1,1.15.686,3.794,3.794,0,0,1,.681,1.092,4.88,4.88,0,0,1,.305,1.042,6.774,6.774,0,0,1,.075,1.043s-.2-.377-.434-.931c-.136-.268-.275-.59-.464-.9a3.288,3.288,0,0,0-.645-.887,2.151,2.151,0,0,0-1.755-.743A3.535,3.535,0,0,0,151.709,136.991Z"/><path class="cls-5" d="M142.653,162.879c-.155-.627-2.461.035-5.139.7s-4.71,1.071-4.554,1.7,2.717,1.113,5.392.452S142.807,163.506,142.653,162.879Z"/></g></g></svg>