<svg width="200px" height="200px" xmlns="http://www.w3.org/2000/svg" viewBox="0 0 200 200"><defs><style>.cls-1{isolation:isolate;}.cls-18,.cls-2{fill:#3b2314;}.cls-11,.cls-3,.cls-6,.cls-8{mix-blend-mode:multiply;}.cls-11,.cls-4{fill:#fccbaa;}.cls-5,.cls-8{fill:#f27f93;}.cls-6,.cls-8{opacity:0.2;}.cls-26,.cls-7,.cls-9{fill:#fff;}.cls-17,.cls-7{opacity:0.3;}.cls-10{fill:#d0d2d3;}.cls-12{fill:red;}.cls-13{fill:#820000;}.cls-14,.cls-15,.cls-27,.cls-28{fill:none;}.cls-14,.cls-15,.cls-18,.cls-19,.cls-27,.cls-28{stroke:#3b2314;}.cls-14,.cls-15,.cls-18,.cls-19{stroke-linecap:round;stroke-miterlimit:10;}.cls-14{stroke-width:0.88px;}.cls-15{stroke-width:0.84px;}.cls-16{fill:#cd383a;}.cls-18,.cls-19{stroke-width:1.24px;}.cls-19{fill:#606060;}.cls-20{fill:#faaf40;}.cls-21{fill:#00a69c;}.cls-22{fill:#8bc53f;}.cls-23{fill:#929497;}.cls-24{fill:#26a9e0;}.cls-25{fill:#ffc609;}.cls-26{opacity:0.6;}.cls-27,.cls-28{stroke-linecap:square;stroke-linejoin:round;}.cls-27{stroke-width:0.51px;}.cls-28{stroke-width:0.45px;}.cls-29{fill:#5661ab;}</style></defs><g class="cls-1"><g id="Layer_19" data-name="Layer 19"><path d="M64.5,178.5c4.7,0,13.7-3.8,16.6-5.1l.8-.3h0c2.1-.7,10.1-5,10.2-5,7.1-4,11.7-7.5,13.7-10.3s2.5-7.7,1-12.7c1.5-3.9,3.6-15.4,3.8-18.4.8-11.8,1-25-6.6-33.5-5-5.6-12.6-8.4-23.3-8.8H79.5c-17.9,0-29.3,14.4-33,41.6-4.7,3-7.5,7-7.8,11-.5,8.1,8.6,26.1,9,26.9,2.9,9.2,8.4,14.2,16.3,14.8Z"/><path class="cls-2" d="M79.5,85.2h1.2c30,1.2,30.2,22.5,28.9,41.3-.2,3.2-2.3,15.1-3.8,18.5,1.4,4.3,1.4,8.9-.8,12.1-4.6,6.6-23.4,15.1-23.4,15.1h0c-.2,0-11.7,5.3-17.1,5.3H64c-8.2-.6-12.9-6.3-15.4-14.3,0,0-9.4-18.4-8.9-26.3.3-4.2,3.6-8,7.7-10.5,2.2-16.5,8.9-41.2,32.1-41.2m0-1.9c-18.3,0-30,14.5-33.9,41.9-4.7,3.1-7.5,7.3-7.8,11.6-.6,8,8,25.2,9,27.1,3,9.8,8.8,15,17.1,15.6h.6c4.9,0,13.8-3.8,16.9-5.1h0l1-.5c.8-.3,19.4-8.8,24.2-15.7,2.2-3.3,2.7-8,1.2-13.1,1.6-4.3,3.5-15.4,3.7-18.5.9-11.9,1.1-25.4-6.8-34.2-5.1-5.7-13-8.7-23.9-9.1Z"/><g class="cls-3"><path class="cls-4" d="M51.4,127c-2.3.4-4.6.8-6.8,1.4a28.3,28.3,0,0,1,2.8-2c.2-1.1.3-2.3.5-3.4A12.1,12.1,0,0,0,51.4,127Z"/></g><g class="cls-3"><path class="cls-4" d="M70.9,160.8a4.1,4.1,0,0,1,3.6.6,2.7,2.7,0,0,1,1.2,1.6c.2.9.7,1.8.1,2.6-3,4-6.7,7.4-8.7,11.6a8.8,8.8,0,0,1-3.1.3,14.5,14.5,0,0,1-7.4-2.4C59.9,168.9,63.5,162.1,70.9,160.8Z"/></g><g class="cls-3"><path class="cls-4" d="M94.4,141.8c2.1-5.7,5.2-11.1,6.3-17a108.5,108.5,0,0,0,2.1-31.1c7.8,8.1,7.6,20.8,6.8,32.8-.2,3.2-2.3,15.1-3.8,18.5,1.4,4.3,1.4,8.9-.8,12.1s-7,6.3-11.8,9.1C95.2,163.1,108.6,147.1,94.4,141.8Z"/></g><path class="cls-5" d="M64.6,168.9c17.8,0,33.1-15.5,33.1-19.1a1.2,1.2,0,0,0-1.2-1.2,2.3,2.3,0,0,0-1.1.3c-9,3.9-16.9,5.9-23.6,5.9h0c-15.3,0-20.6-10.3-23.1-15.3-1-1.9-1.5-2.9-2.4-2.9h-.5c-1.2.6-1.6,2.5-1.1,5.8,1.4,8.5,8.5,25.5,16.8,26.3Z"/><path class="cls-2" d="M46.3,137.4c1.8,0,4.9,18.2,25.5,18.2,6.2,0,14-1.7,23.9-6l.8-.2c3.1,0-12.1,18.7-31.9,18.7h-3c-10-1-19.1-28.9-15.5-30.5h.2m0-1.6-.8.2c-2.2,1-1.9,4.3-1.5,6.7a53.8,53.8,0,0,0,5.8,16.2c2.6,4.6,6.6,10.2,11.6,10.7h3.2c17.3,0,30.5-13.2,33.1-17.7.5-.9,1.1-2.2.5-3.2a1.9,1.9,0,0,0-1.7-1h0a3.5,3.5,0,0,0-1.4.3C86.2,152,78.4,154,71.8,154c-14.8,0-20-10-22.4-14.8-1.1-2.1-1.7-3.4-3.1-3.4Z"/><path class="cls-5" d="M52.9,189c3.1,0,5.4-1.2,6.5-3.3a39.9,39.9,0,0,0,2.9-6.7l.5-1.5a25.9,25.9,0,0,1,3-6,19.9,19.9,0,0,1,1.9-2.1l1.3-1c.7-.5,1.1-.8,1.3-1.3a2.8,2.8,0,0,0-.2-2c-.7-1.2-2.3-1.8-3.6-2.1a13.6,13.6,0,0,0-3.1-.3h-.2c-.4-1.1-1.8-1.6-4.1-1.6H56.6c-3.9,1-6.4,7.4-7.1,9.4a19.5,19.5,0,0,1-2.6,5.2l-.5.9c-2,3.7-3.9,7.2-.6,9.9A11.9,11.9,0,0,0,52.9,189Z"/><path class="cls-2" d="M59.1,161.9c4,0,3.4,1.5,3.5,1.6h.8a10.9,10.9,0,0,1,2.9.3c1.9.4,3.8,1.4,3.2,3.1s-1.3,1-2.3,1.9a18.3,18.3,0,0,0-2.1,2.2,24.5,24.5,0,0,0-3,6.3,43.7,43.7,0,0,1-3.4,8c-1.1,2-3.4,2.8-5.8,2.8a11.1,11.1,0,0,1-6.6-2.1c-3-2.5-.9-5.6,1.3-9.8a19.3,19.3,0,0,0,2.6-5.4c.8-2,3.2-7.9,6.5-8.8h2.4m0-1.6H56.3c-4,1-6.7,7.2-7.6,9.8a22,22,0,0,1-2.5,5.1l-.5.9c-2.1,3.8-4.2,7.8-.4,10.9a12.2,12.2,0,0,0,7.6,2.6c3.3,0,5.9-1.4,7.2-3.7a38.9,38.9,0,0,0,3-6.9,12.1,12.1,0,0,1,.5-1.4,23.9,23.9,0,0,1,2.8-5.8,12.3,12.3,0,0,1,1.9-2l1.2-.9c.8-.6,1.3-1,1.5-1.7a3.2,3.2,0,0,0-.2-2.7c-.8-1.5-2.7-2.2-4.1-2.5l-3-.3c-.6-.9-1.9-1.6-4.6-1.6Z"/><g class="cls-6"><path class="cls-5" d="M46.8,177.9a6.5,6.5,0,0,0,1.7,4.8,10.5,10.5,0,0,0,10.4,2.4c-.1.1-.1.1-.1.2-2.3,4.1-9.3,3.2-12.4.7S45,181.2,46.8,177.9Z"/></g><path class="cls-2" d="M62.7,163.5l-.6.2-1.4.8L59,166.1a8.7,8.7,0,0,0-.8,1l-.7,1.2a9.7,9.7,0,0,0-1.1,2.3,10.4,10.4,0,0,0-.6,2.2,10.8,10.8,0,0,0-.3,2.2l1-2a3.6,3.6,0,0,1,.4-.9c.2-.3.3-.7.5-1a23.9,23.9,0,0,1,1.2-2.2,10.7,10.7,0,0,1,1.3-2.1,3.1,3.1,0,0,1,.7-.9l.6-.8,1-1.2Z"/><path class="cls-7" d="M56.4,162.5c.9-.3,4.4.4,3,1.9s-4.3,4.1-4.9,6.2-3.1,2.8-2.6-.4S55.1,163.1,56.4,162.5Z"/><path class="cls-8" d="M62.6,163.5a15.1,15.1,0,0,1-2.7,5.4c-1.9,2.3-4.4,5.8-4.4,5.8S57.9,166.7,62.6,163.5Z"/><path class="cls-9" d="M73,160.1a3.9,3.9,0,0,0,2.9-1,3.3,3.3,0,0,0,2.1.7h.7a4.5,4.5,0,0,0,2.8-1.5,2.6,2.6,0,0,0,1.5.4h1.3c2.2-.3,3.5-.9,4.2-1.8a5.3,5.3,0,0,0,.4-3.9v-.3l-.4-.6h-.7a50,50,0,0,1-15.4,2.7c-11.5,0-17.4-5.5-19.9-8.7a.9.9,0,0,0-.6-.3h-.1l-.6.2a4.6,4.6,0,0,0-1.3,3.6,5,5,0,0,0,1.7,3.1l.7.6a3.6,3.6,0,0,0,2.1,1.1,3.7,3.7,0,0,0,2.2,2.4,4.5,4.5,0,0,0,1.8.4h0a2,2,0,0,0,1.1-.2,3.7,3.7,0,0,0,2.5,1.8,2.7,2.7,0,0,0,1.3.2,3.2,3.2,0,0,0,1.6-.4,3.2,3.2,0,0,0,2.5,1.4h.7a3.2,3.2,0,0,0,2.2-.7,3.5,3.5,0,0,0,2.7,1Z"/><path class="cls-2" d="M51.8,146.3c3.5,4.5,10,9,20.6,9a52.7,52.7,0,0,0,15.7-2.7v.3c.4,2.5.6,4.2-3.9,4.8H83a1.9,1.9,0,0,1-1.7-.8,3.4,3.4,0,0,1-2.7,1.9H78a2.4,2.4,0,0,1-2.2-1.2,2.8,2.8,0,0,1-2.8,1.5h0a2.5,2.5,0,0,1-2.6-1.5,2.6,2.6,0,0,1-2.3,1.2h-.5a2.8,2.8,0,0,1-2.5-2,2,2,0,0,1-1.8.9H62.2a3.3,3.3,0,0,1-2.3-2.3,2,2,0,0,1-1.5.6l-1.4-.3a3.2,3.2,0,0,1-2-2.6h-.6c-.7,0-1.5-.9-2.3-1.5a3.7,3.7,0,0,1-.3-5.5m0-1.6a2.1,2.1,0,0,0-1.2.5,5.2,5.2,0,0,0-1.5,4.1,6.5,6.5,0,0,0,2,3.8l.7.5a4.6,4.6,0,0,0,2,1.3,5.1,5.1,0,0,0,2.5,2.3,4.1,4.1,0,0,0,2.1.5h.8a5.4,5.4,0,0,0,2.5,1.6,4.4,4.4,0,0,0,1.6.2,3,3,0,0,0,1.3-.2,4.2,4.2,0,0,0,2.7,1.2h.8a4.6,4.6,0,0,0,2.1-.5,4.5,4.5,0,0,0,2.8.9,6.6,6.6,0,0,0,2.9-.9,4.6,4.6,0,0,0,2.1.5h.8a5.9,5.9,0,0,0,2.9-1.3l1.3.2h1.4c2.4-.3,3.9-1,4.7-2.2s.8-3.1.6-4.4a.6.6,0,0,0-.1-.4,1.4,1.4,0,0,0-.7-1.1l-.8-.2h-.5a52.1,52.1,0,0,1-15.2,2.6c-11.2,0-16.9-5.3-19.3-8.4a1.4,1.4,0,0,0-1.2-.6Z"/><path class="cls-10" d="M81,156.4c.7-.5,1.2.4,1.7,1.4a1.8,1.8,0,0,1-1.4-.8,3.6,3.6,0,0,1-.7,1C80.7,157.3,80.6,156.7,81,156.4Z"/><path class="cls-10" d="M75.7,156.9c1-.2.9.8.9,1.7a1.5,1.5,0,0,1-.8-.8,2.7,2.7,0,0,1-1,1.1C75.1,158,75.2,157,75.7,156.9Z"/><path class="cls-10" d="M70,157.5c.9-.1,1.1.6,1.3,1.4a2.4,2.4,0,0,1-.9-1.1,2.6,2.6,0,0,1-1.1,1C69.5,158.2,69.6,157.6,70,157.5Z"/><path class="cls-10" d="M65.5,156.8a1.9,1.9,0,0,1,.4,1.5,3.2,3.2,0,0,1-.8-1.3,1.6,1.6,0,0,1-1.2.8C64.4,157,64.8,156.1,65.5,156.8Z"/><path class="cls-10" d="M60.7,156.9a2.5,2.5,0,0,1-.8-1.4,2.2,2.2,0,0,1-2.1.6,3.2,3.2,0,0,1,1.9-1C60.8,155,60.7,155.9,60.7,156.9Z"/><path class="cls-10" d="M56,152.7a2.4,2.4,0,0,1-.1,2.3,2.6,2.6,0,0,1-.9-1.8c-.4.3-.8.2-1.3-.1S55.6,152.2,56,152.7Z"/><path class="cls-10" d="M86.5,153.1l1.6-.5v.3c.4,2.1.5,3.7-2.3,4.5A9.1,9.1,0,0,0,86.5,153.1Z"/><path class="cls-11" d="M79.4,143.6s-2.3,8.3-10.9,6.8S58.2,148,58,140.2,79.4,143.6,79.4,143.6Z"/><path class="cls-12" d="M83.4,142.2c5,0,10.1-4.2,12.3-10.3s.3-15.3-5.4-17.4a10.5,10.5,0,0,0-3-.5c-5.1,0-10.2,4.2-12.4,10.3a16.9,16.9,0,0,0-.5,10.6,9.6,9.6,0,0,0,6,6.8,9.4,9.4,0,0,0,3,.5Z"/><path class="cls-2" d="M87.3,114.8a8.4,8.4,0,0,1,2.7.4c5.4,2,7.6,9.3,5,16.4s-7,9.8-11.6,9.8a8.6,8.6,0,0,1-2.8-.4c-5.3-2-7.6-9.3-5-16.4s7-9.8,11.7-9.8m0-1.6c-5.4,0-10.8,4.5-13.1,10.8a17,17,0,0,0-.5,11.1c1.1,3.6,3.3,6.2,6.4,7.3a8.8,8.8,0,0,0,3.3.6c5.3,0,10.7-4.5,13.1-10.8,2.8-7.9.2-16.2-6-18.4a8.7,8.7,0,0,0-3.2-.6Z"/><path class="cls-13" d="M94,118.4a15.5,15.5,0,0,1-.1,11.2c-2.6,7.1-9,11.3-14.4,9.3a8.3,8.3,0,0,1-4-3.2,9.2,9.2,0,0,0,5.1,5.3c5.4,1.9,11.8-2.3,14.4-9.4C96.8,126.7,96.3,121.7,94,118.4Z"/><path class="cls-14" d="M84.9,128.9c.2-.5.5-.2.8-.3s.3.3.2.4a2.3,2.3,0,0,1-1.7,1.9.8.8,0,0,1-.9-.2,2.9,2.9,0,0,1-.7-2.5c.5-2,2.1-3.4,3.6-3.2a2.7,2.7,0,0,1,1.8,1.3c.9,1,.8,2.7.3,4.1a8.2,8.2,0,0,1-.9,1.9,7.4,7.4,0,0,1-1.2,1.3,3.9,3.9,0,0,1-4.1.4,5.3,5.3,0,0,1-2.3-4.7,10.6,10.6,0,0,1,.8-3.3c1.7-3.6,5.3-5.3,8-3.8l1.4,1.2a5.8,5.8,0,0,1,1.2,2.9,10.6,10.6,0,0,1-.9,6.3,9.3,9.3,0,0,1-5.2,4.8c-3.7,1.2-7-.9-7.8-5.3a16.1,16.1,0,0,1,.2-4.9,14.8,14.8,0,0,1,1-2.7,13.4,13.4,0,0,1,1.8-2.8,12.2,12.2,0,0,1,3.1-2.5c5.2-2.9,10.4,1.2,10.6,7.6"/><path class="cls-12" d="M59.7,134.4c4.9,0,9.8-4.1,11.9-10s0-14.7-5.6-16.6a8,8,0,0,0-2.7-.4c-4.9,0-9.8,4.1-11.8,10a16.3,16.3,0,0,0-.3,10.2A9.6,9.6,0,0,0,57,134a8.4,8.4,0,0,0,2.7.4Z"/><path class="cls-2" d="M63.3,108.1a7.3,7.3,0,0,1,2.5.4c5.2,1.8,7.4,8.8,5.1,15.6s-6.7,9.6-11.2,9.6a7.7,7.7,0,0,1-2.5-.4c-5.1-1.8-7.4-8.8-5-15.6s6.6-9.6,11.1-9.6m0-1.5c-5.2,0-10.4,4.4-12.5,10.6a16.8,16.8,0,0,0-.3,10.6,10.2,10.2,0,0,0,6.3,6.9,9.3,9.3,0,0,0,2.9.5c5.3,0,10.4-4.4,12.5-10.6s0-15.4-5.9-17.5a10.5,10.5,0,0,0-3-.5Z"/><path class="cls-13" d="M69.7,111.5a15.1,15.1,0,0,1,.1,10.7c-2.4,6.8-8.5,10.9-13.6,9.1a8.1,8.1,0,0,1-3.9-2.9,8.7,8.7,0,0,0,4.9,4.9c5.2,1.8,11.3-2.3,13.7-9.2C72.5,119.4,71.9,114.6,69.7,111.5Z"/><path class="cls-15" d="M61.2,121.6c.1-.4.4-.2.7-.2a.3.3,0,0,1,.2.4,2.2,2.2,0,0,1-1.6,1.8c-.3.1-.7.1-.8-.1A3,3,0,0,1,59,121c.4-1.9,1.8-3.2,3.3-3a2.9,2.9,0,0,1,1.8,1.1c.8.9.7,2.6.3,4a6,6,0,0,1-2,3,3.6,3.6,0,0,1-3.8.5,5,5,0,0,1-2.3-4.5A8.7,8.7,0,0,1,57,119c1.6-3.5,5-5.2,7.5-3.8a3.8,3.8,0,0,1,1.4,1.1,5.5,5.5,0,0,1,1.2,2.8,9.6,9.6,0,0,1-.8,6,8.5,8.5,0,0,1-4.8,4.7c-3.6,1.2-6.7-.8-7.6-4.9a18.5,18.5,0,0,1,.1-4.7,19.9,19.9,0,0,1,.9-2.6,13.4,13.4,0,0,1,1.8-2.8,10.8,10.8,0,0,1,2.8-2.4c4.9-2.8,10,1,10.3,7.1"/><path class="cls-16" d="M69.3,148c5.2,0,9.4-2.8,10.1-6.8s-3.3-9.7-9.6-11a13.6,13.6,0,0,0-2.9-.3c-5.1,0-9.3,2.8-10.1,6.8a8,8,0,0,0,2.2,7,13.4,13.4,0,0,0,7.4,4A13.6,13.6,0,0,0,69.3,148Z"/><path class="cls-2" d="M66.9,130.9l2.8.3c5.7,1.1,9.6,5.5,8.8,9.8s-4.6,6-9.2,6a12.4,12.4,0,0,1-2.7-.3c-5.8-1.1-9.7-5.5-8.9-9.8s4.6-6,9.2-6m0-1.9c-5.6,0-10.2,3.1-11.1,7.5a9.3,9.3,0,0,0,2.4,7.8,15,15,0,0,0,8,4.4,16.3,16.3,0,0,0,3.1.3c5.6,0,10.2-3.1,11.1-7.6S76.8,130.6,70,129.3a15.5,15.5,0,0,0-3.1-.3Z"/><g class="cls-17"><path class="cls-9" d="M67.1,132.9c-.6,1.2.9,3.3,3.5,4.7s5.1,1.7,5.8.6-.9-3.3-3.5-4.7S67.7,131.8,67.1,132.9Z"/></g><g class="cls-3"><path class="cls-16" d="M57.7,136.9a6.8,6.8,0,0,1,3.1-4.3,7.2,7.2,0,0,0-1.3,2.8c-.9,4.3,3.1,8.7,8.8,9.8a11.8,11.8,0,0,0,8.8-1.4c-2.1,2.5-6.2,3.8-10.5,2.9S56.9,141.2,57.7,136.9Z"/></g><path class="cls-18" d="M115.2,113.1s2.7,5.8,2.2,10.5-7,11-11.1,14.3,4.7-16.1,3.5-23.7,4.9-1.9,4.9-1.9Z"/><path class="cls-19" d="M104,138.2a30.1,30.1,0,0,0,4-2.3c.9-1.3,1.4-4.4,2-5.8,3-7,11.8-2.5,12.3,3.4.9,9-7.7,19.7-12.8,18.5s-4-7.8-4-7.8"/><path class="cls-20" d="M146.8,94.1a1.2,1.2,0,0,0,.9-.5,37.3,37.3,0,0,0,7.5-13.7c3.2-10.5,2.2-21.7-2.9-30.7s-13.7-15.1-25.2-18a30.4,30.4,0,0,0-7.3-.9c-14.5,0-27.3,10.1-31.9,25.1-2.2,7.2-9.3,25.5-9.4,25.7a1.2,1.2,0,0,0,.1,1,1.1,1.1,0,0,0,.7.6l31.9,9.1h.3l.7-.2a1.5,1.5,0,0,0,.6-.9c2.1-20.5,6.7-42.5,10.4-42.5a30.7,30.7,0,0,1,19.5,15.1,38.4,38.4,0,0,1,2.9,29.2,1.1,1.1,0,0,0,.6,1.4Z"/><path class="cls-2" d="M119.8,31.6a34.2,34.2,0,0,1,7,.8C153.2,39,159.4,62,154,79.6a38.3,38.3,0,0,1-7.2,13.2c5.4-17.6-1.9-40.1-23.1-45.8h-.5c-7.1,0-11.7,43.7-11.7,43.7L79.7,81.5s7.2-18.4,9.4-25.7c4.6-15,17.4-24.2,30.7-24.2m0-2.5c-15,0-28.3,10.4-33.1,25.9-2.2,7.2-9.3,25.4-9.3,25.6a2,2,0,0,0,.1,2A2.4,2.4,0,0,0,79,83.9L110.9,93h.6a2.4,2.4,0,0,0,1.4-.5,2.5,2.5,0,0,0,1.1-1.8c2.2-20.5,6.4-39.2,9.3-41.3a29.6,29.6,0,0,1,18.4,14.4,37.2,37.2,0,0,1,2.7,28.2,2.5,2.5,0,0,0,2.4,3.2,2.5,2.5,0,0,0,1.9-.9,38,38,0,0,0,7.7-14.1,40.8,40.8,0,0,0-3-31.7c-5.2-9.2-14.2-15.6-26-18.6a32.9,32.9,0,0,0-7.6-.9Z"/><path class="cls-21" d="M146.8,94.1a1.2,1.2,0,0,0,.9-.5,37.3,37.3,0,0,0,7.5-13.7c3.2-10.5,2.2-21.7-2.9-30.7s-13.7-15.1-25.2-18a30.4,30.4,0,0,0-7.3-.9c-14.5,0-27.3,10.1-31.9,25.1-2.2,7.2-9.3,25.5-9.4,25.7a1.2,1.2,0,0,0,.1,1,1.1,1.1,0,0,0,.7.6L99,88.3h.3a1.3,1.3,0,0,0,1.2-.8c12.9-35.9,19.7-39.8,22-39.8a3,3,0,0,1,1.5.5l.5.3c16.9,6.9,26.4,26.7,21.1,44a1.1,1.1,0,0,0,.6,1.4Z"/><path class="cls-2" d="M119.8,31.6a34.2,34.2,0,0,1,7,.8C153.2,39,159.4,62,154,79.6a38.3,38.3,0,0,1-7.2,13.2c5.3-17.2-3.8-38.1-21.8-45.5a5.4,5.4,0,0,0-2.5-.8c-3.4,0-10.5,5.2-23.2,40.6L79.7,81.5s7.2-18.4,9.4-25.7c4.6-15,17.4-24.2,30.7-24.2m0-2.5c-15,0-28.3,10.4-33.1,25.9-2.2,7.2-9.3,25.4-9.3,25.6a2,2,0,0,0,.1,2A2.4,2.4,0,0,0,79,83.9l19.6,5.6h.7a2.7,2.7,0,0,0,2.4-1.7c13.5-37.9,20.1-39,20.8-39s.5.2.8.4l.7.4c16.4,6.6,25.5,25.7,20.4,42.4a2.5,2.5,0,0,0,2.4,3.2,2.5,2.5,0,0,0,1.9-.9,38,38,0,0,0,7.7-14.1,40.8,40.8,0,0,0-3-31.7c-5.2-9.2-14.2-15.6-26-18.6a32.9,32.9,0,0,0-7.6-.9Z"/><path class="cls-20" d="M146.8,94.1a1.2,1.2,0,0,0,.9-.5,37.3,37.3,0,0,0,7.5-13.7c3.2-10.5,2.2-21.7-2.9-30.7s-13.7-15.1-25.2-18a30.4,30.4,0,0,0-7.3-.9c-14.5,0-27.3,10.1-31.9,25.1-2.2,7.2-9.3,25.5-9.4,25.7a1.2,1.2,0,0,0,.1,1,1.1,1.1,0,0,0,.7.6l31.9,9.1h.3l.7-.2a1.5,1.5,0,0,0,.6-.9c2.1-20.5,6.7-42.5,10.4-42.5a30.7,30.7,0,0,1,19.5,15.1,38.4,38.4,0,0,1,2.9,29.2,1.1,1.1,0,0,0,.6,1.4Z"/><path class="cls-2" d="M119.8,31.6a34.2,34.2,0,0,1,7,.8C153.2,39,159.4,62,154,79.6a38.3,38.3,0,0,1-7.2,13.2c5.4-17.6-1.9-40.1-23.1-45.8h-.5c-7.1,0-11.7,43.7-11.7,43.7L79.7,81.5s7.2-18.4,9.4-25.7c4.6-15,17.4-24.2,30.7-24.2m0-2.5c-15,0-28.3,10.4-33.1,25.9-2.2,7.2-9.3,25.4-9.3,25.6a2,2,0,0,0,.1,2A2.4,2.4,0,0,0,79,83.9L110.9,93h.6a2.4,2.4,0,0,0,1.4-.5,2.5,2.5,0,0,0,1.1-1.8c2.2-20.5,6.4-39.2,9.3-41.3a29.6,29.6,0,0,1,18.4,14.4,37.2,37.2,0,0,1,2.7,28.2,2.5,2.5,0,0,0,2.4,3.2,2.5,2.5,0,0,0,1.9-.9,38,38,0,0,0,7.7-14.1,40.8,40.8,0,0,0-3-31.7c-5.2-9.2-14.2-15.6-26-18.6a32.9,32.9,0,0,0-7.6-.9Z"/><path class="cls-22" d="M146.8,94.1a1.2,1.2,0,0,0,.9-.5,37.3,37.3,0,0,0,7.5-13.7c3.2-10.5,2.2-21.7-2.9-30.7s-13.7-15.1-25.2-18a30.4,30.4,0,0,0-7.3-.9c-14.5,0-27.3,10.1-31.9,25.1-2.2,7.2-9.3,25.5-9.4,25.7a1.2,1.2,0,0,0,.1,1,1.1,1.1,0,0,0,.7.6L99,88.3h.3a1.3,1.3,0,0,0,1.2-.8c12.9-35.9,19.7-39.8,22-39.8a3,3,0,0,1,1.5.5l.5.3c16.9,6.9,26.4,26.7,21.1,44a1.1,1.1,0,0,0,.6,1.4Z"/><path class="cls-2" d="M119.8,31.6a34.2,34.2,0,0,1,7,.8C153.2,39,159.4,62,154,79.6a38.3,38.3,0,0,1-7.2,13.2c5.3-17.2-3.8-38.1-21.8-45.5a5.4,5.4,0,0,0-2.5-.8c-3.4,0-10.5,5.2-23.2,40.6L79.7,81.5s7.2-18.4,9.4-25.7c4.6-15,17.4-24.2,30.7-24.2m0-2.5c-15,0-28.3,10.4-33.1,25.9-2.2,7.2-9.3,25.4-9.3,25.6a2,2,0,0,0,.1,2A2.4,2.4,0,0,0,79,83.9l19.6,5.6h.7a2.7,2.7,0,0,0,2.4-1.7c13.5-37.9,20.1-39,20.8-39s.5.2.8.4l.7.4c16.4,6.6,25.5,25.7,20.4,42.4a2.5,2.5,0,0,0,2.4,3.2,2.5,2.5,0,0,0,1.9-.9,38,38,0,0,0,7.7-14.1,40.8,40.8,0,0,0-3-31.7c-5.2-9.2-14.2-15.6-26-18.6a32.9,32.9,0,0,0-7.6-.9Z"/><g class="cls-3"><path class="cls-10" d="M96.1,55.2c-2.5-1.9-2.8-4.9-3-8.1a34.6,34.6,0,0,0-4,8.7c-2.2,7.3-9.4,25.7-9.4,25.7l31.8,9.1S114,67.4,118,54.8h-.2C110.7,54.9,102.1,59.7,96.1,55.2Z"/></g><path class="cls-7" d="M113.7,39.7c-6.8,2.6-15.4,15.2-17.2,7.6-.5-2.4,6.3-10.3,16.4-13.6A27.9,27.9,0,0,1,135.1,36S122.8,36.1,113.7,39.7Z"/><path class="cls-16" d="M93.9,105.9h.6a1.3,1.3,0,0,0,.6-1c0-.3,1.9-23.7.7-40.8C94.6,45.1,81.4,28.2,63.7,22.7A30.5,30.5,0,0,0,55,21.5c-12.4,0-26.1,6.9-33.4,16.7a1.3,1.3,0,0,0,.1,1.6,1.2,1.2,0,0,0,.9.4.8.8,0,0,0,.7-.2,28.9,28.9,0,0,1,16.3-5.2A25.3,25.3,0,0,1,47.3,36c15.5,4.8,23.8,22.9,18.4,40.4a36.5,36.5,0,0,1-8.8,14.8,1.2,1.2,0,0,0-.2,1.5,1.5,1.5,0,0,0,1.1.6h.3a3.9,3.9,0,0,1,1.6-.2c9.6,0,33.4,12.5,33.6,12.7Z"/><path class="cls-2" d="M55,22.7a29.4,29.4,0,0,1,8.4,1.2c17.9,5.5,30,22.8,31.2,40.1s-.7,40.7-.7,40.7S69.7,91.8,59.7,91.8l-1.9.2a37.2,37.2,0,0,0,9.1-15.3c5.6-18.1-3-36.9-19.2-41.9a28.4,28.4,0,0,0-8.1-1.2,30.1,30.1,0,0,0-17,5.4C29.4,29.8,42.7,22.7,55,22.7m0-2.5c-12.8,0-26.9,7.1-34.4,17.3a2.6,2.6,0,0,0,.2,3.2,2.7,2.7,0,0,0,1.8.8A2.4,2.4,0,0,0,24,41a28.2,28.2,0,0,1,15.6-4.9A26.5,26.5,0,0,1,47,37.2c14.8,4.6,22.7,22,17.5,38.8A35.2,35.2,0,0,1,56,90.3a2.7,2.7,0,0,0-.4,3,2.5,2.5,0,0,0,2.2,1.2h.6l1.3-.2c7.7,0,26.4,9.1,33,12.6l1.2.3,1.2-.3a3,3,0,0,0,1.3-2c0-1,1.9-23.8.7-41-1.3-19.4-14.9-36.8-33-42.3A29.9,29.9,0,0,0,55,20.2Z"/><path class="cls-20" d="M79.6,99.1l.7-.2a1.7,1.7,0,0,0,.6-1c.4-7.3.8-17.9.4-26.9-.9-18.7-13-35.3-29.6-40.4a26.3,26.3,0,0,0-7.6-1.1,39.5,39.5,0,0,0-20.4,6.3l-.3.2-1.8,2.2a1.3,1.3,0,0,0,.1,1.6,1.2,1.2,0,0,0,.9.4.8.8,0,0,0,.7-.2,28.9,28.9,0,0,1,16.3-5.2A25.3,25.3,0,0,1,47.3,36c15.5,4.8,23.8,22.9,18.4,40.4a36.5,36.5,0,0,1-8.8,14.8,1.2,1.2,0,0,0-.2,1.5,1.5,1.5,0,0,0,1.1.6h.3a3.9,3.9,0,0,1,1.6-.2c3.8,0,10.5,2,19.4,5.9Z"/><path class="cls-2" d="M44.1,30.7a25.8,25.8,0,0,1,7.3,1.1c16.7,5.1,27.8,22,28.6,39.3a263.6,263.6,0,0,1-.4,26.8c-7.1-3.1-15.1-6.1-19.9-6.1l-1.9.2a37.2,37.2,0,0,0,9.1-15.3c5.6-18.1-3-36.9-19.2-41.9a28.4,28.4,0,0,0-8.1-1.2,30.1,30.1,0,0,0-17,5.4,19.2,19.2,0,0,1,1.8-2.2c6-3.7,13.1-6.1,19.7-6.1m0-2.5a40.6,40.6,0,0,0-21,6.5c-.3.1-.4.3-.6.5l-1.9,2.3a2.6,2.6,0,0,0,.2,3.2,2.7,2.7,0,0,0,1.8.8A2.4,2.4,0,0,0,24,41a28.2,28.2,0,0,1,15.6-4.9A26.5,26.5,0,0,1,47,37.2c14.8,4.6,22.7,22,17.5,38.8A35.2,35.2,0,0,1,56,90.3a2.7,2.7,0,0,0-.4,3,2.5,2.5,0,0,0,2.2,1.2h.6l1.3-.2c2.5,0,7.9,1,18.9,5.8a2,2,0,0,0,1,.2,2.8,2.8,0,0,0,1.3-.3,2.4,2.4,0,0,0,1.2-2,262.3,262.3,0,0,0,.4-27c-.9-19.3-13.4-36.4-30.4-41.6a26.3,26.3,0,0,0-8-1.2Z"/><g class="cls-3"><path class="cls-23" d="M75,51c-1.4-5.2-7.2-6.5-12.7-5.7,6,8.3,8.1,20,4.6,31.4A37.2,37.2,0,0,1,57.8,92H68.6l.4.2h1.1l.4.2h.7l.5.2H72l.5.2h.2l.5.2h.3l.5.2h.3l.5.2h.3l.5.2h.2l.6.2h.2l.6.2h.1l.8.3h0l1.5.7c7.7,3.3,14.3,6.8,14.3,6.8s1.5-18.1,1-34.2C86.1,66.6,78,61.7,75,51Z"/></g><path class="cls-7" d="M76,38.8C83.9,47.1,86.7,63.7,92.3,60c1.6-1.1-2.9-15.8-12.7-24.6C64.9,22,52.7,24.5,52.7,24.5S68,30.4,76,38.8Z"/><path class="cls-24" d="M114.6,111.9h.2a1.4,1.4,0,0,0,1.1-1.1A34.2,34.2,0,0,1,122,94.7c6.6-9.7,16.9-15.5,27.7-15.5a26.9,26.9,0,0,1,15.2,4.6,28,28,0,0,1,11.9,21.3,1.2,1.2,0,0,0,1.1,1.1h.1a1.2,1.2,0,0,0,1.2-.9c3.7-13.4-1.2-33.8-14.2-42.6a44.8,44.8,0,0,0-25.2-7.6,47.9,47.9,0,0,0-27,8.3c-14.1,9.8-31.2,25.9-31.4,26a1.4,1.4,0,0,0-.4,1.2,1.6,1.6,0,0,0,.7.9c7.9,3.4,28.9,13.6,31.8,19.7A1.4,1.4,0,0,0,114.6,111.9Z"/><path class="cls-2" d="M139.8,56.4a42.7,42.7,0,0,1,24.5,7.4c12.3,8.3,17.4,27.6,13.7,41.2-.7-8.9-4.9-17.1-12.4-22.2A27.8,27.8,0,0,0,149.7,78C139,78,128,83.7,120.9,94a38.1,38.1,0,0,0-6.3,16.6c-3.7-7.8-32.4-20.3-32.4-20.3s17.1-16,31.3-25.9a46.4,46.4,0,0,1,26.3-8m0-2.5a48.7,48.7,0,0,0-27.7,8.5C97.9,72.2,81.2,87.9,80.5,88.5a2.5,2.5,0,0,0-.7,2.3,2.4,2.4,0,0,0,1.4,1.8c10.8,4.7,28.8,14,31.2,19.1a2.4,2.4,0,0,0,2.2,1.4h.4a2.5,2.5,0,0,0,2.1-2.2A35.9,35.9,0,0,1,123,95.4c6.4-9.4,16.3-15,26.7-15a26.1,26.1,0,0,1,14.5,4.4,27.3,27.3,0,0,1,11.4,20.4,2.6,2.6,0,0,0,2.2,2.3h.2a2.6,2.6,0,0,0,2.5-1.9c3.7-13.8-.9-34.5-14.8-43.9a45.5,45.5,0,0,0-25.9-7.8Z"/><path class="cls-20" d="M114.6,111.9h.2a1.4,1.4,0,0,0,1.1-1.1A34.2,34.2,0,0,1,122,94.7c6.6-9.7,16.9-15.5,27.7-15.5a26.9,26.9,0,0,1,15.2,4.6,28,28,0,0,1,11.9,21.3,1.2,1.2,0,0,0,1.1,1.1h.1a1.2,1.2,0,0,0,1.2-.9,22.9,22.9,0,0,0,.7-2.8v-.4c-1.4-10.9-6.4-20.3-13.5-25.1a39.8,39.8,0,0,0-22.6-6.7,46.5,46.5,0,0,0-27.4,8.9A264.8,264.8,0,0,0,95.6,96.3a1.5,1.5,0,0,0-.4,1.1,1.3,1.3,0,0,0,.7.9c9.9,5.3,16.2,9.9,17.6,12.9A1.4,1.4,0,0,0,114.6,111.9Z"/><path class="cls-2" d="M143.8,71.5A39,39,0,0,1,165.7,78c7.4,5,11.8,14.6,12.9,24.3a13.1,13.1,0,0,1-.6,2.7c-.7-8.9-4.9-17.1-12.4-22.2A27.8,27.8,0,0,0,149.7,78C139,78,128,83.7,120.9,94a38.1,38.1,0,0,0-6.3,16.6c-1.9-4-10.3-9.2-18.1-13.4,5.9-5.3,13.6-11.9,20.6-17a45.8,45.8,0,0,1,26.7-8.7m0-2.5a48.5,48.5,0,0,0-28.2,9.2A264.8,264.8,0,0,0,94.8,95.4a2.4,2.4,0,0,0-.8,2.1,2.6,2.6,0,0,0,1.3,1.9c13.6,7.3,16.5,11,17.1,12.3a2.4,2.4,0,0,0,2.2,1.4h.4a2.5,2.5,0,0,0,2.1-2.2A35.9,35.9,0,0,1,123,95.4c6.4-9.4,16.3-15,26.7-15a26.1,26.1,0,0,1,14.5,4.4,27.3,27.3,0,0,1,11.4,20.4,2.6,2.6,0,0,0,2.2,2.3h.2a2.6,2.6,0,0,0,2.5-1.9l.6-2.9V102c-1.4-11.3-6.6-21-14-26a40.5,40.5,0,0,0-23.3-7Z"/><g class="cls-3"><path class="cls-10" d="M126.6,81.5c-6.1-.6-16,2.9-17.9-2.3-1-2.4.3-7.3-.2-11.1C95.6,77.8,82.2,90.3,82.2,90.3s6.9,3,14.3,6.9h0l2.2,1.2h0l.7.4h.1l.6.3h.1l.6.3h.2l.5.3c.1.1.2.1.2.2l.5.3h.3l.4.3h.3l.4.3h.3l.4.3.3.2.4.2.3.2.4.3h.2l.4.3.3.2.4.2.2.2.4.3h.3l.3.3.3.2.3.2.3.2.3.3h.2l.3.3.3.2.3.2.2.2.3.2.2.2.3.3h.2l.2.3a.2.2,0,0,1,.2.2l.3.2.2.2.2.2c0,.1.1.1.1.2l.2.2c.1.1.2.1.2.2l.2.2v.2l.2.2v.2c.1.1.2.1.2.2s.1.1.1.2l.2.2v.2l.2.3A38.1,38.1,0,0,1,120.9,94a37.1,37.1,0,0,1,10.5-10.4A10.9,10.9,0,0,0,126.6,81.5Z"/></g><path class="cls-7" d="M143.4,62.8c-11.6-.4-25.8,8.5-26.7,1.9-.3-2,13.7-8.3,26.8-6.9,19.8,2.2,26,12.9,26,12.9S154.9,63.2,143.4,62.8Z"/><path class="cls-25" d="M19.3,56a10,10,0,0,0,2.9-19.6,13.5,13.5,0,0,0-2.9-.4,9.9,9.9,0,0,0-9.6,7.1,10.1,10.1,0,0,0,.7,7.6,10.2,10.2,0,0,0,5.9,4.9,10.3,10.3,0,0,0,3,.4Z"/><path class="cls-2" d="M19.3,37.2a12.7,12.7,0,0,1,2.6.4,8.8,8.8,0,0,1-2.6,17.2,7.5,7.5,0,0,1-2.6-.4,8.8,8.8,0,0,1,2.6-17.2m0-2.4a11.2,11.2,0,0,0-10,16.5A11.1,11.1,0,0,0,16,56.8a12,12,0,0,0,3.3.5,11.1,11.1,0,0,0,10.7-8,11,11,0,0,0-.8-8.5,10.6,10.6,0,0,0-6.6-5.5,9.5,9.5,0,0,0-3.3-.5Z"/><g class="cls-3"><path class="cls-25" d="M22.7,38a8.7,8.7,0,0,1-8.8,14.5l-.8-.3a7.8,7.8,0,0,0,3.6,2.2,8.9,8.9,0,0,0,11-5.8A8.8,8.8,0,0,0,22.7,38Z"/></g><path class="cls-26" d="M12.6,44c1.3-3.5,5.9-6.1,8.8-5a3.8,3.8,0,0,1,2,1.5,4.2,4.2,0,0,0-2.9-2.6c-2.9-1.1-7.2,1-8.5,4.3-.6,1.7-1,3.6-.3,5.1A7.8,7.8,0,0,1,12.6,44Z"/><path class="cls-2" d="M16.5,49.3a2.7,2.7,0,0,1-2.1,2.6c-1.2.2-2.4-1-2.3-2.7a2.4,2.4,0,0,1,2.4-2.6A2.8,2.8,0,0,1,16.5,49.3Z"/><path class="cls-27" d="M20.1,36.9A17,17,0,0,0,14.8,54"/><path class="cls-2" d="M19.7,50.3a2.7,2.7,0,0,0,.3,3.3c.9.9,2.5.5,3.5-.9s.5-3.1-.7-3.5A2.6,2.6,0,0,0,19.7,50.3Z"/><path class="cls-27" d="M23.7,38a17.3,17.3,0,0,1-5.2,17.2"/><path class="cls-25" d="M180.8,114.9a9.8,9.8,0,0,0,7-2.9,10,10,0,0,0,3-7.1,10.2,10.2,0,0,0-10.1-10,10,10,0,0,0-7.1,3,9.7,9.7,0,0,0-2.9,7,10,10,0,0,0,10,10Z"/><path class="cls-2" d="M180.7,96.1a8.8,8.8,0,0,1,.1,17.6h-.1a8.7,8.7,0,0,1-8.7-8.8,8.9,8.9,0,0,1,8.7-8.8h0m0-2.4h0a11.3,11.3,0,1,0,8,19.2,11.5,11.5,0,0,0,3.3-8,11.3,11.3,0,0,0-11.3-11.2Z"/><g class="cls-3"><path class="cls-25" d="M181.6,96.2a8.7,8.7,0,0,1-4,16.5h-1a10,10,0,0,0,4.2,1,8.8,8.8,0,0,0,8.7-8.8A8.7,8.7,0,0,0,181.6,96.2Z"/></g><path class="cls-26" d="M173.7,104.9c.2-3.6,3.9-7.5,7-7.3a5.3,5.3,0,0,1,2.4.8,4.5,4.5,0,0,0-3.6-1.6c-3.1-.2-6.6,3.1-6.8,6.6-.1,1.8.1,3.8,1.1,5C173.4,107.4,173.7,106.1,173.7,104.9Z"/><path class="cls-2" d="M179,108.9a2.5,2.5,0,0,1-1.2,3.1,2.3,2.3,0,0,1-3-1.9c-.5-1.7.4-3.1,1.6-3.2A2.6,2.6,0,0,1,179,108.9Z"/><path class="cls-27" d="M178.8,96a17.2,17.2,0,0,0,0,17.9"/><path class="cls-2" d="M182.5,108.9a2.6,2.6,0,0,0,1.2,3.1c1.1.5,2.6-.3,3-2a2.2,2.2,0,0,0-1.6-3.1A2.6,2.6,0,0,0,182.5,108.9Z"/><path class="cls-27" d="M182.6,96a17.2,17.2,0,0,1,.1,17.9"/><path class="cls-25" d="M143.2,107a8.9,8.9,0,0,0,6.6-3,9,9,0,0,0,2.2-6.3,8.8,8.8,0,0,0-2.9-6.1,8.6,8.6,0,0,0-5.9-2.3,8.9,8.9,0,0,0-6.6,3,9,9,0,0,0-2.2,6.3,8.4,8.4,0,0,0,2.9,6.1,8.6,8.6,0,0,0,5.9,2.3Z"/><path class="cls-2" d="M143.2,90.4a8.1,8.1,0,0,1,5.2,2,7.7,7.7,0,0,1,.5,10.9,7.6,7.6,0,0,1-5.7,2.6,8.1,8.1,0,0,1-5.2-2,7.8,7.8,0,0,1-.6-10.9,8,8,0,0,1,5.8-2.6m0-2.2a9.9,9.9,0,0,0-6.6,17.3,9.5,9.5,0,0,0,6.6,2.6,10,10,0,0,0,7.4-3.3,10.4,10.4,0,0,0,2.5-7.2,9.8,9.8,0,0,0-3.3-6.8,9.6,9.6,0,0,0-6.6-2.6Z"/><g class="cls-3"><path class="cls-25" d="M148.9,93a7.5,7.5,0,0,1-1.5,7.8,7.7,7.7,0,0,1-10.9.6l-.6-.6a9.5,9.5,0,0,0,2.1,3.1A7.7,7.7,0,0,0,148.9,93Z"/></g><path class="cls-26" d="M138.6,94c2.3-2.2,7-2.6,8.9-.6a5.4,5.4,0,0,1,1.1,1.8,4.3,4.3,0,0,0-1.4-3.1c-1.9-1.9-6.2-1.9-8.4.3a6.7,6.7,0,0,0-2.2,4A7.6,7.6,0,0,1,138.6,94Z"/><path class="cls-2" d="M139.7,99.7a2.4,2.4,0,0,1-2.6,1.4c-1-.3-1.5-1.8-.8-3.1s2.1-1.8,2.9-1.1A2.2,2.2,0,0,1,139.7,99.7Z"/><path class="cls-28" d="M147.2,91.2a15,15,0,0,0-10.5,11.7"/><path class="cls-2" d="M142,101.8a2.3,2.3,0,0,0-1,2.7c.4,1,1.8,1.3,3.1.5a2.1,2.1,0,0,0,.8-3A2.3,2.3,0,0,0,142,101.8Z"/><path class="cls-28" d="M149.7,93.4a15.2,15.2,0,0,1-10.5,11.8"/><path class="cls-20" d="M104.2,108.7a1.3,1.3,0,0,0,.8-.3,1.3,1.3,0,0,0,.4-1.2c-.5-3.1-3.1-18.9-3.8-25.6C100,63.6,86.1,50,69.4,50H68.3c-11.9.4-21.7,4.7-28.4,12.4a39.4,39.4,0,0,0-9.1,29.5,38.5,38.5,0,0,0,4.5,15,1.3,1.3,0,0,0,1.1.6h.4a1.6,1.6,0,0,0,.9-1.4,37.8,37.8,0,0,1,8.7-27.9,30.7,30.7,0,0,1,22-10.9h.1a.5.5,0,0,1,.5.3c1.1,1.2,3.4,6.3,2.1,30a1.4,1.4,0,0,0,.9,1.3l31.8,9.7Z"/><path class="cls-2" d="M69.4,51.2c15.6,0,29.3,12.6,31,30.5.6,6.4,3,21.1,3.8,25.8L72.4,97.7c.7-13.3.8-31.6-3.9-31.6h-.1c-21.9,1.2-33.7,21.8-32,40.2A38.4,38.4,0,0,1,32,91.8c-1.7-18.3,9.1-39.5,36.3-40.6h1.1m0-2.5H68.2c-12.2.5-22.3,5-29.3,12.9S28.5,80.7,29.6,92.1a39.3,39.3,0,0,0,4.6,15.4,2.6,2.6,0,0,0,2.2,1.3l.7-.2a2.4,2.4,0,0,0,1.8-2.6,36.8,36.8,0,0,1,8.4-27A29.2,29.2,0,0,1,68.2,68.6c.6.7,3,5.3,1.7,28.9a2.4,2.4,0,0,0,1.8,2.5l31.7,9.8h.8a2.5,2.5,0,0,0,1.6-.6,2.4,2.4,0,0,0,.8-2.3c-.5-3.1-3.1-18.9-3.7-25.5-1.8-18.7-16.1-32.8-33.5-32.8Z"/><path class="cls-29" d="M104.2,108.7a1.3,1.3,0,0,0,.8-.3,1.3,1.3,0,0,0,.4-1.2c-.5-3.1-3.1-18.9-3.8-25.6C100,63.6,86.1,50,69.4,50H68.3c-11.9.4-21.7,4.7-28.4,12.4a39.4,39.4,0,0,0-9.1,29.5,38.5,38.5,0,0,0,4.5,15,1.3,1.3,0,0,0,1.1.6h.4a1.6,1.6,0,0,0,.9-1.4C36,88.1,49.3,70.7,67.3,67.4l.5-.2,1.1-.2c1.6,0,7.2,2.4,12.5,34a1.1,1.1,0,0,0,.8,1l21.6,6.6Z"/><path class="cls-2" d="M69.4,51.2c15.6,0,29.3,12.6,31,30.5.6,6.4,3,21.1,3.8,25.8l-21.6-6.7C77.4,69.7,71.8,65.7,68.9,65.7a5,5,0,0,0-1.9.5c-19.1,3.5-32.3,22.1-30.6,40.1A38.4,38.4,0,0,1,32,91.8c-1.7-18.3,9.1-39.5,36.3-40.6h1.1m0-2.5H68.2c-12.2.5-22.3,5-29.3,12.9S28.5,80.7,29.6,92.1a39.3,39.3,0,0,0,4.6,15.4,2.6,2.6,0,0,0,2.2,1.3l.7-.2a2.4,2.4,0,0,0,1.8-2.6C37.3,88.6,50.1,71.9,67.5,68.6l.8-.2.6-.2c.3,0,5.8.4,11.2,33a2.6,2.6,0,0,0,1.8,2l21.5,6.6h.8a2.5,2.5,0,0,0,1.6-.6,2.4,2.4,0,0,0,.8-2.3c-.5-3.1-3.1-18.9-3.7-25.5-1.8-18.7-16.1-32.8-33.5-32.8Z"/><g class="cls-3"><path class="cls-10" d="M100.4,81.7a35.7,35.7,0,0,0-8-19.6c-1.2,6.1-4.6,11.1-10.6,11.8-3,.3-6.9-2.5-10-2.5,1.3,6.5,1.1,17.5.6,26.3l10.2,3.1,21.6,6.7C103.4,102.8,101,88.1,100.4,81.7Z"/></g><path class="cls-7" d="M46.8,68.9c5.8-5.3,11.5-9.7,16-11.9l8.4-4.1a48.6,48.6,0,0,0-8.2.2A40.2,40.2,0,0,0,41.9,64.3c-8.7,9.3-9.1,24.4-9.1,24.4S35.1,79.7,46.8,68.9Z"/><path class="cls-10" d="M116,117.2c.6,0,2.2,0,2.6-1.2l.5-1.7c.7-2.3,2.1-6.9,4.1-8.2a10.5,10.5,0,0,1,2.1-1.2,11.4,11.4,0,0,0,4.9-3.9,4.3,4.3,0,0,0,.6-3.8,5.9,5.9,0,0,0-3.7-3.5,3.3,3.3,0,0,0-1.7-.4c-3.5,0-6.9,3.8-9.9,7.2a28.1,28.1,0,0,1-3.6,3.5,5.2,5.2,0,0,1,.6-2.9l.2-.5a32.2,32.2,0,0,0,1.9-6c.7-3.1-.3-5.2-3.1-6.9a9.2,9.2,0,0,0-4.6-1.4,6.1,6.1,0,0,0-3,.8c-2.2,1.5-2.2,3.7-2.2,5.5v1.3a9.7,9.7,0,0,1-2.4,5.9,2,2,0,0,1-1.4.6,2.6,2.6,0,0,1-2-1,2.5,2.5,0,0,1-.4-2.2c.3-1.1.8-2.2,1.3-3.5,1.5-3.3,3.1-7.1,2-10.4a5.7,5.7,0,0,0-5.5-4.1,7.5,7.5,0,0,0-4.8,1.9c-1.2,1-2.5,3.6-3.7,6.2a22.9,22.9,0,0,1-2,3.7l-.4.6c-.6.7-1.4,1.9-1.9,1.9s-.7-.3-1.1-.8-.8-3.5.1-6.3a15.4,15.4,0,0,0,.5-1.7c.4-1.4,1.2-5-.3-7.5a4.5,4.5,0,0,0-2.9-2.3l-1.9-.3c-2.9,0-4.4,2.2-5.8,4.3s-2,3.4-2.9,5.1l-1.5,2.7c-.5,1-.8,1.3-.9,1.3h-.2c-.5-.6-.2-3.8,0-5.7.4-4.7.9-9.9-2.9-10.4h-.3a2.9,2.9,0,0,0-2.2,1c-1.9,2.2-1.3,7.4-1.2,8a7.7,7.7,0,0,1,.2,1.5,7.5,7.5,0,0,1-.1,4.9c-.4,1.1-.8,2.2-1.1,3.3a5,5,0,0,1-.4,1.3,6.4,6.4,0,0,1-.4,1.2c-.4.3-.6.7-1,2.1l-.3.9c-.4,1.3,0,2.6,9.2,6.3,5.8,2.4,13.6,5.1,21.9,7.7C99.1,114.3,111.6,117.2,116,117.2Z"/><path class="cls-2" d="M60.4,73h.2c4.5.5,0,13.5,2.1,15.7a1.5,1.5,0,0,0,1.1.6c.8,0,1.5-1.1,2-2,1.4-2.5,2.7-5.2,4.3-7.7s2.7-3.8,4.8-3.8l1.6.3c3.5.9,3.1,5.5,2.4,8.3s-2.7,6.4-.4,9.1c.8.8,1.4,1.2,2,1.2s2.3-1.7,3.3-3,3.8-8.3,5.5-9.7a6,6,0,0,1,4-1.6,4.4,4.4,0,0,1,4.3,3.3c1.4,4-2.1,9.3-3.3,13.1a3.9,3.9,0,0,0,3.6,4.9,3.3,3.3,0,0,0,2.3-1.1,11,11,0,0,0,2.7-6.6c.1-2.2-.5-4.4,1.7-5.9a4.6,4.6,0,0,1,2.3-.6,7.1,7.1,0,0,1,4,1.3c2.3,1.4,3.1,2.9,2.6,5.5a35.8,35.8,0,0,1-1.9,5.8c-.5,1.4-1.4,3-.8,4.5a.9.9,0,0,0,.9.7c2.5,0,8.6-10.8,13.7-10.8a3.1,3.1,0,0,1,1.3.3c2.5,1,4,3.1,2.5,5.6s-4.4,3.1-6.7,4.7-4.1,7.5-4.8,9.6a8.1,8.1,0,0,1-.2.9c-.1.3-.6.4-1.5.4-4.2,0-16.4-2.8-30.6-7.2C68.2,103.5,54.6,97.9,55,96.4l.3-.9c.8-2.7.7-.7,1.5-3.3s.8-3.1,1.4-4.6.4-4.4,0-7S57.6,73,60.4,73m0-2.4A4.1,4.1,0,0,0,57.3,72c-2.2,2.5-1.7,7.5-1.5,8.9l.3,1.6c.3,1.8.5,2.9-.1,4.3a22.4,22.4,0,0,0-1.1,3.4,5,5,0,0,0-.4,1.3,2.2,2.2,0,0,1-.3.8A5.2,5.2,0,0,0,53,94.8l-.2.9c-.8,2.6,1.3,4.2,9.9,7.7,5.8,2.4,13.6,5.1,22,7.7,14.2,4.4,26.8,7.3,31.3,7.3,2.1,0,3.3-.7,3.8-2.1a8.1,8.1,0,0,0,.2-.9l.3-.8c.5-1.8,1.9-6.4,3.5-7.5l2-1.2a11.8,11.8,0,0,0,5.4-4.2,5.8,5.8,0,0,0,.8-4.9,7.7,7.7,0,0,0-4.4-4.3,8.5,8.5,0,0,0-2.2-.4c-4.1,0-7.7,4-10.8,7.6l-.3.3a44.4,44.4,0,0,0,1.5-5.2c.8-3.5-.4-6.1-3.6-8.1a10.7,10.7,0,0,0-5.3-1.6,6.1,6.1,0,0,0-3.6,1c-2.8,1.9-2.8,4.6-2.8,6.5v1.2a8.1,8.1,0,0,1-2.1,5.1c-.3.3-.5.3-.5.3a1.1,1.1,0,0,1-1-.6,1.2,1.2,0,0,1-.3-1.1c.3-.9.8-2.1,1.3-3.3,1.6-3.5,3.3-7.5,2-11.3A6.9,6.9,0,0,0,93.3,78a9.5,9.5,0,0,0-5.6,2.1c-1.3,1.1-2.4,3.4-4,6.7a35.6,35.6,0,0,1-1.8,3.5l-.5.6a12.5,12.5,0,0,0-.9,1.2v-.2c-1-1.1-.6-2.7.3-5.2l.5-1.7c.4-1.6,1.2-5.5-.4-8.4a5.8,5.8,0,0,0-3.7-2.8,6,6,0,0,0-2.2-.4c-3.6,0-5.3,2.7-6.8,4.9s-2,3.4-3,5.2a4.7,4.7,0,0,1-.5,1,13.8,13.8,0,0,1,.2-2.2c.4-4.7,1-11.1-3.9-11.7Z"/><g class="cls-3"><path class="cls-10" d="M122.3,103c-4.9,3.6-5.1,5.2-7.9,10.1-4,.3-51.4-13.6-55.9-14.1,5.1,2.5,15.1,6.2,26.9,9.8,17.2,5.3,31.6,8.4,32.1,6.8a8.1,8.1,0,0,0,.2-.9c.7-2.1,2.2-7.9,4.8-9.6s4.9-2.1,6.6-4.6C126.7,100.2,124.1,101.7,122.3,103Z"/></g><path class="cls-25" d="M34.1,123a10,10,0,1,0,0-20A10.2,10.2,0,0,0,24,113a10.1,10.1,0,0,0,2.9,7.1A9.9,9.9,0,0,0,34,123Z"/><path class="cls-2" d="M34.1,104.2h0a8.8,8.8,0,0,1,8.7,8.9,8.7,8.7,0,0,1-8.7,8.7H34a8.8,8.8,0,0,1,.1-17.6m0-2.4A11.3,11.3,0,0,0,22.8,113a11,11,0,0,0,3.2,7.9,11.2,11.2,0,1,0,8.1-19.1Z"/><g class="cls-3"><path class="cls-25" d="M35,104.3a8.5,8.5,0,0,1,4.6,7.8,8.7,8.7,0,0,1-8.8,8.7h-.9a8.1,8.1,0,0,0,4.1,1.1,8.8,8.8,0,0,0,1-17.5Z"/></g><path class="cls-26" d="M27,113c.3-3.7,4-7.5,7.1-7.3a4.5,4.5,0,0,1,2.3.8,4.2,4.2,0,0,0-3.5-1.6c-3.1-.2-6.7,3-6.9,6.5-.1,1.8.1,3.8,1.1,5C26.7,115.5,27,114.1,27,113Z"/><path class="cls-2" d="M32.3,117a2.7,2.7,0,0,1-1.2,3.1c-1.1.5-2.6-.3-3-2s.4-3.1,1.6-3.2A2.7,2.7,0,0,1,32.3,117Z"/><path class="cls-27" d="M32.2,104a17.2,17.2,0,0,0-.1,18"/><path class="cls-2" d="M35.7,117a2.8,2.8,0,0,0,1.2,3.1c1.1.5,2.6-.3,3.1-1.9s-.4-3.1-1.6-3.2A2.8,2.8,0,0,0,35.7,117Z"/><path class="cls-27" d="M36,104.1a17,17,0,0,1-.1,17.9"/><g class="cls-3"><path class="cls-10" d="M75.2,92.7a4.5,4.5,0,0,0,2.3,2.2,3.7,3.7,0,0,0,3.4-.3c-.7.2-1.5-.1-2.4-1.1-2.3-2.7-.4-6.3.4-9.1a15,15,0,0,0,.4-2.4C76.4,84.8,74.4,88.5,75.2,92.7Z"/></g><g class="cls-3"><path class="cls-10" d="M94.1,100.4a1.9,1.9,0,0,0,1.5.4,4,4,0,0,1-1.3-4c1.1-3.5,4.2-8.2,3.6-12.1C95.3,89.9,90.6,94.7,94.1,100.4Z"/></g><g class="cls-3"><path class="cls-10" d="M110.7,104.4h0c-.4-1.4.4-3,.9-4.3a35.8,35.8,0,0,0,1.9-5.8,4.7,4.7,0,0,0-.8-4.1c-1,1.9-2.4,3.6-3.4,5.6S106.7,105.4,110.7,104.4Z"/></g><path class="cls-7" d="M73.8,79.8c-1.5,1.3-1.8,3.4-2.6,2.5s-.4-2.8,1-4.2,3.3-1.8,4.2-.9S75.2,78.4,73.8,79.8Z"/><path class="cls-7" d="M91.5,84.6c-1.5,1.3-1.8,3.4-2.6,2.5s-.5-2.8,1-4.2,3.3-1.8,4.2-.9S92.9,83.2,91.5,84.6Z"/><path class="cls-7" d="M60,76.6c-.5,1.3-.1,2.6-.9,2.3s-1-1.6-.6-2.8,1.5-2,2.3-1.7S60.4,75.4,60,76.6Z"/><path class="cls-7" d="M106.3,91c-1,1-1,2.7-1.9,1.8a2.5,2.5,0,0,1,.3-3.5,2.6,2.6,0,0,1,3.6-.2C109.1,90,107.4,89.9,106.3,91Z"/><path class="cls-2" d="M112.3,134.1v-.2l.4-.3a4,4,0,0,1,1.6-.8l.5-.2h.5l.9.2.4.3h0l.2.2.2.3c.2.2.1.2.2.4s.1.3.2.5a5.3,5.3,0,0,1,.1,1.3c0,.4-.1.9-.1,1.3a1.5,1.5,0,0,0-.1.7l-.2.6-.3,1.1-.4.9a5.9,5.9,0,0,0-.4.8l-.3.7.6-.4c.2-.2.5-.3.7-.6a2,2,0,0,0,.8-.8l.8-1.2.3-.6.3-.8a7.6,7.6,0,0,0,.3-1.6,6.2,6.2,0,0,0-.1-1.9l-.3-.9c-.2-.3-.4-.8-.6-.9l-.3-.3h-.1l-.2-.2h-.1l-.9-.4c-.4,0-.6-.2-1-.1h-1.6l-.6.4a6.4,6.4,0,0,0-1.4,1.6A1.3,1.3,0,0,0,112.3,134.1Z"/><path class="cls-2" d="M117.3,136.3h-.5a4.2,4.2,0,0,0-1.4.2,5,5,0,0,0-1.7,1l-.9.7-.8.8-.6,1a3.1,3.1,0,0,0-.5,1,4.3,4.3,0,0,0-.4,1.9,5.3,5.3,0,0,0,.1,1.4l.2.5.2-.5a9.1,9.1,0,0,0,.6-1.1,2.1,2.1,0,0,0,.4-.6l.6-.8,1.1-1.5,1.2-1.5.6-.6.5-.6a4.1,4.1,0,0,1,1-.9Z"/></g></g></svg>