<svg xmlns="http://www.w3.org/2000/svg" viewBox="0 0 200 200"><defs><style>.cls-1{isolation:isolate;}.cls-2,.cls-5{fill:#fccbaa;}.cls-3{fill:#3b2314;}.cls-4,.cls-5{mix-blend-mode:multiply;}.cls-6{fill:#be1e2d;stroke-linecap:round;stroke-miterlimit:10;stroke-width:1.238px;}.cls-18,.cls-19,.cls-6{stroke:#3b2314;}.cls-7{fill:#f8a576;}.cls-8{fill:#faaf40;}.cls-9{fill:#00a69c;}.cls-10{fill:#cd383a;}.cls-11{fill:#d0d2d3;}.cls-12,.cls-17,.cls-21{fill:#fff;}.cls-12,.cls-22{opacity:0.3;}.cls-13{fill:#8bc53f;}.cls-14{fill:#929497;}.cls-15{fill:#5661ab;}.cls-16{fill:#ffc609;}.cls-17{opacity:0.6;}.cls-18,.cls-19{fill:none;stroke-linecap:square;stroke-linejoin:round;}.cls-18{stroke-width:0.515px;}.cls-19{stroke-width:0.453px;}.cls-20{fill:#26a9e0;}</style></defs><g class="cls-1"><g id="Layer_7" data-name="Layer 7"><path class="cls-2" d="M66.5,178.64c4.734,0,13.673-3.828,16.611-5.086.406-.174.676-.29.772-.325l-.021-.063c2.119-.692,10.109-5.028,10.2-5.076,7.132-3.974,11.741-7.427,13.7-10.264,2.162-3.136,2.543-7.733,1.059-12.659,1.524-3.878,3.529-15.4,3.742-18.445.818-11.761,1.053-25.019-6.563-33.491-4.983-5.542-12.593-8.427-23.268-8.82-.43-.016-.852-.024-1.27-.024-17.826,0-29.212,14.365-32.944,41.546-4.667,2.985-7.492,6.985-7.777,11.032-.562,8.1,8.6,26.066,8.995,26.827,2.853,9.24,8.33,14.281,16.215,14.83C66.128,178.633,66.313,178.64,66.5,178.64Z"/><path class="cls-3" d="M81.463,85.363q.606,0,1.231.024c29.99,1.1,30.2,22.5,28.893,41.267-.219,3.147-2.333,15.134-3.805,18.465,1.382,4.346,1.4,8.924-.825,12.152C102.443,163.812,83.6,172.3,83.6,172.3h0c-.19,0-11.711,5.366-17.095,5.366-.168,0-.33-.007-.486-.017-8.249-.573-12.942-6.338-15.415-14.3,0,0-9.439-18.388-8.889-26.313.293-4.178,3.54-7.956,7.709-10.514,2.194-16.441,8.863-41.156,32.04-41.156m0-1.953c-18.289,0-29.982,14.5-33.853,41.949-4.7,3.127-7.547,7.293-7.845,11.538-.56,8.069,8.044,25.264,9.023,27.19C51.849,173.8,57.6,179.019,65.882,179.6c.2.013.408.02.622.02,4.386,0,11.7-2.9,16.868-5.111l.033.024,1-.45c.789-.356,19.392-8.789,24.161-15.7,2.284-3.311,2.741-8.082,1.285-13.174,1.566-4.3,3.471-15.326,3.687-18.415.832-11.961,1.061-25.456-6.811-34.212-5.167-5.749-13.006-8.74-23.959-9.143q-.662-.024-1.3-.025Z"/><g class="cls-4"><path class="cls-2" d="M53.409,127.18a56.032,56.032,0,0,0-6.815,1.395,21.987,21.987,0,0,1,2.829-2.056c.149-1.1.292-2.249.436-3.428A11.912,11.912,0,0,0,53.409,127.18Z"/></g><g class="cls-4"><path class="cls-2" d="M96.449,141.93c2.094-5.664,5.165-11.118,6.282-16.992A110.77,110.77,0,0,0,104.8,93.827c7.822,8.123,7.63,20.814,6.791,32.827-.219,3.147-2.333,15.134-3.805,18.465,1.382,4.346,1.4,8.924-.825,12.152-2.025,2.933-6.934,6.261-11.736,9.038C97.181,163.263,110.591,147.266,96.449,141.93Z"/></g><path class="cls-5" d="M81.4,143.72s-2.35,8.337-10.856,6.8S60.2,148.093,59.993,140.338,81.4,143.72,81.4,143.72Z"/><path class="cls-6" d="M117.238,113.248s2.67,5.812,2.161,10.54-7.017,10.939-11.138,14.279,4.754-16.109,3.55-23.726,4.923-1.918,4.923-1.918Z"/><path class="cls-7" d="M105.966,138.342s3.6-1.784,4-2.341c.888-1.251,1.392-4.4,2-5.807,3-6.957,11.812-2.4,12.387,3.487.87,8.92-7.755,19.682-12.811,18.469-4.485-1.075-4.007-7.812-4.007-7.812"/><path class="cls-3" d="M105.966,138.342s.918-.339,2.474-1.075c.386-.194.814-.4,1.274-.681a2.04,2.04,0,0,0,.368-.272l.1-.084c.024-.03.009.006.069-.08l.023-.043.1-.181c.136-.242.278-.492.424-.752a19.631,19.631,0,0,0,.741-1.838c.227-.625.413-1.326.668-1.973.119-.3.262-.7.368-.932.194-.328.391-.663.593-1,.222-.282.451-.5.661-.761a9.974,9.974,0,0,1,.842-.62,4.812,4.812,0,0,1,4.307.045,7.816,7.816,0,0,1,3.589,3.351,6.434,6.434,0,0,1,.755,2.278l.038,1.46c.006.484-.077.883-.105,1.328a19.431,19.431,0,0,1-1.42,5.288,25.624,25.624,0,0,1-2.668,4.693,17.186,17.186,0,0,1-3.445,3.622,5.924,5.924,0,0,1-3.833,1.465c-.053,0-.2-.011-.179,0l-.262-.076-.511-.148a5.523,5.523,0,0,1-.737-.412,4.415,4.415,0,0,1-1.2-1.223,8.431,8.431,0,0,1-1.107-2.744,12.834,12.834,0,0,1-.359-2.642s-.024.244-.07.7a10.976,10.976,0,0,0,.027,2,8.937,8.937,0,0,0,.831,3.069,5.308,5.308,0,0,0,1.257,1.631,4.781,4.781,0,0,0,1,.666l.5.192.252.1a2.648,2.648,0,0,0,.361.066,6.9,6.9,0,0,0,4.933-1.37,16.943,16.943,0,0,0,4.014-3.785,21.968,21.968,0,0,0,4.708-10.91c.033-.528.109-1.1.1-1.59l-.058-1.46a8.173,8.173,0,0,0-1.044-3.195,9.426,9.426,0,0,0-4.642-4.064,6.329,6.329,0,0,0-5.84.32,9.878,9.878,0,0,0-1.093.92,13.571,13.571,0,0,0-.827,1.13c-.171.355-.34.706-.506,1.049-.185.471-.245.792-.368,1.182-.212.74-.341,1.41-.49,2.064-.169.607-.249,1.2-.464,1.752-.113.277-.226.544-.332.8l-.079.193-.02.046c.036-.063,0,0,0-.01l-.053.053a1.305,1.305,0,0,1-.242.222c-.383.307-.784.565-1.138.8Z"/><path class="cls-8" d="M148.764,94.209a1.246,1.246,0,0,0,.948-.436,38.264,38.264,0,0,0,7.474-13.686c3.25-10.557,2.211-21.754-2.856-30.719-5.031-8.909-13.772-15.13-25.278-17.991a30.2,30.2,0,0,0-7.28-.892c-14.432,0-27.227,10.063-31.839,25.042-2.214,7.2-9.33,25.487-9.4,25.671a1.244,1.244,0,0,0,.818,1.65L113.2,91.917a1.286,1.286,0,0,0,.341.047,1.244,1.244,0,0,0,1.238-1.116C116.908,70.388,121.5,48.3,125.211,48.3a30.769,30.769,0,0,1,19.533,15.133,38.2,38.2,0,0,1,2.83,29.161,1.245,1.245,0,0,0,1.19,1.611Z"/><path class="cls-3" d="M121.772,31.731a28.907,28.907,0,0,1,6.98.855c26.4,6.565,32.663,29.532,27.244,47.135a37.254,37.254,0,0,1-7.232,13.243c5.412-17.6-1.9-40.146-23.083-45.842a1.765,1.765,0,0,0-.469-.063c-7.127,0-11.673,43.66-11.673,43.66L81.692,81.65s7.178-18.434,9.431-25.757c4.615-14.988,17.339-24.163,30.649-24.162m0-2.491c-14.982,0-28.255,10.416-33.031,25.921-2.2,7.152-9.3,25.4-9.369,25.585a2.489,2.489,0,0,0,1.637,3.3l31.847,9.069a2.491,2.491,0,0,0,3.161-2.138C118.159,70.4,122.37,51.709,125.3,49.6a29.528,29.528,0,0,1,18.351,14.44,36.918,36.918,0,0,1,2.731,28.192,2.49,2.49,0,0,0,4.274,2.35,39.51,39.51,0,0,0,7.718-14.128c3.35-10.883,2.272-22.436-2.96-31.7-5.2-9.214-14.219-15.642-26.064-18.587a31.4,31.4,0,0,0-7.58-.929Z"/><path class="cls-9" d="M148.764,94.209a1.246,1.246,0,0,0,.948-.436,38.264,38.264,0,0,0,7.474-13.686c3.25-10.557,2.211-21.754-2.856-30.719-5.031-8.909-13.772-15.13-25.278-17.991a30.2,30.2,0,0,0-7.28-.892c-14.432,0-27.227,10.063-31.839,25.042-2.214,7.2-9.33,25.487-9.4,25.671a1.244,1.244,0,0,0,.818,1.65l19.624,5.587a1.27,1.27,0,0,0,.342.047,1.244,1.244,0,0,0,1.171-.825c12.875-35.933,19.716-39.813,22.059-39.813a2.513,2.513,0,0,1,1.422.512,3.486,3.486,0,0,0,.515.289C143.436,55.574,152.9,75.291,147.574,92.6a1.245,1.245,0,0,0,.59,1.457A1.23,1.23,0,0,0,148.764,94.209Z"/><path class="cls-3" d="M121.772,31.731a28.907,28.907,0,0,1,6.98.855c26.4,6.565,32.663,29.532,27.244,47.135a37.254,37.254,0,0,1-7.232,13.243c5.3-17.24-3.808-38.114-21.808-45.472a4.54,4.54,0,0,0-2.41-.893c-3.427,0-10.543,5.226-23.23,40.638L81.692,81.65s7.178-18.434,9.431-25.757c4.615-14.988,17.339-24.163,30.649-24.162m0-2.491c-14.982,0-28.255,10.416-33.031,25.921-2.2,7.152-9.3,25.4-9.369,25.585a2.489,2.489,0,0,0,1.637,3.3l19.624,5.587a2.489,2.489,0,0,0,3.028-1.555c13.574-37.893,20.178-38.987,20.885-38.987a1.359,1.359,0,0,1,.746.312,4.357,4.357,0,0,0,.722.4c16.37,6.692,25.508,25.728,20.37,42.434a2.49,2.49,0,0,0,4.274,2.35,39.51,39.51,0,0,0,7.718-14.128c3.35-10.883,2.272-22.436-2.96-31.7-5.2-9.214-14.219-15.642-26.064-18.587a31.4,31.4,0,0,0-7.58-.929Z"/><path class="cls-8" d="M148.764,94.209a1.246,1.246,0,0,0,.948-.436,38.264,38.264,0,0,0,7.474-13.686c3.25-10.557,2.211-21.754-2.856-30.719-5.031-8.909-13.772-15.13-25.278-17.991a30.2,30.2,0,0,0-7.28-.892c-14.432,0-27.227,10.063-31.839,25.042-2.214,7.2-9.33,25.487-9.4,25.671a1.244,1.244,0,0,0,.818,1.65L113.2,91.917a1.286,1.286,0,0,0,.341.047,1.244,1.244,0,0,0,1.238-1.116C116.908,70.388,121.5,48.3,125.211,48.3a30.769,30.769,0,0,1,19.533,15.133,38.2,38.2,0,0,1,2.83,29.161,1.245,1.245,0,0,0,1.19,1.611Z"/><path class="cls-3" d="M121.772,31.731a28.907,28.907,0,0,1,6.98.855c26.4,6.565,32.663,29.532,27.244,47.135a37.254,37.254,0,0,1-7.232,13.243c5.412-17.6-1.9-40.146-23.083-45.842a1.765,1.765,0,0,0-.469-.063c-7.127,0-11.673,43.66-11.673,43.66L81.692,81.65s7.178-18.434,9.431-25.757c4.615-14.988,17.339-24.163,30.649-24.162m0-2.491c-14.982,0-28.255,10.416-33.031,25.921-2.2,7.152-9.3,25.4-9.369,25.585a2.489,2.489,0,0,0,1.637,3.3l31.847,9.069a2.491,2.491,0,0,0,3.161-2.138C118.159,70.4,122.37,51.709,125.3,49.6a29.528,29.528,0,0,1,18.351,14.44,36.918,36.918,0,0,1,2.731,28.192,2.49,2.49,0,0,0,4.274,2.35,39.51,39.51,0,0,0,7.718-14.128c3.35-10.883,2.272-22.436-2.96-31.7-5.2-9.214-14.219-15.642-26.064-18.587a31.4,31.4,0,0,0-7.58-.929Z"/><path class="cls-10" d="M148.764,94.209a1.246,1.246,0,0,0,.948-.436,38.264,38.264,0,0,0,7.474-13.686c3.25-10.557,2.211-21.754-2.856-30.719-5.031-8.909-13.772-15.13-25.278-17.991a30.2,30.2,0,0,0-7.28-.892c-14.432,0-27.227,10.063-31.839,25.042-2.214,7.2-9.33,25.487-9.4,25.671a1.244,1.244,0,0,0,.818,1.65l19.624,5.587a1.27,1.27,0,0,0,.342.047,1.244,1.244,0,0,0,1.171-.825c12.875-35.933,19.716-39.813,22.059-39.813a2.513,2.513,0,0,1,1.422.512,3.486,3.486,0,0,0,.515.289C143.436,55.574,152.9,75.291,147.574,92.6a1.245,1.245,0,0,0,.59,1.457A1.23,1.23,0,0,0,148.764,94.209Z"/><path class="cls-3" d="M121.772,31.731a28.907,28.907,0,0,1,6.98.855c26.4,6.565,32.663,29.532,27.244,47.135a37.254,37.254,0,0,1-7.232,13.243c5.3-17.24-3.808-38.114-21.808-45.472a4.54,4.54,0,0,0-2.41-.893c-3.427,0-10.543,5.226-23.23,40.638L81.692,81.65s7.178-18.434,9.431-25.757c4.615-14.988,17.339-24.163,30.649-24.162m0-2.491c-14.982,0-28.255,10.416-33.031,25.921-2.2,7.152-9.3,25.4-9.369,25.585a2.489,2.489,0,0,0,1.637,3.3l19.624,5.587a2.489,2.489,0,0,0,3.028-1.555c13.574-37.893,20.178-38.987,20.885-38.987a1.359,1.359,0,0,1,.746.312,4.357,4.357,0,0,0,.722.4c16.37,6.692,25.508,25.728,20.37,42.434a2.49,2.49,0,0,0,4.274,2.35,39.51,39.51,0,0,0,7.718-14.128c3.35-10.883,2.272-22.436-2.96-31.7-5.2-9.214-14.219-15.642-26.064-18.587a31.4,31.4,0,0,0-7.58-.929Z"/><g class="cls-4"><path class="cls-11" d="M98.081,55.341c-2.522-1.949-2.781-4.941-3.026-8.112a37.055,37.055,0,0,0-3.932,8.664C88.87,63.216,81.692,81.65,81.692,81.65l31.847,9.069s2.416-23.193,6.486-35.77c-.078,0-.154,0-.232,0C112.7,55,104.15,59.816,98.081,55.341Z"/></g><path class="cls-12" d="M115.727,39.8c-6.838,2.662-15.448,15.285-17.22,7.6-.534-2.321,6.339-10.3,16.423-13.556a28.138,28.138,0,0,1,22.209,2.287S124.823,36.26,115.727,39.8Z"/><path class="cls-13" d="M95.88,106.052a1.248,1.248,0,0,0,1.242-1.145c.02-.234,1.9-23.663.729-40.8-1.3-18.847-14.5-35.8-32.116-41.221a29.5,29.5,0,0,0-8.691-1.254c-12.427,0-26.173,6.89-33.426,16.755a1.245,1.245,0,0,0,1.7,1.769,29.035,29.035,0,0,1,16.27-5.17,26.372,26.372,0,0,1,7.759,1.167A27.642,27.642,0,0,1,66.328,51.486a35.175,35.175,0,0,1,1.364,25.007,36.451,36.451,0,0,1-8.775,14.812,1.246,1.246,0,0,0,1.177,2.086,6.857,6.857,0,0,1,1.577-.159c9.622,0,33.387,12.548,33.626,12.675A1.24,1.24,0,0,0,95.88,106.052Z"/><path class="cls-3" d="M57.044,22.875a28.292,28.292,0,0,1,8.324,1.2c17.9,5.51,30.045,22.734,31.24,40.117,1.183,17.243-.728,40.616-.728,40.616S71.716,91.986,61.671,91.987a8.138,8.138,0,0,0-1.867.192,37.52,37.52,0,0,0,9.078-15.32c5.591-18.159-2.99-36.918-19.169-41.9a27.509,27.509,0,0,0-8.125-1.223A30.348,30.348,0,0,0,24.62,39.122c6.747-9.174,20.072-16.248,32.424-16.247m0-2.491c-12.8,0-26.956,7.1-34.43,17.262a2.491,2.491,0,0,0,3.4,3.538,27.8,27.8,0,0,1,15.571-4.956,25.082,25.082,0,0,1,7.393,1.113A26.409,26.409,0,0,1,65.2,52,33.925,33.925,0,0,1,66.5,76.126a35.192,35.192,0,0,1-8.471,14.3A2.489,2.489,0,0,0,59.8,94.67a2.451,2.451,0,0,0,.58-.069,5.672,5.672,0,0,1,1.287-.123c7.726,0,26.47,9.044,33.043,12.529a2.491,2.491,0,0,0,3.649-2c.079-.962,1.912-23.758.729-40.99C97.763,44.67,84.2,27.265,66.1,21.692a30.808,30.808,0,0,0-9.057-1.308Z"/><path class="cls-8" d="M81.625,99.242a1.245,1.245,0,0,0,1.243-1.174,267.648,267.648,0,0,0,.42-26.879C82.409,52.455,70.257,35.817,53.735,30.73a25.869,25.869,0,0,0-7.626-1.1,39.79,39.79,0,0,0-20.4,6.28,1.246,1.246,0,0,0-.282.239c-.661.754-1.267,1.506-1.8,2.235a1.245,1.245,0,0,0,1.7,1.77,29.035,29.035,0,0,1,16.27-5.17,26.372,26.372,0,0,1,7.759,1.167A27.642,27.642,0,0,1,66.328,51.486a35.175,35.175,0,0,1,1.364,25.007,36.451,36.451,0,0,1-8.775,14.812,1.246,1.246,0,0,0,1.177,2.086,6.857,6.857,0,0,1,1.577-.159c3.8,0,10.532,2.043,19.459,5.908A1.261,1.261,0,0,0,81.625,99.242Z"/><path class="cls-3" d="M46.109,30.874a24.6,24.6,0,0,1,7.26,1.046c16.742,5.155,27.865,22.062,28.674,39.327.4,8.609.04,18.771-.418,26.75-7.082-3.066-15.141-6.01-19.954-6.01a8.138,8.138,0,0,0-1.867.192,37.52,37.52,0,0,0,9.078-15.32c5.591-18.159-2.99-36.918-19.169-41.9a27.509,27.509,0,0,0-8.125-1.223A30.348,30.348,0,0,0,24.62,39.122c.539-.732,1.122-1.45,1.739-2.153,6.057-3.741,13.1-6.1,19.75-6.1m0-2.491A41.042,41.042,0,0,0,25.05,34.85a2.438,2.438,0,0,0-.564.478c-.684.78-1.314,1.56-1.873,2.317a2.492,2.492,0,0,0,3.4,3.539,27.8,27.8,0,0,1,15.571-4.956,25.082,25.082,0,0,1,7.393,1.113A26.409,26.409,0,0,1,65.2,52,33.925,33.925,0,0,1,66.5,76.126a35.192,35.192,0,0,1-8.471,14.3A2.489,2.489,0,0,0,59.8,94.67a2.451,2.451,0,0,0,.58-.069,5.672,5.672,0,0,1,1.287-.123c2.534,0,7.88,1.007,18.965,5.805a2.49,2.49,0,0,0,3.475-2.144,268.715,268.715,0,0,0,.421-27.009C83.63,51.881,71.116,34.778,54.1,29.539a27.177,27.177,0,0,0-7.994-1.156Z"/><g class="cls-4"><path class="cls-14" d="M77.05,51.1c-1.47-5.192-7.264-6.5-12.8-5.628,6.054,8.317,8.143,19.97,4.627,31.387A37.52,37.52,0,0,1,59.8,92.179c.132-.032.273-.058.416-.083.048-.008.094-.012.146-.019.1-.015.2-.03.3-.041.061,0,.128-.01.189-.013.093-.008.186-.017.282-.022.071,0,.144,0,.215-.006.093,0,.186-.007.282-.007l.232,0c.1,0,.189,0,.285.006s.169.009.249.013c.1,0,.2.01.3.017l.26.023c.1.009.2.018.3.029s.183.021.272.032c.106.012.209.024.315.039s.192.028.287.04.212.032.319.05.2.033.3.05l.332.058.3.058c.113.023.227.044.34.068s.209.044.31.068c.117.024.233.048.349.075l.319.074.358.085.324.082.365.092c.109.029.217.06.328.089.126.033.25.066.376.1l.33.092.388.111.331.1c.133.039.265.079.395.119l.333.1.409.128c.108.036.219.07.328.106.139.044.275.09.414.135l.333.11.426.143c.108.036.219.073.325.111.148.05.3.1.441.152l.318.112c.149.054.3.107.451.162l.308.111.474.174.292.108c.162.059.328.121.487.183.1.035.191.07.282.106.172.064.339.128.507.194.089.033.175.068.263.1.178.069.353.137.529.208l.242.094.56.222c.068.029.138.056.207.084l.6.243c.053.023.106.044.159.066l.656.269.106.045.709.3c.017.006.033.014.048.02.512.216,1.021.433,1.523.65,7.7,3.332,14.255,6.809,14.255,6.809s1.477-18.083,1.028-34.172C88.052,66.751,79.993,61.822,77.05,51.1Z"/></g><path class="cls-12" d="M77.956,38.916C85.9,47.292,88.692,63.851,94.25,60.131,95.925,59.007,91.393,44.372,81.6,35.5,66.857,22.136,54.68,24.6,54.68,24.6S70.019,30.542,77.956,38.916Z"/><path class="cls-15" d="M116.635,112.022a1.221,1.221,0,0,0,.2-.015,1.244,1.244,0,0,0,1.037-1.084,36.41,36.41,0,0,1,6.087-16.1c6.595-9.692,16.971-15.478,27.756-15.478a26.9,26.9,0,0,1,15.209,4.608A28.087,28.087,0,0,1,178.8,105.213a1.245,1.245,0,0,0,1.128,1.141c.038,0,.076,0,.114,0a1.247,1.247,0,0,0,1.2-.923c3.6-13.44-1.241-33.755-14.2-42.574a44.7,44.7,0,0,0-25.289-7.574A47.7,47.7,0,0,0,114.8,63.531c-14.117,9.786-31.239,25.892-31.411,26.053a1.245,1.245,0,0,0,.361,2.049c7.861,3.4,28.894,13.571,31.763,19.673A1.245,1.245,0,0,0,116.635,112.022Z"/><path class="cls-3" d="M141.761,56.534a43.6,43.6,0,0,1,24.586,7.357c12.246,8.334,17.33,27.68,13.7,41.223-.713-8.923-4.955-17.115-12.421-22.2a28.064,28.064,0,0,0-15.91-4.823c-10.719,0-21.764,5.7-28.785,16.023a37.5,37.5,0,0,0-6.294,16.658c-3.7-7.868-32.4-20.287-32.4-20.287S101.3,74.4,115.505,64.554a46.455,46.455,0,0,1,26.256-8.02m0-2.491a48.951,48.951,0,0,0-27.675,8.464C99.891,72.347,83.233,88.016,82.53,88.678a2.489,2.489,0,0,0,.719,4.1c10.762,4.657,28.729,13.949,31.132,19.061a2.489,2.489,0,0,0,2.254,1.431,2.459,2.459,0,0,0,.4-.033,2.488,2.488,0,0,0,2.073-2.165,35.2,35.2,0,0,1,5.88-15.55c6.363-9.351,16.355-14.933,26.727-14.933a25.66,25.66,0,0,1,14.51,4.391,26.852,26.852,0,0,1,11.339,20.334,2.488,2.488,0,0,0,2.255,2.282c.078.007.154.01.228.01a2.493,2.493,0,0,0,2.405-1.845c3.7-13.8-.868-34.512-14.7-43.927a45.951,45.951,0,0,0-25.988-7.789Z"/><path class="cls-8" d="M116.635,112.022a1.236,1.236,0,0,0,1.236-1.1,36.41,36.41,0,0,1,6.087-16.1c6.595-9.692,16.971-15.478,27.756-15.478a26.9,26.9,0,0,1,15.209,4.608A28.087,28.087,0,0,1,178.8,105.213a1.245,1.245,0,0,0,1.127,1.141c.038,0,.077,0,.115,0a1.248,1.248,0,0,0,1.2-.921c.237-.88.444-1.825.618-2.809a1.221,1.221,0,0,0,.01-.367c-1.327-10.9-6.358-20.294-13.46-25.126a39.953,39.953,0,0,0-22.613-6.71,47.069,47.069,0,0,0-27.443,8.9c-7.247,5.261-15.273,12.211-20.73,17.114a1.245,1.245,0,0,0,.249,2.027c9.958,5.282,16.219,9.842,17.629,12.837A1.244,1.244,0,0,0,116.635,112.022Z"/><path class="cls-3" d="M145.8,71.671a38.73,38.73,0,0,1,21.912,6.494c7.348,5,11.742,14.529,12.925,24.247-.163.923-.358,1.823-.595,2.7-.713-8.923-4.955-17.115-12.421-22.2a28.064,28.064,0,0,0-15.91-4.823c-10.719,0-21.764,5.7-28.785,16.023a37.5,37.5,0,0,0-6.294,16.658c-1.9-4.035-10.369-9.268-18.173-13.407,5.945-5.342,13.655-11.971,20.629-17.034A46,46,0,0,1,145.8,71.671m0-2.491a48.332,48.332,0,0,0-28.176,9.141c-7.289,5.293-15.35,12.273-20.829,17.2a2.49,2.49,0,0,0,.5,4.053c13.607,7.218,16.482,10.984,17.085,12.268a2.492,2.492,0,0,0,2.254,1.43,2.459,2.459,0,0,0,.4-.033,2.488,2.488,0,0,0,2.073-2.165,35.2,35.2,0,0,1,5.88-15.55c6.363-9.351,16.356-14.933,26.727-14.933a25.66,25.66,0,0,1,14.51,4.391,26.852,26.852,0,0,1,11.339,20.334,2.489,2.489,0,0,0,2.253,2.282c.076.007.154.01.23.01a2.489,2.489,0,0,0,2.4-1.842c.247-.915.464-1.9.643-2.918a2.462,2.462,0,0,0,.02-.732c-1.37-11.253-6.6-20.975-14-26.006A41.2,41.2,0,0,0,145.8,69.18Z"/><g class="cls-4"><path class="cls-11" d="M128.59,81.638c-6.056-.558-16.038,2.912-17.853-2.316-1-2.365.306-7.254-.254-11.126C97.576,77.915,84.239,90.49,84.239,90.49s6.811,2.946,14.223,6.879h0c.728.386,1.462.783,2.2,1.186.012.005.022.012.035.018l.686.381.089.049c.213.118.421.237.633.355l.126.073c.2.112.395.223.59.336.057.03.11.062.163.092.182.106.368.212.548.318.07.039.134.078.2.116l.509.3.219.13.485.29c.076.046.158.095.235.143.155.092.309.184.461.278.083.05.169.1.25.154l.44.27.258.162c.143.088.282.175.419.264l.269.171.4.257c.09.058.176.116.269.175l.386.255c.088.06.179.12.27.179l.373.251c.088.061.179.123.27.184.12.081.239.163.355.246l.27.188c.114.081.23.161.341.243.09.062.178.125.265.189.112.08.221.161.33.241.088.063.174.127.259.192.106.078.212.156.313.237.088.063.171.129.257.193.1.078.2.156.3.234.083.064.166.13.249.193s.192.156.286.235l.237.192c.093.078.186.154.275.231.073.065.151.129.226.193s.175.155.262.231c.069.064.142.126.212.189.086.077.167.154.248.232.068.062.138.124.2.186.082.076.156.153.236.229.061.062.126.124.185.186.077.075.15.15.219.226.06.061.119.123.176.184s.136.151.2.226c.053.059.113.119.162.179.065.077.126.152.188.228l.144.173c.059.077.119.154.177.232.04.054.085.109.124.163.057.08.108.159.16.237.036.051.072.1.1.153.06.086.11.173.158.257.024.042.051.085.074.126.073.128.138.253.2.377a38.171,38.171,0,0,1,16.747-27A10.224,10.224,0,0,0,128.59,81.638Z"/></g><path class="cls-12" d="M145.35,62.939c-11.532-.383-25.777,8.513-26.68,1.887-.272-2,13.688-8.319,26.82-6.882,19.779,2.168,26.017,12.916,26.017,12.916S156.884,63.322,145.35,62.939Z"/><path class="cls-16" d="M21.273,56.186a10.036,10.036,0,1,0-2.95-.446,9.971,9.971,0,0,0,2.95.446Z"/><path class="cls-3" d="M21.268,37.388a8.776,8.776,0,1,1-8.382,6.194,8.753,8.753,0,0,1,8.382-6.194m0-2.491a11.268,11.268,0,1,0,3.317.5,11.206,11.206,0,0,0-3.317-.5Z"/><g class="cls-4"><path class="cls-16" d="M24.718,38.1a8.774,8.774,0,0,1-8.79,14.585,8.881,8.881,0,0,1-.865-.318A8.773,8.773,0,1,0,24.718,38.1Z"/></g><path class="cls-17" d="M14.573,44.1c1.286-3.444,5.949-6.018,8.847-4.937a4.8,4.8,0,0,1,2,1.44,4.335,4.335,0,0,0-2.94-2.565c-2.879-1.075-7.214.987-8.433,4.253-.647,1.737-1.04,3.656-.395,5.13A8.628,8.628,0,0,1,14.573,44.1Z"/><path class="cls-3" d="M18.464,49.452a2.647,2.647,0,0,1-2.072,2.6c-1.2.19-2.381-1.042-2.328-2.735s1.3-2.822,2.484-2.564A2.617,2.617,0,0,1,18.464,49.452Z"/><path class="cls-18" d="M22.07,37.031a17.17,17.17,0,0,0-5.277,17.134"/><path class="cls-3" d="M21.742,50.459a2.647,2.647,0,0,0,.248,3.317c.885.83,2.556.478,3.464-.953s.51-3.065-.615-3.517A2.612,2.612,0,0,0,21.742,50.459Z"/><path class="cls-18" d="M25.745,38.163A17.159,17.159,0,0,1,20.469,55.3"/><path class="cls-16" d="M182.759,115.08a10.031,10.031,0,1,0-.023,0Z"/><path class="cls-3" d="M182.736,96.286a8.775,8.775,0,0,1,.02,17.549h-.018a8.775,8.775,0,0,1-.022-17.549h.02m0-2.491h-.026a11.277,11.277,0,1,0,.026,0Z"/><g class="cls-4"><path class="cls-16" d="M183.638,96.333a8.773,8.773,0,0,1-4.072,16.535,8.484,8.484,0,0,1-.92-.047,8.773,8.773,0,1,0,4.992-16.488Z"/></g><path class="cls-17" d="M175.73,105.077c.208-3.67,3.9-7.511,6.983-7.336a4.792,4.792,0,0,1,2.34.783,4.323,4.323,0,0,0-3.568-1.58c-3.069-.173-6.6,3.081-6.793,6.563-.1,1.849.091,3.8,1.145,5.015A8.641,8.641,0,0,1,175.73,105.077Z"/><path class="cls-3" d="M181.029,109.03a2.645,2.645,0,0,1-1.206,3.1c-1.086.536-2.582-.291-3.033-1.922s.406-3.082,1.613-3.186A2.612,2.612,0,0,1,181.029,109.03Z"/><path class="cls-18" d="M180.794,96.1a17.156,17.156,0,0,0,.04,17.927"/><path class="cls-3" d="M184.46,109.022a2.645,2.645,0,0,0,1.221,3.094c1.09.531,2.58-.3,3.026-1.936s-.419-3.079-1.629-3.178A2.613,2.613,0,0,0,184.46,109.022Z"/><path class="cls-18" d="M184.639,96.093a17.16,17.16,0,0,1,.039,17.926"/><path class="cls-16" d="M145.19,107.116a8.819,8.819,0,1,0-5.892-2.258,8.831,8.831,0,0,0,5.892,2.258Z"/><path class="cls-3" d="M145.194,90.573a7.723,7.723,0,1,1-5.748,2.563,7.694,7.694,0,0,1,5.748-2.563m0-2.193a9.915,9.915,0,1,0,6.621,2.538,9.93,9.93,0,0,0-6.621-2.538Z"/><g class="cls-4"><path class="cls-16" d="M150.928,93.123a7.724,7.724,0,0,1-12.41,8.409,7.638,7.638,0,0,1-.577-.575,7.724,7.724,0,1,0,12.987-7.834Z"/></g><path class="cls-17" d="M140.6,94.177c2.3-2.278,6.978-2.612,8.894-.678a4.252,4.252,0,0,1,1.066,1.891,3.811,3.811,0,0,0-1.4-3.137c-1.906-1.922-6.129-1.875-8.311.285a6.311,6.311,0,0,0-2.208,3.953A7.61,7.61,0,0,1,140.6,94.177Z"/><path class="cls-3" d="M141.734,99.886a2.325,2.325,0,0,1-2.615,1.313c-1.029-.29-1.516-1.711-.85-3.045s2.083-1.775,2.933-1.13A2.3,2.3,0,0,1,141.734,99.886Z"/><path class="cls-19" d="M149.2,91.294a15.106,15.106,0,0,0-10.543,11.742"/><path class="cls-3" d="M143.978,101.9a2.332,2.332,0,0,0-1.024,2.743c.4.989,1.866,1.324,3.119.518s1.541-2.261.812-3.037A2.309,2.309,0,0,0,143.978,101.9Z"/><path class="cls-19" d="M151.72,93.556A15.106,15.106,0,0,1,141.181,105.3"/><path class="cls-8" d="M106.158,108.837a1.246,1.246,0,0,0,1.23-1.447c-.933-5.669-3.167-19.514-3.742-25.644-1.685-18.038-15.531-31.641-32.207-31.641q-.579,0-1.164.023c-11.848.455-21.675,4.763-28.42,12.46C35.07,70.332,31.768,81.081,32.8,92.078A38.241,38.241,0,0,0,37.329,107a1.245,1.245,0,0,0,2.332-.715,38.185,38.185,0,0,1,8.715-27.971,30.77,30.77,0,0,1,22.06-10.842h.022a.732.732,0,0,1,.57.3c1.065,1.125,3.4,6.3,2.116,29.967A1.243,1.243,0,0,0,74.021,99l31.771,9.783A1.24,1.24,0,0,0,106.158,108.837Z"/><path class="cls-3" d="M71.44,51.351c15.606,0,29.293,12.6,30.966,30.512.6,6.389,2.993,21.118,3.752,25.729L74.387,97.809c.722-13.3.853-31.583-3.913-31.583-.036,0-.073,0-.109,0C48.46,67.486,36.709,88.068,38.421,106.4a37.174,37.174,0,0,1-4.383-14.441c-1.717-18.337,9.1-39.545,36.285-40.589.375-.014.744-.021,1.117-.021m0-2.491c-.4,0-.807.008-1.213.023-12.2.469-22.333,4.924-29.308,12.884-7.01,8-10.422,19.091-9.36,30.426a39.409,39.409,0,0,0,4.68,15.408A2.491,2.491,0,0,0,40.9,106.17,36.912,36.912,0,0,1,49.32,79.127,29.517,29.517,0,0,1,70.214,68.733c.572.751,2.97,5.36,1.685,28.941a2.491,2.491,0,0,0,1.755,2.515l31.772,9.784a2.518,2.518,0,0,0,.732.11,2.492,2.492,0,0,0,2.458-2.895c-.93-5.656-3.157-19.468-3.731-25.557C103.14,62.948,88.761,48.86,71.44,48.86Z"/><path class="cls-20" d="M106.158,108.837a1.246,1.246,0,0,0,1.23-1.447c-.933-5.669-3.167-19.514-3.742-25.644-1.685-18.038-15.531-31.641-32.207-31.641q-.579,0-1.164.023c-11.848.455-21.675,4.763-28.42,12.46C35.07,70.332,31.768,81.081,32.8,92.078A38.241,38.241,0,0,0,37.329,107a1.245,1.245,0,0,0,2.332-.715c-1.687-18.027,11.6-35.4,29.608-38.73a3.562,3.562,0,0,0,.564-.178,2.977,2.977,0,0,1,1.084-.253c1.589,0,7.18,2.454,12.443,34.031a1.243,1.243,0,0,0,.862.985l21.57,6.641A1.25,1.25,0,0,0,106.158,108.837Z"/><path class="cls-3" d="M71.44,51.351c15.606,0,29.293,12.6,30.966,30.512.6,6.389,2.993,21.118,3.752,25.729l-21.57-6.64C79.4,69.831,73.833,65.879,70.917,65.879a5.876,5.876,0,0,0-1.874.452c-19.123,3.534-32.3,22.11-30.622,40.071a37.174,37.174,0,0,1-4.383-14.441c-1.717-18.337,9.1-39.545,36.285-40.589.375-.014.744-.021,1.117-.021m0-2.491c-.4,0-.807.008-1.213.023-12.2.469-22.333,4.924-29.308,12.884-7.01,8-10.422,19.091-9.36,30.426a39.409,39.409,0,0,0,4.68,15.408A2.491,2.491,0,0,0,40.9,106.17C39.273,88.768,52.1,72,69.5,68.78a4.406,4.406,0,0,0,.785-.239,1.87,1.87,0,0,1,.637-.171c.235,0,5.78.375,11.215,32.991a2.488,2.488,0,0,0,1.724,1.971l21.57,6.641a2.518,2.518,0,0,0,.732.11,2.492,2.492,0,0,0,2.458-2.895c-.93-5.656-3.157-19.468-3.731-25.557C103.14,62.948,88.761,48.86,71.44,48.86Z"/><g class="cls-4"><path class="cls-11" d="M102.406,81.863a35.175,35.175,0,0,0-8.044-19.6c-1.14,6.048-4.563,11.107-10.6,11.751-2.969.285-6.854-2.5-9.974-2.435,1.294,6.422,1.074,17.417.595,26.226l10.2,3.143,21.57,6.64C105.4,102.981,103.006,88.252,102.406,81.863Z"/></g><path class="cls-12" d="M48.84,69.086c5.76-5.3,11.5-9.759,15.982-11.962l8.355-4.106a55.6,55.6,0,0,0-8.2.2A40.182,40.182,0,0,0,43.886,64.49c-8.7,9.218-9.044,24.371-9.044,24.371S37.117,79.882,48.84,69.086Z"/><path class="cls-11" d="M117.977,117.362c.617,0,2.256,0,2.64-1.254.1-.332.285-.958.285-.958l.214-.718c.661-2.234,2.037-6.882,4.063-8.23a21.07,21.07,0,0,1,2.12-1.184,11.2,11.2,0,0,0,4.883-3.864,4.439,4.439,0,0,0,.632-3.844,6,6,0,0,0-3.7-3.517,4.553,4.553,0,0,0-1.722-.335c-3.513,0-6.928,3.8-9.941,7.151a24.046,24.046,0,0,1-3.555,3.52,4.737,4.737,0,0,1,.63-2.911l.2-.469a34.364,34.364,0,0,0,1.9-6.057c.649-3-.3-5.108-3.1-6.822a9.261,9.261,0,0,0-4.635-1.442,5.322,5.322,0,0,0-2.972.846c-2.245,1.472-2.218,3.673-2.2,5.441.005.436.012.879-.016,1.32a9.933,9.933,0,0,1-2.42,5.862,1.916,1.916,0,0,1-1.433.692A2.536,2.536,0,0,1,97.907,99.5a2.453,2.453,0,0,1-.422-2.2,33.585,33.585,0,0,1,1.355-3.433c1.45-3.335,3.092-7.116,1.944-10.422a5.725,5.725,0,0,0-5.5-4.118A7.471,7.471,0,0,0,90.523,81.2c-1.218,1.028-2.494,3.673-3.727,6.232a28.5,28.5,0,0,1-1.969,3.7l-.457.6c-.557.743-1.4,1.868-1.9,1.868-.237,0-.619-.275-1.018-.734-1.362-1.569-.86-3.534.065-6.352.19-.585.377-1.156.527-1.7.386-1.415,1.133-4.983-.313-7.515a4.742,4.742,0,0,0-2.94-2.252,7.245,7.245,0,0,0-1.9-.277c-2.9,0-4.345,2.189-5.744,4.3-1.093,1.653-2.038,3.42-2.951,5.128-.477.894-.955,1.785-1.45,2.657a3.913,3.913,0,0,1-.979,1.329c-.015-.024-.08-.072-.171-.166-.491-.566-.184-3.8,0-5.729.441-4.635.938-9.888-2.853-10.32a3.455,3.455,0,0,0-.373-.021,2.833,2.833,0,0,0-2.191,1.01c-1.9,2.179-1.241,7.366-1.16,7.951.073.53.157,1.033.24,1.517.317,1.855.545,3.2-.136,4.907-.444,1.113-.78,2.269-1.107,3.387-.119.412-.238.823-.363,1.229a5.714,5.714,0,0,1-.421,1.143,4.61,4.61,0,0,0-1.034,2.147l-.286.931c-.388,1.26.046,2.517,9.22,6.272,5.765,2.359,13.549,5.078,21.918,7.654C101.142,114.445,113.574,117.362,117.977,117.362Z"/><path class="cls-3" d="M62.359,73.156a2.17,2.17,0,0,1,.239.014c4.494.512.013,13.51,2.127,15.69a1.485,1.485,0,0,0,1.044.545c.826,0,1.489-1.03,2.014-1.949,1.45-2.549,2.736-5.261,4.36-7.717,1.478-2.239,2.608-3.765,4.741-3.765a6.063,6.063,0,0,1,1.588.235c3.5.95,3.17,5.51,2.408,8.292-.786,2.889-2.678,6.465-.338,9.157a2.67,2.67,0,0,0,1.924,1.148c1.3,0,2.305-1.646,3.309-2.934,1.349-1.73,3.778-8.286,5.523-9.757a6.274,6.274,0,0,1,3.986-1.581,4.528,4.528,0,0,1,4.365,3.311c1.392,4.008-2.164,9.308-3.315,13.11a3.841,3.841,0,0,0,3.522,4.835,3.1,3.1,0,0,0,2.318-1.081,11.133,11.133,0,0,0,2.735-6.6c.136-2.2-.483-4.416,1.673-5.83a4.155,4.155,0,0,1,2.314-.649,7.989,7.989,0,0,1,4.007,1.264c2.3,1.414,3.109,2.96,2.549,5.546a33.226,33.226,0,0,1-1.833,5.846c-.557,1.33-1.414,2.949-.811,4.419.207.506.5.726.867.726,2.552,0,8.631-10.772,13.718-10.772a3.325,3.325,0,0,1,1.269.247c2.577,1.046,4.064,3.171,2.508,5.6-1.634,2.558-4.347,3.159-6.655,4.694-2.654,1.764-4.115,7.5-4.768,9.616,0,0-.176.61-.278.939-.083.274-.6.4-1.492.4-4.149,0-16.393-2.836-30.583-7.2C70.158,103.648,56.572,98.087,57.05,96.536c.1-.328.288-.935.288-.935.812-2.632.643-.661,1.455-3.293.461-1.505.855-3.063,1.438-4.524,1-2.523.328-4.413-.031-7.033-.247-1.778-.585-7.595,2.159-7.595m0-2.4a4.057,4.057,0,0,0-3.095,1.422c-2.145,2.463-1.648,7.44-1.446,8.9.077.545.163,1.061.249,1.558.3,1.786.487,2.863-.066,4.257-.468,1.169-.812,2.353-1.147,3.5-.118.407-.235.812-.358,1.209-.139.454-.229.693-.275.811a6.1,6.1,0,0,0-1.18,2.488l-.288.931c-.789,2.562,1.344,4.224,9.916,7.732,5.8,2.372,13.615,5.1,22.017,7.691,14.206,4.373,26.78,7.311,31.291,7.311,2.087,0,3.361-.707,3.785-2.09.106-.337.282-.951.282-.951.066-.216.142-.469.225-.749.522-1.769,1.913-6.464,3.576-7.571a20.45,20.45,0,0,1,2-1.115,12.321,12.321,0,0,0,5.349-4.284,5.6,5.6,0,0,0,.766-4.857,7.173,7.173,0,0,0-4.392-4.267,5.757,5.757,0,0,0-2.174-.423c-4.05,0-7.653,4.011-10.834,7.549q-.139.156-.289.32a35.741,35.741,0,0,0,1.53-5.176c.765-3.534-.391-6.108-3.639-8.1a10.49,10.49,0,0,0-5.265-1.62,6.5,6.5,0,0,0-3.631,1.043c-2.8,1.832-2.763,4.617-2.741,6.46,0,.406.012.819-.015,1.233a8.683,8.683,0,0,1-2.105,5.122c-.278.3-.474.3-.548.3a1.39,1.39,0,0,1-.984-.6,1.292,1.292,0,0,1-.237-1.138,33.131,33.131,0,0,1,1.307-3.3c1.536-3.537,3.28-7.546,1.977-11.3a6.966,6.966,0,0,0-6.635-4.925,8.672,8.672,0,0,0-5.535,2.147c-1.318,1.111-2.453,3.346-4.035,6.629A30.147,30.147,0,0,1,83.879,90.4c-.156.2-.315.41-.47.621-.261.346-.647.861-.948,1.182-.033-.035-.067-.073-.106-.117-.948-1.092-.521-2.689.3-5.189.2-.605.39-1.2.542-1.757.428-1.561,1.243-5.508-.427-8.431A5.917,5.917,0,0,0,79.1,73.89a8.38,8.38,0,0,0-2.217-.319c-3.546,0-5.321,2.685-6.746,4.842-1.124,1.7-2.082,3.493-3.01,5.225-.178.336-.358.671-.537,1,.054-.768.13-1.567.193-2.233.444-4.669,1.05-11.062-3.914-11.627a4.5,4.5,0,0,0-.511-.03Z"/><g class="cls-4"><path class="cls-11" d="M124.261,103.145c-4.826,3.545-5.024,5.158-7.872,10.062-4,.343-51.342-13.542-55.863-14.111,5.055,2.5,15.112,6.239,26.868,9.859,17.236,5.307,31.6,8.352,32.075,6.8.1-.329.278-.939.278-.939.653-2.121,2.114-7.852,4.768-9.616,2.258-1.5,4.9-2.112,6.542-4.525C128.749,100.363,126.084,101.881,124.261,103.145Z"/></g><path class="cls-16" d="M36.055,123.175a9.991,9.991,0,1,0-.058,0Z"/><path class="cls-3" d="M36.05,104.382H36.1a8.774,8.774,0,0,1-.047,17.548H36a8.774,8.774,0,0,1,.047-17.548m0-2.491a11.236,11.236,0,1,0,.068,0Z"/><g class="cls-4"><path class="cls-16" d="M37.026,104.436A8.773,8.773,0,0,1,31.9,120.884a8.774,8.774,0,1,0,5.124-16.448Z"/></g><path class="cls-17" d="M29.047,113.117c.237-3.669,3.957-7.48,7.044-7.281a4.8,4.8,0,0,1,2.334.8,4.335,4.335,0,0,0-3.558-1.607c-3.066-.2-6.619,3.028-6.843,6.508-.121,1.849.058,3.8,1.105,5.024A8.588,8.588,0,0,1,29.047,113.117Z"/><path class="cls-3" d="M34.318,117.112a2.647,2.647,0,0,1-1.233,3.09c-1.092.526-2.582-.31-3.018-1.946s.43-3.079,1.638-3.173A2.617,2.617,0,0,1,34.318,117.112Z"/><path class="cls-18" d="M34.184,104.181a17.158,17.158,0,0,0-.1,17.926"/><path class="cls-3" d="M37.745,117.131a2.651,2.651,0,0,0,1.2,3.105c1.087.539,2.582-.282,3.04-1.914s-.395-3.082-1.6-3.19A2.62,2.62,0,0,0,37.745,117.131Z"/><path class="cls-18" d="M38.028,104.2a17.161,17.161,0,0,1-.1,17.926"/><g class="cls-4"><path class="cls-11" d="M77.224,92.851a4.393,4.393,0,0,0,2.3,2.2,3.5,3.5,0,0,0,3.342-.3c-.682.179-1.442-.073-2.326-1.093-2.34-2.692-.448-6.268.338-9.157a14.113,14.113,0,0,0,.439-2.345C78.44,84.919,76.409,88.635,77.224,92.851Z"/></g><g class="cls-4"><path class="cls-11" d="M96.084,100.52a1.764,1.764,0,0,0,1.495.38,3.759,3.759,0,0,1-1.245-3.945c1.058-3.487,4.133-8.237,3.558-12.092C97.262,90.065,92.586,94.8,96.084,100.52Z"/></g><g class="cls-4"><path class="cls-11" d="M112.721,104.525l.021-.005c-.464-1.419.343-2.96.877-4.234a33.226,33.226,0,0,0,1.833-5.846,4.41,4.41,0,0,0-.778-4.1c-.933,1.885-2.335,3.594-3.389,5.547C110,98.848,108.692,105.518,112.721,104.525Z"/></g><path class="cls-12" d="M75.785,79.9c-1.448,1.391-1.743,3.432-2.62,2.519s-.416-2.781,1.03-4.173,3.334-1.778,4.212-.865S77.232,78.507,75.785,79.9Z"/><path class="cls-12" d="M93.481,84.7c-1.445,1.39-1.74,3.431-2.618,2.518s-.415-2.781,1.03-4.171,3.333-1.78,4.211-.867S94.929,83.3,93.481,84.7Z"/><path class="cls-12" d="M61.965,76.759C61.5,78,61.9,79.3,61.119,79s-1.039-1.536-.57-2.777,1.475-2.009,2.261-1.714S62.432,75.517,61.965,76.759Z"/><path class="cls-12" d="M108.327,91.1c-1.062,1.022-1.045,2.763-1.924,1.85a2.7,2.7,0,0,1,3.848-3.7C111.131,90.16,109.391,90.076,108.327,91.1Z"/><path class="cls-3" d="M114.275,134.2s.04-.056.113-.162c.056-.125.235-.221.374-.34a8.217,8.217,0,0,1,1.613-.8,2.771,2.771,0,0,1,.488-.136c-.016.007.121-.033-.026.014l.081,0,.163-.015.333-.028a2.532,2.532,0,0,1,.906.258c.164.04.264.2.4.275l.05.035.026.018-.089-.083,0,0,.007.01.016.018.121.149.257.287c.171.195.106.276.2.4.058.138.095.362.153.534a5.679,5.679,0,0,1,.116,1.273c-.035.447-.037.9-.11,1.349-.03.222-.089.435-.111.656a5.766,5.766,0,0,1-.146.612,9.307,9.307,0,0,1-.348,1.125,8.6,8.6,0,0,1-.4.936c-.126.287-.252.54-.361.746-.209.417-.32.674-.32.674s.237-.134.635-.4a4.493,4.493,0,0,0,.686-.532,4.882,4.882,0,0,0,.809-.832,5.763,5.763,0,0,0,.759-1.148c.112-.23.195-.34.341-.683.1-.238.176-.487.255-.742a8.418,8.418,0,0,0,.332-1.643,5.023,5.023,0,0,0-.421-2.789,5.177,5.177,0,0,0-.6-.926l-.272-.272-.143-.129-.127-.118-.057-.033-.111-.064a3.773,3.773,0,0,0-.905-.43,3.1,3.1,0,0,0-.956-.162,3.677,3.677,0,0,0-.916.1l-.318.1-.154.051-.078.028c-.2.058-.106.045-.174.072a4.032,4.032,0,0,0-.605.409,5.018,5.018,0,0,0-1.329,1.573A1.487,1.487,0,0,0,114.275,134.2Z"/><path class="cls-3" d="M119.313,136.437s-.2-.01-.527,0a3.7,3.7,0,0,0-1.338.245,5.926,5.926,0,0,0-1.774.928,4.372,4.372,0,0,0-.857.7c-.26.273-.525.552-.791.829-.21.323-.421.646-.628.962a4.163,4.163,0,0,0-.485,1.006,5.284,5.284,0,0,0-.444,1.939,3.6,3.6,0,0,0,.145,1.4,4.694,4.694,0,0,0,.156.5s.108-.181.262-.469a8.6,8.6,0,0,1,.6-1.107,6.871,6.871,0,0,0,.406-.685c.153-.235.362-.464.514-.721.312-.512.759-1,1.122-1.524.431-.479.8-1.024,1.228-1.459.214-.213.393-.47.578-.681a7.48,7.48,0,0,0,.536-.565,10.339,10.339,0,0,1,.936-.921C119.185,136.588,119.313,136.437,119.313,136.437Z"/><path class="cls-21" d="M85.41,142.3c4.993,0,9.9-4.593,11.657-10.924,2.058-7.407-.789-14.689-6.345-16.234a8.051,8.051,0,0,0-2.158-.293c-4.995,0-9.9,4.595-11.657,10.926A16.565,16.565,0,0,0,77.174,136a9.317,9.317,0,0,0,6.082,6.014,8.05,8.05,0,0,0,2.154.291Z"/><path class="cls-3" d="M88.564,115.584a7.28,7.28,0,0,1,1.96.266c5.174,1.438,7.789,8.3,5.835,15.33-1.708,6.148-6.348,10.389-10.949,10.389a7.317,7.317,0,0,1-1.958-.267c-5.177-1.437-7.789-8.3-5.837-15.33,1.707-6.15,6.347-10.388,10.949-10.388m0-1.468c-5.318,0-10.518,4.821-12.363,11.463a17.284,17.284,0,0,0,.287,10.677,10.027,10.027,0,0,0,6.571,6.46,8.788,8.788,0,0,0,2.351.32c5.317,0,10.517-4.821,12.363-11.463,2.167-7.8-.908-15.483-6.856-17.137a8.8,8.8,0,0,0-2.353-.32Z"/><path class="cls-11" d="M94.518,118.573a15.4,15.4,0,0,1,.663,10.726c-1.952,7.028-7.731,11.561-12.906,10.124a7.755,7.755,0,0,1-4-2.724,8.333,8.333,0,0,0,5.174,4.6c5.173,1.439,10.953-3.095,12.907-10.122C97.71,126.318,96.875,121.536,94.518,118.573Z"/><path class="cls-9" d="M91.948,128.55c-1.2,4.329-4.761,7.121-7.953,6.233s-4.8-5.113-3.594-9.441,4.764-7.121,7.949-6.234S93.149,124.22,91.948,128.55Z"/><path class="cls-20" d="M91.948,128.55c-1.2,4.329-4.761,7.121-7.953,6.233s-4.8-5.113-3.594-9.441,4.764-7.121,7.949-6.234S93.149,124.22,91.948,128.55Z"/><path class="cls-3" d="M89.358,127.829c-.663,2.392-2.625,3.93-4.385,3.441s-2.648-2.821-1.982-5.209,2.626-3.928,4.385-3.438S90.024,125.441,89.358,127.829Z"/><path class="cls-21" d="M87.734,122.233c-.511,1.843-2.027,3.029-3.381,2.653s-2.045-2.176-1.531-4.018,2.027-3.031,3.381-2.654S88.247,120.39,87.734,122.233Z"/><path class="cls-21" d="M88.609,131.319c-.222.8-.877,1.31-1.464,1.146a1.347,1.347,0,0,1-.661-1.736c.222-.8.877-1.309,1.462-1.146A1.347,1.347,0,0,1,88.609,131.319Z"/><path class="cls-21" d="M62.1,134.713c4.89,0,9.69-4.5,11.413-10.7a16.2,16.2,0,0,0-.26-10.007,9.124,9.124,0,0,0-5.954-5.89,7.9,7.9,0,0,0-2.112-.287c-4.89,0-9.689,4.5-11.414,10.7-2.012,7.254.775,14.385,6.216,15.9a7.972,7.972,0,0,0,2.111.286Z"/><path class="cls-3" d="M65.189,108.55a7.147,7.147,0,0,1,1.92.26c5.067,1.408,7.627,8.13,5.713,15.012-1.673,6.022-6.214,10.172-10.72,10.172a7.186,7.186,0,0,1-1.919-.26c-5.069-1.409-7.624-8.13-5.715-15.012,1.673-6.022,6.217-10.172,10.721-10.172m0-1.438c-5.206,0-10.3,4.722-12.107,11.226-2.118,7.635.895,15.162,6.717,16.78a8.591,8.591,0,0,0,2.3.313c5.292,0,10.27-4.615,12.106-11.224a16.921,16.921,0,0,0-.282-10.455,9.824,9.824,0,0,0-6.433-6.327,8.582,8.582,0,0,0-2.3-.313Z"/><path class="cls-11" d="M71.023,111.476a15.11,15.11,0,0,1,.648,10.5c-1.913,6.883-7.572,11.323-12.64,9.913a7.563,7.563,0,0,1-3.914-2.667,8.161,8.161,0,0,0,5.066,4.508c5.07,1.407,10.727-3.029,12.639-9.912C74.147,119.06,73.33,114.377,71.023,111.476Z"/><path class="cls-9" d="M68.5,121.245c-1.178,4.241-4.663,6.974-7.787,6.107s-4.7-5.007-3.516-9.247,4.66-6.973,7.785-6.105S69.682,117.006,68.5,121.245Z"/><path class="cls-20" d="M68.5,121.245c-1.178,4.241-4.663,6.974-7.787,6.107s-4.7-5.007-3.516-9.247,4.66-6.973,7.785-6.105S69.682,117.006,68.5,121.245Z"/><path class="cls-3" d="M65.968,120.542c-.649,2.34-2.573,3.845-4.3,3.367s-2.592-2.761-1.942-5.1,2.575-3.847,4.295-3.367S66.618,118.2,65.968,120.542Z"/><path class="cls-21" d="M64.377,115.06c-.5,1.8-1.985,2.967-3.314,2.6s-2-2.131-1.5-3.935,1.985-2.968,3.314-2.6S64.88,113.256,64.377,115.06Z"/><path class="cls-21" d="M65.233,123.958c-.216.779-.857,1.281-1.43,1.122a1.313,1.313,0,0,1-.647-1.7c.216-.78.854-1.283,1.43-1.123A1.318,1.318,0,0,1,65.233,123.958Z"/><path class="cls-10" d="M71.276,148.126c5.2,0,9.375-2.789,10.167-6.779.951-4.816-3.356-9.739-9.6-10.975a14.886,14.886,0,0,0-2.895-.287c-5.192,0-9.369,2.787-10.16,6.779-.953,4.816,3.353,9.739,9.6,10.976A14.919,14.919,0,0,0,71.276,148.126Z"/><path class="cls-3" d="M68.948,131.061a13.921,13.921,0,0,1,2.7.268c5.728,1.134,9.682,5.534,8.833,9.827-.716,3.608-4.593,5.993-9.209,5.993a14.023,14.023,0,0,1-2.7-.267c-5.725-1.134-9.681-5.533-8.831-9.829.714-3.607,4.587-5.992,9.2-5.992m0-1.952c-5.666,0-10.238,3.11-11.12,7.565-1.057,5.344,3.593,10.783,10.368,12.124a15.945,15.945,0,0,0,3.08.305c5.666,0,10.242-3.111,11.125-7.569,1.057-5.342-3.6-10.78-10.369-12.12a15.923,15.923,0,0,0-3.084-.3Z"/><g class="cls-22"><path class="cls-21" d="M69.1,133.089c-.639,1.137.919,3.232,3.484,4.677s5.16,1.692,5.8.555-.915-3.233-3.48-4.677S69.743,131.951,69.1,133.089Z"/></g><g class="cls-4"><path class="cls-10" d="M59.744,137.053a6.743,6.743,0,0,1,3.106-4.325,6.215,6.215,0,0,0-1.382,2.824c-.851,4.3,3.1,8.7,8.832,9.83a12.081,12.081,0,0,0,8.8-1.4c-2.118,2.5-6.211,3.751-10.528,2.9C62.85,145.748,58.894,141.349,59.744,137.053Z"/></g><path class="cls-3" d="M50.29,136.993a1.707,1.707,0,0,0-.857-.908,2.12,2.12,0,0,0-1.385-.22,2.365,2.365,0,0,0-.8.275,3.276,3.276,0,0,0-.663.514,3.212,3.212,0,0,0-.457.634,2.325,2.325,0,0,0-.275.657,3.257,3.257,0,0,0,.152,2.346,5.39,5.39,0,0,0,.8-.815c.228-.219.407-.512.626-.751a5.926,5.926,0,0,1,.6-.687,1.352,1.352,0,0,1,.258-.272c.1-.065.166-.163.267-.219a2.444,2.444,0,0,1,.681-.335A6.514,6.514,0,0,1,50.29,136.993Z"/><path class="cls-5" d="M59.235,165.674c.274-.585,2.408.516,4.9,1.687s4.411,1.971,4.133,2.554-2.88.56-5.378-.61S58.959,166.257,59.235,165.674Z"/><path class="cls-21" d="M72.206,167.164c14.094,0,25.565-16.278,26.047-16.971a.668.668,0,0,0-.548-1.049.636.636,0,0,0-.3.073,46.011,46.011,0,0,1-18.648,4.072h0A37.484,37.484,0,0,1,67.491,151.6c-13.022-4.1-18.712-13.4-18.767-13.5a.671.671,0,0,0-.574-.327.638.638,0,0,0-.241.047.663.663,0,0,0-.411.755c.505,2.448,5.364,24.026,20.141,27.98a17.661,17.661,0,0,0,4.567.6Z"/><path class="cls-3" d="M48.142,138.45h.008m0,0s5.7,9.559,19.141,13.791a38.09,38.09,0,0,0,11.464,1.715,46.238,46.238,0,0,0,18.95-4.144S86.113,166.5,72.206,166.5a16.889,16.889,0,0,1-4.395-.577C53.518,162.1,48.75,141.355,48.15,138.45m0-1.334h-.033a1.33,1.33,0,0,0-1.3,1.334,1.415,1.415,0,0,0,.052.375,58.534,58.534,0,0,0,4.791,13.618c4.1,8.087,9.418,13.056,15.811,14.766a18.377,18.377,0,0,0,4.74.621c14.437,0,26.105-16.552,26.594-17.258a1.335,1.335,0,0,0-1.7-1.952,45.124,45.124,0,0,1-18.348,4,36.8,36.8,0,0,1-11.063-1.653c-12.55-3.951-18.159-12.82-18.39-13.193a1.26,1.26,0,0,0-.091-.134,1.3,1.3,0,0,0-.313-.3,1.33,1.33,0,0,0-.6-.222,1.427,1.427,0,0,0-.146-.007Z"/><path class="cls-3" d="M99.125,152.243a1.7,1.7,0,0,0,1.034-.7,2.119,2.119,0,0,0,.441-1.33,2.367,2.367,0,0,0-.144-.83,3.307,3.307,0,0,0-.4-.738,3.213,3.213,0,0,0-.553-.553,2.271,2.271,0,0,0-.6-.377,3.252,3.252,0,0,0-2.34-.228,5.48,5.48,0,0,0,.676.924c.179.259.437.483.64.74a5.741,5.741,0,0,1,.581.7,1.334,1.334,0,0,1,.226.3c.048.1.134.191.174.3a2.506,2.506,0,0,1,.22.725A6.463,6.463,0,0,1,99.125,152.243Z"/></g></g></svg>