<svg width="200px" height="200px" xmlns="http://www.w3.org/2000/svg" viewBox="0 0 200 200"><defs><style>.cls-1{fill:#f6bd00;}.cls-1,.cls-10,.cls-11,.cls-12,.cls-2,.cls-3,.cls-4,.cls-5,.cls-6,.cls-7,.cls-8,.cls-9{fill-rule:evenodd;}.cls-2{fill:#a34027;}.cls-3{fill:#efabaf;}.cls-4{fill:#3e0305;}.cls-5{fill:#fcdeaa;}.cls-6{fill:#d3777a;}.cls-7{fill:#eaa379;}.cls-8{fill:#fff;}.cls-9{fill:#fbd9a9;}.cls-10{fill:#d4273f;}.cls-11{fill:#eb9a23;}.cls-12{fill:#ba2038;}</style></defs><g id="Layer_15" data-name="Layer 15"><path class="cls-1" d="M61.3,90q2-3,3.6-6c1.3-2.2,2.5-4.5,3.6-6.7l2.7-5.5c.7-1.3,1.3-2.6,1.9-3.9s1.9-4.5,2.6-6.7,3.1-9.6.5-11.7c-4.5-3.8-1.8-8.6.4-12.8.6-1.4,1.4-2.8,1.9-4.3l.3-1.1.4,1.1a30.5,30.5,0,0,0,1.9,4.1l.6,1.2c1.8,3.8,4,8.2,0,11.5s-.5,9.5.5,12.3a53.9,53.9,0,0,0,2.5,6c.6,1.5,1.3,2.9,2,4.3s2.3,4.8,3.5,7.1L93.5,85l3.3,5.3c7.3-1.1,14.3-4.4,20.7-8a77.1,77.1,0,0,0,17-13.1,4.4,4.4,0,0,0,.7-1.9c.1-1,.1-2,.1-3V62a5.8,5.8,0,0,1,.4-1.9c.9-1.5,2.8-2.1,4.3-2.6a15.4,15.4,0,0,0,3.4-1.7l.8-.6-.2,1c-.1,1-.2,2.1-.4,3.1s-.3,2.6-.5,3.8-.5,2.1-.8,3.2a20.1,20.1,0,0,1-4.1,6.3,30.1,30.1,0,0,0-5.1,7.5,84.7,84.7,0,0,0-4.4,9.7c-2.6,6.6-4.9,13.4-7.2,20.2l-.2.5-.5-.4C109.3,99.6,94.3,95.5,78.9,95.6S48.5,99.7,37,110.3l-.4.4-.2-.6c-2.4-6.7-4.6-13.4-7.3-19.9a91.4,91.4,0,0,0-4.3-9.5,33.7,33.7,0,0,0-5.1-7.4,18.2,18.2,0,0,1-4.1-6.1c-.3-1.1-.6-2.1-.8-3.1s-.3-2.5-.5-3.7-.3-2.1-.4-3.1l-.2-1,.8.6a11.7,11.7,0,0,0,3.4,1.6c1.5.5,3.4,1.1,4.3,2.6a3.7,3.7,0,0,1,.4,1.8v2.3h0a27.1,27.1,0,0,0,.1,2.9,4.4,4.4,0,0,0,.7,1.9A77.9,77.9,0,0,0,40.3,82.7C46.7,86.1,54,89,61.3,90Zm66.1-5.7c.8-1.7,1.5-3.5,2.3-5.2l-.3.3-4.6,3.7c-2.2,1.6-4.5,3.1-6.8,4.5l-1.4.8a50.5,50.5,0,0,0,11.3-7.5l1.2-1.2-.6,1.6-1.1,3ZM40.5,88.4,39,87.6c-2.3-1.4-4.5-2.9-6.7-4.5l-4.6-3.7-.4-.3,2.4,5.2-1.2-3L28,79.7l1.2,1.2a48.3,48.3,0,0,0,11.3,7.5ZM74.2,76.7l1.4-2.5,1.6-3.4c.3-.9.7-1.8.9-2.6l.4-1.5.4,1.5c.2.8.6,1.7.9,2.6s1,2.3,1.6,3.4l1.2,2.3v-.2a64.5,64.5,0,0,1-4-10.3,65,65,0,0,1-4.1,10.3A.5.5,0,0,1,74.2,76.7Z"/><path class="cls-2" d="M49.4,58.2a5.5,5.5,0,0,0,.2,3.6h0c2.4,5.1,6.2,11.7,11.2,14.5l.8.4-.8.3a27.4,27.4,0,0,0-4.2,2.1,48,48,0,0,0-7.9,6.2h-.4a37.9,37.9,0,0,1-4.2-1.8h-.3v-.3a98.6,98.6,0,0,0,2.3-10.5,46.4,46.4,0,0,0,.7-10.5,2.5,2.5,0,0,0-.6-1.7,4.1,4.1,0,0,1-.5-.9,5.7,5.7,0,0,1-.4-1.4,17.5,17.5,0,0,1,.1-5.1l.3-3.1V48.4l.6,1.3,1.2,2a12.5,12.5,0,0,1,1.8,4.1,6.5,6.5,0,0,1,0,2.4Zm62.3,1.7a2.8,2.8,0,0,0-.6,1.8,46.4,46.4,0,0,0,.7,10.5A94.9,94.9,0,0,0,114,82.8v.3h-.3l-4.3,1.9h-.2l-.2-.2a50.5,50.5,0,0,0-7.8-6,27.4,27.4,0,0,0-4.2-2.1l-.7-.3.7-.4c5-2.9,8.8-9.6,11.2-14.7h0a6.7,6.7,0,0,0,.3-3.7,7,7,0,0,1-.1-2.5,10.7,10.7,0,0,1,1.8-4.1l1.1-2.1.6-1.4v1.6c.1,1,.3,2.1.4,3.1a18.1,18.1,0,0,1,.1,5.2A4.6,4.6,0,0,1,111.7,59.9Z"/><path class="cls-2" d="M74.3,135a1.7,1.7,0,0,1,.6-1.5,2.5,2.5,0,0,1,1.2-.2h6.8l.9.3a1.9,1.9,0,0,1,.7,1.4v.5H84a8.9,8.9,0,0,0-3.2.3,4.7,4.7,0,0,0-1.5.6h-.4l-1.3-.5a9.2,9.2,0,0,0-2.9-.4h-.4Z"/><path class="cls-3" d="M86.2,141.8a3.1,3.1,0,0,0-2.1-.1c-.2,0-.3.2-.4.4a2.4,2.4,0,0,0,.5,2.3,3.2,3.2,0,0,0,1,1l1.2.8H85l-.8-.2,1.3.7a4.9,4.9,0,0,0,2,.5h0c.6,0,.9.7,1,1.2a1.4,1.4,0,0,1-.9,1.7,4.2,4.2,0,0,1-2.4.7h-.8a9.6,9.6,0,0,1-3.4-.4,3.8,3.8,0,0,1-1.9-1.6c-1.1,1.9-3,2-5.2,2h-.8a4,4,0,0,1-2.4-.7,1.6,1.6,0,0,1-1-1.7c.1-.5.5-1.2,1-1.2h.7l1.4-.4a3.3,3.3,0,0,0,1.3-.7l-.6.2H72.1l1.2-.8a3.2,3.2,0,0,0,1-1,4.2,4.2,0,0,0,.6-1.5l-1.4-.2a4.2,4.2,0,0,0-3.1,1.3,3.6,3.6,0,0,0-1.1,3.6l.3.5H69a3.8,3.8,0,0,1-1.5,0,3.4,3.4,0,0,1-1.6-1c-1.7-2-.5-5.9.9-7.7a9.1,9.1,0,0,1,5.1-3.3,10.2,10.2,0,0,1,4.9-.2,4.6,4.6,0,0,1,2.3,1h.1a4.3,4.3,0,0,1,2.3-1,10.2,10.2,0,0,1,4.9.2,8.6,8.6,0,0,1,5,3.3,8.9,8.9,0,0,1,1.5,3.1c.4,1.5.5,3.4-.5,4.6l-.2.2a2.8,2.8,0,0,1-1.5.8,3.8,3.8,0,0,1-1.5,0h-.5l.2-.5c.9-1.8-.9-4.4-2.7-4.8l-.6-.2.6-.8Zm-11.3.7a.6.6,0,0,0-.1-.4.7.7,0,0,0-.5-.4,2.5,2.5,0,0,0-1.7,0,2.5,2.5,0,0,1,1.2.2Z"/><path class="cls-4" d="M124.6,121.4c.9-3.8,6.2-6,10.1-4.8s6,7.1,3.5,10.1Z"/><path class="cls-5" d="M120.5,155.8l-3.8,1.1-2.4.4h-.7l-2.6,4.1,1.9-.7c2.3-1,4.8-.2,7.1-1.1h.2c1.9-.8,11.7-9.5,12.6-10.6a15.8,15.8,0,0,0,2.5-4.6c2.3-5.6,6.4-17.5-.3-21.6a9,9,0,0,0-4.2-1.3c-3.7-.4-7.4,1.2-10.8,2.7l-1,.5h-.3v.4a1.7,1.7,0,0,1-.1.7v1h.1v2l.2.2a1.6,1.6,0,0,0,.9.5c1.7.1,6.1-2,7.7-2.7l2.1-.8,1.1-.3h1a3.9,3.9,0,0,1,3.9,4.1c-.4,6.7-.7,11-4.8,16.6l-.8.7-.6.4a4.7,4.7,0,0,0-.9.6,9.7,9.7,0,0,0-2.2,2.3l-.5.5h-.5l-.7.2c-.6.2-1,1-1.3,1.5a13.7,13.7,0,0,1-1.3,2A4,4,0,0,1,120.5,155.8Z"/><path class="cls-4" d="M119.7,129c-.7-.1-1.8-2.4-1.6-2.9s1.2-1,2.2-1.5c4.4-1.8,9.8-4.1,14.4-1.3,6.3,3.8,2.1,15.5,0,20.8s-7.9,11.7-12.8,14.6-7.1,0-10,1.8l-.8-.8a3.8,3.8,0,0,1,3.2-1.8,29.8,29.8,0,0,0,6.4-1.5,25.4,25.4,0,0,0,11-10.6c3.3-5.6,4-9.6,4.4-16.1a4.6,4.6,0,0,0-4.6-4.7l-1.2.2-1,.3-2.2.8c-1.6.6-6,2.8-7.4,2.7Zm-1.2-8-.5-.7-2.5-2.9c-4.1,6.6-3,8.2-2.8,17.6a16.2,16.2,0,0,1,2.5,5.1,15.5,15.5,0,0,1,0,4.8,19.5,19.5,0,0,1-.6,2.3,15.4,15.4,0,0,1-2.1,4.7c-.5,5.5-5.5,8.8-3.5,13.9a4.9,4.9,0,0,1,3.7-1.4c9.8-.9,18.2-8.9,23-17.1s6.1-17.6,2.6-22.8-10.5-4.8-16-3.1A4.6,4.6,0,0,1,118.5,121Z"/><path class="cls-6" d="M121.8,134.8c0-2.5.5-5.2,3-5.9,4-1,6.3.1,7.4,1.8,4.5,7-7,22.8-13.4,23.6,1.9-1.8,2.6-4.6,3.7-6.3,2.9-.9,10.7-13.1.4-15.1,8.6,3.3,1.9,12.7-.1,12.8C124,141.9,123.9,137.9,121.8,134.8Z"/><path class="cls-7" d="M132.9,143.9c2.6-4.5,2.8-8.5,3.2-14.2a4.6,4.6,0,0,0-4.6-4.7,4.4,4.4,0,0,1,5,2.5c1.5,3.3-.5,12.5-2.8,17.7A32.1,32.1,0,0,1,111.3,163a7.2,7.2,0,0,0,.6-4.7c3-.4,3.6-1.3,4.7-2.6C120.7,156.4,128.1,152.3,132.9,143.9Z"/><path class="cls-5" d="M37.8,155.8l3.7,1.1,2.5.4h.7l2.5,4.1-1.8-.7c-2.3-1-4.8-.2-7.2-1.1h-.1c-1.9-.8-11.7-9.5-12.7-10.6a18.3,18.3,0,0,1-2.4-4.6c-2.3-5.6-6.4-17.5.2-21.6a9,9,0,0,1,4.2-1.3c3.7-.4,7.5,1.2,10.8,2.7l1.1.5h.3v.4a1.7,1.7,0,0,0,.1.7v1h-.1v2l-.2.2a1.9,1.9,0,0,1-1,.5c-1.6.1-6-2-7.7-2.7a10.2,10.2,0,0,0-2.1-.8l-1-.3H26.7a4,4,0,0,0-3.9,4.1c.5,6.7.8,11,4.9,16.6l.7.7.7.4a2.4,2.4,0,0,1,.8.6,10,10,0,0,1,2.3,2.3l.5.5h.4l.8.2c.6.2,1,1,1.3,1.5l1.2,2A5.7,5.7,0,0,0,37.8,155.8Z"/><path class="cls-4" d="M38.6,129c.7-.1,1.8-2.4,1.6-2.9s-1.2-1-2.2-1.5c-4.4-1.8-9.8-4.1-14.4-1.3-6.3,3.8-2.2,15.5,0,20.8s7.9,11.7,12.8,14.6,7.1,0,10,1.8l.8-.8a3.8,3.8,0,0,0-3.2-1.8,33.1,33.1,0,0,1-6.5-1.5,26,26,0,0,1-10.9-10.6c-3.3-5.6-4-9.6-4.4-16.1a4.5,4.5,0,0,1,4.5-4.7l1.2.2,1.1.3,2.2.8c1.5.6,6,2.8,7.4,2.7Zm1.2-8,.5-.7c.9-1,1.6-2,2.5-2.9,4.1,6.6,3,8.2,2.8,17.6a12.8,12.8,0,0,0-2.5,5.1,19.2,19.2,0,0,0-.1,4.8c.2.9.5,1.4.7,2.3a11.7,11.7,0,0,0,2.1,4.7c.5,5.5,5.5,8.8,3.4,13.9-.9-1.1-2.2-1.3-3.6-1.4-9.8-.9-18.2-8.9-23-17.1s-6.1-17.6-2.6-22.8,10.5-4.8,16-3.1A4.6,4.6,0,0,0,39.8,121Z"/><path class="cls-4" d="M63.3,170c-6.9-1.4-13.7-4.6-15.1-8.3a6.4,6.4,0,0,1,.5-5.4c.9-1.2,1.8-2.1,3.5-1.3a.6.6,0,0,0-.1.4c-.9,5.6,7.8,9.1,15.3,9.7,0,0-16.2-3.9-13.8-11.2a22,22,0,0,1,11.1-11.8c-.5,1.9-.6,4.1.6,5.6s.7,1.4,3.5,1.4c0,1.8,1.9,2.5,3.4,2.7a27.1,27.1,0,0,1,4.3,1c1.2.5,1.9,1.7,2.6,1.7s1.8-1.5,2.9-2,7-.1,7.4-3.4h.5a3.9,3.9,0,0,0,2-.5,4.5,4.5,0,0,0,1-.9,4.6,4.6,0,0,0,1-3.2,6.7,6.7,0,0,0-.4-2.4,10.3,10.3,0,0,1,2.3,1.2h0a19.7,19.7,0,0,1,9,11.7c1.8,5.8-8.4,9.3-13.8,10.2,7.8-.6,16.5-4.1,15-9.9,3.7-1.7,5.7,3.5,4.4,6.5s-8.9,7.2-16.4,8.7c-5.9,1.2-24,1-30.7-.4Zm15.8-32.4h0c-.7-.8-3.4-1.9-7.1-.9a8.7,8.7,0,0,0-4.9,3.1c-1.2,1.7-2.5,5.4-.9,7.3a2.9,2.9,0,0,0,1.4.8H69c-1.2-2.6,2.3-5.9,4.6-5.5-1.8-.9-5.6,1.2-5.3,4-.1-.2-.1-.3-.2-.4a2.5,2.5,0,0,1,.4-2.2c1-1.4,4.3-3.1,6-2.4s.6,3.5-1,4.5c.8,0,2.1-1.5,2.1-1.5-.6,3.1-4.8,3.3-4.8,3.3a1.2,1.2,0,0,0,.1,2.2,4.4,4.4,0,0,0,2.2.6h.8c2.3,0,4.3-.1,5.2-2.5a3.8,3.8,0,0,0,2,2.1,9.1,9.1,0,0,0,3.3.4h.7a4.5,4.5,0,0,0,2.3-.6,1.2,1.2,0,0,0,.1-2.2s-4.1-.2-4.6-3.3c0,0,1.3,1.5,2.1,1.5-1.6-1-2.7-3.8-1-4.5s4.9,1,6,2.4a2.5,2.5,0,0,1,.3,2.2l-.2.4c.3-2.1-1.8-3.8-3.6-4.2l-.2.3c2,.5,3.9,3.3,3,5.4h1.3a2.1,2.1,0,0,0,1.3-.7h.2c1.5-1.9.3-5.6-1-7.3a8.4,8.4,0,0,0-4.8-3.1c-3.8-1-6.4.1-7.1.9ZM43.9,157.2h-.1l2.1,3.3.3,1.1a14.4,14.4,0,0,0,6.9,6.9c1.6,10.9,6.7,17,18.1,19.6a27.4,27.4,0,0,0,5,.8h0a33.8,33.8,0,0,0,4.5.1c10.1-.3,20.4-5.1,23.7-15.8l.6-2.2c.2-.8.3-1.7.5-2.5,3.1-1.7,5.7-4,6.9-6.9l.3-1.1c.6-1.1,1.3-2.2,2-3.3,4.1-2.3,8.9-12,8.9-16.6a10.5,10.5,0,0,0-4.2-8.1c0-.8.1-10.1.1-10.1-28.2-20.4-51-20.5-80.7,0,0,0,.1,2,.3,3.5s.1,6.2,0,6.2c-7.6,5.4-4.3,16.5,1.8,22.8a13.3,13.3,0,0,0,3,2.3ZM57.3,170c-2,2.8.7,8.4,2.9,10.4a28.1,28.1,0,0,0,12.5,6.4,30.2,30.2,0,0,0,7.9.7c6.6-.2,14.6-3.3,19.1-8.4,1-1.1,3.6-5.2,2.8-9.5-13.3,7.5-33.7,6.1-45.2.4Zm17.5-37.5c-4.3-4.2-24.7-5.5-31.2-2.3,5-8,12.8-13.5,21.8-16.6,4.9-1.7,11.1-2.6,14,2.6,3.1-6.3,17.4-3.8,21-2.6,5.4,1.9,10.5,5.5,12.4,10.7L114,130c-10.8-3.2-23.9-1.6-30.6,2.5-2.6.2-6.5,0-8.6,0Zm6.9,1.3c1.6-.1,2.2-.3,2.4,1.3a9.5,9.5,0,0,0-5,.9,8.2,8.2,0,0,0-4.4-.9c.1-1.9,1-1.4,2.7-1.3Z"/><path class="cls-8" d="M61.9,131.2a26.7,26.7,0,0,0-7.5-.3L40.8,148.7a14.3,14.3,0,0,0,2.6,3.5l18.5-21Zm-17,22.3,18.3-22.1.9.2L46.3,154.4l-1.4-.9Zm67.5-20.2L102,146.8a29.9,29.9,0,0,1,1.8,2.4l11.6-14.9a8.8,8.8,0,0,0-3-1ZM99.2,143.9h0l9.2-11.6,1.9.4-9.7,12.5A8.6,8.6,0,0,0,99.2,143.9Z"/><path class="cls-4" d="M119.2,102.7s8.1-17.1,11.6-25.1c0,0-14.7,13.8-29.3,16.2,0,0,15.2-2.2,26.6-12.6-2.7,7.2-6.8,15.6-8.9,21.5ZM88.3,85.9c-4-6.5-8-14-9.8-21.5-1.9,7.5-5.8,15-9.9,21.5,4.9-6,9-14.1,9.9-17.6.9,3.5,5,11.6,9.8,17.6ZM37.9,102.7S29.8,85.6,26.2,77.6c0,0,14.8,13.8,29.4,16.2,0,0-15.2-2.2-26.7-12.6C31.6,88.4,35.8,96.8,37.9,102.7Z"/><path class="cls-9" d="M114,130a16.3,16.3,0,0,0-1.2-5.7c-1.9-5.2-7-8.8-12.4-10.7-3.6-1.2-17.9-3.7-21,2.6a2.4,2.4,0,0,1-1.1-1.1c-.1-.3-.3-.5-.4-.8a7.2,7.2,0,0,0-5.2-2c-13.1,0-23.5,10.1-26.8,14.6-.1,1.2-.1,2-.1,2.5,2.2-.1,11.6-1,14.3-.9,5.7.4,11.6,1.5,14.7,4h8.6c4.5-2.7,13.1-4,14.6-4a46.4,46.4,0,0,1,16,1.5ZM53.9,166.8c-2.7-1.3-4.8-3-5.7-5.1a6.1,6.1,0,0,1,.5-5.4c.9-1.2,1.8-2.1,3.5-1.3a.6.6,0,0,0-.1.4,4.9,4.9,0,0,0,.1,2.1c1.5,5.1,10.6,7.2,15.2,7.6-5.8-1.1-15.7-5.4-13.8-11.2a22,22,0,0,1,11.1-11.8c-.5,1.9-.6,4.1.6,5.6a4.4,4.4,0,0,0,3.5,1.4c.4,3.6,6,2.2,8.5,4.1.8.6,1.3,1.3,1.8,1.3s1.4-1,2-1.5c2.2-1.8,6.7-.5,8.1-3.1a1.9,1.9,0,0,0,.2-.8c2.2-.1,3-.8,3.5-1.4a6.1,6.1,0,0,0,.6-5.6A19.8,19.8,0,0,1,104.9,155c1.4,5-6.6,9-13.9,10.1,7.8-.6,16.5-4.1,15-9.9,3.7-1.7,5.7,3.5,4.4,6.5s-2.3,3-4.7,4.4C93.2,173.3,70.4,175.2,53.9,166.8Z"/><path class="cls-7" d="M65.7,172.9c-1.7-.5-10-1.3-8.3,3.9a8.4,8.4,0,0,0,2,3.2c5.5,5.4,14,7.7,21.2,7.5s14.6-3.3,19.1-8.4c1-1.1,3.8-5.5,2.8-9.5C92.2,174.7,79,176.1,65.7,172.9Z"/><path class="cls-7" d="M52.8,166.2a8.9,8.9,0,0,1-4.6-4.5c-.2-.2-.2-.5-.3-.8s1.5,4.7,13.4,7.5c17.8,4,34.5,0,36-.4a27.8,27.8,0,0,0,9.5-4.6s4.2-2.8,3-7.1a6.1,6.1,0,0,1,.6,5.4,8,8,0,0,1-1.8,2.4c-5.8,5.3-18.1,8.1-29.5,8.3-9.1.2-18.4-1.5-26.3-6.2Zm24.5-13c-2.5-1.9-8.1-.5-8.5-4.1h-.4a3.7,3.7,0,0,1-2-.5h.1a5.5,5.5,0,0,1,1.8,2.2,5.2,5.2,0,0,0,4.2,2.9c1.9.2,6.7,2.8,6.7,5v-4c.1.1.1,1.8.2,4,.1-2.2,4.8-4.8,6.7-5a5.2,5.2,0,0,0,4.2-2.9c.7-1.4,2-2.2,2.3-2.9a4,4,0,0,1-3.2,1.1v.6c-1.2,2.9-5.9,1.5-8.2,3.3a15.4,15.4,0,0,1-1.3,1.2.9.9,0,0,1-.7.3l-.4-.2C78.3,154.1,77.9,153.6,77.3,153.2Z"/><path class="cls-8" d="M79.1,137.6h0c-.7-.8-3.4-1.9-7.1-.9a8.7,8.7,0,0,0-4.9,3.1c-1.2,1.7-2.5,5.4-.9,7.2v.2s-1.3-4.2,1.8-7,8.6-3.7,11.2-1.4c0,0,3.5-3,8.8-.6,3.2,1.4,4.4,5.1,4.1,8.7,1.3-1.9.1-5.5-1.1-7.1a8.4,8.4,0,0,0-4.8-3.1c-3.8-1-6.4.1-7.1.9Zm-3.9-2.5a1,1,0,0,1,1.1-1.1c1.1,0,3.9.3,6.2.2,0,0,.8-.2,1,.9h.6c-.2-1.6-.8-1.4-2.4-1.3H77.4c-1.7-.1-2.6-.6-2.7,1.3ZM52,156.1a2,2,0,0,1,.1-.7.6.6,0,0,1,.1-.4c-1.7-.8-2.6.1-3.5,1.3s-.2.3-.2.5c2.9-3.1,1.4,3.7,9.3,5.9-2.9-1.2-5.8-3.3-5.8-6.6Zm54-.9a.9.9,0,0,1,.1.5,6.5,6.5,0,0,1,3.7.6,2.8,2.8,0,0,0-3.8-1.1Zm-1,1.3c-2.9-8.2-7.9-11.7-11.2-13.2l-.3-1.2a19.8,19.8,0,0,1,11.3,12.7,3.5,3.5,0,0,1,.2,1.7Zm-51.3.6a4.1,4.1,0,0,1,0-3.6,22.2,22.2,0,0,1,11-11.4,20,20,0,0,0-.4,2.4A17.9,17.9,0,0,0,53.7,157.1Z"/><path class="cls-7" d="M51,121.4l4.9-.2c-1.4-3.6,16.3-12.3,23.7-3.4a22.1,22.1,0,0,1,21-2.4,14.9,14.9,0,0,1,5.5,3.5c.8,1.3-.1,2.2-1.2,2.8h2.7a4,4,0,0,1,0,1.1,5.4,5.4,0,0,1,4.3,2.9c.7,2-5.2,2.5-9.3,2.6A59.4,59.4,0,0,1,114,130a16.2,16.2,0,0,0-1.7-6.7c-2.1-4.6-6.8-8-11.9-9.7s-17.9-3.7-21,2.6a5.8,5.8,0,0,0-1.5-1.9,7.9,7.9,0,0,0-5.1-2c-5.1-.3-14.3,1.8-21.8,9.1Zm-1.3,7.3,1.8.3-5.7.4c0-.5,0-1.3.1-2.5h0c.1-.1.2-.2.2-.3a11.6,11.6,0,0,1,2.4-2s-1.7,3.1,1.2,4.1Zm14.4.2c4.5-.3,10.8,1.7,15,1.8,2.2,0,9.5-2,17.2-2.1-6.1.9-10.5,2.4-12.9,3.9H74.8C72.9,130.9,67.4,129.4,64.1,128.9Z"/><path class="cls-4" d="M59.5,176.1c8.4,5.6,28.9,7.8,38.2-.5C92.7,184.3,67.5,185.1,59.5,176.1Z"/><path class="cls-5" d="M63.3,175.1c9.7,5.2,27.9,5.5,35.3-3.9-10.2,3.6-25.9,5.7-41.3-1.2-1.5,1.3-.9,4.6.5,7.8C56.4,172.6,59.4,173,63.3,175.1Z"/><path class="cls-1" d="M78.9,95.6c-14.7,0-29.9,4.1-42,15.4a3.3,3.3,0,0,0,.1,2.1c.5,1,.8,1.9,1.1,2.5,11.7-8.8,26.2-14.2,40.8-14.2s29.2,5.3,41,14.1c.2-.6.6-1.4,1.1-2.5a4.7,4.7,0,0,0,0-2.1C108.8,99.6,93.6,95.6,78.9,95.6Z"/><path class="cls-1" d="M78.9,102.5c-14.7,0-29.3,5.6-41,14.6-.4.5-1,3.6,1.2,4.6a64.1,64.1,0,0,1,25.1-12.2c12.5-3.8,24.3-3.1,36.6,2.1a69.6,69.6,0,0,1,18.3,10.1c2.1-1,1.4-4.1,1-4.7C108.3,108.1,93.7,102.5,78.9,102.5Z"/><path class="cls-10" d="M90.2,76.3c3.3,5.9,6.3,10.5,7.1,11.8a53.3,53.3,0,0,0,10.6-2.8,38.6,38.6,0,0,0-6.9-5.2,25.3,25.3,0,0,0-10.8-3.8ZM60.5,88.1a128.6,128.6,0,0,0,7.1-11.8,25.5,25.5,0,0,0-10.7,3.9,39.7,39.7,0,0,0-7,5.3A54.7,54.7,0,0,0,60.5,88.1Z"/><path class="cls-8" d="M79,102.9c16.2,0,30.8,7.4,41.5,15.6a2.5,2.5,0,0,0-.4-1.5c-11.8-8.9-26.4-14.5-41.2-14.5s-29.3,5.6-41,14.6a4.3,4.3,0,0,0-.4,1.7C37.5,119.2,53.7,102.9,79,102.9Z"/><path class="cls-11" d="M64.2,109.5c12.5-3.8,24.3-3.1,36.6,2.1a69.6,69.6,0,0,1,18.3,10.1,2.7,2.7,0,0,0,1.4-2.3c-1.2.2-6.4-3.4-6.4-3.4-33.8-21.5-61.6-4.9-69.1-.3s-7.4,4-7.4,4a2.5,2.5,0,0,0,1.5,2A64.1,64.1,0,0,1,64.2,109.5Z"/><path class="cls-11" d="M33.4,87.9l7.8,18.5c11.1-8.2,24.6-11.2,37.7-11.2s25.4,2.6,36.3,10l7.3-17.3a23.2,23.2,0,0,1-21.7,8.6C86.7,94.3,80.5,89.3,78,80c-2.6,9.3-8.8,14.3-22.9,16.5S33.4,87.9,33.4,87.9Z"/><path class="cls-8" d="M38.1,115.6l1.1-.9a16.7,16.7,0,0,1-.7-3c-.2-1.9,12.1-12.3,31.1-15.5-11.7,1.5-23.2,5.9-32.7,14.8a3.3,3.3,0,0,0,.1,2.1c.5,1,.8,1.9,1.1,2.5Zm81.8-.1-1.1-.8a19.1,19.1,0,0,0,.7-3c.2-2-12.1-12.4-31.1-15.6,11.6,1.5,23.2,5.9,32.7,14.9a2.9,2.9,0,0,1-.1,2C120.5,114.1,120.1,114.9,119.9,115.5Z"/><path class="cls-8" d="M51.9,86.2c1.6-2.4,5.8-6.8,15.7-9.9a25.5,25.5,0,0,0-10.7,3.9,39.7,39.7,0,0,0-7,5.3l2,.7ZM101,80.1a25.3,25.3,0,0,0-10.8-3.8s10.1,2.5,15.9,9.7l1.8-.7A38.6,38.6,0,0,0,101,80.1Z"/><path class="cls-12" d="M92.7,80.7c2.2,3.7,4,6.4,4.6,7.4a50.5,50.5,0,0,0,5.6-1.2,26,26,0,0,0-10.2-6.2Zm-27.8.4a29.7,29.7,0,0,0-10.5,5.8,43.8,43.8,0,0,0,6.1,1.2C61.1,87.2,62.8,84.7,64.9,81.1Z"/><path class="cls-4" d="M116.9,100a3.4,3.4,0,0,1-5.3-4.1C115.1,91.7,120.5,95.6,116.9,100Z"/><path class="cls-10" d="M116.1,95.5a2.8,2.8,0,0,1,.5,4,2.9,2.9,0,0,1-4,.6,3.1,3.1,0,0,1-.5-4.1A3,3,0,0,1,116.1,95.5Z"/><path class="cls-12" d="M116.5,99.7a4.2,4.2,0,0,1-3-.8,3.9,3.9,0,0,1-1.5-2.7,3,3,0,0,0,.6,3.9A2.9,2.9,0,0,0,116.5,99.7Z"/><path class="cls-8" d="M115.8,95.9a2.3,2.3,0,0,1,.5,3.3c-.1.1-.1.2-.2.2a2.4,2.4,0,0,0-3.7-2.9v-.2A2.4,2.4,0,0,1,115.8,95.9Z"/><path class="cls-4" d="M39.1,100.1a3.5,3.5,0,0,0,4.7.6,3.3,3.3,0,0,0,.6-4.7C41.1,91.7,35.5,95.3,39.1,100.1Z"/><path class="cls-10" d="M40,95.6a3,3,0,0,0-.6,4.1,3,3,0,0,0,4,.5A2.9,2.9,0,0,0,40,95.6Z"/><path class="cls-12" d="M39.5,99.8a4,4,0,0,0,4.6-3.5,3,3,0,0,1-.7,3.9A2.9,2.9,0,0,1,39.5,99.8Z"/><path class="cls-8" d="M40.2,96a2.5,2.5,0,0,0-.4,3.4h.1a2.3,2.3,0,0,1,.6-3.1,2.4,2.4,0,0,1,3.2.2v-.2A2.5,2.5,0,0,0,40.2,96Z"/><path class="cls-8" d="M37.8,148.6c-3.9-9.1.1-16.6,10.7-16.9-14.1,2-13.5,15.2-4.8,23.5a10.6,10.6,0,0,0,2.9,2.2C44.5,157.3,39.1,151.9,37.8,148.6Z"/><path class="cls-8" d="M120.4,148.1c1.7-4,2.1-8.5.3-11.7-3.5-6-16.9-6.5-22.2-5.6,6.4-.3,17.5.7,20.7,5.5s.4,13.5-4.7,18.4a12.9,12.9,0,0,1-3,2.2C113.7,156.8,119,151.4,120.4,148.1Z"/><path class="cls-6" d="M36.4,134.8c0-2.5-.4-5.2-3-5.9s-6.2.1-7.3,1.8c-4.5,7,7,22.8,13.4,23.6-2-1.9-2.7-4.8-3.9-6.5-4.2-.8-9.6-14.2-.2-14.9-7.6,1.8-3.6,12.2,0,12.8C34.3,141.9,34.4,137.9,36.4,134.8Z"/><path class="cls-7" d="M25.4,143.9c-2.6-4.5-2.8-8.5-3.2-14.2a4.5,4.5,0,0,1,4.5-4.7,4.2,4.2,0,0,0-4.9,2.5c-1.5,3.3.4,12.5,2.8,17.7A32.1,32.1,0,0,0,46.9,163a8.7,8.7,0,0,1-.6-4.7,5.8,5.8,0,0,1-4.6-2.6C37.5,156.4,30.1,152.3,25.4,143.9Z"/><path class="cls-8" d="M39.1,127.2v-1.3a2.5,2.5,0,0,0-.1-.8l-1-.5c-4.4-1.8-9.8-4.1-14.4-1.3a6.6,6.6,0,0,0-3,4.3c.8-2.5,3.5-5.2,8.9-4.2a24.8,24.8,0,0,1,9.6,3.8Zm80.4-2.1v1.8a25.3,25.3,0,0,1,8.8-3.5c5.4-1,8.7,1,9.7,5.5-.3-2.4-1.2-4.4-3.2-5.6-4.6-2.8-10-.5-14.4,1.3Z"/><path class="cls-4" d="M113.7,125.1l-2.4-3.9c.5.6.3,1.3-.5,1.1-4.1-1.9-7.2-2.6-11.8.5a3.4,3.4,0,0,0-5.4.8c-2.9-1-6.8,3.5-5.6,6.3.3-2.1,3-6,5.4-5.5a4.3,4.3,0,0,1-.1.5,2,2,0,0,0-.1.7,2.5,2.5,0,0,0,.3,1.6,2.9,2.9,0,0,1,.3-1.4c.9-2.9,4.3-3.7,5.5-1a5.8,5.8,0,0,1,.6,1.7v.4c.1-.1.1-.2.1-.4v-.9a5.6,5.6,0,0,0-.5-1.9C102.8,121.3,108.8,120.9,113.7,125.1Z"/><path class="cls-4" d="M61.8,122.9a4,4,0,0,1,4.9.5l.3.2c2.9-1,6.7,3.5,5.5,6.3-.3-2.1-3-6-5.4-5.5.1.2.1.4.2.5s.1.5.1.7a5.5,5.5,0,0,1-.3,1.6c-.1-.6-.2-1-.3-1.4l-.3-.7a4.2,4.2,0,0,1-.4-1,3.8,3.8,0,0,0-4-.4c-.4.1-.7.6-.9,1.1a3.7,3.7,0,0,0-.5,1.7.6.6,0,0,0-.1.4c0-.1-.1-.2-.1-.4v-.9a5.6,5.6,0,0,1,.5-1.9c-3.1-1.6-11.3-1.9-15.3,3.4.1-.3,1.2-3.5,1.4-3.8,4.7-3.7,12.1-2,14.7-.4Z"/><path class="cls-8" d="M60.7,124.6c-.9-1.4-4.5-2-6.7-1.8,2.7-.5,6.2.3,7,.9a3,3,0,0,0-.3.9Zm39.2,0c3.2-1.9,5.9-2.8,12.5-.4-4.5-3.2-9.6-2.9-12.9-.5a2.6,2.6,0,0,1,.4.9Zm-6.3,1.9h0a1.9,1.9,0,0,1,.2-.7c.9-3,4.3-3.7,5.5-1a6.1,6.1,0,0,1,.5,1.2,4.5,4.5,0,0,0-3.5-1.9,3,3,0,0,0-2.7,2.4Zm-5.4,2.8c0-.1,2.3-4.5,5.1-4.4a4.3,4.3,0,0,0,.1-.5c-2.2-.5-4.6,2.7-5.2,4.9Zm-15.7.6s-1.6-4-5.2-4.6v-.4c-.1-.1-.1-.3-.2-.5,2.4-.5,5.1,3.4,5.4,5.5ZM67,126.5h0a4.4,4.4,0,0,0-5.5-2.3c.2-.3.4-.5.6-.5a3.8,3.8,0,0,1,4,.4,4.2,4.2,0,0,0,.4,1l.3.7A2.5,2.5,0,0,0,67,126.5Z"/><path class="cls-7" d="M100.9,117.8a2,2,0,1,1-2.5,1.3A2,2,0,0,1,100.9,117.8Z"/><path class="cls-7" d="M75,129.5a1,1,0,0,1,.7,1.3.9.9,0,0,1-1.3.7,1.1,1.1,0,0,1-.7-1.3A1,1,0,0,1,75,129.5Z"/><path class="cls-7" d="M77.3,128.3a.7.7,0,0,1,.5.9.7.7,0,0,1-1.3-.5A.7.7,0,0,1,77.3,128.3Z"/><path class="cls-7" d="M74.3,126a1,1,0,0,1,.7,1.3.9.9,0,0,1-1.3.7,1.1,1.1,0,0,1-.7-1.3A1,1,0,0,1,74.3,126Z"/><path class="cls-4" d="M138.8,125.3a7,7,0,0,1-5,3.6,26.5,26.5,0,0,0-2.1-2.6c1.3-.4,2.5-1.9,2.3-4.4C135.7,122.8,137.1,124.4,138.8,125.3Z"/><path class="cls-1" d="M131.6,127.3s2.7-.3,3.2-3.9-2.5-3.8-4.4-3.1h-3.1a6.8,6.8,0,0,1,2.5-2,5.2,5.2,0,0,1,7.1,2.7C138,124.2,136.5,128.8,131.6,127.3Z"/><path class="cls-8" d="M135.1,126.6l-.5.4a2.4,2.4,0,0,1-1.1.6,3.2,3.2,0,0,0,1.4-.3l.5-.3c1.9-1.2,2.2-4,1.5-5.9a5,5,0,0,0-4.5-3.2A5.3,5.3,0,0,1,135.1,126.6Z"/><path class="cls-11" d="M134.9,123.3a5.4,5.4,0,0,0,0-1.8c-.4-2.2-2.8-2.8-4.2-2.4a4.8,4.8,0,0,0-1.9,1.2h1.6a3.6,3.6,0,0,1,3.8.9A3.3,3.3,0,0,1,134.9,123.3Z"/><path class="cls-4" d="M39.4,123.4c-3.3.2-3.7-4.8-2.5-6.7l-1.3-2.8h0a5.4,5.4,0,0,1-.1-2.9c-.5-1.3-2.9-7.8-5.9-15.3S23.1,79.7,19.4,74.8s-5.2-7.8-6-13.9a62.3,62.3,0,0,1-.4-7.6c1.4,2.6,2.8,3.1,5.4,4.1s3.6,1.2,4.5,2.8.6,2.9.6,4.7,0,3.5.6,4.1h0A76.5,76.5,0,0,0,42.2,82.2a26.8,26.8,0,0,0,3.2-9.1,51.9,51.9,0,0,0,.9-10.8,1.9,1.9,0,0,0-.5-1.3,5.4,5.4,0,0,1-1-2.5c-.7-4.1,1-8.7.7-12.9A19.7,19.7,0,0,0,48,51.1a13.8,13.8,0,0,1,1.9,4.3,8.8,8.8,0,0,1,0,2.8,5.4,5.4,0,0,0,.1,3.1h0c2.7,5.6,7,13.6,13.7,14.2h0a24.1,24.1,0,0,1,4.8-.8c1.8-3.5,3.7-7.4,5.2-11.2s4.7-11,1.9-13.4c-5-4.2-2.2-9.1.2-13.8a27,27,0,0,0,2.7-9.6,39.6,39.6,0,0,0,3.3,9.4c2.4,4.8,5.2,9.8.5,13.8-2.7,2.2,1.3,11.9,1.9,13.6,1.6,3.8,3.4,7.7,5.2,11.2a18.5,18.5,0,0,1,4.8.8h0c6.7-.7,11-8.8,13.7-14.5h0a5.4,5.4,0,0,0,.1-3.1,8.8,8.8,0,0,1,0-2.8,13.4,13.4,0,0,1,1.9-4.4c.7-1.4,2.1-3.9,2.3-5.7-.1,4.3,1.6,8.9.9,13a5.4,5.4,0,0,1-1,2.6,2.5,2.5,0,0,0-.5,1.3,52.3,52.3,0,0,0,.9,10.9,24.8,24.8,0,0,0,3.1,9.2,76.9,76.9,0,0,0,18.2-13.7h0c.6-.7.6-2.4.6-4.2s0-3.7.6-4.8,2.7-2.2,4.5-2.9,4-1.5,5.4-4.2a66.3,66.3,0,0,1-.4,7.8c-.8,6.2-1.2,9-6,14.1s-7.3,13.6-10.3,21.2-5.3,14.3-5.8,15.6a4.9,4.9,0,0,1,0,2.9h-.1c-.4,1.1-.9,2.1-1.2,2.8,1.3,2,1,7-2.3,6.8-13.5-10.4-26.9-14.1-39.9-14.1s-26.3,3.8-39.5,14.1ZM71.6,72A168.6,168.6,0,0,1,61.5,90.4C54,89.5,46.6,86.5,40.1,83a76.2,76.2,0,0,1-17-12.7h0c-.9-1-.9-3-.9-5.1s.1-3.2-.4-3.9-2.3-1.8-4-2.4a14.2,14.2,0,0,1-3.5-1.7,26.1,26.1,0,0,0,.4,3.1c.7,5.6,1.1,8.3,5.3,12.8S26.8,83.3,29.5,90s5.2,14.1,7.3,20C48.7,99,64,95.2,78.9,95.2s30.3,3.7,42.2,14.6c2-5.9,4.5-13.3,7.2-20.2s5.8-13.3,9.6-17.3,4.6-7.3,5.3-13a27.9,27.9,0,0,0,.4-3.2,14.5,14.5,0,0,1-3.5,1.8c-1.7.6-3.3,1.1-4,2.4a11.1,11.1,0,0,0-.4,4c0,2.1,0,4.2-.9,5.2h0a84.8,84.8,0,0,1-17.1,13.2c-6.4,3.5-13.6,7-21.1,8A158.4,158.4,0,0,1,86.3,72c-2-4.2-9.6-19.2-4.8-23.1s1.3-7.9-.8-12.2a38.9,38.9,0,0,1-1.9-4.2,27.8,27.8,0,0,1-1.9,4.4c-2.1,4.3-4.7,8.7-.4,12.3S72.7,69.7,71.6,72ZM36.9,111a3.3,3.3,0,0,0,.1,2.1c.5,1,.8,1.9,1.1,2.5,11.7-8.8,26.2-14.2,40.8-14.2s29.2,5.3,41,14.1c.2-.6.6-1.4,1.1-2.5a4.7,4.7,0,0,0,0-2.1C108.8,99.6,93.6,95.6,78.9,95.6S49,99.7,36.9,111Zm1,6.1c-.4.5-1,3.6,1.2,4.6,13.1-10.2,26.6-13.9,39.8-13.9s26.8,3.7,40.2,13.9c2.1-1,1.4-4.1,1-4.7-11.8-8.9-26.4-14.5-41.2-14.5s-29.3,5.6-41,14.6Zm75.7-34.2a90.4,90.4,0,0,1-2.2-10.6,48.5,48.5,0,0,1-.7-10.7,2.7,2.7,0,0,1,.7-1.9,5.4,5.4,0,0,0,.8-2.1c.5-2.6-.3-5.6-.5-8.3a21.2,21.2,0,0,1-1.1,2.1,11.8,11.8,0,0,0-1.7,4,4.5,4.5,0,0,0,.1,2.3,7.4,7.4,0,0,1-.3,3.9h0c-2.6,5.4-6.4,12-11.4,14.9a27.8,27.8,0,0,1,4.2,2.2,36.8,36.8,0,0,1,7.9,6.1l4.2-1.9Zm-5.7,2.4a38.6,38.6,0,0,0-6.9-5.2,25.3,25.3,0,0,0-10.8-3.8c3.3,5.9,6.3,10.5,7.1,11.8a53.3,53.3,0,0,0,10.6-2.8ZM44.2,83.2,48.4,85a47.3,47.3,0,0,1,7.9-6.2,34.8,34.8,0,0,1,4.3-2.2c-5-2.8-8.8-9.3-11.4-14.6h0a6.4,6.4,0,0,1-.2-3.9,8.5,8.5,0,0,0,.1-2.2,12.3,12.3,0,0,0-1.9-4c-.3-.6-.8-1.3-1.1-2-.2,2.7-.9,5.6-.4,8.2a5.4,5.4,0,0,0,.8,2.1,2.6,2.6,0,0,1,.7,1.9,46.8,46.8,0,0,1-.7,10.5c-.6,3.6-1.4,7.2-2.3,10.6Zm5.7,2.3a54.7,54.7,0,0,0,10.6,2.6,128.6,128.6,0,0,0,7.1-11.8,25.5,25.5,0,0,0-10.7,3.9A39.7,39.7,0,0,0,49.9,85.5Z"/><path class="cls-8" d="M79.2,112.5c-1.5-2.1-6.6-4.9-12.2-2.3,3.8-2.7,10.6-1.7,12.2,2.3Zm-11.1-2c6.1-.9,8.9,1.8,10.7,3.9-1.1-3.4-5.9-5.5-10.7-3.9Zm12.3.2s1-2.2,5.1-2.9c-2-.3-4.5.8-5.1,2.9Zm0,2.7c.4-3,3.1-5.1,6.9-4.8-3.1.4-4.3,1.5-5.2,2.7,4.2-2.8,7.4-2.1,10.9-1.1C85.9,108.5,81.8,112,80.4,113.4Z"/><path class="cls-7" d="M102.4,157.6a1,1,0,1,1-.6,2,1,1,0,0,1-.7-1.3A.9.9,0,0,1,102.4,157.6Z"/><path class="cls-7" d="M102.3,155.8a.7.7,0,0,1,.5.8.8.8,0,0,1-.9.5.7.7,0,0,1-.5-.9A.6.6,0,0,1,102.3,155.8Z"/><path class="cls-7" d="M77,161.2a1,1,0,0,1,.7,1.3.9.9,0,0,1-1.3.7,1.1,1.1,0,0,1-.7-1.3A1.2,1.2,0,0,1,77,161.2Z"/><path class="cls-8" d="M59.7,148.2a1.2,1.2,0,0,1,.7,1.3,1,1,0,0,1-1.3.7.9.9,0,0,1-.7-1.3A1,1,0,0,1,59.7,148.2Z"/><path class="cls-8" d="M63.2,145.9c.3.1.6.5.4.8a.7.7,0,0,1-.8.5.7.7,0,0,1-.5-.9A.8.8,0,0,1,63.2,145.9Z"/><path class="cls-8" d="M60.7,145.7a1.1,1.1,0,0,1,.7,1.3,1,1,0,0,1-1.3.7.9.9,0,0,1-.7-1.3A1.1,1.1,0,0,1,60.7,145.7Z"/><path class="cls-7" d="M78.4,163.4a.7.7,0,0,1,.4.8.6.6,0,0,1-1.2-.4A.7.7,0,0,1,78.4,163.4Z"/><path class="cls-6" d="M70.8,147.6a1.2,1.2,0,0,0,.1,2.2,4.4,4.4,0,0,0,2.2.6h.8c2.3,0,4.3-.1,5.2-2.5a3.8,3.8,0,0,0,2,2.1,9.1,9.1,0,0,0,3.3.4h.7a4.5,4.5,0,0,0,2.3-.6,1.2,1.2,0,0,0,.1-2.2s-4.1-.2-4.6-3.3c0,0,1.3,1.5,2.1,1.5-1.6-1-2.7-3.8-1-4.5s4.9,1,6,2.4a2.5,2.5,0,0,1,.3,2.2l-.2.4c.3-2.1-1.8-3.8-3.6-4.2l-.2.3c2,.5,3.9,3.3,3,5.4a2.6,2.6,0,0,0,1.3-4.4,6.6,6.6,0,0,0-4.7-3c-3.1-.4-4.1,1.4-6.7,1.4s-2.5-.7-4.6-1.1-6.7,1.4-7.2,4,1,3,1.6,3.1c-1.2-2.6,2.3-5.9,4.6-5.5-1.8-.9-5.6,1.2-5.3,4-.1-.2-.1-.3-.2-.4a2.5,2.5,0,0,1,.4-2.2c1-1.4,4.3-3.1,6-2.4s.6,3.5-1,4.5c.8,0,2.1-1.5,2.1-1.5C75,147.4,70.8,147.6,70.8,147.6Z"/><path class="cls-4" d="M76.9,152.9c1.1.9,2,2.5,2.3,11.9.1-8-.1-11.3,2.8-12.3C80.1,152.3,78.2,151.4,76.9,152.9Z"/><path class="cls-4" d="M79,78.5l1.7,2.8,1.3,2a5.6,5.6,0,0,1,1.2,2.9,3.8,3.8,0,0,1-1.1,2.5l-1.3,1.5-1.9,2-.4.5-.5-.5-1.9-2-1.3-1.5a3.8,3.8,0,0,1-1.1-2.5,5.6,5.6,0,0,1,1.2-2.9l1.3-2,1.7-2.8.6-.9Z"/><path class="cls-10" d="M78.5,91.6c-5.2-5.9-4-4.3,0-11.6C82.4,87.3,83.6,85.7,78.5,91.6Z"/><path class="cls-8" d="M78.5,81.1l-1,1.7a17.4,17.4,0,0,0-1.1,1.8l-.6.9a12.2,12.2,0,0,1,2.7-3.4c.4.1,1.4,1.4,2.6,3.5a4.4,4.4,0,0,0-.6-1l-1-1.8Z"/><path class="cls-12" d="M75,86.5c0,1.2,1,2.3,3.5,5.1a22.7,22.7,0,0,0,3.1-4,2.3,2.3,0,0,0,.3-1.1,1.4,1.4,0,0,1-.5.7,4,4,0,0,1-3,1.1C75.5,88.3,75,86.5,75,86.5Z"/></g></svg>