<svg xmlns="http://www.w3.org/2000/svg" viewBox="0 0 200 200"><defs><style>.cls-1{isolation:isolate;}.cls-2,.cls-5{fill:#fccbaa;}.cls-3{fill:#3b2314;}.cls-4,.cls-5{mix-blend-mode:multiply;}.cls-6,.cls-8{fill:#faaf40;}.cls-18,.cls-19,.cls-6{stroke:#3b2314;}.cls-6{stroke-linecap:round;stroke-miterlimit:10;stroke-width:1.238px;}.cls-7{fill:#f8a576;}.cls-9{fill:#00a69c;}.cls-10{fill:#26a9e0;}.cls-11{fill:#d0d2d3;}.cls-12,.cls-17,.cls-21{fill:#fff;}.cls-12,.cls-22{opacity:0.3;}.cls-13{fill:#5661ab;}.cls-14{fill:#929497;}.cls-15{fill:#8bc53f;}.cls-16{fill:#ffc609;}.cls-17{opacity:0.6;}.cls-18,.cls-19{fill:none;stroke-linecap:square;stroke-linejoin:round;}.cls-18{stroke-width:0.515px;}.cls-19{stroke-width:0.453px;}.cls-20{fill:#cd383a;}</style></defs><g class="cls-1"><g id="Layer_5" data-name="Layer 5"><path class="cls-2" d="M66.505,178.639c4.739,0,13.678-3.83,16.616-5.088.4-.172.67-.288.767-.323l-.023-.063c2.125-.694,10.109-5.027,10.2-5.076,7.132-3.974,11.741-7.427,13.7-10.264,2.161-3.134,2.541-7.732,1.059-12.658,1.53-3.891,3.532-15.409,3.741-18.446.818-11.761,1.053-25.019-6.561-33.49-4.982-5.541-12.593-8.426-23.268-8.82q-.644-.024-1.27-.023c-17.827,0-29.214,14.364-32.942,41.547-4.672,2.986-7.5,6.987-7.778,11.03-.561,8.1,8.6,26.065,8.992,26.826,2.854,9.24,8.331,14.283,16.216,14.83C66.129,178.632,66.313,178.639,66.505,178.639Z"/><path class="cls-3" d="M81.462,85.364q.609,0,1.233.023c29.991,1.105,30.2,22.5,28.891,41.268-.215,3.147-2.331,15.132-3.8,18.463,1.38,4.348,1.4,8.924-.825,12.153C102.444,163.811,83.6,172.3,83.6,172.3h0c-.187,0-11.708,5.366-17.093,5.366-.169,0-.332-.005-.487-.017-8.248-.572-12.943-6.338-15.415-14.3,0,0-9.436-18.387-8.886-26.313.288-4.176,3.54-7.954,7.709-10.513,2.192-16.442,8.859-41.155,32.036-41.155m0-1.953c-18.288,0-29.981,14.5-33.849,41.949-4.706,3.13-7.552,7.3-7.845,11.537-.56,8.068,8.041,25.263,9.02,27.189C51.85,173.8,57.6,179.02,65.882,179.6q.3.02.623.02c4.868,0,13.756-3.777,16.866-5.109l.034.021,1-.449c.789-.356,19.4-8.789,24.165-15.7,2.28-3.311,2.737-8.081,1.282-13.174,1.571-4.31,3.474-15.334,3.686-18.415.832-11.962,1.06-25.457-6.809-34.212-5.169-5.748-13-8.739-23.958-9.143-.441-.016-.875-.024-1.306-.024Z"/><g class="cls-4"><path class="cls-2" d="M53.407,127.18a55.37,55.37,0,0,0-6.811,1.4,22,22,0,0,1,2.83-2.057c.146-1.1.288-2.249.431-3.426A11.954,11.954,0,0,0,53.407,127.18Z"/></g><g class="cls-4"><path class="cls-2" d="M96.45,141.931c2.094-5.664,5.163-11.119,6.28-16.992A110.712,110.712,0,0,0,104.8,93.826c7.822,8.124,7.628,20.816,6.791,32.829-.215,3.147-2.331,15.132-3.8,18.463,1.38,4.348,1.4,8.924-.825,12.153-2.025,2.934-6.937,6.261-11.735,9.037C97.179,163.264,110.592,147.265,96.45,141.931Z"/></g><path class="cls-5" d="M81.4,143.719s-2.348,8.339-10.854,6.8S60.2,148.093,60,140.338,81.4,143.719,81.4,143.719Z"/><path class="cls-6" d="M117.237,113.247s2.668,5.814,2.163,10.54-7.019,10.94-11.138,14.279,4.753-16.109,3.546-23.725,4.925-1.917,4.925-1.917Z"/><path class="cls-7" d="M105.965,138.342s3.6-1.784,4-2.341c.892-1.25,1.392-4.4,2-5.807,3-6.957,11.814-2.4,12.388,3.485.873,8.923-7.753,19.683-12.81,18.471-4.485-1.076-4.007-7.811-4.007-7.811"/><path class="cls-3" d="M105.965,138.342s.918-.339,2.474-1.076c.386-.193.814-.4,1.275-.681a1.933,1.933,0,0,0,.367-.272l.1-.083c.024-.031.01.006.069-.079l.023-.045.1-.18c.136-.242.278-.492.424-.751.282-.526.479-1.183.743-1.838.225-.626.411-1.327.664-1.974.121-.3.262-.7.368-.933.194-.328.393-.662.593-1,.222-.281.449-.5.662-.76a9.582,9.582,0,0,1,.841-.619,4.8,4.8,0,0,1,4.307.045,7.811,7.811,0,0,1,3.591,3.349,6.439,6.439,0,0,1,.753,2.279l.04,1.461c.006.483-.078.883-.106,1.327a19.393,19.393,0,0,1-1.419,5.288,25.566,25.566,0,0,1-2.668,4.693,17.206,17.206,0,0,1-3.444,3.622,5.926,5.926,0,0,1-3.834,1.465c-.053,0-.2-.012-.179,0l-.26-.075-.512-.149a5.463,5.463,0,0,1-.738-.411,4.394,4.394,0,0,1-1.2-1.223,8.339,8.339,0,0,1-1.107-2.745,12.759,12.759,0,0,1-.361-2.641s-.023.244-.07.7a11.079,11.079,0,0,0,.027,2.006,8.9,8.9,0,0,0,.833,3.07,5.3,5.3,0,0,0,1.255,1.629,4.877,4.877,0,0,0,1,.667l.5.192.252.1a2.438,2.438,0,0,0,.361.064,6.89,6.89,0,0,0,4.935-1.37,16.992,16.992,0,0,0,4.014-3.783,21.981,21.981,0,0,0,4.706-10.911c.033-.529.109-1.1.093-1.591l-.057-1.46a8.189,8.189,0,0,0-1.044-3.195,9.409,9.409,0,0,0-4.641-4.063,6.326,6.326,0,0,0-5.839.32,9.689,9.689,0,0,0-1.093.921,12.644,12.644,0,0,0-.829,1.128c-.171.357-.338.706-.5,1.05-.185.472-.245.792-.368,1.182-.212.741-.341,1.411-.49,2.065-.167.606-.247,1.2-.462,1.751l-.333.8-.08.192-.02.047c.037-.062-.005,0,0-.009l-.055.052a1.305,1.305,0,0,1-.242.222c-.383.307-.784.565-1.138.8Z"/><path class="cls-8" d="M148.763,94.209a1.248,1.248,0,0,0,.948-.437,38.311,38.311,0,0,0,7.477-13.684,39.219,39.219,0,0,0-2.855-30.718c-5.033-8.909-13.775-15.13-25.282-17.992a30.188,30.188,0,0,0-7.278-.892c-14.434,0-27.229,10.063-31.839,25.042-2.218,7.2-9.332,25.487-9.4,25.671a1.244,1.244,0,0,0,.819,1.649L113.2,91.916a1.244,1.244,0,0,0,1.579-1.069C116.907,70.387,121.5,48.3,125.211,48.3a30.776,30.776,0,0,1,19.535,15.137A38.188,38.188,0,0,1,147.573,92.6a1.245,1.245,0,0,0,1.19,1.612Z"/><path class="cls-3" d="M121.771,31.732a28.9,28.9,0,0,1,6.98.855c26.4,6.565,32.666,29.531,27.247,47.134a37.284,37.284,0,0,1-7.235,13.243c5.415-17.6-1.9-40.145-23.081-45.842a1.79,1.79,0,0,0-.471-.063c-7.127,0-11.673,43.659-11.673,43.659L81.691,81.65s7.177-18.434,9.433-25.756c4.613-14.988,17.337-24.163,30.647-24.162m0-2.491c-14.982,0-28.254,10.416-33.027,25.92-2.2,7.152-9.3,25.4-9.373,25.585a2.492,2.492,0,0,0,1.637,3.3l31.847,9.068a2.541,2.541,0,0,0,.683.095,2.492,2.492,0,0,0,2.478-2.233C118.158,70.4,122.369,51.709,125.3,49.6a29.528,29.528,0,0,1,18.354,14.444,36.911,36.911,0,0,1,2.728,28.187,2.49,2.49,0,0,0,4.274,2.35,39.56,39.56,0,0,0,7.721-14.127c3.35-10.882,2.27-22.435-2.96-31.7-5.207-9.215-14.218-15.643-26.067-18.588a31.4,31.4,0,0,0-7.58-.929Z"/><path class="cls-9" d="M148.763,94.209a1.248,1.248,0,0,0,.948-.437,38.311,38.311,0,0,0,7.477-13.684,39.219,39.219,0,0,0-2.855-30.718c-5.033-8.909-13.775-15.13-25.282-17.992a30.188,30.188,0,0,0-7.278-.892c-14.434,0-27.229,10.063-31.839,25.042-2.218,7.2-9.332,25.487-9.4,25.671a1.244,1.244,0,0,0,.819,1.649l19.622,5.587a1.262,1.262,0,0,0,.341.047,1.244,1.244,0,0,0,1.172-.825c12.878-35.933,19.718-39.812,22.062-39.812a2.506,2.506,0,0,1,1.42.512,3.368,3.368,0,0,0,.517.288C143.435,55.576,152.9,75.293,147.573,92.6a1.245,1.245,0,0,0,1.19,1.612Z"/><path class="cls-3" d="M121.771,31.732a28.9,28.9,0,0,1,6.98.855c26.4,6.565,32.666,29.531,27.247,47.134a37.284,37.284,0,0,1-7.235,13.243c5.3-17.24-3.808-38.113-21.808-45.471a4.54,4.54,0,0,0-2.41-.893c-3.424,0-10.543,5.225-23.232,40.637L81.691,81.65s7.177-18.434,9.433-25.756c4.613-14.988,17.337-24.163,30.647-24.162m0-2.491c-14.982,0-28.254,10.416-33.027,25.92-2.2,7.152-9.3,25.4-9.373,25.585a2.492,2.492,0,0,0,1.637,3.3l19.624,5.586a2.486,2.486,0,0,0,3.026-1.555c13.579-37.891,20.181-38.987,20.889-38.987a1.359,1.359,0,0,1,.744.313,4.217,4.217,0,0,0,.722.4c16.37,6.693,25.507,25.728,20.37,42.433a2.49,2.49,0,0,0,4.274,2.35,39.56,39.56,0,0,0,7.721-14.127c3.35-10.882,2.27-22.435-2.96-31.7-5.207-9.215-14.218-15.643-26.067-18.588a31.4,31.4,0,0,0-7.58-.929Z"/><path class="cls-8" d="M148.763,94.209a1.248,1.248,0,0,0,.948-.437,38.311,38.311,0,0,0,7.477-13.684,39.219,39.219,0,0,0-2.855-30.718c-5.033-8.909-13.775-15.13-25.282-17.992a30.188,30.188,0,0,0-7.278-.892c-14.434,0-27.229,10.063-31.839,25.042-2.218,7.2-9.332,25.487-9.4,25.671a1.244,1.244,0,0,0,.819,1.649L113.2,91.916a1.244,1.244,0,0,0,1.579-1.069C116.907,70.387,121.5,48.3,125.211,48.3a30.776,30.776,0,0,1,19.535,15.137A38.188,38.188,0,0,1,147.573,92.6a1.245,1.245,0,0,0,1.19,1.612Z"/><path class="cls-3" d="M121.771,31.732a28.9,28.9,0,0,1,6.98.855c26.4,6.565,32.666,29.531,27.247,47.134a37.284,37.284,0,0,1-7.235,13.243c5.415-17.6-1.9-40.145-23.081-45.842a1.79,1.79,0,0,0-.471-.063c-7.127,0-11.673,43.659-11.673,43.659L81.691,81.65s7.177-18.434,9.433-25.756c4.613-14.988,17.337-24.163,30.647-24.162m0-2.491c-14.982,0-28.254,10.416-33.027,25.92-2.2,7.152-9.3,25.4-9.373,25.585a2.492,2.492,0,0,0,1.637,3.3l31.847,9.068a2.541,2.541,0,0,0,.683.095,2.492,2.492,0,0,0,2.478-2.233C118.158,70.4,122.369,51.709,125.3,49.6a29.528,29.528,0,0,1,18.354,14.444,36.911,36.911,0,0,1,2.728,28.187,2.49,2.49,0,0,0,4.274,2.35,39.56,39.56,0,0,0,7.721-14.127c3.35-10.882,2.27-22.435-2.96-31.7-5.207-9.215-14.218-15.643-26.067-18.588a31.4,31.4,0,0,0-7.58-.929Z"/><path class="cls-10" d="M148.763,94.209a1.248,1.248,0,0,0,.948-.437,38.311,38.311,0,0,0,7.477-13.684,39.219,39.219,0,0,0-2.855-30.718c-5.033-8.909-13.775-15.13-25.282-17.992a30.188,30.188,0,0,0-7.278-.892c-14.434,0-27.229,10.063-31.839,25.042-2.218,7.2-9.332,25.487-9.4,25.671a1.244,1.244,0,0,0,.819,1.649l19.622,5.587a1.262,1.262,0,0,0,.341.047,1.244,1.244,0,0,0,1.172-.825c12.878-35.933,19.718-39.812,22.062-39.812a2.506,2.506,0,0,1,1.42.512,3.368,3.368,0,0,0,.517.288C143.435,55.576,152.9,75.293,147.573,92.6a1.245,1.245,0,0,0,1.19,1.612Z"/><path class="cls-3" d="M121.771,31.732a28.9,28.9,0,0,1,6.98.855c26.4,6.565,32.666,29.531,27.247,47.134a37.284,37.284,0,0,1-7.235,13.243c5.3-17.24-3.808-38.113-21.808-45.471a4.54,4.54,0,0,0-2.41-.893c-3.424,0-10.543,5.225-23.232,40.637L81.691,81.65s7.177-18.434,9.433-25.756c4.613-14.988,17.337-24.163,30.647-24.162m0-2.491c-14.982,0-28.254,10.416-33.027,25.92-2.2,7.152-9.3,25.4-9.373,25.585a2.492,2.492,0,0,0,1.637,3.3l19.624,5.586a2.486,2.486,0,0,0,3.026-1.555c13.579-37.891,20.181-38.987,20.889-38.987a1.359,1.359,0,0,1,.744.313,4.217,4.217,0,0,0,.722.4c16.37,6.693,25.507,25.728,20.37,42.433a2.49,2.49,0,0,0,4.274,2.35,39.56,39.56,0,0,0,7.721-14.127c3.35-10.882,2.27-22.435-2.96-31.7-5.207-9.215-14.218-15.643-26.067-18.588a31.4,31.4,0,0,0-7.58-.929Z"/><g class="cls-4"><path class="cls-11" d="M98.082,55.341c-2.524-1.949-2.783-4.941-3.026-8.112a37.021,37.021,0,0,0-3.932,8.665c-2.256,7.322-9.433,25.756-9.433,25.756l31.847,9.068s2.416-23.19,6.486-35.768c-.076,0-.155,0-.23,0C112.7,55.005,104.149,59.815,98.082,55.341Z"/></g><path class="cls-12" d="M115.729,39.8c-6.841,2.662-15.451,15.285-17.225,7.6-.533-2.321,6.341-10.3,16.423-13.555a28.142,28.142,0,0,1,22.213,2.287S124.824,36.26,115.729,39.8Z"/><path class="cls-13" d="M95.88,106.053a1.248,1.248,0,0,0,1.241-1.144c.02-.235,1.9-23.666.727-40.8-1.292-18.847-14.5-35.8-32.112-41.221a29.507,29.507,0,0,0-8.692-1.254c-12.429,0-26.173,6.89-33.425,16.755a1.245,1.245,0,0,0,1.7,1.769,29.046,29.046,0,0,1,16.27-5.171,26.372,26.372,0,0,1,7.759,1.167c15.493,4.771,23.724,22.868,18.347,40.343a36.44,36.44,0,0,1-8.778,14.813,1.245,1.245,0,0,0,1.176,2.085,6.892,6.892,0,0,1,1.579-.158c9.62,0,33.386,12.548,33.624,12.675A1.244,1.244,0,0,0,95.88,106.053Z"/><path class="cls-3" d="M57.042,22.876a28.239,28.239,0,0,1,8.328,1.2C83.264,29.583,95.414,46.807,96.605,64.19c1.184,17.243-.725,40.617-.725,40.617S71.717,91.986,61.672,91.988a8.1,8.1,0,0,0-1.869.192,37.5,37.5,0,0,0,9.081-15.321c5.588-18.159-2.991-36.917-19.17-41.9a27.532,27.532,0,0,0-8.125-1.223,30.341,30.341,0,0,0-16.967,5.385c6.744-9.175,20.07-16.248,32.42-16.247m0-2.491c-12.8,0-26.955,7.1-34.427,17.262a2.491,2.491,0,0,0,3.4,3.539,27.811,27.811,0,0,1,15.572-4.958,25.12,25.12,0,0,1,7.393,1.113c14.837,4.568,22.7,21.967,17.523,38.785A35.188,35.188,0,0,1,58.03,90.432a2.489,2.489,0,0,0,2.353,4.17,5.684,5.684,0,0,1,1.289-.124c7.728,0,26.47,9.045,33.041,12.529a2.49,2.49,0,0,0,3.649-2c.08-.962,1.911-23.759.729-40.99C97.764,44.671,84.2,27.265,66.1,21.693a30.8,30.8,0,0,0-9.062-1.308Z"/><path class="cls-8" d="M81.626,99.244a1.247,1.247,0,0,0,1.243-1.175,268.766,268.766,0,0,0,.418-26.879c-.878-18.736-13.03-35.374-29.554-40.46a25.851,25.851,0,0,0-7.624-1.1,39.8,39.8,0,0,0-20.4,6.28,1.282,1.282,0,0,0-.282.238c-.656.748-1.264,1.5-1.8,2.239a1.245,1.245,0,0,0,1.7,1.768,29.046,29.046,0,0,1,16.27-5.171,26.372,26.372,0,0,1,7.759,1.167c15.493,4.771,23.724,22.868,18.347,40.343a36.44,36.44,0,0,1-8.778,14.813,1.245,1.245,0,0,0,1.176,2.085,6.892,6.892,0,0,1,1.579-.158c3.8,0,10.53,2.043,19.459,5.908A1.245,1.245,0,0,0,81.626,99.244Z"/><path class="cls-3" d="M46.109,30.875a24.609,24.609,0,0,1,7.258,1.045c16.744,5.155,27.867,22.063,28.675,39.327.4,8.609.04,18.77-.416,26.751-7.087-3.067-15.141-6.01-19.954-6.01a8.1,8.1,0,0,0-1.869.192,37.5,37.5,0,0,0,9.081-15.321c5.588-18.159-2.991-36.917-19.17-41.9a27.532,27.532,0,0,0-8.125-1.223,30.341,30.341,0,0,0-16.967,5.385c.537-.733,1.118-1.45,1.736-2.154,6.059-3.741,13.1-6.094,19.751-6.094m0-2.491a41.057,41.057,0,0,0-21.06,6.466,2.577,2.577,0,0,0-.562.475c-.681.775-1.31,1.557-1.874,2.325a2.491,2.491,0,0,0,3.4,3.536,27.811,27.811,0,0,1,15.572-4.958,25.12,25.12,0,0,1,7.393,1.113c14.837,4.568,22.7,21.967,17.523,38.785A35.188,35.188,0,0,1,58.03,90.432a2.489,2.489,0,0,0,2.353,4.17,5.678,5.678,0,0,1,1.289-.124c2.533,0,7.879,1.007,18.965,5.806a2.492,2.492,0,0,0,3.477-2.144c.611-10.723.752-19.81.417-27.009-.9-19.25-13.416-36.353-30.432-41.592a27.145,27.145,0,0,0-7.99-1.155Z"/><g class="cls-4"><path class="cls-14" d="M77.051,51.1c-1.468-5.191-7.265-6.5-12.8-5.628,6.056,8.318,8.144,19.97,4.63,31.387A37.5,37.5,0,0,1,59.8,92.18c.134-.033.272-.06.418-.085.044-.007.1-.011.142-.019.1-.015.2-.029.3-.04l.186-.014c.092-.007.185-.016.285-.021.069,0,.142,0,.212-.007.094,0,.185-.006.28-.006.078,0,.157,0,.233,0L62.15,92c.081,0,.165.009.247.013l.3.018c.087,0,.173.014.26.022.1.009.2.018.3.029s.182.021.275.033.207.024.313.038.191.027.283.041l.322.048.3.051c.113.019.222.037.331.058s.2.039.3.058l.341.067.314.068.346.075.318.076.358.084.325.082c.122.03.242.061.364.093l.33.087.376.1.33.093.386.111c.11.031.222.064.332.1.132.04.263.078.4.12.11.033.219.066.33.1.134.042.272.084.409.128l.33.106c.139.044.277.089.415.135l.332.11.425.142.325.112c.149.052.3.1.44.154.106.036.212.072.319.111.152.053.3.107.452.161l.31.112c.156.056.315.114.471.172l.293.108c.162.061.325.122.487.185.094.035.187.07.283.1l.5.195.264.1.532.207.238.095c.186.073.371.149.559.223l.207.082.6.244c.053.023.106.043.161.066.22.09.439.18.654.27l.106.044.711.3.048.021c.511.214,1.021.431,1.523.65,7.7,3.331,14.254,6.809,14.254,6.809s1.474-18.083,1.027-34.172C88.05,66.751,79.994,61.821,77.051,51.1Z"/></g><path class="cls-12" d="M77.957,38.917C85.9,47.292,88.692,63.851,94.249,60.132c1.677-1.125-2.857-15.76-12.644-24.632C66.858,22.137,54.679,24.6,54.679,24.6S70.016,30.542,77.957,38.917Z"/><path class="cls-15" d="M116.634,112.023a1.221,1.221,0,0,0,.2-.015,1.247,1.247,0,0,0,1.037-1.083,36.428,36.428,0,0,1,6.088-16.105c6.594-9.692,16.97-15.479,27.755-15.479a26.884,26.884,0,0,1,15.207,4.608,28.1,28.1,0,0,1,11.885,21.264,1.247,1.247,0,0,0,1.129,1.141,1.087,1.087,0,0,0,.114,0,1.247,1.247,0,0,0,1.2-.923c3.6-13.439-1.243-33.754-14.205-42.574a44.7,44.7,0,0,0-25.285-7.573A47.686,47.686,0,0,0,114.8,63.532c-14.117,9.785-31.239,25.891-31.411,26.053a1.244,1.244,0,0,0,.361,2.048c7.86,3.4,28.892,13.571,31.761,19.675A1.245,1.245,0,0,0,116.634,112.023Z"/><path class="cls-3" d="M141.76,56.534a43.575,43.575,0,0,1,24.584,7.358c12.248,8.334,17.335,27.68,13.7,41.222-.716-8.923-4.96-17.114-12.426-22.2A28.06,28.06,0,0,0,151.713,78.1c-10.719,0-21.762,5.7-28.784,16.023a37.5,37.5,0,0,0-6.3,16.659c-3.7-7.869-32.394-20.288-32.394-20.288S101.3,74.4,115.505,64.555a46.456,46.456,0,0,1,26.255-8.021m0-2.49a48.959,48.959,0,0,0-27.675,8.464c-14.192,9.84-30.853,25.508-31.554,26.17a2.491,2.491,0,0,0,.719,4.1c10.76,4.659,28.729,13.954,31.13,19.062a2.489,2.489,0,0,0,2.254,1.431,2.445,2.445,0,0,0,.4-.032,2.488,2.488,0,0,0,2.074-2.166,35.178,35.178,0,0,1,5.883-15.551c6.36-9.351,16.351-14.934,26.724-14.934a25.646,25.646,0,0,1,14.506,4.392,26.859,26.859,0,0,1,11.345,20.335,2.491,2.491,0,0,0,2.257,2.282c.077.006.153.01.227.01a2.492,2.492,0,0,0,2.405-1.846c3.7-13.8-.872-34.511-14.709-43.926a45.916,45.916,0,0,0-25.984-7.789Z"/><path class="cls-8" d="M116.634,112.023a1.221,1.221,0,0,0,.2-.015,1.247,1.247,0,0,0,1.037-1.083,36.428,36.428,0,0,1,6.088-16.105c6.594-9.692,16.97-15.479,27.755-15.479a26.884,26.884,0,0,1,15.207,4.608,28.1,28.1,0,0,1,11.885,21.264,1.244,1.244,0,0,0,1.131,1.141,1.049,1.049,0,0,0,.112,0,1.246,1.246,0,0,0,1.2-.927c.242-.915.45-1.859.615-2.8a1.222,1.222,0,0,0,.01-.367c-1.33-10.9-6.363-20.3-13.461-25.126A39.955,39.955,0,0,0,145.8,70.426a47.053,47.053,0,0,0-27.441,8.9A266.822,266.822,0,0,0,97.63,96.445a1.244,1.244,0,0,0,.248,2.026c9.96,5.281,16.22,9.84,17.629,12.837A1.245,1.245,0,0,0,116.634,112.023Z"/><path class="cls-3" d="M145.8,71.671a38.734,38.734,0,0,1,21.912,6.494c7.348,5,11.739,14.529,12.926,24.247-.162.922-.361,1.825-.593,2.7-.716-8.923-4.96-17.114-12.426-22.2A28.06,28.06,0,0,0,151.713,78.1c-10.719,0-21.762,5.7-28.784,16.023a37.5,37.5,0,0,0-6.3,16.659c-1.9-4.037-10.367-9.268-18.173-13.407,5.946-5.343,13.655-11.972,20.63-17.035A46,46,0,0,1,145.8,71.671m0-2.491a48.327,48.327,0,0,0-28.174,9.14,268.482,268.482,0,0,0-20.83,17.2,2.49,2.49,0,0,0,.5,4.054c13.608,7.215,16.482,10.982,17.085,12.266a2.489,2.489,0,0,0,2.254,1.431,2.445,2.445,0,0,0,.4-.032,2.488,2.488,0,0,0,2.074-2.166,35.178,35.178,0,0,1,5.883-15.551c6.36-9.351,16.351-14.934,26.724-14.934a25.646,25.646,0,0,1,14.506,4.392,26.859,26.859,0,0,1,11.345,20.335,2.49,2.49,0,0,0,2.261,2.282c.076.006.149.01.223.01a2.489,2.489,0,0,0,2.407-1.855c.25-.949.465-1.927.638-2.906a2.474,2.474,0,0,0,.019-.734c-1.373-11.253-6.6-20.974-14-26A41.2,41.2,0,0,0,145.8,69.18Z"/><g class="cls-4"><path class="cls-11" d="M128.59,81.638c-6.055-.559-16.036,2.911-17.854-2.315-1-2.366.308-7.254-.254-11.127C97.573,77.915,84.24,90.49,84.24,90.49s6.807,2.947,14.221,6.88h0c.726.385,1.462.781,2.2,1.185a.347.347,0,0,1,.033.018c.232.127.459.254.688.38l.087.05c.213.118.422.236.632.355.045.024.088.049.131.073l.588.335c.055.032.108.062.161.094l.552.316c.064.039.134.079.2.118.169.1.34.2.507.3.073.044.146.088.222.131.163.1.322.192.484.29l.237.142c.154.092.307.186.459.278l.252.154c.148.09.293.18.438.271.086.053.172.109.261.162.14.087.277.176.416.264.092.057.179.115.27.17l.4.259.268.174c.131.086.261.17.386.256.093.059.184.118.272.179l.371.25c.093.06.179.123.272.183.12.082.239.164.358.248.086.062.179.125.265.187.118.081.232.162.345.243.089.063.176.126.262.189.113.08.223.161.333.242.088.063.174.127.257.19.106.079.21.159.315.237l.255.193.3.235.249.194c.1.078.192.156.288.233.078.064.159.129.237.194l.274.231.225.192c.089.077.175.154.26.23s.147.128.215.191c.085.077.168.153.249.23.065.062.134.125.2.187l.235.229c.061.062.126.124.187.186s.148.15.219.227c.058.061.118.122.174.183s.139.151.2.225.109.12.16.18c.067.076.128.152.189.228.05.057.1.116.143.172.063.079.118.154.175.232.04.055.085.11.127.163.056.081.109.16.162.239.033.05.069.1.1.152.054.086.106.172.152.257.027.043.053.085.078.127.07.128.134.252.194.377a38.169,38.169,0,0,1,16.75-27.005A10.264,10.264,0,0,0,128.59,81.638Z"/></g><path class="cls-12" d="M145.351,62.939c-11.536-.383-25.777,8.513-26.682,1.888-.272-2,13.686-8.32,26.819-6.882,19.782,2.167,26.018,12.915,26.018,12.915S156.886,63.324,145.351,62.939Z"/><path class="cls-16" d="M21.274,56.186a10.039,10.039,0,1,0-2.951-.446,9.967,9.967,0,0,0,2.951.446Z"/><path class="cls-3" d="M21.268,37.388a8.776,8.776,0,1,1-8.382,6.194,8.768,8.768,0,0,1,8.382-6.194m0-2.49a11.271,11.271,0,1,0,3.317.5,11.2,11.2,0,0,0-3.317-.5Z"/><g class="cls-4"><path class="cls-16" d="M24.72,38.1a8.775,8.775,0,0,1-8.792,14.586c-.3-.093-.585-.2-.865-.319A8.774,8.774,0,1,0,24.72,38.1Z"/></g><path class="cls-17" d="M14.573,44.1c1.287-3.444,5.951-6.017,8.849-4.936a4.814,4.814,0,0,1,2,1.44,4.339,4.339,0,0,0-2.943-2.566c-2.88-1.075-7.212.987-8.435,4.254-.647,1.736-1.036,3.656-.39,5.129A8.639,8.639,0,0,1,14.573,44.1Z"/><path class="cls-3" d="M18.465,49.452a2.647,2.647,0,0,1-2.073,2.6c-1.2.19-2.379-1.042-2.326-2.735s1.3-2.822,2.485-2.564A2.619,2.619,0,0,1,18.465,49.452Z"/><path class="cls-18" d="M22.07,37.032A17.157,17.157,0,0,0,16.8,54.165"/><path class="cls-3" d="M21.742,50.46a2.646,2.646,0,0,0,.248,3.317c.883.829,2.555.477,3.464-.953s.513-3.066-.612-3.517A2.615,2.615,0,0,0,21.742,50.46Z"/><path class="cls-18" d="M25.745,38.165A17.161,17.161,0,0,1,20.471,55.3"/><path class="cls-16" d="M182.758,115.08a10.032,10.032,0,1,0-.023,0Z"/><path class="cls-3" d="M182.736,96.286a8.775,8.775,0,0,1,.018,17.549h-.018a8.775,8.775,0,0,1-.021-17.549h.021m0-2.49h-.028a11.278,11.278,0,1,0,.028,0Z"/><g class="cls-4"><path class="cls-16" d="M183.639,96.333a8.773,8.773,0,0,1-5,16.488,8.774,8.774,0,1,0,5-16.488Z"/></g><path class="cls-17" d="M175.728,105.078c.209-3.671,3.9-7.512,6.987-7.338a4.8,4.8,0,0,1,2.338.784,4.333,4.333,0,0,0-3.568-1.58c-3.069-.173-6.6,3.081-6.793,6.564-.106,1.849.092,3.8,1.146,5.013A8.522,8.522,0,0,1,175.728,105.078Z"/><path class="cls-3" d="M181.031,109.031a2.65,2.65,0,0,1-1.208,3.1c-1.089.536-2.582-.291-3.034-1.923s.4-3.081,1.614-3.184A2.614,2.614,0,0,1,181.031,109.031Z"/><path class="cls-18" d="M180.791,96.1a17.163,17.163,0,0,0,.041,17.926"/><path class="cls-3" d="M184.458,109.023a2.646,2.646,0,0,0,1.223,3.093c1.087.531,2.58-.3,3.023-1.936s-.42-3.08-1.628-3.178A2.617,2.617,0,0,0,184.458,109.023Z"/><path class="cls-18" d="M184.637,96.092a17.168,17.168,0,0,1,.041,17.928"/><path class="cls-16" d="M145.187,107.116A8.82,8.82,0,1,0,138.628,92.4a8.821,8.821,0,0,0,6.559,14.712Z"/><path class="cls-3" d="M145.193,90.573a7.723,7.723,0,1,1-5.75,2.563,7.688,7.688,0,0,1,5.75-2.563m0-2.192a9.915,9.915,0,1,0,6.622,2.537,9.931,9.931,0,0,0-6.622-2.537Z"/><g class="cls-4"><path class="cls-16" d="M150.925,93.124a7.723,7.723,0,0,1-12.41,8.408c-.2-.185-.394-.376-.577-.574a7.724,7.724,0,1,0,12.987-7.834Z"/></g><path class="cls-17" d="M140.6,94.177c2.3-2.277,6.975-2.611,8.891-.677a4.226,4.226,0,0,1,1.067,1.891,3.815,3.815,0,0,0-1.4-3.137c-1.9-1.924-6.128-1.875-8.309.284a6.3,6.3,0,0,0-2.207,3.952A7.555,7.555,0,0,1,140.6,94.177Z"/><path class="cls-3" d="M141.733,99.886a2.327,2.327,0,0,1-2.615,1.314c-1.027-.292-1.515-1.712-.85-3.045s2.083-1.776,2.932-1.131A2.3,2.3,0,0,1,141.733,99.886Z"/><path class="cls-19" d="M149.2,91.294a15.122,15.122,0,0,0-10.543,11.743"/><path class="cls-3" d="M143.98,101.9a2.325,2.325,0,0,0-1.024,2.742c.4.99,1.863,1.324,3.119.518s1.541-2.26.809-3.037A2.3,2.3,0,0,0,143.98,101.9Z"/><path class="cls-19" d="M151.722,93.555A15.109,15.109,0,0,1,141.178,105.3"/><path class="cls-8" d="M106.157,108.837a1.246,1.246,0,0,0,1.228-1.449c-.722-4.387-3.132-19.2-3.737-25.642-1.688-18.038-15.536-31.641-32.21-31.641-.388,0-.774.008-1.163.023-11.849.455-21.676,4.764-28.421,12.461C35.07,70.333,31.769,81.081,32.8,92.077A38.313,38.313,0,0,0,37.327,107a1.246,1.246,0,0,0,1.092.647,1.216,1.216,0,0,0,.365-.055,1.245,1.245,0,0,0,.875-1.306,38.2,38.2,0,0,1,8.716-27.972A30.774,30.774,0,0,1,70.434,67.472h.021a.736.736,0,0,1,.572.3c1.066,1.125,3.406,6.3,2.115,29.967A1.244,1.244,0,0,0,74.018,99l31.773,9.782A1.209,1.209,0,0,0,106.157,108.837Z"/><path class="cls-3" d="M71.436,51.351c15.611,0,29.3,12.6,30.973,30.511.6,6.39,2.988,21.119,3.748,25.729L74.384,97.809c.725-13.3.856-31.584-3.912-31.584-.036,0-.073,0-.109,0-21.9,1.257-33.654,21.839-31.944,40.173a37.29,37.29,0,0,1-4.381-14.441c-1.717-18.337,9.1-39.544,36.285-40.589q.559-.021,1.113-.021m0-2.491c-.4,0-.805.008-1.209.023-12.2.469-22.334,4.924-29.309,12.885-7.01,8-10.422,19.09-9.359,30.426a39.56,39.56,0,0,0,4.676,15.4A2.49,2.49,0,0,0,40.9,106.17,36.934,36.934,0,0,1,49.32,79.126,29.518,29.518,0,0,1,70.21,68.733c.574.749,2.973,5.356,1.687,28.94a2.492,2.492,0,0,0,1.753,2.517l31.775,9.782a2.492,2.492,0,0,0,3.19-2.786c-.516-3.116-3.111-18.993-3.727-25.556C103.14,62.948,88.759,48.86,71.436,48.86Z"/><path class="cls-20" d="M106.157,108.837a1.246,1.246,0,0,0,1.228-1.449c-.722-4.387-3.132-19.2-3.737-25.642-1.688-18.038-15.536-31.641-32.21-31.641-.388,0-.774.008-1.163.023-11.849.455-21.676,4.764-28.421,12.461C35.07,70.333,31.769,81.081,32.8,92.077A38.313,38.313,0,0,0,37.327,107a1.246,1.246,0,0,0,1.092.647,1.216,1.216,0,0,0,.365-.055,1.245,1.245,0,0,0,.875-1.306c-1.681-18.027,11.6-35.4,29.608-38.73a3.647,3.647,0,0,0,.564-.177,2.952,2.952,0,0,1,1.087-.255c1.587,0,7.182,2.455,12.445,34.032a1.244,1.244,0,0,0,.862.985l21.566,6.64A1.209,1.209,0,0,0,106.157,108.837Z"/><path class="cls-3" d="M71.436,51.351c15.611,0,29.3,12.6,30.973,30.511.6,6.39,2.988,21.119,3.748,25.729l-21.566-6.64C79.4,69.831,73.833,65.879,70.916,65.879a5.874,5.874,0,0,0-1.876.453c-19.12,3.534-32.3,22.109-30.621,40.07a37.29,37.29,0,0,1-4.381-14.441c-1.717-18.337,9.1-39.544,36.285-40.589q.559-.021,1.113-.021m0-2.491c-.4,0-.805.008-1.209.023-12.2.469-22.334,4.924-29.309,12.885-7.01,8-10.422,19.09-9.359,30.426a39.56,39.56,0,0,0,4.676,15.4A2.49,2.49,0,0,0,40.9,106.17C39.276,88.769,52.1,72,69.494,68.781a4.13,4.13,0,0,0,.784-.241,1.9,1.9,0,0,1,.638-.17c.235,0,5.782.375,11.219,32.99a2.489,2.489,0,0,0,1.724,1.972l21.566,6.64a2.492,2.492,0,0,0,3.19-2.786c-.516-3.116-3.111-18.993-3.727-25.556C103.14,62.948,88.759,48.86,71.436,48.86Z"/><g class="cls-4"><path class="cls-11" d="M102.409,81.862a35.218,35.218,0,0,0-8.047-19.595c-1.137,6.049-4.563,11.107-10.6,11.75-2.97.286-6.851-2.494-9.973-2.434,1.292,6.422,1.074,17.417.591,26.226l10.207,3.142,21.566,6.64C105.4,102.981,103.009,88.252,102.409,81.862Z"/></g><path class="cls-12" d="M48.841,69.086c5.76-5.3,11.5-9.759,15.978-11.962l8.361-4.106a55.7,55.7,0,0,0-8.2.2A40.158,40.158,0,0,0,43.888,64.49c-8.7,9.217-9.045,24.37-9.045,24.37S37.118,79.881,48.841,69.086Z"/><path class="cls-11" d="M117.979,117.361c.617,0,2.254,0,2.64-1.253l.5-1.692c.661-2.229,2.036-6.87,4.06-8.215a20.836,20.836,0,0,1,2.118-1.183,11.187,11.187,0,0,0,4.885-3.864,4.434,4.434,0,0,0,.63-3.847,6,6,0,0,0-3.7-3.514,4.56,4.56,0,0,0-1.722-.334c-3.511,0-6.925,3.8-9.938,7.147a24.047,24.047,0,0,1-3.56,3.524,4.744,4.744,0,0,1,.63-2.909l.2-.471a34.26,34.26,0,0,0,1.9-6.058c.648-3-.307-5.109-3.094-6.823a9.309,9.309,0,0,0-4.637-1.441,5.316,5.316,0,0,0-2.97.846c-2.248,1.472-2.222,3.675-2.2,5.446.005.435.011.876-.017,1.317a9.909,9.909,0,0,1-2.42,5.859,1.916,1.916,0,0,1-1.433.693,2.533,2.533,0,0,1-1.95-1.085,2.456,2.456,0,0,1-.421-2.2,33.494,33.494,0,0,1,1.357-3.433c1.448-3.335,3.09-7.115,1.942-10.42a5.722,5.722,0,0,0-5.5-4.119A7.488,7.488,0,0,0,90.52,81.2c-1.218,1.028-2.492,3.675-3.727,6.236a28.532,28.532,0,0,1-1.963,3.7l-.461.605c-.557.742-1.4,1.865-1.9,1.865-.237,0-.618-.274-1.018-.734-1.365-1.57-.858-3.538.07-6.362.191-.58.376-1.147.524-1.689.387-1.42,1.13-4.991-.317-7.52a4.735,4.735,0,0,0-2.938-2.248,7.22,7.22,0,0,0-1.9-.278c-2.9,0-4.343,2.188-5.742,4.3-1.086,1.641-2.023,3.394-2.93,5.088-.484.906-.968,1.811-1.473,2.7a3.917,3.917,0,0,1-.976,1.329c-.015-.023-.081-.072-.173-.166-.49-.565-.184-3.8,0-5.728.439-4.634.938-9.886-2.852-10.319a3.2,3.2,0,0,0-.374-.022,2.831,2.831,0,0,0-2.191,1.012c-1.9,2.185-1.241,7.367-1.16,7.952.073.523.157,1.021.239,1.5.316,1.861.545,3.206-.138,4.921-.441,1.106-.775,2.255-1.1,3.365-.123.418-.244.837-.372,1.25a5.462,5.462,0,0,1-.421,1.145,4.583,4.583,0,0,0-1.032,2.147l-.287.931c-.386,1.26.05,2.517,9.222,6.271,5.764,2.358,13.548,5.077,21.918,7.655C101.144,114.445,113.576,117.361,117.979,117.361Z"/><path class="cls-3" d="M62.362,73.156c.076,0,.156.006.238.014,4.491.513.012,13.51,2.125,15.69a1.484,1.484,0,0,0,1.046.545c.823,0,1.486-1.03,2.01-1.948,1.455-2.551,2.736-5.262,4.361-7.718,1.48-2.238,2.609-3.764,4.74-3.764a6.081,6.081,0,0,1,1.589.236c3.5.948,3.17,5.508,2.411,8.29-.79,2.889-2.681,6.466-.341,9.157a2.673,2.673,0,0,0,1.925,1.148c1.3,0,2.307-1.646,3.312-2.934,1.345-1.73,3.776-8.285,5.518-9.756a6.278,6.278,0,0,1,3.987-1.582,4.529,4.529,0,0,1,4.365,3.312c1.394,4.008-2.164,9.307-3.314,13.11a3.84,3.84,0,0,0,3.521,4.835,3.1,3.1,0,0,0,2.318-1.082,11.112,11.112,0,0,0,2.735-6.6c.134-2.2-.484-4.417,1.675-5.831a4.152,4.152,0,0,1,2.312-.65,8.006,8.006,0,0,1,4.007,1.265c2.3,1.415,3.107,2.959,2.549,5.546a33.173,33.173,0,0,1-1.833,5.846c-.557,1.33-1.415,2.949-.812,4.419.209.5.5.726.867.726,2.553,0,8.635-10.77,13.719-10.77a3.327,3.327,0,0,1,1.271.246c2.579,1.044,4.062,3.171,2.507,5.6-1.634,2.557-4.345,3.159-6.655,4.693-2.654,1.764-4.115,7.5-4.769,9.617,0,0-.176.609-.275.938-.085.275-.6.405-1.492.405-4.149,0-16.392-2.837-30.584-7.2-17.236-5.308-30.822-10.867-30.346-12.418.1-.329.288-.936.288-.936.811-2.632.643-.66,1.454-3.293.462-1.505.856-3.064,1.438-4.524,1-2.523.333-4.412-.028-7.032-.249-1.778-.585-7.6,2.161-7.6m0-2.4a4.056,4.056,0,0,0-3.1,1.424c-2.2,2.532-1.59,7.863-1.444,8.9.073.54.159,1.05.244,1.541.306,1.792.489,2.873-.068,4.274-.462,1.159-.8,2.336-1.137,3.474-.121.413-.242.825-.366,1.233-.139.452-.227.691-.274.809A6.121,6.121,0,0,0,55.04,94.9l-.288.934c-.785,2.56,1.346,4.221,9.918,7.729,5.8,2.372,13.616,5.1,22.019,7.691,14.205,4.373,26.78,7.311,31.29,7.311,2.085,0,3.36-.707,3.792-2.112.1-.328.272-.928.272-.928.068-.22.144-.478.229-.765.523-1.765,1.912-6.452,3.572-7.556a20.078,20.078,0,0,1,2-1.114A12.337,12.337,0,0,0,133.2,101.8a5.61,5.61,0,0,0,.762-4.86,7.166,7.166,0,0,0-4.392-4.262,5.752,5.752,0,0,0-2.174-.422c-4.047,0-7.651,4.008-10.831,7.546-.1.1-.192.212-.292.323a35.634,35.634,0,0,0,1.531-5.18c.763-3.533-.394-6.106-3.642-8.1a10.5,10.5,0,0,0-5.263-1.619,6.5,6.5,0,0,0-3.628,1.043c-2.8,1.833-2.767,4.621-2.746,6.466.007.405.014.817-.013,1.228a8.663,8.663,0,0,1-2.1,5.122c-.279.3-.474.3-.549.3a1.39,1.39,0,0,1-.986-.6,1.267,1.267,0,0,1-.235-1.137,32.955,32.955,0,0,1,1.309-3.3c1.536-3.537,3.278-7.545,1.975-11.294a6.966,6.966,0,0,0-6.635-4.926,8.681,8.681,0,0,0-5.538,2.149c-1.316,1.111-2.451,3.347-4.034,6.633a30.488,30.488,0,0,1-1.829,3.48c-.156.2-.315.413-.474.625-.259.346-.645.86-.948,1.182l-.106-.119c-.951-1.094-.521-2.693.305-5.2.195-.6.387-1.187.542-1.75.425-1.563,1.237-5.512-.435-8.432a5.913,5.913,0,0,0-3.664-2.81,8.364,8.364,0,0,0-2.22-.32c-3.543,0-5.316,2.684-6.743,4.841C69.02,80.1,68.071,81.879,67.151,83.6q-.279.523-.56,1.044c.053-.769.129-1.566.192-2.233.444-4.667,1.051-11.06-3.911-11.626a4.46,4.46,0,0,0-.51-.029Z"/><g class="cls-4"><path class="cls-11" d="M124.26,103.144c-4.826,3.547-5.024,5.16-7.871,10.064-4,.341-51.343-13.543-55.863-14.112,5.057,2.5,15.113,6.24,26.869,9.859,17.238,5.307,31.6,8.351,32.076,6.8.1-.329.275-.938.275-.938.654-2.12,2.115-7.853,4.769-9.617,2.257-1.5,4.9-2.109,6.543-4.523C128.748,100.363,126.085,101.881,124.26,103.144Z"/></g><path class="cls-16" d="M36.055,123.174A10.019,10.019,0,1,0,26.037,113.1,10.016,10.016,0,0,0,36,123.174Z"/><path class="cls-3" d="M36.056,104.381h.05a8.774,8.774,0,0,1-.05,17.548H36a8.774,8.774,0,0,1,.053-17.548m0-2.49a11.232,11.232,0,1,0,.065,0Z"/><g class="cls-4"><path class="cls-16" d="M37.027,104.436a8.774,8.774,0,0,1-4.2,16.5,8.5,8.5,0,0,1-.923-.055,8.773,8.773,0,1,0,5.125-16.447Z"/></g><path class="cls-17" d="M29.05,113.117c.237-3.669,3.957-7.48,7.043-7.281a4.787,4.787,0,0,1,2.33.8,4.322,4.322,0,0,0-3.553-1.609c-3.07-.2-6.621,3.029-6.848,6.508-.119,1.85.063,3.8,1.107,5.025A8.591,8.591,0,0,1,29.05,113.117Z"/><path class="cls-3" d="M34.319,117.112a2.647,2.647,0,0,1-1.234,3.09c-1.092.527-2.579-.311-3.018-1.947s.431-3.079,1.639-3.171A2.614,2.614,0,0,1,34.319,117.112Z"/><path class="cls-18" d="M34.183,104.182a17.161,17.161,0,0,0-.1,17.926"/><path class="cls-3" d="M37.746,117.133a2.645,2.645,0,0,0,1.2,3.1c1.087.538,2.582-.282,3.042-1.914s-.394-3.081-1.6-3.19A2.616,2.616,0,0,0,37.746,117.133Z"/><path class="cls-18" d="M38.028,104.2a17.162,17.162,0,0,1-.1,17.927"/><g class="cls-4"><path class="cls-11" d="M77.223,92.851a4.393,4.393,0,0,0,2.3,2.2,3.5,3.5,0,0,0,3.341-.3c-.683.178-1.442-.076-2.327-1.095-2.34-2.691-.449-6.268.341-9.157a14.649,14.649,0,0,0,.438-2.345C78.441,84.921,76.408,88.634,77.223,92.851Z"/></g><g class="cls-4"><path class="cls-11" d="M96.085,100.519a1.765,1.765,0,0,0,1.5.382,3.763,3.763,0,0,1-1.246-3.945c1.057-3.489,4.133-8.239,3.559-12.093C97.262,90.065,92.585,94.8,96.085,100.519Z"/></g><g class="cls-4"><path class="cls-11" d="M112.723,104.525c.007,0,.01,0,.02-.006-.466-1.419.341-2.959.875-4.233a33.173,33.173,0,0,0,1.833-5.846,4.405,4.405,0,0,0-.779-4.1c-.932,1.885-2.33,3.595-3.387,5.548C110,98.848,108.689,105.518,112.723,104.525Z"/></g><path class="cls-12" d="M75.785,79.9c-1.449,1.39-1.743,3.431-2.62,2.518s-.416-2.781,1.032-4.171,3.331-1.78,4.208-.867S77.233,78.507,75.785,79.9Z"/><path class="cls-12" d="M93.48,84.7c-1.445,1.391-1.742,3.431-2.618,2.517s-.416-2.78,1.03-4.171,3.335-1.78,4.21-.866S94.93,83.3,93.48,84.7Z"/><path class="cls-12" d="M61.964,76.759C61.5,78,61.9,79.3,61.121,79s-1.039-1.536-.574-2.777,1.48-2.007,2.261-1.714S62.431,75.519,61.964,76.759Z"/><path class="cls-12" d="M108.328,91.1c-1.062,1.021-1.047,2.761-1.924,1.848a2.7,2.7,0,0,1,3.85-3.7C111.132,90.161,109.392,90.076,108.328,91.1Z"/><path class="cls-3" d="M114.274,134.2l.113-.161c.056-.125.235-.221.374-.341a8.249,8.249,0,0,1,1.613-.8,2.658,2.658,0,0,1,.489-.134c-.017.007.117-.031-.027.013l.083-.006.162-.014.333-.029a2.5,2.5,0,0,1,.905.257c.164.041.264.2.405.277l.049.035.025.017c-.186-.175-.05-.046-.089-.083l0,0,.006.009.017.018.121.148.257.288c.169.2.106.278.2.4.058.138.094.362.153.533a5.513,5.513,0,0,1,.116,1.274c-.033.447-.037.9-.11,1.347-.028.223-.088.436-.109.655,0,.108-.1.422-.146.614a9,9,0,0,1-.348,1.124,8.616,8.616,0,0,1-.394.935c-.128.288-.252.541-.363.746-.211.418-.32.675-.32.675s.238-.134.636-.4a4.376,4.376,0,0,0,.683-.531,4.736,4.736,0,0,0,.809-.832,5.58,5.58,0,0,0,.759-1.15c.112-.229.2-.34.341-.682.1-.237.176-.486.257-.741a8.433,8.433,0,0,0,.331-1.643,7.455,7.455,0,0,0-.091-1.835,7.575,7.575,0,0,0-.331-.954,5.076,5.076,0,0,0-.6-.925l-.271-.272-.141-.13-.131-.119-.055-.033-.111-.065a3.8,3.8,0,0,0-.905-.428,3.1,3.1,0,0,0-.957-.162,3.669,3.669,0,0,0-.915.1l-.318.106-.154.051-.077.027c-.2.057-.107.045-.174.071a4.207,4.207,0,0,0-.606.409,5.006,5.006,0,0,0-1.329,1.572A1.473,1.473,0,0,0,114.274,134.2Z"/><path class="cls-3" d="M119.312,136.434s-.2-.01-.527,0a3.677,3.677,0,0,0-1.338.245,5.954,5.954,0,0,0-1.774.929,4.431,4.431,0,0,0-.857.7c-.26.274-.525.551-.791.829l-.628.963a4.139,4.139,0,0,0-.485,1,5.289,5.289,0,0,0-.444,1.939,3.593,3.593,0,0,0,.146,1.4,4.685,4.685,0,0,0,.155.5s.108-.181.262-.468a8.724,8.724,0,0,1,.6-1.108,6.986,6.986,0,0,0,.406-.685c.155-.235.362-.464.514-.72.312-.513.759-1,1.122-1.525.431-.478.8-1.024,1.228-1.458.215-.214.394-.473.58-.682a7.62,7.62,0,0,0,.534-.565,10.663,10.663,0,0,1,.936-.923C119.186,136.586,119.312,136.434,119.312,136.434Z"/><path class="cls-21" d="M85.411,142.3c5,0,9.9-4.595,11.653-10.924a16.533,16.533,0,0,0-.265-10.219,9.31,9.31,0,0,0-6.082-6.014,8.026,8.026,0,0,0-2.156-.293c-4.994,0-9.894,4.595-11.653,10.925A16.547,16.547,0,0,0,77.174,136a9.316,9.316,0,0,0,6.081,6.013,8.031,8.031,0,0,0,2.156.293Z"/><path class="cls-3" d="M88.561,115.584a7.3,7.3,0,0,1,1.961.267c5.177,1.436,7.79,8.3,5.835,15.329-1.7,6.148-6.344,10.387-10.944,10.387a7.283,7.283,0,0,1-1.962-.266c-5.175-1.436-7.789-8.3-5.835-15.328,1.707-6.149,6.345-10.389,10.945-10.389m0-1.468c-5.319,0-10.516,4.822-12.359,11.464a17.294,17.294,0,0,0,.285,10.675,10.027,10.027,0,0,0,6.571,6.46,8.806,8.806,0,0,0,2.355.32c5.318,0,10.516-4.821,12.357-11.461a17.271,17.271,0,0,0-.285-10.677,10.028,10.028,0,0,0-6.57-6.46,8.805,8.805,0,0,0-2.354-.321Z"/><path class="cls-11" d="M94.519,118.573a15.4,15.4,0,0,1,.663,10.726c-1.954,7.029-7.731,11.562-12.908,10.124a7.761,7.761,0,0,1-4-2.724,8.331,8.331,0,0,0,5.174,4.6c5.177,1.439,10.957-3.094,12.906-10.121C97.709,126.317,96.877,121.536,94.519,118.573Z"/><path class="cls-9" d="M91.946,128.55c-1.2,4.329-4.762,7.12-7.95,6.234s-4.8-5.113-3.594-9.442,4.762-7.122,7.951-6.235S93.149,124.221,91.946,128.55Z"/><path class="cls-15" d="M91.946,128.55c-1.2,4.329-4.762,7.12-7.95,6.234s-4.8-5.113-3.594-9.442,4.762-7.122,7.951-6.235S93.149,124.221,91.946,128.55Z"/><path class="cls-3" d="M89.36,127.83c-.664,2.389-2.628,3.929-4.384,3.44s-2.649-2.821-1.986-5.21,2.628-3.927,4.385-3.438S90.022,125.442,89.36,127.83Z"/><path class="cls-21" d="M87.736,122.233c-.515,1.841-2.028,3.03-3.385,2.653s-2.042-2.176-1.53-4.019,2.025-3.03,3.384-2.654S88.247,120.39,87.736,122.233Z"/><path class="cls-21" d="M88.608,131.319c-.222.8-.875,1.309-1.462,1.145a1.343,1.343,0,0,1-.661-1.734c.221-.8.874-1.31,1.463-1.147A1.348,1.348,0,0,1,88.608,131.319Z"/><path class="cls-21" d="M62.1,134.713c4.891,0,9.69-4.5,11.411-10.7,2.016-7.253-.772-14.384-6.212-15.9a7.858,7.858,0,0,0-2.111-.288c-4.892,0-9.693,4.5-11.417,10.7-2.013,7.254.776,14.386,6.218,15.9a7.9,7.9,0,0,0,2.111.287Z"/><path class="cls-3" d="M65.189,108.549a7.2,7.2,0,0,1,1.921.26c5.066,1.409,7.624,8.13,5.712,15.013-1.672,6.022-6.215,10.172-10.719,10.172a7.145,7.145,0,0,1-1.919-.26c-5.067-1.408-7.627-8.129-5.717-15.012,1.674-6.022,6.218-10.173,10.722-10.173m0-1.437c-5.207,0-10.3,4.721-12.107,11.225-2.118,7.636.895,15.164,6.718,16.782a8.621,8.621,0,0,0,2.3.313c5.207,0,10.3-4.722,12.1-11.226,2.121-7.634-.891-15.162-6.713-16.781a8.6,8.6,0,0,0-2.305-.313Z"/><path class="cls-11" d="M71.02,111.478a15.082,15.082,0,0,1,.652,10.5c-1.913,6.883-7.572,11.321-12.641,9.913a7.6,7.6,0,0,1-3.914-2.668,8.166,8.166,0,0,0,5.067,4.508c5.068,1.408,10.727-3.03,12.638-9.912C74.148,119.061,73.329,114.377,71.02,111.478Z"/><path class="cls-9" d="M68.5,121.246c-1.178,4.239-4.663,6.973-7.785,6.105s-4.7-5.007-3.52-9.247,4.663-6.973,7.785-6.1S69.68,117.007,68.5,121.246Z"/><path class="cls-15" d="M68.5,121.246c-1.178,4.239-4.663,6.973-7.785,6.105s-4.7-5.007-3.52-9.247,4.663-6.973,7.785-6.1S69.68,117.007,68.5,121.246Z"/><path class="cls-3" d="M65.971,120.542c-.653,2.339-2.575,3.846-4.3,3.367s-2.59-2.76-1.938-5.1,2.57-3.846,4.293-3.368S66.617,118.2,65.971,120.542Z"/><path class="cls-21" d="M64.377,115.06c-.5,1.8-1.984,2.967-3.311,2.6s-2-2.13-1.5-3.934,1.987-2.969,3.316-2.6S64.877,113.256,64.377,115.06Z"/><path class="cls-21" d="M65.232,123.957c-.215.78-.858,1.282-1.432,1.122a1.316,1.316,0,0,1-.646-1.7c.215-.78.858-1.283,1.432-1.124A1.316,1.316,0,0,1,65.232,123.957Z"/><path class="cls-20" d="M71.279,148.125c5.194,0,9.371-2.788,10.162-6.779a7.994,7.994,0,0,0-2.181-6.941,13.468,13.468,0,0,0-7.419-4.034,14.871,14.871,0,0,0-2.892-.287c-5.192,0-9.371,2.788-10.163,6.779-.952,4.817,3.355,9.741,9.6,10.976A14.947,14.947,0,0,0,71.279,148.125Z"/><path class="cls-3" d="M68.949,131.061a13.881,13.881,0,0,1,2.7.268c5.727,1.133,9.681,5.534,8.831,9.827-.714,3.607-4.589,5.993-9.2,5.993a13.889,13.889,0,0,1-2.7-.268c-5.729-1.133-9.681-5.532-8.832-9.828.715-3.607,4.59-5.993,9.2-5.992m0-1.953c-5.664,0-10.236,3.11-11.119,7.567-1.056,5.344,3.6,10.782,10.37,12.122a15.94,15.94,0,0,0,3.081.305c5.666,0,10.238-3.112,11.12-7.566a8.95,8.95,0,0,0-2.412-7.784,14.462,14.462,0,0,0-7.957-4.339,15.922,15.922,0,0,0-3.083-.305Z"/><g class="cls-22"><path class="cls-21" d="M69.1,133.089c-.643,1.138.918,3.232,3.48,4.677s5.164,1.693,5.8.555-.917-3.233-3.48-4.677S69.743,131.951,69.1,133.089Z"/></g><g class="cls-4"><path class="cls-20" d="M59.744,137.053a6.739,6.739,0,0,1,3.108-4.326,6.243,6.243,0,0,0-1.385,2.826c-.849,4.294,3.105,8.695,8.834,9.828a12.069,12.069,0,0,0,8.8-1.4c-2.117,2.5-6.207,3.752-10.526,2.9C62.847,145.748,58.9,141.349,59.744,137.053Z"/></g><path class="cls-3" d="M99.31,149.651s-.864.43-2.4,1.089a60.624,60.624,0,0,1-6.463,2.344c-1.353.417-2.837.789-4.4,1.156-.792.15-1.6.331-2.427.468l-2.544.367q-1.3.1-2.638.213l-2.7.033c-.906-.02-1.816-.11-2.731-.16s-1.809-.27-2.717-.4a23.211,23.211,0,0,1-2.675-.594c-.418-.116-.943-.207-1.269-.341l-1.333-.48a27.291,27.291,0,0,1-4.733-2.263,31.271,31.271,0,0,1-4-2.926,35.456,35.456,0,0,1-3.127-3.22,36.559,36.559,0,0,1-2.312-3.062,27.461,27.461,0,0,1-1.541-2.56c-.791-1.464-1.154-2.359-1.154-2.359a15.591,15.591,0,0,0,.678,2.566,28.014,28.014,0,0,0,3.1,6.333A27.242,27.242,0,0,0,54.9,149.6c.611.591,1.234,1.212,1.909,1.805a26.392,26.392,0,0,0,2.2,1.659,23.848,23.848,0,0,0,2.459,1.484,18.927,18.927,0,0,0,2.654,1.223l1.326.5a14.744,14.744,0,0,0,1.473.431,25.075,25.075,0,0,0,2.9.691c.988.124,1.969.327,2.956.381s1.972.118,2.947.124c.974-.031,1.94-.072,2.89-.137L81.4,157.4c.905-.173,1.8-.349,2.657-.542.858-.215,1.687-.471,2.495-.7a41.264,41.264,0,0,0,4.422-1.643,35.286,35.286,0,0,0,3.559-1.761c1.034-.566,1.909-1.1,2.62-1.559A22.757,22.757,0,0,0,99.31,149.651Z"/><path class="cls-3" d="M99.123,152.244a2.057,2.057,0,0,0,.671-.825,2.143,2.143,0,0,0,.22-1.127,2.54,2.54,0,0,0-.49-1.246,3.85,3.85,0,0,0-.968-.849,4.984,4.984,0,0,0-.98-.469,6.557,6.557,0,0,0-1.017-.242s.341.257.848.577c.242.179.539.369.812.6a3.342,3.342,0,0,1,.773.779,2.148,2.148,0,0,1,.447,1.852A3.546,3.546,0,0,1,99.123,152.244Z"/><path class="cls-3" d="M50.291,136.991a2.054,2.054,0,0,0-.921-.529,2.158,2.158,0,0,0-1.15-.035,2.55,2.55,0,0,0-1.15.686,3.794,3.794,0,0,0-.681,1.092,4.88,4.88,0,0,0-.3,1.042,6.774,6.774,0,0,0-.075,1.043s.2-.377.434-.931c.136-.268.275-.59.464-.9a3.288,3.288,0,0,1,.645-.887,2.151,2.151,0,0,1,1.755-.743A3.535,3.535,0,0,1,50.291,136.991Z"/><path class="cls-5" d="M59.347,162.879c.155-.627,2.461.035,5.139.7s4.71,1.071,4.554,1.7-2.717,1.113-5.392.452S59.193,163.506,59.347,162.879Z"/></g></g></svg>