<svg id="Layer_1" data-name="Layer 1" xmlns="http://www.w3.org/2000/svg" viewBox="0 0 500 500"><defs><style>.cls-1{opacity:0.1;}.cls-2{fill:#ffbe00;}.cls-3{opacity:0.9;}.cls-4{opacity:0.8;}.cls-5{opacity:0.7;}.cls-6{opacity:0.6;}.cls-7{opacity:0.5;}.cls-8{opacity:0.4;}.cls-9{opacity:0.3;}.cls-10{opacity:0.2;}</style></defs><g class="cls-1"><ellipse class="cls-2" cx="87" cy="250" rx="87" ry="9"/></g><ellipse class="cls-2" cx="250" cy="87" rx="9" ry="87"/><g class="cls-3"><ellipse class="cls-2" cx="222.2" cy="89.4" rx="9" ry="87" transform="translate(-12.1 39.9) rotate(-10)"/></g><g class="cls-4"><ellipse class="cls-2" cx="194.7" cy="96.7" rx="9" ry="87" transform="translate(-21.3 72.4) rotate(-20)"/></g><g class="cls-5"><ellipse class="cls-2" cx="168.9" cy="108.6" rx="9" ry="87" transform="translate(-31.7 99) rotate(-30)"/></g><g class="cls-6"><ellipse class="cls-2" cx="145.6" cy="124.8" rx="9" ry="87" transform="matrix(0.77, -0.64, 0.64, 0.77, -46.16, 122.8)"/></g><g class="cls-7"><ellipse class="cls-2" cx="125.5" cy="144.8" rx="9" ry="87" transform="translate(-66.1 147.8) rotate(-50)"/></g><g class="cls-8"><ellipse class="cls-2" cx="109.1" cy="168.1" rx="9" ry="87" transform="translate(-91 178.5) rotate(-60)"/></g><g class="cls-9"><ellipse class="cls-2" cx="97" cy="193.8" rx="9" ry="87" transform="translate(-118.3 218.7) rotate(-70)"/></g><g class="cls-10"><ellipse class="cls-2" cx="89.6" cy="221.2" rx="9" ry="87" transform="translate(-143.8 271) rotate(-80)"/></g></svg>