<svg xmlns="http://www.w3.org/2000/svg" xmlns:xlink="http://www.w3.org/1999/xlink" viewBox="0 0 1000.001 216"><defs><style>.cls-1{mask:url(#mask);filter:url(#luminosity-noclip-3);}.cls-11,.cls-13,.cls-19,.cls-2,.cls-21,.cls-23,.cls-26,.cls-4,.cls-9{mix-blend-mode:multiply;}.cls-2{fill:url(#linear-gradient);}.cls-3{mask:url(#mask-2);filter:url(#luminosity-noclip-4);}.cls-4{fill:url(#linear-gradient-2);}.cls-5{isolation:isolate;}.cls-6{fill:#e3b872;}.cls-7{fill:#fdfbe1;}.cls-8{mask:url(#mask-3);}.cls-13,.cls-9{opacity:0.7;}.cls-9{fill:url(#linear-gradient-3);}.cls-10,.cls-11{fill:#c0843e;}.cls-11{opacity:0.4;}.cls-12{mask:url(#mask-4);}.cls-13{fill:url(#linear-gradient-4);}.cls-14{fill:#78263f;}.cls-15{fill:#fdcc7e;}.cls-16{fill:#231f20;}.cls-17,.cls-26{fill:#fccbaa;}.cls-18,.cls-31{fill:#3c2415;}.cls-20,.cls-23{fill:#f37f94;}.cls-21,.cls-23{opacity:0.2;}.cls-22,.cls-24,.cls-39{fill:#fff;}.cls-22,.cls-30{opacity:0.3;}.cls-25{fill:#d1d3d4;}.cls-27,.cls-28,.cls-40,.cls-41{fill:none;}.cls-27,.cls-28,.cls-31,.cls-32,.cls-40,.cls-41{stroke:#3c2415;}.cls-27,.cls-28,.cls-31,.cls-32{stroke-linecap:round;stroke-miterlimit:10;}.cls-27{stroke-width:1.989px;}.cls-28{stroke-width:1.903px;}.cls-29{fill:#cd393a;}.cls-31,.cls-32{stroke-width:2.797px;}.cls-32{fill:#f9a676;}.cls-33{fill:#fbb040;}.cls-34{fill:#00a79d;}.cls-35{fill:#8dc63f;}.cls-36{fill:#939598;}.cls-37{fill:#27aae1;}.cls-38{fill:#ffc709;}.cls-39{opacity:0.6;}.cls-40,.cls-41{stroke-linecap:square;stroke-linejoin:round;}.cls-40{stroke-width:1.162px;}.cls-41{stroke-width:1.023px;}.cls-42{fill:#5761ac;}.cls-43{filter:url(#luminosity-noclip-2);}.cls-44{filter:url(#luminosity-noclip);}</style><filter id="luminosity-noclip" x="71.763" y="-8314.443" width="89.324" height="32766" filterUnits="userSpaceOnUse" color-interpolation-filters="sRGB"><feFlood flood-color="#fff" result="bg"/><feBlend in="SourceGraphic" in2="bg"/></filter><mask id="mask" x="71.763" y="-8314.443" width="89.324" height="32766" maskUnits="userSpaceOnUse"><g class="cls-44"/></mask><linearGradient id="linear-gradient" x1="82.497" y1="162.328" x2="143.682" y2="138.739" gradientUnits="userSpaceOnUse"><stop offset="0.051"/><stop offset="0.281" stop-color="#4c4c4c"/><stop offset="0.531" stop-color="#989898"/><stop offset="0.738" stop-color="#d0d0d0"/><stop offset="0.891" stop-color="#f2f2f2"/><stop offset="0.973" stop-color="#fff"/></linearGradient><filter id="luminosity-noclip-2" x="839.231" y="-8314.443" width="93.829" height="32766" filterUnits="userSpaceOnUse" color-interpolation-filters="sRGB"><feFlood flood-color="#fff" result="bg"/><feBlend in="SourceGraphic" in2="bg"/></filter><mask id="mask-2" x="839.231" y="-8314.443" width="93.829" height="32766" maskUnits="userSpaceOnUse"><g class="cls-43"/></mask><linearGradient id="linear-gradient-2" x1="918.405" y1="153.861" x2="860.578" y2="143.804" xlink:href="#linear-gradient"/><filter id="luminosity-noclip-3" x="71.763" y="103.926" width="89.324" height="88.865" filterUnits="userSpaceOnUse" color-interpolation-filters="sRGB"><feFlood flood-color="#fff" result="bg"/><feBlend in="SourceGraphic" in2="bg"/></filter><mask id="mask-3" x="71.763" y="103.926" width="89.324" height="88.865" maskUnits="userSpaceOnUse"><g class="cls-1"><path class="cls-2" d="M159.708,181.755a23.77,23.77,0,0,1-1.533-5.336c-.741-3.842-1.642-7.676-2.424-11.509-.733-3.567-1.652-7.113-2.512-10.672-.517-2.139.535-5.309-2.425-6.578-4.045-1.742-5.958-5.425-7.789-8.538a66.275,66.275,0,0,1-5.073-11.392c-2.164-6.037-4.425-12.717-9.051-17.991-4.164-4.747-11.31-5.893-18.384-5.809-1.437.02-2.819.035-4.242.185-1.866.2-3.637-.137-5.513,0a10.8,10.8,0,0,0-3.623,1.31,9.013,9.013,0,0,1-1.2.452c.009-.013.022-.021.032-.034s-.01-.041-.032-.021-.069.055-.1.082a18.214,18.214,0,0,0-2.7.92c-.38.186-.3.767.223.556.229-.1.458-.179.7-.261-3.2,1.748-7.911,2.668-11.357,3.456a43.926,43.926,0,0,1-6.729.776,27.152,27.152,0,0,0-4.21.685c7.975,27.154,17.908,53.937,27.686,80.755,4.539-.762,9.105-1.454,13.64-2.169a237.5,237.5,0,0,1,28.756-2.873c5.509-.191,11.073-.322,16.577-.74,1.629-.22,2.718-.4,2.663-.7A27.184,27.184,0,0,0,159.708,181.755Z"/></g></mask><linearGradient id="linear-gradient-3" x1="82.497" y1="162.328" x2="143.682" y2="138.739" gradientUnits="userSpaceOnUse"><stop offset="0.051" stop-color="#ccd8d4"/><stop offset="0.377" stop-color="#aca48b"/><stop offset="0.655" stop-color="#947d53"/><stop offset="0.862" stop-color="#856431"/><stop offset="0.973" stop-color="#7f5b24"/></linearGradient><filter id="luminosity-noclip-4" x="839.231" y="103.926" width="93.829" height="88.241" filterUnits="userSpaceOnUse" color-interpolation-filters="sRGB"><feFlood flood-color="#fff" result="bg"/><feBlend in="SourceGraphic" in2="bg"/></filter><mask id="mask-4" x="839.231" y="103.926" width="93.829" height="88.241" maskUnits="userSpaceOnUse"><g class="cls-3"><path class="cls-4" d="M897.042,192.166c2.892-8.3,5.967-16.557,9.481-24.718,7.807-18.162,17.084-35.92,26.537-53.621-1.462.7-2.2,3.538-3.056,4.334a2.247,2.247,0,0,0-.477.543,8.972,8.972,0,0,1,.165-1.564,24.294,24.294,0,0,1,1.247-4.13c.108-.254-.148-.494-.477-.563a44.807,44.807,0,0,0-6.113-1.1,44.049,44.049,0,0,1-6.734-.776c-3.443-.788-8.154-1.708-11.348-3.456.229.082.458.164.694.261.514.211.605-.37.221-.556a18.154,18.154,0,0,0-2.71-.92.839.839,0,0,0-.091-.082c-.027-.02-.054,0-.036.021s.027.021.036.034a8.565,8.565,0,0,1-1.2-.452,10.767,10.767,0,0,0-3.632-1.31c-1.866-.137-3.641.2-5.51,0-1.419-.15-2.8-.165-4.236-.185-7.074-.084-14.229,1.062-18.385,5.809-4.629,5.274-6.889,11.954-9.05,17.991a66.765,66.765,0,0,1-5.078,11.392c-1.831,3.113-3.735,6.8-7.789,8.538-2.956,1.269-1.913,4.439-2.424,6.578-.861,3.559-1.776,7.1-2.508,10.672-.787,3.833-1.685,7.667-2.425,11.509a23.916,23.916,0,0,1-1.529,5.336,26.655,26.655,0,0,0-1.382,4.554c-.064.3,1.035.48,2.665.7,5.5.418,11.062.549,16.58.74a237.793,237.793,0,0,1,28.753,2.873C890.489,191.137,893.767,191.645,897.042,192.166Z"/></g></mask><linearGradient id="linear-gradient-4" x1="918.405" y1="153.861" x2="860.578" y2="143.804" xlink:href="#linear-gradient-3"/></defs><g class="cls-5"><g id="Capa_1" data-name="Capa 1"><path class="cls-6" d="M56.9,192.3c-.553,1.757,1.4,4.781,1.849,6.406.421,1.5.321,3.306,1.464,4.616,3.2-1.159,6.259-2.585,9.572-3.552,2.887-.844,5.783-1.7,8.708-2.5a5.769,5.769,0,0,0,.041-.686c.141.185.3.37.452.548,1.593-.432,3.19-.857,4.8-1.248.256-.061.518-.117.773-.178a.3.3,0,0,0,.041-.214c-.535-2.195-1.574-4.2-1.775-6.459a11.027,11.027,0,0,1,.032-2.024c.929,1.763,5.2,7.661,6.483,7.551.321-.027.622-.061.93-.1,7.526-1.516,15.222-2.641,22.827-3.842a237.5,237.5,0,0,1,28.756-2.873c5.509-.191,11.073-.322,16.577-.74,1.629-.22,2.718-.4,2.663-.7a27.184,27.184,0,0,0-1.377-4.554,23.77,23.77,0,0,1-1.533-5.336c-.741-3.842-1.642-7.676-2.424-11.509-.733-3.567-1.652-7.113-2.512-10.672-.517-2.139.535-5.309-2.425-6.578-4.045-1.742-5.958-5.425-7.789-8.538a66.275,66.275,0,0,1-5.073-11.392c-2.164-6.037-4.425-12.717-9.051-17.991-4.164-4.747-11.31-5.893-18.384-5.809-1.437.02-2.819.035-4.242.185-1.866.2-3.637-.137-5.513,0a10.8,10.8,0,0,0-3.623,1.31,9.013,9.013,0,0,1-1.2.452c.009-.013.022-.021.032-.034s-.01-.041-.032-.021-.069.055-.1.082a18.214,18.214,0,0,0-2.7.92c-.38.186-.3.767.223.556.229-.1.458-.179.7-.261-3.2,1.748-7.911,2.668-11.357,3.456a43.926,43.926,0,0,1-6.729.776,45.368,45.368,0,0,0-6.123,1.1c-.324.069-.576.309-.467.563a25.244,25.244,0,0,1,1.249,4.13,8.417,8.417,0,0,1,.151,1.564c-.04-.111-.156-.248-.475-.543-.952-.892-1.767-4.4-3.647-4.5a.667.667,0,0,0-.622.343c-.541,1.111-2.979,2.386-4.15,3.039a33.513,33.513,0,0,1-6.479,2.639c-4.114,1.257-8.273,2.415-12.455,3.534-2.283.609-4.557,1.041-6.895,1.481-1.446.267-3.052-.179-4.439.253a19.6,19.6,0,0,0-7.512,4.486c-.165.15-.37.651.128.625a18.249,18.249,0,0,1,5.454.41c-1.4,1.647-.608,4.136-.608,5.987,0,1.037,1.889,2.2,2.387,3.1.526.947,1.113,1.872,1.639,2.819.608,1.111.481,2.2.691,3.361.032.178.265.274.489.234,1.373-.247,2.594-.8,3.981-1.016,2.059-.322,4.209-.3,6.3-.548a28.224,28.224,0,0,0-4.347,1.94,19.119,19.119,0,0,0-3.728,1.983c-1.345,1.083,1.7,3.093,2.319,3.881,2.3,2.949,2.608,6.728,3.436,10.021.668,2.648,2.443,5.206,4.136,7.558,1.057,1.475,2.1,2.483,2.4,4.218.083.46-.2,1.55.261,1.942a1.184,1.184,0,0,0,1.1.246,20.8,20.8,0,0,1,3.473-.7,8.267,8.267,0,0,0-.719.59c-.769.72-2.095,1.29-2.53,2.188-.494,1.022,1.56,2.394,2.219,3.12,1.41,1.551,2.059,4.335,1.259,6.029-.44.926-1.126,1.55.086,2.25C55.437,190.541,57.422,190.658,56.9,192.3Z"/><path class="cls-7" d="M75.973,111.351l-.93.109c-.311.04-.622.055-.92.123-.608.117-1.221.22-1.817.358l-1.8.4a4.434,4.434,0,0,0-.864.226.4.4,0,0,0-.22.268c-.027.1.041.206.077.322l.49,1.365c.074.226.179.446.233.679l.183.693.183.692a5.734,5.734,0,0,1,.17.7A10.386,10.386,0,0,1,70.9,118.7a.1.1,0,0,1-.11.089.127.127,0,0,1-.114-.055l0-.007a4.445,4.445,0,0,0-.536-.59,3.339,3.339,0,0,1-.476-.671c-.265-.46-.489-.926-.736-1.386a10.224,10.224,0,0,0-.829-1.331,2.223,2.223,0,0,0-1.289-.926c-.056-.006-.165-.042-.179-.02-.087.007-.169.014-.188.041a.555.555,0,0,0-.22.2,3.262,3.262,0,0,1-.508.665,8.036,8.036,0,0,1-1.395,1.112,36.049,36.049,0,0,1-3.179,1.8c-.536.3-1.118.542-1.7.8s-1.171.466-1.771.693c-1.189.438-2.43.816-3.669,1.165l-7.413,2.113c-1.239.356-2.453.713-3.724,1.063-1.264.289-2.508.61-3.794.871l-1.926.384a11.248,11.248,0,0,1-1.994.289c-1.387.04-2.682-.193-3.789.294a16.454,16.454,0,0,0-3.312,1.523,20.134,20.134,0,0,0-2.829,2.024c-.215.178-.42.37-.636.555l-.155.143-.06.048c-.022.028-.059.063-.059.076a.389.389,0,0,0-.06.193c0,.02,0-.015-.041-.028-.009-.014-.032,0,.078-.006l.494-.014c.335-.007.659-.022,1-.022a19.4,19.4,0,0,1,4.008.446c.178.035.279.179.234.309l-.019.034-.023.042c-.133.213-.284.418-.407.637-.078.241-.178.467-.238.707-.032.24-.083.487-.105.734l-.014.747c.023.5.064,1.008.119,1.523l.078.769.019.4.008.192,0,.1v.047c0,.008,0-.073,0-.034l.009.048a2.313,2.313,0,0,0,.091.371c.055.089.11.185.161.275a6.115,6.115,0,0,0,.526.617c.38.4.832.789,1.231,1.241a10.768,10.768,0,0,1,.914,1.434l.824,1.406.2.357.056.082a.738.738,0,0,1,.05.123l.073.178a3.551,3.551,0,0,1,.27.755c.054.268.123.548.151.809l.083.768.1.754.005.049h0c.024.062-.022-.075-.018-.055l0,.006.013.028a.631.631,0,0,0,.042.075.061.061,0,0,0-.042-.061c-.018,0,0-.006-.005-.006s0,0,.029,0l.247-.056c.672-.137,1.257-.322,1.9-.507a14.73,14.73,0,0,1,2.031-.466c.677-.077,1.346-.172,2.045-.213l2.06-.138c.681-.034,1.34-.109,2.012-.163l.12.548-.316.075-.357.138c-.237.081-.476.2-.718.3-.472.213-.943.439-1.414.672l-1.419.713-1.44.659c-.494.212-.93.459-1.378.7-.206.123-.4.267-.6.4a1.433,1.433,0,0,0-.261.191c-.082.082-.183.179-.174.227a1.059,1.059,0,0,0,.252.993,6.873,6.873,0,0,0,.906,1.016l1.066.988a2.83,2.83,0,0,1,.48.576l.38.57a8.269,8.269,0,0,1,.668,1.193,9.8,9.8,0,0,1,.526,1.227,19.93,19.93,0,0,1,.741,2.5c.21.836.372,1.679.55,2.516.086.412.178.83.274,1.248l.141.611.188.623a14.021,14.021,0,0,0,1,2.388,26.109,26.109,0,0,0,1.374,2.3c.494.754,1.024,1.5,1.555,2.242s1.139,1.455,1.615,2.25a4.661,4.661,0,0,1,.768,2.537,2.571,2.571,0,0,0,.1,1.181.654.654,0,0,0,.2.192,1.363,1.363,0,0,0,.279.13,1.015,1.015,0,0,0,.649-.069,13.6,13.6,0,0,1,1.647-.376l1.666-.262a.227.227,0,0,1,.266.13.151.151,0,0,1-.059.152h-.005c-.494.391-.952.822-1.523,1.207A7.118,7.118,0,0,0,50.789,178c-.083.1-.157.241-.216.33a1.48,1.48,0,0,0-.058.2c0,.056-.005.1,0,.159a1.487,1.487,0,0,0,.324.719,9.431,9.431,0,0,0,1.286,1.311,5.993,5.993,0,0,1,.7.678,7.115,7.115,0,0,1,.526.734,6.811,6.811,0,0,1,.7,1.6,6.553,6.553,0,0,1,.284,1.673,4.277,4.277,0,0,1-.032.844,3.109,3.109,0,0,1-.192.83c-.142.562-.576,1.043-.719,1.564a.786.786,0,0,0,.252.706c.125.089.252.185.38.268.151.088.3.164.454.239a20.638,20.638,0,0,1,1.893.872,1.411,1.411,0,0,1,.627.706,1.456,1.456,0,0,1-.022.85,3.183,3.183,0,0,0-.005,1.633,9.38,9.38,0,0,0,.5,1.612c.4,1.063.948,2.1,1.272,3.175-.343-1.076-.911-2.1-1.341-3.162a11.031,11.031,0,0,1-.54-1.61,3.386,3.386,0,0,1-.027-1.667,1.136,1.136,0,0,0-.581-1.441c-.558-.336-1.258-.541-1.894-.843-.161-.069-.312-.152-.462-.234s-.289-.192-.425-.3a.918.918,0,0,1-.321-.843c.151-.57.572-1.049.691-1.585a2.933,2.933,0,0,0,.165-.794,4.076,4.076,0,0,0,.013-.818,6.169,6.169,0,0,0-.306-1.618,6.61,6.61,0,0,0-.7-1.53,6.048,6.048,0,0,0-.536-.72,6.505,6.505,0,0,0-.659-.638,9.98,9.98,0,0,1-1.345-1.351,1.812,1.812,0,0,1-.38-.844,1.143,1.143,0,0,1,.01-.254,2.123,2.123,0,0,1,.059-.2,3,3,0,0,1,.26-.418,7.642,7.642,0,0,1,1.533-1.256c.526-.357.984-.788,1.51-1.207l.207.288a22.244,22.244,0,0,0-3.236.638,3.189,3.189,0,0,1-.448.11,1.4,1.4,0,0,1-.536-.041,1.676,1.676,0,0,1-.444-.2,1.057,1.057,0,0,1-.3-.308,2.618,2.618,0,0,1-.15-1.338,3.124,3.124,0,0,0-.193-1.207,6.085,6.085,0,0,0-.548-1.16c-.459-.753-1.081-1.473-1.616-2.215s-1.079-1.495-1.583-2.256-.975-1.536-1.409-2.332a15.1,15.1,0,0,1-1.047-2.443l-.189-.623-.151-.631q-.151-.628-.284-1.255c-.183-.837-.351-1.673-.566-2.5a18.8,18.8,0,0,0-.747-2.455,10.193,10.193,0,0,0-.512-1.186,8.42,8.42,0,0,0-.65-1.146l-.384-.562a2.34,2.34,0,0,0-.416-.5l-1.076-.98a7.281,7.281,0,0,1-.983-1.092,1.39,1.39,0,0,1-.275-1.432,7.236,7.236,0,0,1,2.659-1.757l1.446-.665,1.4-.707c.467-.24.947-.472,1.437-.7.251-.1.489-.218.755-.322l.4-.151c.161-.04.329-.082.489-.115a.4.4,0,0,1,.467.184c.059.151-.05.309-.252.349a.134.134,0,0,1-.059.008l-.036.007c-.687.061-1.382.144-2.064.178l-2.027.144c-.664.034-1.345.138-2.017.219a13.421,13.421,0,0,0-1.881.44c-.636.184-1.308.4-1.954.528l-.247.061a1.21,1.21,0,0,1-.476,0,.984.984,0,0,1-.238-.081.93.93,0,0,1-.224-.193.568.568,0,0,1-.055-.1l-.014-.02-.005-.015c.005.015-.04-.123-.027-.068v-.007l-.005-.048-.095-.782-.073-.761c-.033-.254-.087-.48-.124-.714a3.622,3.622,0,0,0-.261-.733l-.073-.185c0-.02-.032-.09-.027-.069l-.051-.082-.2-.357-.809-1.413a10.224,10.224,0,0,0-.843-1.343c-.348-.405-.8-.8-1.208-1.228a6.518,6.518,0,0,1-.577-.686c-.077-.138-.155-.289-.223-.433a2.391,2.391,0,0,1-.091-.384l-.01-.048-.009-.082,0-.1-.005-.184-.013-.379-.069-.767q-.081-.762-.109-1.543l.018-.789c.022-.268.077-.535.118-.8.069-.267.18-.527.275-.788.137-.247.316-.494.476-.741l.187.378a18.437,18.437,0,0,0-3.8-.446c-.326,0-.659.014-.985.02l-.5.014a1.083,1.083,0,0,1-.4-.055.444.444,0,0,1-.3-.329.713.713,0,0,1,.152-.514.779.779,0,0,1,.073-.09c.059-.061.064-.054.1-.09l.165-.143c.219-.185.43-.384.654-.57a21.649,21.649,0,0,1,2.92-2.064c.521-.316,1.088-.589,1.651-.864a18.731,18.731,0,0,1,1.789-.7,6.365,6.365,0,0,1,.993-.274,8.785,8.785,0,0,1,1.044-.075c.681,0,1.35.048,1.967.033A10.352,10.352,0,0,0,37,124.294l1.913-.364c1.276-.254,2.53-.584,3.793-.865l3.7-1.036,7.431-2.085c1.245-.343,2.457-.706,3.642-1.137.585-.222,1.19-.419,1.743-.68.568-.241,1.135-.479,1.679-.768a36.141,36.141,0,0,0,3.152-1.769,8.445,8.445,0,0,0,1.337-1.036,2.922,2.922,0,0,0,.485-.618.812.812,0,0,1,.43-.342.694.694,0,0,1,.278-.062.978.978,0,0,1,.3.026,1.891,1.891,0,0,1,.906.441,3.343,3.343,0,0,1,.585.63A9.21,9.21,0,0,1,69.2,116c.233.46.453.933.7,1.387a3.44,3.44,0,0,0,.435.644,3.932,3.932,0,0,1,.559.644l-.229.029a9.718,9.718,0,0,0-.114-1.4,5.347,5.347,0,0,0-.152-.686l-.169-.692-.169-.693c-.05-.225-.151-.453-.22-.678l-.462-1.365a.8.8,0,0,1-.073-.363.51.51,0,0,1,.265-.317,4.8,4.8,0,0,1,.906-.225l1.808-.385c.6-.129,1.217-.226,1.825-.336.3-.063.618-.076.929-.116Z"/><g class="cls-8"><path class="cls-9" d="M159.708,181.755a23.77,23.77,0,0,1-1.533-5.336c-.741-3.842-1.642-7.676-2.424-11.509-.733-3.567-1.652-7.113-2.512-10.672-.517-2.139.535-5.309-2.425-6.578-4.045-1.742-5.958-5.425-7.789-8.538a66.275,66.275,0,0,1-5.073-11.392c-2.164-6.037-4.425-12.717-9.051-17.991-4.164-4.747-11.31-5.893-18.384-5.809-1.437.02-2.819.035-4.242.185-1.866.2-3.637-.137-5.513,0a10.8,10.8,0,0,0-3.623,1.31,9.013,9.013,0,0,1-1.2.452c.009-.013.022-.021.032-.034s-.01-.041-.032-.021-.069.055-.1.082a18.214,18.214,0,0,0-2.7.92c-.38.186-.3.767.223.556.229-.1.458-.179.7-.261-3.2,1.748-7.911,2.668-11.357,3.456a43.926,43.926,0,0,1-6.729.776,27.152,27.152,0,0,0-4.21.685c7.975,27.154,17.908,53.937,27.686,80.755,4.539-.762,9.105-1.454,13.64-2.169a237.5,237.5,0,0,1,28.756-2.873c5.509-.191,11.073-.322,16.577-.74,1.629-.22,2.718-.4,2.663-.7A27.184,27.184,0,0,0,159.708,181.755Z"/></g><path class="cls-10" d="M117.806,173.593l-3.436,4.356s-1.029.979,6.255,1.721,35.761,3.039,40.484,6.639l-5.716-24.876Z"/><path class="cls-11" d="M115.953,178.943c10.519-3.545,21.235-6.941,32.421-9.041,2.865-.541,5.743-1.008,8.634-1.445l-1.615-7.024-37.587,12.16-3.436,4.356S113.884,178.407,115.953,178.943Z"/><path class="cls-6" d="M943.419,192.3c.558,1.757-1.391,4.781-1.849,6.406-.41,1.5-.319,3.306-1.463,4.616-3.194-1.159-6.26-2.585-9.572-3.552-2.884-.844-5.783-1.7-8.711-2.5-.02-.227-.037-.453-.037-.686-.147.185-.293.37-.45.548-1.591-.432-3.191-.857-4.8-1.248-.256-.061-.512-.117-.767-.178a.3.3,0,0,1-.037-.214c.531-2.195,1.573-4.2,1.775-6.459a10.684,10.684,0,0,0-.037-2.024c-.924,1.763-5.2,7.661-6.479,7.551-.319-.027-.622-.061-.934-.1-7.522-1.516-15.217-2.641-22.822-3.842a237.793,237.793,0,0,0-28.753-2.873c-5.518-.191-11.082-.322-16.58-.74-1.63-.22-2.729-.4-2.665-.7a26.655,26.655,0,0,1,1.382-4.554,23.916,23.916,0,0,0,1.529-5.336c.74-3.842,1.638-7.676,2.425-11.509.732-3.567,1.647-7.113,2.508-10.672.511-2.139-.532-5.309,2.424-6.578,4.054-1.742,5.958-5.425,7.789-8.538a66.765,66.765,0,0,0,5.078-11.392c2.161-6.037,4.421-12.717,9.05-17.991,4.156-4.747,11.311-5.893,18.385-5.809,1.435.02,2.817.035,4.236.185,1.869.2,3.644-.137,5.51,0a10.767,10.767,0,0,1,3.632,1.31,8.565,8.565,0,0,0,1.2.452c-.009-.013-.027-.021-.036-.034s.009-.041.036-.021a.839.839,0,0,1,.091.082,18.154,18.154,0,0,1,2.71.92c.384.186.293.767-.221.556-.236-.1-.465-.179-.694-.261,3.194,1.748,7.9,2.668,11.348,3.456a44.049,44.049,0,0,0,6.734.776,44.807,44.807,0,0,1,6.113,1.1c.329.069.585.309.477.563a24.294,24.294,0,0,0-1.247,4.13,8.972,8.972,0,0,0-.165,1.564,2.247,2.247,0,0,1,.477-.543c.962-.892,1.776-4.4,3.652-4.5a.653.653,0,0,1,.621.343c.542,1.111,2.983,2.386,4.156,3.039a33.359,33.359,0,0,0,6.479,2.639c4.108,1.257,8.271,2.415,12.453,3.534,2.28.609,4.559,1.041,6.892,1.481,1.446.267,3.056-.179,4.446.253a19.632,19.632,0,0,1,7.5,4.486c.165.15.376.651-.128.625a18.253,18.253,0,0,0-5.453.41c1.4,1.647.6,4.136.6,5.987,0,1.037-1.885,2.2-2.39,3.1-.521.947-1.106,1.872-1.627,2.819-.615,1.111-.487,2.2-.7,3.361-.027.178-.266.274-.485.234-1.374-.247-2.6-.8-3.98-1.016-2.061-.322-4.21-.3-6.307-.548a28.1,28.1,0,0,1,4.347,1.94,19.123,19.123,0,0,1,3.735,1.983c1.335,1.083-1.7,3.093-2.316,3.881-2.307,2.949-2.609,6.728-3.44,10.021-.669,2.648-2.444,5.206-4.138,7.558-1.06,1.475-2.105,2.483-2.4,4.218-.083.46.2,1.55-.258,1.942a1.192,1.192,0,0,1-1.106.246,20.466,20.466,0,0,0-3.467-.7,7.253,7.253,0,0,1,.713.59c.777.72,2.105,1.29,2.535,2.188.494,1.022-1.557,2.394-2.225,3.12-1.4,1.551-2.058,4.335-1.254,6.029.45.926,1.126,1.55-.082,2.25C944.885,190.541,942.9,190.658,943.419,192.3Z"/><g class="cls-12"><path class="cls-13" d="M897.042,192.166c2.892-8.3,5.967-16.557,9.481-24.718,7.807-18.162,17.084-35.92,26.537-53.621-1.462.7-2.2,3.538-3.056,4.334a2.247,2.247,0,0,0-.477.543,8.972,8.972,0,0,1,.165-1.564,24.294,24.294,0,0,1,1.247-4.13c.108-.254-.148-.494-.477-.563a44.807,44.807,0,0,0-6.113-1.1,44.049,44.049,0,0,1-6.734-.776c-3.443-.788-8.154-1.708-11.348-3.456.229.082.458.164.694.261.514.211.605-.37.221-.556a18.154,18.154,0,0,0-2.71-.92.839.839,0,0,0-.091-.082c-.027-.02-.054,0-.036.021s.027.021.036.034a8.565,8.565,0,0,1-1.2-.452,10.767,10.767,0,0,0-3.632-1.31c-1.866-.137-3.641.2-5.51,0-1.419-.15-2.8-.165-4.236-.185-7.074-.084-14.229,1.062-18.385,5.809-4.629,5.274-6.889,11.954-9.05,17.991a66.765,66.765,0,0,1-5.078,11.392c-1.831,3.113-3.735,6.8-7.789,8.538-2.956,1.269-1.913,4.439-2.424,6.578-.861,3.559-1.776,7.1-2.508,10.672-.787,3.833-1.685,7.667-2.425,11.509a23.916,23.916,0,0,1-1.529,5.336,26.655,26.655,0,0,0-1.382,4.554c-.064.3,1.035.48,2.665.7,5.5.418,11.062.549,16.58.74a237.793,237.793,0,0,1,28.753,2.873C890.489,191.137,893.767,191.645,897.042,192.166Z"/></g><path class="cls-10" d="M882.511,173.593l3.44,4.356s1.025.979-6.26,1.721-35.761,3.039-40.484,6.639l5.719-24.876Z"/><path class="cls-11" d="M868.729,174.217c5.38,1.482,10.652,2.71,15.7,4.7,2-.521,1.52-.973,1.52-.973l-3.44-4.356-37.585-12.16-1.947,8.5A132.353,132.353,0,0,1,868.729,174.217Z"/><path class="cls-14" d="M87.8,72.613a13.239,13.239,0,0,0-1.358.609l3.787-1.577C89.424,71.967,88.6,72.283,87.8,72.613Z"/><path class="cls-15" d="M886.307,177.949l3.735-13.683,24.826-91.009c-43.906-19.423-330.209-32.2-414.528-32.2S129.725,53.834,85.805,73.257l24.836,91.009,3.729,13.683c34.252-17.477,311.3-29.28,385.97-29.28S852.057,160.472,886.307,177.949Z"/><path class="cls-7" d="M110.641,164.567a.39.39,0,0,1-.39-.24L85.415,73.32A.277.277,0,0,1,85.6,73C131.239,52.811,419,40.761,500.34,40.761S869.443,52.811,915.07,73c.2.082.255.268.145.4a.483.483,0,0,1-.548.111C869.15,53.38,581.543,41.358,500.34,41.358c-81.058,0-368.542,11.974-414.087,32.05l24.776,90.8c.041.164-.09.322-.31.357C110.692,164.561,110.663,164.567,110.641,164.567Z"/><path class="cls-16" d="M184.474,139.346a23.132,23.132,0,0,1-5.187,5.556,37.742,37.742,0,0,1-6.871,4.253,46.488,46.488,0,0,1-7.679,2.9,45.55,45.55,0,0,1-7.619,1.482,33.28,33.28,0,0,1-13.257-1.181,31.458,31.458,0,0,1-11.006-5.884,32.69,32.69,0,0,1-7.915-9.744,34.512,34.512,0,0,1-3.893-12.717,44.2,44.2,0,0,1,.073-10.524,43.666,43.666,0,0,1,2.465-9.974,39.97,39.97,0,0,1,4.706-8.885,35.685,35.685,0,0,1,15.617-12.511,36.855,36.855,0,0,1,10.576-2.606q2.136-.216,4.588-.287a48.629,48.629,0,0,1,4.9.106,34.584,34.584,0,0,1,4.807.688,22.009,22.009,0,0,1,4.345,1.4c.155,7.5.233,11.248.394,18.747a25.322,25.322,0,0,0-5.841-.837,46.21,46.21,0,0,0-5.792.2,22.331,22.331,0,0,0-7.265,1.934A17.722,17.722,0,0,0,149,105.505a16.2,16.2,0,0,0-3.452,5.869,17.24,17.24,0,0,0-.72,7.408,17.52,17.52,0,0,0,1.2,4.821,12.7,12.7,0,0,0,2.52,3.97,10.791,10.791,0,0,0,3.784,2.587,10.122,10.122,0,0,0,4.939.628,16.248,16.248,0,0,0,3.8-.875,8.5,8.5,0,0,0,3.24-2c-.073-1.527-.109-2.291-.181-3.819-4.718.39-7.077.588-11.8.993-.363-5.867-.545-8.8-.907-14.668q7.315-1,14.642-1.887t14.743-1.884Q182.644,123,184.474,139.346Z"/><path class="cls-16" d="M250.259,139.59c-9.594,1.976-14.386,2.981-23.958,5.023-1.532-4.314-2.3-6.471-3.84-10.784-4.461.369-6.691.558-11.151.942-.6,4.493-.9,6.739-1.489,11.233-10.029-.113-15.046-.151-25.084-.192q6.692-33.389,13.672-66.717c11-1.522,16.506-2.262,27.521-3.7Q238.231,107.442,250.259,139.59Zm-30.8-20.542c-2.059-6.666-3.092-10-5.166-16.661-.888,6.913-1.328,10.37-2.2,17.283C215.035,119.418,216.509,119.294,219.456,119.048Z"/><path class="cls-16" d="M323.259,67.62q-.38,36-.682,72c-8.882.875-13.322,1.327-22.2,2.259q-1.052-18.915-2.1-37.83-4.137,15.551-8.22,31.115c-3.441.219-5.162.33-8.6.557q-4.76-13.377-9.582-26.732,1.03,15.827,2.063,31.653c-9,.889-13.5,1.349-22.5,2.3q-2.033-33.767-4.05-67.535c10.194-1.152,15.293-1.71,25.5-2.789q6.147,15.824,12.235,31.669,5.607-17.589,11.336-35.138C307.178,68.494,312.537,68.189,323.259,67.62Z"/><path class="cls-16" d="M374.12,66.066q-.12,4.609-.193,9.119t-.29,9.123c-8.392.76-12.586,1.152-20.972,1.962-.087,2.473-.13,3.71-.216,6.184,5.9-.267,8.845-.394,14.743-.637-.186,6.083-.279,9.124-.461,15.207-5.9.44-8.855.666-14.757,1.131-.066,2.865-.1,4.3-.166,7.162,4.876-.223,7.314-.33,12.191-.536,3.461-.146,5.191-.217,8.652-.355q-.081,5.392-.187,10.711t-.137,10.662q-21.037,1.368-42.062,2.92-1.054-35.286-2.083-70.573Q351.147,67,374.12,66.066Z"/><path class="cls-16" d="M426.6,117.736a17.654,17.654,0,0,1-.41,4.307,16.862,16.862,0,0,1-1.386,3.915,16.13,16.13,0,0,1-2.267,3.376A15.093,15.093,0,0,1,411.5,134.5a15.4,15.4,0,0,1-4.208-.439,15.97,15.97,0,0,1-3.777-1.464,15.031,15.031,0,0,1-3.221-2.347,15.273,15.273,0,0,1-2.5-3.1,16.388,16.388,0,0,1-1.668-3.7,15.737,15.737,0,0,1-.692-4.164,17.014,17.014,0,0,1,.377-4.188,16.8,16.8,0,0,1,1.361-3.9,16.545,16.545,0,0,1,2.242-3.4,15.425,15.425,0,0,1,3.009-2.716,14.861,14.861,0,0,1,3.657-1.826,14.285,14.285,0,0,1,4.2-.737,18.423,18.423,0,0,1,6.554.918,13.712,13.712,0,0,1,8.461,7.872A17.491,17.491,0,0,1,426.6,117.736Zm-10.885.92a6.87,6.87,0,0,0-.364-2.035,5.616,5.616,0,0,0-.946-1.736,4.6,4.6,0,0,0-1.5-1.206,4.114,4.114,0,0,0-2.018-.42,4.923,4.923,0,0,0-2.053.476,4.715,4.715,0,0,0-1.527,1.185,4.951,4.951,0,0,0-.944,1.717,6.043,6.043,0,0,0-.282,2.054,7.449,7.449,0,0,0,.357,2.046,6.1,6.1,0,0,0,.939,1.832,4.681,4.681,0,0,0,1.5,1.3,3.9,3.9,0,0,0,2.037.455,4.644,4.644,0,0,0,2.058-.512,4.7,4.7,0,0,0,1.523-1.267,5.62,5.62,0,0,0,.932-1.8A6.377,6.377,0,0,0,415.711,118.656Z"/><path class="cls-16" d="M451.258,99.2q-.108,2.3-.192,4.556t-.24,4.557c-4.172.289-6.258.437-10.429.738l.064,3.083c3.62-.075,5.43-.109,9.051-.174-.142,3.037-.213,4.556-.354,7.594-3.435.161-5.151.243-8.585.411.139,5.794.208,8.692.347,14.486-4.945.2-7.417.3-12.36.52q-.035-17.651-.061-35.3C437.6,99.454,442.154,99.36,451.258,99.2Z"/><path class="cls-16" d="M520.7,93.631c-.01,1.921-.009,3.835-.013,5.727s-.121,3.814-.308,5.727a43.553,43.553,0,0,1-2.677,11.572,31.96,31.96,0,0,1-5.721,9.567,26.363,26.363,0,0,1-8.728,6.524,27.754,27.754,0,0,1-11.771,2.45,35.207,35.207,0,0,1-5.4-.4,37.681,37.681,0,0,1-5.584-1.274,34.443,34.443,0,0,1-5.305-2.126,22.234,22.234,0,0,1-4.512-2.959c1.116-8.12,1.678-12.18,2.809-20.3a25.573,25.573,0,0,0,6.493,4.462,17.36,17.36,0,0,0,7.735,1.674,11.876,11.876,0,0,0,4.568-.813,8.517,8.517,0,0,0,3.087-2.171,10.4,10.4,0,0,0,1.929-3.215,18.644,18.644,0,0,0,1.018-3.92,35.98,35.98,0,0,0,.377-4.285q.066-2.2.057-4.357a150.579,150.579,0,0,0-.857-15.489q-.827-7.706-1.461-15.437c9.131-.63,13.7-.93,22.837-1.5A290.471,290.471,0,0,1,520.7,93.631Z"/><path class="cls-16" d="M572.43,63.867q-.376,4.6-.7,9.094t-.795,9.093c-8.422.293-12.632.453-21.049.8-.225,2.465-.336,3.7-.56,6.162,5.9.061,8.854.1,14.757.182-.523,6.063-.784,9.094-1.3,15.158-5.92.112-8.879.174-14.8.311-.226,2.857-.338,4.285-.563,7.142,4.881.048,7.321.076,12.2.14,3.463.046,5.195.071,8.659.125q-.38,5.381-.781,10.685t-.727,10.637q-21.081.2-42.158.585.9-35.291,1.831-70.58Q549.44,63.525,572.43,63.867Z"/><path class="cls-16" d="M623.792,109.656a27.622,27.622,0,0,1-2.7,11.646,23.544,23.544,0,0,1-6.622,8.152,27.5,27.5,0,0,1-9.581,4.731,39.719,39.719,0,0,1-11.651,1.378,24.523,24.523,0,0,1-5.24-.752q-2.847-.7-5.762-1.71t-5.611-2.163q-2.7-1.15-4.786-2.164c1-8.052,1.5-12.077,2.5-20.128a35.081,35.081,0,0,0,9.208,3.966,40.837,40.837,0,0,0,9.98,1.512q.934.021,2.264-.021a10.723,10.723,0,0,0,2.543-.38,5.466,5.466,0,0,0,2.068-1.051,2.654,2.654,0,0,0,.89-2.083,2.309,2.309,0,0,0-.552-1.606,4.426,4.426,0,0,0-1.5-1.114,9.471,9.471,0,0,0-2.1-.687q-1.178-.249-2.309-.373t-2.116-.146l-1.577-.035A19.751,19.751,0,0,1,583.458,105a17.632,17.632,0,0,1-5.89-4.2,18.606,18.606,0,0,1-3.768-6.285,21.551,21.551,0,0,1-1.254-7.83,22.23,22.23,0,0,1,2.534-10.311,24.053,24.053,0,0,1,6.461-7.666,28.586,28.586,0,0,1,9.2-4.732A33.094,33.094,0,0,1,601.4,62.507q2.444.062,5.034.3a49.527,49.527,0,0,1,10.127,2.017,29.965,29.965,0,0,1,4.586,1.85c-1,7.923-1.5,11.885-2.485,19.808a60.373,60.373,0,0,0-7.01-2.087,35.494,35.494,0,0,0-7.2-.951q-.645-.016-1.662-.018c-.679,0-1.39.031-2.137.094a22.133,22.133,0,0,0-2.265.312,9.557,9.557,0,0,0-2.049.612,3.884,3.884,0,0,0-1.463,1.068,2.316,2.316,0,0,0-.533,1.6,2.343,2.343,0,0,0,.777,1.756,5.4,5.4,0,0,0,1.957,1.074,14.071,14.071,0,0,0,2.661.578q1.457.183,2.892.244t2.672.068a18.259,18.259,0,0,1,2.028.127,22.555,22.555,0,0,1,7.08,1.86,16.449,16.449,0,0,1,5.255,3.926,15.871,15.871,0,0,1,3.186,5.7A21.227,21.227,0,0,1,623.792,109.656Z"/><path class="cls-16" d="M679.85,67.857c-.587,8.283-.879,12.425-1.463,20.709-5.917-.041-8.875-.055-14.791-.071q-2.859,23.1-5.682,46.208c-8.272.089-12.407.146-20.675.284l1.743-46.373c-5.916.1-8.873.162-14.787.29.527-9.23.792-13.845,1.321-23.074Q652.692,66.682,679.85,67.857Z"/><path class="cls-16" d="M729.808,69.953q-.577,4.575-1.1,9.055t-1.2,9.049c-8.432-.078-12.648-.105-21.077-.132l-.83,6.131c5.9.321,8.846.487,14.743.832-.79,6.034-1.184,9.051-1.97,15.085-5.922-.148-8.883-.216-14.8-.34-.351,2.844-.526,4.266-.877,7.11,4.877.263,7.315.4,12.191.678,3.46.2,5.19.3,8.65.506q-.615,5.358-1.251,10.64t-1.195,10.6q-21.081-.729-42.165-1.272,2.456-35.217,4.936-70.431Q706.844,68.6,729.808,69.953Z"/><path class="cls-16" d="M788.053,97.436a33,33,0,0,1-1.2,6.854,20.075,20.075,0,0,1-6.592,10.026,33.316,33.316,0,0,1-5.775,3.788c4.065,8.627,6.083,12.943,10.092,21.581-8.928,1.035-13.388,1.567-22.3,2.66-2.414-8.535-3.63-12.8-6.08-21.332-2.441-.09-3.662-.134-6.1-.22-.9,8.1-1.352,12.155-2.249,20.258-8.4-.564-12.6-.833-21-1.346q.924-11.126,1.823-22.154c.6-7.352,1.261-14.767,1.878-22.15.311-3.722.589-7.45.882-11.127s.652-7.382,1.082-11.115a64.036,64.036,0,0,1,13.883-2.528q3.442-.24,6.967-.175t7.21.321a38.932,38.932,0,0,1,10.872,2.317A28.547,28.547,0,0,1,780.48,78.4a23.15,23.15,0,0,1,5.948,8.16A22.354,22.354,0,0,1,788.053,97.436Zm-22.269-.088a11.859,11.859,0,0,0-.3-3.8,8.329,8.329,0,0,0-1.474-3.074,7.736,7.736,0,0,0-2.638-2.148,9.863,9.863,0,0,0-3.842-.978,15.024,15.024,0,0,0-1.943-.011,13.5,13.5,0,0,0-1.859.242c-.81,7.245-1.214,10.868-2.02,18.114l1.183.08a18.2,18.2,0,0,0,4.353-.242,13.01,13.01,0,0,0,4.063-1.385,9.287,9.287,0,0,0,3.067-2.678A7.719,7.719,0,0,0,765.784,97.348Z"/><path class="cls-17" d="M834.76,163.513c4.568,0,13.194-3.694,16.028-4.907l.349-.15.022.015.486-.219c.752-.339,18.477-8.372,22.93-14.825,2.085-3.024,2.453-7.461,1.023-12.217,1.472-3.746,3.407-14.865,3.611-17.8.788-11.352,1.015-24.146-6.335-32.321-4.808-5.348-12.153-8.132-22.456-8.512-.414-.015-.82-.023-1.223-.023-17.205,0-28.194,13.863-31.792,40.1-4.507,2.882-7.234,6.742-7.506,10.644-.532,7.649,7.914,24.392,8.641,25.816,2.821,9.018,8.1,13.858,15.688,14.386.171.011.348.017.533.017Z"/><path class="cls-18" d="M849.2,73.5c.391,0,.788.008,1.188.023,28.944,1.066,29.144,21.714,27.885,39.825-.21,3.038-2.251,14.6-3.671,17.819,1.332,4.2,1.352,8.612-.8,11.728-4.355,6.311-22.541,14.5-22.541,14.5h0c-.183,0-11.3,5.179-16.5,5.179-.163,0-.319,0-.469-.016-7.961-.553-12.491-6.116-14.877-13.8,0,0-9.108-17.743-8.577-25.393.281-4.031,3.416-7.676,7.44-10.146C820.393,97.345,826.829,73.5,849.2,73.5m0-1.884c-17.65,0-28.934,13.991-32.668,40.483-4.541,3.02-7.285,7.039-7.57,11.134-.542,7.788,7.762,24.38,8.706,26.239,2.954,9.376,8.5,14.412,16.5,14.967.192.014.393.021.6.021,4.231,0,11.279-2.795,16.268-4.928l.03.022.974-.439c.762-.343,18.718-8.482,23.319-15.149,2.2-3.195,2.644-7.8,1.239-12.715,1.513-4.153,3.352-14.794,3.559-17.772.8-11.544,1.022-24.567-6.574-33.016-4.988-5.548-12.55-8.434-23.122-8.824q-.637-.022-1.258-.023Z"/><g class="cls-19"><path class="cls-17" d="M822.121,113.852a53.934,53.934,0,0,0-6.576,1.346,21.2,21.2,0,0,1,2.732-1.984c.142-1.065.28-2.171.418-3.307A11.532,11.532,0,0,0,822.121,113.852Z"/></g><g class="cls-19"><path class="cls-17" d="M840.913,146.471a4.138,4.138,0,0,1,3.519.518,3.165,3.165,0,0,1,1.12,1.583c.217.835.7,1.689.1,2.468-2.927,3.872-6.445,7.188-8.38,11.249a12.1,12.1,0,0,1-2.983.266,14.781,14.781,0,0,1-7.2-2.329C830.328,154.266,833.836,147.7,840.913,146.471Z"/></g><g class="cls-19"><path class="cls-17" d="M863.658,128.087c2.021-5.466,4.984-10.73,6.062-16.4a106.853,106.853,0,0,0,1.992-30.026c7.55,7.84,7.362,20.088,6.556,31.681-.21,3.038-2.251,14.6-3.671,17.819,1.332,4.2,1.352,8.612-.8,11.728-1.954,2.832-6.694,6.043-11.326,8.722C864.363,148.675,877.307,133.236,863.658,128.087Z"/></g><path class="cls-20" d="M834.833,154.262c17.2,0,31.93-14.941,31.93-18.444a1.123,1.123,0,0,0-1.173-1.175,2.63,2.63,0,0,0-1.036.263c-8.655,3.8-16.319,5.722-22.778,5.722h0c-14.775,0-19.858-9.935-22.3-14.708-.953-1.863-1.431-2.8-2.321-2.8a1.067,1.067,0,0,0-.426.089c-1.207.528-1.545,2.359-1.03,5.6,1.3,8.183,8.182,24.533,16.164,25.308.98.095,1.981.143,2.972.143Z"/><path class="cls-18" d="M817.152,123.9c1.795,0,4.784,17.507,24.621,17.507,6.008,0,13.558-1.6,23.092-5.787a1.935,1.935,0,0,1,.725-.2c3.024,0-11.638,18.067-30.757,18.067-.957,0-1.921-.045-2.9-.14-9.641-.936-18.429-27.882-14.9-29.424a.289.289,0,0,1,.114-.025m0-1.551a1.825,1.825,0,0,0-.735.154c-2.1.918-1.856,4.11-1.488,6.432,1.368,8.621,8.364,25.135,16.856,25.959,1,.1,2.031.147,3.048.147,16.666,0,29.469-12.749,32.006-17.143.477-.826,1.042-2.046.438-3.09a1.912,1.912,0,0,0-1.687-.938,3.381,3.381,0,0,0-1.348.328c-8.556,3.754-16.116,5.657-22.469,5.657-14.3,0-19.236-9.649-21.609-14.285-1.027-2.009-1.647-3.221-3.012-3.221Z"/><path class="cls-20" d="M823.586,173.6c2.922,0,5.142-1.128,6.25-3.177a35.13,35.13,0,0,0,2.807-6.46q.247-.695.5-1.387a23.324,23.324,0,0,1,2.848-5.806,12.506,12.506,0,0,1,1.892-2.018c.407-.363.834-.677,1.211-.954.685-.5,1.1-.806,1.226-1.239a2.348,2.348,0,0,0-.158-1.945c-.665-1.193-2.259-1.772-3.478-2.047a13.749,13.749,0,0,0-3.011-.334h-.138c-.43-1.023-1.782-1.533-4.035-1.533a23.343,23.343,0,0,0-2.357.136.8.8,0,0,0-.111.02c-3.622.923-6.112,7.126-6.789,9.006a20.964,20.964,0,0,1-2.428,5.032l-.486.888c-1.954,3.573-3.8,6.946-.614,9.56A11.439,11.439,0,0,0,823.586,173.6Z"/><path class="cls-18" d="M829.5,147.477c3.886,0,3.329,1.506,3.421,1.583h0a2.722,2.722,0,0,1,.752-.05,13,13,0,0,1,2.84.315c1.809.408,3.633,1.359,3.063,3.015-.1.323-1.241.969-2.187,1.815a13.6,13.6,0,0,0-2.022,2.154,23.836,23.836,0,0,0-2.953,6,43.877,43.877,0,0,1-3.261,7.746c-1.071,1.978-3.262,2.77-5.568,2.77a10.608,10.608,0,0,1-6.378-2.082c-2.9-2.378-.9-5.433,1.27-9.444a21.618,21.618,0,0,0,2.5-5.173c.719-2,3.084-7.711,6.25-8.517a22.391,22.391,0,0,1,2.277-.132m0-1.553a23.8,23.8,0,0,0-2.437.142,1.554,1.554,0,0,0-.223.039c-3.882.989-6.418,6.969-7.329,9.5a20.128,20.128,0,0,1-2.359,4.89c-.014.023-.027.047-.04.07q-.234.432-.463.85c-2.021,3.692-4.111,7.511-.426,10.534a12.086,12.086,0,0,0,7.362,2.433c3.156,0,5.672-1.292,6.913-3.546a35.974,35.974,0,0,0,2.874-6.606c.166-.461.33-.922.5-1.381a22.7,22.7,0,0,1,2.731-5.595,11.8,11.8,0,0,1,1.774-1.9l.047-.04c.357-.318.768-.621,1.131-.887.772-.567,1.287-.946,1.5-1.6a3.127,3.127,0,0,0-.212-2.586c-.805-1.443-2.611-2.115-3.974-2.423a14.454,14.454,0,0,0-2.861-.351c-.6-.854-1.89-1.538-4.5-1.538Z"/><g class="cls-21"><path class="cls-20" d="M817.7,162.886a6.217,6.217,0,0,0,1.631,4.709,10.2,10.2,0,0,0,10,2.311c-.032.051-.06.1-.091.154-2.171,4.011-8.95,3.146-11.946.689C814.787,168.693,815.94,166.133,817.7,162.886Z"/></g><path class="cls-18" d="M833.007,149.066a7.239,7.239,0,0,0-2.912,1.816,12.674,12.674,0,0,0-2.108,2.73,15.162,15.162,0,0,0-1.357,3.147c-.168.544-.281,1.1-.4,1.656-.079.566-.157,1.128-.181,1.7.285-.5.514-1.011.749-1.516.254-.5.483-1,.72-1.493.271-.479.461-.993.744-1.459l.371-.724.41-.7a26.748,26.748,0,0,1,1.763-2.71A16.777,16.777,0,0,1,833.007,149.066Z"/><path class="cls-22" d="M826.956,148.085c.831-.345,4.265.375,2.916,1.777s-4.231,3.994-4.751,6.03-2.994,2.693-2.489-.406S825.678,148.617,826.956,148.085Z"/><path class="cls-23" d="M832.939,149.037a15.515,15.515,0,0,1-2.606,5.225c-1.808,2.164-4.217,5.578-4.217,5.578S828.426,152.171,832.939,149.037Z"/><path class="cls-24" d="M842.993,145.8a3.817,3.817,0,0,0,2.732-1.008,3.14,3.14,0,0,0,2.018.652,4.864,4.864,0,0,0,.719-.055,4.11,4.11,0,0,0,2.671-1.424,3.006,3.006,0,0,0,1.488.335,9.128,9.128,0,0,0,1.2-.1c2.143-.291,3.406-.835,4.095-1.762.816-1.1.593-2.5.4-3.73-.02-.123-.043-.239-.068-.354a.777.777,0,0,0-.758-.611.782.782,0,0,0-.234.036,49.932,49.932,0,0,1-14.877,2.556c-11.12,0-16.831-5.255-19.245-8.387a.776.776,0,0,0-.576-.3h-.039a.772.772,0,0,0-.564.243,4.3,4.3,0,0,0-1.3,3.4,4.76,4.76,0,0,0,1.657,3.061c.219.157.441.351.662.542a3.624,3.624,0,0,0,2,1.122,4.48,4.48,0,0,0,3.92,2.687h0a2.806,2.806,0,0,0,1.078-.209,3.82,3.82,0,0,0,2.332,1.748,4.317,4.317,0,0,0,1.252.2,3.058,3.058,0,0,0,1.545-.394,3.605,3.605,0,0,0,2.492,1.374,4.778,4.778,0,0,0,.688.051,3.409,3.409,0,0,0,2.09-.66,3.5,3.5,0,0,0,2.609.994Z"/><path class="cls-18" d="M822.518,132.422c3.389,4.4,9.633,8.689,19.86,8.689a50.374,50.374,0,0,0,15.111-2.592c.022.1.042.208.06.311.38,2.382.53,4.009-3.829,4.6a8.309,8.309,0,0,1-1.1.094,1.815,1.815,0,0,1-1.669-.76,3.158,3.158,0,0,1-2.606,1.857,4.075,4.075,0,0,1-.6.047,2.135,2.135,0,0,1-2.047-1.125,2.865,2.865,0,0,1-2.705,1.481h-.015a2.451,2.451,0,0,1-2.5-1.469,2.48,2.48,0,0,1-2.2,1.135,4.063,4.063,0,0,1-.576-.043,2.632,2.632,0,0,1-2.351-1.842,2.187,2.187,0,0,1-1.8.854,3.588,3.588,0,0,1-1.03-.164,2.868,2.868,0,0,1-2.168-2.193,1.964,1.964,0,0,1-1.464.621,3.309,3.309,0,0,1-1.385-.346,3.157,3.157,0,0,1-1.966-2.526.744.744,0,0,1-.49.187c-.7,0-1.5-.959-2.29-1.522a3.54,3.54,0,0,1-.241-5.3m0-1.552a1.55,1.55,0,0,0-1.128.486,5.008,5.008,0,0,0-1.511,4.006,5.534,5.534,0,0,0,1.977,3.617c.181.13.388.309.607.5a5.127,5.127,0,0,0,1.966,1.234,4.989,4.989,0,0,0,2.417,2.272,4.827,4.827,0,0,0,2.044.493,3.715,3.715,0,0,0,.759-.077,4.774,4.774,0,0,0,2.424,1.582,5.082,5.082,0,0,0,1.479.231,3.96,3.96,0,0,0,1.342-.228,4.577,4.577,0,0,0,2.579,1.2,5.552,5.552,0,0,0,.8.06,4.325,4.325,0,0,0,2.012-.468,4.506,4.506,0,0,0,2.7.8,4.777,4.777,0,0,0,2.782-.827,4.113,4.113,0,0,0,1.969.47,5.664,5.664,0,0,0,.83-.063,5.067,5.067,0,0,0,2.751-1.269,4.23,4.23,0,0,0,1.3.188,9.913,9.913,0,0,0,1.308-.108c2.367-.321,3.789-.959,4.612-2.068,1.011-1.361.749-3,.537-4.333-.021-.126-.047-.253-.074-.38a1.552,1.552,0,0,0-1.984-1.149,49.162,49.162,0,0,1-14.643,2.52c-10.789,0-16.3-5.065-18.63-8.085a1.558,1.558,0,0,0-1.152-.6c-.027,0-.052,0-.078,0Z"/><path class="cls-25" d="M850.643,142.225c.688-.511,1.216.362,1.719,1.29a1.7,1.7,0,0,1-1.409-.75,2.832,2.832,0,0,1-.659.965C850.368,143.069,850.306,142.443,850.643,142.225Z"/><path class="cls-25" d="M845.551,142.691c1.011-.2.922.722.887,1.656a1.943,1.943,0,0,1-.742-.8,2.606,2.606,0,0,1-.989,1.053C844.991,143.725,845.048,142.756,845.551,142.691Z"/><path class="cls-25" d="M840.043,143.265c.873-.1,1.106.537,1.234,1.305a2.146,2.146,0,0,1-.8-1.014,2.358,2.358,0,0,1-1.091.925C839.572,143.906,839.639,143.317,840.043,143.265Z"/><path class="cls-25" d="M835.714,142.554a1.843,1.843,0,0,1,.414,1.451,2.362,2.362,0,0,1-.778-1.2,2.143,2.143,0,0,1-1.169.775C834.675,142.763,835.041,141.878,835.714,142.554Z"/><path class="cls-25" d="M831.058,142.655a2.6,2.6,0,0,1-.7-1.352,2.074,2.074,0,0,1-2.065.55,3.386,3.386,0,0,1,1.8-.92C831.191,140.826,831.122,141.743,831.058,142.655Z"/><path class="cls-25" d="M826.551,138.637a2.313,2.313,0,0,1-.119,2.218,2.874,2.874,0,0,1-.893-1.8.933.933,0,0,1-1.177-.056C825.018,138.445,826.213,138.113,826.551,138.637Z"/><path class="cls-25" d="M856.02,138.963q.726-.21,1.469-.444c.022.1.042.208.06.311.328,2.049.481,3.538-2.258,4.292A9.3,9.3,0,0,0,856.02,138.963Z"/><path class="cls-26" d="M849.135,129.813s-2.268,8.047-10.477,6.566-9.982-2.345-10.181-9.829S849.135,129.813,849.135,129.813Z"/><path class="cls-24" d="M852.965,128.5c4.888,0,9.795-4.091,11.932-9.948a16.3,16.3,0,0,0,.477-10.248,9.59,9.59,0,0,0-5.743-6.531,8.454,8.454,0,0,0-2.906-.51c-4.888,0-9.8,4.091-11.934,9.949a16.3,16.3,0,0,0-.476,10.247,9.585,9.585,0,0,0,5.744,6.531,8.451,8.451,0,0,0,2.9.51Z"/><path class="cls-18" d="M856.725,102.005a7.683,7.683,0,0,1,2.65.465c5.167,1.886,7.328,8.971,4.826,15.826-2.085,5.712-6.75,9.46-11.236,9.46a7.711,7.711,0,0,1-2.651-.464c-5.167-1.887-7.329-8.973-4.826-15.827,2.086-5.711,6.75-9.46,11.237-9.46m0-1.485c-5.194,0-10.388,4.291-12.631,10.436a17.04,17.04,0,0,0-.489,10.719,10.314,10.314,0,0,0,6.2,7.012,9.188,9.188,0,0,0,3.16.554c5.194,0,10.387-4.291,12.63-10.436,2.78-7.612.218-15.566-5.71-17.73a9.193,9.193,0,0,0-3.16-.555Z"/><path class="cls-25" d="M863.248,105.538a15.2,15.2,0,0,1-.108,10.777c-2.5,6.855-8.72,10.882-13.887,9a8.047,8.047,0,0,1-3.872-3.068,8.605,8.605,0,0,0,4.933,5.049c5.167,1.886,11.385-2.141,13.886-9C865.932,113.554,865.43,108.7,863.248,105.538Z"/><path class="cls-27" d="M854.481,115.6c.166-.454.453-.178.737-.246.114.042.286.277.23.428a2.122,2.122,0,0,1-1.684,1.783c-.282.068-.68.094-.852-.14a2.952,2.952,0,0,1-.65-2.465c.434-1.9,1.953-3.227,3.431-3.03a3.092,3.092,0,0,1,1.772,1.16c.8.98.709,2.657.212,4.018a5.212,5.212,0,0,1-.776,1.773,5.894,5.894,0,0,1-1.236,1.262,3.81,3.81,0,0,1-3.913.457,5.228,5.228,0,0,1-2.2-4.574,9.252,9.252,0,0,1,.763-3.149c1.666-3.5,5.112-5.159,7.682-3.706a7.236,7.236,0,0,1,1.374,1.187,6.245,6.245,0,0,1,1.166,2.824,10.074,10.074,0,0,1-.9,6.01,8.938,8.938,0,0,1-4.948,4.7c-3.623,1.076-6.765-.927-7.547-5.154a14.743,14.743,0,0,1,.177-4.732,20.9,20.9,0,0,1,.938-2.571,13.413,13.413,0,0,1,1.789-2.774,9.934,9.934,0,0,1,2.927-2.358c5.023-2.793,10.059,1.1,10.238,7.335"/><path class="cls-24" d="M830.165,120.99c4.734,0,9.421-3.995,11.4-9.715,2.4-6.959.02-14.121-5.317-15.965a8.064,8.064,0,0,0-2.643-.441c-4.733,0-9.42,4-11.4,9.716a15.587,15.587,0,0,0-.286,9.811,9.169,9.169,0,0,0,5.6,6.153,8.053,8.053,0,0,0,2.642.441Z"/><path class="cls-18" d="M833.6,95.579a7.347,7.347,0,0,1,2.41.4c4.974,1.719,7.158,8.462,4.877,15.062-1.919,5.554-6.391,9.236-10.726,9.236a7.372,7.372,0,0,1-2.41-.4c-4.975-1.719-7.159-8.462-4.877-15.061,1.919-5.556,6.391-9.238,10.726-9.238m0-1.421c-5.032,0-10,4.192-12.07,10.194a16.312,16.312,0,0,0-.291,10.263,9.866,9.866,0,0,0,6.048,6.606,8.785,8.785,0,0,0,2.874.479c5.032,0,10-4.191,12.07-10.193,2.531-7.33-.051-14.9-5.757-16.869a8.786,8.786,0,0,0-2.874-.48Z"/><path class="cls-25" d="M839.768,98.852a14.546,14.546,0,0,1,.076,10.313c-2.281,6.6-8.162,10.554-13.136,8.835a7.7,7.7,0,0,1-3.756-2.871,8.235,8.235,0,0,0,4.8,4.749c4.975,1.719,10.856-2.237,13.136-8.835C842.468,106.477,841.909,101.845,839.768,98.852Z"/><path class="cls-28" d="M831.548,108.623c.152-.437.431-.178.7-.247.109.038.279.258.229.4a2.028,2.028,0,0,1-1.582,1.734c-.269.07-.648.1-.818-.119a2.835,2.835,0,0,1-.663-2.348c.384-1.822,1.816-3.12,3.233-2.956a2.962,2.962,0,0,1,1.714,1.082c.787.923.722,2.53.269,3.839a4.969,4.969,0,0,1-.713,1.71,5.622,5.622,0,0,1-1.161,1.228,3.646,3.646,0,0,1-3.735.5,5,5,0,0,1-2.185-4.339,8.86,8.86,0,0,1,.677-3.025c1.537-3.38,4.8-5.02,7.287-3.673a7.009,7.009,0,0,1,1.335,1.113,5.974,5.974,0,0,1,1.162,2.682,9.622,9.622,0,0,1-.765,5.764,8.54,8.54,0,0,1-4.654,4.584c-3.448,1.089-6.487-.776-7.305-4.806a14.063,14.063,0,0,1,.091-4.531,19.7,19.7,0,0,1,.855-2.474,12.823,12.823,0,0,1,1.664-2.684,9.534,9.534,0,0,1,2.762-2.3c4.759-2.755,9.642.888,9.916,6.849"/><path class="cls-29" d="M839.367,134.066c5.013,0,9.045-2.691,9.808-6.543a7.716,7.716,0,0,0-2.1-6.7,13,13,0,0,0-7.16-3.893,14.38,14.38,0,0,0-2.792-.277c-5.011,0-9.045,2.691-9.807,6.543-.919,4.648,3.237,9.4,9.265,10.593A14.455,14.455,0,0,0,839.367,134.066Z"/><path class="cls-18" d="M837.119,117.6a13.468,13.468,0,0,1,2.609.259c5.527,1.093,9.343,5.339,8.522,9.484-.688,3.481-4.428,5.784-8.883,5.784a13.461,13.461,0,0,1-2.609-.259c-5.526-1.094-9.342-5.341-8.522-9.485.688-3.481,4.428-5.783,8.883-5.783m0-1.885c-5.467,0-9.88,3-10.73,7.3a8.633,8.633,0,0,0,2.328,7.512,13.947,13.947,0,0,0,7.677,4.188,15.411,15.411,0,0,0,2.975.294c5.469,0,9.882-3,10.733-7.3a8.636,8.636,0,0,0-2.329-7.512,13.94,13.94,0,0,0-7.677-4.187,15.4,15.4,0,0,0-2.975-.3Z"/><g class="cls-30"><path class="cls-24" d="M837.267,119.554c-.62,1.1.885,3.119,3.36,4.513s4.982,1.634,5.6.536-.885-3.119-3.361-4.513S837.885,118.456,837.267,119.554Z"/></g><g class="cls-19"><path class="cls-29" d="M828.235,123.38a6.518,6.518,0,0,1,3-4.176,6.021,6.021,0,0,0-1.333,2.728c-.82,4.145,3,8.391,8.524,9.485a11.646,11.646,0,0,0,8.493-1.35c-2.042,2.419-5.992,3.622-10.159,2.8C831.232,131.771,827.416,127.524,828.235,123.38Z"/></g><path class="cls-31" d="M883.721,100.406s2.575,5.61,2.086,10.171-6.771,10.558-10.749,13.781,4.586-15.546,3.426-22.9,4.752-1.85,4.752-1.85Z"/><path class="cls-32" d="M872.842,124.624a24.427,24.427,0,0,0,3.857-2.259c.86-1.207,1.344-4.243,1.932-5.6,2.893-6.716,11.4-2.322,11.954,3.362.842,8.612-7.483,19-12.363,17.825-4.328-1.037-3.865-7.538-3.865-7.538"/><path class="cls-33" d="M914.144,82.032a1.2,1.2,0,0,0,.914-.421A36.95,36.95,0,0,0,922.276,68.4,37.853,37.853,0,0,0,919.52,38.76c-4.857-8.6-13.294-14.6-24.4-17.364a29.182,29.182,0,0,0-7.028-.861c-13.927,0-26.275,9.712-30.724,24.167-2.139,6.943-9,24.6-9.075,24.774a1.2,1.2,0,0,0,.792,1.592l30.734,8.752a1.186,1.186,0,0,0,.328.046,1.2,1.2,0,0,0,1.2-1.077c.011-.105,1.116-10.618,3.042-20.985,3.625-19.509,6.69-20.073,7.028-20.073a.545.545,0,0,1,.141.02,29.7,29.7,0,0,1,18.71,14.588A36.847,36.847,0,0,1,913,80.477a1.2,1.2,0,0,0,1.148,1.555Z"/><path class="cls-18" d="M888.1,21.736a27.932,27.932,0,0,1,6.735.826c25.477,6.336,31.524,28.5,26.294,45.488a35.922,35.922,0,0,1-6.982,12.78c5.227-16.983-1.828-38.742-22.275-44.24a1.733,1.733,0,0,0-.453-.061c-6.878,0-11.266,42.135-11.266,42.135l-30.734-8.752s6.927-17.79,9.1-24.857c4.454-14.464,16.731-23.32,29.579-23.319m0-2.4c-14.457,0-27.266,10.053-31.872,25.015-2.126,6.9-8.976,24.515-9.046,24.692a2.406,2.406,0,0,0,1.582,3.184l30.734,8.752a2.4,2.4,0,0,0,3.05-2.063c.01-.1,1.018-9.69,2.784-19.549,2.987-16.683,5.58-19.843,6.194-20.377a28.494,28.494,0,0,1,17.7,13.933,35.621,35.621,0,0,1,2.632,27.2,2.4,2.4,0,0,0,4.125,2.268,38.118,38.118,0,0,0,7.451-13.635,39.046,39.046,0,0,0-2.857-30.588c-5.023-8.893-13.72-15.1-25.153-17.939a30.34,30.34,0,0,0-7.316-.9h0v0Z"/><path class="cls-34" d="M914.144,82.032a1.2,1.2,0,0,0,.914-.421A36.95,36.95,0,0,0,922.276,68.4,37.853,37.853,0,0,0,919.52,38.76c-4.857-8.6-13.294-14.6-24.4-17.364a29.182,29.182,0,0,0-7.028-.861c-13.927,0-26.275,9.712-30.724,24.167-2.139,6.943-9,24.6-9.075,24.774a1.2,1.2,0,0,0,.792,1.592l18.936,5.392a1.175,1.175,0,0,0,.33.047,1.2,1.2,0,0,0,1.13-.8c12.427-34.679,19.029-38.423,21.291-38.423a2.419,2.419,0,0,1,1.371.494,3.05,3.05,0,0,0,.5.278C909,44.749,918.134,63.777,913,80.477a1.2,1.2,0,0,0,1.148,1.555Z"/><path class="cls-18" d="M888.1,21.736a27.932,27.932,0,0,1,6.735.826c25.477,6.336,31.524,28.5,26.294,45.488a35.922,35.922,0,0,1-6.982,12.78c5.12-16.638-3.673-36.781-21.045-43.883a4.36,4.36,0,0,0-2.323-.861c-3.307,0-10.176,5.041-22.422,39.219l-18.938-5.393s6.927-17.79,9.1-24.857c4.454-14.464,16.731-23.32,29.579-23.319m0-2.4c-14.457,0-27.266,10.053-31.872,25.015-2.126,6.9-8.976,24.515-9.046,24.692a2.406,2.406,0,0,0,1.582,3.184L867.7,77.617a2.4,2.4,0,0,0,2.921-1.5c13.105-36.57,19.476-37.627,20.16-37.627a1.322,1.322,0,0,1,.72.3,4.181,4.181,0,0,0,.694.381c15.8,6.459,24.617,24.831,19.657,40.952a2.4,2.4,0,0,0,4.125,2.268,38.118,38.118,0,0,0,7.451-13.635,39.046,39.046,0,0,0-2.857-30.588c-5.023-8.893-13.72-15.1-25.153-17.939a30.34,30.34,0,0,0-7.316-.9h0v0Z"/><path class="cls-33" d="M914.144,82.032a1.2,1.2,0,0,0,.914-.421A36.95,36.95,0,0,0,922.276,68.4,37.853,37.853,0,0,0,919.52,38.76c-4.857-8.6-13.294-14.6-24.4-17.364a29.182,29.182,0,0,0-7.028-.861c-13.927,0-26.275,9.712-30.724,24.167-2.139,6.943-9,24.6-9.075,24.774a1.2,1.2,0,0,0,.792,1.592l30.734,8.752a1.186,1.186,0,0,0,.328.046,1.2,1.2,0,0,0,1.2-1.077c.011-.105,1.116-10.618,3.042-20.985,3.625-19.509,6.69-20.073,7.028-20.073a.545.545,0,0,1,.141.02,29.7,29.7,0,0,1,18.71,14.588A36.847,36.847,0,0,1,913,80.477a1.2,1.2,0,0,0,1.148,1.555Z"/><path class="cls-18" d="M888.1,21.736a27.932,27.932,0,0,1,6.735.826c25.477,6.336,31.524,28.5,26.294,45.488a35.922,35.922,0,0,1-6.982,12.78c5.227-16.983-1.828-38.742-22.275-44.24a1.733,1.733,0,0,0-.453-.061c-6.878,0-11.266,42.135-11.266,42.135l-30.734-8.752s6.927-17.79,9.1-24.857c4.454-14.464,16.731-23.32,29.579-23.319m0-2.4c-14.457,0-27.266,10.053-31.872,25.015-2.126,6.9-8.976,24.515-9.046,24.692a2.406,2.406,0,0,0,1.582,3.184l30.734,8.752a2.4,2.4,0,0,0,3.05-2.063c.01-.1,1.018-9.69,2.784-19.549,2.987-16.683,5.58-19.843,6.194-20.377a28.494,28.494,0,0,1,17.7,13.933,35.621,35.621,0,0,1,2.632,27.2,2.4,2.4,0,0,0,4.125,2.268,38.118,38.118,0,0,0,7.451-13.635,39.046,39.046,0,0,0-2.857-30.588c-5.023-8.893-13.72-15.1-25.153-17.939a30.34,30.34,0,0,0-7.316-.9h0v0Z"/><path class="cls-35" d="M914.144,82.032a1.2,1.2,0,0,0,.914-.421A36.95,36.95,0,0,0,922.276,68.4,37.853,37.853,0,0,0,919.52,38.76c-4.857-8.6-13.294-14.6-24.4-17.364a29.182,29.182,0,0,0-7.028-.861c-13.927,0-26.275,9.712-30.724,24.167-2.139,6.943-9,24.6-9.075,24.774a1.2,1.2,0,0,0,.792,1.592l18.936,5.392a1.175,1.175,0,0,0,.33.047,1.2,1.2,0,0,0,1.13-.8c12.427-34.679,19.029-38.423,21.291-38.423a2.419,2.419,0,0,1,1.371.494,3.05,3.05,0,0,0,.5.278C909,44.749,918.134,63.777,913,80.477a1.2,1.2,0,0,0,1.148,1.555Z"/><path class="cls-18" d="M888.1,21.736a27.932,27.932,0,0,1,6.735.826c25.477,6.336,31.524,28.5,26.294,45.488a35.922,35.922,0,0,1-6.982,12.78c5.12-16.638-3.673-36.781-21.045-43.883a4.36,4.36,0,0,0-2.323-.861c-3.307,0-10.176,5.041-22.422,39.219l-18.938-5.393s6.927-17.79,9.1-24.857c4.454-14.464,16.731-23.32,29.579-23.319m0-2.4c-14.457,0-27.266,10.053-31.872,25.015-2.126,6.9-8.976,24.515-9.046,24.692a2.406,2.406,0,0,0,1.582,3.184L867.7,77.617a2.4,2.4,0,0,0,2.921-1.5c13.105-36.57,19.476-37.627,20.16-37.627a1.322,1.322,0,0,1,.72.3,4.181,4.181,0,0,0,.694.381c15.8,6.459,24.617,24.831,19.657,40.952a2.4,2.4,0,0,0,4.125,2.268,38.118,38.118,0,0,0,7.451-13.635,39.046,39.046,0,0,0-2.857-30.588c-5.023-8.893-13.72-15.1-25.153-17.939a30.34,30.34,0,0,0-7.316-.9h0v0Z"/><g class="cls-19"><path class="cls-25" d="M865.234,44.522c-2.437-1.881-2.685-4.769-2.921-7.829a35.777,35.777,0,0,0-3.795,8.362c-2.175,7.067-9.1,24.857-9.1,24.857l30.735,8.752s2.332-22.382,6.259-34.519l-.222,0C879.346,44.2,871.089,48.841,865.234,44.522Z"/></g><path class="cls-22" d="M882.263,29.524c-6.6,2.569-14.911,14.751-16.62,7.333-.515-2.24,6.117-9.941,15.85-13.082a27.154,27.154,0,0,1,21.433,2.207S891.04,26.108,882.263,29.524Z"/><path class="cls-29" d="M863.11,93.462a1.2,1.2,0,0,0,1.2-1.1c.018-.227,1.837-22.839.7-39.378-1.248-18.189-13.993-34.548-30.992-39.782a28.5,28.5,0,0,0-8.388-1.209c-11.993,0-25.258,6.649-32.259,16.169a1.2,1.2,0,0,0,1.641,1.707,28.04,28.04,0,0,1,15.7-4.99A25.393,25.393,0,0,1,818.2,26c14.955,4.6,22.9,22.07,17.706,38.933a35.131,35.131,0,0,1-8.468,14.3,1.2,1.2,0,0,0,.856,2.046,1.23,1.23,0,0,0,.28-.033,6.648,6.648,0,0,1,1.523-.153c9.283,0,32.219,12.109,32.449,12.232A1.208,1.208,0,0,0,863.11,93.462Z"/><path class="cls-18" d="M825.631,13.191a27.251,27.251,0,0,1,8.033,1.156c17.27,5.317,29,21.939,30.146,38.715,1.142,16.641-.7,39.2-.7,39.2S839.789,79.887,830.1,79.889a7.829,7.829,0,0,0-1.8.185,36.167,36.167,0,0,0,8.761-14.786c5.4-17.524-2.887-35.627-18.5-40.435a26.546,26.546,0,0,0-7.84-1.179,29.3,29.3,0,0,0-16.376,5.2c6.511-8.853,19.371-15.679,31.292-15.678m0-2.4c-12.35,0-26.013,6.85-33.225,16.658a2.4,2.4,0,0,0,3.283,3.415,26.836,26.836,0,0,1,15.029-4.783,24.2,24.2,0,0,1,7.132,1.074c14.321,4.409,21.907,21.2,16.911,37.43a33.91,33.91,0,0,1-8.176,13.8,2.4,2.4,0,0,0,2.272,4.025,5.486,5.486,0,0,1,1.244-.119c7.457,0,25.544,8.728,31.885,12.091a2.4,2.4,0,0,0,3.522-1.927c.076-.929,1.845-22.929.7-39.558-1.281-18.674-14.372-35.472-31.836-40.849a29.706,29.706,0,0,0-8.743-1.262v0Z"/><path class="cls-33" d="M849.352,86.891a1.2,1.2,0,0,0,1.2-1.133c.407-7.071.807-17.312.4-25.942-.847-18.08-12.574-34.136-28.519-39.046a25.019,25.019,0,0,0-7.359-1.061,38.4,38.4,0,0,0-19.692,6.061,1.17,1.17,0,0,0-.272.229c-.637.725-1.223,1.451-1.743,2.159a1.2,1.2,0,0,0,1.641,1.707,28.04,28.04,0,0,1,15.7-4.99A25.393,25.393,0,0,1,818.2,26c14.955,4.6,22.9,22.07,17.706,38.933a35.131,35.131,0,0,1-8.468,14.3,1.2,1.2,0,0,0,.856,2.046,1.23,1.23,0,0,0,.28-.033,6.648,6.648,0,0,1,1.523-.153c3.67,0,10.162,1.972,18.778,5.7A1.2,1.2,0,0,0,849.352,86.891Z"/><path class="cls-18" d="M815.078,20.911a23.752,23.752,0,0,1,7,1.008c16.158,4.975,26.893,21.291,27.673,37.954.388,8.308.039,18.115-.4,25.816-6.837-2.96-14.612-5.8-19.256-5.8a7.835,7.835,0,0,0-1.8.185,36.167,36.167,0,0,0,8.761-14.786c5.4-17.524-2.887-35.627-18.5-40.435a26.546,26.546,0,0,0-7.84-1.179,29.3,29.3,0,0,0-16.376,5.2c.52-.706,1.082-1.4,1.678-2.077a37.312,37.312,0,0,1,19.061-5.881m0-2.4a39.615,39.615,0,0,0-20.324,6.24,2.384,2.384,0,0,0-.542.459c-.66.75-1.268,1.5-1.809,2.24a2.4,2.4,0,0,0,3.283,3.414,26.836,26.836,0,0,1,15.029-4.783,24.2,24.2,0,0,1,7.132,1.074c14.321,4.409,21.907,21.2,16.911,37.43a33.91,33.91,0,0,1-8.176,13.8,2.4,2.4,0,0,0,2.272,4.025,5.489,5.489,0,0,1,1.243-.119c2.445,0,7.605.972,18.3,5.6a2.4,2.4,0,0,0,3.355-2.067c.409-7.105.809-17.394.4-26.067-.869-18.577-12.945-35.082-29.366-40.138a26.188,26.188,0,0,0-7.712-1.115Z"/><g class="cls-19"><path class="cls-36" d="M844.936,40.428c-1.417-5.009-7.009-6.269-12.349-5.431,5.844,8.028,7.861,19.274,4.468,30.291a36.167,36.167,0,0,1-8.761,14.786c.128-.031.262-.058.4-.08.045-.008.093-.013.139-.02.1-.013.191-.028.289-.038.059-.007.12-.009.181-.014.089-.008.18-.016.273-.021.068,0,.137,0,.207,0,.089,0,.178-.007.27-.007l.225,0c.092,0,.183,0,.277.005l.239.013c.1.005.189.01.286.017s.167.015.251.022c.1.009.2.017.295.028l.262.03c.1.012.2.024.3.038s.184.027.277.04.2.029.308.047.191.031.285.049l.321.055.291.057.328.065.3.064c.112.024.223.049.335.075s.206.047.307.071.228.053.345.082.209.052.314.079.234.058.353.09l.316.084.362.1.32.09.372.108c.106.03.214.061.321.093l.382.115.319.1.394.124.32.1.4.129.322.107.408.137.315.108c.143.048.284.1.426.147l.305.108c.147.051.292.1.438.156.1.036.2.071.3.108l.456.167.282.1.472.178.272.1c.162.061.325.123.487.186l.254.1.512.2.232.091.539.215.2.08.581.235.155.064.632.259c.034.016.068.029.1.044.231.095.459.191.687.287l.045.019c.493.208.985.417,1.469.628,7.432,3.215,13.758,6.571,13.758,6.571s1.423-17.451.991-32.979C855.553,55.533,847.777,50.776,844.936,40.428Z"/></g><path class="cls-22" d="M845.813,28.672c7.663,8.082,10.359,24.063,15.722,20.473,1.619-1.085-2.756-15.209-12.2-23.771-14.232-12.9-25.984-10.515-25.984-10.515S838.149,20.59,845.813,28.672Z"/><path class="cls-37" d="M883.137,99.224a1.151,1.151,0,0,0,.193-.016,1.2,1.2,0,0,0,1-1.045,35.119,35.119,0,0,1,5.874-15.541c6.365-9.354,16.378-14.938,26.786-14.938a25.956,25.956,0,0,1,14.677,4.447,27.1,27.1,0,0,1,11.467,20.521,1.2,1.2,0,0,0,1.089,1.1,1.024,1.024,0,0,0,.11,0,1.2,1.2,0,0,0,1.16-.89c3.48-12.97-1.2-32.575-13.706-41.087a43.131,43.131,0,0,0-24.4-7.309,46.023,46.023,0,0,0-26.022,7.955c-13.624,9.444-30.148,24.986-30.314,25.142a1.2,1.2,0,0,0,.348,1.978c7.587,3.283,27.884,13.1,30.652,18.986A1.2,1.2,0,0,0,883.137,99.224Z"/><path class="cls-18" d="M907.387,45.674a42.06,42.06,0,0,1,23.726,7.1c11.819,8.043,16.728,26.713,13.221,39.782a28.2,28.2,0,0,0-11.988-21.419,27.085,27.085,0,0,0-15.354-4.655c-10.345,0-21,5.5-27.78,15.464a36.167,36.167,0,0,0-6.074,16.076c-3.57-7.594-31.263-19.578-31.263-19.578s16.466-15.527,30.174-25.029a44.821,44.821,0,0,1,25.338-7.741m0-2.4a47.235,47.235,0,0,0-26.707,8.169c-13.7,9.5-29.776,24.616-30.454,25.255a2.4,2.4,0,0,0,.7,3.955c10.384,4.494,27.723,13.462,30.042,18.4a2.4,2.4,0,0,0,4.562-.74A33.911,33.911,0,0,1,891.2,83.3c6.141-9.025,15.783-14.412,25.792-14.412a24.761,24.761,0,0,1,14,4.238,25.915,25.915,0,0,1,10.944,19.624,2.4,2.4,0,0,0,2.178,2.2c.074.007.147.01.22.01a2.4,2.4,0,0,0,2.32-1.781c1.851-6.9,1.526-15.322-.889-23.111-2.594-8.361-7.318-15.209-13.3-19.281a44.325,44.325,0,0,0-25.078-7.517Z"/><path class="cls-33" d="M883.137,99.224a1.134,1.134,0,0,0,.193-.016,1.2,1.2,0,0,0,1-1.045,35.119,35.119,0,0,1,5.874-15.541c6.365-9.354,16.378-14.938,26.786-14.938a25.956,25.956,0,0,1,14.677,4.447,27.1,27.1,0,0,1,11.467,20.521,1.2,1.2,0,0,0,1.089,1.1,1.024,1.024,0,0,0,.11,0,1.2,1.2,0,0,0,1.16-.891c.23-.857.43-1.769.6-2.709a1.242,1.242,0,0,0,.009-.355c-1.282-10.52-6.14-19.585-12.991-24.248a38.557,38.557,0,0,0-21.824-6.475A45.418,45.418,0,0,0,884.8,67.672c-6.989,5.073-14.737,11.782-20.006,16.517a1.2,1.2,0,0,0,.24,1.955c9.613,5.1,15.655,9.5,17.013,12.389A1.2,1.2,0,0,0,883.137,99.224Z"/><path class="cls-18" d="M911.287,60.282a37.379,37.379,0,0,1,21.147,6.267c7.092,4.826,11.33,14.021,12.474,23.4-.157.889-.347,1.76-.574,2.607a28.2,28.2,0,0,0-11.988-21.419,27.085,27.085,0,0,0-15.354-4.655c-10.345,0-21,5.5-27.78,15.464a36.167,36.167,0,0,0-6.074,16.076c-1.831-3.9-10.007-8.944-17.538-12.94,5.738-5.155,13.179-11.552,19.909-16.438a44.377,44.377,0,0,1,25.778-8.362m0-2.4A46.635,46.635,0,0,0,884.1,66.7c-7.029,5.1-14.813,11.841-20.1,16.6a2.4,2.4,0,0,0,.48,3.912c13.134,6.969,15.907,10.6,16.489,11.839a2.4,2.4,0,0,0,4.562-.74A33.911,33.911,0,0,1,891.2,83.3c6.141-9.025,15.783-14.412,25.792-14.412a24.761,24.761,0,0,1,14,4.238,25.915,25.915,0,0,1,10.944,19.624,2.4,2.4,0,0,0,2.179,2.2c.074.007.146.01.219.01a2.4,2.4,0,0,0,2.32-1.783c.239-.891.447-1.836.619-2.81a2.408,2.408,0,0,0,.019-.709c-1.323-10.859-6.373-20.241-13.508-25.1a39.746,39.746,0,0,0-22.5-6.684Z"/><g class="cls-19"><path class="cls-25" d="M894.677,69.9c-5.845-.539-15.477,2.81-17.23-2.236-.968-2.283.3-7-.246-10.737-12.457,9.38-25.326,21.515-25.326,21.515s6.572,2.845,13.725,6.639h0q1.054.56,2.121,1.146l.032.017c.221.122.443.244.663.367.029.016.057.033.086.048.2.113.405.228.609.342l.125.07c.19.108.38.216.568.325.053.029.105.059.157.089l.531.306c.065.037.129.076.193.114q.248.142.492.287c.071.043.14.084.213.126l.467.28.228.137.444.268c.08.051.162.1.243.149l.423.261c.082.053.167.105.25.157l.4.254.259.165.388.249.259.169.374.245.261.174.359.241.26.177.345.238.259.181.331.235.253.182c.109.078.214.156.32.233.084.062.168.123.249.184.1.077.2.153.3.23.084.061.166.124.247.186l.289.227c.079.062.16.124.238.187.094.075.186.15.277.225s.155.124.23.186l.264.223.219.187c.085.073.168.147.251.221s.139.123.206.184l.241.222c.065.06.131.121.194.181s.15.147.226.22c.06.061.122.12.181.18s.142.146.211.219l.169.176c.068.074.132.146.2.219.053.058.107.116.156.173.064.073.123.146.181.219.047.056.1.112.139.167.06.075.115.149.17.223.039.053.082.106.119.159.056.077.106.153.158.23.032.048.067.1.1.146.055.084.1.166.149.249.024.04.051.081.074.121.068.123.132.244.187.364A36.834,36.834,0,0,1,899.3,71.96,9.877,9.877,0,0,0,894.677,69.9Z"/></g><path class="cls-22" d="M910.851,51.855c-11.131-.37-24.877,8.216-25.748,1.821-.263-1.931,13.208-8.029,25.882-6.641,19.09,2.091,25.109,12.465,25.109,12.465S921.982,52.226,910.851,51.855Z"/><path class="cls-38" d="M791.107,45.338a9.678,9.678,0,1,0-2.847-.431A9.622,9.622,0,0,0,791.107,45.338Z"/><path class="cls-18" d="M791.1,27.2a8.469,8.469,0,1,1-8.089,5.978A8.451,8.451,0,0,1,791.1,27.2m0-2.4a10.879,10.879,0,1,0,3.2.484,10.815,10.815,0,0,0-3.2-.484Z"/><g class="cls-19"><path class="cls-38" d="M794.435,27.881a8.468,8.468,0,0,1-8.484,14.076,8.675,8.675,0,0,1-.836-.308,8.467,8.467,0,1,0,9.32-13.768Z"/></g><path class="cls-39" d="M784.642,33.678c1.242-3.324,5.743-5.808,8.539-4.765a4.623,4.623,0,0,1,1.93,1.392,4.175,4.175,0,0,0-2.837-2.478c-2.778-1.038-6.96.953-8.138,4.106-.625,1.676-1,3.527-.38,4.949A8.312,8.312,0,0,1,784.642,33.678Z"/><path class="cls-18" d="M788.4,38.838a2.553,2.553,0,0,1-2,2.51c-1.157.184-2.3-1-2.247-2.639s1.257-2.724,2.4-2.474A2.524,2.524,0,0,1,788.4,38.838Z"/><path class="cls-40" d="M791.878,26.853a16.565,16.565,0,0,0-5.092,16.535"/><path class="cls-18" d="M791.56,39.812a2.552,2.552,0,0,0,.242,3.2c.852.8,2.464.46,3.341-.92s.5-2.957-.592-3.394A2.523,2.523,0,0,0,791.56,39.812Z"/><path class="cls-40" d="M795.424,27.945a16.561,16.561,0,0,1-5.091,16.535"/><path class="cls-38" d="M946.952,102.174a9.68,9.68,0,1,0-.022,0Z"/><path class="cls-18" d="M946.931,84.037a8.468,8.468,0,0,1,.018,16.935h-.018a8.468,8.468,0,0,1-.02-16.935h.02m0-2.4h-.025a10.883,10.883,0,1,0,.025,0Z"/><g class="cls-19"><path class="cls-38" d="M947.8,84.083a8.467,8.467,0,0,1-3.929,15.957,8.229,8.229,0,0,1-.891-.046,8.467,8.467,0,1,0,4.82-15.911Z"/></g><path class="cls-39" d="M940.169,92.522c.2-3.543,3.762-7.25,6.742-7.081a4.621,4.621,0,0,1,2.255.755,4.171,4.171,0,0,0-3.443-1.524c-2.963-.168-6.365,2.973-6.555,6.333-.1,1.785.088,3.667,1.105,4.84A8.3,8.3,0,0,1,940.169,92.522Z"/><path class="cls-18" d="M945.285,96.337a2.557,2.557,0,0,1-1.165,2.991c-1.049.517-2.492-.281-2.927-1.857s.391-2.973,1.555-3.073A2.523,2.523,0,0,1,945.285,96.337Z"/><path class="cls-40" d="M945.055,83.858a16.567,16.567,0,0,0,.039,17.3"/><path class="cls-18" d="M948.593,96.329a2.555,2.555,0,0,0,1.18,2.985c1.051.513,2.49-.291,2.919-1.868s-.4-2.973-1.571-3.067A2.523,2.523,0,0,0,948.593,96.329Z"/><path class="cls-40" d="M948.767,83.85a16.567,16.567,0,0,1,.039,17.3"/><path class="cls-38" d="M910.694,94.488a8.513,8.513,0,1,0-5.683-2.179,8.528,8.528,0,0,0,5.683,2.179Z"/><path class="cls-18" d="M910.7,78.524A7.453,7.453,0,1,1,905.152,81a7.424,7.424,0,0,1,5.548-2.473m0-2.116a9.569,9.569,0,1,0,6.39,2.449,9.584,9.584,0,0,0-6.39-2.449Z"/><g class="cls-19"><path class="cls-38" d="M916.232,80.985A7.453,7.453,0,0,1,904.256,89.1a7.637,7.637,0,0,1-.556-.553,7.453,7.453,0,1,0,12.532-7.56Z"/></g><path class="cls-39" d="M906.267,82c2.22-2.2,6.732-2.521,8.582-.654a4.071,4.071,0,0,1,1.029,1.824,3.677,3.677,0,0,0-1.352-3.027c-1.838-1.856-5.915-1.809-8.02.275a6.09,6.09,0,0,0-2.131,3.815A7.317,7.317,0,0,1,906.267,82Z"/><path class="cls-18" d="M907.362,87.511a2.247,2.247,0,0,1-2.524,1.268c-.991-.281-1.464-1.653-.821-2.939s2.01-1.713,2.83-1.092A2.221,2.221,0,0,1,907.362,87.511Z"/><path class="cls-41" d="M914.568,79.22A14.579,14.579,0,0,0,904.4,90.551"/><path class="cls-18" d="M909.529,89.457a2.247,2.247,0,0,0-.989,2.646c.385.956,1.8,1.278,3.009.5s1.489-2.181.782-2.931A2.222,2.222,0,0,0,909.529,89.457Z"/><path class="cls-41" d="M917,81.4a14.582,14.582,0,0,1-10.174,11.331"/><path class="cls-33" d="M873.027,96.15a1.2,1.2,0,0,0,1.186-1.4c-.7-4.251-3.031-18.6-3.607-24.748C868.977,52.6,855.613,39.47,839.522,39.47c-.374,0-.747.007-1.123.021-11.434.44-20.918,4.6-27.426,12.024a37.848,37.848,0,0,0-8.742,28.46,36.91,36.91,0,0,0,4.372,14.4,1.2,1.2,0,0,0,1.053.625,1.222,1.222,0,0,0,.352-.053,1.2,1.2,0,0,0,.845-1.261,36.851,36.851,0,0,1,8.411-27A29.693,29.693,0,0,1,838.552,56.23h.021a.707.707,0,0,1,.551.292c1.029,1.086,3.287,6.079,2.042,28.921a1.2,1.2,0,0,0,.845,1.214L872.673,96.1A1.2,1.2,0,0,0,873.027,96.15Z"/><path class="cls-18" d="M839.522,40.672c15.062,0,28.27,12.16,29.888,29.445.577,6.167,2.884,20.381,3.617,24.831l-30.662-9.441c.7-12.835.825-30.481-3.776-30.481-.035,0-.07,0-.105,0-21.138,1.212-32.479,21.076-30.828,38.769a35.944,35.944,0,0,1-4.228-13.936c-1.656-17.7,8.782-38.163,35.017-39.17.361-.014.718-.021,1.077-.021m0-2.4c-.39,0-.778.007-1.169.022-11.772.453-21.552,4.752-28.284,12.434a39.053,39.053,0,0,0-9.035,29.364,38.127,38.127,0,0,0,4.515,14.867,2.4,2.4,0,0,0,4.5-1.379,35.632,35.632,0,0,1,8.127-26.1,28.482,28.482,0,0,1,20.162-10.03c.553.724,2.869,5.171,1.627,27.93a2.4,2.4,0,0,0,1.693,2.429l30.662,9.441a2.4,2.4,0,0,0,3.079-2.689c-.7-4.241-3.024-18.553-3.6-24.664-1.688-18.029-15.566-31.625-32.281-31.625Z"/><path class="cls-42" d="M873.027,96.15a1.2,1.2,0,0,0,1.186-1.4c-.7-4.251-3.031-18.6-3.607-24.748C868.977,52.6,855.613,39.47,839.522,39.47c-.374,0-.747.007-1.123.021-11.434.44-20.918,4.6-27.426,12.024a37.848,37.848,0,0,0-8.742,28.46,36.91,36.91,0,0,0,4.372,14.4,1.2,1.2,0,0,0,1.053.625,1.222,1.222,0,0,0,.352-.053,1.2,1.2,0,0,0,.845-1.261c-1.625-17.4,11.193-34.166,28.574-37.378a3.069,3.069,0,0,0,.544-.172,2.881,2.881,0,0,1,1.047-.244c1.533,0,6.931,2.368,12.01,32.844a1.2,1.2,0,0,0,.832.951L872.673,96.1A1.2,1.2,0,0,0,873.027,96.15Z"/><path class="cls-18" d="M839.522,40.672c15.062,0,28.27,12.16,29.888,29.445.577,6.167,2.884,20.381,3.617,24.831L852.214,88.54c-5.007-30.036-10.383-33.848-13.2-33.848a5.659,5.659,0,0,0-1.809.436c-18.456,3.411-31.172,21.338-29.553,38.671a35.944,35.944,0,0,1-4.228-13.936c-1.656-17.7,8.782-38.163,35.017-39.17.361-.014.718-.021,1.077-.021m0-2.4c-.39,0-.778.007-1.169.022-11.772.453-21.552,4.752-28.284,12.434a39.053,39.053,0,0,0-9.035,29.364,38.127,38.127,0,0,0,4.515,14.867,2.4,2.4,0,0,0,4.5-1.379c-1.568-16.795,10.811-32.982,27.6-36.085a3.992,3.992,0,0,0,.757-.231,1.835,1.835,0,0,1,.616-.164c.225,0,5.578.362,10.825,31.839a2.4,2.4,0,0,0,1.663,1.9l20.814,6.409a2.4,2.4,0,0,0,3.079-2.689c-.7-4.241-3.024-18.553-3.6-24.664-1.688-18.029-15.566-31.625-32.281-31.625Z"/><g class="cls-19"><path class="cls-25" d="M869.41,70.117a33.985,33.985,0,0,0-7.765-18.911c-1.1,5.839-4.4,10.719-10.225,11.34-2.867.276-6.615-2.407-9.627-2.348,1.248,6.2,1.035,16.808.572,25.309l9.849,3.033,20.813,6.408C872.294,90.5,869.987,76.284,869.41,70.117Z"/></g><path class="cls-22" d="M817.713,57.788c5.56-5.119,11.1-9.419,15.422-11.545,2.635-1.3,8.066-3.963,8.066-3.963a53.521,53.521,0,0,0-7.913.2,38.758,38.758,0,0,0-20.356,10.876c-8.395,8.9-8.728,23.519-8.728,23.519S806.4,68.205,817.713,57.788Z"/><path class="cls-25" d="M884.434,104.376c.6,0,2.177,0,2.549-1.208.1-.324.273-.926.273-.926.058-.188.131-.433.211-.706.637-2.152,1.964-6.632,3.918-7.931a20.668,20.668,0,0,1,2.043-1.142,10.805,10.805,0,0,0,4.716-3.728,4.284,4.284,0,0,0,.608-3.711,5.794,5.794,0,0,0-3.568-3.393,4.4,4.4,0,0,0-1.663-.322c-3.39,0-6.685,3.665-9.593,6.9a22.7,22.7,0,0,1-3.448,3.408,4.527,4.527,0,0,1,.625-2.818l.194-.453a33.378,33.378,0,0,0,1.832-5.844c.624-2.9-.3-4.931-2.986-6.584a8.969,8.969,0,0,0-4.476-1.393,5.135,5.135,0,0,0-2.866.817c-2.168,1.421-2.143,3.545-2.123,5.253,0,.442.01.861-.015,1.272a9.586,9.586,0,0,1-2.335,5.656,1.853,1.853,0,0,1-1.384.669,2.451,2.451,0,0,1-1.882-1.046,2.377,2.377,0,0,1-.408-2.123,32.6,32.6,0,0,1,1.309-3.31c1.4-3.22,2.986-6.869,1.876-10.061a5.522,5.522,0,0,0-5.308-3.974,7.219,7.219,0,0,0-4.6,1.8c-1.177.994-2.407,3.549-3.6,6.019a27.772,27.772,0,0,1-1.9,3.571c-.147.188-.294.384-.442.581-.538.719-1.351,1.8-1.839,1.8-.23,0-.6-.265-.982-.708-1.317-1.515-.829-3.413.065-6.136.183-.561.363-1.11.507-1.635.373-1.368,1.091-4.815-.306-7.257a4.566,4.566,0,0,0-2.834-2.169,6.939,6.939,0,0,0-1.838-.268c-2.8,0-4.192,2.11-5.542,4.152-1.052,1.592-1.961,3.292-2.841,4.936-.464.867-.926,1.732-1.407,2.578a3.925,3.925,0,0,1-.933,1.275,1.093,1.093,0,0,1-.179-.154c-.471-.545-.175-3.663,0-5.525.424-4.473.906-9.543-2.753-9.962a3.2,3.2,0,0,0-.361-.021,2.736,2.736,0,0,0-2.113.974c-1.829,2.1-1.2,7.11-1.122,7.675.07.51.152.993.232,1.458.3,1.793.526,3.088-.132,4.741-.423,1.064-.746,2.168-1.057,3.236-.119.408-.238.815-.362,1.218a5.414,5.414,0,0,1-.406,1.105,4.43,4.43,0,0,0-1,2.072l-.278.9c-.373,1.21.046,2.424,8.9,6.048,5.563,2.276,13.074,4.9,21.151,7.386C868.188,101.561,880.186,104.376,884.434,104.376Z"/><path class="cls-18" d="M830.761,61.715a2.016,2.016,0,0,1,.229.013c4.336.5.013,13.038,2.052,15.142a1.433,1.433,0,0,0,1.01.526c.795,0,1.435-.993,1.94-1.88,1.4-2.461,2.64-5.078,4.209-7.448,1.427-2.16,2.516-3.633,4.575-3.633a5.86,5.86,0,0,1,1.534.228c3.377.915,3.057,5.315,2.324,8-.761,2.787-2.586,6.238-.328,8.837a2.579,2.579,0,0,0,1.857,1.106c1.253,0,2.226-1.588,3.195-2.832,1.3-1.669,3.645-7.994,5.328-9.416a6.059,6.059,0,0,1,3.848-1.525,4.371,4.371,0,0,1,4.212,3.2c1.344,3.868-2.088,8.983-3.2,12.653a3.707,3.707,0,0,0,3.4,4.665,2.991,2.991,0,0,0,2.237-1.044,10.73,10.73,0,0,0,2.639-6.368c.131-2.122-.465-4.263,1.616-5.627a4,4,0,0,1,2.232-.628,7.733,7.733,0,0,1,3.867,1.221c2.223,1.366,3,2.855,2.46,5.353a32.307,32.307,0,0,1-1.768,5.64c-.538,1.285-1.366,2.848-.784,4.265.2.488.483.7.836.7,2.463,0,8.332-10.394,13.24-10.394a3.242,3.242,0,0,1,1.227.237c2.486,1.009,3.92,3.061,2.419,5.405-1.578,2.468-4.194,3.049-6.424,4.53-2.561,1.7-3.97,7.234-4.6,9.281,0,0-.17.589-.267.9-.081.265-.581.391-1.441.391-4.006,0-15.818-2.737-29.514-6.954-16.633-5.122-29.745-10.488-29.285-11.984.1-.317.278-.9.278-.9.782-2.541.62-.637,1.4-3.178.447-1.452.828-2.957,1.388-4.366.97-2.435.32-4.258-.028-6.787-.238-1.717-.563-7.33,2.086-7.33m0-2.319a3.913,3.913,0,0,0-2.987,1.372c-2.07,2.375-1.592,7.179-1.4,8.593.074.535.157,1.023.238,1.495.294,1.726.471,2.767-.067,4.118-.444,1.118-.774,2.25-1.094,3.346-.118.4-.234.8-.356,1.2-.134.436-.219.667-.264.78a5.924,5.924,0,0,0-1.139,2.4l-.277.9c-.721,2.346,1.88,3.8,3.13,4.491a63.122,63.122,0,0,0,6.441,2.97c5.594,2.289,13.14,4.925,21.249,7.422,13.709,4.22,25.844,7.056,30.2,7.056,2.013,0,3.243-.682,3.658-2.03.09-.293.24-.811.272-.922.064-.207.135-.448.214-.716.5-1.7,1.844-6.231,3.448-7.3a19.712,19.712,0,0,1,1.93-1.075,11.9,11.9,0,0,0,5.164-4.136,5.4,5.4,0,0,0,.737-4.688,6.909,6.909,0,0,0-4.237-4.115,5.545,5.545,0,0,0-2.1-.408c-3.906,0-7.385,3.87-10.455,7.283l-.279.31a34.58,34.58,0,0,0,1.477-5c.735-3.409-.381-5.893-3.514-7.818a10.136,10.136,0,0,0-5.08-1.564,6.273,6.273,0,0,0-3.5,1.007c-2.7,1.769-2.667,4.458-2.647,6.237,0,.421.01.818-.012,1.187a8.376,8.376,0,0,1-2.034,4.944c-.269.292-.457.292-.528.292a1.343,1.343,0,0,1-.951-.577,1.245,1.245,0,0,1-.23-1.1,31.923,31.923,0,0,1,1.263-3.182c1.484-3.415,3.166-7.285,1.908-10.9a6.719,6.719,0,0,0-6.4-4.753,8.376,8.376,0,0,0-5.344,2.073c-1.271,1.073-2.367,3.23-3.9,6.4a29.235,29.235,0,0,1-1.766,3.362c-.151.194-.3.4-.455.6-.252.335-.624.833-.916,1.143-.031-.033-.065-.071-.1-.112-.917-1.056-.5-2.6.291-5.015.182-.554.371-1.127.524-1.691.412-1.508,1.2-5.321-.418-8.138a5.7,5.7,0,0,0-3.534-2.712,8.107,8.107,0,0,0-2.143-.309c-3.421,0-5.134,2.591-6.509,4.672-1.083,1.637-2.006,3.362-2.9,5.03l-.527.982c.052-.741.125-1.511.186-2.154a33.905,33.905,0,0,0,.225-6.2c-.4-4.017-2.679-4.87-4-5.021a4.327,4.327,0,0,0-.493-.028Z"/><g class="cls-19"><path class="cls-25" d="M890.5,90.656c-4.658,3.422-4.85,4.979-7.6,9.711-3.864.33-49.549-13.069-53.913-13.619,4.879,2.416,14.585,6.022,25.93,9.515,16.635,5.122,30.493,8.061,30.955,6.563.1-.316.267-.9.267-.9.631-2.047,2.04-7.579,4.6-9.281,2.179-1.447,4.727-2.036,6.315-4.366C894.829,87.971,892.258,89.437,890.5,90.656Z"/></g><path class="cls-38" d="M805.375,109.986a9.6,9.6,0,1,0-.057,0Z"/><path class="cls-18" d="M805.374,91.85h.047a8.467,8.467,0,0,1-.046,16.934h-.051a8.467,8.467,0,0,1,.05-16.934m0-2.4a10.871,10.871,0,0,0-.064,21.741h.065a10.871,10.871,0,0,0,.06-21.742Z"/><g class="cls-19"><path class="cls-38" d="M806.312,91.9a8.467,8.467,0,0,1-4.055,15.926,8.666,8.666,0,0,1-.89-.052A8.467,8.467,0,1,0,806.312,91.9Z"/></g><path class="cls-39" d="M798.612,100.28c.228-3.541,3.819-7.22,6.8-7.026a4.625,4.625,0,0,1,2.251.772,4.183,4.183,0,0,0-3.432-1.551c-2.961-.191-6.39,2.922-6.606,6.281-.116,1.784.058,3.666,1.067,4.848A8.283,8.283,0,0,1,798.612,100.28Z"/><path class="cls-18" d="M803.7,104.136a2.554,2.554,0,0,1-1.19,2.981c-1.054.509-2.489-.3-2.913-1.879s.415-2.97,1.581-3.061A2.525,2.525,0,0,1,803.7,104.136Z"/><path class="cls-40" d="M803.567,91.656a16.565,16.565,0,0,0-.1,17.3"/><path class="cls-18" d="M807.006,104.155a2.555,2.555,0,0,0,1.154,3c1.05.52,2.493-.272,2.935-1.846s-.382-2.975-1.545-3.079A2.523,2.523,0,0,0,807.006,104.155Z"/><path class="cls-40" d="M807.28,91.677a16.569,16.569,0,0,1-.1,17.3"/><g class="cls-19"><path class="cls-25" d="M845.105,80.722a4.237,4.237,0,0,0,2.221,2.121,3.376,3.376,0,0,0,3.225-.287c-.658.173-1.391-.072-2.245-1.054-2.258-2.6-.433-6.05.328-8.837a13.971,13.971,0,0,0,.423-2.266C846.28,73.067,844.317,76.652,845.105,80.722Z"/></g><g class="cls-19"><path class="cls-25" d="M863.306,88.122a1.706,1.706,0,0,0,1.444.368,3.629,3.629,0,0,1-1.2-3.806c1.021-3.367,3.991-7.951,3.436-11.672C864.443,78.034,859.931,82.607,863.306,88.122Z"/></g><g class="cls-19"><path class="cls-25" d="M879.363,91.988l.02-.006c-.448-1.368.33-2.855.846-4.086A32.307,32.307,0,0,0,882,82.256a4.252,4.252,0,0,0-.752-3.953c-.9,1.818-2.25,3.468-3.27,5.354C876.738,86.51,875.473,92.947,879.363,91.988Z"/></g><path class="cls-22" d="M843.716,68.221c-1.4,1.343-1.683,3.311-2.529,2.431s-.4-2.684,1-4.026,3.216-1.717,4.062-.836S845.113,66.878,843.716,68.221Z"/><path class="cls-22" d="M860.794,72.851c-1.4,1.342-1.682,3.312-2.528,2.431s-.4-2.684,1-4.026,3.215-1.717,4.063-.836S862.191,71.509,860.794,72.851Z"/><path class="cls-22" d="M830.377,65.192c-.449,1.2-.059,2.45-.813,2.167s-1-1.484-.553-2.681,1.426-1.937,2.182-1.654S830.828,64,830.377,65.192Z"/><path class="cls-22" d="M875.123,79.029c-1.025.986-1.011,2.666-1.857,1.786a2.606,2.606,0,0,1,3.714-3.571C877.828,78.125,876.149,78.044,875.123,79.029Z"/><path class="cls-18" d="M880.86,120.622a1.867,1.867,0,0,1,.726-.646,6.957,6.957,0,0,1,.864-.431,4.69,4.69,0,0,1,.855-.3,2.605,2.605,0,0,1,.744-.018,2.014,2.014,0,0,1,1.214.59,2.369,2.369,0,0,1,.611,1.22,9.157,9.157,0,0,1-.167,3.5,14.807,14.807,0,0,1-1.449,3.616,6.789,6.789,0,0,0,2.954-3.091,7.325,7.325,0,0,0,.642-4.456,4.687,4.687,0,0,0-.454-1.211,3.785,3.785,0,0,0-.882-1.031,3.39,3.39,0,0,0-2.51-.726,3.221,3.221,0,0,0-1.225.391,5.156,5.156,0,0,0-1.592,1.554A1.64,1.64,0,0,0,880.86,120.622Z"/><path class="cls-18" d="M885.723,122.782a4.95,4.95,0,0,0-2.864.7,7.716,7.716,0,0,0-2.239,1.92,7.3,7.3,0,0,0-1.348,2.643,4.429,4.429,0,0,0,.137,2.964,17.075,17.075,0,0,1,1.326-2.331c.466-.7.96-1.363,1.474-2.018s1.056-1.291,1.626-1.925S885,123.473,885.723,122.782Z"/></g></g></svg>