<svg xmlns="http://www.w3.org/2000/svg" xmlns:xlink="http://www.w3.org/1999/xlink" viewBox="0 0 1000.001 216"><defs><style>.cls-1{mask:url(#mask);filter:url(#luminosity-noclip-3);}.cls-11,.cls-13,.cls-18,.cls-2,.cls-20,.cls-22,.cls-25,.cls-4,.cls-9{mix-blend-mode:multiply;}.cls-2{fill:url(#linear-gradient);}.cls-3{mask:url(#mask-2);filter:url(#luminosity-noclip-4);}.cls-4{fill:url(#linear-gradient-2);}.cls-5{isolation:isolate;}.cls-6{fill:#e3b872;}.cls-7{fill:#fdfbe1;}.cls-8{mask:url(#mask-3);}.cls-13,.cls-9{opacity:0.7;}.cls-9{fill:url(#linear-gradient-3);}.cls-10,.cls-11{fill:#c0843e;}.cls-11{opacity:0.4;}.cls-12{mask:url(#mask-4);}.cls-13{fill:url(#linear-gradient-4);}.cls-14{fill:#78263f;}.cls-15{fill:#fdcc7e;}.cls-16,.cls-25{fill:#fccbaa;}.cls-17,.cls-30{fill:#3c2415;}.cls-19,.cls-22{fill:#f37f94;}.cls-20,.cls-22{opacity:0.2;}.cls-21,.cls-23,.cls-38{fill:#fff;}.cls-21,.cls-29{opacity:0.3;}.cls-24{fill:#d1d3d4;}.cls-26,.cls-27,.cls-39,.cls-40{fill:none;}.cls-26,.cls-27,.cls-30,.cls-31,.cls-39,.cls-40{stroke:#3c2415;}.cls-26,.cls-27,.cls-30,.cls-31{stroke-linecap:round;stroke-miterlimit:10;}.cls-26{stroke-width:1.989px;}.cls-27{stroke-width:1.903px;}.cls-28{fill:#cd393a;}.cls-30,.cls-31{stroke-width:2.797px;}.cls-31{fill:#f9a676;}.cls-32{fill:#fbb040;}.cls-33{fill:#00a79d;}.cls-34{fill:#8dc63f;}.cls-35{fill:#939598;}.cls-36{fill:#27aae1;}.cls-37{fill:#ffc709;}.cls-38{opacity:0.6;}.cls-39,.cls-40{stroke-linecap:square;stroke-linejoin:round;}.cls-39{stroke-width:1.162px;}.cls-40{stroke-width:1.023px;}.cls-41{fill:#5761ac;}.cls-42{fill:#231f20;}.cls-43{filter:url(#luminosity-noclip-2);}.cls-44{filter:url(#luminosity-noclip);}</style><filter id="luminosity-noclip" x="79.875" y="-8314.443" width="87.686" height="32766" filterUnits="userSpaceOnUse" color-interpolation-filters="sRGB"><feFlood flood-color="#fff" result="bg"/><feBlend in="SourceGraphic" in2="bg"/></filter><mask id="mask" x="79.875" y="-8314.443" width="87.686" height="32766" maskUnits="userSpaceOnUse"><g class="cls-44"/></mask><linearGradient id="linear-gradient" x1="90.413" y1="161.418" x2="150.475" y2="138.262" gradientUnits="userSpaceOnUse"><stop offset="0.051"/><stop offset="0.281" stop-color="#4c4c4c"/><stop offset="0.531" stop-color="#989898"/><stop offset="0.738" stop-color="#d0d0d0"/><stop offset="0.891" stop-color="#f2f2f2"/><stop offset="0.973" stop-color="#fff"/></linearGradient><filter id="luminosity-noclip-2" x="833.27" y="-8314.443" width="92.108" height="32766" filterUnits="userSpaceOnUse" color-interpolation-filters="sRGB"><feFlood flood-color="#fff" result="bg"/><feBlend in="SourceGraphic" in2="bg"/></filter><mask id="mask-2" x="833.27" y="-8314.443" width="92.108" height="32766" maskUnits="userSpaceOnUse"><g class="cls-43"/></mask><linearGradient id="linear-gradient-2" x1="910.992" y1="153.107" x2="854.225" y2="143.235" xlink:href="#linear-gradient"/><filter id="luminosity-noclip-3" x="79.875" y="104.087" width="87.686" height="87.236" filterUnits="userSpaceOnUse" color-interpolation-filters="sRGB"><feFlood flood-color="#fff" result="bg"/><feBlend in="SourceGraphic" in2="bg"/></filter><mask id="mask-3" x="79.875" y="104.087" width="87.686" height="87.236" maskUnits="userSpaceOnUse"><g class="cls-1"><path class="cls-2" d="M166.207,180.489a23.386,23.386,0,0,1-1.5-5.238c-.727-3.771-1.612-7.535-2.38-11.3-.719-3.5-1.621-6.983-2.465-10.476-.508-2.1.525-5.212-2.381-6.457-3.97-1.71-5.848-5.326-7.645-8.382a65.067,65.067,0,0,1-4.981-11.183c-2.124-5.926-4.343-12.484-8.885-17.661-4.087-4.66-11.1-5.785-18.047-5.7-1.411.02-2.767.034-4.164.182-1.831.2-3.57-.134-5.412,0a10.619,10.619,0,0,0-3.557,1.286,8.86,8.86,0,0,1-1.176.444c.008-.013.022-.021.031-.034s-.009-.039-.031-.02-.068.054-.1.081a17.78,17.78,0,0,0-2.65.9c-.373.183-.3.753.219.546.225-.095.449-.175.683-.256-3.144,1.716-7.766,2.619-11.148,3.392a42.975,42.975,0,0,1-6.607.762,26.583,26.583,0,0,0-4.132.673C87.7,138.705,97.455,165,107.053,191.323c4.456-.748,8.938-1.428,13.39-2.129a232.884,232.884,0,0,1,28.229-2.82c5.408-.188,10.87-.317,16.273-.727,1.6-.216,2.668-.391,2.614-.688A26.735,26.735,0,0,0,166.207,180.489Z"/></g></mask><linearGradient id="linear-gradient-3" x1="90.413" y1="161.418" x2="150.475" y2="138.262" gradientUnits="userSpaceOnUse"><stop offset="0.051" stop-color="#ccd8d4"/><stop offset="0.377" stop-color="#aca48b"/><stop offset="0.655" stop-color="#947d53"/><stop offset="0.862" stop-color="#856431"/><stop offset="0.973" stop-color="#7f5b24"/></linearGradient><filter id="luminosity-noclip-4" x="833.27" y="104.087" width="92.108" height="86.622" filterUnits="userSpaceOnUse" color-interpolation-filters="sRGB"><feFlood flood-color="#fff" result="bg"/><feBlend in="SourceGraphic" in2="bg"/></filter><mask id="mask-4" x="833.27" y="104.087" width="92.108" height="86.622" maskUnits="userSpaceOnUse"><g class="cls-3"><path class="cls-4" d="M890.021,190.71c2.838-8.148,5.857-16.254,9.307-24.265,7.663-17.83,16.77-35.261,26.05-52.638-1.436.692-2.165,3.473-3,4.255a2.2,2.2,0,0,0-.468.532,8.737,8.737,0,0,1,.162-1.535,23.941,23.941,0,0,1,1.223-4.054c.107-.25-.144-.485-.468-.553a44.127,44.127,0,0,0-6-1.076,43.084,43.084,0,0,1-6.611-.762c-3.379-.773-8-1.676-11.14-3.392.225.081.45.161.681.256.5.207.594-.363.217-.546a17.748,17.748,0,0,0-2.66-.9.723.723,0,0,0-.089-.081c-.026-.019-.053,0-.036.02s.027.021.036.034a8.424,8.424,0,0,1-1.177-.444,10.591,10.591,0,0,0-3.565-1.286c-1.832-.134-3.575.2-5.41,0-1.392-.148-2.749-.162-4.158-.182-6.945-.082-13.968,1.043-18.047,5.7-4.545,5.177-6.764,11.735-8.885,17.661A65.626,65.626,0,0,1,851,138.638c-1.8,3.056-3.667,6.672-7.647,8.382-2.9,1.245-1.878,4.357-2.38,6.457-.844,3.493-1.742,6.975-2.462,10.476-.772,3.763-1.653,7.527-2.38,11.3a23.533,23.533,0,0,1-1.5,5.238,26.112,26.112,0,0,0-1.356,4.47c-.063.3,1.016.472,2.616.688,5.4.41,10.859.539,16.275.727a233.156,233.156,0,0,1,28.226,2.82C883.588,189.7,886.805,190.2,890.021,190.71Z"/></g></mask><linearGradient id="linear-gradient-4" x1="910.992" y1="153.107" x2="854.225" y2="143.235" xlink:href="#linear-gradient-3"/></defs><g class="cls-5"><g id="Capa_1" data-name="Capa 1"><path class="cls-6" d="M65.281,190.844c-.543,1.724,1.374,4.693,1.815,6.289.413,1.467.315,3.245,1.437,4.531,3.14-1.138,6.144-2.538,9.4-3.488,2.833-.827,5.677-1.67,8.548-2.457a5.751,5.751,0,0,0,.039-.673c.139.182.293.363.445.538,1.564-.423,3.131-.841,4.707-1.225.252-.06.509-.114.759-.175a.285.285,0,0,0,.04-.21c-.525-2.154-1.544-4.126-1.742-6.34a10.89,10.89,0,0,1,.031-1.987c.912,1.731,5.1,7.52,6.365,7.413.315-.027.611-.061.912-.095,7.389-1.488,14.943-2.592,22.409-3.771a232.884,232.884,0,0,1,28.229-2.82c5.408-.188,10.87-.317,16.273-.727,1.6-.216,2.668-.391,2.614-.688a26.735,26.735,0,0,0-1.352-4.47,23.386,23.386,0,0,1-1.5-5.238c-.727-3.771-1.612-7.535-2.38-11.3-.719-3.5-1.621-6.983-2.465-10.476-.508-2.1.525-5.212-2.381-6.457-3.97-1.71-5.848-5.326-7.645-8.382a65.067,65.067,0,0,1-4.981-11.183c-2.124-5.926-4.343-12.484-8.885-17.661-4.087-4.66-11.1-5.785-18.047-5.7-1.411.02-2.767.034-4.164.182-1.831.2-3.57-.134-5.412,0a10.619,10.619,0,0,0-3.557,1.286,8.86,8.86,0,0,1-1.176.444c.008-.013.022-.021.031-.034s-.009-.039-.031-.02-.068.054-.1.081a17.78,17.78,0,0,0-2.65.9c-.373.183-.3.753.219.546.225-.095.449-.175.683-.256-3.144,1.716-7.766,2.619-11.148,3.392a42.975,42.975,0,0,1-6.607.762A44.692,44.692,0,0,0,78,112.452c-.318.068-.566.3-.458.553a24.805,24.805,0,0,1,1.226,4.054,8.191,8.191,0,0,1,.148,1.535,1.722,1.722,0,0,0-.467-.532c-.934-.876-1.734-4.316-3.579-4.417a.654.654,0,0,0-.611.337c-.531,1.091-2.924,2.342-4.074,2.983a32.921,32.921,0,0,1-6.36,2.591c-4.038,1.233-8.121,2.37-12.227,3.468-2.241.6-4.473,1.022-6.769,1.454-1.419.262-2.995-.176-4.357.249a19.244,19.244,0,0,0-7.375,4.4c-.161.147-.363.638.126.613a17.928,17.928,0,0,1,5.355.4c-1.375,1.616-.6,4.06-.6,5.877,0,1.018,1.855,2.163,2.344,3.044.516.929,1.092,1.838,1.609,2.767a9.713,9.713,0,0,1,.678,3.3c.031.175.261.269.48.229,1.348-.242,2.547-.782,3.908-1,2.021-.316,4.132-.295,6.185-.538a27.574,27.574,0,0,0-4.267,1.905,18.76,18.76,0,0,0-3.661,1.946c-1.32,1.063,1.667,3.037,2.278,3.81,2.259,2.895,2.559,6.6,3.373,9.837.655,2.6,2.4,5.111,4.059,7.42,1.038,1.448,2.067,2.437,2.359,4.14.08.452-.2,1.522.255,1.907a1.165,1.165,0,0,0,1.08.241,20.456,20.456,0,0,1,3.409-.686,8.148,8.148,0,0,0-.706.579c-.755.707-2.057,1.266-2.484,2.148-.485,1,1.532,2.35,2.178,3.063,1.385,1.522,2.022,4.255,1.236,5.918-.432.909-1.1,1.522.085,2.209C63.848,189.114,65.8,189.229,65.281,190.844Z"/><path class="cls-7" d="M84.007,111.376l-.912.107c-.306.04-.611.055-.9.121-.6.115-1.2.216-1.784.351l-1.769.4a4.36,4.36,0,0,0-.848.222.4.4,0,0,0-.216.263c-.027.095.04.2.076.317l.48,1.339c.073.222.176.438.229.666l.18.681.18.679a5.952,5.952,0,0,1,.167.688,10.34,10.34,0,0,1,.143,1.38.1.1,0,0,1-.108.087.129.129,0,0,1-.113-.053l0-.008a4.418,4.418,0,0,0-.526-.579,3.285,3.285,0,0,1-.467-.659c-.261-.451-.481-.909-.723-1.36a10.071,10.071,0,0,0-.814-1.307,2.177,2.177,0,0,0-1.266-.909c-.054-.006-.162-.041-.175-.019-.085.006-.166.013-.184.04a.535.535,0,0,0-.216.2,3.209,3.209,0,0,1-.5.653,7.875,7.875,0,0,1-1.37,1.091,35.518,35.518,0,0,1-3.12,1.771c-.527.289-1.1.532-1.667.78s-1.15.458-1.739.681c-1.167.43-2.385.8-3.6,1.144l-7.278,2.074c-1.216.35-2.407.7-3.655,1.044-1.241.283-2.462.6-3.724.855l-1.892.377a11.1,11.1,0,0,1-1.957.283c-1.361.04-2.632-.189-3.719.289a16.155,16.155,0,0,0-3.252,1.5,19.951,19.951,0,0,0-2.777,1.986c-.211.175-.412.364-.624.546l-.152.14-.059.047c-.022.028-.058.061-.058.075a.374.374,0,0,0-.059.189c.005.02,0-.014-.04-.028-.009-.013-.031,0,.076-.006l.486-.013c.328-.007.646-.022.98-.022a18.976,18.976,0,0,1,3.934.439c.175.033.274.175.229.3l-.018.034-.023.041c-.13.209-.279.411-.4.625-.077.237-.175.459-.234.694-.032.236-.081.478-.1.721l-.013.734c.021.491.062.989.116,1.495l.077.754.018.39.008.188.005.094v.047c0,.008-.005-.072,0-.033l.008.047a2.362,2.362,0,0,0,.09.364c.054.087.108.181.158.269a6.039,6.039,0,0,0,.516.606c.373.4.817.775,1.209,1.219a10.568,10.568,0,0,1,.9,1.407l.809,1.381.2.35.054.081a.7.7,0,0,1,.05.12l.071.175a3.475,3.475,0,0,1,.265.741c.053.263.121.539.149.794l.081.755.1.739,0,.049h0c.023.06-.021-.074-.018-.054l.005,0,.013.028a.809.809,0,0,0,.041.074c0-.027-.014-.047-.041-.06s0-.006,0-.006,0,0,.028,0l.243-.055c.66-.135,1.234-.316,1.868-.5a14.552,14.552,0,0,1,1.994-.458c.665-.074,1.321-.169,2.008-.208l2.021-.136c.669-.033,1.316-.107,1.976-.16l.117.538-.31.074-.35.135c-.233.079-.467.2-.7.3-.463.209-.926.432-1.388.661l-1.393.7-1.414.646c-.485.208-.912.451-1.353.687-.2.121-.39.262-.588.391a1.489,1.489,0,0,0-.255.187c-.081.081-.18.177-.172.224a1.043,1.043,0,0,0,.247.975,6.783,6.783,0,0,0,.89,1l1.046.971a2.762,2.762,0,0,1,.472.565l.373.56a8.1,8.1,0,0,1,.656,1.17,9.66,9.66,0,0,1,.516,1.2,19.7,19.7,0,0,1,.728,2.452c.206.821.364,1.648.539,2.47.085.405.175.815.269,1.225l.139.6.185.612a13.7,13.7,0,0,0,.983,2.344,25.927,25.927,0,0,0,1.348,2.263c.486.739,1.006,1.474,1.527,2.2s1.119,1.427,1.586,2.208a4.575,4.575,0,0,1,.754,2.491,2.519,2.519,0,0,0,.1,1.159.639.639,0,0,0,.193.188,1.34,1.34,0,0,0,.274.128.991.991,0,0,0,.637-.068,13.293,13.293,0,0,1,1.617-.369l1.636-.257a.222.222,0,0,1,.26.128.143.143,0,0,1-.058.148h0c-.486.384-.934.808-1.5,1.186a7.023,7.023,0,0,0-1.442,1.157c-.081.1-.153.236-.211.325a1.488,1.488,0,0,0-.058.194c0,.054,0,.1,0,.156a1.461,1.461,0,0,0,.319.705,9.2,9.2,0,0,0,1.262,1.287,5.857,5.857,0,0,1,.682.666,6.859,6.859,0,0,1,.516.721,6.627,6.627,0,0,1,.692,1.575,6.449,6.449,0,0,1,.279,1.642,4.2,4.2,0,0,1-.032.829,3.082,3.082,0,0,1-.188.815c-.14.551-.566,1.023-.706,1.535a.773.773,0,0,0,.247.693c.122.088.248.182.373.263.149.086.3.161.446.235a20.411,20.411,0,0,1,1.858.856,1.391,1.391,0,0,1,.616.692,1.431,1.431,0,0,1-.022.835,3.122,3.122,0,0,0-.005,1.6,9.3,9.3,0,0,0,.494,1.582c.4,1.044.93,2.062,1.249,3.118-.337-1.056-.894-2.06-1.317-3.1a10.913,10.913,0,0,1-.53-1.581,3.337,3.337,0,0,1-.026-1.637,1.116,1.116,0,0,0-.571-1.414c-.548-.33-1.235-.531-1.859-.828-.158-.068-.306-.148-.453-.229s-.284-.189-.418-.29a.9.9,0,0,1-.315-.828c.149-.559.561-1.029.678-1.556a2.853,2.853,0,0,0,.162-.779,4,4,0,0,0,.013-.8,6.022,6.022,0,0,0-.3-1.588,6.456,6.456,0,0,0-.692-1.5,5.717,5.717,0,0,0-.526-.706,6.075,6.075,0,0,0-.647-.627,9.842,9.842,0,0,1-1.32-1.326,1.772,1.772,0,0,1-.373-.829,1.157,1.157,0,0,1,.01-.249c.013-.073.04-.134.058-.2a2.9,2.9,0,0,1,.256-.411,7.516,7.516,0,0,1,1.5-1.233c.517-.35.966-.774,1.482-1.185l.2.283a21.609,21.609,0,0,0-3.176.627,3.252,3.252,0,0,1-.439.107,1.37,1.37,0,0,1-.527-.04,1.641,1.641,0,0,1-.435-.2,1.023,1.023,0,0,1-.3-.3,2.575,2.575,0,0,1-.148-1.313,3.067,3.067,0,0,0-.189-1.185,5.95,5.95,0,0,0-.538-1.138c-.45-.74-1.061-1.447-1.586-2.175s-1.06-1.467-1.554-2.214-.957-1.509-1.383-2.29a14.854,14.854,0,0,1-1.029-2.4l-.184-.612-.149-.619c-.1-.411-.193-.822-.278-1.232-.18-.822-.346-1.643-.557-2.451a18.408,18.408,0,0,0-.732-2.41,9.842,9.842,0,0,0-.5-1.165,8.329,8.329,0,0,0-.637-1.125l-.378-.551a2.279,2.279,0,0,0-.407-.492l-1.057-.962a7.119,7.119,0,0,1-.965-1.072,1.366,1.366,0,0,1-.27-1.406,7.11,7.11,0,0,1,2.61-1.725l1.419-.653,1.37-.693q.689-.354,1.411-.687c.246-.1.48-.215.741-.316l.4-.149c.158-.04.323-.081.48-.113a.4.4,0,0,1,.459.181c.057.148-.05.3-.248.343a.149.149,0,0,1-.058.007l-.036.007c-.674.06-1.357.141-2.025.175l-1.99.141c-.652.034-1.32.136-1.981.215a13.347,13.347,0,0,0-1.846.432c-.624.181-1.284.39-1.918.518l-.242.06a1.183,1.183,0,0,1-.467,0,.957.957,0,0,1-.235-.079.934.934,0,0,1-.219-.19.578.578,0,0,1-.054-.1l-.014-.019,0-.015c0,.015-.039-.121-.026-.067v-.007l0-.047-.094-.767-.071-.747c-.033-.25-.086-.472-.122-.7a3.615,3.615,0,0,0-.256-.72L41.6,142c0-.019-.032-.088-.027-.068l-.049-.08-.2-.35-.794-1.387a10.028,10.028,0,0,0-.827-1.319c-.342-.4-.791-.782-1.187-1.206a6.273,6.273,0,0,1-.566-.673c-.075-.135-.152-.284-.219-.425a2.523,2.523,0,0,1-.09-.376l-.009-.048-.009-.08,0-.1-.005-.181-.014-.371-.067-.753q-.079-.749-.108-1.515l.019-.775c.021-.263.076-.525.115-.782.068-.262.177-.517.271-.773.134-.243.31-.485.467-.728l.183.372a18.043,18.043,0,0,0-3.731-.438c-.32,0-.647.013-.967.019l-.494.014a1.063,1.063,0,0,1-.391-.054.437.437,0,0,1-.292-.323.7.7,0,0,1,.149-.5.834.834,0,0,1,.072-.088c.058-.06.063-.053.094-.088l.162-.141c.215-.181.422-.377.642-.559a21.068,21.068,0,0,1,2.866-2.026c.512-.31,1.069-.578,1.621-.849a18.3,18.3,0,0,1,1.756-.686,6.2,6.2,0,0,1,.975-.27,8.674,8.674,0,0,1,1.025-.073c.668,0,1.325.047,1.931.032a10.153,10.153,0,0,0,1.85-.267l1.878-.358c1.252-.248,2.483-.573,3.723-.848l3.633-1.017,7.3-2.047c1.221-.337,2.411-.693,3.575-1.117.574-.217,1.168-.411,1.711-.667.558-.236,1.114-.471,1.648-.754,1.083-.539,2.111-1.118,3.095-1.737a8.219,8.219,0,0,0,1.312-1.016,2.906,2.906,0,0,0,.476-.607.8.8,0,0,1,.422-.336.683.683,0,0,1,.273-.061.94.94,0,0,1,.3.026,1.865,1.865,0,0,1,.89.432,3.323,3.323,0,0,1,.574.62,9.036,9.036,0,0,1,.809,1.345c.229.452.445.916.691,1.361a3.358,3.358,0,0,0,.428.633,3.821,3.821,0,0,1,.547.632l-.224.028a9.512,9.512,0,0,0-.112-1.375,5.11,5.11,0,0,0-.149-.673l-.166-.679-.166-.681c-.049-.221-.148-.444-.216-.665l-.453-1.341a.783.783,0,0,1-.072-.356.505.505,0,0,1,.26-.311,4.775,4.775,0,0,1,.889-.221l1.776-.378c.592-.126,1.194-.222,1.79-.329.3-.062.607-.075.913-.115Z"/><g class="cls-8"><path class="cls-9" d="M166.207,180.489a23.386,23.386,0,0,1-1.5-5.238c-.727-3.771-1.612-7.535-2.38-11.3-.719-3.5-1.621-6.983-2.465-10.476-.508-2.1.525-5.212-2.381-6.457-3.97-1.71-5.848-5.326-7.645-8.382a65.067,65.067,0,0,1-4.981-11.183c-2.124-5.926-4.343-12.484-8.885-17.661-4.087-4.66-11.1-5.785-18.047-5.7-1.411.02-2.767.034-4.164.182-1.831.2-3.57-.134-5.412,0a10.619,10.619,0,0,0-3.557,1.286,8.86,8.86,0,0,1-1.176.444c.008-.013.022-.021.031-.034s-.009-.039-.031-.02-.068.054-.1.081a17.78,17.78,0,0,0-2.65.9c-.373.183-.3.753.219.546.225-.095.449-.175.683-.256-3.144,1.716-7.766,2.619-11.148,3.392a42.975,42.975,0,0,1-6.607.762,26.583,26.583,0,0,0-4.132.673C87.7,138.705,97.455,165,107.053,191.323c4.456-.748,8.938-1.428,13.39-2.129a232.884,232.884,0,0,1,28.229-2.82c5.408-.188,10.87-.317,16.273-.727,1.6-.216,2.668-.391,2.614-.688A26.735,26.735,0,0,0,166.207,180.489Z"/></g><path class="cls-10" d="M125.073,172.477l-3.373,4.276s-1.01.962,6.141,1.689,35.106,2.984,39.741,6.517l-5.611-24.419Z"/><path class="cls-11" d="M123.255,177.729c10.325-3.48,20.846-6.814,31.826-8.875,2.812-.531,5.638-.99,8.476-1.419l-1.586-6.9-36.9,11.937-3.373,4.276S121.224,177.2,123.255,177.729Z"/><path class="cls-6" d="M935.547,190.844c.548,1.724-1.366,4.693-1.815,6.289-.4,1.467-.314,3.245-1.436,4.531-3.135-1.138-6.145-2.538-9.4-3.488-2.832-.827-5.677-1.67-8.552-2.457-.019-.222-.036-.444-.036-.673-.145.182-.287.363-.442.538-1.562-.423-3.133-.841-4.716-1.225-.251-.06-.5-.114-.753-.175a.292.292,0,0,1-.036-.21c.521-2.154,1.544-4.126,1.742-6.34a10.543,10.543,0,0,0-.036-1.987c-.908,1.731-5.1,7.52-6.36,7.413-.314-.027-.611-.061-.917-.095-7.384-1.488-14.939-2.592-22.4-3.771a233.156,233.156,0,0,0-28.226-2.82c-5.416-.188-10.878-.317-16.275-.727-1.6-.216-2.679-.391-2.616-.688a26.112,26.112,0,0,1,1.356-4.47,23.533,23.533,0,0,0,1.5-5.238c.727-3.771,1.608-7.535,2.38-11.3.72-3.5,1.618-6.983,2.462-10.476.5-2.1-.521-5.212,2.38-6.457,3.98-1.71,5.849-5.326,7.647-8.382a65.626,65.626,0,0,0,4.984-11.183c2.121-5.926,4.34-12.484,8.885-17.661,4.079-4.66,11.1-5.785,18.047-5.7,1.409.02,2.766.034,4.158.182,1.835.2,3.578-.134,5.41,0a10.591,10.591,0,0,1,3.565,1.286,8.424,8.424,0,0,0,1.177.444c-.009-.013-.026-.021-.036-.034s.01-.039.036-.02a.723.723,0,0,1,.089.081,17.748,17.748,0,0,1,2.66.9c.377.183.288.753-.217.546-.231-.095-.456-.175-.681-.256,3.136,1.716,7.761,2.619,11.14,3.392a43.084,43.084,0,0,0,6.611.762,44.127,44.127,0,0,1,6,1.076c.324.068.575.3.468.553a23.941,23.941,0,0,0-1.223,4.054,8.737,8.737,0,0,0-.162,1.535,2.2,2.2,0,0,1,.468-.532c.944-.876,1.743-4.316,3.585-4.417a.64.64,0,0,1,.61.337c.531,1.091,2.928,2.342,4.079,2.983a32.792,32.792,0,0,0,6.36,2.591c4.034,1.233,8.12,2.37,12.226,3.468,2.237.6,4.475,1.022,6.765,1.454,1.419.262,3-.176,4.364.249a19.272,19.272,0,0,1,7.367,4.4c.161.147.369.638-.126.613a17.927,17.927,0,0,0-5.353.4c1.373,1.616.593,4.06.593,5.877,0,1.018-1.851,2.163-2.346,3.044-.512.929-1.086,1.838-1.6,2.767a9.555,9.555,0,0,0-.683,3.3c-.026.175-.26.269-.475.229-1.35-.242-2.551-.782-3.908-1-2.023-.316-4.132-.295-6.191-.538a27.49,27.49,0,0,1,4.267,1.905,18.783,18.783,0,0,1,3.667,1.946c1.31,1.063-1.673,3.037-2.274,3.81-2.264,2.895-2.561,6.6-3.377,9.837-.656,2.6-2.4,5.111-4.062,7.42-1.04,1.448-2.066,2.437-2.36,4.14-.083.452.195,1.522-.254,1.907a1.172,1.172,0,0,1-1.086.241,20.143,20.143,0,0,0-3.4-.686,7.248,7.248,0,0,1,.7.579c.762.707,2.066,1.266,2.488,2.148.485,1-1.528,2.35-2.184,3.063-1.374,1.522-2.021,4.255-1.231,5.918.442.909,1.105,1.522-.08,2.209C936.986,189.114,935.036,189.229,935.547,190.844Z"/><g class="cls-12"><path class="cls-13" d="M890.021,190.71c2.838-8.148,5.857-16.254,9.307-24.265,7.663-17.83,16.77-35.261,26.05-52.638-1.436.692-2.165,3.473-3,4.255a2.2,2.2,0,0,0-.468.532,8.737,8.737,0,0,1,.162-1.535,23.941,23.941,0,0,1,1.223-4.054c.107-.25-.144-.485-.468-.553a44.127,44.127,0,0,0-6-1.076,43.084,43.084,0,0,1-6.611-.762c-3.379-.773-8-1.676-11.14-3.392.225.081.45.161.681.256.5.207.594-.363.217-.546a17.748,17.748,0,0,0-2.66-.9.723.723,0,0,0-.089-.081c-.026-.019-.053,0-.036.02s.027.021.036.034a8.424,8.424,0,0,1-1.177-.444,10.591,10.591,0,0,0-3.565-1.286c-1.832-.134-3.575.2-5.41,0-1.392-.148-2.749-.162-4.158-.182-6.945-.082-13.968,1.043-18.047,5.7-4.545,5.177-6.764,11.735-8.885,17.661A65.626,65.626,0,0,1,851,138.638c-1.8,3.056-3.667,6.672-7.647,8.382-2.9,1.245-1.878,4.357-2.38,6.457-.844,3.493-1.742,6.975-2.462,10.476-.772,3.763-1.653,7.527-2.38,11.3a23.533,23.533,0,0,1-1.5,5.238,26.112,26.112,0,0,0-1.356,4.47c-.063.3,1.016.472,2.616.688,5.4.41,10.859.539,16.275.727a233.156,233.156,0,0,1,28.226,2.82C883.588,189.7,886.805,190.2,890.021,190.71Z"/></g><path class="cls-10" d="M875.756,172.477l3.376,4.276s1.007.962-6.145,1.689-35.1,2.984-39.741,6.517l5.614-24.419Z"/><path class="cls-11" d="M862.227,173.09a149.82,149.82,0,0,1,15.414,4.619c1.96-.512,1.491-.956,1.491-.956l-3.376-4.276-36.9-11.937-1.911,8.349A129.892,129.892,0,0,1,862.227,173.09Z"/><path class="cls-14" d="M95.622,73.348a13.065,13.065,0,0,0-1.334.6L98.007,72.4C97.213,72.715,96.408,73.025,95.622,73.348Z"/><path class="cls-15" d="M879.482,176.753l3.667-13.432,24.371-89.34C864.419,54.914,583.365,42.37,500.593,42.37S136.774,54.914,93.66,73.981l24.38,89.34,3.66,13.432C155.324,159.6,427.288,148.01,500.593,148.01S845.86,159.6,879.482,176.753Z"/><path class="cls-7" d="M118.04,163.616a.383.383,0,0,1-.383-.235L93.277,74.042a.273.273,0,0,1,.185-.31c44.8-19.822,327.28-31.651,407.131-31.651S862.927,53.91,907.717,73.732c.2.081.252.263.143.4a.474.474,0,0,1-.538.109C862.64,54.469,580.307,42.667,500.593,42.667c-79.571,0-361.784,11.755-406.494,31.462l24.322,89.131c.04.161-.089.317-.305.35C118.09,163.61,118.062,163.616,118.04,163.616Z"/><path class="cls-16" d="M874.881,173.726c4.484,0,12.951-3.627,15.734-4.818l.343-.147.021.014.477-.214c.738-.333,18.138-8.219,22.509-14.553,2.048-2.969,2.408-7.325,1-11.994,1.446-3.676,3.346-14.592,3.545-17.473.774-11.143,1-23.7-6.218-31.728-4.72-5.251-11.931-7.984-22.044-8.356-.407-.015-.806-.023-1.2-.023-16.89,0-27.677,13.609-31.21,39.361-4.423,2.829-7.1,6.618-7.367,10.449-.523,7.508,7.768,23.944,8.482,25.343,2.77,8.852,7.95,13.6,15.4,14.121.168.012.342.018.523.018Z"/><path class="cls-17" d="M889.051,85.359c.384,0,.773.008,1.166.022,28.414,1.047,28.61,21.316,27.374,39.1-.206,2.982-2.21,14.337-3.6,17.492,1.308,4.12,1.327,8.454-.783,11.514-4.276,6.195-22.128,14.235-22.128,14.235h0c-.18,0-11.093,5.083-16.194,5.083-.16,0-.313-.005-.46-.015-7.815-.543-12.262-6-14.6-13.549,0,0-8.941-17.418-8.42-24.928.276-3.957,3.353-7.535,7.3-9.96,2.077-15.577,8.395-38.989,30.351-38.989m0-1.85c-17.326,0-28.4,13.735-32.069,39.741-4.457,2.964-7.151,6.91-7.431,10.93-.532,7.645,7.619,23.933,8.546,25.757,2.9,9.2,8.348,14.148,16.194,14.694.189.013.386.02.589.02,4.153,0,11.072-2.744,15.97-4.837l.03.021.955-.431c.749-.337,18.375-8.327,22.892-14.872,2.162-3.136,2.6-7.655,1.217-12.481,1.484-4.077,3.29-14.522,3.493-17.446.788-11.332,1-24.117-6.453-32.411-4.9-5.446-12.321-8.28-22.7-8.662q-.625-.022-1.235-.023Z"/><g class="cls-18"><path class="cls-16" d="M862.473,124.975a52.788,52.788,0,0,0-6.455,1.322,20.858,20.858,0,0,1,2.682-1.949c.139-1.044.274-2.131.41-3.246A11.325,11.325,0,0,0,862.473,124.975Z"/></g><g class="cls-18"><path class="cls-16" d="M880.92,157a4.062,4.062,0,0,1,3.455.508,3.1,3.1,0,0,1,1.1,1.554c.212.82.691,1.658.1,2.423-2.873,3.8-6.328,7.056-8.226,11.043a11.883,11.883,0,0,1-2.929.261,14.506,14.506,0,0,1-7.064-2.286C870.529,164.647,873.974,158.2,880.92,157Z"/></g><g class="cls-18"><path class="cls-16" d="M903.249,138.949c1.983-5.366,4.893-10.533,5.951-16.1a104.923,104.923,0,0,0,1.955-29.475c7.411,7.7,7.227,19.72,6.436,31.1-.206,2.982-2.21,14.337-3.6,17.492,1.308,4.12,1.327,8.454-.783,11.514-1.919,2.78-6.571,5.931-11.119,8.561C903.941,159.159,916.647,144,903.249,138.949Z"/></g><path class="cls-19" d="M874.952,164.644c16.882,0,31.344-14.667,31.344-18.106a1.1,1.1,0,0,0-1.15-1.153,2.577,2.577,0,0,0-1.018.258c-8.5,3.727-16.019,5.617-22.36,5.617h0c-14.5,0-19.493-9.752-21.891-14.439-.935-1.828-1.4-2.747-2.279-2.747a1.025,1.025,0,0,0-.417.089c-1.186.517-1.518,2.315-1.012,5.5,1.275,8.033,8.032,24.083,15.867,24.844.963.094,1.945.141,2.918.141Z"/><path class="cls-17" d="M857.6,134.836c1.763,0,4.7,17.186,24.17,17.186,5.9,0,13.309-1.575,22.669-5.681a1.883,1.883,0,0,1,.712-.194c2.968,0-11.425,17.735-30.194,17.735-.939,0-1.886-.044-2.845-.137-9.464-.919-18.091-27.371-14.624-28.885a.282.282,0,0,1,.112-.024m0-1.523a1.793,1.793,0,0,0-.721.151c-2.065.9-1.822,4.035-1.461,6.314,1.343,8.463,8.211,24.674,16.547,25.483.987.1,1.994.145,2.992.145,16.36,0,28.929-12.515,31.419-16.829.468-.811,1.023-2.008.431-3.034a1.877,1.877,0,0,0-1.656-.92,3.3,3.3,0,0,0-1.324.322c-8.4,3.685-15.82,5.553-22.057,5.553-14.038,0-18.884-9.472-21.212-14.023-1.009-1.972-1.618-3.162-2.958-3.162Z"/><path class="cls-19" d="M863.911,183.628c2.869,0,5.048-1.107,6.136-3.118a34.5,34.5,0,0,0,2.755-6.342q.245-.683.492-1.362a22.848,22.848,0,0,1,2.8-5.7,12.3,12.3,0,0,1,1.857-1.981c.4-.356.819-.665,1.189-.936.672-.494,1.078-.792,1.2-1.217a2.3,2.3,0,0,0-.155-1.909c-.652-1.172-2.217-1.74-3.414-2.01a13.536,13.536,0,0,0-2.956-.328h-.135c-.422-1-1.749-1.5-3.961-1.5a22.712,22.712,0,0,0-2.313.134.791.791,0,0,0-.11.02c-3.556.905-6,7-6.665,8.84a20.553,20.553,0,0,1-2.383,4.94l-.477.872c-1.918,3.507-3.731,6.819-.6,9.385A11.236,11.236,0,0,0,863.911,183.628Z"/><path class="cls-17" d="M869.718,157.983c3.814,0,3.267,1.479,3.358,1.554h0a2.66,2.66,0,0,1,.738-.049,12.78,12.78,0,0,1,2.788.309c1.776.4,3.566,1.334,3.007,2.96-.094.317-1.218.952-2.147,1.782a13.256,13.256,0,0,0-1.984,2.115,23.346,23.346,0,0,0-2.9,5.889,43.137,43.137,0,0,1-3.2,7.6c-1.051,1.942-3.2,2.72-5.466,2.72a10.424,10.424,0,0,1-6.261-2.044c-2.846-2.335-.883-5.334,1.247-9.271a21.246,21.246,0,0,0,2.45-5.079c.706-1.96,3.027-7.568,6.136-8.36a21.789,21.789,0,0,1,2.235-.13m0-1.524a23.448,23.448,0,0,0-2.393.139,1.366,1.366,0,0,0-.218.039c-3.811.97-6.3,6.841-7.195,9.32a19.733,19.733,0,0,1-2.315,4.8c-.014.023-.027.046-.04.07l-.454.833c-1.985,3.626-4.036,7.374-.419,10.341a11.861,11.861,0,0,0,7.227,2.389c3.1,0,5.569-1.268,6.787-3.481a35.321,35.321,0,0,0,2.821-6.485c.163-.452.324-.905.49-1.356a22.259,22.259,0,0,1,2.681-5.492,11.528,11.528,0,0,1,1.742-1.862l.045-.039c.351-.313.754-.61,1.11-.871.759-.557,1.264-.928,1.471-1.574a3.07,3.07,0,0,0-.208-2.538c-.791-1.417-2.563-2.077-3.9-2.379a14.314,14.314,0,0,0-2.809-.345c-.585-.837-1.855-1.509-4.422-1.509Z"/><g class="cls-20"><path class="cls-19" d="M858.135,173.11a6.1,6.1,0,0,0,1.6,4.623A10.016,10.016,0,0,0,869.55,180c-.031.05-.059.1-.09.152-2.13,3.937-8.785,3.088-11.726.675C855.273,178.811,856.405,176.3,858.135,173.11Z"/></g><path class="cls-17" d="M873.159,159.544a7.09,7.09,0,0,0-2.858,1.782,12.41,12.41,0,0,0-2.069,2.68A14.922,14.922,0,0,0,866.9,167.1c-.164.534-.276,1.084-.4,1.626-.077.555-.154,1.107-.178,1.666.28-.492.5-.992.736-1.487.249-.488.474-.981.706-1.466.267-.471.453-.975.73-1.433l.365-.71.4-.688a26.347,26.347,0,0,1,1.731-2.661A16.433,16.433,0,0,1,873.159,159.544Z"/><path class="cls-21" d="M867.22,158.58c.816-.338,4.186.369,2.862,1.744s-4.154,3.921-4.664,5.92-2.939,2.643-2.443-.4S865.965,159.1,867.22,158.58Z"/><path class="cls-22" d="M873.093,159.515a15.214,15.214,0,0,1-2.559,5.129c-1.774,2.125-4.139,5.476-4.139,5.476S868.663,162.592,873.093,159.515Z"/><path class="cls-23" d="M882.963,156.338a3.75,3.75,0,0,0,2.681-.989,3.085,3.085,0,0,0,1.981.64,4.684,4.684,0,0,0,.706-.055,4.037,4.037,0,0,0,2.623-1.4,2.939,2.939,0,0,0,1.46.33,8.8,8.8,0,0,0,1.182-.1c2.1-.285,3.344-.819,4.02-1.73.8-1.078.582-2.45.388-3.661-.021-.121-.043-.235-.067-.348a.759.759,0,0,0-.363-.5.749.749,0,0,0-.381-.1.782.782,0,0,0-.23.035,49.016,49.016,0,0,1-14.6,2.509c-10.916,0-16.523-5.158-18.892-8.233a.767.767,0,0,0-.566-.3h-.038a.76.76,0,0,0-.554.238,4.219,4.219,0,0,0-1.278,3.336,4.671,4.671,0,0,0,1.627,3.006c.215.154.433.344.65.531a3.553,3.553,0,0,0,1.962,1.1,4.4,4.4,0,0,0,3.848,2.638h0a2.759,2.759,0,0,0,1.058-.205,3.757,3.757,0,0,0,2.29,1.716,4.248,4.248,0,0,0,1.228.193,3,3,0,0,0,1.517-.386,3.539,3.539,0,0,0,2.447,1.348,4.734,4.734,0,0,0,.675.051,3.35,3.35,0,0,0,2.052-.649,3.438,3.438,0,0,0,2.561.976Z"/><path class="cls-17" d="M862.863,143.2c3.327,4.317,9.457,8.53,19.495,8.53a49.437,49.437,0,0,0,14.835-2.545c.021.1.041.205.059.306.373,2.339.52,3.935-3.759,4.517a8.337,8.337,0,0,1-1.078.091,1.778,1.778,0,0,1-1.638-.746,3.1,3.1,0,0,1-2.558,1.824,4.076,4.076,0,0,1-.594.046,2.1,2.1,0,0,1-2.009-1.1,2.817,2.817,0,0,1-2.656,1.454h-.014a2.734,2.734,0,0,0-4.613-.328,3.926,3.926,0,0,1-.566-.043,2.582,2.582,0,0,1-2.307-1.808,2.148,2.148,0,0,1-1.766.838,3.484,3.484,0,0,1-1.01-.161,2.812,2.812,0,0,1-2.129-2.153,1.925,1.925,0,0,1-1.437.61,3.251,3.251,0,0,1-1.36-.34,3.1,3.1,0,0,1-1.93-2.479.732.732,0,0,1-.481.183c-.69,0-1.476-.942-2.247-1.494a3.475,3.475,0,0,1-.237-5.2m0-1.523a1.521,1.521,0,0,0-1.107.477,4.917,4.917,0,0,0-1.484,3.932,5.432,5.432,0,0,0,1.941,3.551c.178.128.381.3.6.489a5.03,5.03,0,0,0,1.93,1.211,4.892,4.892,0,0,0,2.373,2.231,4.733,4.733,0,0,0,2.006.483,3.665,3.665,0,0,0,.746-.075,4.682,4.682,0,0,0,2.379,1.553,4.992,4.992,0,0,0,1.451.227,3.869,3.869,0,0,0,1.318-.224,4.488,4.488,0,0,0,2.532,1.177,5.477,5.477,0,0,0,.789.059,4.253,4.253,0,0,0,1.975-.459,4.427,4.427,0,0,0,2.654.787,4.693,4.693,0,0,0,2.731-.811,4.039,4.039,0,0,0,1.932.462,5.588,5.588,0,0,0,.815-.062,4.975,4.975,0,0,0,2.7-1.246,4.186,4.186,0,0,0,1.275.184,9.567,9.567,0,0,0,1.284-.106c2.323-.315,3.719-.941,4.528-2.03.992-1.336.735-2.944.527-4.254-.021-.123-.046-.248-.073-.372a1.523,1.523,0,0,0-1.488-1.2,1.537,1.537,0,0,0-.46.07,48.238,48.238,0,0,1-14.375,2.474c-10.59,0-16-4.972-18.288-7.936a1.522,1.522,0,0,0-1.131-.591c-.026,0-.051,0-.076,0Z"/><path class="cls-24" d="M890.472,152.827c.675-.5,1.194.356,1.687,1.267a1.667,1.667,0,0,1-1.382-.737,2.8,2.8,0,0,1-.647.948C890.2,153.656,890.141,153.041,890.472,152.827Z"/><path class="cls-24" d="M885.473,153.285c.994-.2.906.709.871,1.625a1.907,1.907,0,0,1-.728-.787,2.563,2.563,0,0,1-.971,1.033C884.924,154.3,884.98,153.349,885.473,153.285Z"/><path class="cls-24" d="M880.066,153.849c.858-.095,1.087.526,1.212,1.281a2.121,2.121,0,0,1-.784-1,2.3,2.3,0,0,1-1.07.908C879.6,154.478,879.67,153.9,880.066,153.849Z"/><path class="cls-24" d="M875.817,153.151a1.811,1.811,0,0,1,.407,1.424,2.309,2.309,0,0,1-.764-1.177,2.1,2.1,0,0,1-1.148.761C874.8,153.356,875.157,152.487,875.817,153.151Z"/><path class="cls-24" d="M871.247,153.25a2.555,2.555,0,0,1-.692-1.328,2.033,2.033,0,0,1-2.027.54,3.328,3.328,0,0,1,1.763-.9C871.377,151.454,871.309,152.354,871.247,153.25Z"/><path class="cls-24" d="M866.822,149.305a2.272,2.272,0,0,1-.117,2.178,2.828,2.828,0,0,1-.877-1.77.916.916,0,0,1-1.155-.055C865.317,149.117,866.491,148.791,866.822,149.305Z"/><path class="cls-24" d="M895.75,149.626q.714-.207,1.443-.437c.022.1.041.205.059.306.321,2.012.472,3.473-2.217,4.213A9.124,9.124,0,0,0,895.75,149.626Z"/><path class="cls-25" d="M888.991,140.644s-2.226,7.9-10.284,6.445-9.8-2.3-9.994-9.649S888.991,140.644,888.991,140.644Z"/><path class="cls-23" d="M892.751,139.353c4.8,0,9.616-4.016,11.714-9.766a16,16,0,0,0,.469-10.059,9.414,9.414,0,0,0-5.639-6.411,8.293,8.293,0,0,0-2.852-.5c-4.8,0-9.616,4.016-11.715,9.766a16.007,16.007,0,0,0-.468,10.06,9.412,9.412,0,0,0,5.639,6.411,8.291,8.291,0,0,0,2.851.5Z"/><path class="cls-17" d="M896.443,113.345a7.542,7.542,0,0,1,2.6.456c5.072,1.852,7.193,8.807,4.737,15.536-2.047,5.607-6.625,9.287-11.03,9.287a7.556,7.556,0,0,1-2.6-.456c-5.072-1.852-7.194-8.808-4.737-15.536,2.048-5.607,6.626-9.287,11.031-9.287m0-1.458c-5.1,0-10.2,4.213-12.4,10.245a16.729,16.729,0,0,0-.48,10.522,10.124,10.124,0,0,0,6.087,6.884,9.022,9.022,0,0,0,3.1.544c5.1,0,10.2-4.213,12.4-10.245,2.729-7.472.214-15.28-5.606-17.4a9.019,9.019,0,0,0-3.1-.545Z"/><path class="cls-24" d="M902.846,116.813a14.918,14.918,0,0,1-.106,10.58c-2.457,6.729-8.56,10.683-13.632,8.83a7.89,7.89,0,0,1-3.8-3.011,8.445,8.445,0,0,0,4.842,4.956c5.072,1.852,11.176-2.1,13.632-8.831C905.481,124.683,904.988,119.92,902.846,116.813Z"/><path class="cls-26" d="M894.24,126.69c.163-.446.445-.175.723-.241.112.04.281.271.227.419a2.086,2.086,0,0,1-1.654,1.751c-.277.067-.668.092-.837-.138a2.9,2.9,0,0,1-.638-2.419c.426-1.863,1.918-3.168,3.368-2.975a3.031,3.031,0,0,1,1.74,1.139c.79.962.7,2.609.208,3.945a5.094,5.094,0,0,1-.761,1.74,5.8,5.8,0,0,1-1.214,1.239,3.739,3.739,0,0,1-3.841.448,5.129,5.129,0,0,1-2.164-4.49,9.051,9.051,0,0,1,.748-3.091c1.636-3.44,5.018-5.065,7.541-3.638a7.145,7.145,0,0,1,1.35,1.165,6.138,6.138,0,0,1,1.144,2.772,9.892,9.892,0,0,1-.886,5.9,8.769,8.769,0,0,1-4.856,4.618c-3.558,1.057-6.642-.91-7.409-5.059a14.462,14.462,0,0,1,.174-4.645,20.455,20.455,0,0,1,.92-2.524,13.127,13.127,0,0,1,1.757-2.723,9.754,9.754,0,0,1,2.873-2.315c4.931-2.741,9.875,1.082,10.05,7.2"/><path class="cls-23" d="M870.37,131.982c4.647,0,9.248-3.922,11.188-9.537,2.361-6.831.02-13.862-5.219-15.673a7.928,7.928,0,0,0-2.594-.432c-4.647,0-9.248,3.922-11.188,9.537a15.312,15.312,0,0,0-.282,9.632,9,9,0,0,0,5.5,6.04,7.927,7.927,0,0,0,2.593.433Z"/><path class="cls-17" d="M873.746,107.037a7.242,7.242,0,0,1,2.366.394c4.883,1.688,7.026,8.307,4.788,14.786-1.885,5.453-6.275,9.067-10.531,9.067A7.209,7.209,0,0,1,868,130.89c-4.884-1.688-7.028-8.307-4.788-14.785,1.884-5.453,6.274-9.068,10.53-9.068m0-1.4c-4.94,0-9.812,4.116-11.849,10.007a16.016,16.016,0,0,0-.286,10.075,9.682,9.682,0,0,0,5.937,6.484,8.609,8.609,0,0,0,2.821.471c4.941,0,9.813-4.115,11.849-10.007,2.485-7.194-.049-14.623-5.651-16.559a8.631,8.631,0,0,0-2.821-.471Z"/><path class="cls-24" d="M879.8,110.25a14.28,14.28,0,0,1,.074,10.124c-2.239,6.478-8.012,10.361-12.895,8.673a7.562,7.562,0,0,1-3.687-2.819A8.079,8.079,0,0,0,868,130.89c4.883,1.687,10.657-2.2,12.9-8.673C882.447,117.736,881.9,113.188,879.8,110.25Z"/><path class="cls-27" d="M871.728,119.841c.148-.428.422-.174.686-.242.108.037.275.253.225.4a1.989,1.989,0,0,1-1.552,1.7c-.265.069-.637.1-.8-.117a2.779,2.779,0,0,1-.65-2.3c.377-1.789,1.782-3.063,3.173-2.9a2.914,2.914,0,0,1,1.683,1.062c.772.907.709,2.485.264,3.77a4.867,4.867,0,0,1-.7,1.678,5.529,5.529,0,0,1-1.14,1.2,3.58,3.58,0,0,1-3.667.492,4.9,4.9,0,0,1-2.144-4.259,8.707,8.707,0,0,1,.664-2.97c1.509-3.318,4.718-4.927,7.154-3.605a6.857,6.857,0,0,1,1.31,1.092,5.869,5.869,0,0,1,1.141,2.633,9.448,9.448,0,0,1-.751,5.659,8.386,8.386,0,0,1-4.569,4.5c-3.384,1.07-6.368-.761-7.171-4.718a13.829,13.829,0,0,1,.089-4.447,19.47,19.47,0,0,1,.84-2.429,12.624,12.624,0,0,1,1.633-2.635,9.354,9.354,0,0,1,2.712-2.262c4.672-2.7,9.465.872,9.734,6.724"/><path class="cls-28" d="M879.4,144.818c4.921,0,8.88-2.641,9.628-6.423a7.575,7.575,0,0,0-2.066-6.576A12.753,12.753,0,0,0,879.936,128a14.082,14.082,0,0,0-2.741-.272c-4.919,0-8.879,2.641-9.627,6.422-.9,4.563,3.177,9.227,9.1,10.4A14.164,14.164,0,0,0,879.4,144.818Z"/><path class="cls-17" d="M877.2,128.651a13.218,13.218,0,0,1,2.562.254c5.425,1.073,9.171,5.242,8.365,9.311-.675,3.417-4.347,5.677-8.72,5.677a13.193,13.193,0,0,1-2.561-.254c-5.425-1.074-9.171-5.243-8.366-9.311.676-3.417,4.347-5.677,8.72-5.677m0-1.85c-5.366,0-9.7,2.948-10.533,7.168a8.475,8.475,0,0,0,2.285,7.374,13.692,13.692,0,0,0,7.537,4.111,15.072,15.072,0,0,0,2.92.289c5.368,0,9.7-2.948,10.536-7.168a8.479,8.479,0,0,0-2.286-7.375,13.688,13.688,0,0,0-7.536-4.11,15.082,15.082,0,0,0-2.921-.289Z"/><g class="cls-29"><path class="cls-23" d="M877.341,130.572c-.608,1.079.87,3.062,3.3,4.43s4.89,1.6,5.5.526-.869-3.061-3.3-4.43S877.949,129.494,877.341,130.572Z"/></g><g class="cls-18"><path class="cls-28" d="M868.476,134.328a6.394,6.394,0,0,1,2.942-4.1,5.9,5.9,0,0,0-1.308,2.678c-.805,4.068,2.941,8.237,8.367,9.311a11.436,11.436,0,0,0,8.338-1.325c-2.005,2.374-5.883,3.555-9.973,2.746C871.417,142.565,867.671,138.4,868.476,134.328Z"/></g><path class="cls-30" d="M922.943,111.775s2.529,5.507,2.048,9.985-6.647,10.364-10.551,13.529,4.5-15.262,3.362-22.478S922.467,111,922.467,111Z"/><path class="cls-31" d="M912.264,135.549a24.029,24.029,0,0,0,3.787-2.217c.844-1.186,1.319-4.165,1.9-5.5,2.84-6.592,11.191-2.279,11.735,3.3.826,8.454-7.346,18.647-12.137,17.5-4.248-1.018-3.794-7.4-3.794-7.4"/><path class="cls-32" d="M952.808,93.739a1.178,1.178,0,0,0,.9-.414,36.253,36.253,0,0,0,7.085-12.965,37.158,37.158,0,0,0-2.705-29.1c-4.767-8.441-13.05-14.335-23.95-17.046a28.612,28.612,0,0,0-6.9-.845c-13.673,0-25.793,9.534-30.161,23.724-2.1,6.816-8.84,24.145-8.908,24.319a1.18,1.18,0,0,0,.777,1.563l30.17,8.592a1.186,1.186,0,0,0,.322.045,1.18,1.18,0,0,0,1.174-1.058c.011-.1,1.1-10.423,2.987-20.6,3.558-19.152,6.567-19.7,6.9-19.7a.528.528,0,0,1,.139.019A29.151,29.151,0,0,1,949,64.59a36.173,36.173,0,0,1,2.679,27.622,1.18,1.18,0,0,0,1.126,1.527Z"/><path class="cls-17" d="M927.239,34.548a27.414,27.414,0,0,1,6.612.811c25.009,6.22,30.946,27.978,25.811,44.654a35.265,35.265,0,0,1-6.853,12.546c5.131-16.673-1.795-38.032-21.866-43.429a1.721,1.721,0,0,0-.446-.06c-6.751,0-11.059,41.362-11.059,41.362l-30.17-8.591s6.8-17.465,8.935-24.4c4.372-14.2,16.424-22.893,29.036-22.892m0-2.359c-14.192,0-26.766,9.869-31.288,24.557-2.086,6.775-8.811,24.065-8.879,24.238a2.361,2.361,0,0,0,1.553,3.126L918.793,92.7a2.359,2.359,0,0,0,2.993-2.025c.01-.094,1-9.513,2.733-19.191,2.933-16.377,5.478-19.479,6.08-20A27.975,27.975,0,0,1,947.97,65.16a34.968,34.968,0,0,1,2.584,26.705,2.359,2.359,0,0,0,4.049,2.227,37.443,37.443,0,0,0,7.315-13.385,38.33,38.33,0,0,0-2.8-30.027c-4.931-8.73-13.469-14.819-24.692-17.61a29.739,29.739,0,0,0-7.182-.881h0v0Z"/><path class="cls-33" d="M952.808,93.739a1.178,1.178,0,0,0,.9-.414,36.253,36.253,0,0,0,7.085-12.965,37.158,37.158,0,0,0-2.705-29.1c-4.767-8.441-13.05-14.335-23.95-17.046a28.612,28.612,0,0,0-6.9-.845c-13.673,0-25.793,9.534-30.161,23.724-2.1,6.816-8.84,24.145-8.908,24.319a1.18,1.18,0,0,0,.777,1.563l18.588,5.294a1.176,1.176,0,0,0,1.434-.737c12.2-34.042,18.68-37.718,20.9-37.718a2.382,2.382,0,0,1,1.347.485,2.964,2.964,0,0,0,.489.273c16.059,6.567,25.021,25.246,19.978,41.64a1.18,1.18,0,0,0,1.126,1.527Z"/><path class="cls-17" d="M927.239,34.548a27.414,27.414,0,0,1,6.612.811c25.009,6.22,30.946,27.978,25.811,44.654a35.265,35.265,0,0,1-6.853,12.546c5.026-16.333-3.606-36.107-20.659-43.079a4.287,4.287,0,0,0-2.281-.845c-3.246,0-9.989,4.948-22.011,38.5l-18.59-5.293s6.8-17.465,8.935-24.4c4.372-14.2,16.424-22.893,29.036-22.892m0-2.359c-14.192,0-26.766,9.869-31.288,24.557-2.086,6.775-8.811,24.065-8.879,24.238a2.361,2.361,0,0,0,1.553,3.126l18.59,5.294a2.356,2.356,0,0,0,2.867-1.473c12.864-35.9,19.119-36.937,19.79-36.937a1.3,1.3,0,0,1,.707.3,4.007,4.007,0,0,0,.682.374c15.508,6.341,24.165,24.376,19.3,40.2a2.359,2.359,0,0,0,4.049,2.227,37.443,37.443,0,0,0,7.315-13.385,38.33,38.33,0,0,0-2.8-30.027c-4.931-8.73-13.469-14.819-24.692-17.61a29.739,29.739,0,0,0-7.182-.881h0v0Z"/><path class="cls-32" d="M952.808,93.739a1.178,1.178,0,0,0,.9-.414,36.253,36.253,0,0,0,7.085-12.965,37.158,37.158,0,0,0-2.705-29.1c-4.767-8.441-13.05-14.335-23.95-17.046a28.612,28.612,0,0,0-6.9-.845c-13.673,0-25.793,9.534-30.161,23.724-2.1,6.816-8.84,24.145-8.908,24.319a1.18,1.18,0,0,0,.777,1.563l30.17,8.592a1.186,1.186,0,0,0,.322.045,1.18,1.18,0,0,0,1.174-1.058c.011-.1,1.1-10.423,2.987-20.6,3.558-19.152,6.567-19.7,6.9-19.7a.528.528,0,0,1,.139.019A29.151,29.151,0,0,1,949,64.59a36.173,36.173,0,0,1,2.679,27.622,1.18,1.18,0,0,0,1.126,1.527Z"/><path class="cls-17" d="M927.239,34.548a27.414,27.414,0,0,1,6.612.811c25.009,6.22,30.946,27.978,25.811,44.654a35.265,35.265,0,0,1-6.853,12.546c5.131-16.673-1.795-38.032-21.866-43.429a1.721,1.721,0,0,0-.446-.06c-6.751,0-11.059,41.362-11.059,41.362l-30.17-8.591s6.8-17.465,8.935-24.4c4.372-14.2,16.424-22.893,29.036-22.892m0-2.359c-14.192,0-26.766,9.869-31.288,24.557-2.086,6.775-8.811,24.065-8.879,24.238a2.361,2.361,0,0,0,1.553,3.126L918.793,92.7a2.359,2.359,0,0,0,2.993-2.025c.01-.094,1-9.513,2.733-19.191,2.933-16.377,5.478-19.479,6.08-20A27.975,27.975,0,0,1,947.97,65.16a34.968,34.968,0,0,1,2.584,26.705,2.359,2.359,0,0,0,4.049,2.227,37.443,37.443,0,0,0,7.315-13.385,38.33,38.33,0,0,0-2.8-30.027c-4.931-8.73-13.469-14.819-24.692-17.61a29.739,29.739,0,0,0-7.182-.881h0v0Z"/><path class="cls-34" d="M952.808,93.739a1.178,1.178,0,0,0,.9-.414,36.253,36.253,0,0,0,7.085-12.965,37.158,37.158,0,0,0-2.705-29.1c-4.767-8.441-13.05-14.335-23.95-17.046a28.612,28.612,0,0,0-6.9-.845c-13.673,0-25.793,9.534-30.161,23.724-2.1,6.816-8.84,24.145-8.908,24.319a1.18,1.18,0,0,0,.777,1.563l18.588,5.294a1.176,1.176,0,0,0,1.434-.737c12.2-34.042,18.68-37.718,20.9-37.718a2.382,2.382,0,0,1,1.347.485,2.964,2.964,0,0,0,.489.273c16.059,6.567,25.021,25.246,19.978,41.64a1.18,1.18,0,0,0,1.126,1.527Z"/><path class="cls-17" d="M927.239,34.548a27.414,27.414,0,0,1,6.612.811c25.009,6.22,30.946,27.978,25.811,44.654a35.265,35.265,0,0,1-6.853,12.546c5.026-16.333-3.606-36.107-20.659-43.079a4.287,4.287,0,0,0-2.281-.845c-3.246,0-9.989,4.948-22.011,38.5l-18.59-5.293s6.8-17.465,8.935-24.4c4.372-14.2,16.424-22.893,29.036-22.892m0-2.359c-14.192,0-26.766,9.869-31.288,24.557-2.086,6.775-8.811,24.065-8.879,24.238a2.361,2.361,0,0,0,1.553,3.126l18.59,5.294a2.356,2.356,0,0,0,2.867-1.473c12.864-35.9,19.119-36.937,19.79-36.937a1.3,1.3,0,0,1,.707.3,4.007,4.007,0,0,0,.682.374c15.508,6.341,24.165,24.376,19.3,40.2a2.359,2.359,0,0,0,4.049,2.227,37.443,37.443,0,0,0,7.315-13.385,38.33,38.33,0,0,0-2.8-30.027c-4.931-8.73-13.469-14.819-24.692-17.61a29.739,29.739,0,0,0-7.182-.881h0v0Z"/><g class="cls-18"><path class="cls-24" d="M904.8,56.917c-2.392-1.847-2.636-4.682-2.868-7.687a35.157,35.157,0,0,0-3.725,8.21c-2.135,6.936-8.935,24.4-8.935,24.4l30.171,8.591s2.289-21.971,6.144-33.886l-.218,0C918.649,56.6,910.544,61.156,904.8,56.917Z"/></g><path class="cls-21" d="M921.512,42.193c-6.479,2.522-14.637,14.48-16.314,7.2-.506-2.2,6-9.759,15.559-12.842a26.656,26.656,0,0,1,21.04,2.166S930.129,38.839,921.512,42.193Z"/><path class="cls-28" d="M902.71,104.959a1.179,1.179,0,0,0,1.176-1.084c.018-.222,1.8-22.42.69-38.656-1.226-17.856-13.737-33.914-30.424-39.052a27.951,27.951,0,0,0-8.234-1.187c-11.773,0-24.795,6.526-31.668,15.872a1.18,1.18,0,0,0,1.612,1.676,27.522,27.522,0,0,1,15.414-4.9,24.949,24.949,0,0,1,7.349,1.106c14.68,4.52,22.477,21.665,17.381,38.219a34.483,34.483,0,0,1-8.314,14.033,1.181,1.181,0,0,0,1.116,1.976,6.478,6.478,0,0,1,1.5-.15c9.113,0,31.628,11.887,31.854,12.007A1.177,1.177,0,0,0,902.71,104.959Z"/><path class="cls-17" d="M865.919,26.159a26.81,26.81,0,0,1,7.886,1.135c16.953,5.22,28.463,21.537,29.593,38.006,1.121,16.335-.688,38.479-.688,38.479S879.817,91.633,870.3,91.634a7.664,7.664,0,0,0-1.77.182,35.516,35.516,0,0,0,8.6-14.514c5.3-17.2-2.833-34.975-18.16-39.694a26.107,26.107,0,0,0-7.7-1.158,28.757,28.757,0,0,0-16.075,5.1c6.391-8.692,19.015-15.392,30.718-15.392m0-2.359c-12.124,0-25.536,6.724-32.616,16.353a2.36,2.36,0,0,0,3.223,3.352,26.34,26.34,0,0,1,14.753-4.695,23.754,23.754,0,0,1,7,1.054c14.058,4.328,21.5,20.811,16.6,36.744a33.31,33.31,0,0,1-8.026,13.552,2.359,2.359,0,0,0,2.229,3.951,5.373,5.373,0,0,1,1.222-.117c7.32,0,25.076,8.568,31.3,11.869a2.36,2.36,0,0,0,3.458-1.892c.074-.912,1.811-22.508.69-38.833-1.258-18.331-14.109-34.821-31.253-40.1a29.147,29.147,0,0,0-8.582-1.239v0Z"/><path class="cls-32" d="M889.205,98.508a1.181,1.181,0,0,0,1.178-1.112c.4-6.942.792-16.994.4-25.466-.831-17.748-12.343-33.51-28-38.33a24.555,24.555,0,0,0-7.224-1.042,37.7,37.7,0,0,0-19.331,5.95,1.168,1.168,0,0,0-.266.225c-.626.711-1.2,1.425-1.712,2.119a1.18,1.18,0,0,0,1.612,1.676,27.522,27.522,0,0,1,15.414-4.9,24.949,24.949,0,0,1,7.349,1.106c14.68,4.52,22.477,21.665,17.381,38.219a34.483,34.483,0,0,1-8.314,14.033,1.181,1.181,0,0,0,1.116,1.976,6.478,6.478,0,0,1,1.5-.15c3.6,0,9.976,1.935,18.433,5.6A1.183,1.183,0,0,0,889.205,98.508Z"/><path class="cls-17" d="M855.559,33.738a23.326,23.326,0,0,1,6.876.99c15.862,4.884,26.4,20.9,27.165,37.257.382,8.156.039,17.783-.394,25.343-6.712-2.906-14.344-5.694-18.9-5.694a7.67,7.67,0,0,0-1.77.182,35.516,35.516,0,0,0,8.6-14.514c5.3-17.2-2.833-34.975-18.16-39.694a26.107,26.107,0,0,0-7.7-1.158,28.757,28.757,0,0,0-16.075,5.1c.51-.694,1.062-1.373,1.647-2.04a36.622,36.622,0,0,1,18.711-5.773m0-2.36A38.892,38.892,0,0,0,835.608,37.5a2.366,2.366,0,0,0-.532.45c-.648.737-1.245,1.477-1.776,2.2a2.36,2.36,0,0,0,3.223,3.352,26.34,26.34,0,0,1,14.753-4.695,23.754,23.754,0,0,1,7,1.054c14.058,4.328,21.5,20.811,16.6,36.744a33.31,33.31,0,0,1-8.026,13.552,2.359,2.359,0,0,0,2.229,3.951,5.375,5.375,0,0,1,1.221-.117c2.4,0,7.466.954,17.964,5.5a2.36,2.36,0,0,0,3.294-2.029c.4-6.974.794-17.075.4-25.589-.854-18.236-12.708-34.439-28.828-39.4a25.754,25.754,0,0,0-7.571-1.094Z"/><g class="cls-18"><path class="cls-35" d="M884.87,52.9c-1.391-4.918-6.88-6.154-12.122-5.332,5.736,7.881,7.716,18.92,4.385,29.736a35.516,35.516,0,0,1-8.6,14.514c.125-.031.257-.056.394-.079l.137-.019c.093-.013.187-.028.282-.038.059-.006.119-.008.178-.013.088-.007.177-.016.269-.02.066,0,.134,0,.2-.006.087,0,.175-.006.265-.006.072,0,.147,0,.221,0,.09,0,.179,0,.272,0,.078,0,.156.009.234.013s.186.009.281.016.164.015.247.022.191.016.289.027l.258.03c.1.011.2.023.3.037l.271.039c.1.015.2.029.3.046s.187.031.279.048l.315.054.286.056.322.064.3.063.33.073c.1.022.2.046.3.07l.338.08q.155.038.309.078c.115.028.229.058.346.088l.311.083.355.1.314.089.366.105.314.092.376.113.313.1.387.122.314.1c.13.042.26.083.392.127l.315.105.4.134.31.106.417.145.3.1c.144.05.287.1.43.153l.293.106.447.164.277.1.463.174.267.1c.159.061.319.121.478.183l.25.1.5.2.228.09.529.211.2.079c.191.076.38.153.57.23l.152.063c.208.085.415.169.621.255.033.015.067.028.1.042.227.093.451.188.674.282l.045.019c.484.2.967.41,1.442.616,7.3,3.156,13.5,6.451,13.5,6.451s1.4-17.131.973-32.374C895.292,67.726,887.659,63.056,884.87,52.9Z"/></g><path class="cls-21" d="M885.731,41.357c7.522,7.934,10.169,23.622,15.433,20.1,1.59-1.065-2.705-14.93-11.979-23.336C875.214,25.46,863.677,27.8,863.677,27.8S878.208,33.423,885.731,41.357Z"/><path class="cls-36" d="M922.371,110.615a1.223,1.223,0,0,0,.189-.015,1.18,1.18,0,0,0,.983-1.026,34.495,34.495,0,0,1,5.767-15.257c6.248-9.182,16.077-14.664,26.294-14.664a25.481,25.481,0,0,1,14.409,4.366,26.611,26.611,0,0,1,11.257,20.145,1.178,1.178,0,0,0,1.068,1.08,1,1,0,0,0,.108,0,1.179,1.179,0,0,0,1.139-.874C987,91.643,982.41,72.4,970.13,64.042a42.341,42.341,0,0,0-23.955-7.175,45.175,45.175,0,0,0-25.545,7.809c-13.374,9.271-29.6,24.528-29.758,24.681a1.18,1.18,0,0,0,.341,1.941c7.448,3.224,27.373,12.857,30.091,18.639A1.177,1.177,0,0,0,922.371,110.615Z"/><path class="cls-17" d="M946.175,58.047a41.28,41.28,0,0,1,23.291,6.97c11.6,7.9,16.422,26.223,12.979,39.052a27.677,27.677,0,0,0-11.768-21.026A26.588,26.588,0,0,0,955.6,78.474c-10.154,0-20.617,5.4-27.27,15.18a35.519,35.519,0,0,0-5.963,15.781c-3.5-7.455-30.689-19.219-30.689-19.219s16.164-15.242,29.62-24.57a44,44,0,0,1,24.873-7.6m0-2.36a46.373,46.373,0,0,0-26.217,8.019c-13.448,9.322-29.23,24.165-29.895,24.793a2.359,2.359,0,0,0,.682,3.882c10.194,4.412,27.214,13.215,29.491,18.058a2.361,2.361,0,0,0,2.135,1.356,2.417,2.417,0,0,0,.378-.03,2.361,2.361,0,0,0,1.966-2.052,33.285,33.285,0,0,1,5.571-14.732c6.028-8.859,15.493-14.148,25.318-14.148a24.31,24.31,0,0,1,13.746,4.161,25.44,25.44,0,0,1,10.743,19.264,2.36,2.36,0,0,0,2.138,2.161c.073.007.144.01.217.01a2.358,2.358,0,0,0,2.276-1.748c1.817-6.772,1.5-15.041-.873-22.687-2.545-8.208-7.183-14.93-13.057-18.928a43.522,43.522,0,0,0-24.619-7.379Z"/><path class="cls-32" d="M922.371,110.615a1.2,1.2,0,0,0,.189-.015,1.18,1.18,0,0,0,.983-1.026,34.495,34.495,0,0,1,5.767-15.257c6.248-9.182,16.077-14.664,26.294-14.664a25.481,25.481,0,0,1,14.409,4.366,26.611,26.611,0,0,1,11.257,20.145,1.178,1.178,0,0,0,1.068,1.08,1,1,0,0,0,.108,0,1.179,1.179,0,0,0,1.139-.875c.226-.841.422-1.735.585-2.659a1.194,1.194,0,0,0,.01-.348c-1.259-10.327-6.028-19.226-12.753-23.8A37.845,37.845,0,0,0,950,71.207a44.586,44.586,0,0,0-26,8.434c-6.861,4.981-14.467,11.567-19.64,16.215a1.179,1.179,0,0,0,.237,1.919c9.436,5.007,15.368,9.326,16.7,12.162A1.177,1.177,0,0,0,922.371,110.615Z"/><path class="cls-17" d="M950,72.387a36.693,36.693,0,0,1,20.759,6.152c6.963,4.738,11.123,13.764,12.245,22.971-.154.873-.34,1.728-.563,2.559a27.677,27.677,0,0,0-11.768-21.026A26.588,26.588,0,0,0,955.6,78.474c-10.154,0-20.617,5.4-27.27,15.18a35.519,35.519,0,0,0-5.963,15.781c-1.8-3.824-9.823-8.78-17.216-12.7,5.633-5.061,12.937-11.341,19.544-16.137A43.566,43.566,0,0,1,950,72.387m0-2.36a45.783,45.783,0,0,0-26.692,8.66c-6.9,5.009-14.541,11.624-19.734,16.291a2.358,2.358,0,0,0,.471,3.839c12.894,6.841,15.616,10.407,16.187,11.622a2.361,2.361,0,0,0,2.135,1.356,2.417,2.417,0,0,0,.378-.03,2.361,2.361,0,0,0,1.966-2.052,33.285,33.285,0,0,1,5.571-14.732c6.028-8.859,15.493-14.148,25.318-14.148a24.31,24.31,0,0,1,13.746,4.161,25.44,25.44,0,0,1,10.743,19.264,2.36,2.36,0,0,0,2.139,2.161c.072.007.143.01.216.01a2.359,2.359,0,0,0,2.277-1.75c.234-.874.438-1.8.607-2.758a2.389,2.389,0,0,0,.019-.7c-1.3-10.66-6.256-19.87-13.26-24.637A39.025,39.025,0,0,0,950,70.027Z"/><g class="cls-18"><path class="cls-24" d="M933.7,81.83c-5.738-.529-15.192,2.759-16.913-2.195-.951-2.241.291-6.872-.241-10.54-12.229,9.208-24.862,21.12-24.862,21.12s6.452,2.793,13.473,6.518h0q1.035.549,2.082,1.124l.032.017c.217.12.435.239.65.36l.084.047.6.337.122.068q.28.159.558.319l.154.087.521.3c.064.036.127.074.19.112.162.093.322.187.483.281.069.042.137.083.208.124.153.091.306.182.459.275l.224.134.436.264.238.145.416.257c.08.052.164.1.245.154l.4.249.254.162.381.245c.085.054.169.11.254.166q.186.12.367.24l.256.171.353.237.256.174.337.233c.086.059.171.119.255.178l.325.23.249.179.313.229.245.181c.1.075.2.15.3.225.083.06.164.122.243.183.1.074.19.148.283.223.078.06.158.122.234.183.092.073.183.147.272.221s.152.121.226.183l.259.219.215.183c.083.072.165.145.246.218s.137.12.2.18l.236.218.191.177c.076.073.147.145.222.217.058.059.119.117.178.176s.139.143.207.215.112.116.165.173c.067.072.129.143.192.215.051.056.1.113.153.17.062.072.121.143.178.215.046.054.093.11.136.163.058.074.113.147.167.22.038.051.08.1.117.155.054.076.1.151.155.226.032.048.066.1.1.143.053.083.1.163.146.245.024.039.051.08.073.119.066.12.129.239.183.357A36.161,36.161,0,0,1,938.24,83.851,9.708,9.708,0,0,0,933.7,81.83Z"/></g><path class="cls-21" d="M949.577,64.115C938.65,63.751,925.155,72.18,924.3,65.9c-.258-1.9,12.966-7.883,25.408-6.52,18.739,2.052,24.648,12.236,24.648,12.236S960.5,64.479,949.577,64.115Z"/><path class="cls-37" d="M832.028,57.717a9.5,9.5,0,1,0-2.8-.422A9.445,9.445,0,0,0,832.028,57.717Z"/><path class="cls-17" d="M832.023,39.909a8.313,8.313,0,1,1-7.94,5.868,8.3,8.3,0,0,1,7.94-5.868m0-2.36a10.679,10.679,0,1,0,3.144.475,10.618,10.618,0,0,0-3.144-.475Z"/><g class="cls-18"><path class="cls-37" d="M835.3,40.58A8.313,8.313,0,0,1,826.966,54.4a8.441,8.441,0,0,1-.82-.3A8.312,8.312,0,1,0,835.3,40.58Z"/></g><path class="cls-38" d="M825.682,46.271c1.219-3.263,5.637-5.7,8.382-4.677a4.544,4.544,0,0,1,1.894,1.365,4.094,4.094,0,0,0-2.785-2.431c-2.727-1.02-6.832.935-7.988,4.03-.614,1.645-.984,3.462-.373,4.859A8.15,8.15,0,0,1,825.682,46.271Z"/><path class="cls-17" d="M829.368,51.337a2.506,2.506,0,0,1-1.963,2.464c-1.135.18-2.255-.987-2.2-2.591s1.233-2.675,2.354-2.429A2.477,2.477,0,0,1,829.368,51.337Z"/><path class="cls-39" d="M832.785,39.571a16.259,16.259,0,0,0-5,16.232"/><path class="cls-17" d="M832.472,52.293a2.506,2.506,0,0,0,.238,3.141c.837.787,2.419.452,3.28-.9s.485-2.9-.581-3.332A2.477,2.477,0,0,0,832.472,52.293Z"/><path class="cls-39" d="M836.266,40.643a16.261,16.261,0,0,1-5,16.232"/><path class="cls-37" d="M985.015,113.511a9.5,9.5,0,1,0-.022,0Z"/><path class="cls-17" d="M985,95.707a8.312,8.312,0,0,1,.017,16.624h-.018a8.312,8.312,0,0,1-.019-16.624H985m0-2.36h-.025a10.683,10.683,0,1,0,.025,0Z"/><g class="cls-18"><path class="cls-37" d="M985.85,95.751a8.312,8.312,0,0,1-3.858,15.665,8.171,8.171,0,0,1-.874-.045,8.312,8.312,0,1,0,4.732-15.62Z"/></g><path class="cls-38" d="M978.357,104.036c.2-3.478,3.692-7.117,6.618-6.951a4.537,4.537,0,0,1,2.214.741,4.1,4.1,0,0,0-3.381-1.5c-2.908-.165-6.248,2.918-6.434,6.217-.1,1.752.086,3.6,1.084,4.751A8.141,8.141,0,0,1,978.357,104.036Z"/><path class="cls-17" d="M983.379,107.781a2.51,2.51,0,0,1-1.144,2.936c-1.03.507-2.447-.275-2.873-1.822s.383-2.919,1.527-3.017A2.475,2.475,0,0,1,983.379,107.781Z"/><path class="cls-39" d="M983.153,95.531a16.263,16.263,0,0,0,.038,16.984"/><path class="cls-17" d="M986.626,107.773a2.507,2.507,0,0,0,1.159,2.93c1.032.5,2.444-.286,2.865-1.834s-.4-2.917-1.542-3.01A2.478,2.478,0,0,0,986.626,107.773Z"/><path class="cls-39" d="M986.8,95.523a16.261,16.261,0,0,1,.038,16.983"/><path class="cls-37" d="M949.422,105.966a8.356,8.356,0,1,0-5.579-2.139,8.372,8.372,0,0,0,5.579,2.139Z"/><path class="cls-17" d="M949.428,90.294a7.317,7.317,0,1,1-5.446,2.429,7.29,7.29,0,0,1,5.446-2.429m0-2.077a9.394,9.394,0,1,0,6.273,2.405,9.41,9.41,0,0,0-6.273-2.405Z"/><g class="cls-18"><path class="cls-37" d="M954.859,92.711a7.316,7.316,0,0,1-11.757,7.964,7.562,7.562,0,0,1-.546-.543,7.317,7.317,0,1,0,12.3-7.421Z"/></g><path class="cls-38" d="M945.076,93.708c2.179-2.157,6.609-2.474,8.425-.641a4,4,0,0,1,1.01,1.79,3.608,3.608,0,0,0-1.327-2.971c-1.8-1.822-5.806-1.776-7.873.27a5.971,5.971,0,0,0-2.092,3.745A7.185,7.185,0,0,1,945.076,93.708Z"/><path class="cls-17" d="M946.152,99.117a2.208,2.208,0,0,1-2.479,1.245c-.973-.276-1.436-1.623-.8-2.886s1.973-1.681,2.778-1.072A2.184,2.184,0,0,1,946.152,99.117Z"/><path class="cls-40" d="M953.225,90.978a14.315,14.315,0,0,0-9.987,11.123"/><path class="cls-17" d="M948.278,101.027a2.207,2.207,0,0,0-.971,2.6c.378.938,1.766,1.254,2.955.49s1.461-2.141.767-2.877A2.183,2.183,0,0,0,948.278,101.027Z"/><path class="cls-40" d="M955.612,93.12a14.311,14.311,0,0,1-9.987,11.123"/><path class="cls-32" d="M912.446,107.6a1.181,1.181,0,0,0,1.164-1.372c-.688-4.173-2.975-18.258-3.54-24.294-1.6-17.089-14.718-29.975-30.515-29.975-.367,0-.734.007-1.1.021-11.224.431-20.534,4.513-26.922,11.8a37.154,37.154,0,0,0-8.582,27.938,36.239,36.239,0,0,0,4.292,14.138,1.179,1.179,0,0,0,2.208-.677,36.178,36.178,0,0,1,8.257-26.5,29.148,29.148,0,0,1,20.9-10.272h.02a.7.7,0,0,1,.542.286c1.01,1.067,3.226,5.968,2,28.391a1.18,1.18,0,0,0,.83,1.192l30.1,9.268A1.189,1.189,0,0,0,912.446,107.6Z"/><path class="cls-17" d="M879.555,53.136c14.786,0,27.751,11.938,29.34,28.906.566,6.054,2.831,20.007,3.551,24.376l-30.1-9.268c.687-12.6.809-29.922-3.708-29.922l-.1,0c-20.75,1.19-31.883,20.69-30.262,38.059a35.266,35.266,0,0,1-4.151-13.68C842.5,74.238,852.744,54.146,878.5,53.157c.354-.014.7-.021,1.057-.021m0-2.359c-.383,0-.763.007-1.148.022-11.556.444-21.156,4.664-27.765,12.2a38.339,38.339,0,0,0-8.869,28.826,37.432,37.432,0,0,0,4.432,14.594,2.359,2.359,0,0,0,4.418-1.353A34.977,34.977,0,0,1,858.6,79.45,27.961,27.961,0,0,1,878.393,69.6c.542.71,2.817,5.076,1.6,27.419a2.36,2.36,0,0,0,1.662,2.383l30.1,9.268a2.36,2.36,0,0,0,3.022-2.639c-.686-4.163-2.968-18.213-3.53-24.212-1.657-17.7-15.28-31.045-31.689-31.045Z"/><path class="cls-41" d="M912.446,107.6a1.181,1.181,0,0,0,1.164-1.372c-.688-4.173-2.975-18.258-3.54-24.294-1.6-17.089-14.718-29.975-30.515-29.975-.367,0-.734.007-1.1.021-11.224.431-20.534,4.513-26.922,11.8a37.154,37.154,0,0,0-8.582,27.938,36.239,36.239,0,0,0,4.292,14.138,1.179,1.179,0,0,0,2.208-.677c-1.6-17.078,10.988-33.539,28.051-36.692a3.063,3.063,0,0,0,.534-.168,2.808,2.808,0,0,1,1.028-.24c1.5,0,6.8,2.325,11.79,32.241a1.179,1.179,0,0,0,.816.934l20.431,6.291A1.194,1.194,0,0,0,912.446,107.6Z"/><path class="cls-17" d="M879.555,53.136c14.786,0,27.751,11.938,29.34,28.906.566,6.054,2.831,20.007,3.551,24.376l-20.432-6.291C887.1,70.642,881.822,66.9,879.061,66.9a5.583,5.583,0,0,0-1.776.427c-18.118,3.349-30.6,20.948-29.011,37.963a35.266,35.266,0,0,1-4.151-13.68C842.5,74.238,852.744,54.146,878.5,53.157c.354-.014.7-.021,1.057-.021m0-2.359c-.383,0-.763.007-1.148.022-11.556.444-21.156,4.664-27.765,12.2a38.339,38.339,0,0,0-8.869,28.826,37.432,37.432,0,0,0,4.432,14.594,2.359,2.359,0,0,0,4.418-1.354c-1.539-16.486,10.613-32.377,27.09-35.422a4.061,4.061,0,0,0,.743-.227,1.781,1.781,0,0,1,.605-.161c.221,0,5.476.355,10.625,31.255a2.363,2.363,0,0,0,1.634,1.867l20.432,6.291a2.36,2.36,0,0,0,3.022-2.639c-.686-4.163-2.968-18.213-3.53-24.212-1.657-17.7-15.28-31.045-31.689-31.045Z"/><g class="cls-18"><path class="cls-24" d="M908.9,82.042a33.354,33.354,0,0,0-7.623-18.564c-1.08,5.731-4.324,10.522-10.037,11.132-2.815.271-6.493-2.363-9.451-2.306,1.226,6.083,1.016,16.5.563,24.846l9.667,2.977,20.432,6.291C911.726,102.049,909.461,88.1,908.9,82.042Z"/></g><path class="cls-21" d="M858.146,69.939c5.458-5.025,10.9-9.247,15.139-11.333l7.918-3.891a52.568,52.568,0,0,0-7.767.193,38.046,38.046,0,0,0-19.984,10.676c-8.24,8.732-8.567,23.088-8.567,23.088S847.041,80.165,858.146,69.939Z"/><path class="cls-24" d="M923.644,115.673c.584,0,2.136,0,2.5-1.186.1-.319.268-.909.268-.909.057-.185.128-.425.207-.693.626-2.113,1.927-6.51,3.846-7.785a19.949,19.949,0,0,1,2.006-1.121,10.621,10.621,0,0,0,4.63-3.661,4.2,4.2,0,0,0,.6-3.643,5.685,5.685,0,0,0-3.5-3.33,4.316,4.316,0,0,0-1.632-.317c-3.327,0-6.563,3.6-9.417,6.773a22.336,22.336,0,0,1-3.385,3.345,4.441,4.441,0,0,1,.613-2.767l.191-.444a32.744,32.744,0,0,0,1.8-5.737c.613-2.847-.29-4.841-2.931-6.464a8.807,8.807,0,0,0-4.393-1.367,5.039,5.039,0,0,0-2.814.8c-2.129,1.395-2.1,3.48-2.084,5.156,0,.435.01.846-.015,1.25a9.408,9.408,0,0,1-2.293,5.551,1.813,1.813,0,0,1-1.358.657,2.4,2.4,0,0,1-1.847-1.027,2.333,2.333,0,0,1-.4-2.084,32.389,32.389,0,0,1,1.285-3.249c1.374-3.161,2.932-6.743,1.842-9.876a5.422,5.422,0,0,0-5.211-3.9,7.082,7.082,0,0,0-4.51,1.766c-1.156.975-2.364,3.483-3.533,5.909a27.194,27.194,0,0,1-1.861,3.505c-.144.184-.288.377-.434.57-.528.706-1.326,1.771-1.805,1.771-.226,0-.586-.26-.964-.695-1.292-1.487-.814-3.351.064-6.023.18-.551.356-1.09.5-1.6.367-1.344,1.072-4.727-.3-7.124a4.48,4.48,0,0,0-2.782-2.13,6.836,6.836,0,0,0-1.8-.263c-2.746,0-4.116,2.072-5.44,4.076-1.034,1.563-1.926,3.231-2.789,4.846-.455.851-.909,1.7-1.382,2.531a3.85,3.85,0,0,1-.915,1.251,1.108,1.108,0,0,1-.176-.151c-.463-.535-.172-3.6,0-5.424.417-4.391.89-9.368-2.7-9.779a3.087,3.087,0,0,0-.354-.02,2.685,2.685,0,0,0-2.074.955c-1.8,2.062-1.178,6.98-1.1,7.534.069.5.15.975.227,1.432a7.77,7.77,0,0,1-.129,4.654c-.415,1.045-.732,2.128-1.037,3.177-.117.4-.234.8-.356,1.195a5.161,5.161,0,0,1-.4,1.085,4.346,4.346,0,0,0-.977,2.034l-.273.887c-.366,1.188.045,2.379,8.738,5.936,5.46,2.235,12.834,4.81,20.763,7.251C907.7,112.91,919.473,115.673,923.644,115.673Z"/><path class="cls-17" d="M870.955,73.794a1.961,1.961,0,0,1,.225.013c4.256.486.012,12.8,2.014,14.864a1.409,1.409,0,0,0,.991.517c.781,0,1.409-.976,1.905-1.846,1.375-2.416,2.592-4.985,4.132-7.312,1.4-2.12,2.47-3.566,4.491-3.566a5.748,5.748,0,0,1,1.5.224c3.316.9,3,5.218,2.282,7.855-.747,2.736-2.539,6.124-.322,8.675A2.529,2.529,0,0,0,890,94.3c1.23,0,2.185-1.559,3.137-2.78,1.275-1.639,3.578-7.848,5.23-9.243a5.946,5.946,0,0,1,3.777-1.5,4.291,4.291,0,0,1,4.135,3.138c1.32,3.8-2.05,8.818-3.141,12.42a3.64,3.64,0,0,0,3.337,4.581,2.94,2.94,0,0,0,2.2-1.026,10.538,10.538,0,0,0,2.59-6.251c.129-2.083-.457-4.184,1.587-5.524a3.927,3.927,0,0,1,2.19-.616,7.583,7.583,0,0,1,3.8,1.2c2.183,1.341,2.944,2.8,2.416,5.255a31.8,31.8,0,0,1-1.736,5.536c-.529,1.261-1.341,2.8-.77,4.187.2.479.474.688.821.688,2.418,0,8.179-10.2,13-10.2a3.18,3.18,0,0,1,1.2.233c2.441.991,3.848,3,2.375,5.306-1.549,2.422-4.117,2.993-6.306,4.447-2.515,1.671-3.9,7.1-4.517,9.11,0,0-.167.579-.262.889-.08.26-.57.384-1.414.384-3.933,0-15.529-2.687-28.973-6.826-16.328-5.029-29.2-10.3-28.748-11.765.1-.311.272-.887.272-.887.768-2.494.609-.624,1.377-3.119.439-1.426.813-2.9,1.363-4.286.952-2.391.314-4.18-.028-6.663-.233-1.685-.553-7.2,2.048-7.2m0-2.277a3.842,3.842,0,0,0-2.933,1.347c-2.031,2.332-1.563,7.047-1.371,8.436.073.525.154,1,.234,1.467.289,1.694.463,2.717-.066,4.043-.436,1.1-.76,2.209-1.074,3.285-.115.393-.229.785-.349,1.173-.132.428-.215.655-.26.767a5.813,5.813,0,0,0-1.117,2.355l-.273.885c-.707,2.3,1.846,3.725,3.073,4.409a62.162,62.162,0,0,0,6.323,2.915c5.491,2.247,12.9,4.834,20.859,7.285,13.458,4.144,25.37,6.928,29.643,6.928,1.976,0,3.183-.67,3.591-1.993.087-.288.235-.8.267-.905.062-.2.132-.441.21-.7.5-1.672,1.81-6.116,3.384-7.162a19.439,19.439,0,0,1,1.895-1.056,11.674,11.674,0,0,0,5.069-4.06,5.3,5.3,0,0,0,.724-4.6,6.788,6.788,0,0,0-4.16-4.04,5.44,5.44,0,0,0-2.06-.4c-3.835,0-7.25,3.8-10.264,7.15-.089.1-.179.2-.273.3a34.028,34.028,0,0,0,1.45-4.906c.721-3.346-.375-5.785-3.45-7.675a9.952,9.952,0,0,0-4.987-1.534,6.16,6.16,0,0,0-3.439.988c-2.648,1.737-2.618,4.376-2.6,6.123,0,.412.009.8-.013,1.165a8.227,8.227,0,0,1-2,4.853c-.264.287-.449.287-.519.287a1.317,1.317,0,0,1-.933-.567A1.221,1.221,0,0,1,905.317,97a31.66,31.66,0,0,1,1.239-3.124c1.458-3.352,3.109-7.151,1.874-10.7a6.6,6.6,0,0,0-6.285-4.666,8.22,8.22,0,0,0-5.246,2.035c-1.247,1.053-2.323,3.171-3.823,6.282a28.628,28.628,0,0,1-1.734,3.3c-.149.19-.3.388-.447.588-.247.329-.612.818-.9,1.122l-.1-.11c-.9-1.037-.492-2.551.286-4.923.179-.544.363-1.106.514-1.66.4-1.481,1.173-5.224-.41-7.989a5.6,5.6,0,0,0-3.47-2.662,7.961,7.961,0,0,0-2.1-.3c-3.358,0-5.04,2.544-6.39,4.587-1.063,1.607-1.969,3.3-2.844,4.937q-.263.492-.517.965c.051-.728.122-1.483.182-2.115a33.18,33.18,0,0,0,.221-6.087c-.395-3.943-2.63-4.781-3.927-4.929a4.387,4.387,0,0,0-.483-.028Z"/><g class="cls-18"><path class="cls-24" d="M929.6,102.2c-4.574,3.36-4.761,4.888-7.456,9.534-3.793.323-48.641-12.83-52.925-13.37,4.79,2.372,14.318,5.912,25.455,9.341,16.33,5.027,29.934,7.912,30.387,6.442.1-.31.262-.889.262-.889.619-2.009,2-7.439,4.517-9.11,2.139-1.421,4.64-2,6.2-4.286C933.848,99.568,931.324,101.007,929.6,102.2Z"/></g><path class="cls-37" d="M846.035,121.18a9.842,9.842,0,1,0-.057,0Z"/><path class="cls-17" d="M846.033,103.376h.047A8.312,8.312,0,0,1,846.035,120h-.05a8.312,8.312,0,0,1,.048-16.624m0-2.36a10.672,10.672,0,0,0-.062,21.343h.064a10.672,10.672,0,0,0,.058-21.343Z"/><g class="cls-18"><path class="cls-37" d="M846.954,103.427a8.312,8.312,0,0,1-3.98,15.634,8.676,8.676,0,0,1-.875-.051,8.312,8.312,0,1,0,4.855-15.583Z"/></g><path class="cls-38" d="M839.4,111.652c.225-3.476,3.75-7.088,6.674-6.9a4.545,4.545,0,0,1,2.209.759,4.1,4.1,0,0,0-3.369-1.523c-2.906-.188-6.272,2.869-6.485,6.165-.113,1.752.057,3.6,1.048,4.76A8.129,8.129,0,0,1,839.4,111.652Z"/><path class="cls-17" d="M844.388,115.437a2.507,2.507,0,0,1-1.168,2.926c-1.034.5-2.444-.293-2.859-1.844s.407-2.916,1.551-3.005A2.479,2.479,0,0,1,844.388,115.437Z"/><path class="cls-39" d="M844.259,103.186a16.261,16.261,0,0,0-.1,16.984"/><path class="cls-17" d="M847.636,115.456a2.509,2.509,0,0,0,1.133,2.94c1.03.511,2.447-.267,2.88-1.813s-.374-2.92-1.517-3.022A2.476,2.476,0,0,0,847.636,115.456Z"/><path class="cls-39" d="M847.9,103.206a16.265,16.265,0,0,1-.1,16.984"/><g class="cls-18"><path class="cls-24" d="M885.035,92.452a4.161,4.161,0,0,0,2.181,2.082,3.314,3.314,0,0,0,3.166-.281c-.646.169-1.365-.071-2.2-1.035-2.217-2.551-.425-5.939.322-8.675a13.624,13.624,0,0,0,.415-2.224C886.189,84.938,884.263,88.457,885.035,92.452Z"/></g><g class="cls-18"><path class="cls-24" d="M902.9,99.717a1.675,1.675,0,0,0,1.418.361,3.562,3.562,0,0,1-1.182-3.737c1-3.3,3.917-7.8,3.372-11.457C904.019,89.814,899.59,94.3,902.9,99.717Z"/></g><g class="cls-18"><path class="cls-24" d="M918.666,103.512l.019-.006c-.439-1.343.325-2.8.831-4.011a31.8,31.8,0,0,0,1.736-5.536,4.175,4.175,0,0,0-.739-3.881c-.883,1.784-2.209,3.4-3.21,5.255C916.088,98.134,914.847,104.454,918.666,103.512Z"/></g><path class="cls-21" d="M883.672,80.181c-1.371,1.318-1.651,3.25-2.483,2.386s-.392-2.635.978-3.952,3.158-1.685,3.988-.821S885.043,78.862,883.672,80.181Z"/><path class="cls-21" d="M900.437,84.725c-1.371,1.318-1.651,3.252-2.481,2.387s-.394-2.635.977-3.952,3.157-1.685,3.989-.821S901.809,83.408,900.437,84.725Z"/><path class="cls-21" d="M870.578,77.207c-.441,1.175-.058,2.406-.8,2.127s-.984-1.456-.543-2.631,1.4-1.9,2.142-1.624S871.021,76.032,870.578,77.207Z"/><path class="cls-21" d="M914.5,90.791c-1.006.967-.992,2.617-1.823,1.753a2.558,2.558,0,0,1,3.646-3.506C917.159,89.9,915.51,89.823,914.5,90.791Z"/><path class="cls-17" d="M920.135,131.62a1.835,1.835,0,0,1,.713-.633,6.635,6.635,0,0,1,.848-.423,4.569,4.569,0,0,1,.839-.3,2.587,2.587,0,0,1,.731-.018,1.989,1.989,0,0,1,1.192.579,2.341,2.341,0,0,1,.6,1.2,8.982,8.982,0,0,1-.164,3.437,14.547,14.547,0,0,1-1.422,3.549,6.653,6.653,0,0,0,2.9-3.034A7.192,7.192,0,0,0,927,131.6a4.641,4.641,0,0,0-.446-1.189,3.693,3.693,0,0,0-.866-1.011,3.325,3.325,0,0,0-2.464-.714,3.189,3.189,0,0,0-1.2.385,5.037,5.037,0,0,0-1.562,1.525A1.612,1.612,0,0,0,920.135,131.62Z"/><path class="cls-17" d="M924.909,133.741a4.864,4.864,0,0,0-2.812.683,7.593,7.593,0,0,0-2.2,1.885,7.178,7.178,0,0,0-1.323,2.595,4.343,4.343,0,0,0,.135,2.909,16.852,16.852,0,0,1,1.3-2.288c.458-.687.943-1.338,1.447-1.981s1.037-1.267,1.6-1.89S924.2,134.419,924.909,133.741Z"/><path class="cls-42" d="M235.334,130.411a22.709,22.709,0,0,1-5.185,5.356,37.24,37.24,0,0,1-6.816,4.053,45.873,45.873,0,0,1-7.589,2.713,44.876,44.876,0,0,1-7.5,1.327,32.77,32.77,0,0,1-13-1.37,30.916,30.916,0,0,1-10.707-5.939,32.028,32.028,0,0,1-7.608-9.667,33.692,33.692,0,0,1-3.61-12.515,43.205,43.205,0,0,1,.248-10.3,42.681,42.681,0,0,1,2.586-9.726,39.048,39.048,0,0,1,4.769-8.624,35.072,35.072,0,0,1,15.541-12,36.306,36.306,0,0,1,10.425-2.38q2.1-.177,4.511-.207a47.991,47.991,0,0,1,4.81.184,33.91,33.91,0,0,1,4.708.751,21.651,21.651,0,0,1,4.243,1.443c.027,7.345.041,11.017.074,18.362a24.935,24.935,0,0,0-5.72-.914,45.44,45.44,0,0,0-5.69.1,21.978,21.978,0,0,0-7.165,1.776,17.436,17.436,0,0,0-5.587,3.867,15.9,15.9,0,0,0-3.487,5.691,16.837,16.837,0,0,0-.83,7.242,17.13,17.13,0,0,0,1.1,4.74,12.428,12.428,0,0,0,2.408,3.928,10.575,10.575,0,0,0,3.67,2.593,9.95,9.95,0,0,0,4.839.695,16.006,16.006,0,0,0,3.742-.795,8.357,8.357,0,0,0,3.214-1.9c-.045-1.5-.068-2.246-.113-3.743-4.639.3-6.958.462-11.6.782-.259-5.751-.388-8.626-.646-14.377q7.2-.855,14.407-1.611t14.506-1.606Q233.81,114.375,235.334,130.411Z"/><path class="cls-42" d="M299.92,131.716c-9.452,1.779-14.174,2.685-23.606,4.529-1.433-4.249-2.151-6.373-3.591-10.62-4.386.289-6.579.437-10.964.741-.663,4.389-.993,6.584-1.649,10.973-9.845-.272-14.771-.391-24.626-.593q7.126-32.583,14.535-65.1c10.826-1.312,16.243-1.947,27.081-3.175Q288.646,100.044,299.92,131.716Zm-29.9-20.612c-1.911-6.56-2.87-9.839-4.8-16.4-.987,6.754-1.477,10.132-2.45,16.886C265.672,111.4,267.121,111.3,270.019,111.1Z"/><path class="cls-42" d="M372.783,62.438q-.965,35.241-1.859,70.483c-8.736.712-13.1,1.082-21.831,1.849q-.719-18.536-1.435-37.073-4.34,15.153-8.587,30.331c-3.383.158-5.074.24-8.456.406-3.562-10.536-5.355-15.8-8.965-26.329l1.5,31.025c-8.853.725-13.278,1.1-22.124,1.883q-1.435-33.095-2.856-66.19c10.027-.962,15.043-1.426,25.078-2.316Q329.02,82.1,334.737,97.713q5.8-17.13,11.71-34.219C356.981,63.032,362.247,62.821,372.783,62.438Z"/><path class="cls-42" d="M422.745,61.747q-.194,4.512-.34,8.925T421.97,79.6c-8.251.607-12.376.922-20.622,1.578l-.315,6.051c5.794-.165,8.691-.242,14.486-.382-.283,5.952-.424,8.928-.7,14.88-5.8.335-8.7.508-14.507.867-.113,2.8-.17,4.206-.282,7.01,4.791-.139,7.187-.2,11.978-.326,3.4-.087,5.1-.128,8.5-.206q-.169,5.278-.361,10.484t-.312,10.435q-20.677.963-41.344,2.174-.45-34.566-.88-69.132Q400.176,62.284,422.745,61.747Z"/><path class="cls-42" d="M473.415,113.2a17.345,17.345,0,0,1-.473,4.21,16.509,16.509,0,0,1-1.426,3.81,15.868,15.868,0,0,1-2.281,3.268,14.809,14.809,0,0,1-3.029,2.557,14.88,14.88,0,0,1-7.888,2.315,15.16,15.16,0,0,1-4.125-.5,15.746,15.746,0,0,1-3.685-1.5,14.73,14.73,0,0,1-3.123-2.35,14.941,14.941,0,0,1-2.4-3.078,16.112,16.112,0,0,1-1.577-3.654,15.323,15.323,0,0,1-.61-4.089,16.647,16.647,0,0,1,1.839-7.892,16.228,16.228,0,0,1,2.258-3.3,15.148,15.148,0,0,1,3-2.61,14.59,14.59,0,0,1,3.622-1.728,14.054,14.054,0,0,1,4.134-.653,18.146,18.146,0,0,1,6.419,1.006,13.448,13.448,0,0,1,8.178,7.846A17.067,17.067,0,0,1,473.415,113.2Zm-10.7.722a6.754,6.754,0,0,0-.324-2,5.486,5.486,0,0,0-.9-1.716A4.518,4.518,0,0,0,460.038,109a4.042,4.042,0,0,0-1.973-.444,4.849,4.849,0,0,0-2.025.433,4.663,4.663,0,0,0-1.518,1.134,4.873,4.873,0,0,0-.956,1.667,5.94,5.94,0,0,0-.311,2.006,7.226,7.226,0,0,0,.318,2.009,5.967,5.967,0,0,0,.891,1.809,4.613,4.613,0,0,0,1.45,1.3,3.852,3.852,0,0,0,1.993.478,4.514,4.514,0,0,0,3.545-1.684,5.469,5.469,0,0,0,.945-1.747A6.247,6.247,0,0,0,462.713,113.917Z"/><path class="cls-42" d="M497.933,95.452q-.142,2.253-.262,4.458t-.312,4.458c-4.1.214-6.151.325-10.25.551,0,1.208.007,1.812.011,3.02,3.556-.014,5.333-.018,8.89-.023-.19,2.972-.285,4.459-.474,7.431-3.374.1-5.061.153-8.435.261.041,5.676.061,8.513.1,14.189-4.858.114-7.288.175-12.145.306q.26-17.282.523-34.564C484.522,95.475,488.992,95.458,497.933,95.452Z"/><path class="cls-42" d="M566.2,91.138c-.041,1.881-.071,3.755-.106,5.607s-.183,3.732-.4,5.6a42.559,42.559,0,0,1-2.818,11.286,31.223,31.223,0,0,1-5.775,9.273,25.876,25.876,0,0,1-8.675,6.244,27.332,27.332,0,0,1-11.6,2.206,34.731,34.731,0,0,1-5.3-.484,37.169,37.169,0,0,1-5.461-1.339,34.052,34.052,0,0,1-5.173-2.168,21.857,21.857,0,0,1-4.382-2.972c1.229-7.932,1.848-11.9,3.091-19.828a25.128,25.128,0,0,0,6.3,4.474,17.081,17.081,0,0,0,7.566,1.766,11.672,11.672,0,0,0,4.5-.721,8.353,8.353,0,0,0,3.067-2.074,10.21,10.21,0,0,0,1.947-3.116,18.179,18.179,0,0,0,1.063-3.822,35.084,35.084,0,0,0,.441-4.189q.1-2.156.127-4.265a147.39,147.39,0,0,0-.587-15.179q-.686-7.56-1.182-15.139c8.975-.466,13.464-.685,22.445-1.094A283.618,283.618,0,0,1,566.2,91.138Z"/><path class="cls-42" d="M617.477,62.848q-.444,4.494-.835,8.893t-.929,8.889c-8.274.149-12.409.235-20.679.433l-.65,6.024c5.794.157,8.691.241,14.484.421-.612,5.928-.918,8.892-1.527,14.819-5.814.013-8.72.025-14.533.062-.268,2.793-.4,4.19-.669,6.983,4.79.127,7.186.195,11.977.338,3.4.1,5.1.155,8.5.266q-.461,5.261-.941,10.448t-.889,10.4q-20.7-.184-41.4-.121,1.463-34.538,2.952-69.074Q594.911,62.134,617.477,62.848Z"/><path class="cls-42" d="M667.155,108.528a26.967,26.967,0,0,1-2.84,11.357,23.035,23.035,0,0,1-6.634,7.873,27.026,27.026,0,0,1-9.484,4.473,39.107,39.107,0,0,1-11.461,1.158,24.234,24.234,0,0,1-5.134-.824q-2.783-.729-5.629-1.769t-5.474-2.21q-2.628-1.172-4.663-2.2c1.111-7.867,1.668-11.8,2.789-19.666a34.469,34.469,0,0,0,8.974,4.035,40.309,40.309,0,0,0,9.775,1.645q.918.036,2.223.016a10.509,10.509,0,0,0,2.5-.329,5.389,5.389,0,0,0,2.048-1,2.6,2.6,0,0,0,.907-2.026,2.251,2.251,0,0,0-.515-1.58,4.343,4.343,0,0,0-1.454-1.116,9.285,9.285,0,0,0-2.054-.707,22.9,22.9,0,0,0-2.261-.4q-1.108-.141-2.075-.179l-1.548-.06a19.442,19.442,0,0,1-7.516-1.723,17.335,17.335,0,0,1-5.715-4.21,18.253,18.253,0,0,1-3.6-6.216,21.077,21.077,0,0,1-1.1-7.686,21.713,21.713,0,0,1,2.657-10.054,23.535,23.535,0,0,1,6.469-7.4,28.092,28.092,0,0,1,9.106-4.482A32.564,32.564,0,0,1,645.945,62q2.4.1,4.938.376a48.753,48.753,0,0,1,5.04.82,48.226,48.226,0,0,1,4.869,1.323,29.3,29.3,0,0,1,4.472,1.887c-1.109,7.741-1.661,11.611-2.762,19.353a59.547,59.547,0,0,0-6.85-2.159,34.985,34.985,0,0,0-7.049-1.051q-.633-.027-1.633-.044t-2.1.056a21.839,21.839,0,0,0-2.23.268,9.362,9.362,0,0,0-2.022.566,3.824,3.824,0,0,0-1.453,1.021,2.27,2.27,0,0,0-.55,1.561,2.293,2.293,0,0,0,.735,1.732,5.307,5.307,0,0,0,1.9,1.084,13.88,13.88,0,0,0,2.6.61q1.425.2,2.835.286t2.622.111a17.9,17.9,0,0,1,1.989.158,22.176,22.176,0,0,1,6.921,1.938,16.144,16.144,0,0,1,5.094,3.93,15.525,15.525,0,0,1,3.036,5.638A20.748,20.748,0,0,1,667.155,108.528Z"/><path class="cls-42" d="M722.874,68.53c-.711,8.1-1.066,12.151-1.775,20.252-5.808-.138-8.711-.2-14.518-.314q-3.185,22.572-6.333,45.147c-8.123-.049-12.184-.062-20.3-.064q1.231-22.687,2.467-45.374c-5.81,0-8.713.012-14.522.039.668-9.028,1-13.542,1.674-22.57Q696.23,66.93,722.874,68.53Z"/><path class="cls-42" d="M771.887,71.411q-.64,4.47-1.226,8.847t-1.32,8.84c-8.277-.216-12.414-.312-20.689-.478-.367,2.395-.55,3.593-.915,5.989,5.785.412,8.676.624,14.46,1.059-.873,5.895-1.31,8.842-2.18,14.738-5.811-.244-8.717-.36-14.529-.579-.391,2.778-.586,4.168-.976,6.946,4.783.338,7.175.512,11.958.866,3.393.252,5.09.38,8.483.64q-.692,5.237-1.4,10.4t-1.346,10.353q-20.682-1.1-41.377-1.945,2.983-34.44,5.993-68.878Q749.364,69.7,771.887,71.411Z"/><path class="cls-42" d="M828.624,99.289a32.332,32.332,0,0,1-1.292,6.691,19.649,19.649,0,0,1-6.635,9.706,32.582,32.582,0,0,1-5.731,3.613c3.851,8.514,5.763,12.774,9.56,21.3-8.783.865-13.17,1.311-21.935,2.233-2.232-8.4-3.357-12.594-5.625-20.986-2.395-.13-3.593-.193-5.988-.318-1.017,7.919-1.524,11.878-2.536,19.8-8.237-.692-12.356-1.025-20.6-1.668q1.088-10.877,2.148-21.66c.707-7.189,1.477-14.437,2.2-21.656.366-3.64.7-7.285,1.047-10.881s.761-7.216,1.243-10.864a62.974,62.974,0,0,1,13.672-2.244q3.383-.178,6.842-.056t7.073.434a38.289,38.289,0,0,1,10.636,2.449,28.074,28.074,0,0,1,8.787,5.345,22.681,22.681,0,0,1,5.706,8.088A21.835,21.835,0,0,1,828.624,99.289Zm-21.863-.458a11.582,11.582,0,0,0-.233-3.725,8.141,8.141,0,0,0-1.4-3.034,7.6,7.6,0,0,0-2.555-2.147,9.7,9.7,0,0,0-3.756-1.022,14.914,14.914,0,0,0-1.907-.043,13.4,13.4,0,0,0-1.829.206c-.913,7.081-1.368,10.621-2.278,17.7l1.161.1a17.888,17.888,0,0,0,4.278-.164,12.826,12.826,0,0,0,4.011-1.289,9.12,9.12,0,0,0,3.054-2.571A7.541,7.541,0,0,0,806.761,98.831Z"/></g></g></svg>