<svg xmlns="http://www.w3.org/2000/svg" xmlns:xlink="http://www.w3.org/1999/xlink" viewBox="0 0 1000.001 216"><defs><style>.cls-1{mask:url(#mask);filter:url(#luminosity-noclip-3);}.cls-11,.cls-13,.cls-2,.cls-4,.cls-9{mix-blend-mode:multiply;}.cls-2{fill:url(#linear-gradient);}.cls-3{mask:url(#mask-2);filter:url(#luminosity-noclip-4);}.cls-4{fill:url(#linear-gradient-2);}.cls-5{isolation:isolate;}.cls-6{fill:#e3b872;}.cls-7{fill:#fdfbe1;}.cls-8{mask:url(#mask-3);}.cls-13,.cls-9{opacity:0.7;}.cls-9{fill:url(#linear-gradient-3);}.cls-10,.cls-11{fill:#c0843e;}.cls-11{opacity:0.4;}.cls-12{mask:url(#mask-4);}.cls-13{fill:url(#linear-gradient-4);}.cls-14{fill:#78263f;}.cls-15{fill:#fdcc7e;}.cls-16{fill:#231f20;}.cls-17{filter:url(#luminosity-noclip-2);}.cls-18{filter:url(#luminosity-noclip);}</style><filter id="luminosity-noclip" x="71.763" y="-8314.443" width="89.324" height="32766" filterUnits="userSpaceOnUse" color-interpolation-filters="sRGB"><feFlood flood-color="#fff" result="bg"/><feBlend in="SourceGraphic" in2="bg"/></filter><mask id="mask" x="71.763" y="-8314.443" width="89.324" height="32766" maskUnits="userSpaceOnUse"><g class="cls-18"/></mask><linearGradient id="linear-gradient" x1="82.497" y1="162.328" x2="143.682" y2="138.739" gradientUnits="userSpaceOnUse"><stop offset="0.051"/><stop offset="0.281" stop-color="#4c4c4c"/><stop offset="0.531" stop-color="#989898"/><stop offset="0.738" stop-color="#d0d0d0"/><stop offset="0.891" stop-color="#f2f2f2"/><stop offset="0.973" stop-color="#fff"/></linearGradient><filter id="luminosity-noclip-2" x="839.231" y="-8314.443" width="93.829" height="32766" filterUnits="userSpaceOnUse" color-interpolation-filters="sRGB"><feFlood flood-color="#fff" result="bg"/><feBlend in="SourceGraphic" in2="bg"/></filter><mask id="mask-2" x="839.231" y="-8314.443" width="93.829" height="32766" maskUnits="userSpaceOnUse"><g class="cls-17"/></mask><linearGradient id="linear-gradient-2" x1="918.405" y1="153.861" x2="860.578" y2="143.804" xlink:href="#linear-gradient"/><filter id="luminosity-noclip-3" x="71.763" y="103.926" width="89.324" height="88.865" filterUnits="userSpaceOnUse" color-interpolation-filters="sRGB"><feFlood flood-color="#fff" result="bg"/><feBlend in="SourceGraphic" in2="bg"/></filter><mask id="mask-3" x="71.763" y="103.926" width="89.324" height="88.865" maskUnits="userSpaceOnUse"><g class="cls-1"><path class="cls-2" d="M159.708,181.755a23.77,23.77,0,0,1-1.533-5.336c-.741-3.842-1.642-7.676-2.424-11.509-.733-3.567-1.652-7.113-2.512-10.672-.517-2.139.535-5.309-2.425-6.578-4.045-1.742-5.958-5.425-7.789-8.538a66.275,66.275,0,0,1-5.073-11.392c-2.164-6.037-4.425-12.717-9.051-17.991-4.164-4.747-11.31-5.893-18.384-5.809-1.437.02-2.819.035-4.242.185-1.866.2-3.637-.137-5.513,0a10.8,10.8,0,0,0-3.623,1.31,9.013,9.013,0,0,1-1.2.452c.009-.013.022-.021.032-.034s-.01-.041-.032-.021-.069.055-.1.082a18.214,18.214,0,0,0-2.7.92c-.38.186-.3.767.223.556.229-.1.458-.179.7-.261-3.2,1.748-7.911,2.668-11.357,3.456a43.926,43.926,0,0,1-6.729.776,27.152,27.152,0,0,0-4.21.685c7.975,27.154,17.908,53.937,27.686,80.755,4.539-.762,9.105-1.454,13.64-2.169a237.5,237.5,0,0,1,28.756-2.873c5.509-.191,11.073-.322,16.577-.74,1.629-.22,2.718-.4,2.663-.7A27.184,27.184,0,0,0,159.708,181.755Z"/></g></mask><linearGradient id="linear-gradient-3" x1="82.497" y1="162.328" x2="143.682" y2="138.739" gradientUnits="userSpaceOnUse"><stop offset="0.051" stop-color="#ccd8d4"/><stop offset="0.377" stop-color="#aca48b"/><stop offset="0.655" stop-color="#947d53"/><stop offset="0.862" stop-color="#856431"/><stop offset="0.973" stop-color="#7f5b24"/></linearGradient><filter id="luminosity-noclip-4" x="839.231" y="103.926" width="93.829" height="88.241" filterUnits="userSpaceOnUse" color-interpolation-filters="sRGB"><feFlood flood-color="#fff" result="bg"/><feBlend in="SourceGraphic" in2="bg"/></filter><mask id="mask-4" x="839.231" y="103.926" width="93.829" height="88.241" maskUnits="userSpaceOnUse"><g class="cls-3"><path class="cls-4" d="M897.042,192.166c2.892-8.3,5.967-16.557,9.481-24.718,7.807-18.162,17.084-35.92,26.537-53.621-1.462.7-2.2,3.538-3.056,4.334a2.247,2.247,0,0,0-.477.543,8.972,8.972,0,0,1,.165-1.564,24.294,24.294,0,0,1,1.247-4.13c.108-.254-.148-.494-.477-.563a44.807,44.807,0,0,0-6.113-1.1,44.049,44.049,0,0,1-6.734-.776c-3.443-.788-8.154-1.708-11.348-3.456.229.082.458.164.694.261.514.211.605-.37.221-.556a18.154,18.154,0,0,0-2.71-.92.839.839,0,0,0-.091-.082c-.027-.02-.054,0-.036.021s.027.021.036.034a8.565,8.565,0,0,1-1.2-.452,10.767,10.767,0,0,0-3.632-1.31c-1.866-.137-3.641.2-5.51,0-1.419-.15-2.8-.165-4.236-.185-7.074-.084-14.229,1.062-18.385,5.809-4.629,5.274-6.889,11.954-9.05,17.991a66.765,66.765,0,0,1-5.078,11.392c-1.831,3.113-3.735,6.8-7.789,8.538-2.956,1.269-1.913,4.439-2.424,6.578-.861,3.559-1.776,7.1-2.508,10.672-.787,3.833-1.685,7.667-2.425,11.509a23.916,23.916,0,0,1-1.529,5.336,26.655,26.655,0,0,0-1.382,4.554c-.064.3,1.035.48,2.665.7,5.5.418,11.062.549,16.58.74a237.793,237.793,0,0,1,28.753,2.873C890.489,191.137,893.767,191.645,897.042,192.166Z"/></g></mask><linearGradient id="linear-gradient-4" x1="918.405" y1="153.861" x2="860.578" y2="143.804" xlink:href="#linear-gradient-3"/></defs><g class="cls-5"><g id="Layer_2" data-name="Layer 2"><path class="cls-6" d="M56.9,192.3c-.553,1.757,1.4,4.781,1.849,6.406.421,1.5.321,3.306,1.464,4.616,3.2-1.159,6.259-2.585,9.572-3.552,2.887-.844,5.783-1.7,8.708-2.5a5.769,5.769,0,0,0,.041-.686c.141.185.3.37.452.548,1.593-.432,3.19-.857,4.8-1.248.256-.061.518-.117.773-.178a.3.3,0,0,0,.041-.214c-.535-2.195-1.574-4.2-1.775-6.459a11.027,11.027,0,0,1,.032-2.024c.929,1.763,5.2,7.661,6.483,7.551.321-.027.622-.061.93-.1,7.526-1.516,15.222-2.641,22.827-3.842a237.5,237.5,0,0,1,28.756-2.873c5.509-.191,11.073-.322,16.577-.74,1.629-.22,2.718-.4,2.663-.7a27.184,27.184,0,0,0-1.377-4.554,23.77,23.77,0,0,1-1.533-5.336c-.741-3.842-1.642-7.676-2.424-11.509-.733-3.567-1.652-7.113-2.512-10.672-.517-2.139.535-5.309-2.425-6.578-4.045-1.742-5.958-5.425-7.789-8.538a66.275,66.275,0,0,1-5.073-11.392c-2.164-6.037-4.425-12.717-9.051-17.991-4.164-4.747-11.31-5.893-18.384-5.809-1.437.02-2.819.035-4.242.185-1.866.2-3.637-.137-5.513,0a10.8,10.8,0,0,0-3.623,1.31,9.013,9.013,0,0,1-1.2.452c.009-.013.022-.021.032-.034s-.01-.041-.032-.021-.069.055-.1.082a18.214,18.214,0,0,0-2.7.92c-.38.186-.3.767.223.556.229-.1.458-.179.7-.261-3.2,1.748-7.911,2.668-11.357,3.456a43.926,43.926,0,0,1-6.729.776,45.368,45.368,0,0,0-6.123,1.1c-.324.069-.576.309-.467.563a25.244,25.244,0,0,1,1.249,4.13,8.417,8.417,0,0,1,.151,1.564c-.04-.111-.156-.248-.475-.543-.952-.892-1.767-4.4-3.647-4.5a.667.667,0,0,0-.622.343c-.541,1.111-2.979,2.386-4.15,3.039a33.513,33.513,0,0,1-6.479,2.639c-4.114,1.257-8.273,2.415-12.455,3.534-2.283.609-4.557,1.041-6.895,1.481-1.446.267-3.052-.179-4.439.253a19.6,19.6,0,0,0-7.512,4.486c-.165.15-.37.651.128.625a18.249,18.249,0,0,1,5.454.41c-1.4,1.647-.608,4.136-.608,5.987,0,1.037,1.889,2.2,2.387,3.1.526.947,1.113,1.872,1.639,2.819.608,1.111.481,2.2.691,3.361.032.178.265.274.489.234,1.373-.247,2.594-.8,3.981-1.016,2.059-.322,4.209-.3,6.3-.548a28.224,28.224,0,0,0-4.347,1.94,19.119,19.119,0,0,0-3.728,1.983c-1.345,1.083,1.7,3.093,2.319,3.881,2.3,2.949,2.608,6.728,3.436,10.021.668,2.648,2.443,5.206,4.136,7.558,1.057,1.475,2.1,2.483,2.4,4.218.083.46-.2,1.55.261,1.942a1.184,1.184,0,0,0,1.1.246,20.8,20.8,0,0,1,3.473-.7,8.267,8.267,0,0,0-.719.59c-.769.72-2.095,1.29-2.53,2.188-.494,1.022,1.56,2.394,2.219,3.12,1.41,1.551,2.059,4.335,1.259,6.029-.44.926-1.126,1.55.086,2.25C55.437,190.541,57.422,190.658,56.9,192.3Z"/><path class="cls-7" d="M75.973,111.351l-.93.109c-.311.04-.622.055-.92.123-.608.117-1.221.22-1.817.358l-1.8.4a4.434,4.434,0,0,0-.864.226.4.4,0,0,0-.22.268c-.027.1.041.206.077.322l.49,1.365c.074.226.179.446.233.679l.183.693.183.692a5.734,5.734,0,0,1,.17.7A10.386,10.386,0,0,1,70.9,118.7a.1.1,0,0,1-.11.089.127.127,0,0,1-.114-.055l0-.007a4.445,4.445,0,0,0-.536-.59,3.339,3.339,0,0,1-.476-.671c-.265-.46-.489-.926-.736-1.386a10.224,10.224,0,0,0-.829-1.331,2.223,2.223,0,0,0-1.289-.926c-.056-.006-.165-.042-.179-.02-.087.007-.169.014-.188.041a.555.555,0,0,0-.22.2,3.262,3.262,0,0,1-.508.665,8.036,8.036,0,0,1-1.395,1.112,36.049,36.049,0,0,1-3.179,1.8c-.536.3-1.118.542-1.7.8s-1.171.466-1.771.693c-1.189.438-2.43.816-3.669,1.165l-7.413,2.113c-1.239.356-2.453.713-3.724,1.063-1.264.289-2.508.61-3.794.871l-1.926.384a11.248,11.248,0,0,1-1.994.289c-1.387.04-2.682-.193-3.789.294a16.454,16.454,0,0,0-3.312,1.523,20.134,20.134,0,0,0-2.829,2.024c-.215.178-.42.37-.636.555l-.155.143-.06.048c-.022.028-.059.063-.059.076a.389.389,0,0,0-.06.193c0,.02,0-.015-.041-.028-.009-.014-.032,0,.078-.006l.494-.014c.335-.007.659-.022,1-.022a19.4,19.4,0,0,1,4.008.446c.178.035.279.179.234.309l-.019.034-.023.042c-.133.213-.284.418-.407.637-.078.241-.178.467-.238.707-.032.24-.083.487-.105.734l-.014.747c.023.5.064,1.008.119,1.523l.078.769.019.4.008.192,0,.1v.047c0,.008,0-.073,0-.034l.009.048a2.313,2.313,0,0,0,.091.371c.055.089.11.185.161.275a6.115,6.115,0,0,0,.526.617c.38.4.832.789,1.231,1.241a10.768,10.768,0,0,1,.914,1.434l.824,1.406.2.357.056.082a.738.738,0,0,1,.05.123l.073.178a3.551,3.551,0,0,1,.27.755c.054.268.123.548.151.809l.083.768.1.754.005.049h0c.024.062-.022-.075-.018-.055l0,.006.013.028a.631.631,0,0,0,.042.075.061.061,0,0,0-.042-.061c-.018,0,0-.006-.005-.006s0,0,.029,0l.247-.056c.672-.137,1.257-.322,1.9-.507a14.73,14.73,0,0,1,2.031-.466c.677-.077,1.346-.172,2.045-.213l2.06-.138c.681-.034,1.34-.109,2.012-.163l.12.548-.316.075-.357.138c-.237.081-.476.2-.718.3-.472.213-.943.439-1.414.672l-1.419.713-1.44.659c-.494.212-.93.459-1.378.7-.206.123-.4.267-.6.4a1.433,1.433,0,0,0-.261.191c-.082.082-.183.179-.174.227a1.059,1.059,0,0,0,.252.993,6.873,6.873,0,0,0,.906,1.016l1.066.988a2.83,2.83,0,0,1,.48.576l.38.57a8.269,8.269,0,0,1,.668,1.193,9.8,9.8,0,0,1,.526,1.227,19.93,19.93,0,0,1,.741,2.5c.21.836.372,1.679.55,2.516.086.412.178.83.274,1.248l.141.611.188.623a14.021,14.021,0,0,0,1,2.388,26.109,26.109,0,0,0,1.374,2.3c.494.754,1.024,1.5,1.555,2.242s1.139,1.455,1.615,2.25a4.661,4.661,0,0,1,.768,2.537,2.571,2.571,0,0,0,.1,1.181.654.654,0,0,0,.2.192,1.363,1.363,0,0,0,.279.13,1.015,1.015,0,0,0,.649-.069,13.6,13.6,0,0,1,1.647-.376l1.666-.262a.227.227,0,0,1,.266.13.151.151,0,0,1-.059.152h-.005c-.494.391-.952.822-1.523,1.207A7.118,7.118,0,0,0,50.789,178c-.083.1-.157.241-.216.33a1.48,1.48,0,0,0-.058.2c0,.056-.005.1,0,.159a1.487,1.487,0,0,0,.324.719,9.431,9.431,0,0,0,1.286,1.311,5.993,5.993,0,0,1,.7.678,7.115,7.115,0,0,1,.526.734,6.811,6.811,0,0,1,.7,1.6,6.553,6.553,0,0,1,.284,1.673,4.277,4.277,0,0,1-.032.844,3.109,3.109,0,0,1-.192.83c-.142.562-.576,1.043-.719,1.564a.786.786,0,0,0,.252.706c.125.089.252.185.38.268.151.088.3.164.454.239a20.638,20.638,0,0,1,1.893.872,1.411,1.411,0,0,1,.627.706,1.456,1.456,0,0,1-.022.85,3.183,3.183,0,0,0-.005,1.633,9.38,9.38,0,0,0,.5,1.612c.4,1.063.948,2.1,1.272,3.175-.343-1.076-.911-2.1-1.341-3.162a11.031,11.031,0,0,1-.54-1.61,3.386,3.386,0,0,1-.027-1.667,1.136,1.136,0,0,0-.581-1.441c-.558-.336-1.258-.541-1.894-.843-.161-.069-.312-.152-.462-.234s-.289-.192-.425-.3a.918.918,0,0,1-.321-.843c.151-.57.572-1.049.691-1.585a2.933,2.933,0,0,0,.165-.794,4.076,4.076,0,0,0,.013-.818,6.169,6.169,0,0,0-.306-1.618,6.61,6.61,0,0,0-.7-1.53,6.048,6.048,0,0,0-.536-.72,6.505,6.505,0,0,0-.659-.638,9.98,9.98,0,0,1-1.345-1.351,1.812,1.812,0,0,1-.38-.844,1.143,1.143,0,0,1,.01-.254,2.123,2.123,0,0,1,.059-.2,3,3,0,0,1,.26-.418,7.642,7.642,0,0,1,1.533-1.256c.526-.357.984-.788,1.51-1.207l.207.288a22.244,22.244,0,0,0-3.236.638,3.189,3.189,0,0,1-.448.11,1.4,1.4,0,0,1-.536-.041,1.676,1.676,0,0,1-.444-.2,1.057,1.057,0,0,1-.3-.308,2.618,2.618,0,0,1-.15-1.338,3.124,3.124,0,0,0-.193-1.207,6.085,6.085,0,0,0-.548-1.16c-.459-.753-1.081-1.473-1.616-2.215s-1.079-1.495-1.583-2.256-.975-1.536-1.409-2.332a15.1,15.1,0,0,1-1.047-2.443l-.189-.623-.151-.631q-.151-.628-.284-1.255c-.183-.837-.351-1.673-.566-2.5a18.8,18.8,0,0,0-.747-2.455,10.193,10.193,0,0,0-.512-1.186,8.42,8.42,0,0,0-.65-1.146l-.384-.562a2.34,2.34,0,0,0-.416-.5l-1.076-.98a7.281,7.281,0,0,1-.983-1.092,1.39,1.39,0,0,1-.275-1.432,7.236,7.236,0,0,1,2.659-1.757l1.446-.665,1.4-.707c.467-.24.947-.472,1.437-.7.251-.1.489-.218.755-.322l.4-.151c.161-.04.329-.082.489-.115a.4.4,0,0,1,.467.184c.059.151-.05.309-.252.349a.134.134,0,0,1-.059.008l-.036.007c-.687.061-1.382.144-2.064.178l-2.027.144c-.664.034-1.345.138-2.017.219a13.421,13.421,0,0,0-1.881.44c-.636.184-1.308.4-1.954.528l-.247.061a1.21,1.21,0,0,1-.476,0,.984.984,0,0,1-.238-.081.93.93,0,0,1-.224-.193.568.568,0,0,1-.055-.1l-.014-.02-.005-.015c.005.015-.04-.123-.027-.068v-.007l-.005-.048-.095-.782-.073-.761c-.033-.254-.087-.48-.124-.714a3.622,3.622,0,0,0-.261-.733l-.073-.185c0-.02-.032-.09-.027-.069l-.051-.082-.2-.357-.809-1.413a10.224,10.224,0,0,0-.843-1.343c-.348-.405-.8-.8-1.208-1.228a6.518,6.518,0,0,1-.577-.686c-.077-.138-.155-.289-.223-.433a2.391,2.391,0,0,1-.091-.384l-.01-.048-.009-.082,0-.1-.005-.184-.013-.379-.069-.767q-.081-.762-.109-1.543l.018-.789c.022-.268.077-.535.118-.8.069-.267.18-.527.275-.788.137-.247.316-.494.476-.741l.187.378a18.437,18.437,0,0,0-3.8-.446c-.326,0-.659.014-.985.02l-.5.014a1.083,1.083,0,0,1-.4-.055.444.444,0,0,1-.3-.329.713.713,0,0,1,.152-.514.779.779,0,0,1,.073-.09c.059-.061.064-.054.1-.09l.165-.143c.219-.185.43-.384.654-.57a21.649,21.649,0,0,1,2.92-2.064c.521-.316,1.088-.589,1.651-.864a18.731,18.731,0,0,1,1.789-.7,6.365,6.365,0,0,1,.993-.274,8.785,8.785,0,0,1,1.044-.075c.681,0,1.35.048,1.967.033A10.352,10.352,0,0,0,37,124.294l1.913-.364c1.276-.254,2.53-.584,3.793-.865l3.7-1.036,7.431-2.085c1.245-.343,2.457-.706,3.642-1.137.585-.222,1.19-.419,1.743-.68.568-.241,1.135-.479,1.679-.768a36.141,36.141,0,0,0,3.152-1.769,8.445,8.445,0,0,0,1.337-1.036,2.922,2.922,0,0,0,.485-.618.812.812,0,0,1,.43-.342.694.694,0,0,1,.278-.062.978.978,0,0,1,.3.026,1.891,1.891,0,0,1,.906.441,3.343,3.343,0,0,1,.585.63A9.21,9.21,0,0,1,69.2,116c.233.46.453.933.7,1.387a3.44,3.44,0,0,0,.435.644,3.932,3.932,0,0,1,.559.644l-.229.029a9.718,9.718,0,0,0-.114-1.4,5.347,5.347,0,0,0-.152-.686l-.169-.692-.169-.693c-.05-.225-.151-.453-.22-.678l-.462-1.365a.8.8,0,0,1-.073-.363.51.51,0,0,1,.265-.317,4.8,4.8,0,0,1,.906-.225l1.808-.385c.6-.129,1.217-.226,1.825-.336.3-.063.618-.076.929-.116Z"/><g class="cls-8"><path class="cls-9" d="M159.708,181.755a23.77,23.77,0,0,1-1.533-5.336c-.741-3.842-1.642-7.676-2.424-11.509-.733-3.567-1.652-7.113-2.512-10.672-.517-2.139.535-5.309-2.425-6.578-4.045-1.742-5.958-5.425-7.789-8.538a66.275,66.275,0,0,1-5.073-11.392c-2.164-6.037-4.425-12.717-9.051-17.991-4.164-4.747-11.31-5.893-18.384-5.809-1.437.02-2.819.035-4.242.185-1.866.2-3.637-.137-5.513,0a10.8,10.8,0,0,0-3.623,1.31,9.013,9.013,0,0,1-1.2.452c.009-.013.022-.021.032-.034s-.01-.041-.032-.021-.069.055-.1.082a18.214,18.214,0,0,0-2.7.92c-.38.186-.3.767.223.556.229-.1.458-.179.7-.261-3.2,1.748-7.911,2.668-11.357,3.456a43.926,43.926,0,0,1-6.729.776,27.152,27.152,0,0,0-4.21.685c7.975,27.154,17.908,53.937,27.686,80.755,4.539-.762,9.105-1.454,13.64-2.169a237.5,237.5,0,0,1,28.756-2.873c5.509-.191,11.073-.322,16.577-.74,1.629-.22,2.718-.4,2.663-.7A27.184,27.184,0,0,0,159.708,181.755Z"/></g><path class="cls-10" d="M117.806,173.593l-3.436,4.356s-1.029.979,6.255,1.721,35.761,3.039,40.484,6.639l-5.716-24.876Z"/><path class="cls-11" d="M115.953,178.943c10.519-3.545,21.235-6.941,32.421-9.041,2.865-.541,5.743-1.008,8.634-1.445l-1.615-7.024-37.587,12.16-3.436,4.356S113.884,178.407,115.953,178.943Z"/><path class="cls-6" d="M943.419,192.3c.558,1.757-1.391,4.781-1.849,6.406-.41,1.5-.319,3.306-1.463,4.616-3.194-1.159-6.26-2.585-9.572-3.552-2.884-.844-5.783-1.7-8.711-2.5-.02-.227-.037-.453-.037-.686-.147.185-.293.37-.45.548-1.591-.432-3.191-.857-4.8-1.248-.256-.061-.512-.117-.767-.178a.3.3,0,0,1-.037-.214c.531-2.195,1.573-4.2,1.775-6.459a10.684,10.684,0,0,0-.037-2.024c-.924,1.763-5.2,7.661-6.479,7.551-.319-.027-.622-.061-.934-.1-7.522-1.516-15.217-2.641-22.822-3.842a237.793,237.793,0,0,0-28.753-2.873c-5.518-.191-11.082-.322-16.58-.74-1.63-.22-2.729-.4-2.665-.7a26.655,26.655,0,0,1,1.382-4.554,23.916,23.916,0,0,0,1.529-5.336c.74-3.842,1.638-7.676,2.425-11.509.732-3.567,1.647-7.113,2.508-10.672.511-2.139-.532-5.309,2.424-6.578,4.054-1.742,5.958-5.425,7.789-8.538a66.765,66.765,0,0,0,5.078-11.392c2.161-6.037,4.421-12.717,9.05-17.991,4.156-4.747,11.311-5.893,18.385-5.809,1.435.02,2.817.035,4.236.185,1.869.2,3.644-.137,5.51,0a10.767,10.767,0,0,1,3.632,1.31,8.565,8.565,0,0,0,1.2.452c-.009-.013-.027-.021-.036-.034s.009-.041.036-.021a.839.839,0,0,1,.091.082,18.154,18.154,0,0,1,2.71.92c.384.186.293.767-.221.556-.236-.1-.465-.179-.694-.261,3.194,1.748,7.9,2.668,11.348,3.456a44.049,44.049,0,0,0,6.734.776,44.807,44.807,0,0,1,6.113,1.1c.329.069.585.309.477.563a24.294,24.294,0,0,0-1.247,4.13,8.972,8.972,0,0,0-.165,1.564,2.247,2.247,0,0,1,.477-.543c.962-.892,1.776-4.4,3.652-4.5a.653.653,0,0,1,.621.343c.542,1.111,2.983,2.386,4.156,3.039a33.359,33.359,0,0,0,6.479,2.639c4.108,1.257,8.271,2.415,12.453,3.534,2.28.609,4.559,1.041,6.892,1.481,1.446.267,3.056-.179,4.446.253a19.632,19.632,0,0,1,7.5,4.486c.165.15.376.651-.128.625a18.253,18.253,0,0,0-5.453.41c1.4,1.647.6,4.136.6,5.987,0,1.037-1.885,2.2-2.39,3.1-.521.947-1.106,1.872-1.627,2.819-.615,1.111-.487,2.2-.7,3.361-.027.178-.266.274-.485.234-1.374-.247-2.6-.8-3.98-1.016-2.061-.322-4.21-.3-6.307-.548a28.1,28.1,0,0,1,4.347,1.94,19.123,19.123,0,0,1,3.735,1.983c1.335,1.083-1.7,3.093-2.316,3.881-2.307,2.949-2.609,6.728-3.44,10.021-.669,2.648-2.444,5.206-4.138,7.558-1.06,1.475-2.105,2.483-2.4,4.218-.083.46.2,1.55-.258,1.942a1.192,1.192,0,0,1-1.106.246,20.466,20.466,0,0,0-3.467-.7,7.253,7.253,0,0,1,.713.59c.777.72,2.105,1.29,2.535,2.188.494,1.022-1.557,2.394-2.225,3.12-1.4,1.551-2.058,4.335-1.254,6.029.45.926,1.126,1.55-.082,2.25C944.885,190.541,942.9,190.658,943.419,192.3Z"/><g class="cls-12"><path class="cls-13" d="M897.042,192.166c2.892-8.3,5.967-16.557,9.481-24.718,7.807-18.162,17.084-35.92,26.537-53.621-1.462.7-2.2,3.538-3.056,4.334a2.247,2.247,0,0,0-.477.543,8.972,8.972,0,0,1,.165-1.564,24.294,24.294,0,0,1,1.247-4.13c.108-.254-.148-.494-.477-.563a44.807,44.807,0,0,0-6.113-1.1,44.049,44.049,0,0,1-6.734-.776c-3.443-.788-8.154-1.708-11.348-3.456.229.082.458.164.694.261.514.211.605-.37.221-.556a18.154,18.154,0,0,0-2.71-.92.839.839,0,0,0-.091-.082c-.027-.02-.054,0-.036.021s.027.021.036.034a8.565,8.565,0,0,1-1.2-.452,10.767,10.767,0,0,0-3.632-1.31c-1.866-.137-3.641.2-5.51,0-1.419-.15-2.8-.165-4.236-.185-7.074-.084-14.229,1.062-18.385,5.809-4.629,5.274-6.889,11.954-9.05,17.991a66.765,66.765,0,0,1-5.078,11.392c-1.831,3.113-3.735,6.8-7.789,8.538-2.956,1.269-1.913,4.439-2.424,6.578-.861,3.559-1.776,7.1-2.508,10.672-.787,3.833-1.685,7.667-2.425,11.509a23.916,23.916,0,0,1-1.529,5.336,26.655,26.655,0,0,0-1.382,4.554c-.064.3,1.035.48,2.665.7,5.5.418,11.062.549,16.58.74a237.793,237.793,0,0,1,28.753,2.873C890.489,191.137,893.767,191.645,897.042,192.166Z"/></g><path class="cls-10" d="M882.511,173.593l3.44,4.356s1.025.979-6.26,1.721-35.761,3.039-40.484,6.639l5.719-24.876Z"/><path class="cls-11" d="M868.729,174.217c5.38,1.482,10.652,2.71,15.7,4.7,2-.521,1.52-.973,1.52-.973l-3.44-4.356-37.585-12.16-1.947,8.5A132.353,132.353,0,0,1,868.729,174.217Z"/><path class="cls-14" d="M87.8,72.613a13.239,13.239,0,0,0-1.358.609l3.787-1.577C89.424,71.967,88.6,72.283,87.8,72.613Z"/><path class="cls-15" d="M886.307,177.949l3.735-13.683,24.826-91.009c-43.906-19.423-330.209-32.2-414.528-32.2S129.725,53.834,85.805,73.257l24.836,91.009,3.729,13.683c34.252-17.477,311.3-29.28,385.97-29.28S852.057,160.472,886.307,177.949Z"/><path class="cls-7" d="M110.641,164.567a.39.39,0,0,1-.39-.24L85.415,73.32A.277.277,0,0,1,85.6,73C131.239,52.811,419,40.761,500.34,40.761S869.443,52.811,915.07,73c.2.082.255.268.145.4a.483.483,0,0,1-.548.111C869.15,53.38,581.543,41.358,500.34,41.358c-81.058,0-368.542,11.974-414.087,32.05l24.776,90.8c.041.164-.09.322-.31.357C110.692,164.561,110.663,164.567,110.641,164.567Z"/><path class="cls-16" d="M230.127,131.077a23.112,23.112,0,0,1-5.283,5.456,37.79,37.79,0,0,1-6.943,4.128,46.6,46.6,0,0,1-7.73,2.764,45.738,45.738,0,0,1-7.645,1.353,33.361,33.361,0,0,1-13.24-1.4,31.5,31.5,0,0,1-10.907-6.049,32.608,32.608,0,0,1-7.75-9.848,34.339,34.339,0,0,1-3.677-12.749,43.974,43.974,0,0,1,.252-10.5,43.483,43.483,0,0,1,2.635-9.908,39.914,39.914,0,0,1,4.857-8.785,35.743,35.743,0,0,1,15.832-12.221A36.984,36.984,0,0,1,201.149,70.9q2.139-.18,4.594-.211a48.924,48.924,0,0,1,4.9.187,34.716,34.716,0,0,1,4.795.766,21.991,21.991,0,0,1,4.322,1.47c.028,7.482.043,11.222.076,18.7a25.476,25.476,0,0,0-5.827-.931,46.362,46.362,0,0,0-5.8.105,22.358,22.358,0,0,0-7.3,1.808,17.766,17.766,0,0,0-5.691,3.94,16.182,16.182,0,0,0-3.553,5.8,17.165,17.165,0,0,0-.845,7.377,17.381,17.381,0,0,0,1.117,4.828,12.628,12.628,0,0,0,2.453,4,10.794,10.794,0,0,0,3.74,2.642,10.135,10.135,0,0,0,4.929.707,16.257,16.257,0,0,0,3.811-.809,8.526,8.526,0,0,0,3.275-1.938c-.047-1.524-.07-2.287-.117-3.812-4.725.311-7.088.47-11.813.8-.264-5.858-.4-8.788-.658-14.646q7.332-.871,14.675-1.641t14.778-1.636Q228.573,114.742,230.127,131.077Z"/><path class="cls-16" d="M295.919,132.406c-9.63,1.813-14.439,2.735-24.048,4.614-1.459-4.328-2.191-6.492-3.657-10.819-4.468.3-6.7.446-11.169.755-.676,4.472-1.012,6.707-1.68,11.179-10.029-.278-15.047-.4-25.086-.6q7.26-33.192,14.807-66.318c11.028-1.336,16.545-1.983,27.587-3.234Q284.433,100.143,295.919,132.406Zm-30.46-21c-1.947-6.683-2.924-10.024-4.885-16.7-1,6.88-1.5,10.32-2.5,17.2C261.03,111.706,262.506,111.606,265.459,111.41Z"/><path class="cls-16" d="M370.143,61.835q-.982,35.9-1.893,71.8c-8.9.725-13.348,1.1-22.24,1.884q-.732-18.882-1.462-37.765-4.421,15.435-8.747,30.9c-3.445.161-5.168.244-8.614.413q-4.535-13.42-9.132-26.821.764,15.8,1.528,31.6c-9.018.738-13.525,1.122-22.537,1.918q-1.462-33.713-2.91-67.425c10.215-.98,15.324-1.452,25.548-2.36q5.88,15.885,11.7,31.79,5.9-17.451,11.928-34.859C354.045,62.44,359.411,62.225,370.143,61.835Z"/><path class="cls-16" d="M421.038,61.131q-.2,4.595-.346,9.092t-.443,9.094c-8.406.618-12.608.94-21.008,1.607-.129,2.466-.193,3.7-.321,6.164,5.9-.168,8.854-.246,14.756-.389-.288,6.063-.432,9.095-.716,15.159-5.912.341-8.868.517-14.778.883-.115,2.856-.173,4.284-.287,7.14,4.88-.141,7.32-.208,12.2-.332,3.464-.088,5.2-.13,8.66-.21q-.172,5.378-.368,10.68t-.317,10.631q-21.065,1.014-42.117,2.214-.459-35.211-.9-70.422Q398.045,61.679,421.038,61.131Z"/><path class="cls-16" d="M472.654,113.539a17.582,17.582,0,0,1-.482,4.289,16.794,16.794,0,0,1-1.452,3.881,16.094,16.094,0,0,1-2.324,3.329,15.036,15.036,0,0,1-3.086,2.605A15.149,15.149,0,0,1,457.275,130a15.44,15.44,0,0,1-4.2-.508,16,16,0,0,1-3.754-1.522,15.132,15.132,0,0,1-3.182-2.394,15.291,15.291,0,0,1-2.45-3.136,16.344,16.344,0,0,1-1.605-3.723,15.625,15.625,0,0,1-.622-4.165,16.925,16.925,0,0,1,1.873-8.039,16.513,16.513,0,0,1,2.3-3.357,15.382,15.382,0,0,1,3.056-2.658,14.844,14.844,0,0,1,3.688-1.761,14.334,14.334,0,0,1,4.211-.665A18.489,18.489,0,0,1,463.13,99.1a13.692,13.692,0,0,1,8.329,7.992A17.426,17.426,0,0,1,472.654,113.539Zm-10.9.737a6.816,6.816,0,0,0-.329-2.036,5.579,5.579,0,0,0-.917-1.747,4.582,4.582,0,0,0-1.478-1.229,4.123,4.123,0,0,0-2.01-.452,4.937,4.937,0,0,0-2.062.441,4.739,4.739,0,0,0-1.547,1.155,4.967,4.967,0,0,0-.973,1.7,6.005,6.005,0,0,0-.317,2.043,7.412,7.412,0,0,0,.323,2.047,6.064,6.064,0,0,0,.908,1.843,4.689,4.689,0,0,0,1.477,1.324,3.919,3.919,0,0,0,2.031.487,4.6,4.6,0,0,0,3.611-1.715,5.6,5.6,0,0,0,.962-1.781A6.329,6.329,0,0,0,461.751,114.276Z"/><path class="cls-16" d="M497.631,95.465q-.147,2.3-.268,4.541t-.317,4.542c-4.178.218-6.266.33-10.442.561,0,1.23.006,1.846.011,3.076,3.622-.014,5.434-.018,9.056-.023-.193,3.028-.29,4.542-.481,7.569-3.438.1-5.157.156-8.594.267.041,5.781.062,8.672.1,14.453-4.949.116-7.423.179-12.372.313q.263-17.606.533-35.21C483.969,95.489,488.523,95.471,497.631,95.465Z"/><path class="cls-16" d="M567.171,91.071c-.042,1.915-.073,3.825-.108,5.712s-.186,3.8-.4,5.706a43.393,43.393,0,0,1-2.87,11.5,31.87,31.87,0,0,1-5.882,9.446,26.366,26.366,0,0,1-8.838,6.36,27.825,27.825,0,0,1-11.814,2.247,35.3,35.3,0,0,1-5.4-.492,37.812,37.812,0,0,1-5.564-1.365,34.677,34.677,0,0,1-5.269-2.208,22.319,22.319,0,0,1-4.464-3.027c1.253-8.08,1.883-12.12,3.149-20.2a25.589,25.589,0,0,0,6.421,4.558,17.4,17.4,0,0,0,7.708,1.8,11.9,11.9,0,0,0,4.581-.734,8.529,8.529,0,0,0,3.124-2.113,10.388,10.388,0,0,0,1.984-3.175,18.562,18.562,0,0,0,1.083-3.893,36.144,36.144,0,0,0,.449-4.267q.1-2.2.129-4.344a149.783,149.783,0,0,0-.6-15.463q-.7-7.7-1.2-15.422c9.142-.475,13.715-.7,22.865-1.114A288.559,288.559,0,0,1,567.171,91.071Z"/><path class="cls-16" d="M619.408,62.252q-.453,4.578-.85,9.059t-.947,9.056c-8.429.151-12.642.239-21.065.44-.266,2.455-.4,3.682-.663,6.137,5.9.16,8.853.245,14.755.429-.624,6.038-.935,9.058-1.556,15.1-5.922.013-8.883.025-14.8.063-.272,2.845-.409,4.268-.682,7.113,4.881.13,7.321.2,12.2.345,3.463.1,5.195.158,8.658.27q-.47,5.359-.959,10.644t-.9,10.6q-21.087-.155-42.172-.123,1.491-35.183,3.007-70.364Q596.421,61.525,619.408,62.252Z"/><path class="cls-16" d="M670.014,108.786a27.484,27.484,0,0,1-2.893,11.569,23.469,23.469,0,0,1-6.759,8.019,27.509,27.509,0,0,1-9.661,4.557,39.821,39.821,0,0,1-11.675,1.179,24.539,24.539,0,0,1-5.229-.839q-2.835-.742-5.734-1.8t-5.577-2.251q-2.677-1.192-4.75-2.239c1.131-8.013,1.7-12.02,2.841-20.033a35.079,35.079,0,0,0,9.142,4.111,40.988,40.988,0,0,0,9.958,1.675q.933.038,2.264.018a10.8,10.8,0,0,0,2.55-.337,5.477,5.477,0,0,0,2.086-1.013,2.644,2.644,0,0,0,.924-2.063,2.29,2.29,0,0,0-.525-1.61,4.412,4.412,0,0,0-1.482-1.137,9.523,9.523,0,0,0-2.092-.721q-1.173-.267-2.3-.41t-2.115-.182l-1.576-.061a19.8,19.8,0,0,1-7.657-1.756,17.646,17.646,0,0,1-5.822-4.288,18.556,18.556,0,0,1-3.663-6.331,21.442,21.442,0,0,1-1.123-7.831,22.113,22.113,0,0,1,2.706-10.241,23.98,23.98,0,0,1,6.59-7.537,28.6,28.6,0,0,1,9.276-4.566,33.181,33.181,0,0,1,10.691-1.282q2.443.1,5.03.383a49.666,49.666,0,0,1,10.1,2.183,29.865,29.865,0,0,1,4.556,1.922c-1.131,7.885-1.694,11.828-2.815,19.714a60.463,60.463,0,0,0-6.977-2.2,35.541,35.541,0,0,0-7.181-1.07c-.431-.019-.984-.034-1.663-.046s-1.391.007-2.138.057a22.615,22.615,0,0,0-2.271.273,9.525,9.525,0,0,0-2.059.577,3.9,3.9,0,0,0-1.482,1.04,2.307,2.307,0,0,0-.559,1.59,2.336,2.336,0,0,0,.748,1.765,5.4,5.4,0,0,0,1.939,1.1,14.109,14.109,0,0,0,2.651.621q1.455.207,2.889.292t2.672.113a17.943,17.943,0,0,1,2.025.161,22.635,22.635,0,0,1,7.051,1.974,16.449,16.449,0,0,1,5.189,4,15.809,15.809,0,0,1,3.092,5.744A21.121,21.121,0,0,1,670.014,108.786Z"/><path class="cls-16" d="M726.774,68.041c-.724,8.252-1.085,12.378-1.808,20.63-5.917-.14-8.875-.2-14.791-.32q-3.243,22.994-6.45,45.99c-8.275-.05-12.411-.063-20.682-.065q1.255-23.111,2.514-46.221c-5.919,0-8.877.011-14.794.04.681-9.2,1.022-13.8,1.7-22.992Q699.632,66.411,726.774,68.041Z"/><path class="cls-16" d="M776.7,70.975q-.654,4.554-1.249,9.013t-1.344,9c-8.432-.22-12.647-.318-21.077-.488-.373,2.441-.56,3.661-.932,6.1,5.893.419,8.839.635,14.73,1.079-.889,6-1.334,9.007-2.22,15.012-5.92-.248-8.88-.366-14.8-.589-.4,2.83-.6,4.245-.995,7.076,4.873.344,7.309.521,12.181.882,3.457.256,5.186.387,8.643.651q-.705,5.334-1.427,10.591t-1.371,10.547q-21.071-1.084-42.15-1.982,3.037-35.082,6.105-70.163Q753.758,69.235,776.7,70.975Z"/><path class="cls-16" d="M834.5,99.374a32.883,32.883,0,0,1-1.316,6.816,20.006,20.006,0,0,1-6.76,9.887,33.178,33.178,0,0,1-5.838,3.68c3.923,8.673,5.872,13.013,9.739,21.7-8.946.881-13.415,1.336-22.344,2.275-2.274-8.553-3.42-12.829-5.73-21.379-2.44-.131-3.661-.2-6.1-.323-1.036,8.067-1.552,12.1-2.583,20.167-8.391-.7-12.587-1.044-20.981-1.7q1.107-11.08,2.188-22.065c.72-7.323,1.506-14.708,2.245-22.06.372-3.708.713-7.421,1.066-11.084s.775-7.351,1.267-11.067a64.037,64.037,0,0,1,13.927-2.286q3.446-.182,6.97-.057t7.2.442a39.036,39.036,0,0,1,10.835,2.5,28.6,28.6,0,0,1,8.951,5.445,23.1,23.1,0,0,1,5.813,8.239A22.248,22.248,0,0,1,834.5,99.374Zm-22.271-.466a11.809,11.809,0,0,0-.238-3.8,8.311,8.311,0,0,0-1.423-3.091,7.75,7.75,0,0,0-2.6-2.187,9.888,9.888,0,0,0-3.827-1.041,14.916,14.916,0,0,0-1.942-.043,13.407,13.407,0,0,0-1.863.209c-.93,7.213-1.394,10.819-2.321,18.033l1.183.1a18.342,18.342,0,0,0,4.357-.167,13.062,13.062,0,0,0,4.086-1.313,9.281,9.281,0,0,0,3.112-2.62A7.684,7.684,0,0,0,812.228,98.908Z"/></g></g></svg>