<svg xmlns="http://www.w3.org/2000/svg" xmlns:xlink="http://www.w3.org/1999/xlink" viewBox="0 0 200 50"><defs><style>.cls-1{isolation:isolate;}.cls-2{fill:url(#Áåçûìÿííûé_ãðàäèåíò_373);}.cls-11,.cls-3{opacity:0.3;}.cls-11,.cls-15,.cls-3,.cls-9{mix-blend-mode:multiply;}.cls-3{fill:url(#Áåçûìÿííûé_ãðàäèåíò_373-2);}.cls-4,.cls-7,.cls-9{opacity:0.4;}.cls-10,.cls-16,.cls-4,.cls-7,.cls-8{mix-blend-mode:screen;}.cls-10,.cls-16,.cls-5,.cls-7,.cls-9{fill:#997753;}.cls-6,.cls-8{fill:#b09066;}.cls-10{opacity:0.2;}.cls-12{fill:url(#Áåçûìÿííûé_ãðàäèåíò_373-3);}.cls-13{fill:url(#Áåçûìÿííûé_ãðàäèåíò_373-4);}.cls-14{fill:url(#Áåçûìÿííûé_ãðàäèåíò_373-5);}.cls-15{opacity:0.5;fill:url(#Áåçûìÿííûé_ãðàäèåíò_373-6);}.cls-16{opacity:0.1;}.cls-17{fill:#deb581;}.cls-18{fill:#4f3b22;}</style><linearGradient id="Áåçûìÿííûé_ãðàäèåíò_373" x1="100.002" y1="5.405" x2="100.002" y2="45.598" gradientUnits="userSpaceOnUse"><stop offset="0" stop-color="#94794c"/><stop offset="1" stop-color="#5e3825"/></linearGradient><linearGradient id="Áåçûìÿííûé_ãðàäèåíò_373-2" x1="1.022" y1="36.801" x2="198.978" y2="36.801" xlink:href="#Áåçûìÿííûé_ãðàäèåíò_373"/><linearGradient id="Áåçûìÿííûé_ãðàäèåíò_373-3" x1="2.213" y1="42.607" x2="17.582" y2="42.607" xlink:href="#Áåçûìÿííûé_ãðàäèåíò_373"/><linearGradient id="Áåçûìÿííûé_ãðàäèåíò_373-4" x1="18.377" y1="45.566" x2="182.424" y2="45.566" xlink:href="#Áåçûìÿííûé_ãðàäèåíò_373"/><linearGradient id="Áåçûìÿííûé_ãðàäèåíò_373-5" x1="183.024" y1="42.496" x2="196.768" y2="42.496" xlink:href="#Áåçûìÿííûé_ãðàäèåíò_373"/><linearGradient id="Áåçûìÿííûé_ãðàäèåíò_373-6" x1="18.377" y1="40.653" x2="182.424" y2="40.653" xlink:href="#Áåçûìÿííûé_ãðàäèåíò_373"/></defs><g class="cls-1"><g id="Layer_8" data-name="Layer 8"><path class="cls-2" d="M198.57,37.2c-.229,1.427-.565,2.37-1.007,2.619q-.37.209-.795.457c-2.826,1.733-7.366,5.17-10.705,7.221a11.374,11.374,0,0,1-3.516,1.677.426.426,0,0,0-.123.014c-2.915.166-43.777.152-83.048.11-35.244.042-71.813.056-81-.069-1.254-.014-2-.041-2.155-.055a10.724,10.724,0,0,1-2.456-.86c-3.516-1.566-9.2-4.947-11.553-7.192a4.005,4.005,0,0,1-1.008-1.3A10.424,10.424,0,0,1,1.029,37.1c.017-2.994.318-7.914.583-12.834.265-4.961.512-9.909.371-12.86a8.05,8.05,0,0,0-.336-2.426c-.088-.222.23-.707.813-1.33h.017A41.581,41.581,0,0,1,9.932,1.848,7.113,7.113,0,0,1,12.688.67H186.08c.743,0,2.226.845,3.852,1.982a52.768,52.768,0,0,1,6.713,5.71,2.87,2.87,0,0,1,.477.623,14.944,14.944,0,0,1,.583,2.509,123.31,123.31,0,0,1,1.166,13.443A72.486,72.486,0,0,1,198.57,37.2Z"/><path class="cls-3" d="M198.57,37.2a6.182,6.182,0,0,1-.706,2.328.817.817,0,0,1-.3.291q-.37.209-.795.457c-2.826,1.733-7.366,5.17-10.705,7.221-.477.3-.937.568-1.36.79a7.117,7.117,0,0,1-2.156.887.426.426,0,0,0-.123.014c-2.915.166-43.777.152-83.048.11-35.244.042-71.813.056-81-.069-1.148-.014-1.855-.041-2.1-.055h-.053a10.724,10.724,0,0,1-2.456-.86c-3.516-1.566-9.2-4.947-11.553-7.192a4.005,4.005,0,0,1-1.008-1.3,3.447,3.447,0,0,1-.123-.679A16.944,16.944,0,0,1,1.029,37.1c.017-2.994.318-7.914.583-12.834,7.42,6.653,20.563,1.345,20.563,1.345l154.807-.18s11.607,5.2,21.889-.5A72.486,72.486,0,0,1,198.57,37.2Z"/><g class="cls-4"><path class="cls-5" d="M24.834,31.679s-6.086,12.327-6.457,17.552c-1.254-.014-2-.041-2.155-.055a10.724,10.724,0,0,1-2.456-.86C16.133,47.028,19.5,37.139,21.124,34.1c.459-.873.035-.7-1.148-.519-5.053.762-14.071,5.6-17.763,7.539a4.005,4.005,0,0,1-1.008-1.3A10.424,10.424,0,0,1,1.029,37.1c5.158,1.524,21.738-6.812,21.738-6.812l.848,1.552Z"/><path class="cls-5" d="M29.25,10.718l-1.219-.167L27.183,12.1s-18.611-.928-25.2-.692a8.05,8.05,0,0,0-.336-2.426c-.088-.222.23-.707.813-1.33h.017C6.293,9.581,13.519,9.3,18.43,10.371c1.042.236,1.758-1.386,1.1-2.079-2.561-2.716-6.6-4.407-9.6-6.444A7.113,7.113,0,0,1,12.688.67h2.35C16.345,5.964,29.25,10.718,29.25,10.718Z"/><path class="cls-5" d="M198.57,37.2c-.229,1.427-.565,2.37-1.007,2.619q-.37.209-.795.457c-3.921-1.58-11.783-6.52-16.694-7.56-1.307-.277-2.164-.055-1.634.929,1.731,3.215,5.556,11.828,7.623,13.852a11.374,11.374,0,0,1-3.516,1.677.426.426,0,0,0-.123.014c-.424-4.518-6.3-15.945-7.977-18.453l-1.218-.222.759-.457c-.088-.139-.159-.236-.159-.236h.548l1.5-.915S192.228,37.617,198.57,37.2Z"/><path class="cls-5" d="M197.705,11.494c-7.7.235-26.888,1.912-26.888,1.912l-.883-1.621s1.378-.264,3.515-.721C175.887,8.237,184.862,4.772,185.8.67h.282c.743,0,2.226.845,3.852,1.982-3.233,1.483-7.623,3.18-10.079,5.813-.83.9-.035,1.705,1.325,1.386,4.47-1.053,12-.1,15.467-1.489a2.87,2.87,0,0,1,.477.623A14.944,14.944,0,0,1,197.705,11.494Z"/></g><path class="cls-6" d="M179.933,21.472c.035,1.552,0,3.077-.106,4.463-.212,2.647-.707,4.753-1.519,5.5-2.65,2.426-154.137,4.158-156.345,1.04-1.042-1.469-1.731-6.112-1.872-10.907,0-.222-.018-.443-.018-.665-.106-5.156.441-10.3,1.89-11.642,2.65-2.425,153.7-1.385,155.9.693C179.032,11.05,179.844,16.372,179.933,21.472Z"/><path class="cls-7" d="M18.724,2.171c-2.164,2.378,6.19,5.053,8.318,5.255,3.644.347,33.183-1.571,68.53-1.386,38.972.205,76.355,1.94,77.436,1.213,2.061-1.386,10.01-4.389,8.833-4.851S20.2.554,18.724,2.171Z"/><path class="cls-8" d="M179.827,25.941c-.318-4.656-1.8-12.348-3.286-14.524-1.767-2.605-150.833-2.259-153.253-.526-1.5,1.081-2.6,6.624-3.2,10.685-.177-5.377.353-10.907,1.872-12.307,2.65-2.425,153.7-1.386,155.9.693C179.4,11.4,180.286,20,179.827,25.941Z"/><path class="cls-9" d="M179.933,21.472c.035,1.552,0,3.077-.106,4.463-.212,2.647-.707,4.753-1.519,5.5-2.65,2.426-154.137,4.158-156.345,1.04-1.042-1.469-1.731-6.112-1.872-10.907,0-.222-.018-.443-.018-.665C51.872,32.323,152.6,27.916,179.933,21.472Z"/><path class="cls-10" d="M25.5,12.45c-1.039,2.99,31.357,11.78,69.339,11.78s77.731-6.929,78.173-10.048S26.821,8.639,25.5,12.45Z"/><g class="cls-11"><path class="cls-12" d="M10.622,36.9c-3.357,1.552-6.555,3.257-8.409,4.227,2.349,2.245,8.037,5.626,11.553,7.192,1.148-.623,2.509-3.243,3.816-6.139C14.084,42.745,8.519,39.849,10.622,36.9Z"/><path class="cls-13" d="M20.426,41.8a30.708,30.708,0,0,0-2.049,7.428c9.186.125,45.755.111,81,.069,39.271.042,80.133.056,83.048-.11a25.836,25.836,0,0,0-2-6.5C162.814,48.926,41.89,48.275,20.426,41.8Z"/><path class="cls-14" d="M191.115,37.493c-.742,1.9-3.639,5.64-8.091,5.224a21.941,21.941,0,0,0,3.039,4.782c3.339-2.051,7.879-5.488,10.705-7.221C195.3,39.7,193.306,38.629,191.115,37.493Z"/></g><path class="cls-15" d="M182.424,49.19c-2.915.166-43.777.152-83.048.11-35.244.042-71.813.056-81-.069.3-4.171,4.222-12.875,5.794-16.215,17.366,2.162,130.605.929,151.027-1.039C177.424,35.844,182.053,45.2,182.424,49.19Z"/><path class="cls-16" d="M25.938,36.093c-1.667.935-4.2,8.258-3.754,10.074s154.578,1.487,155.682.5-2.208-10.4-3.975-11.065S27.705,35.1,25.938,36.093Z"/><path class="cls-17" d="M33.34,25.339v.013c-.23.444-9.063,1.3-9.946,1.137s-2.526-2.523-3.2-2.523S8.625,27.32,8.378,26.738c-.336-.776,11.041-5.1,11.713-5.169s3.427,3.354,4.08,3.354S33.34,24.923,33.34,25.339Z"/><path class="cls-18" d="M33.34,25.339v.013s-8.621.347-9.4.264c-.76-.083-3.074-2.772-4.081-2.772-.989,0-11.483,3.894-11.483,3.894-.336-.776,11.041-5.1,11.713-5.169s3.427,3.354,4.08,3.354S33.34,24.923,33.34,25.339Z"/><path class="cls-18" d="M159.546,30.466c-.671.693-20.1-1.205-22.082-.693-2,.513-14.593,1.622-14.593.513,0-.693,13.921-2.245,15.688-2.245S160.2,29.773,159.546,30.466Z"/><path class="cls-17" d="M159.546,30.466c-.671.693-20.1-1.205-22.082-.693-2,.513-14.593,1.622-14.593.513a134.8,134.8,0,0,0,15.14-1.386C139.99,28.388,159.546,30.466,159.546,30.466Z"/><path class="cls-17" d="M115.372,8.292c-.653,1.206-13.594,4.047-14.583,2.772-.654-.873,9.063-2.772,10.387-3.284,1.326-.527,1.767-5.9,1.767-5.9S116.026,7.086,115.372,8.292Z"/><path class="cls-18" d="M112.731,8.292c-.883.873-11.942,2.772-11.942,2.772-.654-.873,9.063-2.772,10.387-3.284,1.326-.527,1.767-5.9,1.767-5.9C114.038,4.135,113.614,7.419,112.731,8.292Z"/></g></g></svg>