<svg xmlns="http://www.w3.org/2000/svg" viewBox="0 0 120 50"><defs><style>.cls-1{isolation:isolate;}.cls-2{fill:#e6b520;}.cls-10,.cls-11,.cls-3,.cls-5{fill:#ffd43d;}.cls-4{fill:#ebc338;opacity:0.3;}.cls-12,.cls-4{mix-blend-mode:multiply;}.cls-5,.cls-9{opacity:0.6;}.cls-10,.cls-11,.cls-13,.cls-5,.cls-9{mix-blend-mode:screen;}.cls-13,.cls-6,.cls-9{fill:#ffe136;}.cls-12,.cls-7{fill:#d99312;}.cls-8{fill:#fff;opacity:0.7;}.cls-10{opacity:0.5;}.cls-11{opacity:0.2;}.cls-12,.cls-13{opacity:0.4;}</style></defs><g class="cls-1"><g id="Layer_4" data-name="Layer 4"><path class="cls-2" d="M117.427,8.331V41.659a2.032,2.032,0,0,1-.575,1.425.282.282,0,0,1-.061.052,1.731,1.731,0,0,1-.41.307,2.054,2.054,0,0,1-1,.256H4.614a2.031,2.031,0,0,1-1.425-.574.082.082,0,0,0-.041-.041,2.032,2.032,0,0,1-.575-1.425V8.331A2.057,2.057,0,0,1,3.26,6.8c.011,0,.021-.01.031-.02L3.3,6.772c.02-.02.051-.041.071-.061.052-.031.113-.072.164-.1a.082.082,0,0,1,.041-.02A1.99,1.99,0,0,1,4.614,6.3H115.386a2.057,2.057,0,0,1,1.128.338,2.121,2.121,0,0,1,.184.133A2.054,2.054,0,0,1,117.427,8.331Z"/><path class="cls-3" d="M117.427,16.672V35.965c-3.108,5.407-10.686-5.929-10.686-5.929s-1.189-17.73,1.887-9.053C111.048,27.82,115.478,23.321,117.427,16.672Z"/><path class="cls-4" d="M117.427,8.331V41.659a2.032,2.032,0,0,1-.575,1.425.282.282,0,0,1-.061.052,1.731,1.731,0,0,1-.41.307,2.054,2.054,0,0,1-1,.256h-5.4c-.226-.522-.421-1.045-.595-1.548-.226-.677-.41-1.343-.554-1.979-.031-.154-.072-.308-.1-.462V39.7a9.418,9.418,0,0,1-.206-2.338v-.01a2.047,2.047,0,0,1,.452-1.4c.287-.3.707-.318,1.271,0,1.723.943,2.923,1.6,3.743,1.231.01,0,.01-.011.021-.011,1.241-.605,1.62-3.64,1.62-11.752,0-1.558-.021-2.994-.072-4.286-.348-9.024-1.876-12.008-4.461-10.675l-.02.01-.051.02a5.033,5.033,0,0,0-.616.411h-.01l-.01.01-.134.092c.011-.02.021-.051.041-.1v-.011c.113-.194.349-.666.677-1.271s.739-1.385,1.2-2.215c.195-.359.4-.728.615-1.1h2.595a2.057,2.057,0,0,1,1.128.338,2.121,2.121,0,0,1,.184.133A2.054,2.054,0,0,1,117.427,8.331Z"/><path class="cls-5" d="M5.906,32.618c-1.343-.8-2.44-.144-3.333,1.252V11.619c2.8,5.851,7.015,9.9,7.948,17.486C11.546,37.416,10.859,35.577,5.906,32.618Z"/><path class="cls-4" d="M12.131,6.3c.01.43.01.84-.01,1.24-.011.185-.021.359-.031.534a7.658,7.658,0,0,1-.431,2.071v.01a1.948,1.948,0,0,1-.584.851,1.113,1.113,0,0,1-1.323,0,5.089,5.089,0,0,0-2.133-.717c-1.508-.072-2.625,1.158-3.282,4.584v.01a51.958,51.958,0,0,0-.656,8.5,28.8,28.8,0,0,0,1,8.9c1.384,4.307,3.845,4.543,5.076,3.661,0,0-.2.759-.534,1.948-.081.3-.174.626-.287.974-.41,1.4-.943,3.128-1.548,4.83H4.614a2.031,2.031,0,0,1-1.425-.574.082.082,0,0,0-.041-.041,2.032,2.032,0,0,1-.575-1.425V8.331A2.057,2.057,0,0,1,3.26,6.8c.011,0,.021-.01.031-.02L3.3,6.772c.02-.02.051-.041.071-.061.052-.031.113-.072.164-.1a.082.082,0,0,1,.041-.02A1.99,1.99,0,0,1,4.614,6.3Z"/><rect class="cls-6" x="9.752" y="11.009" width="100.496" height="24.933"/><path class="cls-7" d="M116.852,43.084a.282.282,0,0,1-.061.052,1.731,1.731,0,0,1-.41.307,2.054,2.054,0,0,1-1,.256H4.614a2.031,2.031,0,0,1-1.425-.574.082.082,0,0,0-.041-.041l4.307-4.655,2.3-2.482h100.5l2.595,2.8,1.928,2.081Z"/><path class="cls-3" d="M116.7,6.772,112.258,9.7l-1.159.759-.02.01-.051.02-.616.411h-.01l-.01.01-.134.092-.01.01H9.752L3.291,6.783,3.3,6.772c.02-.02.051-.041.071-.061.052-.031.113-.072.164-.1a.082.082,0,0,1,.041-.02A1.99,1.99,0,0,1,4.614,6.3H115.386a2.057,2.057,0,0,1,1.128.338A2.121,2.121,0,0,1,116.7,6.772Z"/><path class="cls-5" d="M110.248,11.009V23.365c-13.823-1.1-52.617,6.671-63.9,12.578H9.752v-9.73c6.973,5.762,90.621-4.156,94.425-11.137a29.461,29.461,0,0,0,1.877-4.067Z"/><path class="cls-8" d="M110.248,11.007s-1.528.021-4.214.052c-18.787.215-94.077,1.128-94.826,1.61-.482.307-.872,7.465-1.138,13.762a.627.627,0,0,1-.011.143c-.133,3.569-.235,6.83-.287,8.4-.01.615-.02.974-.02.974s0-.359-.021-.985c-.02-1.825-.082-5.937-.2-10.223-.174-6.163-.451-12.7-.892-13.362A8.118,8.118,0,0,0,7.619,10.29C6.337,9.131,4.317,7.593,3.26,6.8c.011,0,.021-.01.031-.02L3.3,6.772c.02-.02.051-.041.071-.061A65.8,65.8,0,0,0,10.7,10.085a9.045,9.045,0,0,0,.964.061c5.486.195,33.051.421,57.652.595C90.928,10.9,110.248,11.007,110.248,11.007Z"/><path class="cls-8" d="M116.852,43.084a.282.282,0,0,1-.061.052c-.636-.564-1.672-1.467-2.759-2.39-.707-.605-1.435-1.21-2.092-1.733a11.816,11.816,0,0,0-2.287-1.589,10.984,10.984,0,0,0-1.128-.062c-10.952-.349-97.225-.646-98.343-.123a7.021,7.021,0,0,0-.964.656c-.287.226-.615.493-.974.79-1.7,1.415-3.978,3.466-5.055,4.44a.082.082,0,0,0-.041-.041l4.307-4.655,2.3-2.482h.195c1.927,0,17.956-.01,36.558-.082h.01c27.924-.113,61.611-.38,62.113-1.026a6.185,6.185,0,0,0,.379-1.845c.257-2.154.5-5.887.7-9.671a.845.845,0,0,0,.01-.164c.328-6.04.533-12.152.533-12.152v24.94l2.595,2.8,1.928,2.081Z"/><path class="cls-9" d="M12.743,14.7c-1.559,1.263-.855,17.176,0,18.284s92.634.37,93.831,0,2.734-19.207,1.709-20.131S14.11,13.6,12.743,14.7Z"/><path class="cls-10" d="M112.258,9.7l-1.159.759-.02.01-.667.441h-.02c-.031,0-.062-.01-.093-.01-5.609-.482-18.961-1.569-25.606-1.569a73.879,73.879,0,0,0-15.382,1.415c-.41.082-.81.174-1.2.266H9.752L3.3,6.772c.02-.02.051-.041.071-.061.052-.031.113-.072.164-.1a.082.082,0,0,1,.041-.02c1.549.3,4.6.635,8.543.953C27.41,8.792,56.1,9.91,62.482,8.659c4.686-.923,19.607-.492,32.128.082h.01c6.881.308,13.034.667,16.356.872C111.469,9.644,111.9,9.674,112.258,9.7Z"/><path class="cls-11" d="M116.852,43.084a.282.282,0,0,1-.061.052,1.731,1.731,0,0,1-.41.307c-1.785-.379-4.154-.83-6.994-1.292-2.8-.461-6.071-.933-9.67-1.333a163.418,163.418,0,0,0-28.519-.81,77.249,77.249,0,0,0-14.182,2.133A49.13,49.13,0,0,0,52,43.7H34.045a55.651,55.651,0,0,0,6.317-1.907c2.1-.759,4.317-1.671,6.738-2.717,8.819-3.8,42.711-.893,59.918.9.626.072,1.231.133,1.815.2,2.072.215,3.835.42,5.2.574.267.031.513.051.739.082Z"/><path class="cls-12" d="M116.852,43.084a.282.282,0,0,1-.061.052,1.731,1.731,0,0,1-.41.307,2.054,2.054,0,0,1-1,.256H4.614a2.031,2.031,0,0,1-1.425-.574.082.082,0,0,0-.041-.041l4.307-4.655c.236.082.5.174.789.256.216.062.451.123.687.184,5.569,1.446,17.495,2.421,31.431,2.923,5.343.185,10.973.308,16.654.349,15.536.123,31.441-.308,42.7-1.323,2.727-.246,5.188-.523,7.3-.841.605-.092,1.169-.184,1.713-.277,1.23-.215,2.307-.441,3.209-.687.328-.092.626-.174.9-.266l1.928,2.081Z"/><path class="cls-13" d="M116.7,6.772,112.258,9.7l-1.159.759-.02.01-.667.441-.154.092-.01.01H9.752L3.3,6.772c.02-.02.051-.041.071-.061.052-.031.113-.072.164-.1A55.517,55.517,0,0,0,12.09,8.075c19.125,2.112,57.652,1.907,82.52.666h.01c7.322-.369,13.444-.83,17.556-1.343a33.415,33.415,0,0,0,4.338-.759A2.121,2.121,0,0,1,116.7,6.772Z"/></g></g></svg>