<svg xmlns="http://www.w3.org/2000/svg" xmlns:xlink="http://www.w3.org/1999/xlink" viewBox="0 0 200 50"><defs><style>.cls-1{isolation:isolate;}.cls-2{fill:url(#Áåçûìÿííûé_ãðàäèåíò_373);}.cls-11,.cls-3{opacity:0.3;}.cls-11,.cls-15,.cls-3,.cls-9{mix-blend-mode:multiply;}.cls-3{fill:url(#Áåçûìÿííûé_ãðàäèåíò_373-2);}.cls-4,.cls-7,.cls-9{opacity:0.4;}.cls-10,.cls-16,.cls-4,.cls-7,.cls-8{mix-blend-mode:screen;}.cls-10,.cls-16,.cls-5,.cls-7,.cls-9{fill:#997753;}.cls-6,.cls-8{fill:#b09066;}.cls-10{opacity:0.2;}.cls-12{fill:url(#Áåçûìÿííûé_ãðàäèåíò_373-3);}.cls-13{fill:url(#Áåçûìÿííûé_ãðàäèåíò_373-4);}.cls-14{fill:url(#Áåçûìÿííûé_ãðàäèåíò_373-5);}.cls-15{opacity:0.5;fill:url(#Áåçûìÿííûé_ãðàäèåíò_373-6);}.cls-16{opacity:0.1;}.cls-17{fill:#deb581;}.cls-18{fill:#4f3b22;}</style><linearGradient id="Áåçûìÿííûé_ãðàäèåíò_373" x1="100" y1="5.41" x2="100" y2="45.6" gradientUnits="userSpaceOnUse"><stop offset="0" stop-color="#94794c"/><stop offset="1" stop-color="#5e3825"/></linearGradient><linearGradient id="Áåçûìÿííûé_ãðàäèåíò_373-2" x1="1.02" y1="39.37" x2="198.98" y2="39.37" xlink:href="#Áåçûìÿííûé_ãðàäèåíò_373"/><linearGradient id="Áåçûìÿííûé_ãðàäèåíò_373-3" x1="2.21" y1="42.61" x2="17.58" y2="42.61" xlink:href="#Áåçûìÿííûé_ãðàäèåíò_373"/><linearGradient id="Áåçûìÿííûé_ãðàäèåíò_373-4" x1="18.38" y1="45.57" x2="182.42" y2="45.57" xlink:href="#Áåçûìÿííûé_ãðàäèåíò_373"/><linearGradient id="Áåçûìÿííûé_ãðàäèåíò_373-5" x1="183.02" y1="42.5" x2="196.77" y2="42.5" xlink:href="#Áåçûìÿííûé_ãðàäèåíò_373"/><linearGradient id="Áåçûìÿííûé_ãðàäèåíò_373-6" x1="18.38" y1="45.33" x2="182.42" y2="45.33" xlink:href="#Áåçûìÿííûé_ãðàäèåíò_373"/></defs><g class="cls-1"><g id="Layer_8" data-name="Layer 8"><path class="cls-2" d="M198.6,37.2c-.3,1.4-.6,2.4-1,2.6l-.8.5c-2.9,1.7-7.4,5.1-10.7,7.2a12.1,12.1,0,0,1-3.6,1.7h-.1c-2.9.2-43.8.1-83,.1-35.3,0-71.8.1-81-.1H16.2a10.7,10.7,0,0,1-2.4-.9c-3.5-1.5-9.2-4.9-11.6-7.2a3.5,3.5,0,0,1-1-1.3A13.1,13.1,0,0,1,1,37.1c0-3,.3-7.9.6-12.8s.5-9.9.4-12.9A8.9,8.9,0,0,0,1.6,9a2.9,2.9,0,0,1,.9-1.3h0A42.5,42.5,0,0,1,9.9,1.8,6.8,6.8,0,0,1,12.7.7H186.1a9.2,9.2,0,0,1,3.8,2,43.1,43.1,0,0,1,6.7,5.7l.5.6a15.3,15.3,0,0,1,.6,2.5,125,125,0,0,1,1.2,13.4A76.8,76.8,0,0,1,198.6,37.2Z"/><path class="cls-3" d="M198.6,39.7a3.9,3.9,0,0,1-.7,1.8l-.3.3-.8.3c-2.9,1.4-7.4,4.1-10.7,5.8l-1.4.6a6.1,6.1,0,0,1-2.2.7h-.1c-2.9.2-43.8.1-83,.1-35.3,0-71.8.1-81,0H16.2a8.3,8.3,0,0,1-2.4-.7A54.5,54.5,0,0,1,2.2,42.8c-.5-.4-.9-.7-1-1s-.1-.3-.1-.6A7.1,7.1,0,0,1,1,39.6c0-2.4.3-6.3.6-10.2,7.4,5.3,20.6,1.1,20.6,1.1L177,30.3s11.6,4.2,21.9-.4A49.1,49.1,0,0,1,198.6,39.7Z"/><g class="cls-4"><path class="cls-5" d="M24.8,31.7S18.7,44,18.4,49.2H16.2a10.7,10.7,0,0,1-2.4-.9c2.3-1.3,5.7-11.2,7.3-14.2.5-.9.1-.7-1.1-.5-5.1.7-14.1,5.6-17.8,7.5a3.5,3.5,0,0,1-1-1.3A13.1,13.1,0,0,1,1,37.1c5.2,1.5,21.8-6.8,21.8-6.8l.8,1.5Z"/><path class="cls-5" d="M29.3,10.7H28l-.8,1.5S8.6,11.2,2,11.4A8.9,8.9,0,0,0,1.6,9a2.9,2.9,0,0,1,.9-1.3h0c3.8,1.9,11,1.6,15.9,2.7a1.3,1.3,0,0,0,1.1-2.1C17,5.6,12.9,3.9,9.9,1.8A6.8,6.8,0,0,1,12.7.7H15C16.3,6,29.3,10.7,29.3,10.7Z"/><path class="cls-5" d="M198.6,37.2c-.3,1.4-.6,2.4-1,2.6l-.8.5c-4-1.6-11.8-6.5-16.7-7.6-1.3-.3-2.2,0-1.7.9,1.8,3.3,5.6,11.9,7.7,13.9a12.1,12.1,0,0,1-3.6,1.7h-.1c-.4-4.5-6.3-16-8-18.5l-1.2-.2.8-.4-.2-.3h.6l1.5-.9S192.2,37.6,198.6,37.2Z"/><path class="cls-5" d="M197.7,11.5c-7.7.2-26.9,1.9-26.9,1.9l-.9-1.6,3.5-.7c2.5-2.9,11.5-6.3,12.4-10.4h.3a9.2,9.2,0,0,1,3.8,2c-3.2,1.4-7.6,3.1-10,5.8-.9.9-.1,1.7,1.3,1.4,4.4-1.1,12-.2,15.4-1.5l.5.6A15.3,15.3,0,0,1,197.7,11.5Z"/></g><path class="cls-6" d="M179.9,24a46,46,0,0,1-.1,5.3c-.2,3.1-.7,5.6-1.5,6.5-2.6,2.9-154.1,5-156.3,1.3-1.1-1.8-1.8-7.3-1.9-13v-.8c-.1-6.1.4-12.2,1.9-13.8s153.7-1.6,155.9.8S179.8,18,179.9,24Z"/><path class="cls-7" d="M18.7,2.2c-2.1,2.3,6.2,5,8.3,5.2,3.7.4,33.2-1.5,68.6-1.4,38.9.2,76.3,2,77.4,1.3s10-4.4,8.8-4.9S20.2.6,18.7,2.2Z"/><path class="cls-8" d="M179.8,25.9c-.3-4.6-1.8-12.3-3.3-14.5S25.7,9.2,23.3,10.9s-2.6,6.6-3.2,10.7c-.2-5.4.3-10.9,1.9-12.3s153.7-1.4,155.9.7S180.3,20,179.8,25.9Z"/><path class="cls-9" d="M179.9,21.7c.1,2.2,0,4.3-.1,6.2-.2,3.7-.7,6.6-1.5,7.7C175.7,39,24.2,41.4,22,37c-1.1-2-1.8-8.5-1.9-15.2v-.9C51.9,36.8,152.6,30.7,179.9,21.7Z"/><path class="cls-10" d="M25.5,12.4c-1,3,31.4,11.8,69.3,11.8s77.8-6.9,78.2-10S26.8,8.6,25.5,12.4Z"/><g class="cls-11"><path class="cls-12" d="M10.6,36.9c-3.3,1.5-6.5,3.3-8.4,4.2,2.4,2.3,8.1,5.7,11.6,7.2,1.1-.6,2.5-3.2,3.8-6.1C14.1,42.7,8.5,39.8,10.6,36.9Z"/><path class="cls-13" d="M20.4,41.8a31.9,31.9,0,0,0-2,7.4c9.2.2,45.7.1,81,.1,39.2,0,80.1.1,83-.1a22.1,22.1,0,0,0-2-6.5C162.8,48.9,41.9,48.3,20.4,41.8Z"/><path class="cls-14" d="M191.1,37.5c-.7,1.9-3.6,5.6-8.1,5.2a18,18,0,0,0,3.1,4.8c3.3-2.1,7.8-5.5,10.7-7.2C195.3,39.7,193.3,38.6,191.1,37.5Z"/></g><path class="cls-15" d="M182.4,49.3H18.4c.3-1.9,4.2-5.9,5.8-7.5,17.3,1,130.6.4,151-.5C177.4,43.1,182.1,47.4,182.4,49.3Z"/><path class="cls-16" d="M25.9,39.7c-1.6.6-4.2,5.6-3.7,6.9s154.6,1,155.7.3-2.2-7.1-4-7.6S27.7,39,25.9,39.7Z"/><path class="cls-17" d="M33.3,25.3h0c-.2.4-9,1.3-9.9,1.1S20.9,24,20.2,24,8.6,27.3,8.4,26.7s11-5.1,11.7-5.1,3.4,3.3,4.1,3.3S33.3,24.9,33.3,25.3Z"/><path class="cls-18" d="M33.3,25.3h0s-8.6.3-9.4.2-3-2.8-4-2.8S8.4,26.7,8.4,26.7s11-5.1,11.7-5.1,3.4,3.3,4.1,3.3S33.3,24.9,33.3,25.3Z"/><path class="cls-18" d="M159.5,30.5c-.6.7-20.1-1.2-22-.7s-14.6,1.6-14.6.5S136.8,28,138.6,28,160.2,29.8,159.5,30.5Z"/><path class="cls-17" d="M159.5,30.5c-.6.7-20.1-1.2-22-.7s-14.6,1.6-14.6.5A141.4,141.4,0,0,0,138,28.9C140,28.4,159.5,30.5,159.5,30.5Z"/><path class="cls-17" d="M115.4,8.3c-.7,1.2-13.6,4-14.6,2.8s9.1-2.8,10.4-3.3,1.7-5.9,1.7-5.9S116,7.1,115.4,8.3Z"/><path class="cls-18" d="M112.7,8.3c-.9.9-11.9,2.8-11.9,2.8s9.1-2.8,10.4-3.3,1.7-5.9,1.7-5.9C114,4.1,113.6,7.4,112.7,8.3Z"/></g></g></svg>