<svg xmlns="http://www.w3.org/2000/svg" xmlns:xlink="http://www.w3.org/1999/xlink" viewBox="0 0 200 50"><defs><style>.cls-1{isolation:isolate;}.cls-2{fill:url(#Áåçûìÿííûé_ãðàäèåíò_212);}.cls-10,.cls-11,.cls-12,.cls-13,.cls-14,.cls-19,.cls-3,.cls-8{opacity:0.3;}.cls-3,.cls-7,.cls-9{mix-blend-mode:multiply;}.cls-3{fill:url(#Áåçûìÿííûé_ãðàäèåíò_212-2);}.cls-4{fill:url(#Áåçûìÿííûé_ãðàäèåíò_337);}.cls-15,.cls-5,.cls-8{fill:#ebfdff;}.cls-6{fill:#d8f0f2;}.cls-7{opacity:0.6;fill:url(#Áåçûìÿííûé_ãðàäèåíò_212-3);}.cls-10,.cls-11,.cls-12,.cls-13,.cls-14,.cls-15,.cls-16,.cls-18,.cls-19,.cls-8{mix-blend-mode:screen;}.cls-15,.cls-9{opacity:0.2;}.cls-9{fill:url(#Áåçûìÿííûé_ãðàäèåíò_212-4);}.cls-10{fill:url(#Áåçûìÿííûé_ãðàäèåíò_337-2);}.cls-11{fill:url(#Áåçûìÿííûé_ãðàäèåíò_337-3);}.cls-12{fill:url(#Áåçûìÿííûé_ãðàäèåíò_337-4);}.cls-13{fill:url(#Áåçûìÿííûé_ãðàäèåíò_337-5);}.cls-14{fill:url(#Áåçûìÿííûé_ãðàäèåíò_337-6);}.cls-16,.cls-18{opacity:0.5;}.cls-16{fill:url(#Áåçûìÿííûé_ãðàäèåíò_337-7);}.cls-17{fill:#fff;}.cls-18{fill:url(#Áåçûìÿííûé_ãðàäèåíò_337-8);}.cls-19{fill:url(#Áåçûìÿííûé_ãðàäèåíò_337-9);}</style><linearGradient id="Áåçûìÿííûé_ãðàäèåíò_212" x1="100" y1="1.143" x2="100" y2="48.857" gradientUnits="userSpaceOnUse"><stop offset="0" stop-color="#87a8b5"/><stop offset="1" stop-color="#6b7985"/></linearGradient><linearGradient id="Áåçûìÿííûé_ãðàäèåíò_212-2" x1="1.692" y1="36.268" x2="198.308" y2="36.268" xlink:href="#Áåçûìÿííûé_ãðàäèåíò_212"/><linearGradient id="Áåçûìÿííûé_ãðàäèåíò_337" x1="100" y1="2.666" x2="100" y2="45.14" gradientUnits="userSpaceOnUse"><stop offset="0" stop-color="#abd5d9"/><stop offset="0.263" stop-color="#a8d2d6"/><stop offset="0.492" stop-color="#9fc8cb"/><stop offset="0.707" stop-color="#90b8b9"/><stop offset="0.913" stop-color="#7aa1a0"/><stop offset="0.995" stop-color="#709694"/></linearGradient><linearGradient id="Áåçûìÿííûé_ãðàäèåíò_212-3" x1="3.153" y1="46.815" x2="196.987" y2="46.815" xlink:href="#Áåçûìÿííûé_ãðàäèåíò_212"/><linearGradient id="Áåçûìÿííûé_ãðàäèåíò_212-4" x1="5.214" y1="33.904" x2="194.786" y2="33.904" xlink:href="#Áåçûìÿííûé_ãðàäèåíò_212"/><linearGradient id="Áåçûìÿííûé_ãðàäèåíò_337-2" x1="5.214" y1="23.903" x2="194.786" y2="23.903" xlink:href="#Áåçûìÿííûé_ãðàäèåíò_337"/><linearGradient id="Áåçûìÿííûé_ãðàäèåíò_337-3" x1="83.657" y1="35.053" x2="124.353" y2="35.053" xlink:href="#Áåçûìÿííûé_ãðàäèåíò_337"/><linearGradient id="Áåçûìÿííûé_ãðàäèåíò_337-4" x1="130.114" y1="34.003" x2="147.826" y2="34.003" xlink:href="#Áåçûìÿííûé_ãðàäèåíò_337"/><linearGradient id="Áåçûìÿííûé_ãðàäèåíò_337-5" x1="10.881" y1="17.249" x2="57.46" y2="17.249" xlink:href="#Áåçûìÿííûé_ãðàäèåíò_337"/><linearGradient id="Áåçûìÿííûé_ãðàäèåíò_337-6" x1="50.785" y1="15.872" x2="90.316" y2="15.872" xlink:href="#Áåçûìÿííûé_ãðàäèåíò_337"/><linearGradient id="Áåçûìÿííûé_ãðàäèåíò_337-7" x1="18.711" y1="44.048" x2="182.456" y2="44.048" xlink:href="#Áåçûìÿííûé_ãðàäèåíò_337"/><linearGradient id="Áåçûìÿííûé_ãðàäèåíò_337-8" x1="9.356" y1="3.796" x2="191.811" y2="3.796" xlink:href="#Áåçûìÿííûé_ãðàäèåíò_337"/><linearGradient id="Áåçûìÿííûé_ãðàäèåíò_337-9" x1="175.155" y1="22.917" x2="175.155" y2="41.105" xlink:href="#Áåçûìÿííûé_ãðàäèåíò_337"/></defs><g class="cls-1"><g id="Layer_8" data-name="Layer 8"><path class="cls-2" d="M198.308,3.77V46.23a2.446,2.446,0,0,1-1.321,2.049,4.236,4.236,0,0,1-2.2.578H5.214a4.32,4.32,0,0,1-2.061-.5A2.514,2.514,0,0,1,1.692,46.23V3.77a2.471,2.471,0,0,1,1.215-2,4.313,4.313,0,0,1,2.307-.63H194.786a4.236,4.236,0,0,1,2.2.578A2.429,2.429,0,0,1,198.308,3.77Z"/><path class="cls-3" d="M198.308,24.442V46.23a2.446,2.446,0,0,1-1.321,2.049,4.236,4.236,0,0,1-2.2.578H5.214a4.32,4.32,0,0,1-2.061-.5A2.514,2.514,0,0,1,1.692,46.23V25.506a5.474,5.474,0,0,0,4.7-.289L193.026,23.68S196.2,24.875,198.308,24.442Z"/><path class="cls-4" d="M194.786,4.019V43.787c0,.736-.809,1.353-1.813,1.353H7.027c-1,0-1.813-.617-1.813-1.353V4.019c0-.748.809-1.353,1.813-1.353H192.973C193.977,2.666,194.786,3.271,194.786,4.019Z"/><path class="cls-5" d="M194.786,4.019V43.787a.866.866,0,0,1-.07.368L193.642,5.766c-.018-.749-.845-1.34-1.831-1.34H8.189c-1,0-1.814.591-1.831,1.34L5.284,44.155a.866.866,0,0,1-.07-.368V4.019c0-.748.809-1.353,1.813-1.353H192.973C193.977,2.666,194.786,3.271,194.786,4.019Z"/><path class="cls-6" d="M196.987,1.721l-2.6,1.458a2,2,0,0,0-1.409-.513H7.027A2.123,2.123,0,0,0,5.847,3L2.907,1.773a4.313,4.313,0,0,1,2.307-.63H194.786A4.236,4.236,0,0,1,196.987,1.721Z"/><path class="cls-7" d="M196.987,48.279a4.236,4.236,0,0,1-2.2.578H5.214a4.32,4.32,0,0,1-2.061-.5L5.8,44.773a2.169,2.169,0,0,0,1.232.367H192.973a2.31,2.31,0,0,0,.968-.21Z"/><path class="cls-8" d="M194.786,32.151V43.787c0,.736-.809,1.353-1.813,1.353H7.027c-1,0-1.813-.617-1.813-1.353V33.32c.422,4.36.986,8.957,1.549,9.627,1.091,1.313,184.872,1.97,186.175.657C193.924,42.645,194.54,35.75,194.786,32.151Z"/><path class="cls-9" d="M194.786,22.669V43.787c0,.736-.809,1.353-1.813,1.353H7.027c-1,0-1.813-.617-1.813-1.353V25.729C26.025,44.221,166.334,36.406,194.786,22.669Z"/><path class="cls-10" d="M192.973,2.666H119.365a127.346,127.346,0,0,0-31.1,14.447c-24.174,14.894-76.59,22.34-83.051,9.3V43.787c0,.736.809,1.353,1.813,1.353H52.681c10.776-17.8,45.532-20.987,77.242-17.52,21.075,2.312,49.792-3.27,64.863-11.347V4.019C194.786,3.271,193.977,2.666,192.973,2.666Z"/><path class="cls-11" d="M83.857,36.818c1.886,5.744,40.5,3.94,40.5-1.751S80.336,26.092,83.857,36.818Z"/><path class="cls-12" d="M131.208,35.127c3.874,3.687,16.747,2.233,16.617-1.493S124.932,29.154,131.208,35.127Z"/><path class="cls-13" d="M20.473,27.406C30.156,29.6,56.055,14.21,57.447,9.019c.88-3.284-44.6-2.189-45.484-.657C9.505,12.639,10.789,25.217,20.473,27.406Z"/><path class="cls-14" d="M52.752,24.779C55.077,25.513,89.923,12.3,90.313,8.8c.294-2.627-19.954-2.408-25.823.219C61.973,10.145,45.122,22.371,52.752,24.779Z"/><path class="cls-15" d="M9.615,7.268c-2.01,3.3,33.747,21.451,83.633,21.451s94.2-17.511,94.49-20.357S11.082,4.86,9.615,7.268Z"/><path class="cls-16" d="M18.712,43.932c-.434,1.943,163.45,1.751,163.744,0S19.006,42.619,18.712,43.932Z"/><path class="cls-17" d="M60.382,44.026c0,1.03,74.829.772,74.829.129S60.382,43.383,60.382,44.026Z"/><path class="cls-18" d="M9.357,3.644c-.483,2.547,182.127,2.3,182.454,0S9.684,1.923,9.357,3.644Z"/><path class="cls-17" d="M30.546,3.768c0,1.349,133.863,1.012,133.863.169S30.546,2.925,30.546,3.768Z"/><path class="cls-19" d="M188.765,22.918c-1.75.145-11.885,11-15.626,12.477s-12.985,2.791-12.985,3.94,24.869,2.627,27.731,1.149S190.746,22.754,188.765,22.918Z"/></g></g></svg>