<svg xmlns="http://www.w3.org/2000/svg" viewBox="0 0 200 200"><defs><style>.cls-1{fill:#a25100;}.cls-2{fill:#ba712f;}.cls-3{fill:#7a3b01;}.cls-4{fill:#331700;}.cls-5{fill:#eca77f;}.cls-6{fill:#87402c;}.cls-7{fill:#ffd110;}.cls-8{fill:#aa5b0c;}.cls-9{fill:#e5e0d6;}.cls-10{fill:#d3cdc2;}.cls-11{fill:#877463;}.cls-12{fill:#fff;}.cls-13{fill:#4a4947;}.cls-14{fill:#302f2f;}.cls-15{fill:#ffe6a9;}.cls-16{fill:#f4a608;}.cls-17{fill:#f9c89f;}.cls-18{fill:#d17c00;}.cls-19{fill:#873700;}.cls-20{fill:#bf6c21;}.cls-21{fill:#dd9458;}.cls-22{fill:#ffc112;}.cls-23{fill:#fe0000;}.cls-24{fill:#ff8d8d;}.cls-25{fill:#d60000;}.cls-26{fill:#a80505;}.cls-27{fill:#178fff;}.cls-28{fill:#7bc3ff;}.cls-29{fill:#1771ff;}.cls-30{fill:#0258d3;}.cls-31{fill:#02e700;}.cls-32{fill:#1f0;}.cls-33{fill:#02bf00;}.cls-34{fill:#028600;}.cls-35{fill:#fff017;}.cls-36{fill:#fff7b0;}.cls-37{fill:#dbdbdb;}.cls-38{fill:#0092ff;}.cls-39{fill:#005dcc;}.cls-40{fill:#003084;}</style></defs><g id="Layer_13" data-name="Layer 13"><path class="cls-1" d="M123,127.2c-.5-9.5-7.6-19.2-9.1-23.8s-6-19.2-4.7-25.6c-1.9-2.3-30-8-30-8s-28.2,5.7-30.1,8c1.3,6.7-3.2,21-4.7,25.6s-8.6,14.3-9.1,23.8,5.9,15.8,14,19.3,29.9,5.4,29.9,5.4,21.7-1.9,29.8-5.4S123.5,136.7,123,127.2Z"/><path class="cls-2" d="M48.1,97.7a18.3,18.3,0,0,0,2.4-13.6A39.6,39.6,0,0,1,48.1,97.7Z"/><path class="cls-2" d="M38,134.2c-1.2-7,.9-13.3,2.7-17.5C36.7,121.2,35.8,129.8,38,134.2Z"/><path class="cls-2" d="M121.3,130.3c.6-5.2-.3-12.5-5.1-15.8C119.8,118.9,120.5,124,121.3,130.3Z"/><path class="cls-2" d="M113.6,107.1c-3.5,1.2-5.2,3.7-5.1,6,2.8,2.7,5.6,9.2,5.9,14.3.6-5.9-1.6-12-3.4-15.9.6.2,1.4-1.8,2.2-1.6s2.6,2.8,3.9,3.2C115.6,111.6,114.9,108.6,113.6,107.1Z"/><path class="cls-2" d="M41.5,114.6c3.6-3.6,4.5-3,6.6-4.6-2.1,5.3-5.1,10-4.4,18.4.7-7.5,3.9-14.2,8.6-17.9-2.5-2-4.3-1.8-7.3-2.3A13.2,13.2,0,0,0,41.5,114.6Z"/><path class="cls-2" d="M110.2,97.9a59,59,0,0,1-2.5-14.3C106.5,87.7,107.7,94.6,110.2,97.9Z"/><path class="cls-3" d="M53,82.3a65.6,65.6,0,0,1-4,19c.1,3.5,2.7,6.1,3.3,5S59.6,85.3,53,82.3Z"/><path class="cls-3" d="M71.3,144.7c-7.9-10-10.8-22.7-16.1-33.7-3.4,6.1-4.4,15.4-4.3,22.3-2.6-6.4,0-14.7.5-20.4-5.2,7.4-6.5,14.2-5.6,24.2-6.4-4.8-3.7-16.6-1.4-22.5-7.8,8.2-5.9,18.7-4.3,23.6-1.1-.4-2.9-2.5-3.5-3.4,2.2,5.4,7,9.2,12.7,11.7s14.6,3.6,21.6,4.5C71.8,148.6,72.2,146.4,71.3,144.7Z"/><path class="cls-3" d="M112.9,137.3c.3-9.5.3-16.7-5.9-23.6,1.3,7.2,2.6,15.9-.5,22.7.5-8.5.4-20.8-4.3-27.1-3.8,11.9-8.2,28.6-9.5,41,6-.9,12.6-2.2,16.3-3.8,5.3-2.3,10.9-6.7,13.2-12.9-2.2,1.6-2.2,0-2.2-1.2-.2-7-.6-12.8-6-17.7C117.1,123.9,117.6,131.6,112.9,137.3Z"/><path class="cls-3" d="M108.1,99c-1.9-6.7-2.4-10.9-3.4-14.7-3.9,5.7-2,17.3,1.9,23.1C107.1,105.8,109.5,103.1,108.1,99Z"/><path class="cls-4" d="M79.2,152.2c-.3,0-22-2-30-5.5-9.6-4.1-14.6-11.1-14.2-19.5.4-6.6,3.9-13.3,6.5-18.2a32.6,32.6,0,0,0,2.6-5.7c4.1-12.4,5.7-21,4.8-25.5h0c2-2.3,29-7.8,30.2-8h.1c1.2.2,28.2,5.7,30.2,8h0c-.8,4.3.8,13.4,4.8,25.5a32.6,32.6,0,0,0,2.6,5.7c2.6,4.9,6.1,11.6,6.5,18.2.4,8.4-4.6,15.4-14.2,19.5C101.1,150.2,79.4,152.2,79.2,152.2ZM49.4,77.9c.9,4.6-.8,13.2-4.8,25.6a42.3,42.3,0,0,1-2.6,5.7c-2.6,4.9-6.1,11.6-6.4,18-.6,11.1,8.4,16.7,13.8,19,8,3.5,29.6,5.4,29.8,5.5s21.7-2,29.7-5.5c5.4-2.3,14.5-7.9,13.8-19-.3-6.4-3.8-13.1-6.4-18a42.3,42.3,0,0,1-2.6-5.7c-2.8-8.6-5.9-20-4.8-25.6-2.1-1.9-22-6.2-29.7-7.8C71.4,71.7,51.5,76,49.4,77.9Z"/><path class="cls-4" d="M48.7,143.4a16.1,16.1,0,0,1-8.3-9.9c-1.6-5.8.2-11.8,1.7-15.5a12.7,12.7,0,0,1,2.3-3.4c-.6,1-5.9,10.2-3.5,18.8a15.4,15.4,0,0,0,8.1,9.5Z"/><path class="cls-4" d="M51.9,143.3c-7.8-10.1-3.4-22.5-1.1-29.1a21.9,21.9,0,0,0,1-3.4h.5a22.4,22.4,0,0,1-1,3.5c-2.3,6.5-6.6,18.7,1,28.6Z"/><path class="cls-4" d="M58.8,142.7c-7.5-7.3-6.4-18-5.5-25.8l.3-2.4h.5l-.3,2.5c-.8,7.7-2,18.2,5.4,25.3Z"/><path class="cls-4" d="M109.6,143.4l-.3-.5a15.4,15.4,0,0,0,8.1-9.5c2.4-8.6-2.9-17.8-3.5-18.8a13.6,13.6,0,0,1,2.5,4.1c1.5,3.7,3,9.4,1.5,14.8A16.1,16.1,0,0,1,109.6,143.4Z"/><path class="cls-4" d="M106.4,143.3l-.4-.3c7.6-9.9,3.3-22.1,1-28.6a22.4,22.4,0,0,1-1-3.5h.5a21.9,21.9,0,0,0,1,3.4C109.8,120.8,114.2,133.2,106.4,143.3Z"/><path class="cls-4" d="M99.5,142.7l-.4-.4c7.4-7.1,6.2-17.6,5.4-25.3l-.3-2.5h.5l.3,2.4C105.9,124.7,107,135.4,99.5,142.7Z"/><polygon class="cls-5" points="61.8 137.7 61.8 154.8 78.4 160.1 98.9 153.8 96 134.9 61.8 137.7"/><path class="cls-6" d="M78.4,160.4,61.5,155V137.4l34.7-2.8,3,19.4ZM62,154.6l16.4,5.2,20.2-6.2-2.8-18.4L62,137.9Z"/><circle class="cls-7" cx="111.5" cy="142.3" r="1.3"/><path class="cls-8" d="M111.5,143.9a1.6,1.6,0,0,1,0-3.2,1.6,1.6,0,1,1,0,3.2Zm0-2.6a1,1,0,0,0,0,2,1,1,0,1,0,0-2Z"/><path class="cls-9" d="M99.9,143c2.8-1,8.4-2.7,16.6,1.7s19.1,13,19.1,13-.1,8-1.6,10.9-23.2,22-31,19.2-21.8-26.7-21.4-30.1S99.9,143,99.9,143Z"/><path class="cls-10" d="M116.5,144.7a23.4,23.4,0,0,0-4.8-2c2.9,1.8,22.1,11.6,23.3,22.2a47.3,47.3,0,0,0,.6-7.2S124.6,149.1,116.5,144.7Z"/><path class="cls-11" d="M104.8,188.4a5.8,5.8,0,0,1-1.9-.3c-8-2.9-22-26.8-21.5-30.4s17.6-14.5,18.3-15h.1c3.5-1.2,9.1-2.4,16.8,1.8s19.1,12.9,19.2,13h.1c0,.4-.1,8.1-1.6,11S114,188.4,104.8,188.4ZM100,143.2c-4.9,3.2-17.7,11.9-18.1,14.6s13.7,27,21.2,29.8l1.7.2c8.7,0,27.6-16.6,29-19.3s1.5-9.6,1.5-10.6-11.4-8.9-19-13S102.2,142.4,100,143.2Z"/><path class="cls-12" d="M79.3,159.9a23.6,23.6,0,0,0,1.2,7.2c1.1,3.1,11.7,23.8,17.9,24.8s18.4-3,26.1-8.6,15.1-13.6,14.5-20.6a6,6,0,0,0-3.4-5s-4,9.6-9.8,15.4-17.8,12.7-23.7,11.1-18.9-24.8-19.4-26.5Z"/><path class="cls-9" d="M139,162.7a6,6,0,0,0-3.4-5l-1.5,3.3c.8,6.2-2.8,12.1-6.7,16.1-6.2,6.6-17.1,11.3-26.9,12.3-3.6.3-5.7-2.4-8.9-5.6-5.5-5.9-11.4-17.4-11.1-16.7,1.1,3.1,11.7,23.8,17.9,24.8s18.4-3,26.1-8.6S139.6,169.7,139,162.7Z"/><path class="cls-11" d="M100.5,192.3H98.4c-6.5-1.1-17-21.8-18.2-25a21.9,21.9,0,0,1-1.1-7.3h0l3.8-2.5v.4c.5,1.9,13.4,24.6,19.2,26.2s16.8-4.4,23.4-11,9.7-15.2,9.7-15.3v-.2h.3a6,6,0,0,1,3.5,5.2c.7,7-7.1,15.3-14.5,20.8S107.1,192.3,100.5,192.3ZM79.6,160.1a23.1,23.1,0,0,0,1.1,6.9c1.5,3.8,12,23.7,17.8,24.6s18.2-3,25.8-8.6,15-13.5,14.4-20.2a6,6,0,0,0-3-4.7c-.7,1.6-4.5,10-9.8,15.2s-15.2,11.4-21.6,11.4a8.5,8.5,0,0,1-2.3-.3c-5.8-1.6-18-22.8-19.4-26.3Z"/><path class="cls-12" d="M79.3,159.9c-.6-.5.7-8.1,4.2-10.7s13.6-9.7,14.5-9.8c2.8-.6,4.7,3.6,3.9,5.2C98.4,151.3,80.7,161.1,79.3,159.9Z"/><path class="cls-9" d="M98.8,139.3c2.3,3.5-5.7,9.1-12.9,13.4-2.3,1.5-5.8,4.1-6.6,7.2,1.4,1.2,19.1-8.6,22.6-15.3C102.6,143.1,101.1,139.6,98.8,139.3Z"/><path class="cls-11" d="M79.7,160.3l-.5-.2c-.2-.1-.3-.3-.3-1s1.4-7.9,4.4-10.1S97,139.3,98,139.1a3.2,3.2,0,0,1,3.2,1.4c1,1.4,1.4,3.2.9,4.2-3.1,6.2-17.7,14.7-21.8,15.5Zm-.2-.6a1.4,1.4,0,0,0,.7,0c4.1-1,18.4-9.3,21.5-15.3.4-.7,0-2.4-.9-3.5a2.8,2.8,0,0,0-2.7-1.3c-.8.2-10.6,7-14.4,9.8S79.1,158.9,79.5,159.7Z"/><path class="cls-13" d="M101.4,174.3c0,2.1,4.1,3.3-.3,3.7s-4.6-3.8-2.5-3.8.3-4.1,2.5-3.8S101.4,172.2,101.4,174.3Z"/><path class="cls-14" d="M100.6,178.3a3.6,3.6,0,0,1-3.1-1.4,2,2,0,0,1-.2-2.2,1.4,1.4,0,0,1,1.3-.8h0c.3,0,.5-.7.6-1.3s.4-2.7,2-2.5a.8.8,0,0,1,.7.4c.3.4.2,1,0,1.8a12.3,12.3,0,0,0-.2,2,3.5,3.5,0,0,0,1,1.9c.5.4.9.9.7,1.3s-.8.6-2.2.8Zm-2-3.8c-.5,0-.7.2-.8.5a1.6,1.6,0,0,0,.1,1.6,3.5,3.5,0,0,0,3.2,1.1c1.6-.1,1.8-.4,1.8-.4a2.6,2.6,0,0,0-.6-.8,3.4,3.4,0,0,1-1.2-2.2,11.8,11.8,0,0,1,.3-2.1,3.7,3.7,0,0,0,.1-1.4h-.4c-1-.2-1.2.7-1.4,2s-.3,1.8-1.1,1.8Z"/><path class="cls-13" d="M116.7,175.4c1.3.7-1.1,5.5-1.9,3.9-1.9-3.3-3.3-1.5-3.3-3.3a3.4,3.4,0,0,1,3.3-3.4C116.5,172.6,115.1,174.6,116.7,175.4Z"/><path class="cls-14" d="M115.2,179.9a.9.9,0,0,1-.7-.4c-.9-1.8-1.7-2-2.3-2.2s-.9-.4-.9-1.3a3.6,3.6,0,0,1,3.5-3.7c1.1,0,1.2.8,1.3,1.4a1.6,1.6,0,0,0,.7,1.5h0c.3.2.7.6.5,1.6s-1.1,3-2,3.1Zm-.4-7a3,3,0,0,0-3,3.1c0,.6.1.6.6.8s1.5.4,2.6,2.4c.1.2.2.2.2.2s1.4-1.5,1.6-2.7,0-.9-.2-1h0a2.3,2.3,0,0,1-1.1-1.9C115.5,173.1,115.4,172.9,114.8,172.9Z"/><path class="cls-13" d="M118,158.5c0,2.1-2.3,4.7-3.7,3.3s-2.1.1-2.8-.6.8-1.7.8-2.7-1.6-1.8-1-2.5,2.6.5,2.9-1.4,3.3.5,2.6,1.1C113.3,158.5,118,157.4,118,158.5Z"/><path class="cls-14" d="M115.2,162.5a1.6,1.6,0,0,1-1.1-.5,1.6,1.6,0,0,0-1.2-.3,1.6,1.6,0,0,1-1.5-.3c-.6-.6-.2-1.2.2-1.8a2.7,2.7,0,0,0,.5-1.1c0-.4-.3-.7-.6-1.1s-.9-1-.4-1.5.9-.5,1.4-.5,1.3,0,1.4-.8a.9.9,0,0,1,.7-.6,3.3,3.3,0,0,1,2.5,1.2.6.6,0,0,1-.1.7c-1.3,1-1.3,1.3-1.3,1.3s.7.3,1.1.4,1.4.2,1.4.9a4.5,4.5,0,0,1-2.3,3.8Zm-1.9-1.3c.5,0,.9,0,1.2.4a1,1,0,0,0,1.2.2,4,4,0,0,0,2-3.3c0-.2-.7-.3-1-.4s-1.3-.2-1.5-.7.3-1.1,1.4-1.9-1.1-.9-1.8-.9h-.3c-.2,1.3-1.2,1.3-2,1.3a1.5,1.5,0,0,0-1,.2c-.1.2,0,.4.4.9a2.3,2.3,0,0,1,.7,1.4,2.5,2.5,0,0,1-.6,1.4c-.3.6-.5.9-.3,1.1a2.2,2.2,0,0,0,1.2.2Z"/><path class="cls-13" d="M107.9,149.8c-1.9.9-5.3,0-4.6-1.9s-1-1.8-.7-2.7,1.9,0,2.8-.5.9-2.2,1.8-2,.7,2.6,2.5,2.1,1,3.2.2,2.8C105.8,145.6,108.9,149.4,107.9,149.8Z"/><path class="cls-14" d="M106.1,150.5a3.7,3.7,0,0,1-2.6-.9,1.7,1.7,0,0,1-.5-1.8c.2-.3,0-.7-.3-1.1a2.2,2.2,0,0,1-.3-1.6c.2-.7,1-.6,1.6-.6a1.9,1.9,0,0,0,1.3,0c.3-.1.5-.6.7-1s.6-1.2,1.2-1a1.5,1.5,0,0,1,1.1,1.1c.3.7.5,1.1,1.3.9a.6.6,0,0,1,.8.4,3.1,3.1,0,0,1,0,2.8.5.5,0,0,1-.6.1c-1.5-.7-1.7-.5-1.8-.5s0,.7.1,1.1.4,1.4-.1,1.7h0A5.8,5.8,0,0,1,106.1,150.5Zm-2.7-5.5a.5.5,0,0,0-.5.3,1.7,1.7,0,0,0,.3,1.1,1.9,1.9,0,0,1,.4,1.6,1,1,0,0,0,.2,1.2,4.1,4.1,0,0,0,3.9.4c.2-.1,0-.7-.1-1.1s-.3-1.3.1-1.6,1-.2,2.3.4a2.6,2.6,0,0,0,0-2c-.1-.2-.1-.3-.2-.3s-1.7-.5-2-1.1-.4-.8-.7-.9-.3.2-.6.8a2.7,2.7,0,0,1-.9,1.2,4.3,4.3,0,0,1-1.6.1Z"/><path class="cls-13" d="M130,158c.3,3-1.8-.6-3.1.8s.8,2.4,0,2.2c-3.9-.8-.4-2.8-2.4-3.2s1.1-3.2,2.4-3.2-.3,1.2.4,2.2S129.4,156.6,130,158Z"/><path class="cls-14" d="M127,161.3h-.2a2.8,2.8,0,0,1-1.9-1,1.7,1.7,0,0,1-.1-1.4,1.8,1.8,0,0,0,.1-.6l-.4-.2c-.6-.1-.9-.5-.8-.9a4.2,4.2,0,0,1,3.2-2.8.6.6,0,0,1,.5.2c.2.2.1.5,0,.8a2.5,2.5,0,0,0,.1,1.2h.6a2,2,0,0,1,2.1,1.2h.1c.1.8,0,1.2-.3,1.4s-.8,0-1.2-.2-1.3-.7-1.7-.2.1.6.1.8.3,1.1.1,1.4Zm-.1-6.4a3.9,3.9,0,0,0-2.7,2.3c0,.1,0,.3.4.4a.8.8,0,0,1,.7.4,1.2,1.2,0,0,1,0,1,1.7,1.7,0,0,0,0,1,2.2,2.2,0,0,0,1.6.7,2.5,2.5,0,0,0-.2-.7c-.2-.6-.3-1.2,0-1.4s1.7-.3,2.3.1l.7.3a1.8,1.8,0,0,0,0-.9c-.3-.8-1.1-.8-1.7-.9s-.7,0-.9-.3a1.9,1.9,0,0,1-.2-1.6c0-.2.1-.3.1-.4Z"/><path class="cls-13" d="M98.9,160.9a4.4,4.4,0,0,1-.7,2.1c-.6,1.1-1.6,1.8-2.2,1s-2.8-1.4-2.8-3.1,1.9-4.4,2.8-3.1S98.9,159.2,98.9,160.9Z"/><path class="cls-14" d="M96.6,164.6a1.2,1.2,0,0,1-.8-.4,6.9,6.9,0,0,0-1.7-1.5,1.8,1.8,0,0,1-1.2-1.8c0-1.4,1.2-3.3,2.2-3.6a.8.8,0,0,1,1.1.4,4.5,4.5,0,0,0,1.3,1c.8.5,1.6,1,1.6,2.2a4.6,4.6,0,0,1-.6,2.2c-.6.9-1.2,1.5-1.8,1.5Zm-1.2-6.8h-.1c-.8.2-1.9,1.9-1.9,3.1s.3,1,.9,1.4a4.2,4.2,0,0,1,1.9,1.6l.4.2a2.4,2.4,0,0,0,1.4-1.3,3.5,3.5,0,0,0,.6-1.9c0-.9-.7-1.3-1.4-1.7a5.5,5.5,0,0,1-1.4-1.2C95.7,157.8,95.6,157.8,95.4,157.8Z"/><path class="cls-7" d="M47.7,142.7a1.3,1.3,0,0,1-2.6,0,1.3,1.3,0,1,1,2.6,0Z"/><path class="cls-8" d="M46.4,144.2a1.5,1.5,0,0,1-1.5-1.5,1.6,1.6,0,0,1,1.5-1.6,1.6,1.6,0,0,1,1.6,1.6A1.6,1.6,0,0,1,46.4,144.2Zm0-2.6a1.1,1.1,0,0,0-1,1.1,1.1,1.1,0,0,0,1,1,1,1,0,0,0,1-1A1,1,0,0,0,46.4,141.6Z"/><path class="cls-9" d="M57.5,143.1c-2.8-1-8.5-2.6-16.6,1.8s-19.2,13-19.2,13,.1,7.9,1.6,10.8,23.3,22.1,31,19.3,21.9-26.7,21.4-30.1S57.5,143.1,57.5,143.1Z"/><path class="cls-11" d="M53,188.5c-9.2,0-28.1-16.8-29.5-19.6s-1.6-10.7-1.6-11H22c.1-.1,11.1-8.8,19.2-13.1s13.3-3,16.8-1.7h.1c.7.5,17.8,11.5,18.3,15s-13.6,27.4-21.5,30.3A5.8,5.8,0,0,1,53,188.5ZM22.5,158c0,1.1.2,8,1.5,10.6s23.1,21.9,30.7,19.1,21.6-26.4,21.2-29.8-13.2-11.4-18.1-14.5c-2.2-.8-8-2.8-16.4,1.7S23.6,157.1,22.5,158Z"/><path class="cls-12" d="M78.4,160.1a22,22,0,0,1-1.1,7.2c-1.2,3.1-11.7,23.8-17.9,24.8s-18.5-3.1-26.1-8.7-15.1-13.6-14.5-20.5a6,6,0,0,1,3.4-5s4,9.6,9.8,15.4,17.7,12.7,23.7,11S74.6,159.5,75,157.9Z"/><path class="cls-9" d="M58.9,188.4c-7.1,2.2-16.5-1.7-23.5-5.9s-12.9-10.3-16.5-17.2c1.1,6.4,7.9,13.4,14.4,18.1s19.9,9.7,26.1,8.7,16.7-21.7,17.9-24.8a22,22,0,0,0,1.1-7.2S68.7,184,58.9,188.4Z"/><path class="cls-11" d="M57.3,192.5c-6.7,0-17.3-3.8-24.2-8.9s-15.2-13.8-14.6-20.7a6.4,6.4,0,0,1,3.6-5.3h.2v.3c.1.1,4.1,9.6,9.8,15.3s17.6,12.6,23.4,11,18.7-24.4,19.2-26.3v-.3l3.8,2.4v.2a22.2,22.2,0,0,1-1.1,7.3c-1.3,3.2-11.8,23.9-18.2,24.9ZM22,158.3a5.5,5.5,0,0,0-2.9,4.6c-.6,6.8,7,14.9,14.3,20.3s19.8,9.6,25.9,8.6S75.6,171,77.1,167.2a23.2,23.2,0,0,0,1.1-7l-3-1.9c-1.5,3.4-13.6,24.7-19.4,26.3s-17.3-4.4-24-11.1C26.6,168.2,22.7,159.8,22,158.3Z"/><path class="cls-12" d="M78.4,160.1c.7-.5-.7-8.2-4.1-10.8s-13.7-9.6-14.6-9.8c-2.7-.6-4.6,3.6-3.8,5.2C59.3,151.5,77,161.2,78.4,160.1Z"/><path class="cls-9" d="M72.9,154.5c-8.3-5.7-15.4-10-15.3-14.5-1.5,1.1-2.3,3.6-1.7,4.7,3.4,6.8,21.1,16.5,22.5,15.4S75.7,156.1,72.9,154.5Z"/><path class="cls-11" d="M78.1,160.4h-.6c-4.1-.9-18.7-9.4-21.9-15.6-.5-.9-.1-2.8,1-4.1a3.2,3.2,0,0,1,3.2-1.5c1,.3,11.6,7.7,14.6,9.9s4.4,8.1,4.5,10.1-.2,1-.3,1.1h-.5ZM59.2,139.7A3.1,3.1,0,0,0,57,141c-.9,1.2-1.3,2.8-.9,3.6,3,5.9,17.4,14.3,21.4,15.2h.8c.4-.8-.9-7.9-4.2-10.3s-13.6-9.6-14.4-9.8Z"/><path class="cls-13" d="M56.4,174.5c0,2.1-4.2,3.2.2,3.6s4.6-3.8,2.5-3.8-.2-4-2.5-3.8S56.4,172.4,56.4,174.5Z"/><path class="cls-14" d="M57.2,178.4h-.6c-1.4-.1-2.1-.3-2.2-.8s.2-.8.6-1.3a2.9,2.9,0,0,0,1.1-1.8,6,6,0,0,0-.3-2,3,3,0,0,1,.1-1.9.8.8,0,0,1,.7-.3c1.6-.2,1.8,1.3,2,2.4s.2,1.4.5,1.4h0a1.5,1.5,0,0,1,1.4.7,2.2,2.2,0,0,1-.2,2.2A3.6,3.6,0,0,1,57.2,178.4Zm-.4-7.6h-.1c-.3,0-.4.1-.4.2s0,.7.1,1.4a12.5,12.5,0,0,1,.2,2.1,3.2,3.2,0,0,1-1.2,2.2c-.2.2-.6.6-.5.7s.2.3,1.8.5a3.1,3.1,0,0,0,3.1-1.2,1.4,1.4,0,0,0,.2-1.6,1,1,0,0,0-.9-.5h0c-.7,0-.9-.9-1-1.8S57.7,170.8,56.8,170.8Z"/><path class="cls-13" d="M41.1,175.6c-1.3.7,1.1,5.5,1.9,3.9,1.8-3.4,3.2-1.5,3.2-3.4a3.3,3.3,0,0,0-3.2-3.4C41.2,172.7,42.7,174.7,41.1,175.6Z"/><path class="cls-14" d="M42.6,180.1h-.1c-.9-.2-1.8-2-2-3.2s.1-1.4.4-1.5a1.6,1.6,0,0,0,.8-1.5c.1-.7.1-1.4,1.3-1.4a3.6,3.6,0,0,1,3.5,3.6c0,1-.4,1.2-1,1.3a3.9,3.9,0,0,0-2.2,2.2C43,180,42.8,180.1,42.6,180.1ZM43,173c-.7,0-.7.3-.7.9a2.3,2.3,0,0,1-1.1,1.9h0c-.2.1-.3.5-.2,1s1.1,2.7,1.6,2.7h.2c1-2,2-2.3,2.6-2.5s.6-.1.6-.8A3.1,3.1,0,0,0,43,173Z"/><path class="cls-13" d="M39.8,158.6c0,2.1,2.3,4.8,3.7,3.3s2,.1,2.7-.6-.8-1.6-.8-2.7,1.6-1.8,1.1-2.4-2.6.4-2.9-1.4-3.3.4-2.6,1C44.5,158.6,39.8,157.5,39.8,158.6Z"/><path class="cls-14" d="M42.6,162.6h-.7a4.5,4.5,0,0,1-2.4-3.9c0-.6.8-.7,1.5-.9s1-.1,1-.3,0-.4-1.2-1.4-.2-.4-.1-.6,1.7-1.3,2.5-1.2.6.2.6.5.6.9,1.4.9a2,2,0,0,1,1.5.4c.4.5,0,1.1-.4,1.6a1.8,1.8,0,0,0-.6,1,3.1,3.1,0,0,0,.5,1.2c.4.6.8,1.2.2,1.7s-1,.4-1.5.4-1-.1-1.2.2A1.8,1.8,0,0,1,42.6,162.6Zm.4-7.9h0a2.5,2.5,0,0,0-1.8.9c1.1.9,1.5,1.5,1.4,1.9s-.9.7-1.5.8-1,.1-1,.3a4.3,4.3,0,0,0,2,3.4,1.1,1.1,0,0,0,1.2-.3,2.2,2.2,0,0,1,1.6-.4c.5.1.9.1,1.1-.1s.1-.5-.3-1.1a3.3,3.3,0,0,1-.5-1.5,2.1,2.1,0,0,1,.7-1.4c.4-.4.5-.7.4-.8s-.6-.3-1.1-.3-1.7,0-1.9-1.3S43.2,154.7,43,154.7Z"/><path class="cls-13" d="M48.7,149.5c1.7,1.2,5.2,1,4.9-1s1.3-1.6,1.2-2.5-1.9-.4-2.7-1-.5-2.4-1.3-2.3-1.3,2.3-2.9,1.5-1.6,2.9-.7,2.7C51.6,145.7,47.8,148.8,48.7,149.5Z"/><path class="cls-14" d="M51.3,150.5a4.8,4.8,0,0,1-2.7-.8c-.5-.4-.2-1.1.1-1.7s.5-.9.4-1-.3-.3-1.8.1a.6.6,0,0,1-.7-.2,3.6,3.6,0,0,1,.6-2.8.7.7,0,0,1,.8-.2c.8.4,1.1.1,1.5-.6a1.8,1.8,0,0,1,1.3-.9c.7,0,.8.6,1,1.3a1.6,1.6,0,0,0,.5,1,1.6,1.6,0,0,0,1.2.3c.7.1,1.4.1,1.5.9a2,2,0,0,1-.6,1.5,1.7,1.7,0,0,0-.6,1.1,1.5,1.5,0,0,1-.7,1.6A3.7,3.7,0,0,1,51.3,150.5Zm-2.6-4.2a1,1,0,0,1,.8.3c.3.4,0,1-.3,1.6s-.4,1-.3,1.1h0a4.2,4.2,0,0,0,3.9.3.9.9,0,0,0,.5-1A1.9,1.9,0,0,1,54,147a1.9,1.9,0,0,0,.5-1c-.1-.3-.4-.4-1-.4a4.2,4.2,0,0,1-1.6-.4c-.4-.3-.5-.9-.7-1.4s-.2-.9-.4-.9-.6.4-.8.7-1,1.4-2.2.8l-.3.2a3.5,3.5,0,0,0-.4,2Z"/><path class="cls-13" d="M27.8,158.1c-.3,3.1,1.7-.5,3.1.8s-.8,2.5,0,2.3c3.8-.9.4-2.8,2.4-3.2s-1.1-3.2-2.4-3.2.3,1.1-.4,2.1S28.4,156.8,27.8,158.1Z"/><path class="cls-14" d="M30.8,161.5c-.2,0-.3-.1-.3-.2s-.1-.7,0-1.3a5.1,5.1,0,0,0,.2-.9c-.4-.4-1-.2-1.7.2s-.9.5-1.2.3-.4-.6-.3-1.5h0a2.5,2.5,0,0,1,2.2-1.2h.5a1.5,1.5,0,0,0,.1-1.3c0-.3-.1-.6.1-.8s.4-.2.5-.2,3.1,1.7,3.2,2.8a.8.8,0,0,1-.8.9l-.4.2a.7.7,0,0,0,.1.6,1.7,1.7,0,0,1-.1,1.4,2.6,2.6,0,0,1-1.9,1Zm-.6-3.2a1.2,1.2,0,0,1,.9.4c.3.3.1.8-.1,1.4s-.1.6-.1.8a2.9,2.9,0,0,0,1.6-.8,1.4,1.4,0,0,0-.1-.9c-.1-.4-.2-.7,0-1a1.1,1.1,0,0,1,.8-.5c.3-.1.3-.2.3-.3s-1.7-2.3-2.6-2.3h-.1a.5.5,0,0,0,.1.3,2.1,2.1,0,0,1-.2,1.7,1.2,1.2,0,0,1-.9.3,1.8,1.8,0,0,0-1.8.8c0,.8.1.9.1.9s.4-.1.6-.3A3.3,3.3,0,0,1,30.2,158.3Z"/><path class="cls-13" d="M58.9,161.1a5.1,5.1,0,0,0,.6,2c.7,1.1,1.6,1.9,2.3,1.1s2.8-1.4,2.8-3.1-2-4.4-2.8-3.1S58.9,159.4,58.9,161.1Z"/><path class="cls-14" d="M61.2,164.8h-.1a2.8,2.8,0,0,1-1.8-1.5,5.5,5.5,0,0,1-.7-2.2c0-1.2.9-1.8,1.7-2.3a2.9,2.9,0,0,0,1.2-1,1,1,0,0,1,1.1-.4c1.1.3,2.3,2.3,2.3,3.7a1.8,1.8,0,0,1-1.2,1.8,5,5,0,0,0-1.7,1.4A1,1,0,0,1,61.2,164.8Zm1.1-6.9-.3.2a3.9,3.9,0,0,1-1.4,1.2c-.8.5-1.4.9-1.4,1.8a4.1,4.1,0,0,0,.6,1.9c.4.7.9,1.2,1.3,1.2a.4.4,0,0,0,.4-.2,7.5,7.5,0,0,1,1.9-1.6c.7-.4.9-.5.9-1.3a4.4,4.4,0,0,0-1.8-3.2Z"/><circle class="cls-7" cx="78.9" cy="178" r="8.4" transform="translate(-107.4 234.6) rotate(-83)"/><path class="cls-15" d="M83.8,171.1a8.9,8.9,0,0,0-4.3-1.5,8.5,8.5,0,0,0-9,7.8,8.2,8.2,0,0,0,.6,3.8C70.2,174.3,75.7,168.3,83.8,171.1Z"/><path class="cls-16" d="M84.1,171.4c5.3,9.3-2.4,16.1-10.1,13.4a8.1,8.1,0,0,0,4.3,1.6,8.4,8.4,0,0,0,5.8-15Z"/><path class="cls-8" d="M78.9,186.7a8.7,8.7,0,1,1,8.7-8.7A8.7,8.7,0,0,1,78.9,186.7Zm0-16.8a8.1,8.1,0,0,0-8.1,8.1,8.2,8.2,0,0,0,8.1,8.2,8.2,8.2,0,0,0,8.2-8.2A8.2,8.2,0,0,0,78.9,169.9Z"/><circle class="cls-7" cx="78.9" cy="178" r="4.8"/><path class="cls-15" d="M81.6,174.1a3.7,3.7,0,0,0-1.8-.8,4.8,4.8,0,0,0-5.6,3.8,4.1,4.1,0,0,0,.1,2.2A5.6,5.6,0,0,1,81.6,174.1Z"/><path class="cls-16" d="M83,175.5c.4,2.9-2.3,7.2-5.7,7l.7.2a4.7,4.7,0,0,0,5.6-3.7A4.7,4.7,0,0,0,83,175.5Z"/><path class="cls-8" d="M78.9,183.1A5.1,5.1,0,1,1,84,178,5.1,5.1,0,0,1,78.9,183.1Zm0-9.6a4.5,4.5,0,1,0,4.5,4.5A4.5,4.5,0,0,0,78.9,173.5Z"/><path class="cls-7" d="M71.8,173.1a1.3,1.3,0,0,1-2.6,0,1.3,1.3,0,0,1,2.6,0Z"/><path class="cls-8" d="M70.5,174.6a1.6,1.6,0,0,1-1.6-1.5,1.6,1.6,0,0,1,1.6-1.6,1.6,1.6,0,0,1,1.5,1.6A1.5,1.5,0,0,1,70.5,174.6Zm0-2.6a1,1,0,0,0-1,1.1,1,1,0,0,0,1,1,1.1,1.1,0,0,0,1-1A1.1,1.1,0,0,0,70.5,172Z"/><path class="cls-7" d="M69.7,171.5a1.3,1.3,0,0,1-2.6,0,1.3,1.3,0,1,1,2.6,0Z"/><path class="cls-8" d="M68.4,173a1.5,1.5,0,0,1-1.5-1.5,1.6,1.6,0,0,1,1.5-1.6,1.6,1.6,0,0,1,1.6,1.6A1.6,1.6,0,0,1,68.4,173Zm0-2.6a1.1,1.1,0,0,0-1,1.1,1.1,1.1,0,0,0,1,1,1,1,0,0,0,1-1A1,1,0,0,0,68.4,170.4Z"/><path class="cls-7" d="M67.5,170.2a1.3,1.3,0,0,1-2.6,0,1.3,1.3,0,0,1,2.6,0Z"/><path class="cls-8" d="M66.2,171.7a1.5,1.5,0,0,1-1.5-1.5,1.6,1.6,0,0,1,1.5-1.6,1.6,1.6,0,0,1,1.6,1.6A1.6,1.6,0,0,1,66.2,171.7Zm0-2.6a1.1,1.1,0,0,0-1,1.1,1.1,1.1,0,0,0,1,1,1,1,0,0,0,1-1A1,1,0,0,0,66.2,169.1Z"/><path class="cls-7" d="M65.4,168.5a1.3,1.3,0,1,1-1.3-1.3A1.3,1.3,0,0,1,65.4,168.5Z"/><path class="cls-8" d="M64.1,170.1a1.6,1.6,0,0,1-1.5-1.6,1.5,1.5,0,0,1,1.5-1.5,1.6,1.6,0,0,1,1.6,1.5A1.6,1.6,0,0,1,64.1,170.1Zm0-2.6a1.1,1.1,0,0,0-1,1,1,1,0,0,0,1,1,.9.9,0,0,0,1-1A1,1,0,0,0,64.1,167.5Z"/><circle class="cls-7" cx="62.1" cy="166.7" r="1.3"/><path class="cls-8" d="M62.1,168.3a1.6,1.6,0,0,1-1.6-1.6,1.6,1.6,0,1,1,3.1,0A1.6,1.6,0,0,1,62.1,168.3Zm0-2.6a1,1,0,0,0-1,1,.9.9,0,0,0,1,1,1,1,0,0,0,1-1A1.1,1.1,0,0,0,62.1,165.7Z"/><path class="cls-7" d="M61.2,165.1a1.3,1.3,0,1,1-1.3-1.3A1.3,1.3,0,0,1,61.2,165.1Z"/><path class="cls-8" d="M59.9,166.7a1.6,1.6,0,1,1,1.6-1.6A1.6,1.6,0,0,1,59.9,166.7Zm0-2.6a1,1,0,1,0,1,1A.9.9,0,0,0,59.9,164.1Z"/><path class="cls-7" d="M59.3,163.4a1.3,1.3,0,1,1-1.3-1.3A1.3,1.3,0,0,1,59.3,163.4Z"/><path class="cls-8" d="M58,165a1.6,1.6,0,0,1,0-3.2,1.6,1.6,0,0,1,0,3.2Zm0-2.6a1,1,0,0,0,0,2,1,1,0,0,0,0-2Z"/><path class="cls-7" d="M57.4,161.7a1.3,1.3,0,0,1-2.6,0,1.3,1.3,0,0,1,2.6,0Z"/><path class="cls-8" d="M56.1,163.3a1.6,1.6,0,0,1-1.6-1.6,1.6,1.6,0,0,1,3.2,0A1.6,1.6,0,0,1,56.1,163.3Zm0-2.6a1,1,0,0,0-1,1,1,1,0,1,0,2,0A1,1,0,0,0,56.1,160.7Z"/><path class="cls-7" d="M55.9,159.7a1.3,1.3,0,1,1-1.3-1.3A1.3,1.3,0,0,1,55.9,159.7Z"/><path class="cls-8" d="M54.6,161.2a1.6,1.6,0,0,1-1.6-1.5,1.6,1.6,0,0,1,3.2,0A1.6,1.6,0,0,1,54.6,161.2Zm0-2.5a.9.9,0,0,0-1,1,1,1,0,0,0,2,0A.9.9,0,0,0,54.6,158.7Z"/><path class="cls-7" d="M54.2,157.6a1.2,1.2,0,0,1-1.2,1.3,1.3,1.3,0,1,1,0-2.6A1.2,1.2,0,0,1,54.2,157.6Z"/><path class="cls-8" d="M53,159.2a1.6,1.6,0,0,1-1.6-1.6,1.6,1.6,0,0,1,1.6-1.5,1.5,1.5,0,0,1,1.5,1.5A1.6,1.6,0,0,1,53,159.2Zm0-2.6a1.1,1.1,0,0,0-1.1,1,1,1,0,0,0,1.1,1,1,1,0,0,0,1-1A1.1,1.1,0,0,0,53,156.6Z"/><path class="cls-7" d="M52.5,155.7a1.2,1.2,0,0,1-1.3,1.3,1.3,1.3,0,0,1-1.3-1.3,1.2,1.2,0,0,1,1.3-1.2A1.2,1.2,0,0,1,52.5,155.7Z"/><path class="cls-8" d="M51.2,157.3a1.6,1.6,0,0,1-1.5-1.6,1.5,1.5,0,0,1,1.5-1.5,1.6,1.6,0,0,1,1.6,1.5A1.6,1.6,0,0,1,51.2,157.3Zm0-2.6a1.1,1.1,0,0,0-1,1,1.1,1.1,0,0,0,1,1.1,1.1,1.1,0,0,0,1.1-1.1A1.1,1.1,0,0,0,51.2,154.7Z"/><path class="cls-7" d="M51.1,153.5a1.3,1.3,0,1,1-1.3-1.3A1.3,1.3,0,0,1,51.1,153.5Z"/><path class="cls-8" d="M49.8,155.1a1.6,1.6,0,1,1,1.6-1.6A1.6,1.6,0,0,1,49.8,155.1Zm0-2.6a1,1,0,1,0,1,1A.9.9,0,0,0,49.8,152.5Z"/><path class="cls-7" d="M49.7,151.4a1.3,1.3,0,0,1-2.6,0,1.3,1.3,0,1,1,2.6,0Z"/><path class="cls-8" d="M48.4,152.9a1.6,1.6,0,0,1-1.6-1.5,1.6,1.6,0,0,1,1.6-1.6,1.6,1.6,0,0,1,1.5,1.6A1.5,1.5,0,0,1,48.4,152.9Zm0-2.6a1.1,1.1,0,0,0-1.1,1.1,1.1,1.1,0,0,0,1.1,1,1.1,1.1,0,0,0,1-1A1.1,1.1,0,0,0,48.4,150.3Z"/><path class="cls-7" d="M48.1,149.1a1.3,1.3,0,1,1-1.3-1.3A1.3,1.3,0,0,1,48.1,149.1Z"/><path class="cls-8" d="M46.8,150.7a1.6,1.6,0,0,1-1.5-1.6,1.5,1.5,0,0,1,1.5-1.5,1.6,1.6,0,0,1,1.6,1.5A1.6,1.6,0,0,1,46.8,150.7Zm0-2.6a1.1,1.1,0,0,0-1,1,1,1,0,0,0,1,1,.9.9,0,0,0,1-1A1,1,0,0,0,46.8,148.1Z"/><path class="cls-7" d="M47.1,146.8a1.3,1.3,0,1,1-1.3-1.3A1.3,1.3,0,0,1,47.1,146.8Z"/><path class="cls-8" d="M45.8,148.4a1.6,1.6,0,0,1-1.6-1.6,1.6,1.6,0,0,1,1.6-1.5,1.5,1.5,0,0,1,1.5,1.5A1.6,1.6,0,0,1,45.8,148.4Zm0-2.6a1,1,0,0,0-1,1,.9.9,0,0,0,1,1,1,1,0,0,0,1-1A1.1,1.1,0,0,0,45.8,145.8Z"/><path class="cls-7" d="M45.8,142.7a1.3,1.3,0,1,1-1.3-1.3A1.3,1.3,0,0,1,45.8,142.7Z"/><path class="cls-8" d="M44.5,144.3a1.6,1.6,0,0,1-1.6-1.6,1.6,1.6,0,0,1,3.2,0A1.6,1.6,0,0,1,44.5,144.3Zm0-2.6a1,1,0,0,0-1,1,1,1,0,0,0,2,0A1,1,0,0,0,44.5,141.7Z"/><path class="cls-7" d="M46.3,144.4a1.3,1.3,0,1,1-1.3-1.3A1.3,1.3,0,0,1,46.3,144.4Z"/><path class="cls-8" d="M45,146a1.6,1.6,0,0,1,0-3.2,1.6,1.6,0,0,1,0,3.2Zm0-2.6a1,1,0,1,0,0,2,1,1,0,0,0,0-2Z"/><path class="cls-7" d="M86,173.1a1.3,1.3,0,0,0,2.6,0,1.3,1.3,0,0,0-2.6,0Z"/><path class="cls-8" d="M87.3,174.6a1.5,1.5,0,0,1-1.5-1.5,1.6,1.6,0,0,1,1.5-1.6,1.6,1.6,0,0,1,1.6,1.6A1.6,1.6,0,0,1,87.3,174.6Zm0-2.6a1.1,1.1,0,0,0-1,1.1,1.1,1.1,0,0,0,1,1,1,1,0,0,0,1-1A1,1,0,0,0,87.3,172Z"/><path class="cls-7" d="M88.1,171.5a1.3,1.3,0,0,0,2.6,0,1.3,1.3,0,1,0-2.6,0Z"/><path class="cls-8" d="M89.4,173a1.6,1.6,0,0,1-1.6-1.5,1.6,1.6,0,0,1,1.6-1.6,1.6,1.6,0,0,1,1.5,1.6A1.5,1.5,0,0,1,89.4,173Zm0-2.6a1,1,0,0,0-1,1.1,1,1,0,0,0,1,1,1.1,1.1,0,0,0,1-1A1.1,1.1,0,0,0,89.4,170.4Z"/><path class="cls-7" d="M90.3,170.2a1.3,1.3,0,0,0,2.6,0,1.3,1.3,0,0,0-2.6,0Z"/><path class="cls-8" d="M91.6,171.7a1.6,1.6,0,0,1-1.6-1.5,1.6,1.6,0,0,1,3.2,0A1.6,1.6,0,0,1,91.6,171.7Zm0-2.6a1,1,0,0,0-1,1.1,1,1,0,0,0,2,0A1,1,0,0,0,91.6,169.1Z"/><path class="cls-7" d="M92.4,168.5a1.3,1.3,0,1,0,1.3-1.3A1.3,1.3,0,0,0,92.4,168.5Z"/><path class="cls-8" d="M93.7,170.1a1.6,1.6,0,0,1-1.6-1.6,1.6,1.6,0,0,1,1.6-1.5,1.5,1.5,0,0,1,1.5,1.5A1.6,1.6,0,0,1,93.7,170.1Zm0-2.6a1,1,0,0,0-1,1,.9.9,0,0,0,1,1,1,1,0,0,0,1-1A1.1,1.1,0,0,0,93.7,167.5Z"/><path class="cls-7" d="M94.4,166.7a1.3,1.3,0,1,0,1.3-1.3A1.3,1.3,0,0,0,94.4,166.7Z"/><path class="cls-8" d="M95.7,168.3a1.6,1.6,0,0,1-1.5-1.6,1.6,1.6,0,1,1,3.1,0A1.6,1.6,0,0,1,95.7,168.3Zm0-2.6a1.1,1.1,0,0,0-1,1,1,1,0,0,0,1,1,.9.9,0,0,0,1-1A1,1,0,0,0,95.7,165.7Z"/><circle class="cls-7" cx="97.9" cy="165.1" r="1.3"/><path class="cls-8" d="M97.9,166.7a1.6,1.6,0,1,1,1.6-1.6A1.6,1.6,0,0,1,97.9,166.7Zm0-2.6a1,1,0,1,0,1,1A.9.9,0,0,0,97.9,164.1Z"/><path class="cls-7" d="M98.5,163.4a1.3,1.3,0,1,0,1.3-1.3A1.3,1.3,0,0,0,98.5,163.4Z"/><path class="cls-8" d="M99.8,165a1.6,1.6,0,0,1,0-3.2,1.6,1.6,0,1,1,0,3.2Zm0-2.6a1,1,0,1,0,0,2,1,1,0,0,0,0-2Z"/><path class="cls-7" d="M100.4,161.7a1.3,1.3,0,0,0,2.6,0,1.3,1.3,0,0,0-2.6,0Z"/><path class="cls-8" d="M101.7,163.3a1.6,1.6,0,1,1,0-3.1,1.6,1.6,0,0,1,1.6,1.5A1.6,1.6,0,0,1,101.7,163.3Zm0-2.6a1.1,1.1,0,0,0-1,1,1.1,1.1,0,0,0,1,1.1,1,1,0,0,0,1-1.1A1,1,0,0,0,101.7,160.7Z"/><path class="cls-7" d="M101.9,159.7a1.3,1.3,0,1,0,1.3-1.3A1.3,1.3,0,0,0,101.9,159.7Z"/><path class="cls-8" d="M103.2,161.2a1.6,1.6,0,0,1-1.6-1.5,1.6,1.6,0,1,1,3.2,0A1.6,1.6,0,0,1,103.2,161.2Zm0-2.5a.9.9,0,0,0-1,1,1,1,0,0,0,2,0A.9.9,0,0,0,103.2,158.7Z"/><path class="cls-7" d="M103.6,157.6a1.3,1.3,0,0,0,1.3,1.3,1.3,1.3,0,0,0,0-2.6A1.3,1.3,0,0,0,103.6,157.6Z"/><path class="cls-8" d="M104.9,159.2a1.6,1.6,0,0,1-1.6-1.6,1.6,1.6,0,0,1,1.6-1.5,1.5,1.5,0,0,1,1.5,1.5A1.6,1.6,0,0,1,104.9,159.2Zm0-2.6a1.1,1.1,0,0,0-1.1,1,1,1,0,0,0,1.1,1,1,1,0,0,0,1-1A1.1,1.1,0,0,0,104.9,156.6Z"/><path class="cls-7" d="M105.3,155.7a1.3,1.3,0,0,0,2.6,0,1.3,1.3,0,0,0-2.6,0Z"/><path class="cls-8" d="M106.6,157.3a1.6,1.6,0,0,1-1.6-1.6,1.6,1.6,0,0,1,1.6-1.5,1.5,1.5,0,0,1,1.5,1.5A1.6,1.6,0,0,1,106.6,157.3Zm0-2.6a1.1,1.1,0,0,0-1.1,1,1.1,1.1,0,0,0,1.1,1.1,1.1,1.1,0,0,0,1-1.1A1.1,1.1,0,0,0,106.6,154.7Z"/><path class="cls-7" d="M106.7,153.5a1.3,1.3,0,1,0,1.3-1.3A1.3,1.3,0,0,0,106.7,153.5Z"/><path class="cls-8" d="M108,155.1a1.6,1.6,0,1,1,1.6-1.6A1.6,1.6,0,0,1,108,155.1Zm0-2.6a1,1,0,1,0,1,1A.9.9,0,0,0,108,152.5Z"/><path class="cls-7" d="M108.1,151.4a1.2,1.2,0,0,0,1.3,1.2,1.2,1.2,0,0,0,1.3-1.2,1.2,1.2,0,0,0-1.3-1.3A1.3,1.3,0,0,0,108.1,151.4Z"/><path class="cls-8" d="M109.4,152.9a1.5,1.5,0,0,1-1.5-1.5,1.6,1.6,0,0,1,1.5-1.6,1.6,1.6,0,0,1,1.6,1.6A1.6,1.6,0,0,1,109.4,152.9Zm0-2.6a1.1,1.1,0,0,0-1,1.1,1.1,1.1,0,0,0,1,1,1.1,1.1,0,0,0,1.1-1A1.1,1.1,0,0,0,109.4,150.3Z"/><path class="cls-7" d="M109.7,149.1a1.3,1.3,0,1,0,1.3-1.3A1.3,1.3,0,0,0,109.7,149.1Z"/><path class="cls-8" d="M111,150.7a1.6,1.6,0,0,1-1.6-1.6,1.6,1.6,0,0,1,3.2,0A1.6,1.6,0,0,1,111,150.7Zm0-2.6a1,1,0,0,0-1,1,.9.9,0,0,0,1,1,1,1,0,0,0,1-1A1.1,1.1,0,0,0,111,148.1Z"/><circle class="cls-7" cx="112" cy="146.8" r="1.3"/><path class="cls-8" d="M112,148.4a1.6,1.6,0,0,1-1.5-1.6,1.5,1.5,0,0,1,1.5-1.5,1.6,1.6,0,0,1,1.6,1.5A1.6,1.6,0,0,1,112,148.4Zm0-2.6a1.1,1.1,0,0,0-1,1,1,1,0,0,0,1,1,.9.9,0,0,0,1-1A1,1,0,0,0,112,145.8Z"/><path class="cls-7" d="M112,142.7a1.3,1.3,0,1,0,1.3-1.3A1.3,1.3,0,0,0,112,142.7Z"/><path class="cls-8" d="M113.3,144.3a1.6,1.6,0,1,1,0-3.1,1.6,1.6,0,0,1,1.6,1.5A1.6,1.6,0,0,1,113.3,144.3Zm0-2.6a1.1,1.1,0,0,0-1,1,1,1,0,0,0,1,1,.9.9,0,0,0,1-1A1,1,0,0,0,113.3,141.7Z"/><circle class="cls-7" cx="112.8" cy="144.4" r="1.3"/><path class="cls-8" d="M112.8,146a1.6,1.6,0,0,1,0-3.2,1.6,1.6,0,1,1,0,3.2Zm0-2.6a1,1,0,1,0,0,2,1,1,0,1,0,0-2Z"/><path class="cls-17" d="M105.7,105.5c1.3-3.5,4.4-9.2,9.8-7.4s-2,20.7-10.4,16C103.7,112.2,105.7,105.5,105.7,105.5Z"/><path class="cls-5" d="M104.8,109.7c-.3,1.8-.3,3.6.3,4.4,3.9,2.2,7.5-.8,9.7-4.8a18.6,18.6,0,0,1-4.1,2.8A3.7,3.7,0,0,1,104.8,109.7Z"/><path class="cls-5" d="M114.4,102.1c-2.9-1.4-5.5,2.6-6.3,5.3,2.3-2.6,2.9.8,2.5,2.5a3.8,3.8,0,0,0-.1-4.5c.7-1.2,1.9-3.5,3.2-2.7s.6,1.8.4,3.8C115.1,104.9,115.5,102.6,114.4,102.1Z"/><path class="cls-6" d="M107.8,115.1a5.5,5.5,0,0,1-2.8-.7h-.1c-1.5-2,.5-8.6.6-8.8h0c1.4-3.6,4.5-9.4,10.1-7.5.9.2,1.4,1,1.7,2.3.6,3.7-2.1,11-6.1,13.8A6.5,6.5,0,0,1,107.8,115.1Zm-2.5-1.2a4.8,4.8,0,0,0,5.6-.4c3.8-2.7,6.4-9.6,5.8-13.2a1.9,1.9,0,0,0-1.3-1.9c-5.1-1.8-8.1,3.7-9.4,7.2C105.4,107.4,104.2,112.4,105.3,113.9Z"/><path class="cls-6" d="M108.1,107.4a3.4,3.4,0,0,1,.5-2c1.1-1.9,3-4.5,4.8-4.1a3.1,3.1,0,0,1,1.6,1.1,3.6,3.6,0,0,1,.2,2.1,3.8,3.8,0,0,1-1.1,2c.5-1.4.9-2.9.4-3.8s-.7-.7-1.3-.9S109.2,105,108.1,107.4Z"/><path class="cls-6" d="M110.6,109.9a4,4,0,0,0,.2-3.5,2.1,2.1,0,0,0-1.7-1.2v-.5a2.8,2.8,0,0,1,2.1,1.4,3.4,3.4,0,0,1,.3,2A2,2,0,0,1,110.6,109.9Z"/><path class="cls-17" d="M52.6,105.5c-1.3-3.5-4.4-9.2-9.8-7.4s2,20.7,10.4,16C54.6,112.2,52.6,105.5,52.6,105.5Z"/><path class="cls-5" d="M53.4,109c-.3,1.5-1,3.3-2,3.7-3.9,1.4-6.7-2.1-8.9-5.7,2,5,6.1,9.7,10.7,7.1C53.9,113.2,53.7,111,53.4,109Z"/><path class="cls-5" d="M43.8,101.9c2.9-1.4,5.5,2.6,6.3,5.3-2.3-2.6-2.9.8-2.5,2.5a3.8,3.8,0,0,1,.1-4.5c-.7-1.2-1.9-3.5-3.2-2.7s-.6,1.8-.4,3.8C43.1,104.7,42.8,102.4,43.8,101.9Z"/><path class="cls-6" d="M50.5,115.1a6.5,6.5,0,0,1-3.4-1.1c-4-2.8-6.7-10.1-6.1-13.8.3-1.3.8-2.1,1.7-2.4,5.6-1.8,8.8,4,10.1,7.6h0c.1.2,2.1,6.8.6,8.8h-.1A5.5,5.5,0,0,1,50.5,115.1ZM44.8,98a4.3,4.3,0,0,0-1.9.4,1.9,1.9,0,0,0-1.3,1.9c-.6,3.6,2,10.5,5.8,13.2a4.8,4.8,0,0,0,5.6.4c1.1-1.5-.1-6.5-.7-8.3S48.8,98,44.8,98Z"/><path class="cls-6" d="M50.2,107.4c-1.1-2.4-3.5-6-5.1-5.6s-1.1.4-1.3.9-.1,2.4.4,3.8a3.8,3.8,0,0,1-1.1-2.4,3.2,3.2,0,0,1,.2-1.7,3,3,0,0,1,1.7-1.1c1.6-.4,3.5,2,4.6,3.9A3.7,3.7,0,0,1,50.2,107.4Z"/><path class="cls-6" d="M46.7,107.9a3.6,3.6,0,0,1,.3-1.8,2.8,2.8,0,0,1,2.1-1.4v.5a2.1,2.1,0,0,0-1.7,1.2,4,4,0,0,0,.2,3.5A2.8,2.8,0,0,1,46.7,107.9Z"/><path class="cls-17" d="M105.3,100.4c-.5-2.3,2.1-18.7.2-22s-26.3-4.7-26.3-4.7S54.8,75,52.8,78.4s.7,19.7.2,22a16.4,16.4,0,0,0-.4,7.7,10.5,10.5,0,0,0,2.2,9.3s0,10.9.7,13c2,6.6,16.8,12.9,23.7,13.1s21.6-6.5,23.6-13.1c.8-2.1.8-13,.8-13a10.6,10.6,0,0,0,2.1-9.3A16.4,16.4,0,0,0,105.3,100.4Z"/><path class="cls-5" d="M71.7,114.6a2.4,2.4,0,0,0-.1,2.6c1.3,1.3,2.9,1.5,4.3,2s.5,1.2,2.3,1.3c3.9.1,3.4-1,4.3-1.4a13.4,13.4,0,0,0,2.6-.9c2.3-.8,2.3-1.8,1.5-3.6.2.7-.6,2.5-3.1,3.1s-2.8,1.3-4.6,1.3-2.6-.9-4.3-1.4S71.8,116.5,71.7,114.6Z"/><path class="cls-5" d="M105.3,100.4c-.5-2.3,2.1-18.7.2-22-.7-1.1-1.3-1.7-4.9-2.4,2.9,8.7,3.3,13.5,2.2,20.8-.3,2.4.9,5.5.6,8.5a42.1,42.1,0,0,1-.1,7c0,3.1-4.1,6.8-4.1,7.3,2.1,8.8-2.7,15.4-8.4,20.7,5.6-2.5,10.9-6.2,12-9.9.8-2.1.8-13,.8-13a10.6,10.6,0,0,0,2.1-9.3A16.4,16.4,0,0,0,105.3,100.4Z"/><path class="cls-6" d="M79.2,143.8c-6.6-.2-21.8-6.5-24-13.3-.7-2.1-.7-11.8-.7-13a11.1,11.1,0,0,1-2.2-9.4,17,17,0,0,1,.2-7,1.9,1.9,0,0,0,.2-.8,32.3,32.3,0,0,0-.3-6.4c-.5-6-1.1-13.4.2-15.7s25.5-4.7,26.5-4.8,24.6,1.4,26.6,4.8.7,9.7.2,15.7a32.3,32.3,0,0,0-.3,6.4h0a1.9,1.9,0,0,0,.2.8,17,17,0,0,1,.2,7,11.1,11.1,0,0,1-2.2,9.4c0,1.2,0,10.9-.7,13C101,137.3,85.7,143.6,79.2,143.8ZM79.1,74c-6.7.3-24.5,1.9-26,4.5s-.6,9.7-.2,15.4a33.4,33.4,0,0,1,.3,6.5c0,.3-.1.6-.1.8a14.3,14.3,0,0,0-.3,6.8h0a11,11,0,0,0,2.1,9.2H55c0,.1,0,10.9.7,12.9,2,6.3,16.3,12.8,23.5,12.9s21.4-6.6,23.4-12.9c.7-2,.7-12.8.7-12.9h.1a11,11,0,0,0,2.1-9.2h0a14.3,14.3,0,0,0-.3-6.8c0-.2-.1-.5-.1-.8a33.4,33.4,0,0,1,.3-6.5c.4-5.7,1.1-13.3-.2-15.4S85.9,74.3,79.1,74Z"/><path class="cls-6" d="M52.8,108.2l-.5-.2a6.4,6.4,0,0,1,1.7-2.3A9.3,9.3,0,0,0,52.8,108.2Z"/><path class="cls-6" d="M55.4,118.4a6,6,0,0,1-.8-.8l.3-.3a12.7,12.7,0,0,0,3.2,2.1A6.7,6.7,0,0,1,55.4,118.4Z"/><path class="cls-6" d="M105.5,108.2a9.3,9.3,0,0,0-1.2-2.5A6.4,6.4,0,0,1,106,108Z"/><path class="cls-6" d="M100.2,119.4a12.7,12.7,0,0,0,3.2-2.1l.3.3-1,.9A5.1,5.1,0,0,1,100.2,119.4Z"/><path class="cls-7" d="M108.9,79.1l-29.7-.9-29.8.9s-.6,3.3,1.3,3.9,55,.7,56.9,0S108.9,79.1,108.9,79.1Z"/><path class="cls-16" d="M108.9,79.1l-11.2.2c-2.2,3.5-20.8,4-27.5,4.2,16,.1,36.2-.1,37.4-.5S108.9,79.1,108.9,79.1Z"/><path class="cls-8" d="M79.2,83.8c-10.1,0-27.4-.1-28.5-.5s-1.6-4.1-1.6-4.2v-.3l30-.9,30.1.9v.3c0,.1.5,3.5-1.6,4.2S89.2,83.8,79.2,83.8ZM49.6,79.3c-.1.8-.2,3,1.2,3.5s12.7.5,28.4.5,27.5-.2,28.3-.5,1.3-2.7,1.2-3.5l-29.6-.9Z"/><path class="cls-18" d="M44.2,60.1a54.9,54.9,0,0,1,7.1,3.8c.2.5.6,6,2.5,7.4-2.8-.4-4.1-1.4-4.8-3.1S44.2,60.1,44.2,60.1Z"/><path class="cls-19" d="M54.8,71.7h-1c-2.8-.4-4.3-1.4-5-3.3a93.3,93.3,0,0,0-4.9-8.1V60l.3-.2h.1c.4.1,7.1,3.4,7.4,4s.1.4.2,1,.7,5.3,2.2,6.3Zm-10-11.1a68.8,68.8,0,0,1,4.4,7.5c.6,1.5,1.8,2.4,3.9,2.8-1.2-1.5-1.6-4.5-1.9-6a7.8,7.8,0,0,0-.1-.9A61.1,61.1,0,0,0,44.8,60.6Z"/><path class="cls-18" d="M114.1,60.1a54.9,54.9,0,0,0-7.1,3.8c-.2.5-.6,6-2.5,7.4,2.8-.4,4.1-1.4,4.8-3.1S114.1,60.1,114.1,60.1Z"/><path class="cls-19" d="M103.5,71.7l.8-.6c1.5-1,2-4.7,2.2-6.3s.2-.8.2-1,7-3.9,7.4-4h.4v.2c-.1.1-4.2,6.4-4.8,8.1s-2.3,2.9-5.1,3.3Zm10-11.1a44.7,44.7,0,0,0-6.3,3.5,3.8,3.8,0,0,0-.1.8c-.3,1.5-.7,4.5-1.9,6,2.1-.4,3.3-1.3,3.9-2.8A68.8,68.8,0,0,1,113.5,60.6Z"/><path class="cls-1" d="M108.7,78.2c-3.2.2-57.5-.2-58.5,0,0-9.3,12.8-18.1,29-18.1S108.7,68.9,108.7,78.2Z"/><path class="cls-20" d="M52.1,74.2c2-5.5,11.1-11.8,20.8-12.4C68.1,63.2,55.9,69.3,52.1,74.2Z"/><path class="cls-21" d="M53.2,72.3c3.3-4.3,9.7-7.9,16.7-9.8C66.1,64.1,57.2,68,53.2,72.3Z"/><path class="cls-20" d="M53.2,76.6c2-5.5,10.7-11.7,20.8-12.4C69.3,66.8,57,71.7,53.2,76.6Z"/><path class="cls-21" d="M54.4,74.7c3.2-4.3,9.6-7.9,16.6-9.8C67.3,66.5,58.3,70.4,54.4,74.7Z"/><path class="cls-20" d="M106.2,73.6c-2-5.5-11.1-11.8-20.8-12.4C90.2,62.6,102.4,68.7,106.2,73.6Z"/><path class="cls-21" d="M105.1,71.7c-3.3-4.3-9.7-7.9-16.7-9.8C92.2,63.5,101.1,67.4,105.1,71.7Z"/><path class="cls-20" d="M105.1,76c-2-5.5-10-11.7-20.8-12.4C90.8,68,101.3,71.1,105.1,76Z"/><path class="cls-21" d="M103.9,74.1c-3.2-4.3-9.6-7.9-16.6-9.8C91,65.9,100,69.8,103.9,74.1Z"/><path class="cls-4" d="M99.1,78.5H49.9v-.3c0-9.8,13.7-18.4,29.3-18.4s29.7,8.6,29.7,18.4v.2H99.1Zm-43.7-.6h53c-.2-9.4-13.8-17.6-29.2-17.6S50.7,68.5,50.4,77.9Z"/><path class="cls-22" d="M114.6,59.5c-.3.1-6.9,6.4-7,6.6s-.2,2.6-.3,2.9-1.1,2.3-8.1,2.9S91,62.2,91.1,61.5s3.9-7.4,4-8.4c-.6-3.3-13.6-17-15.9-18.4-2.4,1.4-15.4,15.1-16,18.4.1,1,3.9,7.7,4,8.4s-.5,10.8-8.1,10.4S51.2,69.4,51,69s-.2-2.7-.3-2.9-6.7-6.5-7-6.6a38.5,38.5,0,0,0,.2,4.8l2,3.6,1.7,7.3s9.5,2.1,14.5,1.4,17.1-.9,17.1-.9,12,.3,17,.9,14.5-1.4,14.5-1.4l1.7-7.3,2-3.6A38.5,38.5,0,0,0,114.6,59.5Z"/><path class="cls-15" d="M79.2,35.9c.2-.2,1.5.8,3.3,1.8a21.3,21.3,0,0,0-3.3-3c-2.4,1.4-15.4,15.1-16,18.4a20.8,20.8,0,0,0,1.8,4c-.2-1.7-1.1-3.7-.9-4.1C65.7,49.8,73.9,39.9,79.2,35.9Z"/><path class="cls-15" d="M108.1,69.2c.3-1.4.1-2.8.4-3a45.2,45.2,0,0,0,6.1-6.7h0c-.3.1-6.9,6.4-7,6.6s-.2,2.6-.3,2.9-.8,1.7-5.1,2.6C105.5,71.2,107.9,70.1,108.1,69.2Z"/><path class="cls-8" d="M98.5,77H96.1c-4.9-.6-16.8-1-17-1s-12,.4-16.9,1S48,75.6,47.6,75.5h-.2L45.7,68l-2.1-3.7c-.4-5-.2-5,0-5.1h.2c.3.2,7,6.5,7.2,6.8a7.3,7.3,0,0,1,.1,1.3,13.2,13.2,0,0,0,.2,1.6c.1.4,1.1,2.2,7.8,2.8a6.2,6.2,0,0,0,5-2C66.7,66.9,67,62,67,61.5l-1.7-3.3a33.6,33.6,0,0,1-2.4-5.1h0c.7-3.3,13.5-17,16.1-18.5h.3C81.9,36,94.8,49.7,95.4,53h0A33.6,33.6,0,0,1,93,58.2l-1.7,3.3c0,.5.3,5.4,2.9,8.2a6.2,6.2,0,0,0,5,2c6.7-.6,7.7-2.4,7.8-2.8a13.2,13.2,0,0,0,.2-1.6,7.3,7.3,0,0,1,.1-1.3c.2-.3,6.9-6.6,7.2-6.8h.2c.2.1.4.1,0,5.1h-.1l-2,3.6-1.7,7.5h-.2A67.5,67.5,0,0,1,98.5,77ZM79.1,75.4c.2,0,12.1.3,17.1,1s13-1.1,14.3-1.4l1.7-7.2,1.9-3.6a37.3,37.3,0,0,0,.3-4.2c-1.4,1.2-6.2,5.8-6.6,6.2s-.1.7-.1,1.1a11.1,11.1,0,0,1-.2,1.8c-.2.6-1.4,2.5-8.2,3.1A6.6,6.6,0,0,1,93.8,70c-2.8-3-3-8-3-8.5s.7-1.5,1.7-3.5,2.3-4.3,2.3-4.9c-.6-3.2-13-16.3-15.6-18.1-2.7,1.8-15.1,14.8-15.7,18.1,0,.6,1.3,3.1,2.3,4.9s1.6,3.1,1.7,3.5-.2,5.5-3,8.5a6.4,6.4,0,0,1-5.4,2.2c-6.9-.6-8.1-2.5-8.3-3.1a11.1,11.1,0,0,1-.2-1.8c0-.4-.1-.9-.1-1.1s-5.2-5-6.6-6.2a37.3,37.3,0,0,0,.3,4.2l2,3.7L47.8,75c1.3.3,9.8,2,14.3,1.4S79,75.4,79.1,75.4Z"/><path class="cls-7" d="M115,63.5a23.8,23.8,0,0,0-4.3,3.4c-.1.4.2,3.8-.9,5.5s-11.2,3.8-16.4,1.8A9.4,9.4,0,0,1,87,66c-.3-2.3,3.1-11.3,3.3-12.4s-9-12-11.1-14.3C77,41.6,68,51.9,68,53.6S71.6,63.7,71.3,66a9.4,9.4,0,0,1-6.4,8.2c-5.2,2-15,.9-16.4-1.8s-.8-5.1-.9-5.5a23.8,23.8,0,0,0-4.3-3.4c-.3-.1,1.3,4.5,1.8,6.5s2,9.7,4.7,10.5,56.1.8,58.8,0,4.1-8.8,4.6-10.5S115.3,63.4,115,63.5Z"/><path class="cls-16" d="M96.4,75a13.2,13.2,0,0,1-3-.8A9.4,9.4,0,0,1,87,66c-.3-2.3,3.1-11.3,3.3-12.4S83,43.9,79.6,40c3.7,5.5,8.5,10.8,8.8,13.2s-2.3,7.4-2.7,12.3S88.8,74.7,96.4,75Z"/><path class="cls-16" d="M115,63.5a23.8,23.8,0,0,0-4.3,3.4c-.1.4.2,3.8-.9,5.5s-2.3,1.8-4.6,2.3c-9.7,7.2-45.2,5.5-55.4,5.8,2.6.8,56.1.8,58.8,0s4.1-8.8,4.6-10.5S115.3,63.4,115,63.5Z"/><path class="cls-15" d="M72.3,66.2c.3-4.3-3.7-12.3-3.3-13,2.7-4.4,9.2-11.8,10.3-13.7C77.1,41.2,68,51.9,68,53.6S71.6,63.7,71.3,66a9.4,9.4,0,0,1-6.4,8.2,18.5,18.5,0,0,1-5.4,1C67.3,75.6,71.8,71.4,72.3,66.2Z"/><path class="cls-15" d="M47.6,67h0a23.8,23.8,0,0,0-4.3-3.4c-.3-.1,1.3,4.5,1.8,6.5s.5,2,.9,3.6A40.9,40.9,0,0,0,44.3,65Z"/><path class="cls-8" d="M79.2,81.3c-13.7,0-28.1-.2-29.5-.6s-3.9-6.8-4.6-9.7a4.4,4.4,0,0,1-.2-1,28.2,28.2,0,0,0-.9-2.7c-1.1-3.6-1.1-3.8-.9-4h.3a29.6,29.6,0,0,1,4.5,3.6v1c0,1.1,0,3.3.8,4.4s5,2.8,9.6,2.8a20.2,20.2,0,0,0,6.5-1,9.5,9.5,0,0,0,6.3-8c.2-1.6-1.5-6.7-2.5-9.8a12.1,12.1,0,0,1-.8-2.5c0-2.1,9.6-12.9,11.2-14.6l.2-.2v.2c1.6,1.7,11.3,12.5,11.3,14.5-.1.4-.4,1.3-.9,2.6-1,3.1-2.7,8.2-2.5,9.8a9.5,9.5,0,0,0,6.3,8,20.2,20.2,0,0,0,6.5,1c4.6,0,8.8-1.2,9.6-2.7s.8-3.4.8-4.5v-1a29.6,29.6,0,0,1,4.5-3.6h.3c.2.2.2.4-.9,4a28.2,28.2,0,0,0-.9,2.7,4.4,4.4,0,0,1-.2,1c-.7,2.9-2.1,9-4.6,9.7S92.8,81.3,79.2,81.3ZM43.6,64l.9,3.1a29,29,0,0,1,.9,2.8,5.8,5.8,0,0,0,.2,1c.6,2.6,2.1,8.7,4.2,9.3s13.2.6,29.4.6,28.1-.2,29.3-.6,3.6-6.7,4.2-9.3a5.8,5.8,0,0,0,.2-1,29,29,0,0,1,.9-2.8l.9-3.1a42.2,42.2,0,0,0-3.8,3v.8c0,1.2,0,3.4-.8,4.7s-5.9,3-10.1,3a21.5,21.5,0,0,1-6.7-1A9.9,9.9,0,0,1,86.7,66c-.2-1.7,1.5-6.6,2.5-9.9a12.1,12.1,0,0,0,.8-2.5c0-1.5-8-10.9-10.8-13.9-2.9,3-10.9,12.4-10.9,13.9a12.1,12.1,0,0,0,.8,2.5c1,3.3,2.7,8.2,2.5,9.9A9.9,9.9,0,0,1,65,74.5a21.5,21.5,0,0,1-6.7,1c-4.2,0-9-1-10.1-3s-.8-3.5-.8-4.7V67A31.4,31.4,0,0,0,43.6,64Z"/><ellipse class="cls-23" cx="79.2" cy="53.9" rx="3.4" ry="4.2"/><path class="cls-24" d="M80.5,50.1a2.2,2.2,0,0,0-1.3-.4c-1.9,0-3.4,1.9-3.4,4.2a5.6,5.6,0,0,0,.5,2.3C76.2,53.3,77.1,50,80.5,50.1Z"/><path class="cls-25" d="M81.3,50.6c.6,3.2-.4,7.3-3.1,7.4l1,.2c1.8,0,3.3-1.9,3.3-4.3A5.1,5.1,0,0,0,81.3,50.6Z"/><path class="cls-26" d="M79.2,58.4c-2.1,0-3.7-2-3.7-4.5s1.6-4.5,3.7-4.5,3.6,2.1,3.6,4.5S81.2,58.4,79.2,58.4Zm0-8.4c-1.8,0-3.2,1.7-3.2,3.9s1.4,4,3.2,4,3.1-1.8,3.1-4S80.9,50,79.2,50Z"/><path class="cls-23" d="M81.1,74.8a2,2,0,1,1-1.9-2A2,2,0,0,1,81.1,74.8Z"/><path class="cls-24" d="M80.1,73.1l-.9-.3a2,2,0,0,0-2,2,1.7,1.7,0,0,0,.3,1A2.4,2.4,0,0,1,80.1,73.1Z"/><path class="cls-25" d="M80.8,73.8a2.4,2.4,0,0,1-2.9,2.4,1.6,1.6,0,0,0,1.3.6,2,2,0,0,0,1.9-2A1.9,1.9,0,0,0,80.8,73.8Z"/><path class="cls-26" d="M79.2,77a2.2,2.2,0,1,1,0-4.4,2.2,2.2,0,0,1,0,4.4Zm0-3.9a1.7,1.7,0,0,0,0,3.4,1.7,1.7,0,0,0,0-3.4Z"/><path class="cls-27" d="M72.6,76.2a1.5,1.5,0,0,1-1.5,1.5,1.6,1.6,0,0,1-1.6-1.5,1.6,1.6,0,0,1,1.6-1.6A1.6,1.6,0,0,1,72.6,76.2Z"/><path class="cls-28" d="M71.9,74.8l-.8-.2a1.6,1.6,0,0,0-1.6,1.6,2.4,2.4,0,0,0,.2.8A2,2,0,0,1,71.9,74.8Z"/><path class="cls-29" d="M72.4,75.4a1.9,1.9,0,0,1-2.3,1.9,1.2,1.2,0,0,0,1,.4,1.5,1.5,0,0,0,1.5-1.5A1.2,1.2,0,0,0,72.4,75.4Z"/><path class="cls-30" d="M71.1,78a1.8,1.8,0,1,1,1.8-1.8A1.8,1.8,0,0,1,71.1,78Zm0-3.2a1.4,1.4,0,0,0-1.4,1.4,1.3,1.3,0,0,0,1.4,1.3,1.3,1.3,0,0,0,1.3-1.3A1.3,1.3,0,0,0,71.1,74.8Z"/><path class="cls-31" d="M65.7,77a1.5,1.5,0,0,1-1.5,1.4A1.4,1.4,0,0,1,62.8,77a1.5,1.5,0,0,1,1.4-1.5A1.5,1.5,0,0,1,65.7,77Z"/><path class="cls-32" d="M64.9,75.7l-.7-.2A1.5,1.5,0,0,0,62.8,77a1,1,0,0,0,.2.7A1.8,1.8,0,0,1,64.9,75.7Z"/><path class="cls-33" d="M65.4,76.2A1.7,1.7,0,0,1,63.3,78a1.1,1.1,0,0,0,.9.4A1.5,1.5,0,0,0,65.7,77,1.3,1.3,0,0,0,65.4,76.2Z"/><path class="cls-34" d="M64.2,78.6A1.6,1.6,0,0,1,62.6,77a1.6,1.6,0,0,1,1.6-1.7A1.7,1.7,0,0,1,65.9,77,1.7,1.7,0,0,1,64.2,78.6Zm0-2.9A1.2,1.2,0,0,0,63,77a1.2,1.2,0,0,0,1.2,1.2A1.2,1.2,0,0,0,65.5,77,1.3,1.3,0,0,0,64.2,75.7Z"/><circle class="cls-23" cx="57.7" cy="77.6" r="1.4"/><path class="cls-24" d="M58.4,76.4l-.7-.2a1.3,1.3,0,0,0-1.3,1.4c0,.2,0,.5.1.6A1.8,1.8,0,0,1,58.4,76.4Z"/><path class="cls-25" d="M58.8,76.9a1.6,1.6,0,0,1-2,1.6,1.2,1.2,0,0,0,.9.4,1.3,1.3,0,0,0,1.4-1.3A1.1,1.1,0,0,0,58.8,76.9Z"/><path class="cls-26" d="M57.7,79.1a1.5,1.5,0,0,1-1.5-1.5A1.6,1.6,0,0,1,57.7,76a1.5,1.5,0,0,1,1.5,1.6A1.5,1.5,0,0,1,57.7,79.1Zm0-2.7a1.2,1.2,0,0,0-1.2,1.2,1.2,1.2,0,0,0,1.2,1.1,1.1,1.1,0,0,0,1.2-1.1A1.2,1.2,0,0,0,57.7,76.4Z"/><path class="cls-35" d="M53.1,77.8a1.3,1.3,0,0,1-1.4,1.3,1.3,1.3,0,0,1-1.3-1.3,1.3,1.3,0,0,1,1.3-1.4A1.4,1.4,0,0,1,53.1,77.8Z"/><path class="cls-36" d="M52.4,76.6l-.7-.2a1.3,1.3,0,0,0-1.3,1.4,1.3,1.3,0,0,0,.1.6A1.8,1.8,0,0,1,52.4,76.6Z"/><path class="cls-16" d="M52.8,77.1a1.6,1.6,0,0,1-2,1.6,1.2,1.2,0,0,0,.9.4,1.3,1.3,0,0,0,1.4-1.3C53.1,77.6,53,77.2,52.8,77.1Z"/><path class="cls-8" d="M51.7,79.3a1.5,1.5,0,0,1-1.5-1.5,1.6,1.6,0,0,1,1.5-1.6,1.5,1.5,0,0,1,1.5,1.6A1.5,1.5,0,0,1,51.7,79.3Zm0-2.7a1.2,1.2,0,0,0-1.2,1.2,1.2,1.2,0,0,0,1.2,1.1,1.1,1.1,0,0,0,1.2-1.1A1.2,1.2,0,0,0,51.7,76.6Z"/><path class="cls-27" d="M88.8,76.2a1.6,1.6,0,0,1-1.6,1.5,1.5,1.5,0,0,1-1.5-1.5,1.6,1.6,0,0,1,1.5-1.6A1.6,1.6,0,0,1,88.8,76.2Z"/><path class="cls-28" d="M88,74.8l-.8-.2a1.6,1.6,0,0,0-1.5,1.6,1.2,1.2,0,0,0,.2.8A2,2,0,0,1,88,74.8Z"/><path class="cls-29" d="M88.5,75.4a1.9,1.9,0,0,1-2.3,1.9,1.4,1.4,0,0,0,1,.4,1.6,1.6,0,0,0,1.6-1.5A1.3,1.3,0,0,0,88.5,75.4Z"/><path class="cls-30" d="M87.2,78a1.8,1.8,0,0,1,0-3.6,1.8,1.8,0,0,1,0,3.6Zm0-3.2a1.3,1.3,0,0,0-1.3,1.4,1.3,1.3,0,0,0,1.3,1.3,1.3,1.3,0,0,0,1.4-1.3A1.4,1.4,0,0,0,87.2,74.8Z"/><path class="cls-31" d="M95.5,77a1.4,1.4,0,0,1-1.4,1.4A1.5,1.5,0,0,1,92.6,77a1.5,1.5,0,0,1,1.5-1.5A1.5,1.5,0,0,1,95.5,77Z"/><path class="cls-32" d="M94.8,75.7l-.7-.2A1.5,1.5,0,0,0,92.6,77a1.9,1.9,0,0,0,.2.7A1.8,1.8,0,0,1,94.8,75.7Z"/><path class="cls-33" d="M95.3,76.2A1.8,1.8,0,0,1,93.1,78a1.4,1.4,0,0,0,1,.4A1.4,1.4,0,0,0,95.5,77,1.2,1.2,0,0,0,95.3,76.2Z"/><path class="cls-34" d="M94.1,78.6A1.7,1.7,0,0,1,92.4,77a1.7,1.7,0,0,1,1.7-1.7A1.6,1.6,0,0,1,95.7,77,1.6,1.6,0,0,1,94.1,78.6Zm0-2.9A1.3,1.3,0,0,0,92.8,77a1.2,1.2,0,0,0,1.3,1.2A1.2,1.2,0,0,0,95.3,77,1.2,1.2,0,0,0,94.1,75.7Z"/><path class="cls-23" d="M101.9,77.5a1.3,1.3,0,0,1-1.3,1.4,1.4,1.4,0,0,1-1.4-1.4,1.3,1.3,0,0,1,1.4-1.3A1.3,1.3,0,0,1,101.9,77.5Z"/><path class="cls-24" d="M101.3,76.4l-.7-.2a1.3,1.3,0,0,0-1.4,1.3,1.4,1.4,0,0,0,.2.7A1.7,1.7,0,0,1,101.3,76.4Z"/><path class="cls-25" d="M101.7,76.8a1.7,1.7,0,0,1-2,1.7,1.8,1.8,0,0,0,.9.4,1.3,1.3,0,0,0,1.3-1.4A1.1,1.1,0,0,0,101.7,76.8Z"/><path class="cls-26" d="M100.6,79.1a1.5,1.5,0,0,1-1.5-1.6,1.5,1.5,0,0,1,1.5-1.5,1.5,1.5,0,0,1,1.5,1.5A1.6,1.6,0,0,1,100.6,79.1Zm0-2.7a1.1,1.1,0,0,0-1.2,1.1,1.2,1.2,0,0,0,1.2,1.2,1.2,1.2,0,0,0,1.2-1.2A1.2,1.2,0,0,0,100.6,76.4Z"/><path class="cls-35" d="M107.9,77.8a1.3,1.3,0,0,1-1.4,1.3,1.3,1.3,0,0,1-1.3-1.3,1.3,1.3,0,0,1,1.3-1.4A1.4,1.4,0,0,1,107.9,77.8Z"/><path class="cls-36" d="M107.2,76.6l-.7-.2a1.3,1.3,0,0,0-1.3,1.4,1.4,1.4,0,0,0,.2.6A1.7,1.7,0,0,1,107.2,76.6Z"/><path class="cls-16" d="M107.7,77.1a1.6,1.6,0,0,1-2,1.6,1,1,0,0,0,.8.4,1.3,1.3,0,0,0,1.4-1.3A1.4,1.4,0,0,0,107.7,77.1Z"/><path class="cls-8" d="M106.5,79.3a1.5,1.5,0,0,1-1.5-1.5,1.6,1.6,0,0,1,1.5-1.6,1.6,1.6,0,0,1,1.6,1.6A1.6,1.6,0,0,1,106.5,79.3Zm0-2.7a1.1,1.1,0,0,0-1.1,1.2,1.1,1.1,0,0,0,1.1,1.1,1.1,1.1,0,0,0,1.2-1.1A1.2,1.2,0,0,0,106.5,76.6Z"/><path class="cls-1" d="M54.8,92.8c-.3-3.2,1.2-7.3,6.4-7.2s6.2,10.7,13.3,9.9c-2.1,2.2-6.2.2-8.9-1.9S54.8,92.8,54.8,92.8Z"/><path class="cls-3" d="M71.3,95.8c-5-1.7-9.9-9.9-16.5-4.4a3.3,3.3,0,0,0,0,1.4s6.6-2.5,10.8.8,6.8,4.1,8.9,1.9h-.2A3.9,3.9,0,0,1,71.3,95.8Z"/><path class="cls-4" d="M72.1,96.8c-2.1,0-4.6-1.4-6.6-3-4.1-3.2-10.6-.8-10.7-.7h-.3v-.4a7.4,7.4,0,0,1,1.7-5.6,6.1,6.1,0,0,1,5-1.8c2.4.2,3.9,2.3,5.5,4.6s4,5.7,7.8,5.3h.7l-.5.5A3.3,3.3,0,0,1,72.1,96.8ZM60,91.6a9.2,9.2,0,0,1,5.8,1.8c2.4,1.9,5.8,3.6,7.9,2.4-3.6,0-5.6-2.9-7.4-5.5s-3-4.2-5.1-4.4a5.8,5.8,0,0,0-4.6,1.7A6.5,6.5,0,0,0,55,92.5,15.3,15.3,0,0,1,60,91.6Z"/><path class="cls-5" d="M57.1,104.5c1.2,1.2,8.3,3.2,12.4.4A6.4,6.4,0,0,0,65.7,98c-3.8-1.7-6.9-.7-8,1.9A12.3,12.3,0,0,0,57.1,104.5Z"/><path d="M57.1,104.8c1.2,1,8.3,2.7,12.4.3A5.6,5.6,0,0,0,65.7,99c-3.8-1.4-6.9-.5-8,1.8A9.2,9.2,0,0,0,57.1,104.8Z"/><path class="cls-12" d="M57.4,104.9c1.1.9,7.9,2.5,11.8.2.3-.8.1-4.2-3.6-5.6S59,99,58,101.1A7.1,7.1,0,0,0,57.4,104.9Z"/><path class="cls-37" d="M57.4,102.9a11.1,11.1,0,0,0,0,2c1.1.9,7.9,2.5,11.8.2.1-.1.1-.4.1-.8C66.5,105.7,58.6,106,57.4,102.9Z"/><path d="M64.1,106.6c-3.1,0-6.1-.9-6.9-1.5h-.1a8.7,8.7,0,0,1,.6-3.9c1.2-2.3,4.4-3,8-1.7a5.4,5.4,0,0,1,3.8,5.9h-.1A11.5,11.5,0,0,1,64.1,106.6Zm-6.5-1.9c1.3.9,7.7,2.3,11.4.3a4.9,4.9,0,0,0-3.5-5.2c-3.3-1.3-6.3-.7-7.3,1.4A7.9,7.9,0,0,0,57.6,104.7Z"/><path class="cls-6" d="M58.1,99.1a2.7,2.7,0,0,1,1.3-1.8,5.8,5.8,0,0,1,3.5-.7,3.8,3.8,0,0,1,2.4,1.3C63.1,96.6,59.6,96.8,58.1,99.1Z"/><path class="cls-6" d="M77.3,120.1a3.5,3.5,0,0,1-3-1.1l-.2-.2a4.8,4.8,0,0,0-1.2-.5c-1.2-.4-2.8-.9-3.5-2.1h0c-.6-1,.5-2.3.5-2.3a2.8,2.8,0,0,0-.1,2c.6,1.1,2.1,1.6,3.3,2a4,4,0,0,1,1.3.6l.3.2c.4.4.8.9,2.6.9s2.3-.5,2.7-.9l.3-.2a4,4,0,0,1,1.3-.6c1.1-.4,2.7-.9,3.2-2a2.3,2.3,0,0,0,0-2s1,1.3.5,2.3-2.3,1.8-3.5,2.2a4.8,4.8,0,0,0-1.2.5l-.2.2A3.9,3.9,0,0,1,77.3,120.1Z"/><path class="cls-6" d="M77.3,125.9h0a47.2,47.2,0,0,1-7.8-.5,3,3,0,0,1-2.4-1.5c1.3,1.5,8,1.5,10.2,1.5h0c2.3,0,9,0,10.3-1.5,0,0-.3,1.1-2.1,1.5A51.6,51.6,0,0,1,77.3,125.9Z"/><path class="cls-6" d="M77.3,130.7h0a11.4,11.4,0,0,1-2.7-.2,1.9,1.9,0,0,1-1.3-1.4c.7,1,2.2,1.1,4,1.1h0c1.8,0,3.4-.1,4.1-1.1a1.5,1.5,0,0,1-1.1,1.3,8.9,8.9,0,0,1-3,.3Z"/><path class="cls-1" d="M103.6,92.8c.2-3.2-1.3-7.3-6.5-7.2s-6.2,10.7-13.3,9.9c2.1,2.2,6.2.2,8.9-1.9C96.9,90.3,103.6,92.8,103.6,92.8Z"/><path class="cls-3" d="M83.8,95.5c2.1,2.2,6.2.2,8.9-1.9,4.2-3.3,10.9-.8,10.9-.8v-1C94.8,84.6,89.9,98.6,83.8,95.5Z"/><path class="cls-4" d="M86.2,96.8a3.3,3.3,0,0,1-2.6-1.1l-.5-.5h.7c3.8.4,5.8-2.5,7.8-5.3s3.1-4.4,5.5-4.6a6.1,6.1,0,0,1,5,1.8,7.4,7.4,0,0,1,1.7,5.6v.4h-.3c-.1-.1-6.6-2.5-10.7.7C90.8,95.4,88.3,96.8,86.2,96.8Zm-1.6-1c2.1,1.2,5.5-.5,7.9-2.4s9.4-1.4,10.8-.9a6.5,6.5,0,0,0-1.6-4.9,5.8,5.8,0,0,0-4.6-1.7c-2.1.2-3.6,2.2-5.1,4.4S88.2,95.8,84.6,95.8Z"/><path class="cls-5" d="M101.2,104.5c-1.2,1.2-8.3,3.2-12.4.4A6.4,6.4,0,0,1,92.6,98c3.8-1.7,6.9-.7,8,1.9A10.3,10.3,0,0,1,101.2,104.5Z"/><path d="M101.2,104.8c-1.2,1-8.3,2.7-12.4.3a5.4,5.4,0,0,1,3.8-6c3.8-1.5,6.9-.6,8,1.7A7.9,7.9,0,0,1,101.2,104.8Z"/><path class="cls-12" d="M100.9,104.9c-1.1.9-7.9,2.5-11.8.2-.3-.8-.1-4.2,3.6-5.6s6.6-.5,7.6,1.6A7.1,7.1,0,0,1,100.9,104.9Z"/><path class="cls-37" d="M89,104.1a2.5,2.5,0,0,0,.1,1c3.9,2.3,10.7.7,11.8-.2a6.3,6.3,0,0,0,0-1.5C97.5,106,91.4,105.9,89,104.1Z"/><path d="M94.2,106.6a11.5,11.5,0,0,1-5.3-1.2h-.1a5.4,5.4,0,0,1,3.8-5.9c3.6-1.3,6.8-.6,8,1.7a8.7,8.7,0,0,1,.6,3.9h-.1C100.3,105.7,97.3,106.6,94.2,106.6ZM89.3,105c3.7,2,10.1.6,11.4-.3a7.9,7.9,0,0,0-.6-3.5c-1-2.1-3.9-2.7-7.3-1.4A4.9,4.9,0,0,0,89.3,105Z"/><path class="cls-38" d="M63.5,100.5c-1,0-1.9,1.1-1.9,2.6s.9,2.6,1.9,2.6,1.9-1.2,1.9-2.6S64.5,100.5,63.5,100.5Z"/><path class="cls-39" d="M63.1,104.2a2.5,2.5,0,0,1-1.4-.8c.1,1.3.9,2.3,1.8,2.3s1.8-1.1,1.8-2.4A2.4,2.4,0,0,1,63.1,104.2Z"/><path class="cls-40" d="M63.6,106h-.1a2.7,2.7,0,0,1-2.1-2.9,3.2,3.2,0,0,1,.8-2.3,1.8,1.8,0,0,1,1.3-.6h0c1.2,0,2.1,1.3,2.1,2.9a2.5,2.5,0,0,1-2,2.9Zm-.2-5.3c-.3,0-.5.2-.8.4a3.2,3.2,0,0,0-.7,2c0,1.3.7,2.3,1.6,2.3a1.2,1.2,0,0,0,.9-.4,2.7,2.7,0,0,0,.7-1.9c0-1.3-.7-2.4-1.6-2.4Z"/><path d="M63.5,101.8c-.6,0-1.1.7-1.1,1.6s.5,1.6,1.1,1.6,1.1-.7,1.1-1.6S64.1,101.8,63.5,101.8Z"/><path class="cls-12" d="M63.4,101.8a.7.7,0,0,0-.7.6.7.7,0,0,0,.6.7.6.6,0,0,0,.7-.6A.7.7,0,0,0,63.4,101.8Z"/><path class="cls-12" d="M63,104c-.2,0-.3.1-.4.3a.3.3,0,0,0,.3.3c.2,0,.3-.1.3-.2A.5.5,0,0,0,63,104Z"/><path class="cls-38" d="M94.8,100.5c1.1,0,1.9,1.1,1.9,2.6s-.8,2.6-1.9,2.6-1.8-1.2-1.8-2.6S93.8,100.5,94.8,100.5Z"/><path class="cls-39" d="M95.3,104.2a2.6,2.6,0,0,0,1.3-.8c-.1,1.3-.8,2.3-1.8,2.3s-1.7-1.1-1.7-2.4A2.3,2.3,0,0,0,95.3,104.2Z"/><path class="cls-40" d="M93.6,105.4a3,3,0,0,1-.9-2.3c0-1.6.9-2.9,2.1-2.9h0a1.8,1.8,0,0,1,1.3.6,3.2,3.2,0,0,1,.9,2.3,2.8,2.8,0,0,1-2.1,2.9h-.1A2.3,2.3,0,0,1,93.6,105.4Zm1.2-4.7c-.9,0-1.6,1.1-1.6,2.4a2.7,2.7,0,0,0,.7,1.9,1.2,1.2,0,0,0,.9.4,1.9,1.9,0,0,0,1.6-2.3,2.7,2.7,0,0,0-.7-2,1.2,1.2,0,0,0-.8-.4Z"/><path d="M94.8,101.8c.6,0,1.1.7,1.1,1.6s-.5,1.6-1.1,1.6-1.1-.7-1.1-1.6S94.2,101.8,94.8,101.8Z"/><path class="cls-12" d="M94.9,101.8c.4,0,.7.2.7.6s-.2.7-.6.7-.6-.2-.7-.6A.9.9,0,0,1,94.9,101.8Z"/><path class="cls-12" d="M95.4,104a.3.3,0,0,1,.3.3.3.3,0,0,1-.3.3l-.3-.2C95.1,104.2,95.2,104.1,95.4,104Z"/><path class="cls-6" d="M100.2,99.1c-1.4-2.3-4.9-2.5-7.2-1.2a4.1,4.1,0,0,1,2.5-1.3,6.6,6.6,0,0,1,3.9.9A1.8,1.8,0,0,1,100.2,99.1Z"/><path class="cls-1" d="M95.3,124.4c-1.9-4.8-5.5-5.2-8.1-4s-7.9,1.2-9.9,1.2-7.3.1-9.8-1.2-6.2-.8-8.1,4-2.5,5-6,3.9a8.6,8.6,0,0,0,.3,1.3c2,6.6,16.8,13,23.6,13.1S99,136.2,101,129.6a8.6,8.6,0,0,0,.3-1.3C97.8,129.4,96.7,128,95.3,124.4Zm-8.5,10.8c-4.8,2.1-8.1-3.7-9.5-4.2s-4.6,6.3-9.4,4.2-4.8-8.3-2.9-10.6,7.4-.5,12.3-1.1,10.5-1.1,12.3,1.1S92.2,132.9,86.8,135.2Z"/><path class="cls-3" d="M95.3,124.4c-1.6-3.9-4.2-4.9-6.6-4.5,5.4,1.9,4.5,5.5,6.3,8.7a10.3,10.3,0,0,0,2.9,2.1c-5.8,7.9-15.6,11-25,8.9-7.4-1.4-17.1-5.7-19.5-11.3h0a8.6,8.6,0,0,0,.3,1.3c2,6.6,16.8,13,23.6,13.1S99,136.2,101,129.6a8.6,8.6,0,0,0,.3-1.3C97.8,129.4,96.7,128,95.3,124.4Z"/><path class="cls-4" d="M77.3,143c-6.5-.2-21.8-6.4-23.9-13.3a7.8,7.8,0,0,1-.3-1.4v-.4h.4c3.2,1,4.1,0,5.6-3.7a7.6,7.6,0,0,1,4-4.4,5.9,5.9,0,0,1,4.5.3c2.4,1.2,7.3,1.2,9.5,1.2h.5c2.1,0,7.1,0,9.5-1.2a5.9,5.9,0,0,1,4.5-.3,7.5,7.5,0,0,1,3.9,4.4C97,128,98,129,101.2,128h.4v.4a4.1,4.1,0,0,1-.2,1.4C99.1,136.6,83.9,142.8,77.3,143ZM53.7,128.7a6.4,6.4,0,0,0,.2.9c2,6.2,16.3,12.7,23.4,12.9s21.5-6.7,23.5-12.9a5.1,5.1,0,0,1,.2-.9c-3.3.9-4.5-.6-6-4.2h0a6.5,6.5,0,0,0-3.6-4.1,5,5,0,0,0-4.1.3c-2.5,1.2-7.5,1.2-9.7,1.2h-.5c-2.2,0-7.2,0-9.7-1.2a5.2,5.2,0,0,0-4.2-.3,7.1,7.1,0,0,0-3.6,4.1C58.2,128.1,57,129.6,53.7,128.7Zm31.1,7.2c-2.7,0-4.8-2.1-6.2-3.4a6.4,6.4,0,0,0-1.3-1.2l-1.2,1.2c-1.8,1.7-4.6,4.5-8.3,3a7.2,7.2,0,0,1-4.3-4.9,7.7,7.7,0,0,1,1.3-6.2c1.3-1.4,3.9-1.3,6.9-1.1a34.9,34.9,0,0,0,5.6,0h.1a34.9,34.9,0,0,0,5.6,0c3-.2,5.6-.3,6.8,1.1a7.4,7.4,0,0,1,1.3,6.2,6.8,6.8,0,0,1-4.2,4.9h0A5.6,5.6,0,0,1,84.8,135.9ZM69,123.7c-1.7,0-3.1.2-3.8,1a7.1,7.1,0,0,0-1.1,5.8A6.3,6.3,0,0,0,68,135c3.4,1.4,6-1.2,7.7-2.9a4,4,0,0,1,1.5-1.3h.2a4.9,4.9,0,0,1,1.6,1.3c1.7,1.7,4.3,4.3,7.7,2.9a6.5,6.5,0,0,0,3.9-4.5,6.7,6.7,0,0,0-1.2-5.8c-1-1.2-3.5-1.1-6.4-.9a36.2,36.2,0,0,1-5.7,0,34.9,34.9,0,0,1-5.6,0Z"/></g></svg>