<svg xmlns="http://www.w3.org/2000/svg" viewBox="0 0 219.8 108"><defs><style>.cls-1{fill:#d2e5f9;}.cls-2{fill:#fff;}.cls-3{fill:#adcff7;}</style></defs><g id="Layer_7" data-name="Layer 7"><path class="cls-1" d="M27.2,82.2c0,2.2-4.2,4-9.3,4s-9.4-1.8-9.4-4,4.2-4,9.4-4S27.2,80,27.2,82.2Z"/><ellipse class="cls-2" cx="112.9" cy="35.4" rx="27.2" ry="24.1"/><path class="cls-2" d="M155.2,42.9a16.6,16.6,0,1,1-16.6-16.6A16.6,16.6,0,0,1,155.2,42.9Z"/><ellipse class="cls-2" cx="140.2" cy="62.6" rx="25.9" ry="22.1"/><path class="cls-2" d="M186,72.1c0,7-6.9,12.7-15.4,12.7s-15.4-5.7-15.4-12.7,6.9-12.6,15.4-12.6S186,65.1,186,72.1Z"/><path class="cls-2" d="M196.9,74.1c0,3.1-4.6,5.7-10.2,5.7s-10.2-2.6-10.2-5.7,4.5-5.7,10.2-5.7S196.9,70.9,196.9,74.1Z"/><path class="cls-2" d="M107.9,50.4c0,7.9-9,14.4-20.2,14.4S67.6,58.3,67.6,50.4,76.6,36,87.7,36,107.9,42.5,107.9,50.4Z"/><circle class="cls-2" cx="105.6" cy="70.3" r="19.9"/><path class="cls-2" d="M100.7,72.1c0,7-10,12.7-22.3,12.7S56.2,79.1,56.2,72.1s10-12.6,22.2-12.6S100.7,65.1,100.7,72.1Z"/><path class="cls-2" d="M67.6,75.3c0,5.2-5.7,9.5-12.8,9.5s-12.7-4.3-12.7-9.5,5.7-9.5,12.7-9.5S67.6,70.1,67.6,75.3Z"/><path class="cls-2" d="M196.9,74.1c0,3.1-4.6,5.7-10.2,5.7a18.7,18.7,0,0,1-3.5-.4,17.3,17.3,0,0,1-25.6-.5A26.8,26.8,0,0,1,146.7,84a28.2,28.2,0,0,1-6.5.8,27.7,27.7,0,0,1-16.8-5.4,19.9,19.9,0,0,1-17.8,10.9,20.1,20.1,0,0,1-15.5-7.4,35.4,35.4,0,0,1-11.7,1.9,34.7,34.7,0,0,1-14.3-3,15.2,15.2,0,0,1-9.3,3A15,15,0,0,1,45.9,82h0a8.5,8.5,0,0,1-3.8-6.7,7.8,7.8,0,0,1,2.6-5.7,14.6,14.6,0,0,1,10.1-3.8,16,16,0,0,1,3.9.5c2.9-3.1,7.9-5.4,13.9-6.4-3.1-2.5-5-5.8-5-9.5,0-7.4,7.9-13.6,18.1-14.3v-.7c0-13.4,12.2-24.2,27.2-24.2,11.5,0,21.2,6.3,25.3,15.1h.4a16.6,16.6,0,0,1,16.6,16.6,9.7,9.7,0,0,1-.1,1.7,22,22,0,0,1,10.8,15.5,17.3,17.3,0,0,1,4.7-.6c7,0,12.8,3.8,14.7,9h1.4C192.3,68.4,196.9,70.9,196.9,74.1Z"/><path class="cls-3" d="M189.8,78h-1.7c-2.3-4.1-9.6-7.1-18.2-7.1-6.6,0-12.4,1.7-15.8,4.4a24.7,24.7,0,0,0-4.2-2.7c0-.6.1-1.3.1-1.9,0-10.5-10.8-19-24-19h-.6c-5.9-10-20-17.2-36.5-17.2l-4.3.2V35c-14.7.8-26.2,7.8-26.2,16.3,0,4.2,2.7,8,7.3,10.9-8.7,1-16,3.7-20.1,7.2a33.3,33.3,0,0,0-5.6-.5c-6,0-11.2,1.7-14.6,4.3a10,10,0,0,0-2.1,6.1,11.1,11.1,0,0,0,3.7,8h0a25.5,25.5,0,0,0,13,3.2,25.8,25.8,0,0,0,13.4-3.4,60.2,60.2,0,0,0,20.7,3.4A62.4,62.4,0,0,0,91,88.3c5.3,5.2,13.4,8.5,22.4,8.5,11.2,0,21.5-6.2,24.5-11.7,6.3,3.6,16,5.4,24.8,5.2a40.9,40.9,0,0,0,7.2.7c6.4,0,12.1-1.7,15.6-4.2l4.3.2c7,0,12.6-2,12.6-4.5S196.8,78,189.8,78Z"/><path class="cls-1" d="M192.8,71.4a46.8,46.8,0,0,0-8.7.8c-.9-1.3-3-2.5-5.8-3.4v-.4c0-3.6-8.3-6.5-18.5-6.5h-.2a2.4,2.4,0,0,0,.2-.8c0-1.5-1.4-2.8-3.6-3.9a2.9,2.9,0,0,0,.8-1.9c0-3.6-8.3-6.5-18.5-6.5a55.8,55.8,0,0,0-7.3.5.7.7,0,0,0,.1-.5c0-3.1-6.1-5.6-14.3-6.3a8.6,8.6,0,0,0,.8-3.6,8.8,8.8,0,0,0-16.2-4.8c-2-3.7-6.4-6.2-11.6-6.2-6.9,0-12.6,4.7-12.6,10.5a10.4,10.4,0,0,0,.7,3.5c-6.4,1-11,3.3-11,5.9s1.5,3,4,4.1c-3.7,1.2-6.1,2.9-6.1,4.8a2.8,2.8,0,0,0,.7,1.9A28.4,28.4,0,0,0,56.5,61a11.1,11.1,0,0,0-5.6-1.4c-4.5,0-8.3,2.5-8.7,5.8a12.9,12.9,0,0,0-3.5-.5c-4.8,0-8.8,2.9-8.8,6.5s4,6.5,8.8,6.5,7.2-1.9,8.4-4.5c1.5,2.1,4.4,3.4,7.7,3.4,4.8,0,8.7-2.7,8.8-6.2a51.3,51.3,0,0,0,8.1.6c6.5,0,12.2-1.2,15.5-3l.5.5a2.4,2.4,0,0,0-.5,1.6c0,3.6,8.2,6.5,18.4,6.5s18.5-2.9,18.5-6.5A3.3,3.3,0,0,0,123,68a45.4,45.4,0,0,0,9.5,1,48.2,48.2,0,0,0,8.9-.8v.2c0,2,2.5,3.7,6.4,4.9v.5c0,3.6,8.2,6.5,18.4,6.5a46,46,0,0,0,8.7-.8c2,2.8,9.3,4.9,17.9,4.9,10.2,0,18.5-2.9,18.5-6.5S203,71.4,192.8,71.4Z"/><path class="cls-2" d="M111.8,59.5s9.3.7,8.8,6.3C120.6,65.8,119.8,60.9,111.8,59.5Z"/><path class="cls-2" d="M110.7,42.9c-.8-.3,9.7-.3,13.3,7.8s-4.4,10.4-4.4,10.4S132.1,49.4,110.7,42.9Z"/><path class="cls-2" d="M71.2,51.9s15.7-1.4,19.1,4.8,0,8.1,0,8.1a11.8,11.8,0,0,1,7.3,1.7c3.3,2.3.9,4.9.9,4.9s1.7-5.9-8.9-5.6C89.6,65.8,95.9,52,71.2,51.9Z"/></g></svg>