<svg xmlns="http://www.w3.org/2000/svg" viewBox="0 0 208.4 121.4"><defs><style>.cls-1{fill:#adcff7;}.cls-2,.cls-4{fill:#d2e5f9;}.cls-3{fill:#fff;}.cls-4{opacity:0.29;}</style></defs><g id="Layer_5" data-name="Layer 5"><ellipse class="cls-1" cx="77.9" cy="62.8" rx="9.8" ry="3.8"/><path class="cls-1" d="M115.7,67.9c0,3.2-6.9,5.9-15.5,5.9s-15.5-2.7-15.5-5.9,7-5.9,15.5-5.9S115.7,64.6,115.7,67.9Z"/><path class="cls-1" d="M151.9,63.8c0,4.7-16,8.5-35.7,8.5s-35.6-3.8-35.6-8.5,16-8.5,35.6-8.5S151.9,59.1,151.9,63.8Z"/><ellipse class="cls-1" cx="124.4" cy="58.1" rx="25.1" ry="5.7"/><path class="cls-1" d="M168.3,61.8c0,2.1-5.3,3.7-11.8,3.7s-11.9-1.6-11.9-3.7,5.3-3.7,11.9-3.7S168.3,59.8,168.3,61.8Z"/><ellipse class="cls-1" cx="157.9" cy="68.3" rx="19" ry="5.5"/><path class="cls-2" d="M202.1,77.1c0-2.1-14.5-3.8-32.5-3.8h-8.3c1.6-.8,2.5-1.9,2.5-3,0-2.7-5.5-4.9-12.4-4.9s-11.7,1.9-12.3,4.4H139a39.1,39.1,0,0,0-7.9.8,12.3,12.3,0,0,0-10.4-5.2c-5,0-9.3,2.7-11,6.5a24.4,24.4,0,0,0-4.5-1.2c-.9-2.9-10.4-5.3-21.8-5.3s-20.1,2.2-21.7,5a38.4,38.4,0,0,0-7.3-.6c-6.2,0-11.3,1.1-11.3,2.4s5.1,2.5,11.3,2.5a34.7,34.7,0,0,0,9.1-1,30,30,0,0,0,9.4,2.6,3.2,3.2,0,0,0-.4,1.6c0,4.5,10,8.2,22.4,8.2h3.4c0,4.7,8.5,8.6,19,8.6s16.8-3,18.5-6.9H139c5.8,0,11-1.3,14.4-3.3a31,31,0,0,0,10.4,1.5c7.2,0,13.1-1.6,13.1-3.6s-.6-1.2-1.5-1.7C190.6,80.6,202.1,79,202.1,77.1Z"/><path class="cls-1" d="M76.3,77.8c0,1.7-3.9,3.1-8.6,3.1s-8.5-1.4-8.5-3.1,3.8-3.1,8.5-3.1S76.3,76.1,76.3,77.8Z"/><path class="cls-1" d="M75.1,75.1c0,1.5-6.2,2.7-13.8,2.7s-13.9-1.2-13.9-2.7,6.2-2.8,13.9-2.8S75.1,73.6,75.1,75.1Z"/><path class="cls-1" d="M114.8,85.3a45.7,45.7,0,0,0-6.7.5c-.3-2.4-7.7-4.4-16.8-4.4a59.8,59.8,0,0,0-10.3.9,3.5,3.5,0,0,0,.9-2.3c0-2.7-3.2-5-7.8-6.2a2,2,0,0,0,.4-.8c0-1.6-4.1-2.9-9.3-3-2.3-2-10.1-3.5-19.4-3.5a75.3,75.3,0,0,0-12.5,1c-1.4-1.1-4.7-2-8.6-2s-9.4,1.5-9.4,3.4,4.3,3.4,9.4,3.4H25a2.3,2.3,0,0,0-.3,1.1,3.6,3.6,0,0,0,1.9,2.8c-.6.2-1,.4-1,.7s4.9,1.8,10.9,1.8a43,43,0,0,0,6.7-.4l2.6.4v.4c0,2.2,2.5,4,5.7,4a7.1,7.1,0,0,0,2.1-.3,11.8,11.8,0,0,0,3.7,2.4,4.4,4.4,0,0,0,4.6,3.4A4.8,4.8,0,0,0,65.7,87h1.4a28.3,28.3,0,0,0,7.4-.9c.2,2.5,7.6,4.4,16.8,4.4a66.4,66.4,0,0,0,8.1-.5,1.1,1.1,0,0,0-.1.5c0,2.9,6.9,5.3,15.5,5.3s15.4-2.4,15.4-5.3S123.3,85.3,114.8,85.3Z"/><path class="cls-3" d="M155.5,55.6l-3.8.2a4.7,4.7,0,0,0,2-3.7c0-3.7-5.3-6.8-11.9-6.8a18.8,18.8,0,0,0-6.9,1.3c-1.1-5.4-6.7-9.6-13.6-9.6a15.8,15.8,0,0,0-5.8,1.1c-1.5-7.2-6.7-12.5-12.9-12.5S91.7,30.5,90,37.3a4.5,4.5,0,0,0-1.6-.3,6.8,6.8,0,0,0-4.3,1.7h-.8c-5.7,0-10.5,3.4-11.7,7.9a24,24,0,0,0-9.5-1.9c-9.3,0-17,4.8-18.8,11.1L41,55.6c-5,0-9.2,2.7-10.8,6.4a25.1,25.1,0,0,0-10.4-1.9c-6.6,0-12,1.8-13.3,4.3a3.6,3.6,0,0,0-.2,1c0,3,6,5.3,13.5,5.3,4.3,0,8.1-.7,10.6-2,1.7,3.5,5.8,6,10.6,6a11.8,11.8,0,0,0,9.7-4.6,24.3,24.3,0,0,0,11.4,2.7c8,0,14.9-3.6,17.8-8.7a44.1,44.1,0,0,0,5.2.3c9.5,0,17.1-2.5,17.1-5.5h.4a11.2,11.2,0,0,0,7.8-3.2,15.6,15.6,0,0,0,21.6.3c2.1,1.8,5.7,3,9.8,3h1.8a1.1,1.1,0,0,0-.3.8c0,2.3,5.4,4.1,12.2,4.1a29.9,29.9,0,0,0,7.8-.9c2.7-.8,4.4-1.9,4.4-3.2S162.2,55.6,155.5,55.6ZM91.2,51.7h0Z"/><path class="cls-4" d="M163.3,62.9a29.9,29.9,0,0,1-7.8.9c-6.8,0-12.2-1.8-12.2-4.1a1.1,1.1,0,0,1,.3-.8h-1.8c-4.1,0-7.7-1.2-9.8-3a15.6,15.6,0,0,1-21.6-.3,11.2,11.2,0,0,1-7.8,3.2h-.4c0,3-7.6,5.5-17.1,5.5a44.1,44.1,0,0,1-5.2-.3c-2.9,5.1-9.8,8.7-17.8,8.7a24.3,24.3,0,0,1-11.4-2.7A11.8,11.8,0,0,1,41,74.7c-4.8,0-8.9-2.5-10.6-6-2.5,1.3-6.3,2-10.6,2-7.5,0-13.5-2.3-13.5-5.3a3.6,3.6,0,0,1,.2-1,30.8,30.8,0,0,0,24.9,2.1S35.3,72,44,68.3s8.9-10.2,8.9-10.2.4,9.9,11.2,8.4,13.8-9,13.8-9,12.3,3.5,18-.4,6.7-6.1,6.7-6.1,3.2,3.6,9.8,1.4,8.6,5.9,17.1.7c0,0,3.7,3.8,9.4.4s.9-.4.9-.4,11.2,13,22.3,9.8C162.9,62.7,163.2,62.7,163.3,62.9Z"/><path class="cls-1" d="M115.5,38.1s9.2,10.4-5.1,17.5C110.4,55.6,121.4,50,115.5,38.1Z"/><path class="cls-1" d="M81.6,51s4.7,3,3.1,7.9-4.8,5.2-4.8,5.2S88.6,58,81.6,51Z"/><path class="cls-1" d="M71.6,46.6s8.9-3.9,10,4.4C81.6,51,78.2,44.4,71.6,46.6Z"/><path class="cls-1" d="M45.4,57.5s12.4,1,5.3,12.6C50.7,70.1,55.7,60.2,45.4,57.5Z"/></g></svg>