<svg xmlns="http://www.w3.org/2000/svg" viewBox="0 0 250.6 95.8"><defs><style>.cls-1{fill:#adcff7;}.cls-2{fill:#fff;}.cls-3,.cls-4{fill:#d2e5f9;}.cls-3{opacity:0.29;}</style></defs><g id="Layer_6" data-name="Layer 6"><path class="cls-1" d="M177.1,69c0-3.4-2.2-6.2-4.8-6.2s-4.9,2.8-4.9,6.2a7.7,7.7,0,0,0,.2,1.5A13.6,13.6,0,0,0,164,70c-4,0-7.3,1.7-8.6,4.2a23.1,23.1,0,0,0-6.1-.8c-6.3,0-11.4,2.3-11.4,5.2s5.1,5.2,11.4,5.2a19,19,0,0,0,9.5-2.2,12.4,12.4,0,0,0,5.2,1.1c5.1,0,9.3-2.8,9.3-6.3a5.1,5.1,0,0,0-.2-1.3C175.4,74.6,177.1,72,177.1,69Z"/><path class="cls-1" d="M168.7,55.6c-3.9,0-7.4,1.1-9.2,2.6s-5.5,1.1-6.6,2.7h-1.5a18.3,18.3,0,0,0-4.9.6A38.9,38.9,0,0,0,132.8,60a48.5,48.5,0,0,0-5.8.7c-2.8-3-8.1-5-14.2-5a4.8,4.8,0,0,0,.8-2.8c0-3.6-4.1-6.7-10-7.9a2.7,2.7,0,0,0,.3-1.2c0-2.9-4.8-5.2-10.6-5.2s-10.5,2.3-10.5,5.2,1.2,2.9,3.3,3.9c-2.1,1.4-3.3,3.3-3.3,5.2,0,4.6,6.5,8.3,14.7,8.5a7,7,0,0,0-1.4,4.1c0,5.4,7.4,9.8,16.4,9.8h1.3c3.6,3.2,11.3,5.2,20.1,4.7,11.3-.6,20.3-5.1,21-10.3a10.5,10.5,0,0,0,5.2-2.1,8.2,8.2,0,0,0,5.8-2.3l2.8.2c5.8,0,10.6-2.2,10.6-4.9S174.5,55.6,168.7,55.6Z"/><path class="cls-1" d="M43.7,71.8a120,120,0,0,0-15.6.9c.9-.3,1.4-.6,1.4-1s-3.3-1.9-7.4-2a6.1,6.1,0,0,0,1.8-1,10.6,10.6,0,0,0,3.7-.6,14.2,14.2,0,0,0,4.2.7c5.7,0,10.2-3.2,10.2-7a5.9,5.9,0,0,0-2.1-4.3,2.9,2.9,0,0,0,.2-.9c0-2.5-3.9-4.6-9.1-5.1a2.5,2.5,0,0,0,.2-.7c0-2.5-4.4-4.6-9.8-4.6a16.1,16.1,0,0,0-7.6,1.7c-3,.1-5.3.8-5.3,1.7s1.3,1.2,3.1,1.5,2.7,3.2,6,3.8a2.9,2.9,0,0,0-.6,1.7c0,1.7,1.9,3.2,4.7,4.2a1.7,1.7,0,0,1-.1.7c-3.4.3-6.1,1.5-6.6,3.1-4.5.1-8,1.4-8,3s3.2,2.8,7.5,3c-.8.3-1.3.7-1.3,1.1s3.7,1.9,8.2,1.9a29,29,0,0,0,4.3-.3c-.8.3-1.2.5-1.2.8s8.6,2.4,19.2,2.4,19.2-1.1,19.2-2.4S54.3,71.8,43.7,71.8Z"/><path class="cls-2" d="M140.7,76.9a9.6,9.6,0,0,0-4.9-1.1l-2.3.2v-.2c0-2.4-2.5-4.4-5.9-5a4.9,4.9,0,0,0,0-1.7c-.6-4.8-7.4-8-15.8-7.6a4,4,0,0,0,.3-1.5,3.6,3.6,0,0,0-1.8-3.2,2.9,2.9,0,0,0-1.3-.5v-.7a12.1,12.1,0,0,0-.1-1.9,11.3,11.3,0,0,0-7.7-9.1c-2-3.5-4.9-5.8-8.1-6.3a16.4,16.4,0,0,0,.2-2.3c0-5.1-3.1-9.2-6.9-9.2H85.2a16.8,16.8,0,0,0,1.2-6.3c0-5.5-2.4-10-5.4-10s-3.9,2.2-4.8,5.5a9.5,9.5,0,0,0-5.1-1.5C62.2,14.6,55,26.8,55,41.9v.2l-4.7-.2a72.9,72.9,0,0,0-18.8,2.2c-.8-1.3-2.8-2.2-5.1-2.2s-5.3,1.5-5.3,3.4a1.5,1.5,0,0,0,.2.9H18.6c-3.9,0-7,1.1-7,2.5s3.1,2.5,7,2.5l2.5-.2v.2c0,3.6,6.5,6.6,15.9,8.2a6.2,6.2,0,0,0-1.2,3.5c0,.3.1.7.1,1-3.5.2-6.2,1.6-6.3,3.3-7.4.2-13.4,1-15.4,2.1a7.4,7.4,0,0,0-3.9-.9c-2.3,0-4.2.8-4.2,1.7s1.9,1.6,4.2,1.6a7.8,7.8,0,0,0,3.6-.7c1.6,1,6.4,1.8,12.5,2.1-.4.2-.7.5-.7.7s2.9,1.6,7.1,1.9l4.4.2c5.9,0,10.7-.8,11.5-1.8a6.4,6.4,0,0,0,2,.3,4.5,4.5,0,0,0-.4,2,4.4,4.4,0,0,0,4.4,4.6,3.9,3.9,0,0,0,2.3-.7,27.4,27.4,0,0,0,15.8,4.9,26.6,26.6,0,0,0,20-8.6c2.5,4.1,9.9,6.2,18.3,5l2.2-.4c.8,2.3,3.4,3.9,6.4,3.9s5.8-1.8,6.5-4.1a10.8,10.8,0,0,0,4.2-1,6.7,6.7,0,0,0,3.8,1.4l1.6.2c3.4,0,6.1-1.3,6.1-2.9A2.4,2.4,0,0,0,140.7,76.9ZM45.1,72.2h0Z"/><path class="cls-2" d="M230.8,65.9c0,2.3-4.8,4.2-10.8,4.2h-2.9c-.7,3.3-4.7,5.8-9.4,5.8a11.2,11.2,0,0,1-6.4-1.9,26.4,26.4,0,0,1-8.1,1.2,33.3,33.3,0,0,1-5.6-.5,6.1,6.1,0,0,1-5.5,3.1c-3.2,0-5.9-2.3-5.9-5.2v-.2a21.2,21.2,0,0,1-4.7.7.9.9,0,0,1,.1.5c0,2.4-4.9,4.5-11.5,5-1.1,1-4.7,1.8-8.9,1.8s-9.3-1.2-9.3-2.6.7-1.2,2-1.6c-1.3-.8-2-1.7-2-2.6,0-2.8,6.4-5.1,14.4-5.2a7.1,7.1,0,0,1-.3-2.1c0-2.5,1.2-4.5,2.8-4.5s2.2,1.1,2.6,2.8a4.4,4.4,0,0,1,1.6-.6,4.3,4.3,0,0,1-.2-1.1c0-2.5,2-4.5,4.7-5.2a1.3,1.3,0,0,1,.1-.6l-2.3-.8H164c-5.1,0-9.3-1.5-9.3-3.3a1.8,1.8,0,0,1,.4-1h-.4a22.9,22.9,0,0,1-5.5-.7,5.1,5.1,0,0,1-2.7.7c-1.9,0-3.5-.8-3.5-1.7s.9-1.4,2.2-1.6h0c0-1.9,4.3-3.4,9.5-3.4a23.4,23.4,0,0,1,5.6.6c1.5-3.3,5.5-5.6,10.3-5.6a12.4,12.4,0,0,1,7.5,2.4c1-3.9,3.9-6.7,7.3-6.7s7,3.5,7.7,8.1h.1a23.4,23.4,0,0,1,3.8.3,3.1,3.1,0,0,1,1.3-.3,4.1,4.1,0,0,1,2.8,1.1h.2c.6-2,1.7-3.3,2.9-3.3s3,2.7,3.4,6.2a17.1,17.1,0,0,1,5.1,4.9h.8a7.9,7.9,0,0,1,7.8,8.1c0,.2-.1.4-.1.6C226.6,61.9,230.8,63.7,230.8,65.9Z"/><path class="cls-3" d="M141.9,78.6c0,1.6-2.7,2.9-6.1,2.9a8.5,8.5,0,0,1-5.4-1.6,10.8,10.8,0,0,1-4.2,1c-.7,2.3-3.3,4.1-6.5,4.1s-5.6-1.6-6.4-3.9l-2.2.4c-8.4,1.2-15.8-.9-18.3-5a26.6,26.6,0,0,1-20,8.6A27.4,27.4,0,0,1,57,80.2a3.9,3.9,0,0,1-2.3.7,4.4,4.4,0,0,1-4.4-4.6,4.5,4.5,0,0,1,.4-2,6.4,6.4,0,0,1-2-.3c-.8,1-5.6,1.8-11.5,1.8s-11.5-.9-11.5-2.1.3-.5.7-.7c-6.1-.3-10.9-1.1-12.5-2.1a11.9,11.9,0,0,1,9.9-.5c5.8,2.1,5.8,3.6,5.8,3.6s13-4.3,19.8-.6a5.2,5.2,0,0,1-1.3-6.6c2.3-5.2,9.1-3.7,9.1-3.7s-4.3-8.7,0-11.6,9.5,2.9,9.5,2.9a10.3,10.3,0,0,1,1.5-10.9c4.4-5.2,11.9-3.2,15,1.7s.2,9.9.1,10.1,13.9-5.7,16.4,4c1.3,5.4.3,7.7-.9,8.7,3.4-1,10.3-2.3,13.9,2s2.6,6.6,1.8,7.2a12.7,12.7,0,0,1,8.5-1.5c5.2,1.1,3.3,4.1,3.3,4.1s10.7-3.4,14.4-2.9A2.4,2.4,0,0,1,141.9,78.6Z"/><path class="cls-3" d="M134.2,81.3a6.7,6.7,0,0,1-3.8-1.4,10.8,10.8,0,0,1-4.2,1c-.7,2.3-3.3,4.1-6.5,4.1s-5.6-1.6-6.4-3.9l-2.2.4c-8.4,1.2-15.8-.9-18.3-5a26.6,26.6,0,0,1-20,8.6A27.4,27.4,0,0,1,57,80.2a3.9,3.9,0,0,1-2.3.7,4.4,4.4,0,0,1-4.4-4.6,4.5,4.5,0,0,1,.4-2,6.4,6.4,0,0,1-2-.3c-.8,1-5.6,1.8-11.5,1.8l-4.4-.2a7.8,7.8,0,0,1,.3-6.8c3.6-7.8,13.7-5.5,13.7-5.5s-6.4-13.1,0-17.5,14,4.1,14.3,4.4a15.5,15.5,0,0,1,2.2-16.3C70,26,81.1,29.1,85.9,36.3s.2,14.9,0,15.3,16.8-6.9,23,2.1a12.6,12.6,0,0,1,1.4,3.1l.3.8c2,8.1.5,11.5-1.3,13,5.1-1.5,15.4-3.4,20.9,3C133.2,77.1,134.1,79.6,134.2,81.3Z"/><path class="cls-3" d="M217.1,70c-.7,3.3-4.7,5.8-9.4,5.8a11.2,11.2,0,0,1-6.4-1.9,26.4,26.4,0,0,1-8.1,1.2,33.3,33.3,0,0,1-5.6-.5,6.1,6.1,0,0,1-5.5,3.1c-3.2,0-5.9-2.3-5.9-5.2v-.2a21.2,21.2,0,0,1-4.7.7.9.9,0,0,1,.1.5c0,2.4-4.9,4.5-11.5,5-1.1,1-4.7,1.8-8.9,1.8s-9.3-1.2-9.3-2.6,8.4,4.4,13.6-1.2c0,0,4,3.2,9.9-3.9,0,0-4.4-3.8,3.8-7.1,5.9-2.5,7.2.7,7.5,2.6.2-1.7,1.4-4.5,7.5-4.9A13,13,0,0,1,196.5,70s1.8-1.8,8-2.9S214.3,65.5,217.1,70Z"/><path class="cls-4" d="M32.4,47.9s2-2.9,9.5-1.7,8.5,11,8.5,11S46.4,43.9,32.4,47.9Z"/><path class="cls-4" d="M42.2,58.2s6.5-2,8.6,1.1,1.7,3.9,1.7,3.9A9.3,9.3,0,0,0,42.2,58.2Z"/><path class="cls-4" d="M93.5,70.9s.8,6-9.4,9.2S70,82.6,70,82.6,88.4,81.7,93.5,70.9Z"/><path class="cls-1" d="M200.5,47.9s3.7-1.4,6.5,2.6-9.3,13-12.8,12.3C194.2,62.8,216.1,52.1,200.5,47.9Z"/><path class="cls-1" d="M209.9,55.2s2.9.4,4,4.1-10.8,3.9-10.8,3.9S217.8,60.3,209.9,55.2Z"/><path class="cls-2" d="M162.8,51.2c0,.6-10.6,1.2-23.8,1.2s-23.8-.6-23.8-1.2S125.9,50,139,50,162.8,50.5,162.8,51.2Z"/><ellipse class="cls-2" cx="151.2" cy="48.1" rx="19.8" ry="1.9"/><ellipse class="cls-2" cx="163.3" cy="44.5" rx="10.9" ry="1.7"/><path class="cls-2" d="M60.3,34.7c0,.7-8.4,1.3-18.9,1.3s-18.9-.6-18.9-1.3,8.5-1.3,18.9-1.3S60.3,33.9,60.3,34.7Z"/><path class="cls-2" d="M64.8,31.7c0,.9-7.2,1.7-16.2,1.7s-16.2-.8-16.2-1.7S39.7,30,48.6,30,64.8,30.8,64.8,31.7Z"/><path class="cls-2" d="M61.9,28.5c0,1.2-3.7,2.2-8.2,2.2s-8.3-1-8.3-2.2,3.7-2.2,8.3-2.2S61.9,27.3,61.9,28.5Z"/><ellipse class="cls-2" cx="232.8" cy="66.1" rx="11.8" ry="0.6"/><path class="cls-2" d="M239.6,68.1c0,.3-4.4.5-9.9.5s-10-.2-10-.5,4.5-.4,10-.4S239.6,67.9,239.6,68.1Z"/><path class="cls-2" d="M232.8,67.2c0,.3-2.8.5-6.3.5s-6.2-.2-6.2-.5,2.8-.5,6.2-.5S232.8,66.9,232.8,67.2Z"/><ellipse class="cls-2" cx="225.5" cy="69.7" rx="5.7" ry="0.7"/></g></svg>