<svg xmlns="http://www.w3.org/2000/svg" viewBox="0 0 275.8 132"><defs><style>.cls-1{fill:#fff;}.cls-2,.cls-3{fill:#d2e5f9;}.cls-3{opacity:0.29;}</style></defs><g id="Layer_5" data-name="Layer 5"><path class="cls-1" d="M162.1,61c0,4.9-4.7,8.9-10.4,8.9s-10.5-4-10.5-8.9,4.7-8.9,10.5-8.9S162.1,56,162.1,61Z"/><circle class="cls-1" cx="132.5" cy="60.7" r="16"/><path class="cls-2" d="M118.2,33.4c-9,0-16.2,5.2-16.2,11.6a9.8,9.8,0,0,0,3.4,7.1c-8.7.2-15.6,5.3-15.6,11.5S97.1,75.1,106,75.1s16.2-5.1,16.2-11.5a9.5,9.5,0,0,0-3.4-7.1c8.7-.2,15.6-5.3,15.6-11.5S127.1,33.4,118.2,33.4Z"/><path class="cls-2" d="M201,52.1c-8.9,0-16.2,5.1-16.2,11.5s7.3,11.5,16.2,11.5,16.2-5.1,16.2-11.5S210,52.1,201,52.1Z"/><path class="cls-2" d="M63.9,55.9c-8.9,0-16.2,6.2-16.2,13.8A11.9,11.9,0,0,0,50.2,77H48.5c-8.9,0-16.2,6.2-16.2,13.8,0,.5.1,1.1.1,1.7-4.8.4-8.5,3.9-8.5,8.1s4.3,8.1,9.6,8.1a9.8,9.8,0,0,0,9-5.2,19.3,19.3,0,0,0,6,1c9,0,16.2-6.2,16.2-13.7a12.2,12.2,0,0,0-2.5-7.4h1.7c9,0,16.2-6.2,16.2-13.7S72.9,55.9,63.9,55.9Z"/><path class="cls-1" d="M263.2,106.4a12.7,12.7,0,0,0-2.8.3v-.3c0-4.1-4.6-7.5-10.2-7.5a15.5,15.5,0,0,0-3.1.3c-2.3-2.5-6.3-4.3-11.2-5.1a9.7,9.7,0,0,0,4.1-7.6c0-6-6.4-10.9-14.6-11.5v-.6c0-10.7-9.7-19.4-21.8-19.4a23.7,23.7,0,0,0-13.3,4,12.5,12.5,0,0,0-6.3-1.6,15.5,15.5,0,0,0-3.1.3,16.6,16.6,0,0,0-7.3-4.2,8.7,8.7,0,0,0,1.7-5.1,9.5,9.5,0,0,0-3.2-6.9,21.1,21.1,0,0,0,.2-2.5A13.3,13.3,0,0,0,159,25.6h-.3c-3.3-7.1-11.1-12.1-20.3-12.1h-1c-9.2,0-17,5-20.3,12.1h-.3a13.4,13.4,0,0,0,0,26.7,9.2,9.2,0,0,0,2.9-.4l-1,1.5a28.6,28.6,0,0,0-8-1.1c-6.9,0-12.8,2.2-15.8,5.4a15.5,15.5,0,0,0-3.1-.3A12.5,12.5,0,0,0,85.5,59a23.7,23.7,0,0,0-13.3-4c-12.1,0-21.9,8.7-21.9,19.4,0,.2.1.4.1.6-8.2.6-14.6,5.5-14.6,11.5a9.7,9.7,0,0,0,4.1,7.6c-4.9.8-8.9,2.6-11.2,5.1a15.5,15.5,0,0,0-3.1-.3c-5.7,0-10.2,3.4-10.2,7.5v.3a12.7,12.7,0,0,0-2.8-.3c-4.2,0-7.5,1.5-7.5,3.2s3.3,3.2,7.5,3.2a13.1,13.1,0,0,0,5.7-1.1,11.4,11.4,0,0,0,7.3,2.3,11.9,11.9,0,0,0,7.4-2.4A26.8,26.8,0,0,0,44.5,114a27.3,27.3,0,0,0,9.4-1.5,15.9,15.9,0,0,0,24.4.6,13.5,13.5,0,0,0,7.2,2.1,13.8,13.8,0,0,0,7.2-2.1h1.4a23.7,23.7,0,0,0,8.5-1.5,27.2,27.2,0,0,0,11.6,2.4,28.6,28.6,0,0,0,10.6-1.9,9.1,9.1,0,0,0,2.6.6,13.1,13.1,0,0,0,5.8,1.3,14,14,0,0,0,4.7-.8,14,14,0,0,0,4.7.8,13.4,13.4,0,0,0,5.8-1.3,9.9,9.9,0,0,0,2.6-.6,28.5,28.5,0,0,0,10.5,1.9,27.4,27.4,0,0,0,11.7-2.4,23.7,23.7,0,0,0,8.5,1.5h1.4a13.4,13.4,0,0,0,14.4,0,15.9,15.9,0,0,0,11.9,5.4,16.2,16.2,0,0,0,12.5-6,27.3,27.3,0,0,0,9.4,1.5,26.8,26.8,0,0,0,11.5-2.4,11.7,11.7,0,0,0,7.4,2.4,11.4,11.4,0,0,0,7.3-2.3,13.1,13.1,0,0,0,5.7,1.1c4.1,0,7.5-1.4,7.5-3.2S267.3,106.4,263.2,106.4Z"/><path class="cls-2" d="M168.8,54.3c-.5-.2,8.1,2.4,9.2,8.1s-4.6,10.5-4.6,10.5S182.7,59.3,168.8,54.3Z"/><path class="cls-2" d="M158.6,27.2s9.5,3.6,10.2,11.3-10.2,10.9-10.2,10.9S176.4,38.7,158.6,27.2Z"/><path class="cls-2" d="M146.9,62.5c-1.5,0,12.8,0,16.8,4.2s4.9,10.6,3.5,12.6C167.2,79.3,168.2,63.3,146.9,62.5Z"/><path class="cls-2" d="M193,89.7c-5.9-12.6-25.8-10.4-25.8-10.4C188.2,73.9,192.9,89.2,193,89.7Z"/><path class="cls-2" d="M193.1,89.7c0-.1.2-.3.6-.5Z"/><path class="cls-2" d="M217.2,92.9c-13.8-8.6-21.4-5.1-23.5-3.7C205.5,80.6,217.2,92.9,217.2,92.9Z"/><path class="cls-2" d="M235.1,96.2c-10.4-9.5-17.6-3.5-17.9-3.3C224.4,83.7,235.1,96.2,235.1,96.2Z"/><path class="cls-3" d="M235.1,96.2c-10.4-9.5-17.6-3.5-17.9-3.3h0c-13.8-8.6-21.4-5.1-23.5-3.7l-.6.5H193c-5.9-12.6-25.8-10.4-25.8-10.4s6.4-4.1,12.9-4.3,8.9,1.7,8.9,1.7,8.1-12,18.8-5.8,9.4,10.7,9.4,10.7a25,25,0,0,1,10.6,1.8C233.8,85.7,235.1,96.2,235.1,96.2Z"/><path class="cls-2" d="M108.2,81.1a23.9,23.9,0,0,1-6.5,6.3h0l-.6.3h0c.4-.4,10-8.8,8.1-16.6-1-4-4.9-7.9-14.6-10.5-1-.2,9-1.6,13.5,5.3a24.3,24.3,0,0,1,2.4,4.9C111.8,74.9,110.6,77.8,108.2,81.1Z"/><path class="cls-2" d="M116.5,89.5c-7-5.3-15.1-1.9-15.4-1.7h0l.6-.3h0C111.4,81.8,116.5,89.5,116.5,89.5Z"/><path class="cls-2" d="M135.3,97.3c-2.5-17-18.2-8.1-18.7-7.8C135.7,76.3,135.3,97.3,135.3,97.3Z"/><path class="cls-2" d="M149.6,101.1c-5.2-10-13.7-4.2-14.3-3.8C146.4,88.4,149.6,101.1,149.6,101.1Z"/><path class="cls-2" d="M149.7,101.1l.5-.3Z"/><path class="cls-2" d="M163.7,103.1c-2.1-3.2-4.7-4.2-7.1-4.2a13.1,13.1,0,0,0-6.3,1.8c3.6-2.2,6.3-2.8,8.3-2.5h0A6.2,6.2,0,0,1,163.7,103.1Z"/><path class="cls-2" d="M50.4,75s19.8,1.3,16.2,12.4-17,11.9-17,11.9S83.3,83.3,50.4,75Z"/><path class="cls-2" d="M69.5,103.2S64.5,92.6,52,99C52,99,63.1,94.6,69.5,103.2Z"/><path class="cls-2" d="M80.3,107s-1.9-8.7-10.8-3.8C69.5,103.2,78.4,101,80.3,107Z"/><path class="cls-2" d="M93.8,107s-6.4-7.5-13.5,0C80.3,107,87.3,101.6,93.8,107Z"/><path class="cls-3" d="M158.6,98.2h0l-2,.7a13.1,13.1,0,0,0-6.3,1.8h-.1l-.5.3h-.1c-5.2-10-13.7-4.2-14.3-3.8h0c-2.5-17-18.2-8.1-18.7-7.8h-.1c-7-5.3-15.1-1.9-15.4-1.7s10-8.8,8.1-16.6l1.3-.3s4.8-3.7,9.9-1,2.8,8.2,2.8,8.2,7.6-4.2,13-1.4,6.3,11.1,6.3,11.1,6.7-3.6,10.5,0,3.2,6.3,3.2,6.3,3.4-2.2,4.7,1S158.9,98.2,158.6,98.2Z"/></g></svg>