<svg xmlns="http://www.w3.org/2000/svg" xmlns:xlink="http://www.w3.org/1999/xlink" viewBox="0 0 50 50"><defs><style>.cls-1{isolation:isolate;}.cls-2{fill:url(#Áåçûìÿííûé_ãðàäèåíò_44);}.cls-10,.cls-11,.cls-3,.cls-4{fill:#ffe136;}.cls-4{opacity:0.6;}.cls-10,.cls-11,.cls-4,.cls-5{mix-blend-mode:screen;}.cls-5{fill:#ffb082;opacity:0.9;}.cls-6,.cls-7,.cls-8{fill:#e69c13;}.cls-7{opacity:0.7;}.cls-7,.cls-8{mix-blend-mode:multiply;}.cls-8{opacity:0.3;}.cls-9{fill:#faaf73;}.cls-10{opacity:0.4;}.cls-11{opacity:0.8;}</style><linearGradient id="Áåçûìÿííûé_ãðàäèåíò_44" x1="22.358" y1="13.739" x2="28.204" y2="34.476" gradientTransform="matrix(-1, 0, 0, 1, 50, 0)" gradientUnits="userSpaceOnUse"><stop offset="0" stop-color="#ffd43d"/><stop offset="0.245" stop-color="#fed13d"/><stop offset="0.445" stop-color="#fbc73c"/><stop offset="0.628" stop-color="#f6b63b"/><stop offset="0.802" stop-color="#ee9e39"/><stop offset="0.968" stop-color="#e57f37"/><stop offset="1" stop-color="#e37836"/></linearGradient></defs><g class="cls-1"><g id="Layer_2" data-name="Layer 2"><path class="cls-2" d="M6.044,24.977a4.809,4.809,0,0,0,.18,1.316,4.875,4.875,0,0,0,1.663,2.494l1.94,1.524,3.492,2.744,5.432,4.268L21.12,39.18l3.811,2.993,2.037,1.593,3.2,2.522a4.752,4.752,0,0,0,1.69.859,4.472,4.472,0,0,0,2.259.07,4.986,4.986,0,0,0,1.025-.347,4.752,4.752,0,0,0,2.813-4.365V7.49a4.543,4.543,0,0,0-.665-2.425,4.814,4.814,0,0,0-6.277-1.9,5.121,5.121,0,0,0-.845.541L28.755,4.815l-2.3,1.8-6.762,5.321-6.111,4.794L12.03,17.951l-.014.014L8.691,20.584c0,.014,0,.014-.014.014l-.79.61a4.631,4.631,0,0,0-.61.554,4.735,4.735,0,0,0-1.136,2.259A5.484,5.484,0,0,0,6.044,24.977Z"/><path class="cls-3" d="M12.615,21.851a1.959,1.959,0,0,0,.023.354,2.538,2.538,0,0,0,.377.959,2.451,2.451,0,0,0,.48.514l5.061,3.976,3.632,2.868.617.479h.023l2.811,2.205,3.4,2.674a2.318,2.318,0,0,0,3.747-1.817V9.638a2.318,2.318,0,0,0-3.747-1.817L26.438,9.866l-1.713,1.36-1.9,1.485h-.023l-2.182,1.736-.308.24-1.9,1.485h-.011l-1.04.812L17.356,17,13.5,20.045A2.236,2.236,0,0,0,12.615,21.851Z"/><path class="cls-4" d="M24.725,11.226a6.313,6.313,0,0,1,2.89,3.187c.743,1.531,2.719,11.3,5.175,10.979V18.857c-1.679,1.028-3.77-.731-4.181-4.307a9.049,9.049,0,0,0-2.171-4.684Z"/><path class="cls-4" d="M21.332,17.84c1.565,1.851-1.086,3.69-.434,6.421.3,1.268.776,3.747,1.29,6.261l.617.479h.023l2.811,2.205,3.4,2.674a2.318,2.318,0,0,0,3.747-1.817V31.516c-4.409,2.616-11.447-6.558-10.464-9.391.937-2.685.822-5.678-2.011-7.438l-1.9,1.485h-.011l-1.04.812C18.853,16.664,20.383,16.721,21.332,17.84Z"/><path class="cls-5" d="M12.651,21.5a2.192,2.192,0,0,1,.634-.769L28.832,8.514a2.312,2.312,0,0,1,3.742,1.826V34.763c0,.111-.011.222-.022.334a2.349,2.349,0,0,0,.234-1.025V9.638a2.314,2.314,0,0,0-3.742-1.815L13.5,20.04A2.21,2.21,0,0,0,12.651,21.5Z"/><path class="cls-6" d="M6.047,24.974a4.837,4.837,0,0,0,1.837,3.808l1.938,1.526,3.5,2.751,5.435,4.265,2.372,1.86,3.808,3,2.027,1.592,3.208,2.517a4.774,4.774,0,0,0,1.692.858,4.466,4.466,0,0,0,2.261.066,4.581,4.581,0,0,0,1.025-.345A4.753,4.753,0,0,0,37.953,42.5V26.577c-1.681.991-4.109.045-5.167-.467v7.962a2.314,2.314,0,0,1-3.742,1.816L13.5,23.671a2.3,2.3,0,0,1,0-3.631l4.611-3.63a32.875,32.875,0,0,1-4.522.323l-1.559,1.225-.011.011-3.33,2.617c0,.011,0,.011-.011.011l-.791.612a4.814,4.814,0,0,0-1.837,3.765Z"/><path class="cls-7" d="M6.047,24.974a4.837,4.837,0,0,0,1.837,3.808l1.938,1.526,3.5,2.751,5.435,4.265,2.372,1.86,3.808,3,2.027,1.592,3.208,2.517a4.774,4.774,0,0,0,1.692.858,4.466,4.466,0,0,0,2.261.066,4.581,4.581,0,0,0,1.025-.345c-1.292-2.505-3.018-8.408-3.653-10.713a2.307,2.307,0,0,1-2.45-.267L13.5,23.671a2.272,2.272,0,0,1-.869-1.637Z"/><path class="cls-4" d="M30.577,9.312c1.409.7,1.578,12.065,1.114,13.085s-15.592.279-16.149-.742S29.463,8.755,30.577,9.312Z"/><path class="cls-8" d="M13.018,23.158a2.094,2.094,0,0,0,.479.513L29.044,35.888a2.314,2.314,0,0,0,3.742-1.816V24.194C29,26.555,16.582,25.453,13.018,23.158Z"/><path class="cls-9" d="M12.005,22.067a3.386,3.386,0,0,0,.2.334.763.763,0,0,0,.123.156C12.161,22.29,12.049,22.123,12.005,22.067Z"/><path class="cls-10" d="M19.689,11.944a13.716,13.716,0,0,0,3.452.512l5.9-4.633a2.239,2.239,0,0,1,1.592-.49,2.3,2.3,0,0,1,1.671.9,2.232,2.232,0,0,1,.479,1.4v8.019A9.184,9.184,0,0,0,37.953,16.1V7.489A4.634,4.634,0,0,0,37.3,5.061a3.055,3.055,0,0,0-.345-.5,4.793,4.793,0,0,0-4.678-1.8,4.189,4.189,0,0,0-1.258.412,5.308,5.308,0,0,0-.846.535L28.754,4.816,26.46,6.62Z"/><path class="cls-11" d="M30.636,7.333a2.3,2.3,0,0,1,1.671.9c.579-.946,2.227-3.241,4.644-3.675a4.793,4.793,0,0,0-4.678-1.8A8.966,8.966,0,0,1,30.636,7.333Z"/><path class="cls-8" d="M6.044,24.977a4.809,4.809,0,0,0,.18,1.316,4.875,4.875,0,0,0,1.663,2.494l1.94,1.524,3.492,2.744,5.432,4.268L21.12,39.18l3.811,2.993,2.037,1.593,3.2,2.522a4.752,4.752,0,0,0,1.69.859,4.472,4.472,0,0,0,2.259.07,4.986,4.986,0,0,0,1.025-.347,4.752,4.752,0,0,0,2.813-4.365V24.4c-.513,7-1.635,17.237-3.894,18.36C30.6,44.487,8.538,27.859,7.61,25.905a6.549,6.549,0,0,1-.333-4.143,4.735,4.735,0,0,0-1.136,2.259A5.484,5.484,0,0,0,6.044,24.977Z"/></g></g></svg>