<svg xmlns="http://www.w3.org/2000/svg" xmlns:xlink="http://www.w3.org/1999/xlink" viewBox="0 0 50 50"><defs><style>.cls-1{isolation:isolate;}.cls-2{fill:url(#Áåçûìÿííûé_ãðàäèåíò_20);}.cls-3{fill:#b09066;}.cls-4{fill:#ffb082;opacity:0.9;}.cls-4,.cls-8{mix-blend-mode:screen;}.cls-5{opacity:0.3;fill:url(#Áåçûìÿííûé_ãðàäèåíò_373);}.cls-5,.cls-6,.cls-7,.cls-9{mix-blend-mode:multiply;}.cls-6{opacity:0.8;fill:url(#Áåçûìÿííûé_ãðàäèåíò_373-2);}.cls-7,.cls-8{fill:#997753;}.cls-7{opacity:0.4;}.cls-8{opacity:0.2;}.cls-9{opacity:0.5;fill:url(#Áåçûìÿííûé_ãðàäèåíò_373-3);}.cls-10{fill:#deb581;}.cls-11{fill:#42321d;}</style><linearGradient id="Áåçûìÿííûé_ãðàäèåíò_20" x1="16.77" y1="7.846" x2="31.867" y2="42.759" gradientUnits="userSpaceOnUse"><stop offset="0" stop-color="#94794c"/><stop offset="0.224" stop-color="#8f7449"/><stop offset="0.507" stop-color="#82643f"/><stop offset="0.821" stop-color="#6d4a30"/><stop offset="1" stop-color="#5e3825"/></linearGradient><linearGradient id="Áåçûìÿííûé_ãðàäèåíò_373" x1="11.925" y1="31.921" x2="44.075" y2="31.921" gradientUnits="userSpaceOnUse"><stop offset="0" stop-color="#94794c"/><stop offset="1" stop-color="#5e3825"/></linearGradient><linearGradient id="Áåçûìÿííûé_ãðàäèåíò_373-2" x1="14.753" y1="34.755" x2="44.075" y2="34.755" xlink:href="#Áåçûìÿííûé_ãðàäèåíò_373"/><linearGradient id="Áåçûìÿííûé_ãðàäèåíò_373-3" x1="11.922" y1="34.619" x2="44.078" y2="34.619" xlink:href="#Áåçûìÿííûé_ãðàäèåíò_373"/></defs><g class="cls-1"><g id="Layer_6" data-name="Layer 6"><path class="cls-2" d="M44.078,24.976A4.814,4.814,0,0,1,43.9,26.3a4.9,4.9,0,0,1-1.675,2.513l-1.955,1.536-3.518,2.765-5.474,4.3-2.387,1.871L25.047,42.3,22.994,43.91l-3.225,2.541a4.818,4.818,0,0,1-1.7.866,4.516,4.516,0,0,1-2.276.07,5.014,5.014,0,0,1-1.034-.35,4.787,4.787,0,0,1-2.834-4.4V7.356a4.575,4.575,0,0,1,.67-2.444A4.851,4.851,0,0,1,18.917,3a5.137,5.137,0,0,1,.852.545l1.424,1.117,2.318,1.815,6.814,5.362,6.157,4.831L38.046,17.9l.014.014,3.351,2.639c0,.014,0,.014.014.014l.8.615a4.694,4.694,0,0,1,.614.558,4.757,4.757,0,0,1,1.145,2.276A5.477,5.477,0,0,1,44.078,24.976Z"/><path class="cls-3" d="M37.457,21.826a1.98,1.98,0,0,1-.023.357,2.339,2.339,0,0,1-.863,1.485l-5.1,4.006-3.661,2.89-.622.483h-.023l-2.832,2.222L20.9,35.963a2.336,2.336,0,0,1-3.776-1.83V9.52A2.336,2.336,0,0,1,20.9,7.69l2.625,2.06,1.726,1.37,1.911,1.5h.023l2.2,1.75.311.241,1.911,1.5h.011l1.048.817.012.012,3.891,3.073A2.258,2.258,0,0,1,37.457,21.826Z"/><path class="cls-4" d="M37.421,21.472a2.206,2.206,0,0,0-.64-.774L21.116,8.388a2.33,2.33,0,0,0-3.771,1.84V34.837c0,.113.011.225.022.337a2.366,2.366,0,0,1-.235-1.032V9.521A2.33,2.33,0,0,1,20.9,7.692L36.568,20A2.228,2.228,0,0,1,37.421,21.472Z"/><path class="cls-5" d="M44.075,24.973A4.853,4.853,0,0,1,43.9,26.3a4.788,4.788,0,0,1-1.672,2.513l-1.953,1.538L36.748,33.12l-5.477,4.3-2.39,1.874-3.838,3.019L23,43.916l-3.232,2.536a4.816,4.816,0,0,1-1.706.864,4.476,4.476,0,0,1-2.278.067,4.626,4.626,0,0,1-1.032-.347,4.79,4.79,0,0,1-2.828-4.4V26.589c1.694,1,4.141.045,5.207-.471v8.024a2.331,2.331,0,0,0,3.77,1.829L36.568,23.66a2.322,2.322,0,0,0,0-3.658l-4.646-3.658a33.184,33.184,0,0,0,4.556.325L38.049,17.9l.012.011,3.355,2.637c0,.011,0,.011.011.011l.8.617a4.718,4.718,0,0,1,1.75,2.828A4.66,4.66,0,0,1,44.075,24.973Z"/><path class="cls-6" d="M44.075,24.973A4.853,4.853,0,0,1,43.9,26.3a4.788,4.788,0,0,1-1.672,2.513l-1.953,1.538L36.748,33.12l-5.477,4.3-2.39,1.874-3.838,3.019L23,43.916l-3.232,2.536a4.816,4.816,0,0,1-1.706.864,4.476,4.476,0,0,1-2.278.067,4.626,4.626,0,0,1-1.032-.347c1.3-2.525,3.041-8.473,3.68-10.8a2.323,2.323,0,0,0,2.469-.269L36.568,23.66a2.286,2.286,0,0,0,.875-1.649Z"/><path class="cls-7" d="M37.051,23.144a2.087,2.087,0,0,1-.483.516L20.9,35.971a2.331,2.331,0,0,1-3.77-1.829V24.188C20.947,26.567,33.46,25.456,37.051,23.144Z"/><path class="cls-8" d="M30.329,11.844a13.852,13.852,0,0,1-3.479.516L20.9,7.692A2.252,2.252,0,0,0,19.3,7.2a2.31,2.31,0,0,0-1.684.909,2.244,2.244,0,0,0-.482,1.414V17.6a9.264,9.264,0,0,1-5.207-1.571V7.355a4.66,4.66,0,0,1,.662-2.446,3.062,3.062,0,0,1,.348-.5,4.828,4.828,0,0,1,4.713-1.818A4.2,4.2,0,0,1,18.916,3a5.366,5.366,0,0,1,.853.539l1.425,1.122L23.506,6.48Z"/><path class="cls-8" d="M19.3,7.2a2.31,2.31,0,0,0-1.684.909c-.583-.954-2.244-3.266-4.679-3.7a4.828,4.828,0,0,1,4.713-1.818A9.044,9.044,0,0,0,19.3,7.2Z"/><path class="cls-9" d="M44.078,24.976A4.814,4.814,0,0,1,43.9,26.3a4.9,4.9,0,0,1-1.675,2.513l-1.955,1.536-3.518,2.765-5.474,4.3-2.387,1.871L25.047,42.3,22.994,43.91l-3.225,2.541a4.818,4.818,0,0,1-1.7.866,4.516,4.516,0,0,1-2.276.07,5.014,5.014,0,0,1-1.034-.35,4.787,4.787,0,0,1-2.834-4.4V24.39c.517,7.051,1.648,17.37,3.923,18.5,3.491,1.745,25.72-15.01,26.655-16.979a6.585,6.585,0,0,0,.335-4.175,4.757,4.757,0,0,1,1.145,2.276A5.477,5.477,0,0,1,44.078,24.976Z"/><path class="cls-8" d="M19.182,9.727c-1.052.395-1.151,10.649-.576,11.944s15.541.863,16.117,0S20.333,9.3,19.182,9.727Z"/><path class="cls-10" d="M21.808,32.2l-.009.018c-.351.24-3.924-.683-4.386-.683s-3.407,2.65-3.574,1.957c-.12-.461,2.771-3.407,3.454-3.407S21.983,31.926,21.808,32.2Z"/><path class="cls-11" d="M21.808,32.2l-.009.018a31.323,31.323,0,0,0-4.442-1.32A41.624,41.624,0,0,0,13.839,33.5c-.12-.461,2.771-3.407,3.454-3.407S21.983,31.926,21.808,32.2Z"/><path class="cls-10" d="M27.188,12.617c-.287.288-1.531,1.358-2.175,1.139a.035.035,0,0,1-.023-.011c-.288-.242.264-2.625.264-2.625a23.044,23.044,0,0,1,2.706-.529C28.178,10.66,27.476,12.329,27.188,12.617Z"/><path class="cls-11" d="M27.96,10.591c-1.37.575-2.947,3.165-2.947,3.165a.035.035,0,0,1-.023-.011c-.288-.242.264-2.625.264-2.625A23.044,23.044,0,0,1,27.96,10.591Z"/></g></g></svg>