<svg xmlns="http://www.w3.org/2000/svg" xmlns:xlink="http://www.w3.org/1999/xlink" viewBox="0 0 50 50"><defs><style>.cls-1{isolation:isolate;}.cls-2{fill:url(#Áåçûìÿííûé_ãðàäèåíò_44);}.cls-10,.cls-11,.cls-3,.cls-4{fill:#ffe136;}.cls-4{opacity:0.6;}.cls-10,.cls-11,.cls-4,.cls-5{mix-blend-mode:screen;}.cls-5{fill:#ffb082;opacity:0.9;}.cls-6,.cls-7,.cls-8{fill:#e69c13;}.cls-7{opacity:0.7;}.cls-7,.cls-8{mix-blend-mode:multiply;}.cls-8{opacity:0.3;}.cls-9{fill:#faaf73;}.cls-10{opacity:0.4;}.cls-11{opacity:0.8;}</style><linearGradient id="Áåçûìÿííûé_ãðàäèåíò_44" x1="-117.642" y1="13.739" x2="-111.796" y2="34.476" gradientTransform="translate(140)" gradientUnits="userSpaceOnUse"><stop offset="0" stop-color="#ffd43d"/><stop offset="0.245" stop-color="#fed13d"/><stop offset="0.445" stop-color="#fbc73c"/><stop offset="0.628" stop-color="#f6b63b"/><stop offset="0.802" stop-color="#ee9e39"/><stop offset="0.968" stop-color="#e57f37"/><stop offset="1" stop-color="#e37836"/></linearGradient></defs><g class="cls-1"><g id="Layer_3" data-name="Layer 3"><path class="cls-2" d="M43.956,24.977a4.809,4.809,0,0,1-.18,1.316,4.875,4.875,0,0,1-1.663,2.494l-1.94,1.524-3.492,2.744-5.432,4.268L28.88,39.18l-3.811,2.993-2.037,1.593-3.2,2.522a4.752,4.752,0,0,1-1.69.859,4.472,4.472,0,0,1-2.259.07,4.986,4.986,0,0,1-1.025-.347,4.752,4.752,0,0,1-2.813-4.365V7.49a4.543,4.543,0,0,1,.665-2.425,4.814,4.814,0,0,1,6.277-1.9,5.121,5.121,0,0,1,.845.541l1.414,1.108,2.3,1.8,6.762,5.321,6.111,4.794,1.552,1.219.014.014,3.325,2.619c0,.014,0,.014.014.014l.79.61a4.631,4.631,0,0,1,.61.554,4.735,4.735,0,0,1,1.136,2.259A5.484,5.484,0,0,1,43.956,24.977Z"/><path class="cls-3" d="M37.385,21.851a1.959,1.959,0,0,1-.023.354,2.538,2.538,0,0,1-.377.959,2.451,2.451,0,0,1-.48.514l-5.061,3.976-3.632,2.868L27.2,31h-.023l-2.811,2.205-3.4,2.674a2.318,2.318,0,0,1-3.747-1.817V9.638a2.318,2.318,0,0,1,3.747-1.817l2.605,2.045,1.713,1.36,1.9,1.485H27.2l2.182,1.736.308.24,1.9,1.485h.011l1.04.812.011.011,3.861,3.05A2.236,2.236,0,0,1,37.385,21.851Z"/><path class="cls-4" d="M25.275,11.226a6.313,6.313,0,0,0-2.89,3.187c-.743,1.531-2.719,11.3-5.175,10.979V18.857c1.679,1.028,3.77-.731,4.181-4.307a9.049,9.049,0,0,1,2.171-4.684Z"/><path class="cls-4" d="M28.668,17.84c-1.565,1.851,1.086,3.69.434,6.421-.3,1.268-.776,3.747-1.29,6.261L27.2,31h-.023l-2.811,2.205-3.4,2.674a2.318,2.318,0,0,1-3.747-1.817V31.516c4.409,2.616,11.447-6.558,10.464-9.391-.937-2.685-.822-5.678,2.011-7.438l1.9,1.485h.011l1.04.812C31.147,16.664,29.617,16.721,28.668,17.84Z"/><path class="cls-5" d="M37.349,21.5a2.192,2.192,0,0,0-.634-.769L21.168,8.514a2.312,2.312,0,0,0-3.742,1.826V34.763c0,.111.011.222.022.334a2.349,2.349,0,0,1-.234-1.025V9.638a2.314,2.314,0,0,1,3.742-1.815L36.5,20.04A2.21,2.21,0,0,1,37.349,21.5Z"/><path class="cls-6" d="M43.953,24.974a4.837,4.837,0,0,1-1.837,3.808l-1.938,1.526-3.5,2.751-5.435,4.265-2.372,1.86-3.808,3-2.027,1.592-3.208,2.517a4.774,4.774,0,0,1-1.692.858,4.466,4.466,0,0,1-2.261.066,4.581,4.581,0,0,1-1.025-.345A4.753,4.753,0,0,1,12.047,42.5V26.577c1.681.991,4.109.045,5.167-.467v7.962a2.314,2.314,0,0,0,3.742,1.816L36.5,23.671a2.3,2.3,0,0,0,0-3.631l-4.611-3.63a32.875,32.875,0,0,0,4.522.323l1.559,1.225.011.011,3.33,2.617c0,.011,0,.011.011.011l.791.612a4.814,4.814,0,0,1,1.837,3.765Z"/><path class="cls-7" d="M43.953,24.974a4.837,4.837,0,0,1-1.837,3.808l-1.938,1.526-3.5,2.751-5.435,4.265-2.372,1.86-3.808,3-2.027,1.592-3.208,2.517a4.774,4.774,0,0,1-1.692.858,4.466,4.466,0,0,1-2.261.066,4.581,4.581,0,0,1-1.025-.345c1.292-2.505,3.018-8.408,3.653-10.713a2.307,2.307,0,0,0,2.45-.267L36.5,23.671a2.272,2.272,0,0,0,.869-1.637Z"/><path class="cls-4" d="M19.423,9.312c-1.409.7-1.578,12.065-1.114,13.085s15.592.279,16.149-.742S20.537,8.755,19.423,9.312Z"/><path class="cls-8" d="M36.982,23.158a2.094,2.094,0,0,1-.479.513L20.956,35.888a2.314,2.314,0,0,1-3.742-1.816V24.194C21,26.555,33.418,25.453,36.982,23.158Z"/><path class="cls-9" d="M37.995,22.067a3.386,3.386,0,0,1-.2.334.763.763,0,0,1-.123.156C37.839,22.29,37.951,22.123,37.995,22.067Z"/><path class="cls-10" d="M30.311,11.944a13.716,13.716,0,0,1-3.452.512l-5.9-4.633a2.239,2.239,0,0,0-1.592-.49,2.3,2.3,0,0,0-1.671.9,2.232,2.232,0,0,0-.479,1.4v8.019A9.184,9.184,0,0,1,12.047,16.1V7.489A4.634,4.634,0,0,1,12.7,5.061a3.055,3.055,0,0,1,.345-.5,4.793,4.793,0,0,1,4.678-1.8,4.189,4.189,0,0,1,1.258.412,5.308,5.308,0,0,1,.846.535l1.415,1.113,2.294,1.8Z"/><path class="cls-11" d="M19.364,7.333a2.3,2.3,0,0,0-1.671.9c-.579-.946-2.227-3.241-4.644-3.675a4.793,4.793,0,0,1,4.678-1.8A8.966,8.966,0,0,0,19.364,7.333Z"/><path class="cls-8" d="M43.956,24.977a4.809,4.809,0,0,1-.18,1.316,4.875,4.875,0,0,1-1.663,2.494l-1.94,1.524-3.492,2.744-5.432,4.268L28.88,39.18l-3.811,2.993-2.037,1.593-3.2,2.522a4.752,4.752,0,0,1-1.69.859,4.472,4.472,0,0,1-2.259.07,4.986,4.986,0,0,1-1.025-.347,4.752,4.752,0,0,1-2.813-4.365V24.4c.513,7,1.635,17.237,3.894,18.36,3.464,1.732,25.524-14.9,26.452-16.85a6.549,6.549,0,0,0,.333-4.143,4.735,4.735,0,0,1,1.136,2.259A5.484,5.484,0,0,1,43.956,24.977Z"/></g></g></svg>