<svg xmlns="http://www.w3.org/2000/svg" xmlns:xlink="http://www.w3.org/1999/xlink" viewBox="0 0 50 50"><defs><style>.cls-1{isolation:isolate;}.cls-2{fill:url(#Áåçûìÿííûé_ãðàäèåíò_20);}.cls-3{fill:#b09066;}.cls-4{fill:#ffb082;opacity:0.9;}.cls-4,.cls-8{mix-blend-mode:screen;}.cls-5{opacity:0.3;fill:url(#Áåçûìÿííûé_ãðàäèåíò_373);}.cls-5,.cls-6,.cls-7,.cls-9{mix-blend-mode:multiply;}.cls-6{opacity:0.8;fill:url(#Áåçûìÿííûé_ãðàäèåíò_373-2);}.cls-7,.cls-8{fill:#997753;}.cls-7{opacity:0.4;}.cls-8{opacity:0.2;}.cls-9{opacity:0.5;fill:url(#Áåçûìÿííûé_ãðàäèåíò_373-3);}.cls-10{fill:#deb581;}.cls-11{fill:#42321d;}</style><linearGradient id="Áåçûìÿííûé_ãðàäèåíò_20" x1="16.77" y1="7.846" x2="31.867" y2="42.759" gradientTransform="matrix(-1, 0, 0, 1, 50, 0)" gradientUnits="userSpaceOnUse"><stop offset="0" stop-color="#94794c"/><stop offset="0.224" stop-color="#8f7449"/><stop offset="0.507" stop-color="#82643f"/><stop offset="0.821" stop-color="#6d4a30"/><stop offset="1" stop-color="#5e3825"/></linearGradient><linearGradient id="Áåçûìÿííûé_ãðàäèåíò_373" x1="11.925" y1="31.921" x2="44.075" y2="31.921" gradientTransform="matrix(-1, 0, 0, 1, 50, 0)" gradientUnits="userSpaceOnUse"><stop offset="0" stop-color="#94794c"/><stop offset="1" stop-color="#5e3825"/></linearGradient><linearGradient id="Áåçûìÿííûé_ãðàäèåíò_373-2" x1="14.753" y1="34.755" x2="44.075" y2="34.755" xlink:href="#Áåçûìÿííûé_ãðàäèåíò_373"/><linearGradient id="Áåçûìÿííûé_ãðàäèåíò_373-3" x1="11.922" y1="34.619" x2="44.078" y2="34.619" xlink:href="#Áåçûìÿííûé_ãðàäèåíò_373"/></defs><g class="cls-1"><g id="Layer_5" data-name="Layer 5"><path class="cls-2" d="M5.922,24.976A4.814,4.814,0,0,0,6.1,26.3a4.9,4.9,0,0,0,1.675,2.513l1.955,1.536,3.518,2.765,5.474,4.3,2.387,1.871,3.84,3.016,2.053,1.606,3.225,2.541a4.818,4.818,0,0,0,1.7.866,4.516,4.516,0,0,0,2.276.07,5.014,5.014,0,0,0,1.034-.35,4.787,4.787,0,0,0,2.834-4.4V7.356a4.575,4.575,0,0,0-.67-2.444A4.851,4.851,0,0,0,31.083,3a5.137,5.137,0,0,0-.852.545L28.807,4.661,26.489,6.476l-6.814,5.362-6.157,4.831L11.954,17.9l-.014.014L8.589,20.55c0,.014,0,.014-.014.014l-.8.615a4.694,4.694,0,0,0-.614.558A4.757,4.757,0,0,0,6.02,24.013,5.477,5.477,0,0,0,5.922,24.976Z"/><path class="cls-3" d="M12.543,21.826a1.98,1.98,0,0,0,.023.357,2.339,2.339,0,0,0,.863,1.485l5.1,4.006,3.661,2.89.622.483h.023l2.832,2.222,3.43,2.694a2.336,2.336,0,0,0,3.776-1.83V9.52A2.336,2.336,0,0,0,29.1,7.69L26.472,9.75l-1.726,1.37-1.911,1.5h-.023l-2.2,1.75-.311.241-1.911,1.5H18.38l-1.048.817-.012.012-3.891,3.073A2.258,2.258,0,0,0,12.543,21.826Z"/><path class="cls-4" d="M12.579,21.472a2.206,2.206,0,0,1,.64-.774L28.884,8.388a2.33,2.33,0,0,1,3.771,1.84V34.837c0,.113-.011.225-.022.337a2.366,2.366,0,0,0,.235-1.032V9.521A2.33,2.33,0,0,0,29.1,7.692L13.432,20A2.228,2.228,0,0,0,12.579,21.472Z"/><path class="cls-5" d="M5.925,24.973A4.853,4.853,0,0,0,6.1,26.3a4.788,4.788,0,0,0,1.672,2.513l1.953,1.538,3.523,2.771,5.477,4.3,2.39,1.874,3.838,3.019L27,43.916l3.232,2.536a4.816,4.816,0,0,0,1.706.864,4.476,4.476,0,0,0,2.278.067,4.626,4.626,0,0,0,1.032-.347,4.79,4.79,0,0,0,2.828-4.4V26.589c-1.694,1-4.141.045-5.207-.471v8.024a2.331,2.331,0,0,1-3.77,1.829L13.432,23.66a2.322,2.322,0,0,1,0-3.658l4.646-3.658a33.184,33.184,0,0,1-4.556.325L11.951,17.9l-.012.011L8.584,20.552c0,.011,0,.011-.011.011l-.8.617a4.718,4.718,0,0,0-1.75,2.828A4.66,4.66,0,0,0,5.925,24.973Z"/><path class="cls-6" d="M5.925,24.973A4.853,4.853,0,0,0,6.1,26.3a4.788,4.788,0,0,0,1.672,2.513l1.953,1.538,3.523,2.771,5.477,4.3,2.39,1.874,3.838,3.019L27,43.916l3.232,2.536a4.816,4.816,0,0,0,1.706.864,4.476,4.476,0,0,0,2.278.067,4.626,4.626,0,0,0,1.032-.347c-1.3-2.525-3.041-8.473-3.68-10.8a2.323,2.323,0,0,1-2.469-.269L13.432,23.66a2.286,2.286,0,0,1-.875-1.649Z"/><path class="cls-7" d="M12.949,23.144a2.087,2.087,0,0,0,.483.516L29.1,35.971a2.331,2.331,0,0,0,3.77-1.829V24.188C29.053,26.567,16.54,25.456,12.949,23.144Z"/><path class="cls-8" d="M19.671,11.844a13.852,13.852,0,0,0,3.479.516L29.1,7.692A2.252,2.252,0,0,1,30.7,7.2a2.31,2.31,0,0,1,1.684.909,2.244,2.244,0,0,1,.482,1.414V17.6a9.264,9.264,0,0,0,5.207-1.571V7.355a4.66,4.66,0,0,0-.662-2.446,3.062,3.062,0,0,0-.348-.5,4.828,4.828,0,0,0-4.713-1.818A4.2,4.2,0,0,0,31.084,3a5.366,5.366,0,0,0-.853.539L28.806,4.662,26.494,6.48Z"/><path class="cls-8" d="M30.7,7.2a2.31,2.31,0,0,1,1.684.909c.583-.954,2.244-3.266,4.679-3.7a4.828,4.828,0,0,0-4.713-1.818A9.044,9.044,0,0,1,30.7,7.2Z"/><path class="cls-9" d="M5.922,24.976A4.814,4.814,0,0,0,6.1,26.3a4.9,4.9,0,0,0,1.675,2.513l1.955,1.536,3.518,2.765,5.474,4.3,2.387,1.871,3.84,3.016,2.053,1.606,3.225,2.541a4.818,4.818,0,0,0,1.7.866,4.516,4.516,0,0,0,2.276.07,5.014,5.014,0,0,0,1.034-.35,4.787,4.787,0,0,0,2.834-4.4V24.39c-.517,7.051-1.648,17.37-3.923,18.5C30.664,44.636,8.435,27.881,7.5,25.912a6.585,6.585,0,0,1-.335-4.175A4.757,4.757,0,0,0,6.02,24.013,5.477,5.477,0,0,0,5.922,24.976Z"/><path class="cls-8" d="M30.818,9.727c1.052.395,1.151,10.649.576,11.944s-15.541.863-16.117,0S29.667,9.3,30.818,9.727Z"/><path class="cls-10" d="M28.192,32.2l.009.018c.351.24,3.924-.683,4.386-.683s3.407,2.65,3.574,1.957c.12-.461-2.771-3.407-3.454-3.407S28.017,31.926,28.192,32.2Z"/><path class="cls-11" d="M28.192,32.2l.009.018a31.323,31.323,0,0,1,4.442-1.32A41.624,41.624,0,0,1,36.161,33.5c.12-.461-2.771-3.407-3.454-3.407S28.017,31.926,28.192,32.2Z"/><path class="cls-10" d="M22.812,12.617c.287.288,1.531,1.358,2.175,1.139a.035.035,0,0,0,.023-.011c.288-.242-.264-2.625-.264-2.625a23.044,23.044,0,0,0-2.706-.529C21.822,10.66,22.524,12.329,22.812,12.617Z"/><path class="cls-11" d="M22.04,10.591c1.37.575,2.947,3.165,2.947,3.165a.035.035,0,0,0,.023-.011c.288-.242-.264-2.625-.264-2.625A23.044,23.044,0,0,0,22.04,10.591Z"/></g></g></svg>