<svg id="Layer_1" data-name="Layer 1" xmlns="http://www.w3.org/2000/svg" viewBox="0 0 400 400"><defs><style>.cls-1{opacity:0.2;}.cls-2{fill:#6d4c41;}.cls-3{fill:#ffa726;}.cls-4{opacity:0.5;}.cls-5{fill:#fff;}.cls-6{fill:#29b6f6;}</style></defs><g class="cls-1"><path class="cls-2" d="M380.5,169.4a358.3,358.3,0,0,0-7.5-44.9,192.6,192.6,0,0,0-9-17.5,3.5,3.5,0,0,0-1.8,4.3c.1.2,7.6,23.5,11.3,59,3,28.6,4,70.4-6.2,115.6a185.5,185.5,0,0,0,12.1-27.8A380.2,380.2,0,0,0,380.5,169.4Z"/></g><path class="cls-2" d="M297.3,256a4,4,0,0,1-1.5-.3,3.6,3.6,0,0,1-1.7-4.7c25.5-53.9.2-114.5,0-115.1a3.5,3.5,0,0,1,1.8-4.6,3.5,3.5,0,0,1,4.6,1.9c1.2,2.6,26.9,64,0,120.8A3.5,3.5,0,0,1,297.3,256Z"/><path class="cls-2" d="M330.7,277.6a2.5,2.5,0,0,1-1.2-.2,3.5,3.5,0,0,1-2.1-4.5c28.7-78.4.3-159.9,0-160.8a3.5,3.5,0,0,1,6.6-2.3c.3.8,29.6,84.7,0,165.5A3.5,3.5,0,0,1,330.7,277.6Z"/><path class="cls-2" d="M364.1,293.4l-1-.2a3.5,3.5,0,0,1-2.3-4.4c29.8-100.9.3-193.5,0-194.4a3.5,3.5,0,1,1,6.7-2.2c.3.9,30.4,95.6,0,198.6A3.4,3.4,0,0,1,364.1,293.4Z"/><ellipse class="cls-3" cx="247.8" cy="200" rx="31.4" ry="36.4"/><path class="cls-2" d="M247.8,239.5c-19.1,0-34.6-17.7-34.6-39.5s15.5-39.5,34.6-39.5,34.6,17.7,34.6,39.5S266.9,239.5,247.8,239.5Zm0-72.7c-15.6,0-28.3,14.9-28.3,33.2s12.7,33.2,28.3,33.2,28.3-14.9,28.3-33.2S263.4,166.8,247.8,166.8Z"/><g class="cls-1"><path class="cls-2" d="M277.1,186.8c-3.1,16.3-15.7,28.4-30.7,28.4-13.4,0-24.7-9.5-29.3-23.1a41.5,41.5,0,0,0-.8,7.9c0,20.1,14.1,36.4,31.5,36.4s31.4-16.3,31.4-36.4A40.6,40.6,0,0,0,277.1,186.8Z"/></g><g class="cls-4"><path class="cls-5" d="M246.4,172.4c15.6,0,28.3,14.9,28.3,33.2a34.9,34.9,0,0,1-.6,6.5,37,37,0,0,0,2-12.1c0-18.3-12.7-33.2-28.3-33.2-13.7,0-25.2,11.5-27.8,26.7C224.2,181.2,234.4,172.4,246.4,172.4Z"/></g><path class="cls-6" d="M232.5,67.3l-99.7,69.8H78.4a57.6,57.6,0,0,0-57.6,57.6v10.6a57.6,57.6,0,0,0,57.6,57.6h54.4l99.7,69.8a11.6,11.6,0,0,0,18.2-9.6V76.9A11.6,11.6,0,0,0,232.5,67.3Z"/><path class="cls-2" d="M239.1,337.9a15.4,15.4,0,0,1-8.5-2.6l-98.8-69.2H78.4a60.9,60.9,0,0,1-60.8-60.8V194.7a60.9,60.9,0,0,1,60.8-60.8h53.4l98.8-69.2h0a15,15,0,0,1,15.3-1,14.7,14.7,0,0,1,8,13.2V323.1a14.7,14.7,0,0,1-14.8,14.8ZM78.4,140.3a54.5,54.5,0,0,0-54.5,54.4v10.6a54.5,54.5,0,0,0,54.5,54.4h54.4a2.8,2.8,0,0,1,1.8.6l99.7,69.8a8.3,8.3,0,0,0,8.7.5,8.1,8.1,0,0,0,4.6-7.5V76.9a8.1,8.1,0,0,0-4.6-7.5,8.3,8.3,0,0,0-8.7.5l-99.7,69.8a2.8,2.8,0,0,1-1.8.6Z"/><g class="cls-4"><path class="cls-5" d="M247.3,74.9c0-.2-.1-.3-.1-.5s-.1-.3-.1-.4a3,3,0,0,0-.4-.8h0a8.6,8.6,0,0,0-12.4-3.2l-99.7,69.8a2.8,2.8,0,0,1-1.8.6H78.4A56.7,56.7,0,0,0,64.6,142a54.6,54.6,0,0,0-40.7,52.7v10.6a54.2,54.2,0,0,0,11.4,33.2,54.5,54.5,0,0,1-7.1-26.9V201.1a54.5,54.5,0,0,1,8.9-29.9,49.1,49.1,0,0,0,12.1-5.1c8.5-4.9,14.5-11.3,16.3-16.7a54.2,54.2,0,0,1,17.1-2.8h32.9a8.3,8.3,0,0,1,8.3,7.8l5.7,97.3,3.4-105.1H137a2.8,2.8,0,0,0,1.8-.6l99.7-69.7h0a3.4,3.4,0,0,1,5.2,2.8l3.4,189.6.5-28.3V76.9A6.4,6.4,0,0,0,247.3,74.9Z"/></g><path class="cls-2" d="M132.7,265.8a3.2,3.2,0,0,1-3.2-3.2V137.4a3.2,3.2,0,0,1,6.4,0V262.6A3.2,3.2,0,0,1,132.7,265.8Z"/><g class="cls-1"><path class="cls-2" d="M133.8,175.7s-24,86.6-111.2,45.8l7.3,12.8,17.6,19.9,31,8.4,53.5-2.8Z"/></g><g class="cls-1"><path class="cls-2" d="M134.4,178.5s18.4,84.5,116.4,85.2v59.5l-7.4,10.9-8.4-.5L132,259.8Z"/></g><g class="cls-1"><rect class="cls-5" x="176" y="108.9" width="29.6" height="71.79" rx="9.5" transform="translate(197.4 -94.6) rotate(54.4)"/></g></svg>