<svg xmlns="http://www.w3.org/2000/svg" viewBox="0 0 400 400"><defs><style>.cls-1{fill:#ffa726;}.cls-2{fill:#6d4c41;}.cls-3{opacity:0.2;}.cls-4{opacity:0.5;}.cls-5{fill:#fff;}.cls-6{fill:#29b6f6;}.cls-7{fill:#ff5722;}</style></defs><g id="Layer_2" data-name="Layer 2"><ellipse class="cls-1" cx="247.8" cy="200" rx="31.4" ry="36.4"/><path class="cls-2" d="M247.8,239.5c-19.1,0-34.6-17.7-34.6-39.5s15.5-39.5,34.6-39.5,34.6,17.7,34.6,39.5S266.9,239.5,247.8,239.5Zm0-72.7c-15.6,0-28.3,14.9-28.3,33.2s12.7,33.2,28.3,33.2,28.3-14.9,28.3-33.2S263.4,166.8,247.8,166.8Z"/><g class="cls-3"><path class="cls-2" d="M277.1,186.8c-3.1,16.3-15.7,28.4-30.7,28.4-13.4,0-24.7-9.5-29.3-23.1a41.5,41.5,0,0,0-.8,7.9c0,20.1,14.1,36.4,31.5,36.4s31.4-16.3,31.4-36.4A40.6,40.6,0,0,0,277.1,186.8Z"/></g><g class="cls-4"><path class="cls-5" d="M246.4,172.4c15.6,0,28.3,14.9,28.3,33.2a34.9,34.9,0,0,1-.6,6.5,37,37,0,0,0,2-12.1c0-18.3-12.7-33.2-28.3-33.2-13.7,0-25.2,11.5-27.8,26.7C224.2,181.2,234.4,172.4,246.4,172.4Z"/></g><path class="cls-6" d="M232.5,67.3l-99.7,69.8H78.4a57.6,57.6,0,0,0-57.6,57.6v10.6a57.6,57.6,0,0,0,57.6,57.6h54.4l99.7,69.8a11.6,11.6,0,0,0,18.2-9.6V76.9A11.6,11.6,0,0,0,232.5,67.3Z"/><path class="cls-2" d="M239.1,337.9a15.4,15.4,0,0,1-8.5-2.6l-98.8-69.2H78.4a60.9,60.9,0,0,1-60.8-60.8V194.7a60.9,60.9,0,0,1,60.8-60.8h53.4l98.8-69.2h0a15,15,0,0,1,15.3-1,14.7,14.7,0,0,1,8,13.2V323.1a14.7,14.7,0,0,1-14.8,14.8ZM78.4,140.3a54.5,54.5,0,0,0-54.5,54.4v10.6a54.5,54.5,0,0,0,54.5,54.4h54.4a2.8,2.8,0,0,1,1.8.6l99.7,69.8a8.3,8.3,0,0,0,8.7.5,8.1,8.1,0,0,0,4.6-7.5V76.9a8.1,8.1,0,0,0-4.6-7.5,8.3,8.3,0,0,0-8.7.5l-99.7,69.8a2.8,2.8,0,0,1-1.8.6Z"/><g class="cls-4"><path class="cls-5" d="M247.3,74.9c0-.2-.1-.3-.1-.5s-.1-.3-.1-.4a3,3,0,0,0-.4-.8h0a8.6,8.6,0,0,0-12.4-3.2l-99.7,69.8a2.8,2.8,0,0,1-1.8.6H78.4A56.7,56.7,0,0,0,64.6,142a54.6,54.6,0,0,0-40.7,52.7v10.6a54.2,54.2,0,0,0,11.4,33.2,54.5,54.5,0,0,1-7.1-26.9V201.1a54.5,54.5,0,0,1,8.9-29.9,49.1,49.1,0,0,0,12.1-5.1c8.5-4.9,14.5-11.3,16.3-16.7a54.2,54.2,0,0,1,17.1-2.8h32.9a8.3,8.3,0,0,1,8.3,7.8l5.7,97.3,3.4-105.1H137a2.8,2.8,0,0,0,1.8-.6l99.7-69.7h0a3.4,3.4,0,0,1,5.2,2.8l3.4,189.6.5-28.3V76.9A6.4,6.4,0,0,0,247.3,74.9Z"/></g><path class="cls-2" d="M132.7,265.8a3.2,3.2,0,0,1-3.2-3.2V137.4a3.2,3.2,0,0,1,6.4,0V262.6A3.2,3.2,0,0,1,132.7,265.8Z"/><g class="cls-3"><path class="cls-2" d="M133.8,175.7s-24,86.6-111.2,45.8l7.3,12.8,17.6,19.9,31,8.4,53.5-2.8Z"/></g><g class="cls-3"><path class="cls-2" d="M134.4,178.5s18.4,84.5,116.4,85.2v59.5l-7.4,10.9-8.4-.5L132,259.8Z"/></g><g class="cls-3"><rect class="cls-5" x="176" y="108.9" width="29.6" height="71.79" rx="9.5" transform="translate(197.4 -94.6) rotate(54.4)"/></g><path class="cls-7" d="M336.5,136.8l-16.4-16.5a6.5,6.5,0,0,0-9.1,0l-54.1,54.2-54.2-54.2a6.3,6.3,0,0,0-9,0l-16.5,16.5a6.3,6.3,0,0,0,0,9L231.4,200l-54.2,54.1a6.5,6.5,0,0,0,0,9.1l16.5,16.5a6.3,6.3,0,0,0,9,0l54.2-54.2L311,279.7a6.5,6.5,0,0,0,9.1,0l16.4-16.5a6.5,6.5,0,0,0,0-9.1L282.4,200l54.1-54.2A6.3,6.3,0,0,0,336.5,136.8Z"/><path class="cls-2" d="M315.6,284.7a9.5,9.5,0,0,1-6.8-2.8L256.9,230,205,281.9a9.7,9.7,0,0,1-13.6,0L175,265.5a9.6,9.6,0,0,1-2.9-6.8,9.2,9.2,0,0,1,2.9-6.8L226.8,200,175,148.1a9.2,9.2,0,0,1-2.9-6.8,9.4,9.4,0,0,1,2.9-6.8l16.4-16.4a9.5,9.5,0,0,1,13.6,0L256.9,170l51.9-51.9a9.4,9.4,0,0,1,13.5,0l16.5,16.4a9.7,9.7,0,0,1,2.8,6.8,9.5,9.5,0,0,1-2.8,6.8L286.9,200l51.9,51.9a9.5,9.5,0,0,1,2.8,6.8,9.9,9.9,0,0,1-2.8,6.8l-16.5,16.4A9.5,9.5,0,0,1,315.6,284.7Zm-58.7-62.4a3.1,3.1,0,0,1,2.2.9l54.2,54.2a3.3,3.3,0,0,0,4.5,0l16.5-16.5a3.1,3.1,0,0,0,.9-2.2,3.2,3.2,0,0,0-.9-2.3l-54.2-54.1a3.4,3.4,0,0,1,0-4.6l54.2-54.1a3.2,3.2,0,0,0,.9-2.3,3.1,3.1,0,0,0-.9-2.2l-16.5-16.5a3.2,3.2,0,0,0-4.5,0l-54.2,54.1a3.1,3.1,0,0,1-4.5,0l-54.1-54.1a3.4,3.4,0,0,0-4.6,0l-16.4,16.5a3.2,3.2,0,0,0-1,2.2,3.3,3.3,0,0,0,1,2.3l54.1,54.1a3.2,3.2,0,0,1,0,4.6l-54.1,54.1a3.3,3.3,0,0,0-1,2.3,3.2,3.2,0,0,0,1,2.2l16.4,16.5a3.4,3.4,0,0,0,4.6,0l54.1-54.2A3.3,3.3,0,0,1,256.9,222.3Z"/><g class="cls-4"><path class="cls-5" d="M181.5,145.6a3,3,0,0,1,.8-3l16.5-16.4a3.1,3.1,0,0,1,4.5,0l54.2,54.1a3.1,3.1,0,0,0,4.5,0l54.1-54.1a2.9,2.9,0,0,1,2.3-1,3,3,0,0,1,2.3,1l14.4,14.4a2.8,2.8,0,0,0-.8-1.5l-16.5-16.5a3.2,3.2,0,0,0-2.3-.9,3.1,3.1,0,0,0-2.2.9l-54.2,54.1a3.1,3.1,0,0,1-4.5,0l-54.1-54.1a3.4,3.4,0,0,0-4.6,0l-16.4,16.5a3.1,3.1,0,0,0,0,4.5Z"/></g><g class="cls-4"><path class="cls-5" d="M282.1,204.2a2.6,2.6,0,0,0,.9,1.6L335.1,258a3.5,3.5,0,0,0-.8-1.6Z"/></g><g class="cls-4"><path class="cls-5" d="M182.3,260l54.2-54.2a3.1,3.1,0,0,0,.9-2.2,3.2,3.2,0,0,0-.9-2.3l-2-2c0,.2.1.5.1.7a3.4,3.4,0,0,1-1,2.3l-54.1,54.1a3.1,3.1,0,0,0,0,4.5l2,2A2.9,2.9,0,0,1,182.3,260Z"/></g><g class="cls-3"><path class="cls-2" d="M256,222.4s-51.2,50.5-78.9,34.8l-1.1,2.7,22,20.4Z"/></g><g class="cls-3"><path class="cls-2" d="M258.1,223.1s50.5,48.3,79.9,33.7l1.5,3.6-24,21.6Z"/></g></g></svg>