<svg xmlns="http://www.w3.org/2000/svg" xmlns:xlink="http://www.w3.org/1999/xlink" viewBox="0 0 346 361"><defs><style>.cls-1{mask:url(#mask);}.cls-10,.cls-12,.cls-14,.cls-16,.cls-2,.cls-21,.cls-23,.cls-25,.cls-26,.cls-29,.cls-32,.cls-34,.cls-36,.cls-39,.cls-4,.cls-43,.cls-6,.cls-8{mix-blend-mode:multiply;}.cls-2{fill:url(#linear-gradient);}.cls-3{mask:url(#mask-2);}.cls-4{fill:url(#linear-gradient-2);}.cls-5{mask:url(#mask-3);}.cls-6{fill:url(#linear-gradient-3);}.cls-7{mask:url(#mask-4);}.cls-8{fill:url(#linear-gradient-4);}.cls-9{mask:url(#mask-5);filter:url(#luminosity-noclip-9);}.cls-10{fill:url(#linear-gradient-5);}.cls-11{mask:url(#mask-6);}.cls-12{fill:url(#linear-gradient-6);}.cls-13{mask:url(#mask-7);}.cls-14{fill:url(#linear-gradient-7);}.cls-15{mask:url(#mask-8);}.cls-16{fill:url(#linear-gradient-8);}.cls-17{isolation:isolate;}.cls-18,.cls-21,.cls-26,.cls-29{fill:#4e4e4d;}.cls-19{fill:#0a0b07;}.cls-20{fill:#939494;}.cls-21{opacity:0.4;}.cls-22{fill:#5f5e5d;}.cls-23{fill:#5d5d5c;}.cls-24{fill:#fff;}.cls-24,.cls-28,.cls-46,.cls-48{opacity:0.5;}.cls-24,.cls-28,.cls-44,.cls-46,.cls-48{mix-blend-mode:screen;}.cls-25{opacity:0.2;}.cls-27{mask:url(#mask-9);}.cls-28{fill:url(#linear-gradient-9);}.cls-29{opacity:0.3;}.cls-30{fill:#e3b872;}.cls-31{mask:url(#mask-10);}.cls-32,.cls-34,.cls-36,.cls-39,.cls-43{opacity:0.7;}.cls-32{fill:url(#linear-gradient-10);}.cls-33{mask:url(#mask-11);}.cls-34{fill:url(#linear-gradient-11);}.cls-35{mask:url(#mask-12);}.cls-36{fill:url(#linear-gradient-12);}.cls-37{fill:#a77435;}.cls-38{mask:url(#mask-13);}.cls-39{fill:url(#linear-gradient-13);}.cls-40{fill:#c0843e;}.cls-41,.cls-44{fill:#fccb7d;}.cls-42{mask:url(#mask-14);}.cls-43{fill:url(#linear-gradient-14);}.cls-45{mask:url(#mask-15);}.cls-46{fill:url(#linear-gradient-15);}.cls-47{mask:url(#mask-16);}.cls-48{fill:url(#linear-gradient-16);}.cls-49{filter:url(#luminosity-noclip-8);}.cls-50{filter:url(#luminosity-noclip-7);}.cls-51{filter:url(#luminosity-noclip-6);}.cls-52{filter:url(#luminosity-noclip-5);}.cls-53{filter:url(#luminosity-noclip-4);}.cls-54{filter:url(#luminosity-noclip-3);}.cls-55{filter:url(#luminosity-noclip-2);}.cls-56{filter:url(#luminosity-noclip);}</style><filter id="luminosity-noclip" x="82.146" y="-8372" width="180" height="32766" filterUnits="userSpaceOnUse" color-interpolation-filters="sRGB"><feFlood flood-color="#fff" result="bg"/><feBlend in="SourceGraphic" in2="bg"/></filter><mask id="mask" x="82.146" y="-8372" width="180" height="32766" maskUnits="userSpaceOnUse"><g class="cls-56"/></mask><linearGradient id="linear-gradient" x1="206.221" y1="236.118" x2="98.888" y2="-3.882" gradientUnits="userSpaceOnUse"><stop offset="0.051"/><stop offset="0.167" stop-color="#303030"/><stop offset="0.428" stop-color="#a9a9a9"/><stop offset="0.608" stop-color="#fff"/></linearGradient><filter id="luminosity-noclip-2" x="295.319" y="-8372" width="33.281" height="32766" filterUnits="userSpaceOnUse" color-interpolation-filters="sRGB"><feFlood flood-color="#fff" result="bg"/><feBlend in="SourceGraphic" in2="bg"/></filter><mask id="mask-2" x="295.319" y="-8372" width="33.281" height="32766" maskUnits="userSpaceOnUse"><g class="cls-55"/></mask><linearGradient id="linear-gradient-2" x1="314.748" y1="184.533" x2="310.682" y2="218.913" gradientUnits="userSpaceOnUse"><stop offset="0.051"/><stop offset="0.281" stop-color="#4c4c4c"/><stop offset="0.531" stop-color="#989898"/><stop offset="0.738" stop-color="#d0d0d0"/><stop offset="0.891" stop-color="#f2f2f2"/><stop offset="0.973" stop-color="#fff"/></linearGradient><filter id="luminosity-noclip-3" x="8.176" y="-8372" width="29.086" height="32766" filterUnits="userSpaceOnUse" color-interpolation-filters="sRGB"><feFlood flood-color="#fff" result="bg"/><feBlend in="SourceGraphic" in2="bg"/></filter><mask id="mask-3" x="8.176" y="-8372" width="29.086" height="32766" maskUnits="userSpaceOnUse"><g class="cls-54"/></mask><linearGradient id="linear-gradient-3" x1="29.213" y1="280.359" x2="12.95" y2="280.852" xlink:href="#linear-gradient"/><filter id="luminosity-noclip-4" x="288.005" y="-8372" width="34.994" height="32766" filterUnits="userSpaceOnUse" color-interpolation-filters="sRGB"><feFlood flood-color="#fff" result="bg"/><feBlend in="SourceGraphic" in2="bg"/></filter><mask id="mask-4" x="288.005" y="-8372" width="34.994" height="32766" maskUnits="userSpaceOnUse"><g class="cls-53"/></mask><linearGradient id="linear-gradient-4" x1="319.299" y1="281.319" x2="284.552" y2="277.623" xlink:href="#linear-gradient"/><filter id="luminosity-noclip-5" x="34.958" y="-8372" width="279.626" height="32766" filterUnits="userSpaceOnUse" color-interpolation-filters="sRGB"><feFlood flood-color="#fff" result="bg"/><feBlend in="SourceGraphic" in2="bg"/></filter><mask id="mask-5" x="34.958" y="-8372" width="279.626" height="32766" maskUnits="userSpaceOnUse"><g class="cls-52"/></mask><linearGradient id="linear-gradient-5" x1="174.771" y1="293.02" x2="174.771" y2="324.246" gradientUnits="userSpaceOnUse"><stop offset="0.051"/><stop offset="0.201" stop-color="#242424"/><stop offset="0.533" stop-color="#7f7f7f"/><stop offset="0.973" stop-color="#fff"/></linearGradient><filter id="luminosity-noclip-6" x="5.446" y="-8372" width="73.765" height="32766" filterUnits="userSpaceOnUse" color-interpolation-filters="sRGB"><feFlood flood-color="#fff" result="bg"/><feBlend in="SourceGraphic" in2="bg"/></filter><mask id="mask-6" x="5.446" y="-8372" width="73.765" height="32766" maskUnits="userSpaceOnUse"><g class="cls-51"/></mask><linearGradient id="linear-gradient-6" x1="75.465" y1="250.08" x2="19.278" y2="255.994" xlink:href="#linear-gradient-2"/><filter id="luminosity-noclip-7" x="274.519" y="-8372" width="66.034" height="32766" filterUnits="userSpaceOnUse" color-interpolation-filters="sRGB"><feFlood flood-color="#fff" result="bg"/><feBlend in="SourceGraphic" in2="bg"/></filter><mask id="mask-7" x="274.519" y="-8372" width="66.034" height="32766" maskUnits="userSpaceOnUse"><g class="cls-50"/></mask><linearGradient id="linear-gradient-7" x1="275.851" y1="250.28" x2="328.341" y2="259.152" xlink:href="#linear-gradient-2"/><filter id="luminosity-noclip-8" x="17.4" y="-8372" width="33.283" height="32766" filterUnits="userSpaceOnUse" color-interpolation-filters="sRGB"><feFlood flood-color="#fff" result="bg"/><feBlend in="SourceGraphic" in2="bg"/></filter><mask id="mask-8" x="17.4" y="-8372" width="33.283" height="32766" maskUnits="userSpaceOnUse"><g class="cls-49"/></mask><linearGradient id="linear-gradient-8" x1="31.36" y1="186.211" x2="35.796" y2="222.439" xlink:href="#linear-gradient-2"/><mask id="mask-9" x="82.146" y="27.927" width="180" height="214.436" maskUnits="userSpaceOnUse"><g class="cls-1"><path class="cls-2" d="M82.146,235.927V87.26l89.333-59.333,90.667,56S200.813,279.927,82.146,235.927Z"/></g></mask><linearGradient id="linear-gradient-9" x1="206.221" y1="236.118" x2="98.888" y2="-3.882" gradientUnits="userSpaceOnUse"><stop offset="0.051" stop-color="#cbd7d3"/><stop offset="0.565" stop-color="#fbfcfb"/><stop offset="0.608" stop-color="#fff"/></linearGradient><filter id="luminosity-noclip-9" x="34.958" y="271.668" width="279.626" height="56.398" filterUnits="userSpaceOnUse" color-interpolation-filters="sRGB"><feFlood flood-color="#fff" result="bg"/><feBlend in="SourceGraphic" in2="bg"/></filter><mask id="mask-10" x="34.958" y="271.668" width="279.626" height="56.398" maskUnits="userSpaceOnUse"><g class="cls-9"><path class="cls-10" d="M128.617,296.634c-27.074-.849-54.423-3.522-80.567-10.9q-6.6-1.861-13.092-4.16c8.535,24.041,16.106,46.466,16.109,46.475.084.252,12.257-2.138,21.526-3.982a31.3,31.3,0,0,1,.061-6.235c.056-.322.47-.232.567,0a27.009,27.009,0,0,1,1.532,5.806c4.278-.853,7.565-1.513,8.085-1.6.228-.039.458-.076.686-.114.453-3.847.3-7.755,1.016-11.573.058-.3.487-.262.567,0a42.343,42.343,0,0,1,2.013,10.969c8.186-1.366,16.4-2.653,24.627-3.8a34.887,34.887,0,0,1,.823-5.262.3.3,0,0,1,.566,0c.426,1.627.792,3.267,1.2,4.9q8.578-1.163,17.182-2.062c.075-2.248.306-4.484.555-6.72.034-.305.509-.43.577-.078.428,2.184.779,4.388,1.331,6.541,2.84-.282,5.681-.548,8.525-.776q5.781-.465,11.6-.763c.355-2.693.575-5.4,1.022-8.085a.3.3,0,0,1,.536-.068,24.443,24.443,0,0,1,2.083,7.981q7.359-.314,14.722-.349c.16-1.008.36-2.01.562-3.014.064-.314.472-.243.567,0a21.553,21.553,0,0,1,.843,3.021c.982,0,1.964,0,2.944.011q9.753.107,19.488.708a28.38,28.38,0,0,1,.812-5.648.3.3,0,0,1,.567,0,52.279,52.279,0,0,1,1.088,5.8q11.909.8,23.753,2.351c6.492.853,12.694,1.733,18.545,2.606a5.32,5.32,0,0,0,.257-.938,23.009,23.009,0,0,1,.4-2.631,51.134,51.134,0,0,0,1.467-6.164c.055-.351.547-.225.577.078.33,3.392.5,6.794.809,10.187,6.305.963,12.154,1.916,17.47,2.819.341-1.519.624-3.051.955-4.572a.294.294,0,0,1,.576.078c.008,1.6.082,3.191.173,4.785,18.952,3.252,30.61,5.794,30.61,5.794s9.785-28.985,19.651-56.38C254.669,290.743,191.405,298.6,128.617,296.634Z"/></g></mask><linearGradient id="linear-gradient-10" x1="174.771" y1="293.02" x2="174.771" y2="324.246" gradientUnits="userSpaceOnUse"><stop offset="0.051" stop-color="#cbd7d3"/><stop offset="0.245" stop-color="#bdc0af"/><stop offset="0.672" stop-color="#998556"/><stop offset="0.973" stop-color="#7f5913"/></linearGradient><mask id="mask-11" x="5.446" y="174.247" width="73.765" height="153.819" maskUnits="userSpaceOnUse"><g class="cls-11"><path class="cls-12" d="M74.21,175.051c-.176.687-.356,1.374-.548,2.057-.076.262-.517.3-.567,0l-.3-1.818c-5.308.908-10.5,1.916-15.489,3.039a20.147,20.147,0,0,1-.371,5.971.3.3,0,0,1-.566,0,48.89,48.89,0,0,1-1.329-5.449,155.11,155.11,0,0,0-26.7,8.512,14.3,14.3,0,0,1-.163,4.714.3.3,0,0,1-.536.07,13.481,13.481,0,0,1-1.758-3.65C14.423,193.978,6.79,200.864,5.446,209.52a28.427,28.427,0,0,0,6.806,14.713c6.081,6.862,38.808,103.8,38.815,103.815.084.252,12.258-2.138,21.526-3.982a31.3,31.3,0,0,1,.061-6.235c.056-.322.47-.232.567,0a27.009,27.009,0,0,1,1.532,5.806c1.671-.334,3.195-.639,4.458-.89v-148.5Q76.694,174.634,74.21,175.051Z"/></g></mask><linearGradient id="linear-gradient-11" x1="75.465" y1="250.08" x2="19.278" y2="255.994" gradientUnits="userSpaceOnUse"><stop offset="0.051" stop-color="#cbd7d3"/><stop offset="0.103" stop-color="#c6cec6"/><stop offset="0.417" stop-color="#a89d7a"/><stop offset="0.677" stop-color="#927842"/><stop offset="0.869" stop-color="#846220"/><stop offset="0.973" stop-color="#7f5913"/></linearGradient><mask id="mask-12" x="274.519" y="175.513" width="66.034" height="152.535" maskUnits="userSpaceOnUse"><g class="cls-13"><path class="cls-14" d="M319.667,188.274a23.271,23.271,0,0,1-2.873,5.927c-.159.215-.565.172-.549-.147.12-2.369.241-4.739.492-7.1-3.078-1.319-6.384-2.55-9.881-3.7a83.2,83.2,0,0,1-3.564,10.062c-.126.292-.529.115-.547-.146a82.794,82.794,0,0,1-.172-11.257,251.184,251.184,0,0,0-28.054-6.4V324.056c12.851,2.342,20.414,3.992,20.414,3.992s32.734-96.953,38.815-103.815a28.427,28.427,0,0,0,6.806-14.713C339.191,200.747,331.376,193.791,319.667,188.274Z"/></g></mask><linearGradient id="linear-gradient-12" x1="275.851" y1="250.28" x2="328.341" y2="259.152" xlink:href="#linear-gradient-11"/><mask id="mask-13" x="17.4" y="201.386" width="33.283" height="19.425" maskUnits="userSpaceOnUse"><g class="cls-15"><path class="cls-16" d="M47.77,202.663c-.4,1.713-.821,3.419-1.062,5.164-.041.3-.495.26-.565,0-.521-1.91-.172-3.877-.269-5.812a30.121,30.121,0,0,0-5.749-.618c-.04.717-.073,1.433-.156,2.147a.3.3,0,0,1-.576.078c-.235-.736-.411-1.486-.592-2.236a40.7,40.7,0,0,0-16.829,3.51s-3.623,1.57-4.524,4.341a2.107,2.107,0,0,0,1.475,2.5c3.384,1.452,15.843-2.3,15.843-2.3L36.1,220.81a28.548,28.548,0,0,0,10.962-6.852l2.893-4.846S52.612,205.025,47.77,202.663Z"/></g></mask><linearGradient id="linear-gradient-13" x1="31.36" y1="186.211" x2="35.796" y2="222.439" xlink:href="#linear-gradient-11"/><mask id="mask-14" x="295.319" y="201.385" width="33.281" height="19.426" maskUnits="userSpaceOnUse"><g class="cls-3"><path class="cls-4" d="M328.552,209.237c-.9-2.771-4.524-4.341-4.524-4.341-6.974-3.343-15.445-3.84-20.791-3.35-.15.985-.23,1.978-.3,2.976a.294.294,0,0,1-.587,0c-.064-.953-.164-1.9-.275-2.85a16.034,16.034,0,0,0-2.983.626c.007.642.073,1.287.03,1.93-.019.265-.414.435-.547.149a10.784,10.784,0,0,1-.555-1.607,4.27,4.27,0,0,0-1.98,6.342l2.892,4.846A28.548,28.548,0,0,0,309.9,220.81l1.333-11.375s12.46,3.753,15.844,2.3A2.107,2.107,0,0,0,328.552,209.237Z"/></g></mask><linearGradient id="linear-gradient-14" x1="314.748" y1="184.533" x2="310.682" y2="218.913" xlink:href="#linear-gradient-11"/><mask id="mask-15" x="8.176" y="216.119" width="29.086" height="129.022" maskUnits="userSpaceOnUse"><g class="cls-5"><path class="cls-6" d="M30.977,270.973c-3.059-23.611-4.2-41.5-4.551-48.018a45.427,45.427,0,0,1-8.249-2.029q-1.363-.481-2.708-1.017c-.049,1.456-.056,2.915-.056,4.374,0,.323-.52.412-.577.078-.3-1.774-.78-3.507-1.249-5.242-.651-.287-1.3-.584-1.932-.9-1.145-.574-2.292-1.4-3.479-2.1a324.511,324.511,0,0,1,10.05,65.388c1.848,36.966-2.957,58.22-2.957,58.22s.205.193.6.5c.435-1.433.919-2.854,1.317-4.3a.3.3,0,0,1,.577.078,46.313,46.313,0,0,1,.148,5.587,24.84,24.84,0,0,0,5.229,2.276c.107-.493.213-.987.307-1.484a.3.3,0,0,1,.567,0c.16.612.3,1.229.43,1.847a31.877,31.877,0,0,0,12.82.484S34.86,300.915,30.977,270.973Z"/></g></mask><linearGradient id="linear-gradient-15" x1="29.213" y1="280.359" x2="12.95" y2="280.852" xlink:href="#linear-gradient-9"/><mask id="mask-16" x="288.005" y="214.109" width="34.994" height="130.855" maskUnits="userSpaceOnUse"><g class="cls-7"><path class="cls-8" d="M298.6,214.109s5.915,41.647.987,74.423-11.584,41.4-11.584,41.4a22.175,22.175,0,0,0,2.905,5.323c.409-1.361.781-2.737,1.279-4.071a.3.3,0,0,1,.578.079c-.028,1.915-.3,3.814-.493,5.715A23.537,23.537,0,0,0,302,343.76c.142-.526.267-1.047.384-1.542.477-2,.808-4.035,1.254-6.043a.3.3,0,0,1,.567,0,66.57,66.57,0,0,1,1,8.536q.628.139,1.282.253s5.175-7.393,8.378-39.922S323,221.5,323,221.5,309.445,223.228,298.6,214.109Z"/></g></mask><linearGradient id="linear-gradient-16" x1="319.299" y1="281.319" x2="284.552" y2="277.623" xlink:href="#linear-gradient-9"/></defs><g class="cls-17"><g id="Layer_1" data-name="Layer 1"><path class="cls-18" d="M276.736,232.25V80c-.25-4.5-2.75-6.5-2.75-6.5L178.51,12.434,175.486,10.5A13,13,0,0,0,173,9.211a13,13,0,0,0-2.486,1.289l-3.024,1.934L72.014,73.5s-2.5,2-2.75,6.5V232.25s-1.25,27.5,12.75,43,87,75.25,87,75.25a7.2,7.2,0,0,0,2.489,1.106c.167.042.331.078.494.1.07.012.144.02.216.029.151.02.3.033.447.041.111.006.225.009.34.009s.228,0,.34-.009c.146-.008.3-.021.447-.041.072-.009.146-.017.216-.029.163-.026.327-.062.494-.1a7.2,7.2,0,0,0,2.489-1.106s73-59.75,87-75.25S276.736,232.25,276.736,232.25Z"/><path class="cls-19" d="M269.294,227.954V86.627a8.457,8.457,0,0,0-2.553-6.033L178.114,23.908l-2.806-1.8a12.092,12.092,0,0,0-2.308-1.2,12.092,12.092,0,0,0-2.308,1.2l-2.806,1.8L79.26,80.594a8.451,8.451,0,0,0-2.554,6.033V227.954s-1.159,25.526,11.835,39.915S169.3,337.721,169.3,337.721a6.69,6.69,0,0,0,2.311,1.026c.156.039.308.072.459.1.066.01.133.018.2.027.141.018.28.031.416.037q.155.009.315.009t.315-.009c.136-.006.275-.019.415-.037.068-.009.135-.017.2-.027.151-.025.3-.058.459-.1a6.69,6.69,0,0,0,2.311-1.026s67.762-55.463,80.758-69.852S269.294,227.954,269.294,227.954Z"/><path class="cls-20" d="M267.683,226.831V87.87a8.317,8.317,0,0,0-2.511-5.931L178.029,26.2l-2.76-1.763A11.752,11.752,0,0,0,173,23.261a11.752,11.752,0,0,0-2.269,1.177L167.972,26.2,80.829,81.939a8.313,8.313,0,0,0-2.511,5.931V226.831s-1.139,25.1,11.637,39.247,79.406,68.682,79.406,68.682a6.581,6.581,0,0,0,2.273,1.01c.153.038.3.071.451.1.064.01.131.018.2.026.138.017.275.031.408.037.1.006.2.008.31.008s.209,0,.31-.008c.133-.006.27-.02.409-.037.066-.008.133-.016.2-.026.148-.024.3-.057.451-.1a6.581,6.581,0,0,0,2.274-1.01s66.627-54.533,79.405-68.682S267.683,226.831,267.683,226.831Z"/><path class="cls-21" d="M276.736,232.25V80c-.25-4.5-2.75-6.5-2.75-6.5L178.51,12.434,175.486,10.5A13,13,0,0,0,173,9.211c-.244.093-.5.205-.762.327v342.2c.143.019.284.031.422.039.111.006.225.009.34.009s.228,0,.34-.009c.146-.008.3-.021.447-.041.072-.009.146-.017.216-.029.163-.026.327-.062.494-.1a7.2,7.2,0,0,0,2.489-1.106s73-59.75,87-75.25S276.736,232.25,276.736,232.25Z"/><path class="cls-21" d="M174.792,16.577a2.547,2.547,0,1,1-2.546-2.546A2.547,2.547,0,0,1,174.792,16.577Z"/><path class="cls-22" d="M174.792,16.35a2.547,2.547,0,1,1-2.546-2.546A2.546,2.546,0,0,1,174.792,16.35Z"/><path class="cls-23" d="M170.307,18.011a2.552,2.552,0,0,0,4.238-.547,2.286,2.286,0,0,1-2.01,1.492A2.215,2.215,0,0,1,170.307,18.011Z"/><path class="cls-24" d="M169.931,17.291a2.985,2.985,0,0,1,.732-2.767,2.574,2.574,0,0,1,3.518.257,2.624,2.624,0,0,0-1.074-.192A3.011,3.011,0,0,0,169.931,17.291Z"/><path class="cls-21" d="M143.359,35.153a2.546,2.546,0,1,1-2.546-2.546A2.546,2.546,0,0,1,143.359,35.153Z"/><path class="cls-22" d="M143.359,34.926a2.546,2.546,0,1,1-2.546-2.546A2.546,2.546,0,0,1,143.359,34.926Z"/><path class="cls-23" d="M138.874,36.587a2.551,2.551,0,0,0,4.238-.547,2.284,2.284,0,0,1-2.01,1.492A2.215,2.215,0,0,1,138.874,36.587Z"/><path class="cls-24" d="M138.5,35.867a2.987,2.987,0,0,1,.732-2.766,2.574,2.574,0,0,1,3.518.256,2.621,2.621,0,0,0-1.073-.192A3.011,3.011,0,0,0,138.5,35.867Z"/><path class="cls-21" d="M109.5,56.249a2.547,2.547,0,1,1-2.546-2.546A2.547,2.547,0,0,1,109.5,56.249Z"/><path class="cls-22" d="M109.5,56.021a2.547,2.547,0,1,1-2.546-2.545A2.546,2.546,0,0,1,109.5,56.021Z"/><path class="cls-23" d="M105.013,57.683a2.552,2.552,0,0,0,4.238-.547,2.286,2.286,0,0,1-2.01,1.492A2.216,2.216,0,0,1,105.013,57.683Z"/><path class="cls-24" d="M104.637,56.963a2.985,2.985,0,0,1,.732-2.767,2.574,2.574,0,0,1,3.518.257,2.624,2.624,0,0,0-1.074-.192A3.011,3.011,0,0,0,104.637,56.963Z"/><path class="cls-21" d="M78.359,76.986a2.546,2.546,0,1,1-2.546-2.546A2.546,2.546,0,0,1,78.359,76.986Z"/><path class="cls-22" d="M78.359,76.759a2.546,2.546,0,1,1-2.546-2.546A2.546,2.546,0,0,1,78.359,76.759Z"/><path class="cls-23" d="M73.874,78.42a2.551,2.551,0,0,0,4.238-.547,2.284,2.284,0,0,1-2.01,1.492A2.215,2.215,0,0,1,73.874,78.42Z"/><path class="cls-24" d="M73.5,77.7a2.987,2.987,0,0,1,.732-2.766,2.574,2.574,0,0,1,3.518.256A2.621,2.621,0,0,0,76.675,75,3.011,3.011,0,0,0,73.5,77.7Z"/><path class="cls-21" d="M76.109,116.986a2.546,2.546,0,1,1-2.546-2.546A2.546,2.546,0,0,1,76.109,116.986Z"/><path class="cls-22" d="M76.109,116.759a2.546,2.546,0,1,1-2.546-2.546A2.546,2.546,0,0,1,76.109,116.759Z"/><path class="cls-23" d="M71.624,118.42a2.551,2.551,0,0,0,4.238-.547,2.284,2.284,0,0,1-2.01,1.492A2.215,2.215,0,0,1,71.624,118.42Z"/><path class="cls-24" d="M71.248,117.7a2.987,2.987,0,0,1,.732-2.766,2.574,2.574,0,0,1,3.518.256A2.621,2.621,0,0,0,74.425,115,3.011,3.011,0,0,0,71.248,117.7Z"/><path class="cls-21" d="M76.109,163.986a2.546,2.546,0,1,1-2.546-2.546A2.546,2.546,0,0,1,76.109,163.986Z"/><path class="cls-22" d="M76.109,163.759a2.546,2.546,0,1,1-2.546-2.546A2.546,2.546,0,0,1,76.109,163.759Z"/><path class="cls-23" d="M71.624,165.42a2.551,2.551,0,0,0,4.238-.547,2.284,2.284,0,0,1-2.01,1.492A2.215,2.215,0,0,1,71.624,165.42Z"/><path class="cls-24" d="M71.248,164.7a2.987,2.987,0,0,1,.732-2.766,2.574,2.574,0,0,1,3.518.256A2.621,2.621,0,0,0,74.425,162,3.011,3.011,0,0,0,71.248,164.7Z"/><path class="cls-21" d="M76.109,221.736a2.546,2.546,0,1,1-2.546-2.546A2.546,2.546,0,0,1,76.109,221.736Z"/><path class="cls-22" d="M76.109,221.509a2.546,2.546,0,1,1-2.546-2.546A2.546,2.546,0,0,1,76.109,221.509Z"/><path class="cls-23" d="M71.624,223.17a2.551,2.551,0,0,0,4.238-.547,2.284,2.284,0,0,1-2.01,1.492A2.215,2.215,0,0,1,71.624,223.17Z"/><path class="cls-24" d="M71.248,222.45a2.986,2.986,0,0,1,.732-2.766,2.574,2.574,0,0,1,3.518.256,2.621,2.621,0,0,0-1.073-.192A3.011,3.011,0,0,0,71.248,222.45Z"/><path class="cls-21" d="M83.5,265.5a2.547,2.547,0,1,1-2.546-2.546A2.547,2.547,0,0,1,83.5,265.5Z"/><path class="cls-22" d="M83.5,265.271a2.547,2.547,0,1,1-2.546-2.546A2.546,2.546,0,0,1,83.5,265.271Z"/><path class="cls-23" d="M79.013,266.932a2.552,2.552,0,0,0,4.238-.547,2.286,2.286,0,0,1-2.01,1.492A2.216,2.216,0,0,1,79.013,266.932Z"/><path class="cls-24" d="M78.637,266.212a2.985,2.985,0,0,1,.732-2.767,2.574,2.574,0,0,1,3.518.257,2.624,2.624,0,0,0-1.074-.192A3.011,3.011,0,0,0,78.637,266.212Z"/><path class="cls-21" d="M117.359,297.736a2.546,2.546,0,1,1-2.546-2.546A2.546,2.546,0,0,1,117.359,297.736Z"/><path class="cls-22" d="M117.359,297.509a2.546,2.546,0,1,1-2.546-2.546A2.546,2.546,0,0,1,117.359,297.509Z"/><path class="cls-23" d="M112.874,299.17a2.551,2.551,0,0,0,4.238-.547,2.284,2.284,0,0,1-2.01,1.492A2.215,2.215,0,0,1,112.874,299.17Z"/><path class="cls-24" d="M112.5,298.45a2.986,2.986,0,0,1,.732-2.766,2.574,2.574,0,0,1,3.518.256,2.621,2.621,0,0,0-1.073-.192A3.011,3.011,0,0,0,112.5,298.45Z"/><path class="cls-21" d="M156.609,331.236a2.546,2.546,0,1,1-2.546-2.546A2.546,2.546,0,0,1,156.609,331.236Z"/><path class="cls-22" d="M156.609,331.009a2.546,2.546,0,1,1-2.546-2.546A2.546,2.546,0,0,1,156.609,331.009Z"/><path class="cls-23" d="M152.124,332.67a2.551,2.551,0,0,0,4.238-.547,2.284,2.284,0,0,1-2.01,1.492A2.215,2.215,0,0,1,152.124,332.67Z"/><path class="cls-24" d="M151.748,331.95a2.986,2.986,0,0,1,.732-2.766,2.574,2.574,0,0,1,3.518.256,2.621,2.621,0,0,0-1.073-.192A3.011,3.011,0,0,0,151.748,331.95Z"/><path class="cls-21" d="M203.236,35.153a2.547,2.547,0,1,0,2.546-2.546A2.546,2.546,0,0,0,203.236,35.153Z"/><path class="cls-22" d="M203.236,34.926a2.547,2.547,0,1,0,2.546-2.546A2.547,2.547,0,0,0,203.236,34.926Z"/><path class="cls-23" d="M207.722,36.587a2.552,2.552,0,0,1-4.239-.547,2.286,2.286,0,0,0,2.01,1.492A2.218,2.218,0,0,0,207.722,36.587Z"/><path class="cls-24" d="M208.1,35.867a2.985,2.985,0,0,0-.733-2.766,2.572,2.572,0,0,0-3.517.256,2.621,2.621,0,0,1,1.073-.192A3.012,3.012,0,0,1,208.1,35.867Z"/><path class="cls-21" d="M237.1,56.249a2.546,2.546,0,1,0,2.546-2.546A2.546,2.546,0,0,0,237.1,56.249Z"/><path class="cls-22" d="M237.1,56.021a2.546,2.546,0,1,0,2.546-2.545A2.546,2.546,0,0,0,237.1,56.021Z"/><path class="cls-23" d="M241.583,57.683a2.552,2.552,0,0,1-4.238-.547,2.284,2.284,0,0,0,2.009,1.492A2.217,2.217,0,0,0,241.583,57.683Z"/><path class="cls-24" d="M241.959,56.963a2.988,2.988,0,0,0-.732-2.767,2.574,2.574,0,0,0-3.518.257,2.621,2.621,0,0,1,1.073-.192A3.011,3.011,0,0,1,241.959,56.963Z"/><path class="cls-21" d="M268.236,76.986a2.547,2.547,0,1,0,2.546-2.546A2.546,2.546,0,0,0,268.236,76.986Z"/><path class="cls-22" d="M268.236,76.759a2.547,2.547,0,1,0,2.546-2.546A2.547,2.547,0,0,0,268.236,76.759Z"/><path class="cls-23" d="M272.722,78.42a2.552,2.552,0,0,1-4.239-.547,2.286,2.286,0,0,0,2.01,1.492A2.218,2.218,0,0,0,272.722,78.42Z"/><path class="cls-24" d="M273.1,77.7a2.985,2.985,0,0,0-.733-2.766,2.572,2.572,0,0,0-3.517.256A2.621,2.621,0,0,1,269.921,75,3.012,3.012,0,0,1,273.1,77.7Z"/><path class="cls-21" d="M270.486,116.986a2.547,2.547,0,1,0,2.546-2.546A2.546,2.546,0,0,0,270.486,116.986Z"/><path class="cls-22" d="M270.486,116.759a2.547,2.547,0,1,0,2.546-2.546A2.547,2.547,0,0,0,270.486,116.759Z"/><path class="cls-23" d="M274.972,118.42a2.552,2.552,0,0,1-4.239-.547,2.286,2.286,0,0,0,2.01,1.492A2.218,2.218,0,0,0,274.972,118.42Z"/><path class="cls-24" d="M275.348,117.7a2.985,2.985,0,0,0-.733-2.766,2.572,2.572,0,0,0-3.517.256,2.621,2.621,0,0,1,1.073-.192A3.012,3.012,0,0,1,275.348,117.7Z"/><path class="cls-21" d="M270.486,163.986a2.547,2.547,0,1,0,2.546-2.546A2.546,2.546,0,0,0,270.486,163.986Z"/><path class="cls-22" d="M270.486,163.759a2.547,2.547,0,1,0,2.546-2.546A2.547,2.547,0,0,0,270.486,163.759Z"/><path class="cls-23" d="M274.972,165.42a2.552,2.552,0,0,1-4.239-.547,2.286,2.286,0,0,0,2.01,1.492A2.218,2.218,0,0,0,274.972,165.42Z"/><path class="cls-24" d="M275.348,164.7a2.985,2.985,0,0,0-.733-2.766,2.572,2.572,0,0,0-3.517.256,2.621,2.621,0,0,1,1.073-.192A3.012,3.012,0,0,1,275.348,164.7Z"/><path class="cls-21" d="M270.486,221.736a2.547,2.547,0,1,0,2.546-2.546A2.546,2.546,0,0,0,270.486,221.736Z"/><path class="cls-22" d="M270.486,221.509a2.547,2.547,0,1,0,2.546-2.546A2.547,2.547,0,0,0,270.486,221.509Z"/><path class="cls-23" d="M274.972,223.17a2.552,2.552,0,0,1-4.239-.547,2.286,2.286,0,0,0,2.01,1.492A2.218,2.218,0,0,0,274.972,223.17Z"/><path class="cls-24" d="M275.348,222.45a2.985,2.985,0,0,0-.733-2.766,2.572,2.572,0,0,0-3.517.256,2.621,2.621,0,0,1,1.073-.192A3.012,3.012,0,0,1,275.348,222.45Z"/><path class="cls-21" d="M263.1,265.5a2.546,2.546,0,1,0,2.546-2.546A2.546,2.546,0,0,0,263.1,265.5Z"/><path class="cls-22" d="M263.1,265.271a2.546,2.546,0,1,0,2.546-2.546A2.546,2.546,0,0,0,263.1,265.271Z"/><path class="cls-23" d="M267.583,266.932a2.552,2.552,0,0,1-4.238-.547,2.284,2.284,0,0,0,2.009,1.492A2.217,2.217,0,0,0,267.583,266.932Z"/><path class="cls-24" d="M267.959,266.212a2.988,2.988,0,0,0-.732-2.767,2.574,2.574,0,0,0-3.518.257,2.621,2.621,0,0,1,1.073-.192A3.011,3.011,0,0,1,267.959,266.212Z"/><path class="cls-21" d="M229.236,297.736a2.547,2.547,0,1,0,2.546-2.546A2.546,2.546,0,0,0,229.236,297.736Z"/><path class="cls-22" d="M229.236,297.509a2.547,2.547,0,1,0,2.546-2.546A2.547,2.547,0,0,0,229.236,297.509Z"/><path class="cls-23" d="M233.722,299.17a2.552,2.552,0,0,1-4.239-.547,2.286,2.286,0,0,0,2.01,1.492A2.218,2.218,0,0,0,233.722,299.17Z"/><path class="cls-24" d="M234.1,298.45a2.985,2.985,0,0,0-.733-2.766,2.572,2.572,0,0,0-3.517.256,2.621,2.621,0,0,1,1.073-.192A3.012,3.012,0,0,1,234.1,298.45Z"/><path class="cls-21" d="M189.986,331.236a2.547,2.547,0,1,0,2.546-2.546A2.546,2.546,0,0,0,189.986,331.236Z"/><path class="cls-22" d="M189.986,331.009a2.547,2.547,0,1,0,2.546-2.546A2.547,2.547,0,0,0,189.986,331.009Z"/><path class="cls-23" d="M194.472,332.67a2.552,2.552,0,0,1-4.239-.547,2.286,2.286,0,0,0,2.01,1.492A2.218,2.218,0,0,0,194.472,332.67Z"/><path class="cls-24" d="M194.848,331.95a2.985,2.985,0,0,0-.733-2.766,2.572,2.572,0,0,0-3.517.256,2.621,2.621,0,0,1,1.073-.192A3.012,3.012,0,0,1,194.848,331.95Z"/><g class="cls-25"><polygon class="cls-26" points="187.182 296.356 195.239 297.927 190.429 302.249 183.427 298.254 187.182 296.356"/><polygon class="cls-26" points="165.569 317.46 169.764 315.09 169.261 318.852 164.623 319.734 165.569 317.46"/><polygon class="cls-26" points="155.833 309.929 159.331 312.055 163.087 312.039 159.072 315.278 155.313 314.76 155.833 309.929"/><polygon class="cls-26" points="183.271 316.507 185.204 317.685 187.275 317.673 185.06 319.463 182.987 319.175 183.271 316.507"/><polygon class="cls-26" points="198.62 311.063 200.554 312.237 202.633 312.23 200.416 314.019 198.342 313.73 198.62 311.063"/><polygon class="cls-26" points="183.248 328.214 185.185 329.387 187.259 329.384 185.045 331.17 182.967 330.879 183.248 328.214"/><polygon class="cls-26" points="143.234 303.543 144.803 306.214 141.49 308.648 139.696 304.63 143.234 303.543"/><polygon class="cls-26" points="208.165 308.879 208.991 310.291 207.242 311.567 206.303 309.454 208.165 308.879"/><polygon class="cls-26" points="191.923 307.612 192.75 309.023 191.007 310.3 190.06 308.188 191.923 307.612"/><polygon class="cls-26" points="149.162 317.135 152.439 321.155 147.629 323.174 146.208 317.48 149.162 317.135"/><polygon class="cls-26" points="126.83 311.063 127.653 312.477 125.903 313.753 124.963 311.638 126.83 311.063"/><polygon class="cls-26" points="197.649 298.924 198.478 300.335 196.726 301.612 195.792 299.498 197.649 298.924"/><polygon class="cls-26" points="149.107 309.615 149.924 311.022 148.185 312.31 147.24 310.19 149.107 309.615"/><polygon class="cls-26" points="172.7 298.375 176.206 300.505 179.964 300.488 175.951 303.729 172.188 303.213 172.7 298.375"/><polygon class="cls-26" points="159.279 301.586 160.105 302.996 158.361 304.273 157.417 302.164 159.279 301.586"/></g><g class="cls-25"><polygon class="cls-26" points="242.682 257.356 250.739 258.927 245.929 263.249 238.927 259.254 242.682 257.356"/><polygon class="cls-26" points="221.069 278.46 225.264 276.09 224.761 279.852 220.123 280.734 221.069 278.46"/><polygon class="cls-26" points="211.333 270.929 214.831 273.055 218.587 273.039 214.572 276.278 210.813 275.76 211.333 270.929"/><polygon class="cls-26" points="238.771 277.507 240.704 278.685 242.775 278.673 240.56 280.463 238.487 280.175 238.771 277.507"/><polygon class="cls-26" points="254.12 272.063 256.054 273.237 258.133 273.23 255.916 275.019 253.842 274.73 254.12 272.063"/><polygon class="cls-26" points="238.748 289.214 240.685 290.387 242.759 290.384 240.545 292.17 238.467 291.879 238.748 289.214"/><polygon class="cls-26" points="198.734 264.543 200.303 267.214 196.99 269.648 195.196 265.63 198.734 264.543"/><polygon class="cls-26" points="263.665 269.879 264.491 271.291 262.742 272.567 261.803 270.454 263.665 269.879"/><polygon class="cls-26" points="247.423 268.612 248.25 270.023 246.507 271.3 245.56 269.188 247.423 268.612"/><polygon class="cls-26" points="204.662 278.135 207.939 282.155 203.129 284.174 201.708 278.48 204.662 278.135"/><polygon class="cls-26" points="182.33 272.063 183.153 273.477 181.403 274.753 180.463 272.638 182.33 272.063"/><polygon class="cls-26" points="253.149 259.924 253.978 261.335 252.226 262.612 251.292 260.498 253.149 259.924"/><polygon class="cls-26" points="204.607 270.615 205.424 272.022 203.685 273.31 202.74 271.19 204.607 270.615"/><polygon class="cls-26" points="228.2 259.375 231.706 261.505 235.464 261.488 231.451 264.729 227.688 264.213 228.2 259.375"/><polygon class="cls-26" points="214.779 262.586 215.605 263.996 213.861 265.273 212.917 263.164 214.779 262.586"/></g><g class="cls-25"><polygon class="cls-26" points="151.182 259.356 159.239 260.927 154.429 265.249 147.427 261.254 151.182 259.356"/><polygon class="cls-26" points="129.569 280.46 133.764 278.09 133.261 281.852 128.623 282.734 129.569 280.46"/><polygon class="cls-26" points="119.833 272.929 123.331 275.055 127.087 275.039 123.072 278.278 119.313 277.76 119.833 272.929"/><polygon class="cls-26" points="147.271 279.507 149.204 280.685 151.275 280.673 149.06 282.463 146.987 282.175 147.271 279.507"/><polygon class="cls-26" points="162.62 274.063 164.554 275.237 166.633 275.23 164.416 277.019 162.342 276.73 162.62 274.063"/><polygon class="cls-26" points="147.248 291.214 149.185 292.387 151.259 292.384 149.045 294.17 146.967 293.879 147.248 291.214"/><polygon class="cls-26" points="107.234 266.543 108.803 269.214 105.49 271.648 103.696 267.63 107.234 266.543"/><polygon class="cls-26" points="172.165 271.879 172.991 273.291 171.242 274.567 170.303 272.454 172.165 271.879"/><polygon class="cls-26" points="155.923 270.612 156.75 272.023 155.007 273.3 154.06 271.188 155.923 270.612"/><polygon class="cls-26" points="113.162 280.135 116.439 284.155 111.629 286.174 110.208 280.48 113.162 280.135"/><polygon class="cls-26" points="90.83 274.063 91.653 275.477 89.903 276.753 88.963 274.638 90.83 274.063"/><polygon class="cls-26" points="161.649 261.924 162.478 263.335 160.726 264.612 159.792 262.498 161.649 261.924"/><polygon class="cls-26" points="113.107 272.615 113.924 274.022 112.185 275.31 111.24 273.19 113.107 272.615"/><polygon class="cls-26" points="136.7 261.375 140.206 263.505 143.964 263.488 139.951 266.729 136.188 266.213 136.7 261.375"/><polygon class="cls-26" points="123.279 264.586 124.105 265.996 122.361 267.273 121.417 265.164 123.279 264.586"/></g><g class="cls-25"><polygon class="cls-26" points="186.182 217.628 194.239 219.198 189.429 223.521 182.427 219.525 186.182 217.628"/><polygon class="cls-26" points="164.569 238.731 168.764 236.361 168.261 240.123 163.623 241.006 164.569 238.731"/><polygon class="cls-26" points="154.833 231.2 158.331 233.326 162.087 233.31 158.072 236.55 154.313 236.031 154.833 231.2"/><polygon class="cls-26" points="182.271 237.778 184.204 238.957 186.275 238.944 184.06 240.734 181.987 240.446 182.271 237.778"/><polygon class="cls-26" points="197.62 232.334 199.554 233.509 201.633 233.502 199.416 235.29 197.342 235.002 197.62 232.334"/><polygon class="cls-26" points="182.248 249.485 184.185 250.658 186.259 250.655 184.045 252.441 181.967 252.15 182.248 249.485"/><polygon class="cls-26" points="142.234 224.815 143.803 227.485 140.49 229.92 138.696 225.901 142.234 224.815"/><polygon class="cls-26" points="207.165 230.15 207.991 231.563 206.242 232.839 205.303 230.726 207.165 230.15"/><polygon class="cls-26" points="190.923 228.884 191.75 230.295 190.007 231.571 189.06 229.459 190.923 228.884"/><polygon class="cls-26" points="148.162 238.406 151.439 242.427 146.629 244.445 145.208 238.752 148.162 238.406"/><polygon class="cls-26" points="125.83 232.334 126.653 233.748 124.903 235.024 123.963 232.909 125.83 232.334"/><polygon class="cls-26" points="196.649 220.195 197.478 221.606 195.726 222.884 194.792 220.77 196.649 220.195"/><polygon class="cls-26" points="148.107 230.887 148.924 232.294 147.185 233.581 146.24 231.462 148.107 230.887"/><polygon class="cls-26" points="171.7 219.647 175.206 221.776 178.964 221.76 174.951 225.001 171.188 224.484 171.7 219.647"/><polygon class="cls-26" points="158.279 222.857 159.105 224.268 157.361 225.545 156.417 223.435 158.279 222.857"/></g><g class="cls-25"><polygon class="cls-26" points="253.224 219.109 261.281 220.68 256.471 225.002 249.469 221.007 253.224 219.109"/><polygon class="cls-26" points="231.611 240.213 235.806 237.843 235.303 241.604 230.665 242.487 231.611 240.213"/><polygon class="cls-26" points="221.875 232.682 225.373 234.808 229.129 234.792 225.114 238.031 221.355 237.513 221.875 232.682"/><polygon class="cls-26" points="249.313 239.26 251.246 240.439 253.317 240.426 251.102 242.216 249.029 241.928 249.313 239.26"/><polygon class="cls-26" points="264.662 233.815 266.596 234.99 268.675 234.983 266.458 236.772 264.384 236.483 264.662 233.815"/><polygon class="cls-26" points="249.29 250.967 251.227 252.14 253.301 252.137 251.087 253.923 249.009 253.632 249.29 250.967"/><polygon class="cls-26" points="209.276 226.296 210.845 228.967 207.532 231.401 205.738 227.383 209.276 226.296"/><polygon class="cls-26" points="274.207 231.632 275.033 233.044 273.284 234.32 272.345 232.207 274.207 231.632"/><polygon class="cls-26" points="257.965 230.365 258.792 231.776 257.049 233.053 256.102 230.94 257.965 230.365"/><polygon class="cls-26" points="215.204 239.888 218.481 243.908 213.671 245.927 212.25 240.233 215.204 239.888"/><polygon class="cls-26" points="192.872 233.815 193.695 235.229 191.945 236.506 191.005 234.391 192.872 233.815"/><polygon class="cls-26" points="263.691 221.677 264.52 223.088 262.768 224.365 261.834 222.251 263.691 221.677"/><polygon class="cls-26" points="215.149 232.368 215.966 233.775 214.227 235.063 213.282 232.943 215.149 232.368"/><polygon class="cls-26" points="238.742 221.128 242.248 223.258 246.006 223.241 241.993 226.482 238.23 225.966 238.742 221.128"/><polygon class="cls-26" points="225.321 224.339 226.147 225.749 224.403 227.026 223.459 224.917 225.321 224.339"/></g><g class="cls-25"><polygon class="cls-26" points="114.441 225.879 122.499 227.449 117.688 231.772 110.686 227.776 114.441 225.879"/><polygon class="cls-26" points="92.829 246.982 97.023 244.612 96.52 248.374 91.883 249.257 92.829 246.982"/><polygon class="cls-26" points="83.093 239.451 86.591 241.577 90.347 241.561 86.332 244.801 82.573 244.282 83.093 239.451"/><polygon class="cls-26" points="110.531 246.029 112.464 247.208 114.535 247.195 112.32 248.985 110.247 248.697 110.531 246.029"/><polygon class="cls-26" points="125.88 240.585 127.813 241.76 129.893 241.753 127.676 243.541 125.602 243.253 125.88 240.585"/><polygon class="cls-26" points="110.508 257.736 112.445 258.909 114.519 258.906 112.305 260.692 110.227 260.401 110.508 257.736"/><polygon class="cls-26" points="135.425 238.401 136.251 239.814 134.502 241.09 133.562 238.977 135.425 238.401"/><polygon class="cls-26" points="119.183 237.135 120.01 238.546 118.267 239.822 117.32 237.71 119.183 237.135"/><polygon class="cls-26" points="76.422 246.657 79.699 250.678 74.889 252.696 73.468 247.003 76.422 246.657"/><polygon class="cls-26" points="124.909 228.446 125.738 229.857 123.985 231.135 123.052 229.021 124.909 228.446"/><polygon class="cls-26" points="76.367 239.138 77.184 240.545 75.444 241.832 74.5 239.713 76.367 239.138"/><polygon class="cls-26" points="99.96 227.897 103.466 230.027 107.224 230.011 103.211 233.252 99.448 232.735 99.96 227.897"/><polygon class="cls-26" points="86.539 231.108 87.365 232.519 85.621 233.796 84.677 231.686 86.539 231.108"/></g><g class="cls-25"><polygon class="cls-26" points="234.182 185.856 242.239 187.427 237.429 191.749 230.427 187.754 234.182 185.856"/><polygon class="cls-26" points="212.569 206.96 216.764 204.59 216.261 208.352 211.623 209.234 212.569 206.96"/><polygon class="cls-26" points="202.833 199.429 206.331 201.555 210.087 201.539 206.072 204.778 202.313 204.26 202.833 199.429"/><polygon class="cls-26" points="230.271 206.007 232.204 207.185 234.275 207.173 232.06 208.963 229.987 208.675 230.271 206.007"/><polygon class="cls-26" points="245.62 200.563 247.554 201.737 249.633 201.73 247.416 203.519 245.342 203.23 245.62 200.563"/><polygon class="cls-26" points="230.248 217.714 232.185 218.887 234.259 218.884 232.045 220.67 229.967 220.379 230.248 217.714"/><polygon class="cls-26" points="190.234 193.043 191.803 195.714 188.49 198.148 186.696 194.13 190.234 193.043"/><polygon class="cls-26" points="255.165 198.379 255.991 199.791 254.242 201.067 253.303 198.954 255.165 198.379"/><polygon class="cls-26" points="238.923 197.112 239.75 198.523 238.007 199.8 237.06 197.688 238.923 197.112"/><polygon class="cls-26" points="196.162 206.635 199.439 210.655 194.629 212.674 193.208 206.98 196.162 206.635"/><polygon class="cls-26" points="173.83 200.563 174.653 201.977 172.903 203.253 171.963 201.138 173.83 200.563"/><polygon class="cls-26" points="244.649 188.424 245.478 189.835 243.726 191.112 242.792 188.998 244.649 188.424"/><polygon class="cls-26" points="196.107 199.115 196.924 200.522 195.185 201.81 194.24 199.69 196.107 199.115"/><polygon class="cls-26" points="219.7 187.875 223.206 190.005 226.964 189.988 222.951 193.229 219.188 192.713 219.7 187.875"/><polygon class="cls-26" points="206.279 191.086 207.105 192.496 205.361 193.773 204.417 191.664 206.279 191.086"/></g><g class="cls-25"><polygon class="cls-26" points="144.182 186.856 152.239 188.427 147.429 192.749 140.427 188.754 144.182 186.856"/><polygon class="cls-26" points="122.569 207.96 126.764 205.59 126.261 209.352 121.623 210.234 122.569 207.96"/><polygon class="cls-26" points="112.833 200.429 116.331 202.555 120.087 202.539 116.072 205.778 112.313 205.26 112.833 200.429"/><polygon class="cls-26" points="140.271 207.007 142.204 208.185 144.275 208.173 142.06 209.963 139.987 209.675 140.271 207.007"/><polygon class="cls-26" points="155.62 201.563 157.554 202.737 159.633 202.73 157.416 204.519 155.342 204.23 155.62 201.563"/><polygon class="cls-26" points="140.248 218.714 142.185 219.887 144.259 219.884 142.045 221.67 139.967 221.379 140.248 218.714"/><polygon class="cls-26" points="100.234 194.043 101.803 196.714 98.49 199.148 96.696 195.13 100.234 194.043"/><polygon class="cls-26" points="165.165 199.379 165.991 200.791 164.242 202.067 163.303 199.954 165.165 199.379"/><polygon class="cls-26" points="148.923 198.112 149.75 199.523 148.007 200.8 147.06 198.688 148.923 198.112"/><polygon class="cls-26" points="106.162 207.635 109.439 211.655 104.629 213.674 103.208 207.98 106.162 207.635"/><polygon class="cls-26" points="83.83 201.563 84.653 202.977 82.903 204.253 81.963 202.138 83.83 201.563"/><polygon class="cls-26" points="154.649 189.424 155.478 190.835 153.726 192.112 152.792 189.998 154.649 189.424"/><polygon class="cls-26" points="106.107 200.115 106.924 201.522 105.185 202.81 104.24 200.69 106.107 200.115"/><polygon class="cls-26" points="129.7 188.875 133.206 191.005 136.964 190.988 132.951 194.229 129.188 193.713 129.7 188.875"/><polygon class="cls-26" points="116.279 192.086 117.105 193.496 115.361 194.773 114.417 192.664 116.279 192.086"/></g><g class="cls-25"><polygon class="cls-26" points="181.682 142.109 189.739 143.68 184.929 148.002 177.927 144.007 181.682 142.109"/><polygon class="cls-26" points="160.069 163.213 164.264 160.843 163.761 164.604 159.123 165.487 160.069 163.213"/><polygon class="cls-26" points="150.333 155.682 153.831 157.808 157.587 157.792 153.572 161.031 149.813 160.513 150.333 155.682"/><polygon class="cls-26" points="177.771 162.26 179.704 163.439 181.775 163.426 179.56 165.216 177.487 164.928 177.771 162.26"/><polygon class="cls-26" points="193.12 156.815 195.054 157.99 197.133 157.983 194.916 159.771 192.842 159.483 193.12 156.815"/><polygon class="cls-26" points="177.748 173.967 179.685 175.14 181.759 175.137 179.545 176.923 177.467 176.632 177.748 173.967"/><polygon class="cls-26" points="137.734 149.296 139.303 151.967 135.99 154.401 134.196 150.383 137.734 149.296"/><polygon class="cls-26" points="202.665 154.632 203.491 156.044 201.742 157.32 200.803 155.207 202.665 154.632"/><polygon class="cls-26" points="186.423 153.365 187.25 154.776 185.507 156.053 184.56 153.94 186.423 153.365"/><polygon class="cls-26" points="143.662 162.888 146.939 166.908 142.129 168.927 140.708 163.233 143.662 162.888"/><polygon class="cls-26" points="121.33 156.815 122.153 158.229 120.403 159.506 119.463 157.391 121.33 156.815"/><polygon class="cls-26" points="192.149 144.677 192.978 146.088 191.226 147.365 190.292 145.251 192.149 144.677"/><polygon class="cls-26" points="143.607 155.368 144.424 156.775 142.685 158.063 141.74 155.943 143.607 155.368"/><polygon class="cls-26" points="167.2 144.128 170.706 146.258 174.464 146.241 170.451 149.482 166.688 148.966 167.2 144.128"/><polygon class="cls-26" points="153.779 147.339 154.605 148.749 152.861 150.026 151.917 147.917 153.779 147.339"/></g><g class="cls-25"><polygon class="cls-26" points="253.224 152.109 261.281 153.68 256.471 158.002 249.469 154.007 253.224 152.109"/><polygon class="cls-26" points="231.611 173.213 235.806 170.843 235.303 174.604 230.665 175.487 231.611 173.213"/><polygon class="cls-26" points="221.875 165.682 225.373 167.808 229.129 167.792 225.114 171.031 221.355 170.513 221.875 165.682"/><polygon class="cls-26" points="249.313 172.26 251.246 173.439 253.317 173.426 251.102 175.216 249.029 174.928 249.313 172.26"/><polygon class="cls-26" points="264.662 166.815 266.596 167.99 268.675 167.983 266.458 169.771 264.384 169.483 264.662 166.815"/><polygon class="cls-26" points="249.29 183.967 251.227 185.14 253.301 185.137 251.087 186.923 249.009 186.632 249.29 183.967"/><polygon class="cls-26" points="209.276 159.296 210.845 161.967 207.532 164.401 205.738 160.383 209.276 159.296"/><polygon class="cls-26" points="274.207 164.632 275.033 166.044 273.284 167.32 272.345 165.207 274.207 164.632"/><polygon class="cls-26" points="257.965 163.365 258.792 164.776 257.049 166.053 256.102 163.94 257.965 163.365"/><polygon class="cls-26" points="215.204 172.888 218.481 176.908 213.671 178.927 212.25 173.233 215.204 172.888"/><polygon class="cls-26" points="192.872 166.815 193.695 168.229 191.945 169.506 191.005 167.391 192.872 166.815"/><polygon class="cls-26" points="263.691 154.677 264.52 156.088 262.768 157.365 261.834 155.251 263.691 154.677"/><polygon class="cls-26" points="215.149 165.368 215.966 166.775 214.227 168.063 213.282 165.943 215.149 165.368"/><polygon class="cls-26" points="238.742 154.128 242.248 156.258 246.006 156.241 241.993 159.482 238.23 158.966 238.742 154.128"/><polygon class="cls-26" points="225.321 157.339 226.147 158.749 224.403 160.026 223.459 157.917 225.321 157.339"/></g><g class="cls-25"><polygon class="cls-26" points="115.941 152.109 123.999 153.68 119.188 158.002 112.186 154.007 115.941 152.109"/><polygon class="cls-26" points="94.329 173.213 98.523 170.843 98.02 174.604 93.383 175.487 94.329 173.213"/><polygon class="cls-26" points="84.593 165.682 88.091 167.808 91.847 167.792 87.832 171.031 84.073 170.513 84.593 165.682"/><polygon class="cls-26" points="112.031 172.26 113.964 173.439 116.035 173.426 113.82 175.216 111.747 174.928 112.031 172.26"/><polygon class="cls-26" points="127.38 166.815 129.313 167.99 131.393 167.983 129.176 169.771 127.102 169.483 127.38 166.815"/><polygon class="cls-26" points="112.008 183.967 113.945 185.14 116.019 185.137 113.805 186.923 111.727 186.632 112.008 183.967"/><polygon class="cls-26" points="136.925 164.632 137.751 166.044 136.002 167.32 135.062 165.207 136.925 164.632"/><polygon class="cls-26" points="120.683 163.365 121.51 164.776 119.767 166.053 118.82 163.94 120.683 163.365"/><polygon class="cls-26" points="77.922 172.888 81.199 176.908 76.389 178.927 74.968 173.233 77.922 172.888"/><polygon class="cls-26" points="126.409 154.677 127.238 156.088 125.485 157.365 124.552 155.251 126.409 154.677"/><polygon class="cls-26" points="77.867 165.368 78.684 166.775 76.944 168.063 76 165.943 77.867 165.368"/><polygon class="cls-26" points="101.46 154.128 104.966 156.258 108.724 156.241 104.711 159.482 100.948 158.966 101.46 154.128"/><polygon class="cls-26" points="88.039 157.339 88.865 158.749 87.121 160.026 86.177 157.917 88.039 157.339"/></g><g class="cls-25"><polygon class="cls-26" points="184.182 98.061 192.239 99.632 187.429 103.954 180.427 99.959 184.182 98.061"/><polygon class="cls-26" points="162.569 119.165 166.764 116.795 166.261 120.557 161.623 121.44 162.569 119.165"/><polygon class="cls-26" points="152.833 111.634 156.331 113.76 160.087 113.744 156.072 116.983 152.313 116.465 152.833 111.634"/><polygon class="cls-26" points="180.271 118.212 182.204 119.391 184.275 119.378 182.06 121.168 179.987 120.88 180.271 118.212"/><polygon class="cls-26" points="195.62 112.768 197.554 113.942 199.633 113.935 197.416 115.724 195.342 115.435 195.62 112.768"/><polygon class="cls-26" points="180.248 129.919 182.185 131.092 184.259 131.089 182.045 132.875 179.967 132.584 180.248 129.919"/><polygon class="cls-26" points="140.234 105.248 141.803 107.919 138.49 110.354 136.696 106.335 140.234 105.248"/><polygon class="cls-26" points="205.165 110.584 205.991 111.996 204.242 113.273 203.303 111.159 205.165 110.584"/><polygon class="cls-26" points="188.923 109.317 189.75 110.729 188.007 112.005 187.06 109.893 188.923 109.317"/><polygon class="cls-26" points="146.162 118.84 149.439 122.86 144.629 124.879 143.208 119.185 146.162 118.84"/><polygon class="cls-26" points="123.83 112.768 124.653 114.182 122.903 115.458 121.963 113.343 123.83 112.768"/><polygon class="cls-26" points="194.649 100.629 195.478 102.04 193.726 103.317 192.792 101.203 194.649 100.629"/><polygon class="cls-26" points="146.107 111.32 146.924 112.727 145.185 114.015 144.24 111.896 146.107 111.32"/><polygon class="cls-26" points="169.7 100.08 173.206 102.21 176.964 102.193 172.951 105.435 169.188 104.918 169.7 100.08"/><polygon class="cls-26" points="156.279 103.291 157.105 104.701 155.361 105.979 154.417 103.869 156.279 103.291"/></g><g class="cls-25"><polygon class="cls-26" points="253.224 111.061 261.281 112.632 256.471 116.954 249.469 112.959 253.224 111.061"/><polygon class="cls-26" points="231.611 132.165 235.806 129.795 235.303 133.557 230.665 134.44 231.611 132.165"/><polygon class="cls-26" points="221.875 124.634 225.373 126.76 229.129 126.744 225.114 129.983 221.355 129.465 221.875 124.634"/><polygon class="cls-26" points="249.313 131.212 251.246 132.391 253.317 132.378 251.102 134.168 249.029 133.88 249.313 131.212"/><polygon class="cls-26" points="264.662 125.768 266.596 126.942 268.675 126.935 266.458 128.724 264.384 128.435 264.662 125.768"/><polygon class="cls-26" points="249.29 142.919 251.227 144.092 253.301 144.089 251.087 145.875 249.009 145.584 249.29 142.919"/><polygon class="cls-26" points="209.276 118.248 210.845 120.919 207.532 123.354 205.738 119.335 209.276 118.248"/><polygon class="cls-26" points="274.207 123.584 275.033 124.996 273.284 126.273 272.345 124.159 274.207 123.584"/><polygon class="cls-26" points="257.965 122.317 258.792 123.729 257.049 125.005 256.102 122.893 257.965 122.317"/><polygon class="cls-26" points="215.204 131.84 218.481 135.86 213.671 137.879 212.25 132.185 215.204 131.84"/><polygon class="cls-26" points="192.872 125.768 193.695 127.182 191.945 128.458 191.005 126.343 192.872 125.768"/><polygon class="cls-26" points="263.691 113.629 264.52 115.04 262.768 116.317 261.834 114.203 263.691 113.629"/><polygon class="cls-26" points="215.149 124.32 215.966 125.727 214.227 127.015 213.282 124.896 215.149 124.32"/><polygon class="cls-26" points="238.742 113.08 242.248 115.21 246.006 115.193 241.993 118.435 238.23 117.918 238.742 113.08"/><polygon class="cls-26" points="225.321 116.291 226.147 117.701 224.403 118.979 223.459 116.869 225.321 116.291"/></g><g class="cls-25"><polygon class="cls-26" points="115.941 111.061 123.999 112.632 119.188 116.954 112.186 112.959 115.941 111.061"/><polygon class="cls-26" points="94.329 132.165 98.523 129.795 98.02 133.557 93.383 134.44 94.329 132.165"/><polygon class="cls-26" points="84.593 124.634 88.091 126.76 91.847 126.744 87.832 129.983 84.073 129.465 84.593 124.634"/><polygon class="cls-26" points="112.031 131.212 113.964 132.391 116.035 132.378 113.82 134.168 111.747 133.88 112.031 131.212"/><polygon class="cls-26" points="127.38 125.768 129.313 126.942 131.393 126.935 129.176 128.724 127.102 128.435 127.38 125.768"/><polygon class="cls-26" points="112.008 142.919 113.945 144.092 116.019 144.089 113.805 145.875 111.727 145.584 112.008 142.919"/><polygon class="cls-26" points="136.925 123.584 137.751 124.996 136.002 126.273 135.062 124.159 136.925 123.584"/><polygon class="cls-26" points="120.683 122.317 121.51 123.729 119.767 125.005 118.82 122.893 120.683 122.317"/><polygon class="cls-26" points="77.922 131.84 81.199 135.86 76.389 137.879 74.968 132.185 77.922 131.84"/><polygon class="cls-26" points="126.409 113.629 127.238 115.04 125.485 116.317 124.552 114.203 126.409 113.629"/><polygon class="cls-26" points="77.867 124.32 78.684 125.727 76.944 127.015 76 124.896 77.867 124.32"/><polygon class="cls-26" points="101.46 113.08 104.966 115.21 108.724 115.193 104.711 118.435 100.948 117.918 101.46 113.08"/><polygon class="cls-26" points="88.039 116.291 88.865 117.701 87.121 118.979 86.177 116.869 88.039 116.291"/></g><g class="cls-25"><polygon class="cls-26" points="188.633 41.561 197.269 43.244 192.113 47.877 184.608 43.596 188.633 41.561"/><polygon class="cls-26" points="165.469 64.181 169.964 61.641 169.425 65.672 164.454 66.618 165.469 64.181"/><polygon class="cls-26" points="155.033 56.108 158.782 58.387 162.808 58.37 158.505 61.842 154.476 61.286 155.033 56.108"/><polygon class="cls-26" points="184.441 63.159 186.514 64.422 188.733 64.408 186.359 66.327 184.137 66.019 184.441 63.159"/><polygon class="cls-26" points="200.893 57.323 202.965 58.583 205.193 58.575 202.817 60.492 200.595 60.184 200.893 57.323"/><polygon class="cls-26" points="184.417 75.707 186.493 76.964 188.716 76.961 186.342 78.875 184.115 78.564 184.417 75.707"/><polygon class="cls-26" points="141.529 49.264 143.21 52.127 139.66 54.736 137.737 50.429 141.529 49.264"/><polygon class="cls-26" points="211.123 54.983 212.008 56.497 210.134 57.865 209.127 55.6 211.123 54.983"/><polygon class="cls-26" points="193.715 53.626 194.602 55.138 192.732 56.506 191.719 54.242 193.715 53.626"/><polygon class="cls-26" points="147.883 63.832 151.395 68.142 146.239 70.305 144.717 64.202 147.883 63.832"/><polygon class="cls-26" points="123.947 57.323 124.829 58.839 122.953 60.207 121.946 57.94 123.947 57.323"/><polygon class="cls-26" points="199.852 44.314 200.74 45.826 198.862 47.194 197.861 44.929 199.852 44.314"/><polygon class="cls-26" points="147.824 55.773 148.699 57.28 146.835 58.66 145.822 56.389 147.824 55.773"/><polygon class="cls-26" points="173.111 43.725 176.869 46.008 180.896 45.99 176.596 49.464 172.562 48.91 173.111 43.725"/><polygon class="cls-26" points="158.727 47.167 159.612 48.678 157.743 50.047 156.73 47.786 158.727 47.167"/></g><g class="cls-25"><polygon class="cls-26" points="236.724 72.061 244.781 73.632 239.971 77.954 232.969 73.959 236.724 72.061"/><polygon class="cls-26" points="215.111 93.165 219.306 90.795 218.803 94.557 214.165 95.44 215.111 93.165"/><polygon class="cls-26" points="205.375 85.634 208.873 87.76 212.629 87.744 208.614 90.983 204.855 90.465 205.375 85.634"/><polygon class="cls-26" points="232.813 92.212 234.746 93.391 236.817 93.378 234.602 95.168 232.529 94.88 232.813 92.212"/><polygon class="cls-26" points="248.162 86.768 250.096 87.942 252.175 87.935 249.958 89.724 247.884 89.435 248.162 86.768"/><polygon class="cls-26" points="232.79 103.919 234.727 105.092 236.801 105.089 234.587 106.875 232.509 106.584 232.79 103.919"/><polygon class="cls-26" points="192.776 79.248 194.345 81.919 191.032 84.354 189.238 80.335 192.776 79.248"/><polygon class="cls-26" points="257.707 84.584 258.533 85.996 256.784 87.273 255.845 85.159 257.707 84.584"/><polygon class="cls-26" points="241.465 83.317 242.292 84.729 240.549 86.005 239.602 83.893 241.465 83.317"/><polygon class="cls-26" points="198.704 92.84 201.981 96.86 197.171 98.879 195.75 93.185 198.704 92.84"/><polygon class="cls-26" points="176.372 86.768 177.195 88.182 175.445 89.458 174.505 87.343 176.372 86.768"/><polygon class="cls-26" points="247.191 74.629 248.02 76.04 246.268 77.317 245.334 75.203 247.191 74.629"/><polygon class="cls-26" points="198.649 85.32 199.466 86.727 197.727 88.015 196.782 85.896 198.649 85.32"/><polygon class="cls-26" points="222.242 74.08 225.748 76.21 229.506 76.193 225.493 79.435 221.73 78.918 222.242 74.08"/><polygon class="cls-26" points="208.821 77.291 209.647 78.701 207.903 79.979 206.959 77.869 208.821 77.291"/></g><g class="cls-25"><polygon class="cls-26" points="129.565 73.367 137.623 74.938 132.813 79.26 125.811 75.265 129.565 73.367"/><polygon class="cls-26" points="107.954 94.471 112.147 92.101 111.645 95.862 107.007 96.745 107.954 94.471"/><polygon class="cls-26" points="98.218 86.94 101.716 89.065 105.472 89.05 101.457 92.289 97.697 91.771 98.218 86.94"/><polygon class="cls-26" points="125.655 93.518 127.589 94.696 129.66 94.684 127.444 96.474 125.371 96.185 125.655 93.518"/><polygon class="cls-26" points="141.005 88.073 142.937 89.248 145.018 89.241 142.8 91.029 140.727 90.741 141.005 88.073"/><polygon class="cls-26" points="125.633 105.225 127.569 106.398 129.644 106.395 127.429 108.181 125.352 107.89 125.633 105.225"/><polygon class="cls-26" points="150.55 85.89 151.375 87.302 149.626 88.578 148.686 86.465 150.55 85.89"/><polygon class="cls-26" points="134.308 84.623 135.135 86.034 133.392 87.31 132.445 85.198 134.308 84.623"/><polygon class="cls-26" points="91.547 94.146 94.823 98.166 90.013 100.185 88.592 94.491 91.547 94.146"/><polygon class="cls-26" points="140.034 75.935 140.862 77.346 139.11 78.623 138.177 76.509 140.034 75.935"/><polygon class="cls-26" points="91.492 86.626 92.309 88.033 90.569 89.32 89.624 87.201 91.492 86.626"/><polygon class="cls-26" points="115.085 75.386 118.591 77.516 122.349 77.499 118.335 80.74 114.572 80.224 115.085 75.386"/><polygon class="cls-26" points="101.663 78.597 102.49 80.007 100.746 81.284 99.802 79.175 101.663 78.597"/></g><g class="cls-27"><path class="cls-28" d="M82.146,235.927V87.26l89.333-59.333,90.667,56S200.813,279.927,82.146,235.927Z"/></g><path class="cls-29" d="M276.736,232.25V175.483c-.7-.193-1.4-.385-2.092-.583-8.739-2.476-17.475-4.266-26.329-6.305-41.789-9.623-128.559-3.246-144.518-1.187a239.4,239.4,0,0,0-24.136,3.927c-3.42.8-6.892,1.693-10.4,2.255v58.66s-1.25,27.5,12.75,43c6.924,7.666,28.281,26.156,48.1,42.89a141.071,141.071,0,0,1,20.523-2.029c11.055-.394,22.217-.4,33.275-.038,10.576.344,21.159,1.388,31.747,2.258,19.883-16.783,41.376-35.386,48.327-43.081C277.986,259.75,276.736,232.25,276.736,232.25Z"/><path class="cls-30" d="M319.667,188.273a23.229,23.229,0,0,1-2.873,5.928c-.159.215-.565.172-.549-.147.12-2.369.241-4.739.492-7.1-3.078-1.319-6.384-2.55-9.881-3.7a83.2,83.2,0,0,1-3.564,10.062c-.126.292-.529.115-.547-.146a82.791,82.791,0,0,1-.172-11.257c-12.805-3.812-27.76-6.642-43.139-8.736a8.623,8.623,0,0,1-1.194,2.971.3.3,0,0,1-.536-.07,9.728,9.728,0,0,1-.37-3.182c-17.007-2.239-34.434-3.6-49.96-4.423-.391,4.974-1.439,9.872-2.227,14.795-.046.292-.5.272-.566,0a85.419,85.419,0,0,1-1.8-15.025c-4.227-.2-8.293-.363-12.136-.492H155.356c-3.136.105-6.421.233-9.822.385-.454,1.054-.748,2.167-1.14,3.246-.092.254-.5.305-.567,0-.23-1.044-.447-2.09-.671-3.136-7.56.36-15.651.845-23.985,1.5-.471,2.036-.711,4.123-1.045,6.186-.051.315-.477.241-.566,0a37.006,37.006,0,0,1-1.266-5.954c-13.894,1.151-28.361,2.775-42.084,5.069-.176.688-.356,1.375-.548,2.058-.076.262-.517.3-.567,0l-.3-1.82c-5.307.908-10.494,1.917-15.487,3.04a20.153,20.153,0,0,1-.371,5.972.3.3,0,0,1-.566,0,48.944,48.944,0,0,1-1.329-5.449,154.931,154.931,0,0,0-26.7,8.514,14.286,14.286,0,0,1-.163,4.712.3.3,0,0,1-.536.07,13.481,13.481,0,0,1-1.758-3.65C14.423,193.978,6.792,200.864,5.446,209.52a28.427,28.427,0,0,0,6.806,14.713c6.081,6.862,38.808,103.8,38.815,103.815.084.252,12.257-2.138,21.526-3.982a31.3,31.3,0,0,1,.061-6.235c.056-.322.47-.232.567,0a27.009,27.009,0,0,1,1.532,5.806c4.278-.853,7.565-1.513,8.085-1.6.228-.039.458-.076.686-.114.453-3.847.3-7.755,1.016-11.573.058-.3.487-.262.567,0a42.343,42.343,0,0,1,2.013,10.969c8.186-1.366,16.4-2.653,24.627-3.8a34.887,34.887,0,0,1,.823-5.262.3.3,0,0,1,.566,0c.426,1.627.792,3.267,1.2,4.9q8.578-1.163,17.182-2.062c.075-2.248.306-4.484.555-6.72.034-.305.509-.43.577-.078.428,2.184.779,4.388,1.331,6.541,2.84-.282,5.681-.548,8.525-.776q5.781-.465,11.6-.763c.355-2.693.575-5.4,1.022-8.085a.3.3,0,0,1,.536-.068,24.443,24.443,0,0,1,2.083,7.981q7.359-.314,14.722-.349c.16-1.008.36-2.01.562-3.014.064-.314.472-.243.567,0a21.553,21.553,0,0,1,.843,3.021c.982,0,1.964,0,2.944.011q9.753.107,19.488.708a28.38,28.38,0,0,1,.812-5.648.3.3,0,0,1,.567,0,52.279,52.279,0,0,1,1.088,5.8q11.909.8,23.753,2.351c6.492.853,12.694,1.733,18.545,2.606a5.32,5.32,0,0,0,.257-.938,23.009,23.009,0,0,1,.4-2.631,51.134,51.134,0,0,0,1.467-6.164c.055-.351.547-.225.577.078.33,3.392.5,6.794.809,10.187,6.305.963,12.154,1.916,17.47,2.819.341-1.519.624-3.051.955-4.572a.294.294,0,0,1,.576.078c.008,1.6.082,3.191.173,4.785,18.952,3.252,30.61,5.794,30.61,5.794s32.734-96.953,38.815-103.815a28.427,28.427,0,0,0,6.806-14.713C339.191,200.746,331.376,193.789,319.667,188.273Z"/><g class="cls-31"><path class="cls-32" d="M128.617,296.634c-27.074-.849-54.423-3.522-80.567-10.9q-6.6-1.861-13.092-4.16c8.535,24.041,16.106,46.466,16.109,46.475.084.252,12.257-2.138,21.526-3.982a31.3,31.3,0,0,1,.061-6.235c.056-.322.47-.232.567,0a27.009,27.009,0,0,1,1.532,5.806c4.278-.853,7.565-1.513,8.085-1.6.228-.039.458-.076.686-.114.453-3.847.3-7.755,1.016-11.573.058-.3.487-.262.567,0a42.343,42.343,0,0,1,2.013,10.969c8.186-1.366,16.4-2.653,24.627-3.8a34.887,34.887,0,0,1,.823-5.262.3.3,0,0,1,.566,0c.426,1.627.792,3.267,1.2,4.9q8.578-1.163,17.182-2.062c.075-2.248.306-4.484.555-6.72.034-.305.509-.43.577-.078.428,2.184.779,4.388,1.331,6.541,2.84-.282,5.681-.548,8.525-.776q5.781-.465,11.6-.763c.355-2.693.575-5.4,1.022-8.085a.3.3,0,0,1,.536-.068,24.443,24.443,0,0,1,2.083,7.981q7.359-.314,14.722-.349c.16-1.008.36-2.01.562-3.014.064-.314.472-.243.567,0a21.553,21.553,0,0,1,.843,3.021c.982,0,1.964,0,2.944.011q9.753.107,19.488.708a28.38,28.38,0,0,1,.812-5.648.3.3,0,0,1,.567,0,52.279,52.279,0,0,1,1.088,5.8q11.909.8,23.753,2.351c6.492.853,12.694,1.733,18.545,2.606a5.32,5.32,0,0,0,.257-.938,23.009,23.009,0,0,1,.4-2.631,51.134,51.134,0,0,0,1.467-6.164c.055-.351.547-.225.577.078.33,3.392.5,6.794.809,10.187,6.305.963,12.154,1.916,17.47,2.819.341-1.519.624-3.051.955-4.572a.294.294,0,0,1,.576.078c.008,1.6.082,3.191.173,4.785,18.952,3.252,30.61,5.794,30.61,5.794s9.785-28.985,19.651-56.38C254.669,290.743,191.405,298.6,128.617,296.634Z"/></g><g class="cls-33"><path class="cls-34" d="M74.21,175.051c-.176.687-.356,1.374-.548,2.057-.076.262-.517.3-.567,0l-.3-1.818c-5.308.908-10.5,1.916-15.489,3.039a20.147,20.147,0,0,1-.371,5.971.3.3,0,0,1-.566,0,48.89,48.89,0,0,1-1.329-5.449,155.11,155.11,0,0,0-26.7,8.512,14.3,14.3,0,0,1-.163,4.714.3.3,0,0,1-.536.07,13.481,13.481,0,0,1-1.758-3.65C14.423,193.978,6.79,200.864,5.446,209.52a28.427,28.427,0,0,0,6.806,14.713c6.081,6.862,38.808,103.8,38.815,103.815.084.252,12.258-2.138,21.526-3.982a31.3,31.3,0,0,1,.061-6.235c.056-.322.47-.232.567,0a27.009,27.009,0,0,1,1.532,5.806c1.671-.334,3.195-.639,4.458-.89v-148.5Q76.694,174.634,74.21,175.051Z"/></g><g class="cls-35"><path class="cls-36" d="M319.667,188.274a23.271,23.271,0,0,1-2.873,5.927c-.159.215-.565.172-.549-.147.12-2.369.241-4.739.492-7.1-3.078-1.319-6.384-2.55-9.881-3.7a83.2,83.2,0,0,1-3.564,10.062c-.126.292-.529.115-.547-.146a82.794,82.794,0,0,1-.172-11.257,251.184,251.184,0,0,0-28.054-6.4V324.056c12.851,2.342,20.414,3.992,20.414,3.992s32.734-96.953,38.815-103.815a28.427,28.427,0,0,0,6.806-14.713C339.191,200.747,331.376,193.791,319.667,188.274Z"/></g><path class="cls-37" d="M47.77,202.663c-.4,1.713-.821,3.419-1.062,5.164-.041.3-.495.26-.565,0-.521-1.91-.172-3.877-.269-5.812a30.121,30.121,0,0,0-5.749-.618c-.04.717-.073,1.433-.156,2.147a.3.3,0,0,1-.576.078c-.235-.736-.411-1.486-.592-2.236a40.7,40.7,0,0,0-16.829,3.51s-3.623,1.57-4.524,4.341a2.107,2.107,0,0,0,1.475,2.5c3.384,1.452,15.843-2.3,15.843-2.3L36.1,220.81a28.548,28.548,0,0,0,10.962-6.852l2.893-4.846S52.612,205.025,47.77,202.663Z"/><g class="cls-38"><path class="cls-39" d="M47.77,202.663c-.4,1.713-.821,3.419-1.062,5.164-.041.3-.495.26-.565,0-.521-1.91-.172-3.877-.269-5.812a30.121,30.121,0,0,0-5.749-.618c-.04.717-.073,1.433-.156,2.147a.3.3,0,0,1-.576.078c-.235-.736-.411-1.486-.592-2.236a40.7,40.7,0,0,0-16.829,3.51s-3.623,1.57-4.524,4.341a2.107,2.107,0,0,0,1.475,2.5c3.384,1.452,15.843-2.3,15.843-2.3L36.1,220.81a28.548,28.548,0,0,0,10.962-6.852l2.893-4.846S52.612,205.025,47.77,202.663Z"/></g><path class="cls-40" d="M20.561,210.985c-1.493-.26-3.287-.814-3.113-1.748-.277.85,2.869,13.88,2.869,13.88A42.3,42.3,0,0,0,36.1,220.81l-1.335-11.375S25.381,211.832,20.561,210.985Z"/><path class="cls-41" d="M55.634,330.908a11.5,11.5,0,0,1,2.161,3.6,19.347,19.347,0,0,0,2.157-4.062s-10.633-25.23-13.163-52.971c-3.6-39.5,3.837-70.491,3.837-70.491s-1.225,4.272-6.91,6.954c-7.6,3.583-18.543,6.747-28.1,3.337-.192,2.33-.205,4.67-.205,7.011,0,.323-.52.412-.577.078-.48-2.821-1.4-5.54-2.035-8.323a23.655,23.655,0,0,1-7.509-6.194s1.436,5.025,3.384,12.89a307.589,307.589,0,0,1,8.654,61.874c1.458,35.758-3.9,55.519-3.9,55.519a15.119,15.119,0,0,0,2.008,1.6c.517-1.949,1.207-3.852,1.744-5.8a.3.3,0,0,1,.577.078,57.852,57.852,0,0,1,.115,7.2,29.193,29.193,0,0,0,4.96,2.058c.2-.957.425-1.913.609-2.879a.3.3,0,0,1,.567,0c.3,1.129.525,2.271.743,3.415a38.11,38.11,0,0,0,12.689.832,27.825,27.825,0,0,0,8.455-2.115,43.881,43.881,0,0,1-.647-5.282.3.3,0,0,1,.547-.148,29.2,29.2,0,0,1,1.875,4.6,27.081,27.081,0,0,0,8.064-6.456,48.138,48.138,0,0,1-.606-6.112A.3.3,0,0,1,55.634,330.908Z"/><path class="cls-37" d="M328.552,209.237c-.9-2.771-4.524-4.341-4.524-4.341-6.974-3.343-15.445-3.84-20.791-3.35-.15.985-.23,1.978-.3,2.976a.294.294,0,0,1-.587,0c-.064-.953-.164-1.9-.275-2.85a16.034,16.034,0,0,0-2.983.626c.007.642.073,1.287.03,1.93-.019.265-.414.435-.547.149a10.784,10.784,0,0,1-.555-1.607,4.27,4.27,0,0,0-1.98,6.342l2.892,4.846A28.548,28.548,0,0,0,309.9,220.81l1.333-11.375s12.46,3.753,15.844,2.3A2.107,2.107,0,0,0,328.552,209.237Z"/><g class="cls-42"><path class="cls-43" d="M328.552,209.237c-.9-2.771-4.524-4.341-4.524-4.341-6.974-3.343-15.445-3.84-20.791-3.35-.15.985-.23,1.978-.3,2.976a.294.294,0,0,1-.587,0c-.064-.953-.164-1.9-.275-2.85a16.034,16.034,0,0,0-2.983.626c.007.642.073,1.287.03,1.93-.019.265-.414.435-.547.149a10.784,10.784,0,0,1-.555-1.607,4.27,4.27,0,0,0-1.98,6.342l2.892,4.846A28.548,28.548,0,0,0,309.9,220.81l1.333-11.375s12.46,3.753,15.844,2.3A2.107,2.107,0,0,0,328.552,209.237Z"/></g><path class="cls-40" d="M325.438,210.985c1.493-.26,3.288-.814,3.114-1.748.277.85-2.869,13.88-2.869,13.88A42.3,42.3,0,0,1,309.9,220.81l1.333-11.375S320.619,211.832,325.438,210.985Z"/><path class="cls-41" d="M337.046,225.443c2.332-10.02,3.662-15.6,3.662-15.6-9.526,14.376-27.84,9.08-38.424,4.091-5.685-2.682-6.91-6.954-6.91-6.954s7.442,30.993,3.837,70.491c-2.53,27.741-13.163,52.971-13.163,52.971a23.647,23.647,0,0,0,4.218,6.788c.721-1.985,1.182-4.064,1.923-6.046a.3.3,0,0,1,.578.079c-.04,2.658-.559,5.284-.659,7.929a26.477,26.477,0,0,0,9.475,5.909,28.993,28.993,0,0,0,.8-2.884c.477-2,.808-4.035,1.254-6.043a.3.3,0,0,1,.567,0,74.627,74.627,0,0,1,1.1,9.969,29.437,29.437,0,0,0,3.256.49,39.106,39.106,0,0,0,10.794-.426c.042-1.023.145-2.04.272-3.059.037-.306.49-.424.576-.078.233.938.455,1.879.738,2.8a31.274,31.274,0,0,0,4.156-1.288c.52-4.671.682-9.391,1.73-13.986.08-.353.538-.226.576.078.525,4.025.795,8.089,1.536,12.081a18.248,18.248,0,0,0,3.633-2.631s-5.354-19.761-3.9-55.519A311.763,311.763,0,0,1,337.046,225.443Z"/><path class="cls-44" d="M17.44,209.381s-.046-5.73,17.235-7.81c0,0-7.716.971-12.245,3.42s-5.036,4.62-4.251,5.221C18.179,210.212,17.486,209.935,17.44,209.381Z"/><path class="cls-44" d="M15.022,217.065s11.766,5.853,30.619-4.126C45.641,212.939,30.055,221.932,15.022,217.065Z"/><g class="cls-45"><path class="cls-46" d="M30.977,270.973c-3.059-23.611-4.2-41.5-4.551-48.018a45.427,45.427,0,0,1-8.249-2.029q-1.363-.481-2.708-1.017c-.049,1.456-.056,2.915-.056,4.374,0,.323-.52.412-.577.078-.3-1.774-.78-3.507-1.249-5.242-.651-.287-1.3-.584-1.932-.9-1.145-.574-2.292-1.4-3.479-2.1a324.511,324.511,0,0,1,10.05,65.388c1.848,36.966-2.957,58.22-2.957,58.22s.205.193.6.5c.435-1.433.919-2.854,1.317-4.3a.3.3,0,0,1,.577.078,46.313,46.313,0,0,1,.148,5.587,24.84,24.84,0,0,0,5.229,2.276c.107-.493.213-.987.307-1.484a.3.3,0,0,1,.567,0c.16.612.3,1.229.43,1.847a31.877,31.877,0,0,0,12.82.484S34.86,300.915,30.977,270.973Z"/></g><path class="cls-44" d="M316.716,210.535s7.392,1.2,10.165.093c0,0,3.326-1.017-.555-4.436s-13.307-4.342-14.417-4.621c0,0,13.862,1.387,16.357,6.284a1.823,1.823,0,0,1-.554,2.958C325.947,211.733,322.906,211.829,316.716,210.535Z"/><g class="cls-47"><path class="cls-48" d="M298.6,214.109s5.915,41.647.987,74.423-11.584,41.4-11.584,41.4a22.175,22.175,0,0,0,2.905,5.323c.409-1.361.781-2.737,1.279-4.071a.3.3,0,0,1,.578.079c-.028,1.915-.3,3.814-.493,5.715A23.537,23.537,0,0,0,302,343.76c.142-.526.267-1.047.384-1.542.477-2,.808-4.035,1.254-6.043a.3.3,0,0,1,.567,0,66.57,66.57,0,0,1,1,8.536q.628.139,1.282.253s5.175-7.393,8.378-39.922S323,221.5,323,221.5,309.445,223.228,298.6,214.109Z"/></g></g></g></svg>