<svg xmlns="http://www.w3.org/2000/svg" viewBox="0 0 400 400"><defs><style>.cls-1{isolation:isolate;}.cls-2,.cls-5{fill:#fccbaa;}.cls-3{fill:#3b2314;}.cls-4,.cls-5{mix-blend-mode:multiply;}.cls-6,.cls-8{fill:#faaf40;}.cls-18,.cls-19,.cls-6{stroke:#3b2314;}.cls-6{stroke-linecap:round;stroke-miterlimit:10;stroke-width:1.24px;}.cls-7{fill:#f8a576;}.cls-9{fill:#00a69c;}.cls-10{fill:#26a9e0;}.cls-11{fill:#d0d2d3;}.cls-12,.cls-17,.cls-21{fill:#fff;}.cls-12,.cls-22{opacity:0.3;}.cls-13{fill:#5661ab;}.cls-14{fill:#929497;}.cls-15{fill:#8bc53f;}.cls-16{fill:#ffc609;}.cls-17{opacity:0.6;}.cls-18,.cls-19{fill:none;stroke-linecap:square;stroke-linejoin:round;}.cls-18{stroke-width:0.51px;}.cls-19{stroke-width:0.45px;}.cls-20{fill:#cd383a;}.cls-23{fill:#f27f93;}.cls-24{fill:#b2546b;}.cls-25{fill:#29b6f6;}.cls-26{fill:#6d4c41;}.cls-27{opacity:0.5;}.cls-28{opacity:0.2;}.cls-29{fill:#ffa726;}</style></defs><g class="cls-1"><g id="Layer_3" data-name="Layer 3"><path class="cls-2" d="M184.7,352.7c-6,0-17.4-4.9-21.2-6.5l-1-.4h.1c-2.7-.9-12.9-6.4-13-6.5-9.2-5.1-15-9.5-17.5-13.1s-3.3-9.9-1.4-16.1c-1.9-5-4.5-19.7-4.8-23.6-1-15-1.3-32,8.4-42.8,6.4-7,16.1-10.7,29.7-11.2h1.6c22.8,0,37.4,18.4,42.1,53.1,6,3.8,9.6,8.9,9.9,14.1.8,10.3-10.9,33.3-11.4,34.2-3.7,11.8-10.7,18.3-20.7,19Z"/><path class="cls-3" d="M165.6,233.6c29.6,0,38.2,31.5,41,52.5,5.3,3.3,9.4,8.1,9.8,13.5.7,10.1-11.3,33.6-11.3,33.6-3.2,10.1-9.2,17.5-19.7,18.2h-.7c-6.8,0-21.5-6.8-21.8-6.8h0s-24-10.8-29.8-19.2c-2.9-4.1-2.8-10-1.1-15.5-1.8-4.3-4.5-19.6-4.8-23.6-1.7-24-1.4-51.3,36.9-52.7h1.5m0-2.5H164c-14,.5-24,4.4-30.6,11.7-10.1,11.2-9.8,28.4-8.7,43.7.3,3.9,2.7,18,4.7,23.5-1.9,6.5-1.3,12.6,1.6,16.8,6.1,8.8,29.9,19.6,30.9,20.1l1.3.5h0c4,1.7,15.3,6.5,21.5,6.5h.8c10.6-.7,18-7.4,21.9-19.8,1.2-2.4,12.2-24.4,11.5-34.7-.4-5.4-4-10.7-10-14.7-5-35.1-19.9-53.6-43.3-53.6Z"/><g class="cls-4"><path class="cls-2" d="M201.5,287a67.2,67.2,0,0,1,8.7,1.8,30.7,30.7,0,0,0-3.6-2.7l-.6-4.3A16,16,0,0,1,201.5,287Z"/></g><g class="cls-4"><path class="cls-2" d="M146.5,305.8c-2.7-7.2-6.6-14.2-8-21.7a136.1,136.1,0,0,1-2.6-39.7c-10,10.4-9.8,26.6-8.7,41.9.3,4,3,19.3,4.8,23.6-1.7,5.5-1.8,11.4,1.1,15.5s8.8,8,15,11.5C145.6,333.1,128.4,312.6,146.5,305.8Z"/></g><path class="cls-5" d="M165.7,308.1s3,10.7,13.9,8.7,13.2-3.1,13.5-13S165.7,308.1,165.7,308.1Z"/><path class="cls-6" d="M120,269.2s-3.4,7.4-2.8,13.4,9,14,14.2,18.3-6-20.6-4.5-30.3-6.3-2.5-6.3-2.5Z"/><path class="cls-7" d="M134.4,301.2s-4.6-2.2-5.1-3-1.8-5.6-2.6-7.4c-3.8-8.9-15.1-3-15.8,4.5-1.1,11.4,9.9,25.1,16.3,23.6s5.2-10,5.2-10"/><path class="cls-3" d="M134.4,301.2l-3.2-1.3-1.6-.9-.5-.4H129c-.1,0,0,0-.1-.1h0l-.2-.2a3.1,3.1,0,0,0-.5-1c-.4-.7-.6-1.5-1-2.4s-.5-1.7-.8-2.5-.3-.9-.5-1.2l-.7-1.2-.9-1-1.1-.8a6.2,6.2,0,0,0-5.5,0,10.4,10.4,0,0,0-4.5,4.3,9.1,9.1,0,0,0-1,2.9v1.9a9.9,9.9,0,0,0,.2,1.7,22.2,22.2,0,0,0,1.8,6.7,29.2,29.2,0,0,0,3.4,6,19.9,19.9,0,0,0,4.4,4.7,7.1,7.1,0,0,0,4.9,1.8H128c.3-.2.7-.3.9-.6a5.8,5.8,0,0,0,1.6-1.5,12.2,12.2,0,0,0,1.4-3.5,16.3,16.3,0,0,0,.5-3.4v.9a11,11,0,0,1,0,2.6,9.7,9.7,0,0,1-1.1,3.9,5.1,5.1,0,0,1-1.6,2.1,12.5,12.5,0,0,1-1.2.8l-.7.2-.3.2H127c-2.2.4-4.4-.6-6.3-1.8a23.1,23.1,0,0,1-5.1-4.8,28.7,28.7,0,0,1-6-14c0-.6-.1-1.4-.1-2v-1.9a10.5,10.5,0,0,1,1.3-4,11.5,11.5,0,0,1,5.9-5.2,8,8,0,0,1,7.5.4,14.9,14.9,0,0,1,1.4,1.2,7.1,7.1,0,0,1,1,1.4l.7,1.3a12.4,12.4,0,0,1,.4,1.6c.3.9.5,1.8.7,2.6a14.1,14.1,0,0,0,.6,2.2,10.4,10.4,0,0,0,.4,1v.3h.1l.3.3,1.5,1Z"/><path class="cls-8" d="M79.7,244.9a1.4,1.4,0,0,1-1.2-.6,49.7,49.7,0,0,1-9.6-17.5c-4.1-13.4-2.8-27.7,3.7-39.2s17.6-19.3,32.3-23a40.8,40.8,0,0,1,9.3-1.1c18.4,0,34.7,12.9,40.6,32,2.9,9.2,11.9,32.5,12,32.8a1.3,1.3,0,0,1,0,1.2,2.2,2.2,0,0,1-1,.9l-40.7,11.5h-.4a1.6,1.6,0,0,1-.9-.3,1.4,1.4,0,0,1-.7-1.1c-2.7-26.1-8.6-54.3-13.3-54.3a39.4,39.4,0,0,0-25,19.3,49,49,0,0,0-3.6,37.2,1.8,1.8,0,0,1-.7,1.9Z"/><path class="cls-3" d="M114.2,165.1c17,0,33.2,11.7,39.1,30.8,2.9,9.4,12.1,32.9,12.1,32.9l-40.7,11.6s-5.8-55.7-14.9-55.7h-.6c-27.1,7.3-36.4,36.1-29.5,58.6a47.6,47.6,0,0,1-9.2-16.9c-7-22.5,1-51.8,34.8-60.2a33.4,33.4,0,0,1,8.9-1.1m0-3.2h0a39.6,39.6,0,0,0-9.7,1.2c-15.1,3.8-26.6,12-33.3,23.7s-8.1,26.6-3.8,40.5a50.7,50.7,0,0,0,9.9,18.1,3.2,3.2,0,0,0,2.4,1.1,3.7,3.7,0,0,0,1.5-.4,3,3,0,0,0,1.5-3.7,47.7,47.7,0,0,1,3.5-36,37.7,37.7,0,0,1,23.5-18.5c3.7,2.7,9.1,26.6,11.8,52.8a3.3,3.3,0,0,0,1.4,2.4,3.7,3.7,0,0,0,1.8.5h.9l40.6-11.6a2.9,2.9,0,0,0,2-1.6,3.4,3.4,0,0,0,.1-2.6c-.1-.3-9.1-23.6-12-32.7-6-19.8-23-33.1-42.1-33.1Z"/><path class="cls-9" d="M79.7,244.9a1.4,1.4,0,0,1-1.2-.6,49.7,49.7,0,0,1-9.6-17.5c-4.1-13.4-2.8-27.7,3.7-39.2s17.6-19.3,32.3-23a40.8,40.8,0,0,1,9.3-1.1c18.4,0,34.7,12.9,40.6,32,2.9,9.2,11.9,32.5,12,32.8a1.3,1.3,0,0,1,0,1.2,2.2,2.2,0,0,1-1,.9l-25.1,7.1h-.4a1.5,1.5,0,0,1-1.5-1.1c-16.4-45.9-25.2-50.8-28.2-50.8a3.2,3.2,0,0,0-1.8.6l-.6.4c-21.7,8.8-33.8,34-27,56.1a1.8,1.8,0,0,1-.7,1.9Z"/><path class="cls-3" d="M114.2,165.1c17,0,33.2,11.7,39.1,30.8,2.9,9.4,12.1,32.9,12.1,32.9L140.3,236c-16.2-45.3-25.3-51.9-29.7-51.9a5.4,5.4,0,0,0-3,1.1c-23,9.4-34.7,36.1-27.9,58.1a47.6,47.6,0,0,1-9.2-16.9c-7-22.5,1-51.8,34.8-60.2a33.4,33.4,0,0,1,8.9-1.1m0-3.2h0a39.6,39.6,0,0,0-9.7,1.2c-15.1,3.8-26.6,12-33.3,23.7s-8.1,26.6-3.8,40.5a50.7,50.7,0,0,0,9.9,18.1,3.2,3.2,0,0,0,2.4,1.1,3.7,3.7,0,0,0,1.5-.4,3,3,0,0,0,1.5-3.7c-6.5-21.4,5.1-45.7,26.1-54.2l.9-.5a1.4,1.4,0,0,1,.9-.4c.9,0,9.4,1.4,26.7,49.7a3.3,3.3,0,0,0,3,2.2l.9-.2,25-7.1a2.9,2.9,0,0,0,2-1.6,3.4,3.4,0,0,0,.1-2.6c-.1-.3-9.1-23.6-12-32.7-6-19.8-23-33.1-42.1-33.1Z"/><path class="cls-8" d="M79.7,244.9a1.4,1.4,0,0,1-1.2-.6,49.7,49.7,0,0,1-9.6-17.5c-4.1-13.4-2.8-27.7,3.7-39.2s17.6-19.3,32.3-23a40.8,40.8,0,0,1,9.3-1.1c18.4,0,34.7,12.9,40.6,32,2.9,9.2,11.9,32.5,12,32.8a1.3,1.3,0,0,1,0,1.2,2.2,2.2,0,0,1-1,.9l-40.7,11.5h-.4a1.6,1.6,0,0,1-.9-.3,1.4,1.4,0,0,1-.7-1.1c-2.7-26.1-8.6-54.3-13.3-54.3a39.4,39.4,0,0,0-25,19.3,49,49,0,0,0-3.6,37.2,1.8,1.8,0,0,1-.7,1.9Z"/><path class="cls-3" d="M114.2,165.1c17,0,33.2,11.7,39.1,30.8,2.9,9.4,12.1,32.9,12.1,32.9l-40.7,11.6s-5.8-55.7-14.9-55.7h-.6c-27.1,7.3-36.4,36.1-29.5,58.6a47.6,47.6,0,0,1-9.2-16.9c-7-22.5,1-51.8,34.8-60.2a33.4,33.4,0,0,1,8.9-1.1m0-3.2h0a39.6,39.6,0,0,0-9.7,1.2c-15.1,3.8-26.6,12-33.3,23.7s-8.1,26.6-3.8,40.5a50.7,50.7,0,0,0,9.9,18.1,3.2,3.2,0,0,0,2.4,1.1,3.7,3.7,0,0,0,1.5-.4,3,3,0,0,0,1.5-3.7,47.7,47.7,0,0,1,3.5-36,37.7,37.7,0,0,1,23.5-18.5c3.7,2.7,9.1,26.6,11.8,52.8a3.3,3.3,0,0,0,1.4,2.4,3.7,3.7,0,0,0,1.8.5h.9l40.6-11.6a2.9,2.9,0,0,0,2-1.6,3.4,3.4,0,0,0,.1-2.6c-.1-.3-9.1-23.6-12-32.7-6-19.8-23-33.1-42.1-33.1Z"/><path class="cls-10" d="M79.7,244.9a1.4,1.4,0,0,1-1.2-.6,49.7,49.7,0,0,1-9.6-17.5c-4.1-13.4-2.8-27.7,3.7-39.2s17.6-19.3,32.3-23a40.8,40.8,0,0,1,9.3-1.1c18.4,0,34.7,12.9,40.6,32,2.9,9.2,11.9,32.5,12,32.8a1.3,1.3,0,0,1,0,1.2,2.2,2.2,0,0,1-1,.9l-25.1,7.1h-.4a1.5,1.5,0,0,1-1.5-1.1c-16.4-45.9-25.2-50.8-28.2-50.8a3.2,3.2,0,0,0-1.8.6l-.6.4c-21.7,8.8-33.8,34-27,56.1a1.8,1.8,0,0,1-.7,1.9Z"/><path class="cls-3" d="M114.2,165.1c17,0,33.2,11.7,39.1,30.8,2.9,9.4,12.1,32.9,12.1,32.9L140.3,236c-16.2-45.3-25.3-51.9-29.7-51.9a5.4,5.4,0,0,0-3,1.1c-23,9.4-34.7,36.1-27.9,58.1a47.6,47.6,0,0,1-9.2-16.9c-7-22.5,1-51.8,34.8-60.2a33.4,33.4,0,0,1,8.9-1.1m0-3.2h0a39.6,39.6,0,0,0-9.7,1.2c-15.1,3.8-26.6,12-33.3,23.7s-8.1,26.6-3.8,40.5a50.7,50.7,0,0,0,9.9,18.1,3.2,3.2,0,0,0,2.4,1.1,3.7,3.7,0,0,0,1.5-.4,3,3,0,0,0,1.5-3.7c-6.5-21.4,5.1-45.7,26.1-54.2l.9-.5a1.4,1.4,0,0,1,.9-.4c.9,0,9.4,1.4,26.7,49.7a3.3,3.3,0,0,0,3,2.2l.9-.2,25-7.1a2.9,2.9,0,0,0,2-1.6,3.4,3.4,0,0,0,.1-2.6c-.1-.3-9.1-23.6-12-32.7-6-19.8-23-33.1-42.1-33.1Z"/><g class="cls-4"><path class="cls-11" d="M144.4,195.2c3.2-2.4,3.6-6.3,3.9-10.3a44.1,44.1,0,0,1,5,11c2.9,9.4,12.1,32.9,12.1,32.9l-40.7,11.6s-3.1-29.6-8.3-45.7h.3C125.8,194.8,136.7,201,144.4,195.2Z"/></g><path class="cls-12" d="M121.9,175.4c8.7,3.4,19.7,19.5,22,9.7.7-3-8.1-13.2-21-17.3a36,36,0,0,0-28.4,2.9S110.3,170.9,121.9,175.4Z"/><path class="cls-13" d="M147.2,260l-.7-.2a1.4,1.4,0,0,1-.8-1.3c-.1-.3-2.5-30.2-1-52.1,1.7-24,18.5-45.7,41-52.6a36.8,36.8,0,0,1,11.1-1.6c15.9,0,33.5,8.8,42.7,21.4a1.5,1.5,0,0,1-.1,2,1.3,1.3,0,0,1-1.2.5l-.9-.3a36.8,36.8,0,0,0-20.7-6.6,33,33,0,0,0-9.9,1.5c-19.8,6.1-30.3,29.2-23.5,51.6a47.1,47.1,0,0,0,11.2,18.9,1.7,1.7,0,0,1,.3,1.9,1.6,1.6,0,0,1-1.4.8h-.4l-2-.2c-12.3,0-42.6,16.1-42.9,16.2Z"/><path class="cls-3" d="M196.8,153.8c15.8,0,32.8,9,41.4,20.7a38.6,38.6,0,0,0-21.6-6.8,36.8,36.8,0,0,0-10.4,1.5c-20.7,6.4-31.6,30.3-24.5,53.5a48.7,48.7,0,0,0,11.6,19.6,8.8,8.8,0,0,0-2.4-.3c-12.8,0-43.7,16.4-43.7,16.4s-2.4-29.8-.9-51.9,17-44.2,39.9-51.2a37.7,37.7,0,0,1,10.6-1.5m0-3.2h0a39.5,39.5,0,0,0-11.5,1.7c-23.1,7.1-40.5,29.3-42.2,54-1.5,22,.9,51.1,1,52.4a3.3,3.3,0,0,0,1.6,2.5,2.8,2.8,0,0,0,1.5.4,2.6,2.6,0,0,0,1.5-.4c8.4-4.4,32.4-16,42.2-16l1.7.2h.7a3.2,3.2,0,0,0,2.8-1.7,3,3,0,0,0-.5-3.7,46.1,46.1,0,0,1-10.9-18.3c-6.6-21.5,3.5-43.7,22.4-49.5a30.9,30.9,0,0,1,9.5-1.5,35.3,35.3,0,0,1,19.9,6.4,3.4,3.4,0,0,0,1.7.5,2.9,2.9,0,0,0,2.3-1,3.2,3.2,0,0,0,.3-4.1c-9.5-12.9-27.6-22-44-22Z"/><path class="cls-8" d="M165.4,251.3l-.8-.2a1.7,1.7,0,0,1-.7-1.3c-.8-13.6-1-25.2-.6-34.3,1.1-23.9,16.7-45.2,37.8-51.7a33.9,33.9,0,0,1,9.7-1.4c8.4,0,17.7,2.9,26.1,8l.3.3a29.2,29.2,0,0,1,2.3,2.9,1.5,1.5,0,0,1-.1,2,1.3,1.3,0,0,1-1.2.5l-.9-.3a36.8,36.8,0,0,0-20.7-6.6,33,33,0,0,0-9.9,1.5c-19.8,6.1-30.3,29.2-23.5,51.6a47.1,47.1,0,0,0,11.2,18.9,1.7,1.7,0,0,1,.3,1.9,1.6,1.6,0,0,1-1.4.8h-.4l-2-.2c-4.8,0-13.4,2.6-24.8,7.6Z"/><path class="cls-3" d="M210.8,164c8.5,0,17.5,3,25.2,7.8l2.2,2.7a38.6,38.6,0,0,0-21.6-6.8,36.8,36.8,0,0,0-10.4,1.5c-20.7,6.4-31.6,30.3-24.5,53.5a48.7,48.7,0,0,0,11.6,19.6,8.8,8.8,0,0,0-2.4-.3c-6.1,0-16.4,3.8-25.5,7.7-.5-10.2-1-23.2-.5-34.1,1-22.1,15.2-43.7,36.6-50.3a32.2,32.2,0,0,1,9.3-1.3m0-3.2h0a34,34,0,0,0-10.2,1.5c-21.7,6.7-37.7,28.5-38.9,53.1-.4,9.2-.2,20.8.6,34.5a2.9,2.9,0,0,0,1.5,2.5,3.3,3.3,0,0,0,1.6.5,2.8,2.8,0,0,0,1.3-.3c14.2-6.1,21-7.4,24.2-7.4l1.7.2h.7a3.2,3.2,0,0,0,2.8-1.7,3,3,0,0,0-.5-3.7,46.1,46.1,0,0,1-10.9-18.3c-6.6-21.5,3.5-43.7,22.4-49.5a30.9,30.9,0,0,1,9.5-1.5,35.3,35.3,0,0,1,19.9,6.4,3.4,3.4,0,0,0,1.7.5,2.9,2.9,0,0,0,2.3-1,3.2,3.2,0,0,0,.3-4.1l-2.4-2.9a1.3,1.3,0,0,0-.7-.6c-8.6-5.4-18.2-8.3-26.9-8.3Z"/><g class="cls-4"><path class="cls-14" d="M171.3,189.8c1.9-6.6,9.3-8.3,16.3-7.2-7.7,10.7-10.4,25.5-5.9,40.1a48.7,48.7,0,0,0,11.6,19.6H184l-.4.2h-1.8l-.5.2h-.9l-.4.2h-.5l-.4.2h-.6l-.4.2-.5.2h-.5l-.5.2-.4.2-.6.2h-.4l-.6.2-.4.2-.6.2h-.4l-.6.3h-.3l-.7.3h-.3l-.7.3h-.3l-.8.3h-.2l-.8.3h-.1l-1,.4h0l-2,.8c-9.8,4.3-18.2,8.7-18.2,8.7s-1.8-23.1-1.3-43.6C157.2,209.8,167.5,203.5,171.3,189.8Z"/></g><path class="cls-12" d="M170.1,174.3c-10.1,10.7-13.7,31.8-20.8,27.1-2.1-1.5,3.7-20.2,16.2-31.5,18.8-17.1,34.3-13.9,34.3-13.9S180.3,163.6,170.1,174.3Z"/><path class="cls-15" d="M120.7,267.6h-.2a1.5,1.5,0,0,1-1.3-1.4,47.3,47.3,0,0,0-7.8-20.5c-8.4-12.4-21.7-19.8-35.5-19.8a34.1,34.1,0,0,0-19.4,5.9c-8.7,5.9-14.3,15.8-15.2,27.1a1.5,1.5,0,0,1-1.4,1.5h-.2a1.6,1.6,0,0,1-1.5-1.2c-4.6-17.1,1.6-43.1,18.2-54.4a57,57,0,0,1,32.2-9.6,60.8,60.8,0,0,1,34.5,10.5c18,12.5,39.9,33.1,40.1,33.3a1.5,1.5,0,0,1,.5,1.4,1.7,1.7,0,0,1-1,1.2c-10,4.3-36.9,17.3-40.5,25.1A1.6,1.6,0,0,1,120.7,267.6Z"/><path class="cls-3" d="M88.6,196.8A59.7,59.7,0,0,1,122.2,207c18.1,12.6,39.9,33.1,39.9,33.1S125.5,256,120.7,266a47.3,47.3,0,0,0-8-21.2c-9-13.2-23.1-20.5-36.8-20.5a35.7,35.7,0,0,0-20.3,6.2c-9.5,6.4-14.9,16.9-15.8,28.3-4.7-17.3,1.8-42,17.5-52.6a55.5,55.5,0,0,1,31.3-9.4m0-3.2a58.4,58.4,0,0,0-33.1,9.9C37.8,215.6,32,242,36.7,259.6a3.2,3.2,0,0,0,3,2.4H40a3.2,3.2,0,0,0,2.9-2.9c.9-10.9,6.2-20.3,14.5-26a32.5,32.5,0,0,1,18.5-5.6c13.3,0,26,7.1,34.2,19.1a46.1,46.1,0,0,1,7.5,19.8,3.2,3.2,0,0,0,2.6,2.8h.5a3.1,3.1,0,0,0,2.9-1.8c3.1-6.5,26-18.4,39.8-24.4a3.3,3.3,0,0,0,1.8-2.3,3.1,3.1,0,0,0-.9-2.9c-.9-.8-22.2-20.8-40.3-33.4a62.4,62.4,0,0,0-35.4-10.8Z"/><path class="cls-8" d="M120.7,267.6h-.2a1.5,1.5,0,0,1-1.3-1.4,47.3,47.3,0,0,0-7.8-20.5c-8.4-12.4-21.7-19.8-35.5-19.8a34.1,34.1,0,0,0-19.4,5.9c-8.7,5.9-14.3,15.8-15.2,27.1a1.5,1.5,0,0,1-1.4,1.5h-.2a1.6,1.6,0,0,1-1.5-1.2c-.3-1.2-.6-2.4-.8-3.6v-.4c1.7-14,8.1-26,17.2-32.1a51,51,0,0,1,28.9-8.6,59.5,59.5,0,0,1,35,11.4c7.4,5.4,16.3,12.7,26.5,21.8a1.6,1.6,0,0,1,.5,1.4,1.5,1.5,0,0,1-.8,1.2c-12.7,6.8-20.7,12.6-22.5,16.4A1.6,1.6,0,0,1,120.7,267.6Z"/><path class="cls-3" d="M83.5,216.1a58.1,58.1,0,0,1,34.1,11.1c8.9,6.4,18.7,14.9,26.3,21.7-9.9,5.3-20.7,12-23.2,17.1a47.3,47.3,0,0,0-8-21.2c-9-13.2-23.1-20.5-36.8-20.5a35.7,35.7,0,0,0-20.3,6.2c-9.5,6.4-14.9,16.9-15.8,28.3-.3-1.1-.6-2.3-.8-3.4,1.5-12.5,7.1-24.6,16.5-31a49.1,49.1,0,0,1,28-8.3m0-3.2a52.6,52.6,0,0,0-29.8,8.9c-9.4,6.4-16.1,18.8-17.9,33.2a2.8,2.8,0,0,0,.1.9c.2,1.3.5,2.5.8,3.7a3.1,3.1,0,0,0,3,2.4H40a3.2,3.2,0,0,0,2.9-2.9c.9-10.9,6.2-20.3,14.5-26a32.5,32.5,0,0,1,18.5-5.6c13.3,0,26,7.1,34.2,19.1a46.1,46.1,0,0,1,7.5,19.8,3.2,3.2,0,0,0,2.6,2.8h.5a3.1,3.1,0,0,0,2.9-1.8c.8-1.7,4.4-6.5,21.8-15.7a3.2,3.2,0,0,0,1.7-2.4,3.6,3.6,0,0,0-1-2.8c-10.2-9.1-19.2-16.5-26.6-21.9a62.1,62.1,0,0,0-36-11.7Z"/><g class="cls-4"><path class="cls-11" d="M105.5,228.8c7.7-.7,20.4,3.7,22.8-2.9,1.2-3.1-.4-9.3.3-14.2,16.5,12.4,33.5,28.4,33.5,28.4s-8.7,3.8-18.2,8.8h0l-2.8,1.5h0l-.9.4h-.1l-.8.5h-.2l-.7.5h-.2l-.7.4h-.3l-.6.4-.3.2-.6.4h-.3l-.6.4-.4.2-.5.3-.3.3-.6.3-.3.2-.5.3-.4.3-.5.3-.3.2-.5.3-.3.3-.5.3-.3.2-.5.3-.3.3-.4.3-.4.2-.4.3-.3.3-.4.3-.3.2-.4.3-.3.3-.3.3-.3.2-.3.3-.3.2-.3.3-.3.3-.3.3-.2.2-.3.3c-.1.1-.1.2-.2.2l-.3.3a.2.2,0,0,1-.2.2l-.2.3-.2.3-.2.3c-.1,0-.1.1-.2.2l-.2.3a.3.3,0,0,0-.1.2l-.2.3c-.1,0-.1.1-.1.2l-.3.4a47.3,47.3,0,0,0-8-21.2,48.4,48.4,0,0,0-13.4-13.3A13.9,13.9,0,0,1,105.5,228.8Z"/></g><path class="cls-12" d="M84.1,204.9c14.7-.4,32.9,10.9,34,2.5.4-2.6-17.4-10.7-34.2-8.8-25.3,2.7-33.2,16.5-33.2,16.5S69.3,205.4,84.1,204.9Z"/><path class="cls-16" d="M242.5,196.3a12.7,12.7,0,1,1,11.3-6.8,13.3,13.3,0,0,1-7.5,6.3,15.8,15.8,0,0,1-3.8.5Z"/><path class="cls-3" d="M242.5,172.3a11.2,11.2,0,0,1,3.3,21.9,9.5,9.5,0,0,1-3.3.5,11.2,11.2,0,0,1-3.3-21.9,12.6,12.6,0,0,1,3.3-.5m0-3.2a12.3,12.3,0,0,0-4.2.7,14.4,14.4,0,0,0,4.2,28.1,14.1,14.1,0,0,0,12.7-7.7,14.2,14.2,0,0,0,1.1-10.9,14.4,14.4,0,0,0-13.8-10.2Z"/><g class="cls-4"><path class="cls-16" d="M238.1,173.2a11.4,11.4,0,0,0-2.8,11.2,11.2,11.2,0,0,0,14,7.4l1.1-.4a9.9,9.9,0,0,1-4.6,2.8,11.2,11.2,0,0,1-7.7-21Z"/></g><path class="cls-17" d="M251.1,180.9c-1.7-4.4-7.6-7.7-11.3-6.3a6.1,6.1,0,0,0-2.6,1.8c.7-1.8,1.9-2.6,3.8-3.3,3.6-1.3,9.2,1.3,10.7,5.5.9,2.2,1.4,4.7.5,6.5C252.4,183.8,251.6,182.3,251.1,180.9Z"/><path class="cls-3" d="M246.1,187.7a3.4,3.4,0,0,0,2.6,3.3c1.6.3,3.1-1.3,3-3.5s-1.6-3.6-3.2-3.2A3.3,3.3,0,0,0,246.1,187.7Z"/><path class="cls-18" d="M241.5,171.9a21.6,21.6,0,0,1,6.7,21.8"/><path class="cls-3" d="M241.9,189a3.3,3.3,0,0,1-.3,4.2c-1.1,1.1-3.3.7-4.4-1.2s-.7-3.9.8-4.5A3.5,3.5,0,0,1,241.9,189Z"/><path class="cls-18" d="M236.8,173.3a22.2,22.2,0,0,0,6.7,21.9"/><path class="cls-16" d="M36.3,271.5a12.8,12.8,0,0,1-12.8-12.8,12.8,12.8,0,1,1,25.6.1,12.7,12.7,0,0,1-12.8,12.7Z"/><path class="cls-3" d="M36.3,247.5h0a11.2,11.2,0,1,1,0,22.4h0a11.2,11.2,0,0,1,0-22.4m0-3.2a14.4,14.4,0,1,0,0,28.8,14.4,14.4,0,0,0,.1-28.8Z"/><g class="cls-4"><path class="cls-16" d="M35.2,247.6a11.2,11.2,0,0,0,5.2,21.1h1.1a10,10,0,0,1-5.2,1.3,11.2,11.2,0,0,1-1.1-22.3Z"/></g><path class="cls-17" d="M45.3,258.8c-.3-4.7-5-9.6-9-9.4a5.9,5.9,0,0,0-2.9,1,5.5,5.5,0,0,1,4.5-2c3.9-.3,8.4,3.9,8.7,8.4.1,2.3-.1,4.8-1.5,6.4C45.6,261.9,45.3,260.2,45.3,258.8Z"/><path class="cls-3" d="M38.5,263.8a3.5,3.5,0,0,0,1.5,4c1.4.6,3.3-.4,3.9-2.5s-.5-3.9-2-4.1A3.4,3.4,0,0,0,38.5,263.8Z"/><path class="cls-18" d="M38.8,247.3a21.7,21.7,0,0,1-.1,22.9"/><path class="cls-3" d="M34.1,263.8a3.3,3.3,0,0,1-1.5,3.9c-1.4.7-3.3-.3-3.9-2.4s.5-4,2.1-4.1A3.4,3.4,0,0,1,34.1,263.8Z"/><path class="cls-18" d="M33.9,247.3a22.2,22.2,0,0,0-.1,22.9"/><path class="cls-16" d="M84.3,261.4a11.3,11.3,0,0,1-7.6-19.7,11.8,11.8,0,0,1,7.6-2.9,11,11,0,0,1,8.3,3.8,10.6,10.6,0,0,1,2.9,8.1,11.5,11.5,0,0,1-3.7,7.8,11.7,11.7,0,0,1-7.5,2.9Z"/><path class="cls-3" d="M84.3,240.2a9.6,9.6,0,0,1,7.3,3.3,9.9,9.9,0,0,1-.7,13.9,9.8,9.8,0,0,1-14-.7,10,10,0,0,1,7.4-16.5m0-2.8a12.8,12.8,0,0,0-12.7,12,12.6,12.6,0,0,0,12.7,13.4,12.8,12.8,0,0,0,12.6-12,12.6,12.6,0,0,0-12.6-13.4Z"/><g class="cls-4"><path class="cls-16" d="M76.9,243.5a9.9,9.9,0,0,0,15.9,10.7l.7-.7a9.3,9.3,0,0,1-2.6,3.9,9.9,9.9,0,0,1-14-13.9Z"/></g><path class="cls-17" d="M90.1,244.8c-2.9-2.9-8.9-3.3-11.3-.8a5.8,5.8,0,0,0-1.4,2.4,4.9,4.9,0,0,1,1.8-4c2.4-2.5,7.8-2.4,10.6.3s2.8,3.3,2.8,5.1A10,10,0,0,0,90.1,244.8Z"/><path class="cls-3" d="M88.7,252.1a2.8,2.8,0,0,0,3.3,1.7c1.3-.4,2-2.2,1.1-3.9s-2.7-2.3-3.7-1.4A2.9,2.9,0,0,0,88.7,252.1Z"/><path class="cls-19" d="M79.1,241.2a19.1,19.1,0,0,1,13.5,14.9"/><path class="cls-3" d="M85.8,254.7a3,3,0,0,1,1.3,3.5c-.5,1.3-2.4,1.7-4,.7s-1.9-2.9-1-3.9A2.9,2.9,0,0,1,85.8,254.7Z"/><path class="cls-19" d="M75.9,244a19,19,0,0,0,13.5,15"/><path class="cls-8" d="M134.1,263.6a1.8,1.8,0,0,1-1-.4,2,2,0,0,1-.6-1.5c1-5.6,4-24.5,4.8-32.7,2.2-23.1,19.9-40.4,41.1-40.4h1.5c15.2.6,27.7,6.1,36.3,15.9s12.9,23.6,11.6,37.7a47.9,47.9,0,0,1-5.8,19,1.6,1.6,0,0,1-1.4.8h-.5a1.8,1.8,0,0,1-1.1-1.7,48.5,48.5,0,0,0-11.1-35.7,39.6,39.6,0,0,0-28.2-13.9h0a1.3,1.3,0,0,0-.7.4c-1.4,1.5-4.4,8.1-2.7,38.3a1.6,1.6,0,0,1-1.1,1.6l-40.6,12.5Z"/><path class="cls-3" d="M178.5,190.1h1.4c34.7,1.3,48.5,28.4,46.3,51.8a46.1,46.1,0,0,1-5.6,18.4c2.2-23.4-12.8-49.7-40.8-51.3h-.1c-6.1,0-5.9,23.4-5,40.4L134.1,262c1-5.9,4-24.7,4.8-32.9,2.1-22.9,19.6-39,39.6-39m0-3.1c-22.2,0-40.5,18-42.8,41.8-.8,8.4-4.1,28.7-4.7,32.6a3.4,3.4,0,0,0,1,3,3.3,3.3,0,0,0,2.1.7h.9l40.6-12.5a3.2,3.2,0,0,0,2.3-3.2c-1.7-30.1,1.4-36,2.1-37a37.8,37.8,0,0,1,26.7,13.3,47,47,0,0,1,10.7,34.6,3.2,3.2,0,0,0,2.3,3.3h.9a3.2,3.2,0,0,0,2.8-1.6,51.9,51.9,0,0,0,6-19.7c1.3-14.5-3-28.6-12-38.9S195.6,187.6,180,187Z"/><path class="cls-20" d="M134.1,263.6a1.8,1.8,0,0,1-1-.4,2,2,0,0,1-.6-1.5c1-5.6,4-24.5,4.8-32.7,2.2-23.1,19.9-40.4,41.1-40.4h1.5c15.2.6,27.7,6.1,36.3,15.9s12.9,23.6,11.6,37.7a47.9,47.9,0,0,1-5.8,19,1.6,1.6,0,0,1-1.4.8h-.5a1.8,1.8,0,0,1-1.1-1.7c2.2-23-14.8-45.2-37.8-49.5l-.7-.2a4.9,4.9,0,0,0-1.4-.3c-2,0-9.2,3.1-15.9,43.4a1.6,1.6,0,0,1-1.1,1.3l-27.5,8.5Z"/><path class="cls-3" d="M178.5,190.1h1.4c34.7,1.3,48.5,28.4,46.3,51.8a46.1,46.1,0,0,1-5.6,18.4c2.2-22.9-14.7-46.6-39.1-51.1a6.7,6.7,0,0,0-2.4-.6c-3.7,0-10.8,5-17.4,44.8L134.1,262c1-5.9,4-24.7,4.8-32.9,2.1-22.9,19.6-39,39.6-39m0-3.1c-22.2,0-40.5,18-42.8,41.8-.8,8.4-4.1,28.7-4.7,32.6a3.4,3.4,0,0,0,1,3,3.3,3.3,0,0,0,2.1.7h.9l27.6-8.5a3.1,3.1,0,0,0,2.2-2.5c6.9-41.6,14-42.1,14.3-42.1l.8.2,1,.3c22.2,4.1,38.6,25.5,36.5,47.8a3.2,3.2,0,0,0,2.3,3.3h.9a3.2,3.2,0,0,0,2.8-1.6,51.9,51.9,0,0,0,6-19.7c1.3-14.5-3-28.6-12-38.9S195.6,187.6,180,187Z"/><g class="cls-4"><path class="cls-11" d="M138.9,229.1a44.8,44.8,0,0,1,10.3-25c1.4,7.7,5.8,14.2,13.5,15,3.8.4,8.8-3.2,12.7-3.1-1.6,8.2-1.3,22.2-.7,33.5l-13,4L134.1,262C135.1,256.1,138.1,237.3,138.9,229.1Z"/></g><path class="cls-12" d="M207.3,212.8c-7.4-6.8-14.7-12.5-20.4-15.3l-10.7-5.2a79.7,79.7,0,0,1,10.5.2,51.9,51.9,0,0,1,26.9,14.4c11.1,11.8,11.6,31.1,11.6,31.1S222.3,226.6,207.3,212.8Z"/><path class="cls-11" d="M119,274.4c-.8,0-2.9,0-3.4-1.6l-.6-2.1c-.8-2.9-2.6-8.8-5.2-10.5a17.3,17.3,0,0,0-2.7-1.5c-2.2-1.2-4.6-2.4-6.2-5a5.5,5.5,0,0,1-.8-4.9,7.7,7.7,0,0,1,6.9-4.9c4.5,0,8.8,4.9,12.7,9.1,1.5,1.7,3.5,4,4.5,4.5a5.8,5.8,0,0,0-.8-3.7l-.2-.6a40.8,40.8,0,0,1-2.5-7.7c-.8-3.8.4-6.5,4-8.7a11.7,11.7,0,0,1,5.9-1.9,7,7,0,0,1,3.8,1.1c2.9,1.9,2.8,4.7,2.8,7v1.7a13,13,0,0,0,3.1,7.4,2.6,2.6,0,0,0,1.9.9,2.9,2.9,0,0,0,2.4-1.4,3,3,0,0,0,.6-2.8c-.4-1.3-1.1-2.8-1.7-4.4-1.9-4.2-4-9-2.5-13.3a7.1,7.1,0,0,1,7-5.2,9.2,9.2,0,0,1,6.1,2.4c1.5,1.3,3.2,4.7,4.7,7.9a35.5,35.5,0,0,0,2.5,4.7l.6.8c.7,1,1.8,2.4,2.5,2.4a2.1,2.1,0,0,0,1.3-.9c1.7-2,1.1-4.6-.1-8.2a17.2,17.2,0,0,1-.7-2.1c-.5-1.8-1.4-6.4.4-9.6a5.9,5.9,0,0,1,3.8-2.9,9.9,9.9,0,0,1,2.4-.3c3.7,0,5.5,2.8,7.3,5.5s2.6,4.3,3.8,6.4a39,39,0,0,0,1.9,3.5c.7,1.2,1,1.6,1.2,1.7l.2-.2c.6-.7.3-4.9,0-7.3-.5-6-1.2-12.7,3.7-13.2h.4a3.6,3.6,0,0,1,2.8,1.2c2.5,2.8,1.6,9.5,1.5,10.2l-.3,1.9c-.4,2.4-.7,4.1.2,6.3a35.9,35.9,0,0,1,1.4,4.3,9.8,9.8,0,0,0,.5,1.6,9.4,9.4,0,0,0,.5,1.5,5.4,5.4,0,0,1,1.3,2.7l.4,1.2c.5,1.6-.1,3.2-11.8,8-7.3,3-17.3,6.5-28,9.8C140.5,270.7,124.6,274.4,119,274.4Z"/><path class="cls-3" d="M190,218c3.5,0,3.1,7.4,2.8,9.7s-1.3,5.7,0,9,1.2,3.8,1.8,5.7c1,3.4.8.9,1.9,4.3l.3,1.1c.6,2-16.7,9.1-38.7,15.9-18.2,5.6-33.8,9.2-39.1,9.2-1.1,0-1.8-.2-1.9-.5l-.3-1.2c-.9-2.7-2.7-10-6.1-12.3s-6.4-2.7-8.5-6-.1-5.8,3.2-7.1a4.1,4.1,0,0,1,1.6-.3c6.5,0,14.3,13.7,17.5,13.7a1.1,1.1,0,0,0,1.1-.9c.8-1.9-.3-4-1-5.7a49.1,49.1,0,0,1-2.4-7.4c-.7-3.3.4-5.3,3.3-7.1a10.2,10.2,0,0,1,5.1-1.6,5.2,5.2,0,0,1,3,.8c2.7,1.8,1.9,4.6,2.1,7.4a14.7,14.7,0,0,0,3.5,8.5,4.2,4.2,0,0,0,3,1.4,5,5,0,0,0,4.5-6.2c-1.5-4.9-6.1-11.6-4.3-16.8a5.9,5.9,0,0,1,5.6-4.2,8.2,8.2,0,0,1,5.1,2c2.2,1.9,5.3,10.3,7,12.5s2.6,3.7,4.3,3.7a3.4,3.4,0,0,0,2.4-1.4c3-3.5.6-8-.4-11.7s-1.4-9.4,3.1-10.6l2-.3c2.7,0,4.2,1.9,6,4.8s3.8,6.6,5.6,9.9c.7,1.1,1.5,2.4,2.6,2.4a1.9,1.9,0,0,0,1.3-.7c2.7-2.7-3-19.3,2.7-20h.3m0-3.1h-.6c-6.3.7-5.6,8.8-5,14.8a26.4,26.4,0,0,1,.2,2.9,9.1,9.1,0,0,0-.7-1.4c-1.2-2.2-2.4-4.4-3.8-6.6s-4.1-6.2-8.6-6.2a14.5,14.5,0,0,0-2.8.4,7.5,7.5,0,0,0-4.7,3.6c-2.2,3.7-1.1,8.8-.6,10.8l.7,2.2c1.1,3.2,1.6,5.3.4,6.7h-.1l-1.2-1.5-.6-.8a27.1,27.1,0,0,1-2.4-4.4c-2-4.2-3.4-7.1-5.1-8.5a11,11,0,0,0-7.1-2.8,9.1,9.1,0,0,0-8.5,6.3c-1.6,4.8.6,9.9,2.5,14.5a26.4,26.4,0,0,1,1.7,4.2,1.3,1.3,0,0,1-.3,1.4,1.5,1.5,0,0,1-1.2.8.8.8,0,0,1-.7-.4,10.3,10.3,0,0,1-2.7-6.5,4.3,4.3,0,0,1,0-1.6c0-2.4,0-5.9-3.6-8.3a8.8,8.8,0,0,0-4.6-1.3,13.2,13.2,0,0,0-6.7,2.1c-4.2,2.5-5.6,5.8-4.7,10.3a46,46,0,0,0,2,6.6l-.4-.4c-4-4.5-8.6-9.6-13.8-9.6a8.7,8.7,0,0,0-2.8.5,9.2,9.2,0,0,0-5.6,5.5,7.5,7.5,0,0,0,1,6.2,15.4,15.4,0,0,0,6.8,5.4l2.6,1.5c2.1,1.4,3.9,7.4,4.5,9.6l.3,1a7.9,7.9,0,0,0,.4,1.2c.5,1.8,2.2,2.7,4.8,2.7,5.8,0,21.8-3.8,40-9.4,10.7-3.3,20.7-6.8,28.1-9.8,10.9-4.5,13.7-6.6,12.7-9.9l-.4-1.1a7.9,7.9,0,0,0-1.5-3.2l-.4-1.1c-.1-.5-.3-1-.4-1.5s-.9-3-1.5-4.5-.5-3.1-.1-5.4l.3-2c.2-1.3,1-8.1-1.8-11.4a5.4,5.4,0,0,0-4-1.8Z"/><g class="cls-4"><path class="cls-11" d="M111,256.3c6.2,4.5,6.4,6.6,10,12.8,5.2.5,65.6-17.3,71.4-18-6.5,3.2-19.3,8-34.3,12.6-22,6.8-40.4,10.7-41,8.7l-.3-1.2c-.9-2.7-2.7-10-6.1-12.3s-6.3-2.7-8.4-5.8C105.3,252.7,108.7,254.7,111,256.3Z"/></g><path class="cls-16" d="M223.6,281.9A12.8,12.8,0,1,1,236.4,269a12.8,12.8,0,0,1-12.7,12.9Z"/><path class="cls-3" d="M223.6,257.9a11.2,11.2,0,0,1,.1,22.4h-.1a11.3,11.3,0,0,1-11.2-11.2,11.2,11.2,0,0,1,11.2-11.2h0m0-3.2h-.1a14.4,14.4,0,0,0-14.3,14.5,14.6,14.6,0,0,0,14.4,14.3,14.9,14.9,0,0,0,10.3-4.3,14.4,14.4,0,0,0-10.3-24.5Z"/><g class="cls-4"><path class="cls-16" d="M222.4,257.9a11.4,11.4,0,0,0-5.9,10A11.2,11.2,0,0,0,227.8,279h1.1a10.1,10.1,0,0,1-5.2,1.4,11.2,11.2,0,0,1-1.3-22.4Z"/></g><path class="cls-17" d="M232.6,269c-.3-4.7-5.1-9.5-9-9.3a7.1,7.1,0,0,0-3,1,5.5,5.5,0,0,1,4.5-2c4-.3,8.5,3.9,8.8,8.3.1,2.4-.1,4.9-1.4,6.4C233,272.2,232.7,270.5,232.6,269Z"/><path class="cls-3" d="M225.9,274.1a3.3,3.3,0,0,0,1.5,4c1.4.6,3.3-.4,3.9-2.5s-.6-3.9-2.1-4.1A3.3,3.3,0,0,0,225.9,274.1Z"/><path class="cls-18" d="M226,257.6a21.9,21.9,0,0,1,.2,22.9"/><path class="cls-3" d="M221.5,274.2a3.4,3.4,0,0,1-1.6,3.9c-1.3.7-3.3-.3-3.8-2.4s.5-4,2-4.1A3.4,3.4,0,0,1,221.5,274.2Z"/><path class="cls-18" d="M221.1,257.6a21.9,21.9,0,0,0,.1,22.9"/><g class="cls-4"><path class="cls-11" d="M171.1,243.1a5.5,5.5,0,0,1-3,2.8,4.4,4.4,0,0,1-4.2-.3c.8.2,1.8-.1,2.9-1.4,3-3.5.6-8-.4-11.7a13.3,13.3,0,0,1-.6-3C169.5,233,172.1,237.8,171.1,243.1Z"/></g><g class="cls-4"><path class="cls-11" d="M147,252.9a2.2,2.2,0,0,1-1.9.5,5.1,5.1,0,0,0,1.6-5c-1.4-4.5-5.3-10.5-4.6-15.5C145.5,239.6,151.4,245.6,147,252.9Z"/></g><g class="cls-4"><path class="cls-11" d="M125.7,258h0c.6-1.8-.4-3.7-1.1-5.4a49.1,49.1,0,0,1-2.4-7.4c-.4-2.3-.1-3.9,1-5.3,1.2,2.4,3,4.6,4.4,7.1S130.9,259.3,125.7,258Z"/></g><path class="cls-12" d="M172.9,226.6c1.8,1.8,2.2,4.4,3.3,3.2s.6-3.5-1.3-5.3-4.2-2.3-5.3-1.1S171,224.8,172.9,226.6Z"/><path class="cls-12" d="M150.3,232.7c1.8,1.8,2.2,4.4,3.3,3.2s.6-3.5-1.3-5.3-4.2-2.3-5.3-1.1S148.4,231,150.3,232.7Z"/><path class="cls-12" d="M190.5,222.6c.6,1.6.1,3.2,1.1,2.9s1.4-2,.8-3.6-1.9-2.6-2.9-2.2S190,221,190.5,222.6Z"/><path class="cls-12" d="M131.3,240.9c1.4,1.3,1.4,3.5,2.5,2.4a3.5,3.5,0,0,0-4.9-4.8C127.8,239.7,130,239.6,131.3,240.9Z"/><path class="cls-3" d="M123.7,295.9v-.2l-.5-.4a9.2,9.2,0,0,0-2-1l-.7-.2h-.7a2,2,0,0,0-1.1.3.9.9,0,0,0-.5.3H118v.2l-.3.4c-.3.3-.2.4-.3.5s-.1.5-.2.7a8.1,8.1,0,0,0-.1,1.6,9.1,9.1,0,0,0,.1,1.7c0,.3.1.6.1.9a4.5,4.5,0,0,1,.2.8,10.9,10.9,0,0,0,.5,1.4,6.1,6.1,0,0,0,.5,1.2,3.9,3.9,0,0,0,.4.9l.5.9-.9-.5-.8-.7-1.1-1a11.9,11.9,0,0,1-.9-1.5l-.5-.9-.3-.9a7.8,7.8,0,0,1-.4-2.1,6.5,6.5,0,0,1,.1-2.4,5.6,5.6,0,0,1,.4-1.2,12.5,12.5,0,0,1,.8-1.2l.3-.3.2-.2h.4l1.1-.5a3,3,0,0,1,1.3-.2h2.1l.7.6a5,5,0,0,1,1.7,2A1.3,1.3,0,0,1,123.7,295.9Z"/><path class="cls-3" d="M117.3,298.8h.7a4,4,0,0,1,1.7.3l2.3,1.2,1.1.9,1,1.1.8,1.2a5.2,5.2,0,0,1,.6,1.3,7.7,7.7,0,0,1,.6,2.4,7.4,7.4,0,0,1-.2,1.8,3.1,3.1,0,0,1-.2.7l-.4-.6a6.1,6.1,0,0,0-.7-1.4,4.1,4.1,0,0,1-.5-.9l-.7-.9c-.4-.7-1-1.3-1.4-2l-1.6-1.8-.7-.9a4.6,4.6,0,0,1-.7-.7,13.5,13.5,0,0,0-1.2-1.2Z"/><path class="cls-21" d="M160.6,306.3c-6.4,0-12.6-5.9-14.9-14a21.2,21.2,0,0,1,.4-13c1.5-4,4.2-6.7,7.7-7.7a12.6,12.6,0,0,1,2.8-.4c6.4,0,12.6,5.9,14.9,14a21.2,21.2,0,0,1-.4,13,12,12,0,0,1-7.7,7.7,9,9,0,0,1-2.8.4Z"/><path class="cls-3" d="M156.6,272.2c5.9,0,11.8,5.4,14,13.2s-.9,17.8-7.5,19.6a10.9,10.9,0,0,1-2.5.4c-5.9,0-11.8-5.5-14-13.3s.9-17.8,7.5-19.6a10.1,10.1,0,0,1,2.5-.3m0-1.9a10.3,10.3,0,0,0-3,.4,12.9,12.9,0,0,0-8.4,8.3,21.7,21.7,0,0,0-.4,13.6c2.4,8.5,9,14.6,15.8,14.6a10.3,10.3,0,0,0,3-.4c3.8-1,6.8-4,8.4-8.2a22.7,22.7,0,0,0,.4-13.7c-2.4-8.4-9-14.6-15.8-14.6Z"/><path class="cls-11" d="M149,276a19.7,19.7,0,0,0-.9,13.7c2.5,9,9.9,14.8,16.5,12.9a10,10,0,0,0,5.1-3.5,10.4,10.4,0,0,1-6.6,5.9c-6.6,1.9-14-3.9-16.5-12.9C144.9,285.9,146,279.8,149,276Z"/><path class="cls-9" d="M152.3,288.7c1.5,5.6,6,9.1,10.1,8s6.1-6.5,4.6-12.1-6.1-9.1-10.2-7.9S150.7,283.2,152.3,288.7Z"/><path class="cls-15" d="M152.3,288.7c1.5,5.6,6,9.1,10.1,8s6.1-6.5,4.6-12.1-6.1-9.1-10.2-7.9S150.7,283.2,152.3,288.7Z"/><path class="cls-3" d="M155.6,287.8c.8,3.1,3.3,5,5.6,4.4s3.3-3.6,2.5-6.6-3.4-5.1-5.6-4.4S154.7,284.8,155.6,287.8Z"/><path class="cls-21" d="M157.6,280.7c.7,2.3,2.6,3.8,4.4,3.4s2.6-2.8,1.9-5.2-2.6-3.9-4.3-3.4S157,278.3,157.6,280.7Z"/><path class="cls-21" d="M156.5,292.3a1.7,1.7,0,0,0,1.9,1.4,1.7,1.7,0,0,0,.8-2.2c-.2-1-1.1-1.7-1.8-1.5A1.8,1.8,0,0,0,156.5,292.3Z"/><path class="cls-21" d="M190.4,296.6c-6.3,0-12.4-5.7-14.6-13.7s1-18.3,7.9-20.3a12.4,12.4,0,0,1,2.7-.3c6.3,0,12.4,5.7,14.6,13.6s-1,18.4-7.9,20.3a8.4,8.4,0,0,1-2.7.4Z"/><path class="cls-3" d="M186.4,263.2c5.8,0,11.6,5.3,13.7,13s-.8,17.4-7.3,19.2a9.9,9.9,0,0,1-2.4.3c-5.8,0-11.6-5.3-13.7-13s.8-17.4,7.3-19.2a9.9,9.9,0,0,1,2.4-.3m0-1.8a9.2,9.2,0,0,0-2.9.4c-7.4,2-11.3,11.6-8.6,21.4s8.8,14.3,15.5,14.3a9.2,9.2,0,0,0,2.9-.4c7.4-2,11.3-11.7,8.6-21.4s-8.8-14.3-15.5-14.3Z"/><path class="cls-11" d="M179,266.9a19.5,19.5,0,0,0-.9,13.4c2.5,8.8,9.7,14.5,16.2,12.7a10.2,10.2,0,0,0,5-3.4,10.3,10.3,0,0,1-6.5,5.8c-6.5,1.7-13.7-3.9-16.1-12.7C175,276.6,176,270.6,179,266.9Z"/><path class="cls-9" d="M182.2,279.4c1.5,5.4,6,8.9,9.9,7.8s6-6.4,4.5-11.8-5.9-8.9-9.9-7.8S180.7,274,182.2,279.4Z"/><path class="cls-15" d="M182.2,279.4c1.5,5.4,6,8.9,9.9,7.8s6-6.4,4.5-11.8-5.9-8.9-9.9-7.8S180.7,274,182.2,279.4Z"/><path class="cls-3" d="M185.4,278.5c.9,3,3.3,4.9,5.5,4.3s3.3-3.5,2.5-6.5-3.3-4.9-5.5-4.3S184.6,275.5,185.4,278.5Z"/><path class="cls-21" d="M187.5,271.5c.6,2.3,2.5,3.8,4.2,3.3s2.6-2.7,1.9-5-2.5-3.8-4.2-3.3S186.8,269.2,187.5,271.5Z"/><path class="cls-21" d="M186.4,282.9a1.6,1.6,0,0,0,1.8,1.4,1.7,1.7,0,0,0,.8-2.2,1.6,1.6,0,0,0-1.8-1.4A1.7,1.7,0,0,0,186.4,282.9Z"/><path class="cls-20" d="M178.7,313.7c-6.7,0-12-3.5-13-8.6a10.3,10.3,0,0,1,2.8-8.9,16.4,16.4,0,0,1,9.4-5.1,16.1,16.1,0,0,1,3.7-.4c6.7,0,12,3.6,13,8.6s-4.3,12.5-12.3,14.1A21.9,21.9,0,0,1,178.7,313.7Z"/><path class="cls-3" d="M181.6,291.9c5.9,0,10.9,3.1,11.8,7.7s-4,11.1-11.3,12.5a13.7,13.7,0,0,1-3.4.4c-5.9,0-10.9-3.1-11.8-7.7s4-11.1,11.3-12.5a13.2,13.2,0,0,1,3.4-.4m0-2.5h0a25.8,25.8,0,0,0-3.9.4,18.3,18.3,0,0,0-10.2,5.6,11.4,11.4,0,0,0-3,9.9c1.1,5.7,6.9,9.7,14.2,9.7a25.8,25.8,0,0,0,3.9-.4c8.6-1.7,14.6-8.7,13.2-15.5s-6.9-9.7-14.2-9.7Z"/><g class="cls-22"><path class="cls-21" d="M181.4,294.5c.9,1.5-1.1,4.2-4.4,6s-6.6,2.2-7.4.7,1.1-4.1,4.4-6S180.6,293.1,181.4,294.5Z"/></g><g class="cls-4"><path class="cls-20" d="M193.4,299.6a8.5,8.5,0,0,0-4-5.5,7.7,7.7,0,0,1,1.8,3.6c1.1,5.5-4,11.1-11.3,12.5a14.8,14.8,0,0,1-11.2-1.8c2.7,3.2,7.9,4.8,13.4,3.7C189.4,310.7,194.5,305.1,193.4,299.6Z"/></g><path class="cls-23" d="M195.3,330.9c0,3.8-3.5,7.5-8.3,8.9s-11.2-.6-12.4-4.9a8.8,8.8,0,0,1-.2-1.6c0-3.8,3.5-7.6,8.3-8.9s11.2.6,12.4,4.8a5,5,0,0,1,.2,1.7Z"/><path class="cls-3" d="M175,333.3c0-3.5,3.2-7.1,7.9-8.4s10.6.5,11.7,4.5a7.7,7.7,0,0,1,.2,1.5c0,3.5-3.3,7-7.9,8.3s-10.6-.5-11.7-4.4a3.9,3.9,0,0,1-.2-1.5m-1.2,0a5.7,5.7,0,0,0,.3,1.8c1.2,4.5,7.1,6.9,13.1,5.2s8.7-5.4,8.7-9.4a11,11,0,0,0-.2-1.8c-1.3-4.5-7.2-6.9-13.1-5.2s-8.8,5.3-8.8,9.4Z"/><path class="cls-21" d="M187.3,323.7c-4,0-7.8.9-10.7,4.2a1.7,1.7,0,0,1-.6.6l-.7,1.4a8.8,8.8,0,0,0-.5,1.5c-.1,0-.1.1-.1.2l.5-.2a4.7,4.7,0,0,0,1-1,3.3,3.3,0,0,0,2.4,0l.5-.3a2.5,2.5,0,0,0,1.2-1.3,2.8,2.8,0,0,0,2.3-.4h0a2.9,2.9,0,0,0,1.6-1.9,2.1,2.1,0,0,0,1.7-.4l.5-.3a3.5,3.5,0,0,0,1.3-2Z"/><path class="cls-3" d="M187.3,323.7h-.2a2.8,2.8,0,0,1-1.1,1.6l-.4.3a1.9,1.9,0,0,1-1.9,0,2.6,2.6,0,0,1-1.4,2.2h0a2,2,0,0,1-2.4,0,2.3,2.3,0,0,1-1.2,1.8l-.4.2a2.3,2.3,0,0,1-2.5-.4,1.7,1.7,0,0,1-.8,1.3,1.4,1.4,0,0,0-.2.6c-.1.4-.1.7-.2,1a1.9,1.9,0,0,0,.9-.4,2.2,2.2,0,0,0,.9-.7,4,4,0,0,0,2.4-.2l.6-.3a3.7,3.7,0,0,0,1.3-1.2,3.5,3.5,0,0,0,2.3-.6,3.7,3.7,0,0,0,1.6-1.7,3.7,3.7,0,0,0,1.7-.5l.5-.4a3.8,3.8,0,0,0,1.5-2.1l.6-.2Z"/><path class="cls-24" d="M185.2,339.2a27.1,27.1,0,0,1-6.8-.9c-.3,0-.4-.2-.5-.4a.6.6,0,0,1,.2-.7c3.1-3.2,8.4-3.9,12.4-3.9h3.2a1,1,0,0,1,.5.4.8.8,0,0,1,0,.7c-2.2,2.9-4.4,4.4-6.5,4.6Z"/><path class="cls-3" d="M190.5,334h3.1c-1.8,2.4-3.9,4.1-6,4.3l-2.4.2a30,30,0,0,1-6.7-.9c2.9-2.9,7.6-3.7,12-3.7m0-1.4c-5.9,0-10.3,1.4-12.9,4.1a1.5,1.5,0,0,0-.4,1.4,1.5,1.5,0,0,0,1,.9,28.6,28.6,0,0,0,7,.9h2.6c2.3-.2,4.6-1.9,6.9-4.9a1.3,1.3,0,0,0,.2-1.3,1.3,1.3,0,0,0-1.2-.8Z"/><path class="cls-3" d="M195.6,328.7c-1.3-4.5-7.1-6.8-13.1-5.2s-8.7,5.4-8.7,9.4a5,5,0,0,0,.2,1.8c1.3,4.6,7.1,6.9,13.1,5.3s8.7-5.4,8.7-9.5A11,11,0,0,0,195.6,328.7Zm-8.9,10.1c-5,1.4-10-.6-11.1-4.5a3.9,3.9,0,0,1-.2-1.5c0-3.5,3.1-6.9,7.4-8.1s10.1.6,11.2,4.5a7.7,7.7,0,0,1,.2,1.5C194.2,334.2,191.1,337.6,186.7,338.8Z"/><path class="cls-25" d="M218.5,275,217,229.5a18.1,18.1,0,0,0-5.7-12.7A95.6,95.6,0,0,1,187,180a96.6,96.6,0,1,1,181.5-66.4c18.2,50-8,105.8-58.1,123.9a97.7,97.7,0,0,1-39,5.5,18.2,18.2,0,0,0-11.8,3.2Zm0,0"/><path class="cls-26" d="M219.8,278.6a4,4,0,0,1-3-.2,4,4,0,0,1-2.1-3.3l-1.4-45.5a15.1,15.1,0,0,0-4.6-10.1,98.5,98.5,0,0,1-25.2-38.2,99.9,99.9,0,0,1-6.2-39.4,100.3,100.3,0,0,1,31.6-68.6,100.5,100.5,0,0,1,142.3,4.8,101.1,101.1,0,0,1,20.9,34.2,98.1,98.1,0,0,1,5.8,39.4,101.1,101.1,0,0,1-9.4,37.4,100.2,100.2,0,0,1-97.3,57.6,14.8,14.8,0,0,0-9.4,2.6l-41.1,28.8ZM245.5,59.4a93,93,0,0,0-55,119.3A91.8,91.8,0,0,0,213.9,214a22,22,0,0,1,6.9,15.4l1.3,38.5,35.3-24.8a21.9,21.9,0,0,1,14.3-3.9,93.6,93.6,0,0,0,37.4-5.3l.8-.3A92.9,92.9,0,0,0,245.5,59.4Z"/><g class="cls-27"><path class="cls-21" d="M262.1,96.2c-17.3,6.4-26.9,25-21.1,40.6a12.3,12.3,0,1,0,23-8.5c-.5-1.3,1.1-7,6.6-9.1,7.2-2.6,13.3.3,14.8,4.5,3.6,9.6-10.1,16.9-10.2,17a12.3,12.3,0,0,0-7.3,15.7l4.3,11.6a12.3,12.3,0,0,0,23.1-8.5l-.6-1.6a47.8,47.8,0,0,0,5-3.9c11.2-9.9,14.7-22.7,9.8-36C303.1,100.8,286,87.4,262.1,96.2Z"/><path class="cls-21" d="M289.9,180.3a12.3,12.3,0,1,0,15.7,7.3A12.2,12.2,0,0,0,289.9,180.3Z"/></g><g class="cls-28"><path class="cls-26" d="M310,55.4a96.5,96.5,0,0,1,33.5,44.9c18.1,50-8.1,105.8-58.2,123.9a133.6,133.6,0,0,1-17.9,4.5,47.3,47.3,0,0,0-29.4,19L218.5,275l41.1-28.8a18.2,18.2,0,0,1,11.8-3.2,98.9,98.9,0,0,0,40.9-6.2c49.1-18.9,74.3-74.3,56.1-123.7A96.8,96.8,0,0,0,310,55.4Z"/></g><g class="cls-27"><path class="cls-21" d="M253,63.6a92.7,92.7,0,0,1,71.6,2.9l1.3.7a79.7,79.7,0,0,0-9.1-4.9A92.8,92.8,0,0,0,190.6,178.7,90.5,90.5,0,0,0,213.9,214a22.7,22.7,0,0,1,5.4,8,24.6,24.6,0,0,1,2,9l1.2,36.5,7.2-5.1-.9-26.8a24,24,0,0,0-7.5-16.7A93.2,93.2,0,0,1,253,63.6Z"/></g><g class="cls-28"><ellipse class="cls-21" cx="247.8" cy="100.7" rx="22.4" ry="12.4" transform="translate(5.4 213.7) rotate(-47.1)"/></g><g class="cls-28"><circle class="cls-21" cx="221" cy="135.3" r="8.7"/></g><path class="cls-29" d="M281.9,171.9a9.3,9.3,0,0,1-11.9-5.5l-4.3-11.6a9.3,9.3,0,0,1,5.5-11.9c1.7-.6,16.3-9.3,12-20.8-2.1-5.8-10-9.5-18.7-6.3-7.1,2.7-9.4,10.1-8.4,13a9.2,9.2,0,1,1-17.3,6.4c-5.3-14.1,3.6-30.9,19.3-36.7,23.1-8.6,38.2,5.5,43.5,20,4.5,12,1.3,23.6-9,32.7a40.7,40.7,0,0,1-6.7,4.9l1.5,3.9a9.3,9.3,0,0,1-5.5,11.9"/><path class="cls-26" d="M283,174.7a12.3,12.3,0,0,1-15.8-7.3l-4.3-11.5a12.4,12.4,0,0,1,7.2-15.8,25.4,25.4,0,0,0,7.2-5.7c3.4-3.8,4.4-7.6,3.1-11.3a8.5,8.5,0,0,0-5.1-4.7,13.9,13.9,0,0,0-9.8.3c-5.5,2-7,7.8-6.5,9.1a12.3,12.3,0,0,1-23.1,8.5,29.4,29.4,0,0,1,2-24A34.7,34.7,0,0,1,257,95.7c11.3-4.2,22.1-3.7,31,1.6s13.2,11.4,16.5,20.2a31.3,31.3,0,0,1,1.1,19.3,34.7,34.7,0,0,1-11,16.7,50.4,50.4,0,0,1-5,3.8l.6,1.6A12.3,12.3,0,0,1,283,174.7ZM263.4,113a21.1,21.1,0,0,1,14-.3,14.9,14.9,0,0,1,8.7,8.3c2.1,5.9.6,12-4.4,17.6a32.8,32.8,0,0,1-9.4,7.2h0a6.2,6.2,0,0,0-3.7,8l4.3,11.5a6.1,6.1,0,0,0,8,3.7,6.2,6.2,0,0,0,3.6-8l-1.4-3.8a2.9,2.9,0,0,1,1.3-3.6,43.8,43.8,0,0,0,6.2-4.7c9.3-8.1,12.2-18.6,8.2-29.3-4.9-13.4-18.3-26.2-39.7-18.3-14.1,5.3-22.1,20.3-17.5,32.9a6.3,6.3,0,0,0,11.7-4.4c-.9-2.3-.4-5.8,1.3-9A16.4,16.4,0,0,1,263.4,113Z"/><path class="cls-29" d="M297.8,188.1a9.3,9.3,0,1,1-11.9-5.5,9.3,9.3,0,0,1,11.9,5.5"/><path class="cls-26" d="M293.3,202.8a12.3,12.3,0,1,1,7.3-15.8A12.3,12.3,0,0,1,293.3,202.8Zm-6.4-17.3a6.2,6.2,0,1,0,8,3.6A6.2,6.2,0,0,0,286.9,185.5Z"/><path class="cls-26" d="M244.6,234.2l26.2,5a3.8,3.8,0,0,1-1.4,7.5l-1.1-.4Z"/></g></g></svg>