<svg xmlns="http://www.w3.org/2000/svg" xmlns:xlink="http://www.w3.org/1999/xlink" viewBox="0 0 50 50"><defs><style>.cls-1{isolation:isolate;}.cls-2{fill:url(#Áåçûìÿííûé_ãðàäèåíò_20);}.cls-3,.cls-4{fill:#b09066;}.cls-4,.cls-6{opacity:0.8;}.cls-4,.cls-7{mix-blend-mode:screen;}.cls-5{opacity:0.3;fill:url(#Áåçûìÿííûé_ãðàäèåíò_373);}.cls-5,.cls-6,.cls-8,.cls-9{mix-blend-mode:multiply;}.cls-6{fill:url(#Áåçûìÿííûé_ãðàäèåíò_373-2);}.cls-7,.cls-9{fill:#997753;}.cls-7{opacity:0.2;}.cls-8{opacity:0.5;fill:url(#Áåçûìÿííûé_ãðàäèåíò_373-3);}.cls-9{opacity:0.4;}.cls-10{fill:#42321d;}.cls-11{fill:#deb581;}</style><linearGradient id="Áåçûìÿííûé_ãðàäèåíò_20" x1="3.175" y1="25" x2="46.825" y2="25" gradientUnits="userSpaceOnUse"><stop offset="0" stop-color="#94794c"/><stop offset="0.224" stop-color="#8f7449"/><stop offset="0.507" stop-color="#82643f"/><stop offset="0.821" stop-color="#6d4a30"/><stop offset="1" stop-color="#5e3825"/></linearGradient><linearGradient id="Áåçûìÿííûé_ãðàäèåíò_373" x1="3.175" y1="35.238" x2="46.825" y2="35.238" gradientUnits="userSpaceOnUse"><stop offset="0" stop-color="#94794c"/><stop offset="1" stop-color="#5e3825"/></linearGradient><linearGradient id="Áåçûìÿííûé_ãðàäèåíò_373-2" x1="4.943" y1="42.472" x2="45.071" y2="42.472" xlink:href="#Áåçûìÿííûé_ãðàäèåíò_373"/><linearGradient id="Áåçûìÿííûé_ãðàäèåíò_373-3" x1="4.943" y1="44.321" x2="45.071" y2="44.321" xlink:href="#Áåçûìÿííûé_ãðàäèåíò_373"/></defs><g class="cls-1"><g id="Layer_10" data-name="Layer 10"><path class="cls-2" d="M46.825,9.816V40.184a6.636,6.636,0,0,1-6.641,6.641H9.815a6.635,6.635,0,0,1-6.64-6.641V9.816A6.639,6.639,0,0,1,5.753,4.565a6.545,6.545,0,0,1,4.062-1.39H40.184a6.656,6.656,0,0,1,6.641,6.641Z"/><path class="cls-3" d="M40.075,11.064V36.245a2.411,2.411,0,0,1-.257,1.105A2.466,2.466,0,0,1,37.6,38.735H12.4a2.483,2.483,0,0,1-2.479-2.49V11.064A2.373,2.373,0,0,1,10.8,9.188,2.4,2.4,0,0,1,12.4,8.574H37.6a.184.184,0,0,1,.045.011.848.848,0,0,1,.134.022h.011c.123.023.3.045.513.09h.023A2.442,2.442,0,0,1,40.075,11.064Z"/><path class="cls-4" d="M40.075,11.06v.771a2.453,2.453,0,0,0-2.39-2.468.248.248,0,0,0-.089-.011H12.4a2.5,2.5,0,0,0-2.479,2.479V11.06A2.375,2.375,0,0,1,10.8,9.184,2.409,2.409,0,0,1,12.4,8.57H37.6a.184.184,0,0,1,.045.011.764.764,0,0,1,.134.023h.011c.123.022.3.044.513.089h.023A2.443,2.443,0,0,1,40.075,11.06Z"/><path class="cls-5" d="M46.825,24.163V40.184a6.644,6.644,0,0,1-6.641,6.641H9.815a6.646,6.646,0,0,1-6.64-6.641V23.65c2.092,1.768,5.439,1.377,6.749,1.134V36.243a2.519,2.519,0,0,0,2.483,2.484H37.593a2.515,2.515,0,0,0,1.606-.581,2.39,2.39,0,0,0,.621-.8,2.475,2.475,0,0,0,.256-1.107v-12C41.656,25.256,44.9,25.135,46.825,24.163Z"/><path class="cls-6" d="M45.071,44.679a6.613,6.613,0,0,1-4.887,2.146H9.815a6.621,6.621,0,0,1-4.872-2.132,10.443,10.443,0,0,0,3.415-2.875,22.089,22.089,0,0,0,2.443-3.7,2.374,2.374,0,0,0,1.606.608H37.593a2.515,2.515,0,0,0,1.606-.581,9.8,9.8,0,0,0,1.93,3.888A8.186,8.186,0,0,0,45.071,44.679Z"/><path class="cls-7" d="M44.936,5.186a14.783,14.783,0,0,1-5.224,4.589,2.408,2.408,0,0,0-2.025-1.188.235.235,0,0,0-.094-.013H12.407a2.378,2.378,0,0,0-1.606.607c-.041.041-.081.068-.122.108A18.116,18.116,0,0,1,5.753,4.565,6.471,6.471,0,0,1,8.7,3.269h.014a5.967,5.967,0,0,1,1.106-.094H40.184A6.551,6.551,0,0,1,42.25,3.5,6.738,6.738,0,0,1,44.936,5.186Z"/><path class="cls-7" d="M42.25,3.5C33.9,6.576,16.078,6.563,8.709,3.269a5.967,5.967,0,0,1,1.106-.094H40.184A6.551,6.551,0,0,1,42.25,3.5Z"/><path class="cls-8" d="M45.071,44.679a6.613,6.613,0,0,1-4.887,2.146H9.815a6.621,6.621,0,0,1-4.872-2.132,10.443,10.443,0,0,0,3.415-2.875c1.233,4.44,29.289,4.427,32.771.216A8.186,8.186,0,0,0,45.071,44.679Z"/><path class="cls-9" d="M40.076,25.081V36.243a2.473,2.473,0,0,1-2.483,2.484H12.407a2.477,2.477,0,0,1-2.483-2.484V24.676C14.526,32.45,33.692,31.2,40.076,25.081Z"/><path class="cls-7" d="M12.438,11c-1.416,1.18-.931,9.492-.745,12.1s16.976,4.635,24.194,1.3c2.42-1.116,2.606-12.283,1.3-13.027S13.554,10.066,12.438,11Z"/><path class="cls-10" d="M19.785,35.187c-.647.38-8.553-4-9.86-3.071S5.3,35.756,5.179,34.45c-.089-1.027,3.629-4.188,4.936-4.288S20.444,34.818,19.785,35.187Z"/><path class="cls-11" d="M19.785,35.187c-.647.38-8.553-4-9.86-3.071S5.3,35.756,5.179,34.45c0,0,4.188-3.171,4.936-3.261S19.785,35.187,19.785,35.187Z"/><path class="cls-11" d="M45.189,16.583l-.011.011c-.234.224-3.752,3.63-5.1,3.987-1.4.368-1.865-5.114-2.7-5.494S31.331,12.854,31.51,12.4l.011-.011a.233.233,0,0,1,.168-.078c1.016-.19,6.007.815,6.432,1.663.469.938,1.585,4.378,1.954,4.567S45.1,16.2,45.189,16.583Z"/><path class="cls-10" d="M45.189,16.583l-.011.011c-.279.157-4.924,2.859-5.382,2.68s-1.675-4.086-2.144-4.835S31.51,12.4,31.51,12.4l.011-.011c.023-.011.078-.034.168-.078,1.016-.19,6.007.815,6.432,1.663.469.938,1.585,4.378,1.954,4.567S45.1,16.2,45.189,16.583Z"/></g></g></svg>