<svg xmlns="http://www.w3.org/2000/svg" xmlns:xlink="http://www.w3.org/1999/xlink" viewBox="0 0 120 50"><defs><style>.cls-1{isolation:isolate;}.cls-2{fill:url(#Áåçûìÿííûé_ãðàäèåíò_20);}.cls-3,.cls-5{opacity:0.3;}.cls-3,.cls-4,.cls-8{mix-blend-mode:multiply;}.cls-3{fill:url(#Áåçûìÿííûé_ãðàäèåíò_373);}.cls-4{opacity:0.5;fill:url(#Áåçûìÿííûé_ãðàäèåíò_373-2);}.cls-10,.cls-5,.cls-8,.cls-9{fill:#997753;}.cls-10,.cls-5,.cls-7,.cls-9{mix-blend-mode:screen;}.cls-6,.cls-7{fill:#b09066;}.cls-7{opacity:0.8;}.cls-8{opacity:0.4;}.cls-9{opacity:0.2;}.cls-10{opacity:0.1;}.cls-11{fill:#4f3b22;}.cls-12{fill:#deb581;}</style><linearGradient id="Áåçûìÿííûé_ãðàäèåíò_20" x1="60" y1="8.626" x2="60" y2="43.064" gradientUnits="userSpaceOnUse"><stop offset="0" stop-color="#94794c"/><stop offset="0.224" stop-color="#8f7449"/><stop offset="0.507" stop-color="#82643f"/><stop offset="0.821" stop-color="#6d4a30"/><stop offset="1" stop-color="#5e3825"/></linearGradient><linearGradient id="Áåçûìÿííûé_ãðàäèåíò_373" x1="4.004" y1="32.929" x2="115.996" y2="32.929" gradientUnits="userSpaceOnUse"><stop offset="0" stop-color="#94794c"/><stop offset="1" stop-color="#5e3825"/></linearGradient><linearGradient id="Áåçûìÿííûé_ãðàäèåíò_373-2" x1="14.041" y1="36.062" x2="105.825" y2="36.062" xlink:href="#Áåçûìÿííûé_ãðàäèåíò_373"/></defs><g class="cls-1"><g id="Layer_7" data-name="Layer 7"><path class="cls-2" d="M116,25a.676.676,0,0,1-.009.135v.01c-.048,2.581-1.561,4.729-3.506,6.473-.954,1.165-2.033,2.36-2.957,3.323-.5.51-.954.953-1.32,1.271-.144.135-.279.251-.395.347a7.576,7.576,0,0,1-1.984.761c-2.851.838-8.12,1.955-12.493,2.832-2.331.568-4.681,1.05-7,1.464A151.357,151.357,0,0,1,56.692,43.79a138.273,138.273,0,0,1-28.5-3.285c-.1-.029-.2-.048-.308-.077-4.547-.9-10.634-2.158-13.842-3.082a13.956,13.956,0,0,1-1.666-.569,1.874,1.874,0,0,1-.4-.221,19.861,19.861,0,0,1-1.676-1.58A53.83,53.83,0,0,1,6.2,30.2a8.622,8.622,0,0,1-2.2-5.182,6.3,6.3,0,0,1,.241-1.869,6.787,6.787,0,0,1,.577-1.464,6.917,6.917,0,0,1,.415-.722A13.415,13.415,0,0,1,7.4,18.438c1.137-1.377,2.408-2.774,3.41-3.766A15.786,15.786,0,0,1,11.97,13.6a10.222,10.222,0,0,1,2.659-.963c2.581-.7,6.569-1.561,10.229-2.312q2.514-.665,5.057-1.214A143.8,143.8,0,0,1,59.976,6.177,143.208,143.208,0,0,1,90.635,9.239c1.6.357,3.179.752,4.758,1.185,3.574.732,7.4,1.57,9.864,2.244a10.426,10.426,0,0,1,2.552.935,15.044,15.044,0,0,1,1.2,1.107c.877.877,1.965,2.062,2.986,3.266a14.761,14.761,0,0,1,2.331,2.456,8.914,8.914,0,0,1,.771,1.214,7.588,7.588,0,0,1,.78,2.167A6.025,6.025,0,0,1,116,25Z"/><path class="cls-3" d="M116,25a.676.676,0,0,1-.009.135v.01c-.048,2.581-1.561,4.729-3.506,6.473-.954,1.165-2.033,2.36-2.957,3.323-.5.51-.954.953-1.32,1.271-.144.135-.279.251-.395.347a7.576,7.576,0,0,1-1.984.761c-2.851.838-8.12,1.955-12.493,2.832-2.331.568-4.681,1.05-7,1.464A151.357,151.357,0,0,1,56.692,43.79a138.273,138.273,0,0,1-28.5-3.285c-.1-.029-.2-.048-.308-.077-4.547-.9-10.634-2.158-13.842-3.082a13.956,13.956,0,0,1-1.666-.569,1.874,1.874,0,0,1-.4-.221,19.861,19.861,0,0,1-1.676-1.58A53.83,53.83,0,0,1,6.2,30.2a8.622,8.622,0,0,1-2.2-5.182,6.3,6.3,0,0,1,.241-1.869l8.611.405s88.922-3.583,103.024.26A6.025,6.025,0,0,1,116,25Z"/><path class="cls-4" d="M105.825,37.317c-2.851.838-8.12,1.955-12.493,2.832-2.331.568-4.681,1.05-7,1.464A151.357,151.357,0,0,1,56.692,43.79a138.273,138.273,0,0,1-28.5-3.285c-.1-.029-.2-.048-.308-.077-4.547-.9-10.634-2.158-13.842-3.082a13.862,13.862,0,0,1,1.3-5.606A7.027,7.027,0,0,1,20.408,28.3a84.18,84.18,0,0,0,13.206,3.516c2.022.385,4.18.732,6.463,1.021,2.311.308,4.748.568,7.33.761q3.482.29,7.291.4c1.7.049,3.468.077,5.278.077,2.553,0,5-.067,7.35-.154.009,0,.019-.009.029,0a131.933,131.933,0,0,0,19.793-2.273c.222-.038.444-.077.665-.125a82.882,82.882,0,0,0,11.7-3.217,6.968,6.968,0,0,1,5.009,3.429A13.557,13.557,0,0,1,105.825,37.317Z"/><path class="cls-5" d="M20.408,28.3a7.027,7.027,0,0,0-5.066,3.439,13.862,13.862,0,0,0-1.3,5.606,7.851,7.851,0,0,1-2.071-.79,19.861,19.861,0,0,1-1.676-1.58,13.884,13.884,0,0,0,3.6-4.517,5.418,5.418,0,0,0-1.121-5.783s-6.3-2.009-8.771.341a6.8,6.8,0,0,1,.818-3.333c1.686,1.638,7.045.446,7.632-1.181.511-1.426.122-4.55-1.65-5.831A15.786,15.786,0,0,1,11.97,13.6a10.222,10.222,0,0,1,2.659-.963,3.7,3.7,0,0,0-.732,3.371A5.358,5.358,0,0,0,16.95,18.9Z"/><path class="cls-5" d="M105.244,24.676a9.182,9.182,0,0,0,.725,5.783,13.83,13.83,0,0,0,3.555,4.479,22.506,22.506,0,0,1-1.715,1.618,7.576,7.576,0,0,1-1.984.761,13.557,13.557,0,0,0-1.3-5.577A7,7,0,0,0,99.468,28.3l3.458-9.4a5.354,5.354,0,0,0,3.043-2.889,3.672,3.672,0,0,0-.712-3.343,10.426,10.426,0,0,1,2.552.935,15.044,15.044,0,0,1,1.2,1.107c-1.7,1.282-3.326,3.584-2.806,4.99.6,1.637,7.227,3.66,8.894,1.946A7.14,7.14,0,0,1,116,25a.676.676,0,0,1-.009.135C113.685,22.647,105.244,24.676,105.244,24.676Z"/><path class="cls-6" d="M109.35,22.532a1.536,1.536,0,0,1-.424.857c-.019.038-.048.048-.067.067a21.374,21.374,0,0,1-4.238,2.688h-.01a69.01,69.01,0,0,1-16.8,5.384c-.221.048-.443.087-.665.125a131.933,131.933,0,0,1-19.793,2.273c-.01-.009-.02,0-.029,0-2.351.087-4.8.154-7.35.154-1.81,0-3.573-.028-5.278-.077q-3.815-.115-7.291-.4c-2.582-.193-5.019-.453-7.33-.761-2.283-.289-4.441-.636-6.463-1.021A84.18,84.18,0,0,1,20.408,28.3,43.72,43.72,0,0,1,14.3,25.6a16.627,16.627,0,0,1-3.843-2.726,4.784,4.784,0,0,1-.52-.636L10,22.146c.038-.038.067-.086.106-.134A13.2,13.2,0,0,1,13.733,19.2a41.628,41.628,0,0,1,5.789-2.707,78.509,78.509,0,0,1,10.634-3.13c3.361-.751,7.147-1.406,11.346-1.917q2.934-.346,6.136-.6c3.824-.289,7.937-.453,12.338-.453q4.407,0,8.419.212H68.4c3.208.145,6.213.405,9.045.723h.01c1.56.173,3.053.375,4.5.587.982.145,1.945.308,2.88.472a2.9,2.9,0,0,1,.3.048h.01c.876.154,1.734.318,2.562.482.453.1.9.183,1.329.279a77.75,77.75,0,0,1,11.019,3.169,41.537,41.537,0,0,1,6,2.736c.019.019.039.019.048.029.53.3,1.012.606,1.445.895a13.967,13.967,0,0,1,1.31.983,1.212,1.212,0,0,1,.318.414.891.891,0,0,1,.087.193A1.65,1.65,0,0,1,109.35,22.532Z"/><path class="cls-7" d="M109.2,21.453c-.154-.106-.327-.222-.51-.337-.453-.3-.944-.6-1.484-.9-.009-.01-.029-.01-.048-.039a43.117,43.117,0,0,0-6.145-2.735A81.92,81.92,0,0,0,89.73,14.277c-.443-.087-.9-.183-1.358-.27-.848-.173-1.724-.337-2.62-.481h-.01a1.136,1.136,0,0,0-.308-.048c-.963-.174-1.946-.338-2.948-.482-1.483-.212-3.005-.414-4.6-.588h-.009c-2.9-.317-5.982-.568-9.266-.722H68.6q-4.1-.2-8.611-.2-6.762,0-12.627.443c-2.2.164-4.287.366-6.29.6q-6.444.78-11.607,1.917a82.916,82.916,0,0,0-10.884,3.13,43.245,43.245,0,0,0-5.933,2.707,18.94,18.94,0,0,0-2.428,1.6A13.743,13.743,0,0,1,13.733,19.2a41.628,41.628,0,0,1,5.789-2.707,78.509,78.509,0,0,1,10.634-3.13c3.361-.751,7.147-1.406,11.346-1.917q2.934-.346,6.136-.6c3.824-.289,7.937-.453,12.338-.453q4.407,0,8.419.212H68.4c3.208.145,6.213.405,9.045.723h.01c1.56.173,3.053.375,4.5.587.982.145,1.945.308,2.88.472a2.9,2.9,0,0,1,.3.048h.01c.876.154,1.734.318,2.562.482.453.1.9.183,1.329.279a77.75,77.75,0,0,1,11.019,3.169,41.537,41.537,0,0,1,6,2.736c.019.019.039.019.048.029.53.3,1.012.606,1.445.895a13.967,13.967,0,0,1,1.31.983,1.212,1.212,0,0,1,.318.414C109.186,21.434,109.186,21.443,109.2,21.453Z"/><path class="cls-8" d="M109.35,22.532a1.536,1.536,0,0,1-.424.857c-.019.038-.048.048-.067.067a21.374,21.374,0,0,1-4.238,2.688h-.01a69.01,69.01,0,0,1-16.8,5.384c-.221.048-.443.087-.665.125a131.933,131.933,0,0,1-19.793,2.273c-.01-.009-.02,0-.029,0-2.351.087-4.8.154-7.35.154-1.81,0-3.573-.028-5.278-.077q-3.815-.115-7.291-.4c-2.582-.193-5.019-.453-7.33-.761-2.283-.289-4.441-.636-6.463-1.021A84.18,84.18,0,0,1,20.408,28.3,43.72,43.72,0,0,1,14.3,25.6a16.627,16.627,0,0,1-3.843-2.726c14.559,8.991,78.973,11.52,98.806-1.252A1.65,1.65,0,0,1,109.35,22.532Z"/><path class="cls-9" d="M13.1,21.12c-.271,2.431,33.07,2.874,47.037,2.874s41.739-2.586,43.183-3.592S83.09,12.355,59.492,12.355,13.258,19.684,13.1,21.12Z"/><path class="cls-10" d="M20,30.456c-1.163.727-2.729,4.013-2.729,5.3s24.562,6.9,42.381,6.9,42.7-5.618,43.344-6.421-2.729-5.3-3.853-5.94-13.484,4.656-37.564,5.137C33.005,36,21.285,29.653,20,30.456Z"/><path class="cls-9" d="M15.505,13.118a1.677,1.677,0,0,0,.964,2.569c.963.321,14.608-6.1,41.257-6.1s43.344,6.261,44.789,6.743,1.766-2.408.963-2.89S84.894,7.018,57.405,7.018C36.856,7.018,16.148,12.315,15.505,13.118Z"/><polygon class="cls-11" points="11.974 28.931 15.586 26.282 27.305 25.399 17.352 27.165 11.974 28.931"/><polygon class="cls-12" points="11.974 28.931 16.629 26.844 27.305 25.399 17.352 27.165 11.974 28.931"/><path class="cls-12" d="M101.6,17.658c-.847.481-10,.115-10.479-.251-.058-.038,0-.086.144-.125l.02-.009c1.136-.338,7.252-.713,7.782-.829.6-.115,3.892-3,4.383-3h.029C104.024,13.6,102.434,17.176,101.6,17.658Z"/><path class="cls-11" d="M103.475,13.439s-1.4,3-2.485,3.612-9.873.356-9.873.356l.144-.125.02-.009c1.136-.338,7.252-.713,7.782-.829.6-.115,3.892-3,4.383-3Z"/><path class="cls-11" d="M94.806,27.723c-.963.964-9.3-.318-10.749,0s-9.748,2.023-10.114,1.291c-.482-.963,8.187-3.053,9.95-3.053S95.769,26.76,94.806,27.723Z"/><path class="cls-12" d="M94.806,27.723c-.963.964-9.3-.318-10.749,0s-9.748,2.023-10.114,1.291c0,0,8.823-2.254,10.114-2.09S94.806,27.723,94.806,27.723Z"/></g></g></svg>