<svg xmlns="http://www.w3.org/2000/svg" xmlns:xlink="http://www.w3.org/1999/xlink" viewBox="0 0 50 100"><defs><style>.cls-1{isolation:isolate;}.cls-2{fill:url(#Áåçûìÿííûé_ãðàäèåíò_20);}.cls-3,.cls-4{fill:#b09066;}.cls-4,.cls-6{opacity:0.8;}.cls-4,.cls-7{mix-blend-mode:screen;}.cls-5{opacity:0.3;fill:url(#Áåçûìÿííûé_ãðàäèåíò_373);}.cls-5,.cls-6,.cls-8,.cls-9{mix-blend-mode:multiply;}.cls-6{fill:url(#Áåçûìÿííûé_ãðàäèåíò_373-2);}.cls-7,.cls-9{fill:#997753;}.cls-7{opacity:0.2;}.cls-8{opacity:0.5;fill:url(#Áåçûìÿííûé_ãðàäèåíò_373-3);}.cls-9{opacity:0.4;}.cls-10{fill:#42321d;}.cls-11{fill:#deb581;}</style><linearGradient id="Áåçûìÿííûé_ãðàäèåíò_20" x1="2.557" y1="50" x2="47.443" y2="50" gradientUnits="userSpaceOnUse"><stop offset="0" stop-color="#94794c"/><stop offset="0.224" stop-color="#8f7449"/><stop offset="0.507" stop-color="#82643f"/><stop offset="0.821" stop-color="#6d4a30"/><stop offset="1" stop-color="#5e3825"/></linearGradient><linearGradient id="Áåçûìÿííûé_ãðàäèåíò_373" x1="2.557" y1="72.501" x2="47.443" y2="72.501" gradientUnits="userSpaceOnUse"><stop offset="0" stop-color="#94794c"/><stop offset="1" stop-color="#5e3825"/></linearGradient><linearGradient id="Áåçûìÿííûé_ãðàäèåíò_373-2" x1="4.375" y1="88.401" x2="45.639" y2="88.401" xlink:href="#Áåçûìÿííûé_ãðàäèåíò_373"/><linearGradient id="Áåçûìÿííûé_ãðàäèåíò_373-3" x1="4.375" y1="92.465" x2="45.639" y2="92.465" xlink:href="#Áåçûìÿííûé_ãðàäèåíò_373"/></defs><g class="cls-1"><g id="_1" data-name="1"><path class="cls-2" d="M47.443,16.627V83.373c0,8.069-3.054,14.6-6.829,14.6H9.386c-3.776,0-6.829-6.526-6.829-14.595V16.627c0-4.687,1.041-8.87,2.651-11.54C6.36,3.159,7.8,2.032,9.386,2.032H40.614c1.916,0,3.651,1.691,4.886,4.42A24.924,24.924,0,0,1,47.443,16.627Z"/><path class="cls-3" d="M40.5,19.371V74.714a10.518,10.518,0,0,1-.264,2.43c-.414,1.816-1.286,3.043-2.285,3.043H12.047c-1.412,0-2.549-2.454-2.549-5.473V19.371a8.509,8.509,0,0,1,.9-4.123c.448-.859,1.033-1.35,1.653-1.35H37.953s.011,0,.045.025a.435.435,0,0,1,.138.049h.012c.126.049.31.1.528.2H38.7C39.755,14.831,40.5,16.892,40.5,19.371Z"/><path class="cls-4" d="M40.5,19.363v1.693c0-2.969-1.08-5.325-2.458-5.423a.127.127,0,0,0-.091-.025H12.047c-.62,0-1.2.466-1.653,1.325a8.577,8.577,0,0,0-.9,4.123V19.363a8.506,8.506,0,0,1,.9-4.123c.448-.859,1.033-1.35,1.653-1.35H37.953s.011,0,.045.025a.435.435,0,0,1,.138.049h.012c.126.049.31.1.528.2H38.7C39.755,14.823,40.5,16.884,40.5,19.363Z"/><path class="cls-5" d="M47.443,48.161V83.373a25.38,25.38,0,0,1-1.8,9.878c-1.25,2.907-3.04,4.717-5.025,4.717H9.386c-1.985,0-3.762-1.81-5.011-4.687a25.529,25.529,0,0,1-1.818-9.908V47.033A5.214,5.214,0,0,0,9.5,49.525V74.711a8.509,8.509,0,0,0,.9,4.123c.444.861,1.027,1.335,1.651,1.335h25.9c.624,0,1.193-.474,1.651-1.276a6.582,6.582,0,0,0,.639-1.75,10.839,10.839,0,0,0,.263-2.432V48.339C42.127,50.564,45.458,50.3,47.443,48.161Z"/><path class="cls-6" d="M45.639,93.251c-1.25,2.907-3.04,4.717-5.025,4.717H9.386c-1.985,0-3.762-1.81-5.011-4.687a19.411,19.411,0,0,0,3.512-6.319A69.745,69.745,0,0,0,10.4,78.834c.444.861,1.027,1.335,1.651,1.335h25.9c.624,0,1.193-.474,1.651-1.276a35.7,35.7,0,0,0,1.985,8.544A12.091,12.091,0,0,0,45.639,93.251Z"/><path class="cls-7" d="M45.5,6.452a28.093,28.093,0,0,1-5.371,10.086c-.417-1.543-1.194-2.551-2.082-2.61a.126.126,0,0,0-.1-.03H12.05c-.624,0-1.207.474-1.651,1.335-.042.089-.083.148-.125.237A37.615,37.615,0,0,1,5.208,5.087,6.2,6.2,0,0,1,8.234,2.24h.014a2.967,2.967,0,0,1,1.138-.208H40.614a3.625,3.625,0,0,1,2.124.712A9.173,9.173,0,0,1,45.5,6.452Z"/><path class="cls-7" d="M42.738,2.744c-8.591,6.763-26.912,6.734-34.49-.5a2.967,2.967,0,0,1,1.138-.208H40.614A3.625,3.625,0,0,1,42.738,2.744Z"/><path class="cls-8" d="M45.639,93.251c-1.25,2.907-3.04,4.717-5.025,4.717H9.386c-1.985,0-3.762-1.81-5.011-4.687a19.411,19.411,0,0,0,3.512-6.319c1.267,9.76,30.118,9.73,33.7.475A12.091,12.091,0,0,0,45.639,93.251Z"/><path class="cls-9" d="M40.5,50.178V74.711a10.839,10.839,0,0,1-.263,2.432c-.417,1.81-1.291,3.026-2.29,3.026H12.05c-1.415,0-2.553-2.433-2.553-5.458V49.288C14.229,66.375,33.938,63.616,40.5,50.178Z"/><path class="cls-7" d="M12.082,19.222c-1.456,2.593-.957,20.861-.766,26.588S28.772,56,36.2,48.673c2.488-2.454,2.679-27,1.339-28.633S13.23,17.177,12.082,19.222Z"/><path class="cls-10" d="M19.638,72.389c-.666.834-8.8-8.786-10.14-6.749-1.343,2.061-4.754,8-4.88,5.129-.092-2.258,3.732-9.2,5.075-9.424C11.025,61.149,20.315,71.579,19.638,72.389Z"/><path class="cls-11" d="M19.638,72.389c-.666.834-8.8-8.786-10.14-6.749-1.343,2.061-4.754,8-4.88,5.129,0,0,4.306-6.97,5.075-7.166S19.638,72.389,19.638,72.389Z"/><path class="cls-11" d="M45.761,31.5l-.012.024c-.241.491-3.858,7.976-5.247,8.762-1.436.81-1.918-11.241-2.779-12.075-.861-.81-6.212-4.909-6.029-5.915l.012-.024a.25.25,0,0,1,.172-.172c1.045-.417,6.178,1.792,6.614,3.657.482,2.061,1.631,9.62,2.01,10.037C40.881,36.189,45.669,30.667,45.761,31.5Z"/><path class="cls-10" d="M45.761,31.5l-.012.024c-.287.344-5.064,6.283-5.534,5.89S38.492,28.434,38.01,26.79,31.694,22.3,31.694,22.3l.012-.024c.023-.025.08-.074.172-.172,1.045-.417,6.178,1.792,6.614,3.657.482,2.061,1.631,9.62,2.01,10.037C40.881,36.189,45.669,30.667,45.761,31.5Z"/></g></g></svg>