<svg xmlns="http://www.w3.org/2000/svg" xmlns:xlink="http://www.w3.org/1999/xlink" viewBox="0 0 50 50"><defs><style>.cls-1{isolation:isolate;}.cls-2{fill:url(#Áåçûìÿííûé_ãðàäèåíò_20);}.cls-3,.cls-4{fill:#b09066;}.cls-4,.cls-6{opacity:0.8;}.cls-4,.cls-7{mix-blend-mode:screen;}.cls-5{opacity:0.3;fill:url(#Áåçûìÿííûé_ãðàäèåíò_373);}.cls-5,.cls-6,.cls-8,.cls-9{mix-blend-mode:multiply;}.cls-6{fill:url(#Áåçûìÿííûé_ãðàäèåíò_373-2);}.cls-7,.cls-9{fill:#997753;}.cls-7{opacity:0.2;}.cls-8{opacity:0.5;fill:url(#Áåçûìÿííûé_ãðàäèåíò_373-3);}.cls-9{opacity:0.4;}.cls-10{fill:#42321d;}.cls-11{fill:#deb581;}</style><linearGradient id="Áåçûìÿííûé_ãðàäèåíò_20" x1="0.62" y1="25" x2="49.38" y2="25" gradientUnits="userSpaceOnUse"><stop offset="0" stop-color="#94794c"/><stop offset="0.224" stop-color="#8f7449"/><stop offset="0.507" stop-color="#82643f"/><stop offset="0.821" stop-color="#6d4a30"/><stop offset="1" stop-color="#5e3825"/></linearGradient><linearGradient id="Áåçûìÿííûé_ãðàäèåíò_373" x1="0.62" y1="36.436" x2="49.38" y2="36.436" gradientUnits="userSpaceOnUse"><stop offset="0" stop-color="#94794c"/><stop offset="1" stop-color="#5e3825"/></linearGradient><linearGradient id="Áåçûìÿííûé_ãðàäèåíò_373-2" x1="2.595" y1="44.517" x2="47.42" y2="44.517" xlink:href="#Áåçûìÿííûé_ãðàäèåíò_373"/><linearGradient id="Áåçûìÿííûé_ãðàäèåíò_373-3" x1="2.595" y1="46.583" x2="47.42" y2="46.583" xlink:href="#Áåçûìÿííûé_ãðàäèåíò_373"/></defs><g class="cls-1"><g id="Layer_10" data-name="Layer 10"><path class="cls-2" d="M49.38,8.038V41.962a7.413,7.413,0,0,1-7.418,7.418H8.038A7.413,7.413,0,0,1,.62,41.962V8.038A7.416,7.416,0,0,1,3.5,2.173,7.308,7.308,0,0,1,8.038.62H41.962A7.438,7.438,0,0,1,49.38,8.038Z"/><path class="cls-3" d="M41.839,9.433V37.561a2.691,2.691,0,0,1-.286,1.235,2.759,2.759,0,0,1-2.483,1.547H10.93a2.774,2.774,0,0,1-2.77-2.782V9.433a2.651,2.651,0,0,1,.974-2.1,2.686,2.686,0,0,1,1.8-.686H39.07a.186.186,0,0,1,.05.013.856.856,0,0,1,.15.025h.012c.138.025.337.05.574.1h.025A2.726,2.726,0,0,1,41.839,9.433Z"/><path class="cls-4" d="M41.839,9.429v.86A2.739,2.739,0,0,0,39.17,7.533a.265.265,0,0,0-.1-.013H10.93a2.794,2.794,0,0,0-2.77,2.769v-.86a2.651,2.651,0,0,1,.974-2.1,2.686,2.686,0,0,1,1.8-.686H39.07a.186.186,0,0,1,.05.013.856.856,0,0,1,.15.025h.012c.138.024.337.049.574.1h.025A2.728,2.728,0,0,1,41.839,9.429Z"/><path class="cls-5" d="M49.38,24.065v17.9a7.422,7.422,0,0,1-7.418,7.418H8.038A7.424,7.424,0,0,1,.62,41.962V23.492C2.957,25.467,6.7,25.03,8.159,24.759v12.8a2.812,2.812,0,0,0,2.774,2.774H39.067a2.813,2.813,0,0,0,1.794-.648,2.68,2.68,0,0,0,.694-.889,2.764,2.764,0,0,0,.286-1.237v-13.4C43.605,25.286,47.224,25.151,49.38,24.065Z"/><path class="cls-6" d="M47.42,46.983a7.389,7.389,0,0,1-5.458,2.4H8.038A7.4,7.4,0,0,1,2.6,47,11.653,11.653,0,0,0,6.41,43.786a24.68,24.68,0,0,0,2.729-4.131,2.652,2.652,0,0,0,1.794.678H39.067a2.813,2.813,0,0,0,1.794-.648,10.938,10.938,0,0,0,2.156,4.342A9.143,9.143,0,0,0,47.42,46.983Z"/><path class="cls-7" d="M47.269,2.867a16.512,16.512,0,0,1-5.835,5.126,2.689,2.689,0,0,0-2.261-1.327.262.262,0,0,0-.106-.015H10.933a2.648,2.648,0,0,0-1.794.679c-.045.045-.091.075-.136.12A20.224,20.224,0,0,1,3.5,2.173,7.22,7.22,0,0,1,6.787.726H6.8A6.566,6.566,0,0,1,8.038.62H41.962a7.325,7.325,0,0,1,2.307.362A7.52,7.52,0,0,1,47.269,2.867Z"/><path class="cls-7" d="M44.269.982C34.936,4.42,15.034,4.405,6.8.726A6.566,6.566,0,0,1,8.038.62H41.962A7.325,7.325,0,0,1,44.269.982Z"/><path class="cls-8" d="M47.42,46.983a7.389,7.389,0,0,1-5.458,2.4H8.038A7.4,7.4,0,0,1,2.6,47,11.653,11.653,0,0,0,6.41,43.786c1.377,4.96,32.717,4.945,36.607.241A9.143,9.143,0,0,0,47.42,46.983Z"/><path class="cls-9" d="M41.841,25.09V37.559a2.761,2.761,0,0,1-2.774,2.774H10.933a2.766,2.766,0,0,1-2.774-2.774V24.638C13.3,33.323,34.71,31.92,41.841,25.09Z"/><path class="cls-7" d="M10.967,9.357c-1.581,1.318-1.039,10.6-.831,13.513S29.1,28.047,37.162,24.326c2.7-1.248,2.91-13.721,1.455-14.553S12.215,8.318,10.967,9.357Z"/><path class="cls-10" d="M19.175,36.379c-.724.424-9.555-4.465-11.015-3.43S3,37.015,2.859,35.556c-.1-1.148,4.054-4.678,5.514-4.79S19.911,35.968,19.175,36.379Z"/><path class="cls-11" d="M19.175,36.379c-.724.424-9.555-4.465-11.015-3.43S3,37.015,2.859,35.556c0,0,4.678-3.542,5.514-3.642S19.175,36.379,19.175,36.379Z"/><path class="cls-11" d="M47.552,15.6l-.012.013c-.262.249-4.191,4.054-5.7,4.453-1.559.411-2.083-5.713-3.018-6.137s-6.748-2.495-6.549-3.006l.013-.013a.259.259,0,0,1,.187-.087c1.135-.212,6.711.91,7.184,1.858.524,1.048,1.772,4.89,2.183,5.1S47.453,15.174,47.552,15.6Z"/><path class="cls-10" d="M47.552,15.6l-.012.013c-.312.174-5.5,3.193-6.012,2.993s-1.872-4.565-2.395-5.4-6.861-2.282-6.861-2.282l.013-.013c.024-.012.087-.037.187-.087,1.135-.212,6.711.91,7.184,1.858.524,1.048,1.772,4.89,2.183,5.1S47.453,15.174,47.552,15.6Z"/></g></g></svg>