<svg xmlns="http://www.w3.org/2000/svg" viewBox="0 0 400 400"><defs><style>.cls-1{opacity:0.2;}.cls-2{fill:#6d4c41;}.cls-3{fill:#ffa726;}.cls-4{opacity:0.5;}.cls-5{fill:#fff;}.cls-6{fill:#29b6f6;}</style></defs><g id="Layer_3" data-name="Layer 3"><g class="cls-1"><path class="cls-2" d="M169.4,19.6a358.3,358.3,0,0,0-44.9,7.5,192.6,192.6,0,0,0-17.5,9,3.7,3.7,0,0,0,4.3,1.8c.2-.1,23.5-7.6,59-11.3,28.6-3,70.4-4,115.6,6.2a175.8,175.8,0,0,0-27.8-12.1A380.2,380.2,0,0,0,169.4,19.6Z"/></g><path class="cls-2" d="M256,102.8a4,4,0,0,1-.3,1.5A3.7,3.7,0,0,1,251,106c-53.9-25.6-114.5-.2-115.1,0a3.6,3.6,0,0,1-4.6-1.8,3.7,3.7,0,0,1,1.9-4.7c2.6-1.1,64-26.8,120.8.1A3.5,3.5,0,0,1,256,102.8Z"/><path class="cls-2" d="M277.6,69.4a2.5,2.5,0,0,1-.2,1.2,3.6,3.6,0,0,1-4.5,2.1c-78.4-28.7-159.9-.3-160.8,0a3.4,3.4,0,0,1-4.4-2.2,3.5,3.5,0,0,1,2.1-4.5c.8-.3,84.7-29.5,165.5.1A3.5,3.5,0,0,1,277.6,69.4Z"/><path class="cls-2" d="M293.4,35.9a3,3,0,0,1-.2,1,3.5,3.5,0,0,1-4.4,2.4C187.9,9.5,95.3,39,94.4,39.3A3.5,3.5,0,0,1,89.9,37a3.5,3.5,0,0,1,2.3-4.4c.9-.3,95.6-30.5,198.6,0A3.4,3.4,0,0,1,293.4,35.9Z"/><ellipse class="cls-3" cx="200" cy="152.3" rx="36.4" ry="31.4"/><path class="cls-2" d="M239.5,152.3c0,19.1-17.7,34.6-39.5,34.6s-39.5-15.5-39.5-34.6,17.7-34.6,39.5-34.6S239.5,133.2,239.5,152.3Zm-72.7,0c0,15.6,14.9,28.3,33.2,28.3s33.2-12.7,33.2-28.3S218.3,124,200,124,166.8,136.7,166.8,152.3Z"/><g class="cls-1"><path class="cls-2" d="M186.8,123c16.3,3.1,28.4,15.7,28.4,30.7,0,13.3-9.5,24.7-23.1,29.3a41.5,41.5,0,0,0,7.9.7c20.1,0,36.4-14,36.4-31.4s-16.3-31.5-36.4-31.5A40.6,40.6,0,0,0,186.8,123Z"/></g><g class="cls-4"><path class="cls-5" d="M172.4,153.7c0-15.6,14.9-28.3,33.2-28.3a34.9,34.9,0,0,1,6.5.6,37,37,0,0,0-12.1-2c-18.3,0-33.2,12.7-33.2,28.3,0,13.7,11.5,25.2,26.7,27.7C181.2,175.9,172.4,165.7,172.4,153.7Z"/></g><path class="cls-6" d="M67.3,167.6l69.8,99.7v54.4a57.6,57.6,0,0,0,57.6,57.6h10.6a57.6,57.6,0,0,0,57.6-57.6V267.3l69.8-99.7a11.7,11.7,0,0,0-9.6-18.3H76.9A11.7,11.7,0,0,0,67.3,167.6Z"/><path class="cls-2" d="M337.9,161a15.1,15.1,0,0,1-2.6,8.4l-69.2,98.9v53.4a60.9,60.9,0,0,1-60.8,60.8H194.7a60.9,60.9,0,0,1-60.8-60.8V268.3L64.7,169.4h0a15,15,0,0,1-1-15.3,14.8,14.8,0,0,1,13.2-7.9H323.1a14.8,14.8,0,0,1,13.2,7.9A15.2,15.2,0,0,1,337.9,161ZM140.3,321.7a54.5,54.5,0,0,0,54.4,54.4h10.6a54.5,54.5,0,0,0,54.4-54.4V267.3a2.8,2.8,0,0,1,.6-1.8l69.8-99.7a8.3,8.3,0,0,0,.5-8.7,8.1,8.1,0,0,0-7.5-4.6H76.9a8.1,8.1,0,0,0-7.5,4.6,8.3,8.3,0,0,0,.5,8.7l69.8,99.7a2.8,2.8,0,0,1,.6,1.8Z"/><g class="cls-4"><path class="cls-5" d="M74.9,152.8H74l-.8.3h-.1a7.8,7.8,0,0,0-3.7,3.7,8.3,8.3,0,0,0,.5,8.7l69.8,99.7a2.8,2.8,0,0,1,.6,1.8v54.4a57.3,57.3,0,0,0,1.7,13.8,54.6,54.6,0,0,0,30.2,35.7,53,53,0,0,0,22.5,5h10.6a54.2,54.2,0,0,0,33.2-11.4,54.5,54.5,0,0,1-26.9,7.1H201.1a54.5,54.5,0,0,1-29.9-8.9,47.6,47.6,0,0,0-5.1-12.1c-4.9-8.5-11.3-14.5-16.7-16.4a53.2,53.2,0,0,1-2.8-17v-33a8.2,8.2,0,0,1,7.8-8.2l97.3-5.7-105.1-3.4v-4.1a3.3,3.3,0,0,0-.6-1.9L76.3,161.6h-.1a3.4,3.4,0,0,1,2.8-5.1L268.6,153l-28.3-.5H76.9A6.4,6.4,0,0,0,74.9,152.8Z"/></g><path class="cls-2" d="M265.8,267.4a3.2,3.2,0,0,1-3.2,3.2H137.4a3.2,3.2,0,0,1-3.2-3.2,3.2,3.2,0,0,1,3.2-3.2H262.6A3.2,3.2,0,0,1,265.8,267.4Z"/><g class="cls-1"><path class="cls-2" d="M175.7,266.3s86.6,24,45.8,111.2l12.8-7.3,19.9-17.6,8.4-31-2.8-53.5Z"/></g><g class="cls-1"><path class="cls-2" d="M178.5,265.7s84.5-18.4,85.2-116.4h59.5l10.9,7.4-.5,8.4-73.8,103Z"/></g><g class="cls-1"><rect class="cls-5" x="130" y="173.4" width="29.6" height="71.79" rx="9.5" transform="translate(-94.8 123.4) rotate(-35.6)"/></g></g></svg>