<svg xmlns="http://www.w3.org/2000/svg" viewBox="0 0 400 400"><defs><style>.cls-1{fill:#6d4c41;}.cls-2{fill:#ffa726;}.cls-3{opacity:0.2;}.cls-4{opacity:0.5;}.cls-5{fill:#fff;}.cls-6{fill:#29b6f6;}</style></defs><g id="Layer_4" data-name="Layer 4"><path class="cls-1" d="M144,332.2a4.1,4.1,0,0,1,.3-1.6A3.5,3.5,0,0,1,149,329c53.9,25.5,114.5.2,115.1-.1a3.6,3.6,0,0,1,4.6,1.9,3.6,3.6,0,0,1-1.9,4.6c-2.6,1.1-64,26.8-120.8-.1A3.4,3.4,0,0,1,144,332.2Z"/><ellipse class="cls-2" cx="200" cy="282.6" rx="36.4" ry="31.4"/><path class="cls-1" d="M160.5,282.6c0-19.1,17.7-34.6,39.5-34.6s39.5,15.5,39.5,34.6-17.7,34.6-39.5,34.6S160.5,301.7,160.5,282.6Zm72.7,0c0-15.6-14.9-28.3-33.2-28.3s-33.2,12.7-33.2,28.3,14.9,28.3,33.2,28.3S233.2,298.2,233.2,282.6Z"/><g class="cls-3"><path class="cls-1" d="M213.2,311.9c-16.3-3.1-28.4-15.6-28.4-30.7,0-13.3,9.5-24.7,23.1-29.3a41.5,41.5,0,0,0-7.9-.7c-20.1,0-36.4,14.1-36.4,31.4s16.3,31.5,36.4,31.5A40.6,40.6,0,0,0,213.2,311.9Z"/></g><g class="cls-4"><path class="cls-5" d="M227.6,281.2c0,15.6-14.9,28.3-33.2,28.3a46.2,46.2,0,0,1-6.5-.5,39.8,39.8,0,0,0,12.1,1.9c18.3,0,33.2-12.7,33.2-28.3,0-13.7-11.5-25.1-26.7-27.7C218.8,259,227.6,269.3,227.6,281.2Z"/></g><path class="cls-6" d="M332.7,267.3l-69.8-99.7V113.3a57.6,57.6,0,0,0-57.6-57.7H194.7a57.6,57.6,0,0,0-57.6,57.7v54.3L67.3,267.3a11.7,11.7,0,0,0,9.6,18.3H323.1A11.7,11.7,0,0,0,332.7,267.3Z"/><path class="cls-1" d="M62.1,274a15.2,15.2,0,0,1,2.6-8.5l69.2-98.9V113.3a60.9,60.9,0,0,1,60.8-60.9h10.6a60.9,60.9,0,0,1,60.8,60.9v53.3l69.2,98.9h0a15,15,0,0,1,1,15.3,14.8,14.8,0,0,1-13.2,7.9H76.9a14.8,14.8,0,0,1-13.2-7.9A15.1,15.1,0,0,1,62.1,274ZM259.7,113.3a54.5,54.5,0,0,0-54.4-54.5H194.7a54.5,54.5,0,0,0-54.4,54.5v54.3a3.3,3.3,0,0,1-.6,1.9L69.9,269.1a8.4,8.4,0,0,0-.5,8.8,8.2,8.2,0,0,0,7.5,4.5H323.1a8.2,8.2,0,0,0,7.5-4.5,8.4,8.4,0,0,0-.5-8.8l-69.8-99.6a3.3,3.3,0,0,1-.6-1.9Z"/><g class="cls-4"><path class="cls-5" d="M325.1,282.2l.5-.2h.4l.8-.3h.1a8.8,8.8,0,0,0,3.7-3.7,8.4,8.4,0,0,0-.5-8.8l-69.8-99.6a3.3,3.3,0,0,1-.6-1.9V113.3A57.5,57.5,0,0,0,258,99.4a54.6,54.6,0,0,0-30.2-35.7,52.9,52.9,0,0,0-22.5-4.9H194.7a54.1,54.1,0,0,0-33.2,11.3A54.5,54.5,0,0,1,188.4,63h10.5a54.5,54.5,0,0,1,29.9,8.9,49.7,49.7,0,0,0,5.1,12.2c4.9,8.4,11.3,14.5,16.7,16.3a53.8,53.8,0,0,1,2.8,17.1v32.9a8.3,8.3,0,0,1-7.8,8.3l-97.3,5.7,105.1,3.4v4.1a3,3,0,0,0,.6,1.8l69.7,99.6h.1a3.3,3.3,0,0,1-2.8,5.1l-189.6,3.4,28.3.5H323.1Z"/></g><path class="cls-1" d="M134.2,167.5a3.1,3.1,0,0,1,3.2-3.1H262.6a3.2,3.2,0,1,1,0,6.3H137.4A3.2,3.2,0,0,1,134.2,167.5Z"/><g class="cls-3"><path class="cls-1" d="M224.3,168.6s-86.6-23.9-45.8-111.2l-12.8,7.3L145.8,82.3l-8.4,31.1,2.8,53.4Z"/></g><g class="cls-3"><path class="cls-1" d="M221.5,169.2S137,187.6,136.3,285.6H76.8l-10.9-7.4.5-8.4,73.8-103Z"/></g><g class="cls-3"><rect class="cls-5" x="240.5" y="189.7" width="29.6" height="71.79" rx="9.5" transform="translate(594.1 260.5) rotate(144.4)"/></g></g></svg>